<svg width="54" height="54" viewBox="0 0 54 54" fill="none" xmlns="http://www.w3.org/2000/svg">
<path d="M4.04758 1.79768H49.9511C51.6898 1.79768 53.0993 3.20718 53.0993 4.94585V38.2494C53.0993 39.9881 51.6898 41.3976 49.9511 41.3976H4.04758C2.30891 41.3976 0.899414 39.9881 0.899414 38.2494V4.94585C0.899414 3.20718 2.30891 1.79768 4.04758 1.79768Z" fill="#99C8FF"/>
<path d="M4.04801 1.79817H49.9509C51.6898 1.79817 53.0994 3.20777 53.0994 4.94666V34.1982H0.899414V4.94666C0.899521 3.20777 2.30912 1.79817 4.04801 1.79817Z" fill="#E3F0FF"/>
<path d="M36.6963 48.6003H17.3037C17.2115 48.5949 17.1331 48.5319 17.1079 48.4431C17.0827 48.3543 17.1164 48.2594 17.192 48.2065L18.8164 47.0609C20.5899 45.768 21.4074 43.5322 20.8862 41.4002H33.1152L33.1147 41.4018C32.5937 43.5343 33.412 45.7702 35.1862 47.0628L36.8093 48.2065C36.8845 48.2598 36.9178 48.3548 36.8924 48.4434C36.8669 48.5321 36.7883 48.5949 36.6963 48.6003Z" fill="#E3F0FF"/>
<path d="M36.8092 48.2066L35.1861 47.0628C33.4119 45.7702 32.5937 43.5343 33.1147 41.4018L33.1151 41.4002H30.4152L30.4147 41.4018C29.8937 43.5343 30.712 45.7702 32.4862 47.0628L34.1093 48.2066C34.1845 48.2599 34.2177 48.3549 34.1923 48.4435C34.1669 48.5321 34.0883 48.5949 33.9963 48.6003H36.6963C36.7883 48.5949 36.8669 48.5321 36.8923 48.4435C36.9177 48.3549 36.8843 48.2599 36.8092 48.2066Z" fill="#99C8FF"/>
<path d="M17.191 48.2066L18.8141 47.0628C20.5884 45.7702 21.4065 43.5343 20.8856 41.4018L20.8852 41.4002H23.5852L23.5856 41.4018C24.1066 43.5343 23.2884 45.7702 21.5141 47.0628L19.891 48.2066C19.8158 48.2599 19.7826 48.3549 19.808 48.4435C19.8334 48.5321 19.912 48.5949 20.004 48.6003H17.3041C17.2121 48.5949 17.1335 48.5321 17.108 48.4435C17.0826 48.3549 17.1159 48.2599 17.191 48.2066Z" fill="white"/>
<path d="M49.9519 1.79817H47.252C48.9908 1.79817 50.4004 3.20777 50.4004 4.94666V38.2496C50.4004 39.9885 48.9908 41.3981 47.252 41.3982H49.9519C51.6908 41.3982 53.1004 39.9885 53.1004 38.2496V4.94666C53.1004 3.20777 51.6908 1.79817 49.9519 1.79817Z" fill="#99C8FF"/>
<path d="M4.04888 1.79817H6.74884C5.00995 1.79817 3.60035 3.20777 3.60035 4.94666V38.2496C3.60035 39.9885 5.00995 41.3982 6.74884 41.3982H4.04888C2.30999 41.3982 0.900391 39.9885 0.900391 38.2496V4.94666C0.900391 3.20777 2.30999 1.79817 4.04888 1.79817Z" fill="white"/>
<path d="M17.0969 48.5994H36.8969C37.891 48.5994 38.6969 49.4053 38.6969 50.3994C38.6969 51.3935 37.891 52.1994 36.8969 52.1994H17.0969C16.1028 52.1994 15.2969 51.3935 15.2969 50.3994C15.297 49.4052 16.1028 48.5994 17.0969 48.5994Z" fill="#E3F0FF"/>
<path d="M36.9002 48.5999H34.2002C35.1943 48.5999 36.0002 49.4058 36.0002 50.3999C36.0002 51.394 35.1943 52.1999 34.2002 52.1999H36.9002C37.8943 52.1999 38.7002 51.394 38.7002 50.3999C38.7002 49.4058 37.8943 48.5999 36.9002 48.5999Z" fill="#99C8FF"/>
<path d="M17.0998 48.5999H19.7998C18.8057 48.5999 17.9998 49.4058 17.9998 50.3999C17.9998 51.394 18.8057 52.1999 19.7998 52.1999H17.0998C16.1057 52.1999 15.2998 51.394 15.2998 50.3999C15.2998 49.4058 16.1057 48.5999 17.0998 48.5999Z" fill="white"/>
<path d="M36.6957 49.4972H17.3027C16.8197 49.4969 16.3934 49.1819 16.2514 48.7203C16.1021 48.2537 16.2746 47.7444 16.6768 47.4647L18.2975 46.3221C19.7696 45.2402 20.4453 43.3783 20.0096 41.6042L19.7486 40.4972H34.2514L33.9904 41.6043C33.5548 43.3793 34.2312 45.242 35.7044 46.324L37.3277 47.4678C37.7271 47.7497 37.8966 48.2587 37.7461 48.7238C37.6028 49.1837 37.1773 49.497 36.6957 49.4972ZM17.7157 48.9347L17.7096 48.9391L17.7157 48.9347ZM19.4674 47.6972H34.5327C32.8666 46.4187 31.9461 44.3949 32.077 42.299L21.923 42.2973C22.0546 44.3939 21.134 46.4184 19.4674 47.6972Z" fill="#2B8CFF"/>
<path d="M49.9517 42.2986H4.04823C1.81341 42.2959 0.00235898 40.4848 0 38.25V4.94735C0.00235898 2.71243 1.81341 0.901271 4.04823 0.89859H49.9517C52.1865 0.901164 53.9975 2.71243 53.9999 4.94725V38.2499C53.9975 40.4848 52.1866 42.2959 49.9517 42.2986ZM4.04823 2.6986C2.80708 2.70021 1.8014 3.7061 1.80001 4.94735V38.25C1.8014 39.4911 2.80708 40.497 4.04823 40.4986H49.9517C51.1928 40.497 52.1985 39.4911 52.1999 38.25V4.94735C52.1985 3.70621 51.1928 2.70032 49.9517 2.69871H4.04823V2.6986Z" fill="#2B8CFF"/>
<path d="M54 35.0986H0V4.94735C0.00235898 2.71243 1.81331 0.901164 4.04823 0.89859H49.9517C52.1865 0.901164 53.9975 2.71243 53.9999 4.94725L54 35.0986ZM1.80001 33.2986H52.2V4.94735C52.1986 3.70621 51.1929 2.70032 49.9518 2.69871H4.04823C2.80708 2.70021 1.8014 3.7061 1.80001 4.94735V33.2986Z" fill="#2B8CFF"/>
<path d="M36.9004 53.0977H17.1004C15.6092 53.0977 14.4004 51.8889 14.4004 50.3978C14.4004 48.9067 15.6093 47.6978 17.1004 47.6978H36.9004C38.3915 47.6978 39.6003 48.9067 39.6003 50.3978C39.6003 51.8889 38.3915 53.0977 36.9004 53.0977ZM17.1004 49.4977C16.6033 49.4977 16.2004 49.9007 16.2004 50.3977C16.2004 50.8947 16.6034 51.2976 17.1004 51.2976H36.9004C37.3975 51.2976 37.8003 50.8947 37.8003 50.3977C37.8003 49.9007 37.3973 49.4977 36.9004 49.4977H17.1004Z" fill="#2B8CFF"/>
<path d="M26.9966 38.6978C27.4937 38.6978 27.8966 38.2948 27.8966 37.7978C27.8966 37.3008 27.4937 36.8979 26.9966 36.8979C26.4996 36.8979 26.0967 37.3008 26.0967 37.7978C26.0967 38.2948 26.4996 38.6978 26.9966 38.6978Z" fill="#2B8CFF"/>
<path d="M17.1003 29.698C16.8616 29.6981 16.6325 29.6032 16.4638 29.4344C16.295 29.2657 16.2002 29.0367 16.2002 28.7979V6.29796C16.2002 5.80086 16.6032 5.39801 17.1001 5.39801C17.5971 5.39801 18.0001 5.80097 18.0001 6.29796V28.7979C18.0002 29.0366 17.9053 29.2657 17.7365 29.4344C17.568 29.6032 17.339 29.698 17.1003 29.698Z" fill="#2B8CFF"/>
<path d="M43.1999 26.9977H14.4C13.9028 26.9977 13.5 26.5947 13.5 26.0977C13.5 25.6006 13.903 25.1978 14.4 25.1978H43.1999C43.697 25.1978 44.0999 25.6007 44.0999 26.0977C44.1 26.5947 43.697 26.9977 43.1999 26.9977Z" fill="#2B8CFF"/>
<path d="M27.8989 23.3979C27.736 23.3979 27.5761 23.3536 27.4365 23.2696L23.5395 20.9313L21.3361 23.1342C20.9847 23.4856 20.4149 23.4856 20.0634 23.1342C19.7119 22.7829 19.712 22.2131 20.0634 21.8616L22.7633 19.1616C23.0552 18.8693 23.5088 18.8134 23.8628 19.0263L27.7019 21.3295L31.708 16.5219C31.8791 16.3168 32.1325 16.1981 32.3997 16.1981H37.3778L41.608 11.122C41.9261 10.7399 42.4938 10.6883 42.8758 11.0064C43.2579 11.3245 43.3096 11.8922 42.9914 12.2742L38.4914 17.6743C38.3203 17.8795 38.0669 17.9981 37.7997 17.9982H32.8216L28.5914 23.0743C28.4202 23.2796 28.1664 23.3983 27.8989 23.3979Z" fill="#2B8CFF"/>
<path d="M42.2997 17.098C42.061 17.0981 41.832 17.0032 41.6632 16.8344C41.4944 16.6656 41.3996 16.4367 41.3996 16.1979V12.7956L37.9763 13.4803C37.4892 13.5773 37.0155 13.2613 36.9181 12.7744C36.8206 12.2874 37.1361 11.8134 37.623 11.7154L42.1229 10.8155C42.3874 10.7625 42.6615 10.8309 42.8701 11.0018C43.0787 11.1727 43.1996 11.4282 43.1996 11.6978V16.1978C43.1997 16.4365 43.1049 16.6654 42.936 16.8343C42.7673 17.0033 42.5383 17.0981 42.2997 17.098Z" fill="#2B8CFF"/>
</svg>
