<svg width="54" height="54" viewBox="0 0 54 54" fill="none" xmlns="http://www.w3.org/2000/svg">
<path d="M43.0109 53.0998H10.9888C8.99722 53.0998 7.16758 52.0031 6.22825 50.2468C5.28892 48.4905 5.39233 46.3597 6.49769 44.7031L9.89988 39.5998L19.4938 25.2182C20.2783 24.0329 20.6977 22.6432 20.6997 21.2219V3.59995H33.2999V21.2219C33.302 22.6432 33.7214 24.0329 34.5058 25.2182L47.502 44.7031C47.5654 44.795 47.6227 44.891 47.6729 44.9911C48.6448 46.6596 48.651 48.7204 47.6886 50.3947C46.7258 52.0686 44.9419 53.1006 43.0109 53.0998Z" fill="#E3F0FF"/>
<path d="M40.3107 53.0998H10.9888C8.99722 53.0998 7.16759 52.0031 6.22825 50.2468C5.28892 48.4905 5.39233 46.3597 6.49769 44.7031L9.89989 39.5998L19.4938 25.2182C20.2783 24.0329 20.6977 22.6432 20.6997 21.2219V3.59995H30.5998V21.2219C30.6018 22.6432 31.0212 24.0329 31.8057 25.2182L44.8018 44.7031C44.8652 44.795 44.9225 44.891 44.9728 44.9911C45.9451 46.6596 45.9508 48.7204 44.9884 50.3947C44.026 52.0686 42.2417 53.1006 40.3107 53.0998Z" fill="#E3F0FF"/>
<path d="M37.7999 1.79999V2.70018C37.8011 3.41621 37.5168 4.10382 37.0101 4.61015C36.5038 5.1169 35.8166 5.40117 35.1001 5.39993H18.9C18.1835 5.40117 17.4963 5.1169 16.99 4.61015C16.4832 4.10382 16.199 3.41621 16.2002 2.70018V1.79999C16.2014 1.30354 16.6035 0.901444 17.1 0.900208H36.9001C37.3965 0.901444 37.7986 1.30354 37.7999 1.79999Z" fill="#E3F0FF"/>
<path d="M35.1001 1.79999V2.70018C35.1009 3.41621 34.8167 4.10382 34.3103 4.61015C33.8036 5.1169 33.1164 5.40117 32.4 5.39993H18.9C18.1835 5.40117 17.4963 5.1169 16.99 4.61015C16.4832 4.10382 16.199 3.41621 16.2002 2.70018V1.79999C16.2014 1.30354 16.6035 0.901444 17.1 0.900208H34.1999C34.6964 0.901444 35.0985 1.30354 35.1001 1.79999Z" fill="#E3F0FF"/>
<path d="M43.0109 53.0998H10.9888C8.99722 53.0998 7.16758 52.0031 6.22825 50.2468C5.28892 48.4905 5.39233 46.3597 6.49769 44.7031L9.09898 40.8061L9.89988 39.5998L13.6889 42.012C15.2158 42.9789 16.942 43.5882 18.7378 43.7938C21.279 44.0859 23.8465 43.5462 26.0547 42.2551C28.9506 40.5663 32.4245 40.1774 35.6219 41.1839L47.6729 44.9911C48.6448 46.6596 48.651 48.7204 47.6886 50.3947C46.7258 52.0686 44.9419 53.1006 43.0109 53.0998Z" fill="#99C8FF"/>
<path d="M40.3107 53.0998H10.9888C8.99722 53.0998 7.16759 52.0031 6.22825 50.2468C5.28892 48.4905 5.39233 46.3597 6.49769 44.7031L9.09898 40.8061L9.89989 39.5998C12.24 41.0941 16.0739 44.0999 18.7378 43.7938C21.279 44.0859 23.8465 43.5462 26.0547 42.2551C27.4687 41.4303 29.0371 40.9062 30.6628 40.7159C31.4303 40.7913 32.1876 40.9482 32.9217 41.1839L44.9728 44.9911C45.9451 46.6596 45.9508 48.7204 44.9884 50.3947C44.026 52.0686 42.2417 53.1006 40.3107 53.0998Z" fill="#99C8FF"/>
<path d="M6.30031 8.09977C6.30113 8.81622 6.01686 9.50341 5.51053 10.0097C5.00378 10.5165 4.31659 10.8008 3.60014 10.7995C3.2928 10.8016 2.98752 10.7468 2.70036 10.6376C1.62219 10.2598 0.900391 9.24221 0.900391 8.09977C0.900391 6.95733 1.62219 5.93931 2.70036 5.56151C2.98752 5.45275 3.2928 5.39795 3.60014 5.3996C4.31659 5.39878 5.00378 5.68305 5.51053 6.18938C6.01686 6.69613 6.30113 7.38332 6.30031 8.09977Z" fill="#E3F0FF"/>
<path d="M4.50034 8.10008C4.50034 6.6985 3.69449 5.56183 2.70036 5.56183C1.70624 5.56183 0.900391 6.6985 0.900391 8.10008C0.900391 9.50166 1.70624 10.6379 2.70036 10.6379C3.69449 10.6379 4.50034 9.50166 4.50034 8.10008Z" fill="#E3F0FF"/>
<path d="M53.0997 4.94982C53.1013 6.02429 52.6749 7.05549 51.9152 7.8152C51.1555 8.5749 50.1243 9.00131 49.0498 8.99966C48.5896 9.00131 48.1327 8.9222 47.6997 8.76565C46.0819 8.19464 45 6.66575 45 4.94982C45 3.2339 46.0819 1.7046 47.6997 1.134C48.1327 0.977442 48.5896 0.898341 49.0498 0.899989C50.1243 0.898341 51.1555 1.32475 51.9152 2.08445C52.6749 2.84416 53.1013 3.87536 53.0997 4.94982Z" fill="#E3F0FF"/>
<path d="M50.3999 4.95004C50.3999 2.84232 49.1911 1.13422 47.6998 1.13422C46.2088 1.13422 45 2.84232 45 4.95004C45 7.05736 46.2088 8.76587 47.6998 8.76587C49.1911 8.76587 50.3999 7.05736 50.3999 4.95004Z" fill="#E3F0FF"/>
<path d="M49.4995 29.6997C49.5008 30.4157 49.2165 31.1033 48.7098 31.6096C48.2034 32.1164 47.5162 32.4007 46.7998 32.3994C46.4924 32.4015 46.1872 32.3467 45.8996 32.2375C44.8214 31.8597 44.0996 30.8421 44.0996 29.6997C44.0996 28.5572 44.8214 27.5392 45.8996 27.1614C46.1872 27.0527 46.4924 26.9974 46.7998 26.9995C47.5162 26.9987 48.2034 27.2825 48.7098 27.7893C49.2165 28.2956 49.5008 28.9832 49.4995 29.6997Z" fill="#E3F0FF"/>
<path d="M47.6996 29.7002C47.6996 28.2982 46.8937 27.1619 45.8996 27.1619C44.9055 27.1619 44.0996 28.2982 44.0996 29.7002C44.0996 31.1018 44.9055 32.238 45.8996 32.238C46.8937 32.238 47.6996 31.1018 47.6996 29.7002Z" fill="#E3F0FF"/>
<path d="M19.4938 25.2182L9.89989 39.5998L6.49769 44.7031C5.39233 46.3597 5.28892 48.4905 6.22825 50.2468C7.16759 52.0031 8.99722 53.0998 10.9888 53.0998H13.6889C11.697 53.0998 9.86734 52.0031 8.92801 50.2468C7.98868 48.4905 8.0925 46.3597 9.19786 44.7031L12.5996 39.5998L22.194 25.2182C22.9784 24.0329 23.3978 22.6432 23.3999 21.2219V5.39993H21.5999C20.8835 5.40117 20.1963 5.1169 19.6895 4.61015C19.1832 4.10382 18.8989 3.41621 18.8997 2.70018V1.79999C18.9014 1.30354 19.3035 0.901444 19.7999 0.900208H17.0998C16.6033 0.901444 16.2012 1.30354 16.2 1.79999V2.70018C16.1988 3.41621 16.483 4.10382 16.9898 4.61015C17.4961 5.1169 18.1833 5.40117 18.8997 5.39993H20.6997V21.2219C20.6977 22.6432 20.2783 24.0329 19.4938 25.2182Z" fill="white"/>
<path d="M2.70036 10.6376C2.98752 10.7468 3.2928 10.8016 3.60014 10.7995C4.07434 10.7975 4.53947 10.6689 4.94775 10.4279C4.1143 9.94877 3.60014 9.06094 3.60014 8.09977C3.60014 7.13819 4.1143 6.25036 4.94775 5.77163C4.53947 5.53061 4.07434 5.40207 3.60014 5.3996C3.2928 5.39795 2.98752 5.45275 2.70036 5.56151C1.62219 5.93931 0.900391 6.95733 0.900391 8.09977C0.900391 9.24221 1.62219 10.2598 2.70036 10.6376Z" fill="white"/>
<path d="M35.0999 6.30011H18.8997C16.9127 6.29764 15.3019 4.68718 15.2998 2.70016V0.900192C15.2998 0.402924 15.7027 0 16.2 0H37.7997C38.2969 0 38.6999 0.402924 38.6999 0.900192V2.70016C38.6978 4.68718 37.0869 6.29764 35.0999 6.30011ZM17.0998 1.79997V2.70016C17.101 3.69388 17.906 4.4989 18.8997 4.50014H35.0999C36.0936 4.4989 36.8987 3.69388 36.8999 2.70016V1.79997H17.0998Z" fill="#2B8CFF"/>
<path d="M21.5998 5.3999V21.2202H19.7998V5.3999H21.5998Z" fill="white"/>
<path d="M20.6996 9.90004C21.196 9.89839 21.5981 9.49629 21.5998 8.99985V5.3999H19.7998V8.99985C19.801 9.49629 20.2031 9.89839 20.6996 9.90004Z" fill="#2B8CFF"/>
<path d="M19.7998 21.2198H21.5998V16.2002C21.5998 15.7029 21.1969 15.3 20.6996 15.3C20.2027 15.3 19.7998 15.7029 19.7998 16.2002V21.2198Z" fill="#2B8CFF"/>
<path d="M21.6001 12.5998C21.5964 12.3617 21.5033 12.1334 21.3389 11.9608L21.2042 11.8529C21.1539 11.8191 21.0995 11.7919 21.0418 11.7721C20.9912 11.7462 20.9364 11.7276 20.8799 11.7181C20.8206 11.7078 20.7604 11.7017 20.6999 11.7C20.4618 11.7033 20.2335 11.7964 20.0609 11.9608C19.8425 12.1713 19.7465 12.4787 19.8067 12.7761C19.8673 13.0732 20.0749 13.3191 20.3579 13.4279C20.4663 13.474 20.5825 13.4987 20.6999 13.5C20.9392 13.5025 21.17 13.4085 21.3389 13.2392C21.5082 13.0699 21.6025 12.8396 21.6001 12.5998Z" fill="#2B8CFF"/>
<path d="M43.0116 54H10.9928C8.66877 54 6.53385 52.7208 5.43714 50.672C4.34043 48.6231 4.46073 46.1372 5.74943 44.2038L18.7423 24.7147C19.4336 23.6802 19.8019 22.464 19.8007 21.2198C19.8007 20.7229 20.2036 20.32 20.7004 20.32C21.1977 20.32 21.6006 20.7229 21.6006 21.2198C21.6019 22.8191 21.1285 24.383 20.2398 25.7129L7.247 45.202C6.32621 46.5834 6.24052 48.3595 7.0237 49.8228C7.8073 51.2866 9.33248 52.2 10.9928 52.2H43.0116C44.6711 52.2 46.1959 51.2866 46.9786 49.8237C47.7618 48.3607 47.6761 46.5854 46.7558 45.2049L33.7613 25.7129C32.8726 24.383 32.3992 22.8191 32.4005 21.2198V6.30009H20.7004C20.2036 6.30009 19.8007 5.89717 19.8007 5.3999C19.8007 4.90305 20.2036 4.50012 20.7004 4.50012H33.3007C33.7975 4.50012 34.2004 4.90305 34.2004 5.3999V21.2198C34.1992 22.464 34.5675 23.6802 35.2588 24.7147L48.2529 44.2062C49.5416 46.1393 49.6619 48.6248 48.5656 50.6732C47.4693 52.7216 45.3348 54 43.0116 54Z" fill="#2B8CFF"/>
<path d="M47.7001 45.902C47.6082 45.902 47.5163 45.888 47.4286 45.86L35.3462 42.0445C32.3927 41.1147 29.1841 41.4727 26.5083 43.0304C22.3793 45.4517 17.241 45.3528 13.2081 42.7738L9.41655 40.3612C9.14546 40.1885 8.98685 39.8841 9.00086 39.5627C9.01445 39.2414 9.19902 38.9517 9.48412 38.8034C9.76921 38.6547 10.112 38.6695 10.3835 38.8422L14.1746 41.2548C17.6394 43.4708 22.0538 43.5561 25.6015 41.4756C28.7165 39.6628 32.4512 39.2463 35.8892 40.3282L47.9716 44.1432C48.3955 44.2767 48.6592 44.6994 48.5912 45.139C48.5236 45.5786 48.1454 45.9028 47.7005 45.902H47.7001Z" fill="#2B8CFF"/>
<path d="M3.59995 11.7C1.61169 11.7 0 10.0883 0 8.10007C0 6.11182 1.61169 4.50012 3.59995 4.50012C5.5882 4.50012 7.19989 6.11182 7.19989 8.10007C7.19783 10.0871 5.58737 11.698 3.59995 11.7ZM3.59995 6.30009C2.60582 6.30009 1.79997 7.10594 1.79997 8.10007C1.79997 9.09419 2.60582 9.90004 3.59995 9.90004C4.59407 9.90004 5.39992 9.09419 5.39992 8.10007C5.39909 7.10635 4.59366 6.30092 3.59995 6.30009Z" fill="#2B8CFF"/>
<path d="M49.0496 9.90005C46.3157 9.90005 44.0996 7.68398 44.0996 4.95003C44.0996 2.21608 46.3157 0 49.0496 0C51.7836 0 53.9997 2.21608 53.9997 4.95003C53.9968 7.68274 51.7823 9.89676 49.0496 9.90005ZM49.0496 1.79997C47.7758 1.79997 46.6272 2.5675 46.1394 3.74455C45.652 4.9216 45.9214 6.27663 46.8224 7.17723C47.723 8.07825 49.0781 8.34769 50.2551 7.86031C51.4322 7.37251 52.1997 6.22389 52.1997 4.95003C52.1976 3.21103 50.7886 1.80203 49.0496 1.79997Z" fill="#2B8CFF"/>
<path d="M46.8001 33.3001C44.8119 33.3001 43.2002 31.6884 43.2002 29.7001C43.2002 27.7119 44.8119 26.0998 46.8001 26.0998C48.7884 26.0998 50.4001 27.7119 50.4001 29.7001C50.3976 31.6872 48.7872 33.2976 46.8001 33.3001ZM46.8001 27.9002C45.806 27.9002 45.0002 28.706 45.0002 29.7001C45.0002 30.6943 45.806 31.5001 46.8001 31.5001C47.7943 31.5001 48.6001 30.6943 48.6001 29.7001C48.5989 28.7064 47.7939 27.901 46.8001 27.9002Z" fill="#2B8CFF"/>
<path d="M8.10039 24.2998C7.60312 24.2998 7.2002 23.8969 7.2002 23.4001V21.6001C7.2002 21.1028 7.60312 20.6999 8.10039 20.6999C8.59724 20.6999 9.00017 21.1028 9.00017 21.6001V23.4001C9.00017 23.8969 8.59724 24.2998 8.10039 24.2998Z" fill="#2B8CFF"/>
<path d="M8.10039 29.7001C7.60312 29.7001 7.2002 29.2972 7.2002 28.8V27C7.2002 26.5031 7.60312 26.0998 8.10039 26.0998C8.59724 26.0998 9.00017 26.5031 9.00017 27V28.8C9.00017 29.2972 8.59724 29.7001 8.10039 29.7001Z" fill="#2B8CFF"/>
<path d="M6.29977 26.0998H4.4998C4.00253 26.0998 3.59961 25.6969 3.59961 25.2C3.59961 24.7028 4.00253 24.2998 4.4998 24.2998H6.29977C6.79663 24.2998 7.19955 24.7028 7.19955 25.2C7.19955 25.6969 6.79663 26.0998 6.29977 26.0998Z" fill="#2B8CFF"/>
<path d="M11.7002 26.0998H9.90019C9.40292 26.0998 9 25.6969 9 25.2C9 24.7028 9.40292 24.2998 9.90019 24.2998H11.7002C12.197 24.2998 12.5999 24.7028 12.5999 25.2C12.5999 25.6969 12.197 26.0998 11.7002 26.0998Z" fill="#2B8CFF"/>
<path d="M39.6 14.4002C39.1031 14.4002 38.7002 13.9969 38.7002 13.5V11.7C38.7002 11.2028 39.1031 10.7998 39.6 10.7998C40.0972 10.7998 40.5002 11.2028 40.5002 11.7V13.5C40.5002 13.9969 40.0972 14.4002 39.6 14.4002Z" fill="#2B8CFF"/>
<path d="M39.6 19.8001C39.1031 19.8001 38.7002 19.3972 38.7002 18.8999V17.0999C38.7002 16.6031 39.1031 16.2002 39.6 16.2002C40.0972 16.2002 40.5002 16.6031 40.5002 17.0999V18.8999C40.5002 19.3972 40.0972 19.8001 39.6 19.8001Z" fill="#2B8CFF"/>
<path d="M37.7994 16.2002H35.9994C35.5025 16.2002 35.0996 15.7973 35.0996 15.3C35.0996 14.8031 35.5025 14.4002 35.9994 14.4002H37.7994C38.2966 14.4002 38.6996 14.8031 38.6996 15.3C38.6996 15.7973 38.2966 16.2002 37.7994 16.2002Z" fill="#2B8CFF"/>
<path d="M43.2002 16.2002H41.4002C40.9029 16.2002 40.5 15.7973 40.5 15.3C40.5 14.8031 40.9029 14.4002 41.4002 14.4002H43.2002C43.697 14.4002 44.0999 14.8031 44.0999 15.3C44.0999 15.7973 43.697 16.2002 43.2002 16.2002Z" fill="#2B8CFF"/>
<path d="M24.3002 9.90005C23.8033 9.90005 23.4004 9.49713 23.4004 8.99986V8.10008C23.4004 7.60281 23.8033 7.19989 24.3002 7.19989C24.7974 7.19989 25.2004 7.60281 25.2004 8.10008V8.99986C25.2004 9.49713 24.7974 9.90005 24.3002 9.90005Z" fill="#2B8CFF"/>
<path d="M24.3002 22.4998C23.8033 22.4998 23.4004 22.0969 23.4004 21.6001V12.5998C23.4004 12.1029 23.8033 11.7 24.3002 11.7C24.7974 11.7 25.2004 12.1029 25.2004 12.5998V21.6001C25.2004 22.0969 24.7974 22.4998 24.3002 22.4998Z" fill="#2B8CFF"/>
<path d="M11.7 46.7886C11.4619 46.7853 11.2336 46.6922 11.061 46.5278C10.895 46.356 10.8015 46.1273 10.7998 45.8888C10.7998 45.3915 11.2027 44.9886 11.7 44.9886C12.1969 44.9886 12.5998 45.3915 12.5998 45.8888C12.5981 46.1273 12.5046 46.356 12.339 46.5278C12.1664 46.6917 11.9381 46.7853 11.7 46.7886Z" fill="#2B8CFF"/>
<path d="M18.8998 50.4001C18.6617 50.3964 18.4334 50.3033 18.2608 50.1389C18.0952 49.9675 18.0016 49.7388 18 49.4999C18 49.003 18.4029 48.6001 18.8998 48.6001C19.397 48.6001 19.8 49.003 19.8 49.4999C19.7979 49.7384 19.7044 49.9675 19.5388 50.1389C19.3662 50.3033 19.1379 50.3964 18.8998 50.4001Z" fill="#2B8CFF"/>
<path d="M26.9998 47.6999C26.7617 47.6966 26.5334 47.6031 26.3608 47.4391C26.1948 47.2673 26.1017 47.0386 26.0996 46.8001C26.0996 46.3028 26.5029 45.8999 26.9998 45.8999C27.4967 45.8999 27.9 46.3028 27.9 46.8001C27.8979 47.0386 27.8044 47.2673 27.6388 47.4391C27.4662 47.6031 27.2379 47.6962 26.9998 47.6999Z" fill="#2B8CFF"/>
<path d="M34.1996 50.3889C33.9615 50.3852 33.7332 50.2921 33.5606 50.1277C33.395 49.9564 33.3015 49.7273 33.2998 49.4888C33.2998 48.9919 33.7027 48.5886 34.1996 48.5886C34.6969 48.5886 35.0998 48.9919 35.0998 49.4888C35.0977 49.7273 35.0042 49.9559 34.8386 50.1277C34.666 50.2921 34.4381 50.3852 34.1996 50.3889Z" fill="#2B8CFF"/>
<path d="M40.4998 47.6999C40.2617 47.6966 40.0334 47.6031 39.8608 47.4391C39.6948 47.2673 39.6017 47.0386 39.5996 46.8001C39.5996 46.3028 40.0029 45.8999 40.4998 45.8999C40.9967 45.8999 41.4 46.3028 41.4 46.8001C41.3979 47.0386 41.3044 47.2673 41.1388 47.4391C40.9662 47.6031 40.7379 47.6962 40.4998 47.6999Z" fill="#2B8CFF"/>
</svg>
