<svg width="54" height="54" viewBox="0 0 54 54" fill="none" xmlns="http://www.w3.org/2000/svg">
<g clip-path="url(#clip0)">
<path d="M53.1004 3.59838V31.4984H0.900391V3.59838C0.900391 2.10721 2.10922 0.898376 3.60039 0.898376H50.4004C51.8916 0.898376 53.1004 2.10721 53.1004 3.59838Z" fill="#E3F0FF"/>
<path d="M50.4002 0.898376H47.7002C49.1914 0.898376 50.4002 2.10721 50.4002 3.59838V31.4984H53.1002V3.59838C53.1002 2.10721 51.8914 0.898376 50.4002 0.898376Z" fill="#E3F0FF"/>
<path d="M53.1004 31.4989V50.3989C53.1004 51.89 51.8916 53.0989 50.4004 53.0989H3.60039C2.10922 53.0989 0.900391 51.89 0.900391 50.3989V31.4989H53.1004Z" fill="#99C8FF"/>
<path d="M50.4002 31.4989V50.3989C50.4002 51.89 49.1914 53.0989 47.7002 53.0989H50.4002C51.8914 53.0989 53.1002 51.89 53.1002 50.3989V31.4989H50.4002Z" fill="#99C8FF"/>
<path d="M36.8998 17.0987H35.9998C36.9927 17.1017 37.7969 17.9058 37.7998 18.8987C37.7925 19.8898 36.9909 20.6914 35.9998 20.6987H35.0998C36.0927 20.7017 36.8969 21.5058 36.8998 22.4987C36.8925 23.4898 36.0909 24.2914 35.0998 24.2987H34.1998C35.1927 24.3017 35.9969 25.1058 35.9998 26.0987C35.9925 27.0898 35.1909 27.8914 34.1998 27.8987H26.0458C25.4895 27.9009 24.9405 27.7714 24.4438 27.5207L22.3558 26.4767C21.8591 26.2261 21.3102 26.0965 20.7538 26.0987H19.7998V13.4987H20.6998C22.5438 13.3655 24.2145 12.3631 25.1998 10.7987C26.1657 9.26799 26.931 7.61949 27.4768 5.89373C27.7604 5.05733 28.5467 4.49569 29.4298 4.49873H29.4388C30.5785 4.50369 31.4998 5.42901 31.4998 6.56873C31.5003 8.17847 31.1917 9.77334 30.5908 11.2667L29.6998 13.4987H36.8008C37.6527 13.4813 38.4098 14.039 38.6458 14.8577C38.7778 15.3956 38.6561 15.9643 38.3157 16.4012C37.9753 16.8381 37.4537 17.0951 36.8998 17.0987Z" fill="#E3F0FF"/>
<path d="M18.9008 12.5981H16.2008C15.7037 12.5981 15.3008 13.0011 15.3008 13.4981V26.9981C15.3008 27.4952 15.7037 27.8981 16.2008 27.8981H18.9008C19.3978 27.8981 19.8008 27.4952 19.8008 26.9981V13.4981C19.8008 13.0011 19.3978 12.5981 18.9008 12.5981Z" fill="#99C8FF"/>
<path d="M43.8383 36.4123L45.2342 39.3679C45.3343 39.584 45.5348 39.7367 45.7697 39.7757L48.89 40.2491C49.1634 40.3016 49.3856 40.5004 49.4681 40.7663C49.5506 41.0321 49.4799 41.3218 49.2842 41.5199L47.0279 43.8185C46.8586 43.9933 46.7824 44.2381 46.8227 44.4782L47.3555 47.7254C47.4105 47.9961 47.3056 48.2745 47.0856 48.4417C46.8657 48.6089 46.5694 48.6355 46.3232 48.5102L43.5332 46.9802C43.3272 46.8659 43.0768 46.8659 42.8708 46.9802L40.0808 48.5102C39.8346 48.6355 39.5383 48.6089 39.3184 48.4417C39.0984 48.2745 38.9936 47.9961 39.0485 47.7254L39.5813 44.4782C39.6216 44.2381 39.5454 43.9933 39.3761 43.8185L37.1162 41.5199C36.9205 41.3218 36.8498 41.0321 36.9323 40.7663C37.0148 40.5004 37.237 40.3016 37.5104 40.2491L40.6307 39.7757C40.8657 39.7367 41.0661 39.584 41.1662 39.3679L42.5621 36.4123C42.6743 36.1603 42.9243 35.9978 43.2002 35.9978C43.4761 35.9978 43.7262 36.1603 43.8383 36.4123Z" fill="#E3F0FF"/>
<path d="M27.6391 36.4123L29.035 39.3679C29.1351 39.584 29.3355 39.7367 29.5705 39.7757L32.6908 40.2491C32.9642 40.3016 33.1864 40.5004 33.2689 40.7663C33.3513 41.0321 33.2807 41.3218 33.085 41.5199L30.8287 43.8185C30.6594 43.9933 30.5832 44.2381 30.6235 44.4782L31.1563 47.7254C31.2112 47.9961 31.1064 48.2745 30.8864 48.4417C30.6665 48.6089 30.3702 48.6355 30.124 48.5102L27.334 46.9802C27.128 46.8659 26.8776 46.8659 26.6716 46.9802L23.8816 48.5102C23.6354 48.6355 23.3391 48.6089 23.1192 48.4417C22.8992 48.2745 22.7943 47.9961 22.8493 47.7254L23.3821 44.4782C23.4224 44.2381 23.3462 43.9933 23.1769 43.8185L20.917 41.5199C20.7213 41.3218 20.6506 41.0321 20.7331 40.7663C20.8156 40.5004 21.0378 40.3016 21.3112 40.2491L24.4315 39.7757C24.6664 39.7367 24.8669 39.584 24.967 39.3679L26.3629 36.4123C26.475 36.1603 26.7251 35.9978 27.001 35.9978C27.2769 35.9978 27.5269 36.1603 27.6391 36.4123Z" fill="#E3F0FF"/>
<path d="M11.4389 36.4135L12.8348 39.3691C12.9357 39.5864 13.1382 39.7392 13.3748 39.7768L16.4951 40.2502C16.7685 40.3027 16.9907 40.5016 17.0732 40.7674C17.1557 41.0333 17.085 41.323 16.8893 41.521L14.6285 43.8196C14.4592 43.9944 14.383 44.2393 14.4233 44.4793L14.9561 47.7265C15.011 47.9973 14.9062 48.2756 14.6862 48.4429C14.4663 48.6101 14.17 48.6367 13.9238 48.5113L11.1338 46.9813C10.9278 46.8671 10.6774 46.8671 10.4714 46.9813L7.6814 48.5113C7.43517 48.6367 7.13892 48.6101 6.91897 48.4429C6.69901 48.2756 6.59415 47.9973 6.6491 47.7265L7.1819 44.4793C7.22219 44.2393 7.14602 43.9944 6.9767 43.8196L4.7168 41.521C4.52112 41.323 4.45043 41.0333 4.5329 40.7674C4.61538 40.5016 4.83761 40.3027 5.111 40.2502L8.2313 39.7786C8.46792 39.741 8.67034 39.5882 8.77129 39.3709L10.1672 36.4153C10.2801 36.1658 10.5285 36.0053 10.8025 36.0049C11.0764 36.0045 11.3252 36.1643 11.4389 36.4135Z" fill="#E3F0FF"/>
<path d="M0.900376 50.3984C0.881097 51.1202 1.15937 51.8182 1.66995 52.3288C2.18054 52.8394 2.87855 53.1177 3.60038 53.0984H6.16088C5.46317 53.0802 4.80129 52.7855 4.32102 52.2791C3.84076 51.7726 3.58151 51.0961 3.60038 50.3984V3.59838C3.58151 2.90069 3.84076 2.22412 4.32102 1.71769C4.80129 1.21126 5.46317 0.916513 6.16088 0.898376H3.46088C2.76317 0.916513 2.10129 1.21126 1.62102 1.71769C1.14076 2.22412 0.88151 2.90069 0.900376 3.59838V50.3984Z" fill="white"/>
<path d="M0 3.60046H1.8V10.8005H0V3.60046Z" fill="white"/>
<path d="M32.4004 6.56894C32.3947 5.12013 31.3445 3.88683 29.9151 3.65038C28.4857 3.41393 27.0943 4.24333 26.6224 5.61314C26.1001 7.26054 25.3706 8.83494 24.4516 10.2985C23.5873 11.6872 22.0851 12.5508 20.4502 12.5989C20.1312 12.0439 19.5406 11.7009 18.9004 11.6989H16.2004C15.2063 11.6989 14.4004 12.5048 14.4004 13.4989V26.999C14.4004 27.9931 15.2063 28.799 16.2004 28.799H18.9004C19.8945 28.799 20.7004 27.9931 20.7004 26.999C22.5004 26.999 23.7604 28.799 26.05 28.799H34.2004C35.1593 28.7986 36.046 28.2897 36.5301 27.4619C37.0141 26.6342 37.0229 25.6118 36.553 24.776C37.7607 24.0049 38.1558 22.4247 37.453 21.1759C38.6607 20.4049 39.0558 18.8247 38.353 17.5759C39.3752 16.9177 39.8326 15.6583 39.4709 14.4976C39.1093 13.3368 38.0175 12.56 36.8023 12.5989H31.0288C31.9154 10.7113 32.3833 8.65432 32.4004 6.56894ZM16.2004 26.999V13.4989H18.9004V26.999H16.2004ZM36.8023 14.3989C37.1841 14.3588 37.5493 14.5654 37.7118 14.9132C37.8742 15.261 37.7981 15.6736 37.5223 15.9406C37.1974 16.2772 37.1407 16.1989 34.2004 16.1989C33.7033 16.1989 33.3004 16.6019 33.3004 17.0989C33.3004 17.596 33.7033 17.9989 34.2004 17.9989H36.0004C36.3643 18.0023 36.6904 18.2244 36.8267 18.5618C36.963 18.8992 36.8827 19.2855 36.6232 19.5406C36.2974 19.8772 36.2407 19.7989 33.3004 19.7989C32.8033 19.7989 32.4004 20.2019 32.4004 20.6989C32.4004 21.196 32.8033 21.5989 33.3004 21.5989H35.1004C35.4643 21.6023 35.7904 21.8244 35.9267 22.1618C36.063 22.4992 35.9827 22.8855 35.7232 23.1406C35.3974 23.4772 35.3407 23.3989 32.4004 23.3989C31.9033 23.3989 31.5004 23.8019 31.5004 24.299C31.5004 24.796 31.9033 25.1989 32.4004 25.1989H34.2004C34.5643 25.2023 34.8904 25.4244 35.0267 25.7618C35.163 26.0992 35.0827 26.4855 34.8232 26.7407C34.6596 26.9082 34.4346 27.0015 34.2004 26.999H26.05C24.34 26.999 23.08 25.1989 20.7004 25.1989V14.3989C22.8466 14.2675 24.7993 13.1139 25.9501 11.2975C26.9583 9.69929 27.7585 7.97902 28.3315 6.17834C28.5255 5.64721 29.0717 5.33087 29.629 5.42681C30.1862 5.52274 30.5951 6.0035 30.6004 6.56894C30.6004 9.08894 29.9101 10.5478 29.0911 12.5989H27.9004C27.4033 12.5989 27.0004 13.0019 27.0004 13.4989C27.0004 13.996 27.4033 14.3989 27.9004 14.3989H36.8023Z" fill="#2B8CFF"/>
<path d="M49.0259 39.3631L46.0091 38.9059L44.6519 36.0322C44.3914 35.465 43.8244 35.1015 43.2002 35.1015C42.5761 35.1015 42.0091 35.465 41.7485 36.0322L40.3913 38.9059L37.3745 39.3631C36.7677 39.4672 36.2689 39.8997 36.0799 40.4857C35.8909 41.0716 36.043 41.7141 36.4746 42.1531L38.6804 44.4031L38.1602 47.5846C38.0778 48.056 38.2058 48.5398 38.5107 48.9085C38.8156 49.2773 39.2667 49.4941 39.7451 49.5016C40.2851 49.5016 40.3022 49.4179 43.2002 47.8258L45.8894 49.3036C46.4374 49.593 47.1024 49.5444 47.6025 49.1786C48.1026 48.8127 48.3502 48.1936 48.2402 47.5837L47.7173 44.4004L49.9232 42.1504C50.3526 41.7114 50.5035 41.0707 50.3153 40.4861C50.1271 39.9016 49.6308 39.4693 49.0259 39.3631ZM46.3844 43.1926C46.0146 43.5723 45.8475 44.1053 45.9344 44.6281L46.4105 47.536C42.6548 45.4723 43.7105 45.4885 39.9881 47.536L40.4642 44.6308C40.552 44.1066 40.3849 43.5718 40.0142 43.1908L37.9577 41.0956L40.7648 40.6699C41.2972 40.5873 41.7532 40.2447 41.9807 39.7564L43.2002 37.1716L44.4197 39.7555C44.6479 40.2429 45.1032 40.5852 45.6347 40.669L48.4427 41.0947L46.3844 43.1926Z" fill="#2B8CFF"/>
<path d="M32.8258 39.3631L29.809 38.9059L28.4518 36.0322C28.1912 35.465 27.6242 35.1015 27.0001 35.1015C26.3759 35.1015 25.8089 35.465 25.5484 36.0322L24.1912 38.9059L21.1744 39.3631C20.5675 39.4672 20.0687 39.8997 19.8797 40.4857C19.6907 41.0716 19.8428 41.7141 20.2744 42.1531L22.4803 44.4031L21.9601 47.5846C21.8776 48.056 22.0056 48.5398 22.3105 48.9085C22.6154 49.2773 23.0665 49.4941 23.545 49.5016C24.085 49.5016 24.1021 49.4179 27.0001 47.8258L29.6893 49.3036C30.2372 49.593 30.9022 49.5444 31.4023 49.1786C31.9024 48.8127 32.15 48.1936 32.0401 47.5837L31.5172 44.4004L33.7231 42.1504C34.1524 41.7114 34.3033 41.0707 34.1151 40.4861C33.9269 39.9016 33.4306 39.4693 32.8258 39.3631ZM30.1843 43.1926C29.8144 43.5723 29.6474 44.1053 29.7343 44.6281L30.2104 47.536C26.4547 45.4723 27.5104 45.4885 23.788 47.536L24.2641 44.6308C24.3519 44.1066 24.1847 43.5718 23.8141 43.1908L21.7576 41.0956L24.5647 40.6699C25.097 40.5873 25.553 40.2447 25.7806 39.7564L27.0001 37.1716L28.2196 39.7555C28.4477 40.2429 28.903 40.5852 29.4346 40.669L32.2426 41.0947L30.1843 43.1926Z" fill="#2B8CFF"/>
<path d="M16.6256 39.3631L13.6088 38.9059L12.2516 36.0322C11.991 35.465 11.424 35.1015 10.7999 35.1015C10.1757 35.1015 9.60868 35.465 9.34816 36.0322L7.99096 38.9059L4.97416 39.3631C4.36735 39.4672 3.86855 39.8997 3.67953 40.4857C3.49052 41.0716 3.64256 41.7141 4.07416 42.1531L6.28006 44.4031L5.75986 47.5846C5.67738 48.056 5.80546 48.5398 6.11034 48.9085C6.41523 49.2773 6.86633 49.4941 7.34476 49.5016C7.88476 49.5016 7.90186 49.4179 10.7999 47.8258L13.4891 49.3036C14.037 49.593 14.702 49.5444 15.2021 49.1786C15.7022 48.8127 15.9498 48.1936 15.8399 47.5837L15.317 44.4004L17.5229 42.1504C17.9522 41.7114 18.1031 41.0707 17.9149 40.4861C17.7268 39.9016 17.2304 39.4693 16.6256 39.3631ZM13.9841 43.1926C13.6142 43.5723 13.4472 44.1053 13.5341 44.6281L14.0102 47.536C10.2545 45.4723 11.3102 45.4885 7.58776 47.536L8.06386 44.6308C8.15166 44.1066 7.98456 43.5718 7.61386 43.1908L5.55736 41.0956L8.36446 40.6699C8.89677 40.5873 9.35282 40.2447 9.58036 39.7564L10.7999 37.1716L12.0194 39.7555C12.2475 40.2429 12.7028 40.5852 13.2344 40.669L16.0424 41.0947L13.9841 43.1926Z" fill="#2B8CFF"/>
<path d="M0.9 8.09907C1.39706 8.09907 1.8 7.69613 1.8 7.19907C1.8 6.70202 1.39706 6.29907 0.9 6.29907C0.402944 6.29907 0 6.70202 0 7.19907C0 7.69613 0.402944 8.09907 0.9 8.09907Z" fill="#2B8CFF"/>
<path d="M50.4003 0H3.60032C0.169525 0 -0.989675 4.5 0.900325 4.5C1.39738 4.5 1.80032 4.09706 1.80032 3.6C1.80032 2.60589 2.60621 1.8 3.60032 1.8H50.4003C51.3944 1.8 52.2003 2.60589 52.2003 3.6V30.6H1.80032V10.8C1.80032 10.3029 1.39738 9.9 0.900325 9.9C0.403268 9.9 0.000324577 10.3029 0.000324577 10.8V50.4C0.000324577 52.3882 1.6121 54 3.60032 54H50.4003C52.3886 54 54.0003 52.3882 54.0003 50.4V3.6C54.0003 1.61177 52.3886 0 50.4003 0ZM50.4003 52.2H3.60032C2.60621 52.2 1.80032 51.3941 1.80032 50.4V32.4H52.2003V50.4C52.2003 51.3941 51.3944 52.2 50.4003 52.2Z" fill="#2B8CFF"/>
</g>
<defs>
<clipPath id="clip0">
<rect width="54" height="54" fill="white"/>
</clipPath>
</defs>
</svg>
