<svg width="54" height="54" viewBox="0 0 54 54" fill="none" xmlns="http://www.w3.org/2000/svg">
<g clip-path="url(#clip0)">
<path d="M31.5105 2.69904V7.19675H22.5146V2.69904C22.5175 1.70659 23.3214 0.902754 24.3138 0.899872H29.7113C30.7038 0.902754 31.5076 1.70659 31.5105 2.69904Z" fill="#E3F0FF"/>
<path d="M28.8109 2.69904V7.19675H21.6143V2.69904C21.6171 1.70659 22.421 0.902754 23.4134 0.899872H27.0118C28.0042 0.902754 28.808 1.70659 28.8109 2.69904Z" fill="#E3F0FF"/>
<path d="M19.5011 44.9799L15.7405 52.1136C15.519 52.5361 15.1385 52.8528 14.6826 52.9948C14.2271 53.1365 13.7338 53.0912 13.3117 52.8692L12.7179 52.5542L10.1272 51.187C9.70554 50.9642 9.3901 50.5829 9.25009 50.1274C9.11008 49.6716 9.15702 49.1791 9.38063 48.7582L11.3684 44.9799L14.0044 43.7741L15.3176 43.1807L19.5011 44.9799Z" fill="#E3F0FF"/>
<path d="M16.8021 44.9812L13.042 52.1148C12.9567 52.2775 12.8476 52.4262 12.7179 52.5555L10.1272 51.1883C9.70554 50.9655 9.3901 50.5842 9.25009 50.1287C9.11008 49.6728 9.15702 49.1803 9.38063 48.7595L11.3684 44.9812L14.0044 43.7754L16.8021 44.9812Z" fill="#E3F0FF"/>
<path d="M43.8974 51.2138L40.713 52.8964C39.8333 53.3552 38.7482 53.0175 38.2841 52.1408L34.5059 44.9799L36.5027 44.125L38.7067 43.1807L42.6381 44.9799L44.644 48.785C44.8676 49.2062 44.9146 49.6988 44.7746 50.1542C44.6346 50.6101 44.3191 50.9914 43.8974 51.2138Z" fill="#E3F0FF"/>
<path d="M41.5316 52.0863L39.6423 53.0849C39.062 53.0125 38.5543 52.6591 38.2841 52.1407L34.5059 44.9798L36.5027 44.1249L40.2719 45.8524L42.2873 49.6575C42.5092 50.08 42.5545 50.5729 42.4125 51.0288C42.2708 51.4843 41.9541 51.8648 41.5316 52.0863Z" fill="#E3F0FF"/>
<path d="M5.57956 5.39793L4.52246 6.45503V5.39793H5.57956Z" fill="#E3F0FF"/>
<path d="M49.7815 5.59033V37.4946H4.52246V6.45503L5.57956 5.39793L49.7815 5.59033Z" fill="#E3F0FF"/>
<path d="M53.1005 38.6822V42.2805C53.1013 42.9967 52.8171 43.6835 52.311 44.1901C51.8045 44.6962 51.1176 44.9803 50.4015 44.9795H3.62278C2.90666 44.9803 2.21936 44.6962 1.71326 44.1901C1.20674 43.6835 0.923006 42.9967 0.92383 42.2805V38.6822C0.925065 38.186 1.32698 37.7841 1.82321 37.7824H52.2007C52.6969 37.7841 53.0988 38.186 53.1005 38.6822Z" fill="#E3F0FF"/>
<path d="M50.4015 38.6822V42.2805C50.4027 42.9967 50.1186 43.6835 49.6121 44.1901C49.106 44.6962 48.4187 44.9803 47.703 44.9795H3.62278C2.90666 44.9803 2.21936 44.6962 1.71326 44.1901C1.20674 43.6835 0.923006 42.9967 0.92383 42.2805V38.6822C0.925065 38.186 1.32698 37.7841 1.82321 37.7824H49.5021C49.9983 37.7841 50.4003 38.186 50.4015 38.6822Z" fill="#E3F0FF"/>
<path d="M17.1167 8.99655V17.9928L11.1431 24.7126C8.3498 22.2331 7.38 18.2852 8.70724 14.7935C10.0341 11.3022 13.3812 8.99491 17.1167 8.99655Z" fill="#99C8FF"/>
<path d="M26.113 17.9913C26.1113 22.9589 22.0847 26.9855 17.1172 26.9871C16.665 26.9875 16.2137 26.9517 15.7677 26.8792C14.0472 26.6247 12.4395 25.8711 11.1436 24.7111L17.1172 17.9913L23.2794 16.4528L25.8433 15.8141C26.024 16.5257 26.1146 17.2571 26.113 17.9913Z" fill="#99C8FF"/>
<path d="M23.414 17.9924C23.4132 22.4378 20.1633 26.2157 15.7677 26.8803C14.0472 26.6258 12.4395 25.8722 11.1436 24.7122L17.1172 17.9924L23.2794 16.4539C23.3696 16.9616 23.4149 17.4764 23.414 17.9924Z" fill="#E3F0FF"/>
<path d="M25.8433 15.8156L17.1172 17.9928V8.99655C21.2459 8.99738 24.8443 11.8092 25.8433 15.8156Z" fill="#99C8FF"/>
<path d="M23.1443 15.814L17.1172 17.3162V9.41786C20.1028 10.3551 22.3858 12.7778 23.1443 15.814Z" fill="#E3F0FF"/>
<path d="M26.113 31.4849C26.113 32.4786 25.3075 33.2841 24.3138 33.2841C23.3201 33.2841 22.5146 32.4786 22.5146 31.4849C22.5146 30.4912 23.3201 29.6857 24.3138 29.6857C25.3075 29.6857 26.113 30.4912 26.113 31.4849Z" fill="#E3F0FF"/>
<path d="M32.4103 24.2872C32.4103 25.2809 31.6044 26.0864 30.6111 26.0864C29.6174 26.0864 28.8115 25.2809 28.8115 24.2872C28.8115 23.2936 29.6174 22.4881 30.6111 22.4881C31.6044 22.4881 32.4103 23.2936 32.4103 24.2872Z" fill="#E3F0FF"/>
<path d="M40.5056 26.9864C40.5056 27.9801 39.7001 28.7856 38.7064 28.7856C37.7127 28.7856 36.9072 27.9801 36.9072 26.9864C36.9072 25.9927 37.7127 25.1873 38.7064 25.1873C39.7001 25.1873 40.5056 25.9927 40.5056 26.9864Z" fill="#E3F0FF"/>
<path d="M45.9034 18.8928C45.9034 19.8865 45.0975 20.692 44.1043 20.692C43.1106 20.692 42.3047 19.8865 42.3047 18.8928C42.3047 17.8991 43.1106 17.0936 44.1043 17.0936C45.0975 17.0936 45.9034 17.8991 45.9034 18.8928Z" fill="#E3F0FF"/>
<path d="M10.1272 51.1872L12.7179 52.5544L13.3117 52.8694C14.0056 53.2305 14.8535 53.1017 15.409 52.5502L12.8258 51.1872C12.4045 50.9644 12.0891 50.5831 11.9486 50.1276C11.8086 49.6717 11.8556 49.1792 12.0792 48.7584L14.0674 44.9801H11.3684L9.38063 48.7584C9.15702 49.1792 9.11008 49.6717 9.25009 50.1276C9.3901 50.5831 9.70554 50.9644 10.1272 51.1872Z" fill="white"/>
<path d="M7.22142 7.1971C7.2243 6.20466 8.02814 5.40082 9.02058 5.39793H6.32163C5.32918 5.40082 4.52534 6.20466 4.52246 7.1971V37.7833H7.22142V7.1971Z" fill="white"/>
<path d="M3.62278 44.9795H6.32133C5.6052 44.9803 4.91831 44.6962 4.4118 44.1901C3.90569 43.6835 3.62155 42.9967 3.62278 42.2805V38.6822C3.62402 38.186 4.02594 37.7841 4.52216 37.7824H1.82321C1.32698 37.7841 0.925065 38.186 0.92383 38.6822V42.2805C0.923006 42.9967 1.20674 43.6835 1.71326 44.1901C2.21936 44.6962 2.90666 44.9803 3.62278 44.9795Z" fill="white"/>
<path d="M24.3132 5.39758V2.69904C24.3161 1.70659 25.1199 0.902754 26.1124 0.899872H23.4134C22.421 0.902754 21.6171 1.70659 21.6143 2.69904V5.39758H24.3132Z" fill="white"/>
<path d="M5.42221 7.19724V37.7835H3.62305V7.19724H5.42221Z" fill="white"/>
<path d="M4.52242 11.6954C5.01865 11.6937 5.42056 11.2918 5.42221 10.7956V7.19724H3.62305V10.7956C3.62428 11.2918 4.0262 11.6937 4.52242 11.6954Z" fill="#2B8CFF"/>
<path d="M3.62305 37.7843H5.42221V17.9934C5.42221 17.4964 5.01947 17.0936 4.52242 17.0936C4.02579 17.0936 3.62305 17.4964 3.62305 17.9934V37.7843Z" fill="#2B8CFF"/>
<path d="M5.4225 14.3948C5.4188 14.1564 5.32573 13.9282 5.16142 13.7561L5.02635 13.6478C4.97652 13.614 4.92175 13.5869 4.86451 13.5671C4.81345 13.5411 4.75909 13.5226 4.70267 13.5131C4.64337 13.5028 4.58325 13.4971 4.52271 13.495C4.28469 13.4983 4.05655 13.5914 3.88401 13.7561C3.66575 13.9661 3.5698 14.2733 3.62992 14.5707C3.69005 14.8676 3.89801 15.1134 4.18092 15.2221C4.28922 15.2682 4.40535 15.293 4.52271 15.2942C4.76197 15.2967 4.99217 15.2028 5.16142 15.0335C5.33067 14.8643 5.42456 14.6341 5.4225 14.3948Z" fill="#2B8CFF"/>
<path d="M49.5024 38.683H4.52242C4.02579 38.683 3.62305 38.2803 3.62305 37.7832C3.62305 37.2866 4.02579 36.8839 4.52242 36.8839H48.6026V7.19702C48.6022 6.70038 48.1994 6.29805 47.7032 6.29764H6.32159C5.82496 6.29805 5.42262 6.70038 5.42221 7.19702C5.42221 7.69406 5.01947 8.09681 4.52242 8.09681C4.02579 8.09681 3.62305 7.69406 3.62305 7.19702C3.62469 5.70711 4.83169 4.50012 6.32159 4.49847H47.7032C49.1927 4.50012 50.4001 5.70711 50.4018 7.19702V37.7832C50.4018 38.0221 50.307 38.2506 50.1382 38.4195C49.9698 38.5883 49.7408 38.683 49.5024 38.683Z" fill="#2B8CFF"/>
<path d="M50.4019 45.8788H3.62316C1.63662 45.8767 0.0268849 44.267 0.0244141 42.2805V38.6821C0.0256495 37.6889 0.830312 36.8838 1.82358 36.883H52.201C53.1943 36.8838 53.9994 37.6889 54.0002 38.6821V42.2805C53.9981 44.267 52.3884 45.8767 50.4019 45.8788ZM1.82358 38.6821V42.2805C1.82482 43.2737 2.62989 44.0788 3.62316 44.0796H50.4019C51.3951 44.0788 52.2002 43.2737 52.201 42.2805V38.6821H1.82358Z" fill="#2B8CFF"/>
<path d="M14.1459 53.9751C13.7106 53.9747 13.2819 53.8697 12.8961 53.6683L9.70623 51.9837C9.07329 51.6493 8.59971 51.0769 8.38928 50.3929C8.17926 49.7093 8.24968 48.9697 8.5853 48.3375L10.5718 44.5617C10.7217 44.2772 11.0116 44.0943 11.3328 44.082C11.6541 44.0692 11.9576 44.229 12.1289 44.5008C12.3006 44.7726 12.3138 45.1156 12.1643 45.3997L10.1761 49.178C10.0628 49.3893 10.039 49.6368 10.1102 49.8657C10.1786 50.0922 10.3355 50.2817 10.5455 50.3912L13.732 52.0747C14.1702 52.3032 14.7105 52.1356 14.9423 51.6991L18.7045 44.5613C18.8544 44.2768 19.1447 44.0939 19.466 44.0816C19.7872 44.0688 20.0907 44.229 20.262 44.5008C20.4337 44.773 20.4469 45.1156 20.297 45.4002L16.5368 52.5338C16.0706 53.4225 15.149 53.978 14.1459 53.9751Z" fill="#2B8CFF"/>
<path d="M39.8778 54.0011C38.8734 54.0039 37.9509 53.4472 37.4856 52.5573L33.7102 45.4006C33.4845 44.9624 33.6542 44.4238 34.0903 44.1936C34.5264 43.9634 35.0663 44.1273 35.3014 44.5609L39.0797 51.7217C39.1884 51.9334 39.3782 52.0924 39.606 52.1624C39.8362 52.2336 40.0845 52.2105 40.2974 52.0989L43.4777 50.4196C43.6878 50.308 43.8451 50.1178 43.9151 49.8904C43.9847 49.6631 43.9612 49.4177 43.85 49.2077L41.8425 45.4002C41.6926 45.1156 41.7058 44.773 41.8771 44.5008C42.0488 44.229 42.3523 44.0688 42.6735 44.0816C42.9947 44.0939 43.285 44.2768 43.4349 44.5613L45.4408 48.3664C45.7756 48.9989 45.8452 49.7385 45.6344 50.4221C45.4235 51.1057 44.9491 51.6777 44.3162 52.0112L41.1329 53.6922C40.7454 53.8948 40.3151 54.0006 39.8778 54.0011Z" fill="#2B8CFF"/>
<path d="M31.5108 6.29729H22.515C22.018 6.29729 21.6152 5.89454 21.6152 5.3975V2.69895C21.6169 1.20905 22.8243 0.00164721 24.3142 0H29.7117C31.2016 0.00164721 32.409 1.20905 32.4106 2.69895V5.3975C32.4106 5.89454 32.0079 6.29729 31.5108 6.29729ZM23.4144 4.49812H30.6115V2.69895C30.6106 2.20232 30.2083 1.79999 29.7117 1.79917H24.3142C23.8176 1.79999 23.4152 2.20232 23.4144 2.69895V4.49812Z" fill="#2B8CFF"/>
<path d="M9.02084 42.2807H8.12106C7.62442 42.2807 7.22168 41.878 7.22168 41.3814C7.22168 40.8843 7.62442 40.4816 8.12106 40.4816H9.02084C9.51748 40.4816 9.92022 40.8843 9.92022 41.3814C9.92022 41.878 9.51748 42.2807 9.02084 42.2807Z" fill="#2B8CFF"/>
<path d="M45.9047 42.2807H12.6195C12.1225 42.2807 11.7197 41.878 11.7197 41.3814C11.7197 40.8843 12.1225 40.4816 12.6195 40.4816H45.9047C46.4013 40.4816 46.8041 40.8843 46.8041 41.3814C46.8041 41.878 46.4013 42.2807 45.9047 42.2807Z" fill="#2B8CFF"/>
<path d="M17.1173 27.8883C11.6519 27.8883 7.22168 23.4578 7.22168 17.9927C7.22168 12.5273 11.6519 8.09711 17.1173 8.09711C22.5823 8.09711 27.0125 12.5273 27.0125 17.9927C27.0063 23.4553 22.5799 27.8818 17.1173 27.8883ZM17.1173 9.89627C12.6455 9.89627 9.02085 13.521 9.02085 17.9927C9.02085 22.4641 12.6455 26.0888 17.1173 26.0888C21.5886 26.0888 25.2133 22.4641 25.2133 17.9927C25.2084 13.523 21.5866 9.90121 17.1173 9.89627Z" fill="#2B8CFF"/>
<path d="M17.1176 18.8921C16.6205 18.8921 16.2178 18.4894 16.2178 17.9927V8.99648C16.2178 8.49985 16.6205 8.09711 17.1176 8.09711C17.6142 8.09711 18.0169 8.49985 18.0169 8.99648V16.8409L25.6258 14.9429C26.1031 14.8342 26.5796 15.1274 26.6981 15.6022C26.8167 16.077 26.5338 16.5597 26.0615 16.6881L17.3354 18.8653C17.2642 18.883 17.1909 18.8921 17.1176 18.8921Z" fill="#2B8CFF"/>
<path d="M11.1427 25.6124C10.7886 25.6124 10.4674 25.4041 10.322 25.0812C10.177 24.758 10.2351 24.3795 10.4707 24.1151L16.4438 17.3949C16.6576 17.1548 16.9829 17.0465 17.2979 17.1116C17.613 17.1763 17.8691 17.4044 17.9704 17.7091C18.0717 18.0143 18.0025 18.3503 17.7888 18.5908L11.8156 25.3106C11.6447 25.5029 11.3997 25.6129 11.1427 25.6124Z" fill="#2B8CFF"/>
<path d="M24.3142 34.1833C22.8235 34.1833 21.6152 32.9751 21.6152 31.4848C21.6152 29.9941 22.8235 28.7859 24.3142 28.7859C25.8045 28.7859 27.0127 29.9941 27.0127 31.4848C27.0111 32.9743 25.8041 34.1817 24.3142 34.1833ZM24.3142 30.585C23.8171 30.585 23.4144 30.9878 23.4144 31.4848C23.4144 31.9814 23.8171 32.3842 24.3142 32.3842C24.8108 32.3842 25.2136 31.9814 25.2136 31.4848C25.2131 30.9882 24.8108 30.5858 24.3142 30.585Z" fill="#2B8CFF"/>
<path d="M30.6111 26.9896C29.1203 26.9896 27.9121 25.7814 27.9121 24.2907C27.9121 22.8003 29.1203 21.5921 30.6111 21.5921C32.1014 21.5921 33.3096 22.8003 33.3096 24.2907C33.308 25.7806 32.1006 26.988 30.6111 26.9896ZM30.6111 23.3913C30.114 23.3913 29.7113 23.794 29.7113 24.2907C29.7113 24.7877 30.114 25.1904 30.6111 25.1904C31.1077 25.1904 31.5104 24.7877 31.5104 24.2907C31.5096 23.7944 31.1073 23.3917 30.6111 23.3913Z" fill="#2B8CFF"/>
<path d="M38.7073 29.6853C37.217 29.6853 36.0088 28.4766 36.0088 26.9863C36.0088 25.496 37.217 24.2874 38.7073 24.2874C40.1981 24.2874 41.4063 25.496 41.4063 26.9863C41.4046 28.4762 40.1972 29.6836 38.7073 29.6853ZM38.7073 26.0865C38.2107 26.0865 37.808 26.4897 37.808 26.9863C37.808 27.483 38.2107 27.8861 38.7073 27.8861C39.2044 27.8861 39.6071 27.483 39.6071 26.9863C39.6063 26.4897 39.204 26.0874 38.7073 26.0865Z" fill="#2B8CFF"/>
<path d="M44.1052 21.5917C42.6145 21.5917 41.4062 20.3835 41.4062 18.8927C41.4062 17.4024 42.6145 16.1942 44.1052 16.1942C45.5955 16.1942 46.8037 17.4024 46.8037 18.8927C46.8021 20.3826 45.5947 21.59 44.1052 21.5917ZM44.1052 17.9934C43.6082 17.9934 43.2054 18.3961 43.2054 18.8927C43.2054 19.3898 43.6082 19.7925 44.1052 19.7925C44.6018 19.7925 45.0046 19.3898 45.0046 18.8927C45.0038 18.3961 44.6014 17.9938 44.1052 17.9934Z" fill="#2B8CFF"/>
<path d="M25.4922 31.0376C25.1389 31.0376 24.8189 30.8313 24.6731 30.5097C24.5273 30.1881 24.5829 29.8113 24.8156 29.5457L28.7557 25.0476C29.0831 24.6737 29.6514 24.6362 30.0253 24.9631C30.3992 25.2905 30.4367 25.8588 30.1097 26.2327L26.1692 30.7309C25.9987 30.9265 25.7516 31.0385 25.4922 31.0376Z" fill="#2B8CFF"/>
<path d="M39.7053 26.3837C39.3734 26.3832 39.0691 26.2004 38.9126 25.908C38.7566 25.6152 38.7738 25.2607 38.9579 24.9848L42.3586 19.8932C42.639 19.4925 43.188 19.3892 43.5948 19.661C44.0017 19.9324 44.117 20.4788 43.8547 20.8914L40.454 25.9834C40.2872 26.2338 40.0064 26.3841 39.7053 26.3837Z" fill="#2B8CFF"/>
<path d="M37.0068 27.3203C36.91 27.3199 36.8137 27.3042 36.7218 27.2733L32.026 25.7081C31.7213 25.6064 31.4936 25.3498 31.4293 25.0352C31.3651 24.7202 31.4734 24.3948 31.7139 24.1815C31.9544 23.9682 32.2904 23.8994 32.5952 24.0012L37.2914 25.5664C37.7106 25.7056 37.9671 26.1285 37.8963 26.5646C37.8255 27.0007 37.4483 27.3207 37.0068 27.3203Z" fill="#2B8CFF"/>
<path d="M30.6111 10.7957H29.7113C29.2147 10.7957 28.8115 10.393 28.8115 9.89634C28.8115 9.39929 29.2147 8.99655 29.7113 8.99655H30.6111C31.1077 8.99655 31.5105 9.39929 31.5105 9.89634C31.5105 10.393 31.1077 10.7957 30.6111 10.7957Z" fill="#2B8CFF"/>
<path d="M39.6069 10.7957H34.2094C33.7123 10.7957 33.3096 10.393 33.3096 9.89634C33.3096 9.39929 33.7123 8.99655 34.2094 8.99655H39.6069C40.1035 8.99655 40.5062 9.39929 40.5062 9.89634C40.5062 10.393 40.1035 10.7957 39.6069 10.7957Z" fill="#2B8CFF"/>
<path d="M45.9044 10.7957H43.2055C42.7088 10.7957 42.3057 10.393 42.3057 9.89634C42.3057 9.39929 42.7088 8.99655 43.2055 8.99655H45.9044C46.401 8.99655 46.8038 9.39929 46.8038 9.89634C46.8038 10.393 46.401 10.7957 45.9044 10.7957Z" fill="#2B8CFF"/>
<path d="M35.1088 14.3948H29.7113C29.2147 14.3948 28.8115 13.9916 28.8115 13.495C28.8115 12.9983 29.2147 12.5952 29.7113 12.5952H35.1088C35.6059 12.5952 36.0086 12.9983 36.0086 13.495C36.0086 13.9916 35.6059 14.3948 35.1088 14.3948Z" fill="#2B8CFF"/>
<path d="M45.9041 14.3948H38.707C38.2104 14.3948 37.8076 13.9916 37.8076 13.495C37.8076 12.9983 38.2104 12.5952 38.707 12.5952H45.9041C46.4007 12.5952 46.8035 12.9983 46.8035 13.495C46.8035 13.9916 46.4007 14.3948 45.9041 14.3948Z" fill="#2B8CFF"/>
<path d="M38.7071 17.9934H29.7113C29.2147 17.9934 28.8115 17.5906 28.8115 17.0936C28.8115 16.5969 29.2147 16.1942 29.7113 16.1942H38.7071C39.2042 16.1942 39.6069 16.5969 39.6069 17.0936C39.6069 17.5906 39.2042 17.9934 38.7071 17.9934Z" fill="#2B8CFF"/>
</g>
<defs>
<clipPath id="clip0">
<rect width="54" height="54" fill="white"/>
</clipPath>
</defs>
</svg>
