<svg width="54" height="54" viewBox="0 0 54 54" fill="none" xmlns="http://www.w3.org/2000/svg">
<g clip-path="url(#clip0)">
<path d="M36.0008 9.90247C35.999 14.8723 31.9706 18.9006 27.0008 18.9024C26.5546 18.903 26.1091 18.8669 25.6689 18.7944C25.6599 18.8034 25.6508 18.8034 25.6329 18.7944C21.2426 18.1209 18.001 14.3441 18.001 9.90247C18.001 5.46086 21.2427 1.68392 25.6329 1.0105C25.6509 1.00154 25.6599 1.00154 25.6689 1.0105C26.1092 0.938045 26.5547 0.901975 27.0008 0.902502C31.9706 0.90419 35.999 4.93257 36.0008 9.90247Z" fill="#99C8FF"/>
<path d="M33.3009 9.90189C33.2987 14.3428 30.0581 18.1183 25.6689 18.7939C25.6599 18.8028 25.6508 18.8028 25.6329 18.7939C21.2426 18.1203 18.001 14.3435 18.001 9.90189C18.001 5.46029 21.2427 1.68335 25.6329 1.00993C25.6509 1.00096 25.6599 1.00096 25.6689 1.00993C30.0582 1.68535 33.2988 5.46103 33.3009 9.90189Z" fill="#E3F0FF"/>
<path d="M18.9003 23.4024C18.8985 28.3722 14.8701 32.4006 9.90036 32.4024C9.45412 32.4029 9.00862 32.3668 8.56839 32.2944C8.55943 32.3034 8.55036 32.3034 8.53243 32.2944C4.14197 31.6209 0.900391 27.844 0.900391 23.4024C0.900391 18.9608 4.14208 15.1839 8.53232 14.5105C8.55036 14.5015 8.55932 14.5015 8.56829 14.5105C9.00862 14.438 9.45412 14.4019 9.90025 14.4025C14.8701 14.4042 18.8985 18.4325 18.9003 23.4024Z" fill="#99C8FF"/>
<path d="M16.2003 23.4019C16.1981 27.8428 12.9575 31.6183 8.56829 32.2939C8.55932 32.3028 8.55025 32.3028 8.53232 32.2939C4.14197 31.6203 0.900391 27.8435 0.900391 23.4019C0.900391 18.9603 4.14208 15.1833 8.53232 14.5099C8.55036 14.501 8.55932 14.501 8.56829 14.5099C12.9575 15.1854 16.1981 18.961 16.2003 23.4019Z" fill="#E3F0FF"/>
<path d="M53.1004 23.4024C53.0986 28.3722 49.0702 32.4006 44.1004 32.4024C43.6542 32.4029 43.2087 32.3668 42.7685 32.2944C42.7595 32.3034 42.7504 32.3034 42.7325 32.2944C38.3422 31.6209 35.1006 27.844 35.1006 23.4024C35.1006 18.9608 38.3423 15.1839 42.7325 14.5105C42.7506 14.5015 42.7595 14.5015 42.7685 14.5105C43.2088 14.438 43.6543 14.4019 44.1004 14.4025C49.0702 14.4042 53.0986 18.4325 53.1004 23.4024Z" fill="#99C8FF"/>
<path d="M50.4005 23.4019C50.3983 27.8428 47.1577 31.6183 42.7685 32.2939C42.7595 32.3028 42.7504 32.3028 42.7325 32.2939C38.3422 31.6203 35.1006 27.8435 35.1006 23.4019C35.1006 18.9603 38.3423 15.1833 42.7325 14.5099C42.7506 14.501 42.7595 14.501 42.7685 14.5099C47.1577 15.1854 50.3983 18.961 50.4005 23.4019Z" fill="#E3F0FF"/>
<path d="M27.0006 15.3027C29.9829 15.3027 32.4006 12.885 32.4006 9.90269C32.4006 6.92035 29.9829 4.50269 27.0006 4.50269C24.0182 4.50269 21.6006 6.92035 21.6006 9.90269C21.6006 12.885 24.0182 15.3027 27.0006 15.3027Z" fill="white"/>
<path d="M27.0002 11.7029C27.9944 11.7029 28.8003 10.897 28.8003 9.90285C28.8003 8.90872 27.9944 8.10281 27.0002 8.10281C26.0061 8.10281 25.2002 8.90872 25.2002 9.90285C25.2002 10.897 26.0061 11.7029 27.0002 11.7029Z" fill="#E3F0FF"/>
<path d="M38.6997 50.9386V53.1029H15.2998V50.9386C15.2971 49.6231 15.9815 48.4017 17.1049 47.7175L20.6985 45.5446L21.8518 44.8428L23.0135 44.141C23.153 44.06 23.2484 43.9202 23.2725 43.7606C23.2795 43.733 23.2822 43.7045 23.2808 43.676V42.0105C23.2794 41.8973 23.2412 41.7876 23.1722 41.6977C22.4899 40.7912 22.0059 39.7513 21.7514 38.6456C21.6792 38.2496 21.4901 37.8845 21.2083 37.5972H21.1999C20.8267 37.215 20.6169 36.7026 20.6149 36.1684V34.2662C20.6153 33.9518 20.6898 33.6418 20.8322 33.3616L20.9408 33.1418C21.0768 32.8594 21.1482 32.5504 21.1497 32.2372V29.4978C21.1438 28.3641 21.5888 27.2745 22.3867 26.4689C23.1846 25.6633 24.2698 25.2079 25.4036 25.2029H28.596C29.7298 25.2079 30.8151 25.6633 31.613 26.4689C32.4109 27.2745 32.8558 28.3641 32.8499 29.4978V32.2372C32.8515 32.5505 32.9229 32.8596 33.0589 33.1418L33.1675 33.3616C33.3099 33.6419 33.3843 33.9518 33.3848 34.2662V36.1684C33.3827 36.7026 33.173 37.2151 32.7997 37.5972H32.7914C32.5096 37.8845 32.3204 38.2496 32.2482 38.6456C31.9938 39.7513 31.5097 40.7911 30.8274 41.6977C30.7584 41.7876 30.7203 41.8973 30.7188 42.0105V43.6761C30.7174 43.7017 30.7203 43.7275 30.7271 43.7523C30.7477 43.9153 30.8437 44.0593 30.9862 44.1411L33.2342 45.5023L36.8946 47.7174C38.0181 48.4017 38.7026 49.6232 38.6997 50.9386Z" fill="#99C8FF"/>
<path d="M36.1926 50.9386V53.1029H15.2998V50.9386C15.2971 49.6231 15.9815 48.4017 17.1049 47.7175L20.6985 45.5446L21.8518 44.8428L23.0135 44.141C23.153 44.06 23.2484 43.9202 23.2725 43.7606C23.2795 43.733 23.2822 43.7045 23.2808 43.676V42.0105C23.2794 41.8973 23.2412 41.7876 23.1722 41.6977C22.4899 40.7912 22.0059 39.7513 21.7514 38.6456C21.6792 38.2496 21.4901 37.8845 21.2083 37.5972H21.1999C20.8267 37.215 20.6169 36.7026 20.6149 36.1684V34.2662C20.6153 33.9518 20.6898 33.6418 20.8322 33.3616L20.9408 33.1418C21.0768 32.8594 21.1482 32.5504 21.1497 32.2372V29.4978C21.1438 28.3641 21.5888 27.2745 22.3867 26.4689C23.1845 25.6633 24.2698 25.2079 25.4036 25.2029H26.0888C27.2226 25.2079 28.3079 25.6633 29.1058 26.4689C29.9036 27.2745 30.3486 28.3641 30.3427 29.4978V32.2372C30.3443 32.5505 30.4157 32.8596 30.5516 33.1418L30.6603 33.3616C30.8027 33.6419 30.8771 33.9518 30.8775 34.2662V36.1684C30.8755 36.7026 30.6658 37.2151 30.2925 37.5972H30.2842C30.0024 37.8845 29.8131 38.2496 29.741 38.6456C29.4866 39.7513 29.0025 40.7911 28.3202 41.6977C28.2512 41.7876 28.2131 41.8973 28.2116 42.0105V43.6761C28.2102 43.7017 28.2131 43.7275 28.2199 43.7523C28.2405 43.9153 28.3365 44.0593 28.479 44.1411L30.727 45.5023L34.3874 47.7174C35.511 48.4017 36.1954 49.6232 36.1926 50.9386Z" fill="#E3F0FF"/>
<path d="M38.6997 50.9372V53.1015H15.2998V50.9372C15.2971 49.6217 15.9815 48.4004 17.1049 47.7161L20.6985 45.5432L21.8518 44.8414L23.0135 44.1396L25.7128 45.5516L26.9497 46.1941L29.6239 44.8329L30.9862 44.1396L33.2342 45.5008L36.8946 47.7159C38.0181 48.4004 38.7026 49.6218 38.6997 50.9372Z" fill="#99C8FF"/>
<path d="M36.1926 50.937V53.1014H15.2998V50.937C15.2971 49.6215 15.9815 48.4002 17.1049 47.7159L20.6985 45.5431L21.8518 44.8413L24.4426 46.194L25.7128 45.5515L26.9497 46.194L29.6239 44.8328L30.727 45.5008L34.3874 47.7158C35.511 48.4002 36.1954 49.6216 36.1926 50.937Z" fill="#E3F0FF"/>
<path d="M33.2357 45.5014L33.1354 45.662L30.6282 47.6573C30.1606 48.0283 29.5329 48.1278 28.9735 47.9194C28.7507 47.8492 28.5474 47.7275 28.3803 47.5643L26.9512 46.1945L30.294 43.802L30.7286 43.7513C30.7492 43.9143 30.8452 44.0583 30.9877 44.1401L33.2357 45.5014Z" fill="white"/>
<path d="M26.9503 46.1946L25.5212 47.5643C25.3541 47.7276 25.1508 47.8492 24.9279 47.9194C24.3685 48.1278 23.7407 48.0284 23.2732 47.6573L20.7661 45.6621L20.6992 45.5438L23.0142 44.1403C23.1537 44.0593 23.249 43.9194 23.2732 43.7599L23.6075 43.8022L26.9503 46.1946Z" fill="white"/>
<path d="M28.9727 47.9186L27.7859 49.7194H26.1145L24.9277 47.9186C25.1506 47.8485 25.3539 47.7267 25.5211 47.5635L26.9502 46.1938L28.3793 47.5635C28.5466 47.7267 28.7498 47.8484 28.9727 47.9186Z" fill="#E3F0FF"/>
<path d="M29.3655 52.9133V53.0997H24.5352V52.9133L26.1147 49.7174H27.786L29.3655 52.9133Z" fill="#E3F0FF"/>
<path d="M45.4283 14.5103C44.989 14.4414 44.5452 14.405 44.1004 14.4015C43.6542 14.401 43.2087 14.437 42.7685 14.5095C42.7595 14.5005 42.7504 14.5005 42.7325 14.5095C38.3422 15.183 35.1006 18.9599 35.1006 23.4015C35.1006 27.8431 38.3423 31.62 42.7325 32.2934C42.7505 32.3024 42.7595 32.3024 42.7685 32.2934C43.2088 32.3659 43.6543 32.402 44.1004 32.4014C44.5451 32.3979 44.9889 32.3616 45.4283 32.2926C41.04 31.6174 37.8005 27.8414 37.8005 23.4014C37.8005 18.9613 41.04 15.1855 45.4283 14.5103Z" fill="white"/>
<path d="M18.0006 50.9377C17.9978 49.6223 18.6822 48.4009 19.8057 47.7165L23.3993 45.5436L24.5526 44.8418L25.7142 44.14C25.8539 44.0591 25.9492 43.9192 25.9735 43.7596C25.9803 43.732 25.9832 43.7035 25.9818 43.675V42.0096C25.9803 41.8963 25.9422 41.7865 25.8731 41.6967C25.1908 40.7901 24.7068 39.7503 24.4523 38.6446C24.3802 38.2487 24.191 37.8835 23.9091 37.5962H23.9008C23.5277 37.214 23.3179 36.7015 23.3159 36.1674V34.2652C23.3163 33.9508 23.3908 33.6408 23.5331 33.3606L23.6417 33.1408C23.7776 32.8585 23.849 32.5494 23.8506 32.2361V29.4969C23.8447 28.3631 24.2897 27.2735 25.0875 26.4679C25.8854 25.6623 26.9707 25.2069 28.1045 25.202H25.4045C24.2707 25.2069 23.1854 25.6624 22.3875 26.4679C21.5897 27.2734 21.1447 28.3631 21.1506 29.4969V32.2361C21.149 32.5494 21.0776 32.8585 20.9417 33.1408L20.8332 33.3606C20.6907 33.6409 20.6162 33.9508 20.6159 34.2652V36.1674C20.6179 36.7016 20.8277 37.214 21.2008 37.5962H21.2091C21.491 37.8835 21.6802 38.2487 21.7523 38.6446C22.0068 39.7503 22.4908 40.7901 23.1731 41.6967C23.2422 41.7865 23.2803 41.8963 23.2818 42.0096V43.675C23.2832 43.7035 23.2803 43.732 23.2735 43.7596C23.2492 43.9192 23.1539 44.059 23.0142 44.14L21.8527 44.8418L20.6994 45.5436L17.1058 47.7165C15.9824 48.4009 15.2979 49.6222 15.3008 50.9377V53.102H18.0008V50.9377H18.0006Z" fill="white"/>
<path d="M28.3287 1.01034C27.8894 0.941362 27.4456 0.904975 27.0008 0.901495C26.5546 0.900968 26.1091 0.937038 25.6689 1.00949C25.6599 1.00053 25.6508 1.00053 25.6329 1.00949C21.2426 1.68302 18.001 5.45985 18.001 9.90146C18.001 14.3431 21.2427 18.12 25.6329 18.7934C25.6509 18.8024 25.6599 18.8024 25.6689 18.7934C26.1092 18.8659 26.5547 18.902 27.0008 18.9014C27.4455 18.8979 27.8893 18.8616 28.3287 18.7926C23.9403 18.1174 20.7009 14.3414 20.7009 9.90135C20.7009 5.46133 23.9402 1.68555 28.3287 1.01034Z" fill="white"/>
<path d="M8.53232 32.2926C8.55036 32.3016 8.55932 32.3016 8.56829 32.2926C9.00862 32.3651 9.45412 32.4012 9.90025 32.4006C10.3449 32.3971 10.7887 32.3608 11.2281 32.2918C6.83976 31.6166 3.60029 27.8406 3.60029 23.4006C3.60029 18.9605 6.83976 15.1845 11.2281 14.5093C10.7888 14.4404 10.345 14.404 9.90025 14.4005C9.45401 14.4 9.00851 14.436 8.56829 14.5085C8.55932 14.4995 8.55025 14.4995 8.53232 14.5085C4.14197 15.182 0.900391 18.9588 0.900391 23.4005C0.900391 27.8421 4.14197 31.6191 8.53232 32.2926Z" fill="white"/>
<path d="M33.1272 38.8226C33.1689 38.6 33.2753 38.3945 33.4331 38.232C33.4428 38.2223 33.4515 38.2127 33.4603 38.203C33.9891 37.6584 34.2838 36.9283 34.2811 36.1693V34.2621C34.2808 33.8106 34.1765 33.3651 33.9761 32.9604L33.8672 32.7397C33.7899 32.5834 33.7495 32.4114 33.7494 32.237V29.4939C33.7566 26.6379 31.4506 24.315 28.5946 24.3014H25.4041C22.5481 24.315 20.2421 26.6379 20.2493 29.4939V32.237C20.2492 32.411 20.2092 32.5827 20.1325 32.7388L20.0226 32.9594C19.8223 33.3644 19.718 33.8101 19.7176 34.262V36.1692C19.7151 36.9279 20.0094 37.6574 20.5376 38.2021C20.5463 38.2126 20.556 38.2223 20.5658 38.2319C20.7235 38.3944 20.83 38.5999 20.8716 38.8225C21.1393 40.0155 21.6517 41.1399 22.3763 42.1246V43.4711L20.2963 44.7308C20.285 44.7368 20.2751 44.7439 20.2641 44.7503L16.6398 46.9455C15.2516 47.7964 14.4037 49.3059 14.3994 50.934V53.1014C14.3993 53.3402 14.494 53.5692 14.6629 53.7379C14.8317 53.9068 15.0607 54.0015 15.2994 54.0014H38.6994C38.9382 54.0015 39.1672 53.9068 39.3359 53.7379C39.5048 53.5691 39.5995 53.3401 39.5994 53.1014V50.934C39.595 49.3055 38.7468 47.7956 37.3582 46.9447L33.6641 44.7077L33.6459 44.6966L31.6225 43.4713V42.1248C32.3469 41.1399 32.8593 40.0155 33.1272 38.8226ZM23.2705 45.034L25.3647 46.0069L24.7872 46.5535C24.6934 46.6421 24.5794 46.7063 24.455 46.7407C24.146 46.8538 23.8006 46.7997 23.5409 46.5975L22.2992 45.6223L23.2705 45.034ZM26.9457 46.9878L27.8612 47.8557L27.3642 48.6013H26.5275L26.0298 47.8555L26.9457 46.9878ZM26.6022 50.4014H27.2895L28.1892 52.2015H25.702L26.6022 50.4014ZM16.1995 50.934C16.2017 49.9346 16.7215 49.0077 17.5732 48.4845L20.6547 46.6184L22.4283 48.0117C22.9161 48.394 23.518 48.602 24.1378 48.6023C24.2098 48.6023 24.2804 48.5898 24.3519 48.584L25.007 49.5662L23.689 52.2016H16.1995V50.934ZM37.7995 50.934V52.2015H30.2018L28.8845 49.5661L29.5426 48.5789C29.6156 48.5847 29.6881 48.598 29.761 48.598C30.3775 48.5991 30.9765 48.3929 31.4617 48.0127L33.2833 46.5815L36.424 48.4838C37.2764 49.0065 37.797 49.9339 37.7995 50.934ZM31.6381 45.5847L30.3481 46.5983C30.0726 46.8062 29.7081 46.854 29.3883 46.724C29.2812 46.6908 29.1835 46.6323 29.1036 46.5535L28.5385 46.0174L30.7258 45.0321L31.6381 45.5847ZM31.3623 38.4676C31.1325 39.4492 30.6989 40.3715 30.0896 41.1747C29.9159 41.4172 29.8224 41.7078 29.8224 42.0061V43.464L26.9509 44.7584L24.1764 43.4698V42.0061C24.176 41.7057 24.0812 41.4131 23.9056 41.1694C23.2979 40.3678 22.8655 39.4472 22.6365 38.4676C22.5274 37.9117 22.2607 37.3989 21.8684 36.9902C21.8605 36.9805 21.8517 36.9718 21.842 36.9621C21.6347 36.7502 21.5183 36.4657 21.5177 36.1693V34.2621C21.5177 34.088 21.5578 33.9163 21.6346 33.7603L21.7453 33.5379C21.9448 33.1332 22.0489 32.6883 22.0495 32.2372V29.4941C22.0413 27.6318 23.542 26.1142 25.4042 26.1015H28.5947C30.457 26.1142 31.9578 27.6318 31.9494 29.4941V32.2372C31.95 32.6887 32.0544 33.1341 32.2544 33.5389L32.3643 33.7612C32.4412 33.917 32.4813 34.0885 32.4812 34.2622V36.1694C32.4806 36.4658 32.3642 36.7503 32.1569 36.9622L32.1305 36.9894C31.7382 37.3983 31.4715 37.9114 31.3623 38.4676Z" fill="#2B8CFF"/>
<path d="M27.0006 0C21.533 0 17.1006 4.43243 17.1006 9.90003C17.1006 15.3676 21.533 19.8001 27.0006 19.8001C32.4682 19.8001 36.9007 15.3676 36.9007 9.90003C36.8944 4.43496 32.4657 0.00622266 27.0006 0ZM27.0006 18C22.5272 18 18.9006 14.3735 18.9006 9.90003C18.9006 5.42658 22.5272 1.80004 27.0006 1.80004C31.4741 1.80004 35.1006 5.42658 35.1006 9.90003C35.0958 14.3715 31.4721 17.9951 27.0006 18Z" fill="#2B8CFF"/>
<path d="M0 23.4C0 28.8676 4.43243 33.3001 9.90003 33.3001C15.3676 33.3001 19.8001 28.8676 19.8001 23.4C19.8001 17.9324 15.3676 13.5 9.90003 13.5C4.43496 13.5062 0.00622266 17.935 0 23.4ZM9.90003 15.3C14.3735 15.3 18 18.9266 18 23.4C18 27.8735 14.3735 31.5 9.90003 31.5C5.42658 31.5 1.80004 27.8735 1.80004 23.4C1.80489 18.9285 5.42848 15.3049 9.90003 15.3Z" fill="#2B8CFF"/>
<path d="M44.1002 13.5C38.6326 13.5 34.2002 17.9324 34.2002 23.4C34.2002 28.8676 38.6326 33.3001 44.1002 33.3001C49.5678 33.3001 54.0003 28.8676 54.0003 23.4C53.994 17.935 49.5653 13.5062 44.1002 13.5ZM44.1002 31.5C39.6268 31.5 36.0002 27.8735 36.0002 23.4C36.0002 18.9266 39.6268 15.3 44.1002 15.3C48.5737 15.3 52.2002 18.9266 52.2002 23.4C52.1954 27.8715 48.5718 31.4951 44.1002 31.5Z" fill="#2B8CFF"/>
<path d="M27.0002 3.60013C23.5207 3.60013 20.7002 6.42078 20.7002 9.90009C20.7002 13.3794 23.5207 16.2002 27.0002 16.2002C30.4796 16.2002 33.3001 13.3795 33.3001 9.9002C33.2959 6.42247 30.4778 3.60435 27.0002 3.60013ZM27.0002 14.4001C24.5149 14.4001 22.5001 12.3854 22.5001 9.90009C22.5001 7.41483 24.5149 5.40016 27.0002 5.40016C29.4854 5.40016 31.5002 7.41493 31.5002 9.9002C31.4972 12.3842 29.4843 14.3973 27.0002 14.4001Z" fill="#2B8CFF"/>
<path d="M26.9998 7.20126C25.5087 7.20126 24.2998 8.41015 24.2998 9.90126C24.2998 11.3924 25.5087 12.6013 26.9998 12.6013C28.491 12.6013 29.6998 11.3924 29.6998 9.90126C29.6982 8.41078 28.4903 7.20285 26.9998 7.20126ZM26.9998 10.8012C26.5027 10.8012 26.0998 10.3982 26.0998 9.90126C26.0998 9.40419 26.5028 9.0013 26.9998 9.0013C27.4969 9.0013 27.8998 9.40429 27.8998 9.90126C27.8995 10.3981 27.4968 10.8009 26.9998 10.8012Z" fill="#2B8CFF"/>
<path d="M9.90038 26.1011H8.10035C7.60327 26.1011 7.20038 26.5041 7.20038 27.0011C7.20038 27.4981 7.60338 27.901 8.10035 27.901H9.00031V28.801C9.00031 29.2981 9.40331 29.701 9.90027 29.701C10.3973 29.701 10.8002 29.2981 10.8002 28.801V27.7351C12.0398 27.2993 12.7839 26.0328 12.5613 24.7378C12.3386 23.4429 11.2141 22.4977 9.90017 22.5009C9.4031 22.5009 9.00021 22.0979 9.00021 21.601C9.00021 21.1039 9.4032 20.701 9.90017 20.701H11.7002C12.1973 20.701 12.6002 20.298 12.6002 19.801C12.6002 19.304 12.1972 18.9011 11.7002 18.9011H10.8003V18.0011C10.8003 17.504 10.3973 17.1011 9.90038 17.1011C9.40331 17.1011 9.00042 17.5041 9.00042 18.0011V19.067C7.76084 19.5028 7.01676 20.7693 7.2394 22.0642C7.46205 23.3591 8.58656 24.3043 9.90049 24.3011C10.3976 24.3011 10.8005 24.7041 10.8005 25.201C10.8003 25.6981 10.3973 26.1011 9.90038 26.1011Z" fill="#2B8CFF"/>
<path d="M49.4398 20.398C49.4323 20.3768 49.4295 20.3546 49.4204 20.3342C49.4178 20.3287 49.4178 20.3227 49.4152 20.3173C49.3734 20.2305 49.3178 20.151 49.2505 20.082C49.232 20.0626 49.2104 20.0484 49.1902 20.0307C49.0269 19.8867 48.8182 19.8046 48.6005 19.7987H46.8004C46.3257 19.7988 45.9327 20.1676 45.9024 20.6412C45.872 21.1149 46.2146 21.5308 46.6854 21.5917L44.1375 24.6485L42.1204 21.9591C41.9417 21.7298 41.6666 21.5967 41.376 21.5987C41.0838 21.6068 40.8138 21.7562 40.6517 21.9994L38.8517 24.6994C38.6701 24.9669 38.6459 25.3114 38.7884 25.6016C38.9309 25.8919 39.2182 26.0834 39.5408 26.1032C39.8635 26.1232 40.1721 25.9684 40.3492 25.6979L41.4435 24.0561L43.3806 26.6383C43.5456 26.8587 43.8024 26.9915 44.0777 26.9987H44.1005C44.3676 26.9983 44.6208 26.88 44.7922 26.6752L47.8648 22.9881C48.0248 23.2405 48.3016 23.395 48.6005 23.3987C48.8392 23.3988 49.0682 23.3041 49.237 23.1352C49.4058 22.9664 49.5005 22.7374 49.5004 22.4987V20.6987C49.5004 20.6822 49.492 20.6686 49.491 20.6524C49.4867 20.5656 49.4694 20.4799 49.4398 20.398Z" fill="#2B8CFF"/>
</g>
<defs>
<clipPath id="clip0">
<rect width="54" height="54" fill="white"/>
</clipPath>
</defs>
</svg>
