<svg width="54" height="54" viewBox="0 0 54 54" fill="none" xmlns="http://www.w3.org/2000/svg">
<g clip-path="url(#clip0)">
<path d="M36.0928 35.8592C36.091 40.8032 32.0835 44.8105 27.1396 44.8123C26.6958 44.8128 26.2526 44.7769 25.8146 44.7049C25.8056 44.7139 25.7967 44.7139 25.7788 44.7049C21.4113 44.0349 18.1865 40.2777 18.1865 35.8592C18.1865 31.4407 21.4113 27.6835 25.7788 27.0135C25.7967 27.0045 25.8056 27.0045 25.8146 27.0135C26.2526 26.9414 26.6958 26.9056 27.1396 26.9061C32.0835 26.9078 36.091 30.9152 36.0928 35.8592Z" fill="#99C8FF"/>
<path d="M33.4069 35.8581C33.4046 40.2758 30.1809 44.0318 25.8146 44.7038C25.8057 44.7128 25.7967 44.7128 25.7788 44.7038C21.4113 44.0338 18.1865 40.2766 18.1865 35.8581C18.1865 31.4396 21.4113 27.6824 25.7788 27.0124C25.7967 27.0034 25.8057 27.0034 25.8146 27.0124C30.181 27.6843 33.4047 31.4403 33.4069 35.8581Z" fill="#E3F0FF"/>
<path d="M34.3017 8.10197C34.3023 10.0017 33.5478 11.8239 32.2044 13.1672C30.861 14.5106 29.0389 15.2651 27.1391 15.2646C26.6886 15.264 26.2391 15.2221 25.7962 15.1392C22.4191 14.4938 19.9766 11.5403 19.9766 8.10208C19.9766 4.66383 22.4191 1.71029 25.7962 1.06494C26.2391 0.98206 26.6886 0.940139 27.1391 0.939606C29.0389 0.939073 30.861 1.69354 32.2044 3.03692C33.5478 4.38031 34.3023 6.20221 34.3017 8.10197Z" fill="#99C8FF"/>
<path d="M25.7971 15.141C29.0111 15.141 31.6166 11.9904 31.6166 8.10388C31.6166 4.21738 29.0111 1.06674 25.7971 1.06674C22.583 1.06674 19.9775 4.21738 19.9775 8.10388C19.9775 11.9904 22.583 15.141 25.7971 15.141Z" fill="#E3F0FF"/>
<path d="M51.3134 22.4289C51.314 24.3286 50.5595 26.1507 49.2161 27.4941C47.8727 28.8375 46.0506 29.592 44.1509 29.5914C43.7003 29.5909 43.2508 29.549 42.8079 29.4661C39.4308 28.8207 36.9883 25.8672 36.9883 22.429C36.9883 18.9907 39.4308 16.0372 42.8079 15.3918C43.2508 15.3089 43.7003 15.267 44.1509 15.2665C46.0506 15.2659 47.8727 16.0204 49.2161 17.3638C50.5595 18.7072 51.314 20.5291 51.3134 22.4289Z" fill="#99C8FF"/>
<path d="M42.8078 29.4644C46.0218 29.4644 48.6273 26.3138 48.6273 22.4273C48.6273 18.5408 46.0218 15.3901 42.8078 15.3901C39.5938 15.3901 36.9883 18.5408 36.9883 22.4273C36.9883 26.3138 39.5938 29.4644 42.8078 29.4644Z" fill="#E3F0FF"/>
<path d="M17.291 22.4289C17.2915 24.3286 16.537 26.1507 15.1937 27.4941C13.8503 28.8375 12.0282 29.592 10.1284 29.5914C9.67783 29.5909 9.22833 29.549 8.78544 29.4661C5.40832 28.8207 2.96582 25.8672 2.96582 22.429C2.96582 18.9907 5.40832 16.0372 8.78544 15.3918C9.22833 15.3089 9.67783 15.267 10.1284 15.2665C12.0282 15.2659 13.8503 16.0204 15.1937 17.3638C16.537 18.707 17.2915 20.5291 17.291 22.4289Z" fill="#99C8FF"/>
<path d="M8.78534 29.4644C11.9994 29.4644 14.6049 26.3138 14.6049 22.4273C14.6049 18.5408 11.9994 15.3901 8.78534 15.3901C5.57131 15.3901 2.96582 18.5408 2.96582 22.4273C2.96582 26.3138 5.57131 29.4644 8.78534 29.4644Z" fill="#E3F0FF"/>
<path d="M53.1045 45.7057C53.105 47.6055 52.3505 49.4276 51.0071 50.771C49.6638 52.1143 47.8416 52.8688 45.9419 52.8683C45.4913 52.8677 45.0418 52.8258 44.5989 52.7429C41.2218 52.0975 38.7793 49.1441 38.7793 45.7058C38.7793 42.2676 41.2218 39.314 44.5989 38.6687C45.0418 38.5858 45.4913 38.5439 45.9419 38.5433C47.8416 38.5428 49.6638 39.2973 51.0071 40.6407C52.3505 41.984 53.105 43.8059 53.1045 45.7057Z" fill="#99C8FF"/>
<path d="M44.5978 52.7447C47.8119 52.7447 50.4174 49.5941 50.4174 45.7076C50.4174 41.8211 47.8119 38.6704 44.5978 38.6704C41.3838 38.6704 38.7783 41.8211 38.7783 45.7076C38.7783 49.5941 41.3838 52.7447 44.5978 52.7447Z" fill="#E3F0FF"/>
<path d="M15.6123 45.7057C15.6128 47.6055 14.8583 49.4276 13.515 50.771C12.1716 52.1143 10.3495 52.8688 8.44969 52.8683C7.99912 52.8677 7.54962 52.8258 7.10673 52.7429C3.72961 52.0975 1.28711 49.1441 1.28711 45.7058C1.28711 42.2676 3.72961 39.314 7.10673 38.6687C7.54962 38.5858 7.99912 38.5439 8.44969 38.5433C10.3495 38.5428 12.1716 39.2973 13.515 40.6407C14.8583 41.984 15.6128 43.8059 15.6123 45.7057Z" fill="#99C8FF"/>
<path d="M7.10663 52.7447C10.3207 52.7447 12.9261 49.5941 12.9261 45.7076C12.9261 41.8211 10.3207 38.6704 7.10663 38.6704C3.8926 38.6704 1.28711 41.8211 1.28711 45.7076C1.28711 49.5941 3.8926 52.7447 7.10663 52.7447Z" fill="#E3F0FF"/>
<path d="M27.14 9.89401C28.6234 9.89401 29.8259 8.69149 29.8259 7.2081C29.8259 5.72471 28.6234 4.52219 27.14 4.52219C25.6566 4.52219 24.4541 5.72471 24.4541 7.2081C24.4541 8.69149 25.6566 9.89401 27.14 9.89401Z" fill="#E3F0FF"/>
<path d="M30.7212 12.9555V14.2985C28.5077 15.5878 25.7721 15.5878 23.5586 14.2985V12.9555C23.7122 11.1263 25.3089 9.76101 27.1399 9.89349C28.063 9.88069 28.9595 10.2019 29.6646 10.7977C30.3212 11.3234 30.7086 12.1146 30.7212 12.9555Z" fill="#E3F0FF"/>
<path d="M10.1283 24.2209C11.6117 24.2209 12.8142 23.0184 12.8142 21.535C12.8142 20.0516 11.6117 18.8491 10.1283 18.8491C8.64491 18.8491 7.44238 20.0516 7.44238 21.535C7.44238 23.0184 8.64491 24.2209 10.1283 24.2209Z" fill="#E3F0FF"/>
<path d="M13.7095 27.2824V28.6253C11.496 29.9146 8.76035 29.9146 6.54688 28.6253V27.2824C6.70048 25.4531 8.2972 24.0879 10.1282 24.2204C11.0513 24.2076 11.9478 24.5287 12.653 25.1246C13.3094 25.6503 13.6969 26.4416 13.7095 27.2824Z" fill="#E3F0FF"/>
<path d="M8.33826 47.4987C9.82164 47.4987 11.0242 46.2962 11.0242 44.8128C11.0242 43.3294 9.82164 42.1269 8.33826 42.1269C6.85487 42.1269 5.65234 43.3294 5.65234 44.8128C5.65234 46.2962 6.85487 47.4987 8.33826 47.4987Z" fill="#E3F0FF"/>
<path d="M11.9194 50.5602V51.9032C9.70594 53.1925 6.97032 53.1925 4.75684 51.9032V50.5602C4.91044 48.731 6.50716 47.3657 8.33813 47.4982C9.26124 47.4854 10.1578 47.8066 10.863 48.4024C11.5194 48.9281 11.9068 49.7193 11.9194 50.5602Z" fill="#E3F0FF"/>
<path d="M45.9408 47.4987C47.4242 47.4987 48.6267 46.2962 48.6267 44.8128C48.6267 43.3294 47.4242 42.1269 45.9408 42.1269C44.4574 42.1269 43.2549 43.3294 43.2549 44.8128C43.2549 46.2962 44.4574 47.4987 45.9408 47.4987Z" fill="#E3F0FF"/>
<path d="M49.5229 50.5602V51.9032C47.3095 53.1925 44.5738 53.1925 42.3604 51.9032V50.5602C42.514 48.731 44.1107 47.3657 45.9416 47.4982C46.8648 47.4854 47.7614 47.8066 48.4665 48.4024C49.1229 48.9281 49.5105 49.7193 49.5229 50.5602Z" fill="#E3F0FF"/>
<path d="M44.1508 24.2209C45.6341 24.2209 46.8367 23.0184 46.8367 21.535C46.8367 20.0516 45.6341 18.8491 44.1508 18.8491C42.6674 18.8491 41.4648 20.0516 41.4648 21.535C41.4648 23.0184 42.6674 24.2209 44.1508 24.2209Z" fill="#E3F0FF"/>
<path d="M47.7319 27.2824V28.6253C45.5184 29.9146 42.7828 29.9146 40.5693 28.6253V27.2824C40.7229 25.4531 42.3197 24.0879 44.1506 24.2204C45.0737 24.2076 45.9703 24.5287 46.6754 25.1246C47.3319 25.6503 47.7194 26.4416 47.7319 27.2824Z" fill="#E3F0FF"/>
<path d="M28.4702 1.06932C28.0315 0.985369 27.586 0.942381 27.1394 0.941101C26.6888 0.941634 26.2393 0.983555 25.7964 1.06644C22.7007 1.65674 20.3548 4.20153 20.0179 7.33492C19.6809 10.4683 21.4322 13.4537 24.3316 14.6887C24.3594 14.7006 24.3867 14.7128 24.4146 14.7244C24.6821 14.8359 24.9562 14.9309 25.2353 15.0088C25.2589 15.0153 25.2832 15.0193 25.3069 15.0256C25.4685 15.0683 25.6306 15.1095 25.7965 15.1408C25.8788 15.1562 25.9657 15.1636 26.0496 15.1763C26.1271 15.1883 26.2042 15.1997 26.2825 15.209C26.8558 15.2855 27.4369 15.2851 28.0101 15.2081C28.0949 15.1979 28.1779 15.183 28.2618 15.1697C28.3243 15.1599 28.3845 15.1437 28.4464 15.1323C28.2933 15.1019 28.1426 15.0651 27.9928 15.0255C27.9691 15.0193 27.9448 15.0152 27.9212 15.0087C27.6421 14.9307 27.3681 14.8357 27.1005 14.7243C27.0727 14.7127 27.0453 14.7006 27.0175 14.6885C24.1202 13.4546 22.3691 10.4726 22.7031 7.34121C23.0371 4.20985 25.3777 1.66442 28.4702 1.06932Z" fill="white"/>
<path d="M7.69403 52.8254C7.81435 52.838 7.93553 52.8429 8.05755 52.8496C8.15174 52.8534 8.24294 52.8684 8.33809 52.8684C8.35388 52.8684 8.36892 52.8654 8.38471 52.8653C8.40657 52.8655 8.42812 52.8684 8.44999 52.8684C8.89704 52.8671 9.34291 52.8241 9.78196 52.7401C8.95784 52.6048 8.16518 52.3207 7.44272 51.9015V51.8431C4.90081 50.3132 3.5651 47.3747 4.08362 44.4535C4.60213 41.5324 6.86767 39.2332 9.78078 38.6716C9.34216 38.5876 8.89661 38.5446 8.44999 38.5434C7.99942 38.5439 7.54992 38.5858 7.10703 38.6687C4.19071 39.2258 1.92027 41.5242 1.39877 44.4472C0.877374 47.3702 2.21297 50.3119 4.7568 51.8431V51.9015C5.65506 52.4237 6.65838 52.7393 7.69403 52.8254Z" fill="white"/>
<path d="M41.3425 29.0131C41.3702 29.025 41.3975 29.0372 41.4255 29.0488C41.693 29.1603 41.967 29.2553 42.2462 29.3332C42.2698 29.3397 42.2941 29.3437 42.3178 29.35C42.4794 29.3927 42.6415 29.4339 42.8074 29.4652C42.8896 29.4806 42.9766 29.488 43.0605 29.5007C43.1379 29.5127 43.2151 29.5241 43.2934 29.5334C43.8667 29.6099 44.4477 29.6095 45.021 29.5325C45.1058 29.5223 45.1888 29.5074 45.2727 29.4941C45.3352 29.4843 45.3954 29.4682 45.4572 29.4567C45.3042 29.4263 45.1534 29.3895 45.0038 29.35C44.9801 29.3438 44.9558 29.3397 44.9321 29.3332C44.653 29.2552 44.3789 29.1603 44.1114 29.0488C44.0836 29.0372 44.0561 29.0251 44.0284 29.0131C41.1311 27.7791 39.38 24.7971 39.714 21.6657C40.048 18.5343 42.3886 15.9887 45.481 15.3937C45.0423 15.3098 44.5967 15.2668 44.1501 15.2655C43.6996 15.266 43.25 15.3079 42.8072 15.3908C39.7114 15.9811 37.3656 18.5259 37.0286 21.6593C36.6916 24.7927 38.443 27.778 41.3425 29.0131Z" fill="white"/>
<path d="M47.2719 38.674C46.8333 38.5901 46.3877 38.5471 45.9411 38.5458C45.4905 38.5464 45.041 38.5883 44.5982 38.6712C41.5024 39.2615 39.1566 41.8063 38.8196 44.9396C38.4826 48.073 40.2339 51.0585 43.1334 52.2934C43.1611 52.3053 43.1884 52.3175 43.2164 52.3291C43.4839 52.4406 43.7579 52.5356 44.0371 52.6135C44.0607 52.62 44.085 52.6241 44.1088 52.6304C44.2704 52.673 44.4325 52.7142 44.5984 52.7456C44.6806 52.7609 44.7675 52.7684 44.8515 52.7811C44.9289 52.793 45.0061 52.8044 45.0843 52.8137C45.6577 52.8902 46.2387 52.8899 46.812 52.8129C46.8968 52.8026 46.9797 52.7877 47.0637 52.7745C47.1262 52.7646 47.1864 52.7485 47.2482 52.737C47.0952 52.7066 46.9444 52.6698 46.7947 52.6304C46.771 52.6242 46.7467 52.62 46.7231 52.6135C46.4439 52.5355 46.1699 52.4406 45.9024 52.3291C45.8745 52.3175 45.8471 52.3054 45.8194 52.2934C42.9221 51.0594 41.171 48.0774 41.505 44.9461C41.8389 41.8147 44.1796 39.2691 47.2719 38.674Z" fill="white"/>
<path d="M25.7788 44.7031C25.7967 44.7121 25.8056 44.7121 25.8146 44.7031C26.2526 44.7751 26.6958 44.8111 27.1396 44.8105C27.582 44.8071 28.0235 44.7709 28.4605 44.7023C24.095 44.0306 20.8724 40.2743 20.8724 35.8573C20.8724 31.4404 24.095 27.684 28.4605 27.0124C28.0235 26.9438 27.582 26.9075 27.1396 26.9041C26.6958 26.9036 26.2526 26.9395 25.8146 27.0115C25.8056 27.0025 25.7967 27.0025 25.7788 27.0115C21.4113 27.6815 18.1865 31.4387 18.1865 35.8572C18.1865 40.2757 21.4113 44.0331 25.7788 44.7031Z" fill="white"/>
<path d="M2.96582 22.428C2.96593 25.2976 4.68009 27.8896 7.32067 29.0131C7.34841 29.025 7.37571 29.0372 7.40366 29.0488C7.67118 29.1603 7.94522 29.2553 8.22437 29.3332C8.24794 29.3397 8.27226 29.3437 8.29594 29.35C8.45755 29.3927 8.61968 29.4339 8.78555 29.4652C8.86779 29.4806 8.95473 29.488 9.03868 29.5007C9.11612 29.5127 9.19324 29.5241 9.27153 29.5334C9.84488 29.6099 10.4259 29.6095 10.9991 29.5325C11.0839 29.5223 11.1669 29.5074 11.2509 29.4941C11.3134 29.4843 11.3735 29.4682 11.4354 29.4567C11.2823 29.4263 11.1316 29.3895 10.9819 29.35C10.9582 29.3438 10.9339 29.3397 10.9103 29.3332C10.6311 29.2552 10.3571 29.1603 10.0896 29.0488C10.0617 29.0372 10.0343 29.0251 10.0066 29.0131C7.10925 27.7791 5.35818 24.7971 5.69216 21.6657C6.02614 18.5343 8.36677 15.9887 11.4592 15.3937C11.0205 15.3098 10.5749 15.2668 10.1283 15.2655C9.67773 15.266 9.22823 15.3079 8.78534 15.3908C5.40768 16.0351 2.96465 18.9893 2.96582 22.428Z" fill="white"/>
<path d="M45.9415 37.6498C43.2649 37.6507 40.7635 38.9807 39.2663 41.1994L36.2405 39.6146C37.4827 36.6205 37.1634 33.2058 35.3876 30.494L38.4263 28.0921C41.4588 31.1841 46.3792 31.3673 49.6332 28.5092C52.8872 25.6511 53.3403 20.7483 50.6654 17.3422C47.9905 13.936 43.12 13.2141 39.572 15.6979C36.024 18.1816 35.0356 23.0051 37.3206 26.6842L34.2757 29.0912C32.6345 27.3535 30.4156 26.2744 28.0354 26.0562V16.1096C32.2849 15.6345 35.4233 11.9228 35.1855 7.65335C34.9476 3.38394 31.4159 0.0436096 27.1399 0.0436096C22.8639 0.0436096 19.3325 3.38372 19.0945 7.65313C18.8565 11.9225 21.995 15.6343 26.2446 16.1094V26.056C23.8644 26.2742 21.6455 27.3533 20.0043 29.091L16.9593 26.684C19.199 23.0632 18.2209 18.3235 14.7309 15.8851C11.2409 13.4466 6.45396 14.1584 3.82436 17.5067C1.19477 20.8551 1.63798 25.6744 4.8342 28.4869C8.03041 31.2994 12.8669 31.1261 15.8536 28.092L18.8923 30.4939C17.1164 33.2057 16.7971 36.6204 18.0393 39.6144L15.0136 41.1993C12.5941 37.5804 7.76801 36.4837 4.02213 38.7017C0.276355 40.9198 -1.0826 45.6788 0.927246 49.5402C2.9371 53.4016 7.61462 55.0188 11.5802 53.2231C15.5459 51.4275 17.4163 46.8454 15.8403 42.7875L18.8759 41.1975C20.6843 44.0087 23.7975 45.7077 27.1401 45.7077C30.4827 45.7077 33.5959 44.0086 35.4042 41.1975L38.4398 42.7875C37.1616 46.079 38.1767 49.8193 40.9434 52.013C43.7103 54.2067 47.5835 54.3421 50.4968 52.3468C53.41 50.3517 54.6838 46.6914 53.6385 43.3186C52.593 39.9461 49.4725 37.6477 45.9415 37.6498ZM41.4649 28.0833V27.282C41.6245 25.9508 42.8161 24.9897 44.1508 25.1154C44.8639 25.1024 45.5573 25.3499 46.1011 25.8114C46.5549 26.1661 46.8251 26.7062 46.8369 27.2821V28.0834C45.1397 28.9012 43.1622 28.9012 41.4649 28.0833ZM42.3603 21.5341C42.3603 20.5452 43.162 19.7435 44.1509 19.7435C45.1399 19.7435 45.9416 20.5452 45.9416 21.5341C45.9416 22.523 45.1399 23.3248 44.1509 23.3248C43.1624 23.3237 42.3614 22.5226 42.3603 21.5341ZM44.1509 16.1623C46.6864 16.161 48.9725 17.6882 49.942 20.0308C50.9115 22.3735 50.3735 25.0695 48.5788 26.8605C48.4628 25.9195 47.9933 25.0577 47.2654 24.4502C47.0881 24.2998 46.899 24.164 46.7 24.0439C48.085 22.6411 48.076 20.3829 46.68 18.991C45.2839 17.5992 43.0256 17.5973 41.6271 18.9866C40.2285 20.3758 40.2156 22.6341 41.598 24.0393C40.5748 24.6437 39.884 25.6827 39.7226 26.8601C37.9282 25.0691 37.3903 22.3731 38.36 20.0306C39.3296 17.6881 41.6157 16.161 44.1509 16.1623ZM3.8617 22.4295C3.85967 19.5917 5.76477 17.1067 8.50573 16.3717C11.2467 15.6367 14.1394 16.8352 15.5576 19.2932C16.9756 21.7513 16.5652 24.8555 14.5568 26.8604C14.4409 25.9194 13.9713 25.0576 13.2434 24.4501C13.0661 24.2997 12.8771 24.1639 12.6781 24.0438C14.0631 22.641 14.0541 20.3827 12.658 18.991C11.2619 17.5992 9.00366 17.5973 7.60512 18.9866C6.20659 20.3758 6.19358 22.6341 7.57611 24.0393C6.55284 24.6437 5.86205 25.6827 5.70066 26.8601C4.52251 25.6866 3.86063 24.0921 3.8617 22.4295ZM8.33826 21.5341C8.33826 20.5452 9.13998 19.7435 10.1289 19.7435C11.1178 19.7435 11.9195 20.5452 11.9195 21.5341C11.9195 22.523 11.1178 23.3248 10.1289 23.3248C9.14041 23.3237 8.33943 22.5226 8.33826 21.5341ZM7.44288 28.0833V27.282C7.60246 25.9508 8.79405 24.9897 10.1288 25.1154C10.8419 25.1024 11.5352 25.3499 12.079 25.8114C12.5329 26.1661 12.8031 26.7062 12.8148 27.2821V28.0834C11.1176 28.9012 9.14019 28.9012 7.44288 28.0833ZM5.65234 51.3615V50.5602C5.81192 49.2291 7.00351 48.2679 8.33826 48.3937C9.05134 48.3807 9.74468 48.6282 10.2885 49.0897C10.7424 49.4444 11.0125 49.9844 11.0243 50.5603V51.3616C9.32697 52.1795 7.34955 52.1795 5.65234 51.3615ZM6.54761 44.8124C6.54761 43.8235 7.34933 43.0218 8.33826 43.0218C9.32718 43.0218 10.1289 43.8235 10.1289 44.8124C10.1289 45.8013 9.32718 46.6031 8.33826 46.6031C7.34976 46.6019 6.54879 45.8009 6.54761 44.8124ZM12.7661 50.1387C12.6501 49.1977 12.1806 48.3359 11.4527 47.7284C11.2754 47.578 11.0864 47.4422 10.8873 47.3221C12.2723 45.9193 12.2633 43.661 10.8673 42.2693C9.47118 40.8776 7.2129 40.8756 5.81437 42.2648C4.41584 43.6541 4.40283 45.9124 5.78536 47.3176C4.76209 47.922 4.0713 48.961 3.90991 50.1384C2.16492 48.3966 1.60395 45.7932 2.47682 43.4874C3.34958 41.1815 5.49373 39.6021 7.95468 39.4522C10.4156 39.3023 12.7356 40.61 13.8816 42.793L13.8842 42.8016L13.8892 42.8086C15.163 45.2337 14.7077 48.2061 12.7661 50.1387ZM24.454 13.7582V12.9569C24.6135 11.6258 25.8051 10.6646 27.1399 10.7904C27.853 10.7773 28.5463 11.0248 29.0901 11.4864C29.544 11.841 29.8142 12.3811 29.8259 12.957V13.7583C28.1286 14.5761 26.1512 14.5761 24.454 13.7582ZM25.3492 7.20907C25.3492 6.22015 26.1509 5.41843 27.1399 5.41843C28.1288 5.41843 28.9305 6.22015 28.9305 7.20907C28.9305 8.198 28.1288 8.99971 27.1399 8.99971C26.1514 8.99865 25.3504 8.19757 25.3492 7.20907ZM20.8727 8.10445C20.8706 5.26664 22.7757 2.78168 25.5167 2.04663C28.2577 1.31158 31.1504 2.51011 32.5686 4.96818C33.9867 7.42625 33.5761 10.5304 31.5678 12.5354C31.4518 11.5943 30.9823 10.7325 30.2544 10.1251C30.0771 9.97467 29.8881 9.83888 29.689 9.71877C31.074 8.31597 31.0651 6.05769 29.669 4.66588C28.2729 3.27407 26.0146 3.27215 24.6161 4.6614C23.2176 6.05065 23.2047 8.30893 24.5871 9.71418C23.5638 10.3186 22.873 11.3575 22.7115 12.5349C21.5335 11.3616 20.8717 9.76709 20.8727 8.10445ZM27.1399 43.9171C22.6897 43.9171 19.082 40.3095 19.082 35.8593C19.082 31.4091 22.6897 27.8014 27.1399 27.8014C31.5901 27.8014 35.1977 31.4091 35.1977 35.8593C35.1927 40.3074 31.5881 43.912 27.1399 43.9171ZM43.2556 51.3615V50.5602C43.4151 49.2291 44.6067 48.2679 45.9415 48.3937C46.6546 48.3807 47.3479 48.6282 47.8917 49.0897C48.3456 49.4444 48.6158 49.9844 48.6275 50.5603V51.3616C46.9302 52.1795 44.9529 52.1795 43.2556 51.3615ZM44.1509 44.8124C44.1509 43.8235 44.9527 43.0218 45.9416 43.0218C46.9305 43.0218 47.7322 43.8235 47.7322 44.8124C47.7322 45.8013 46.9305 46.6031 45.9416 46.6031C44.9531 46.6019 44.152 45.8009 44.1509 44.8124ZM50.3694 50.1387C50.2535 49.1977 49.7839 48.3359 49.056 47.7284C48.8787 47.578 48.6897 47.4422 48.4907 47.3221C49.8756 45.9193 49.8667 43.661 48.4706 42.2692C47.0745 40.8774 44.8162 40.8755 43.4177 42.2647C42.0192 43.654 42.0062 45.9123 43.3887 47.3175C42.3654 47.9219 41.6746 48.9609 41.5131 50.1383C39.572 48.2056 39.1167 45.2336 40.3906 42.8085L40.3956 42.8015L40.3981 42.7929C41.5442 40.6098 43.8643 39.302 46.3254 39.4519C48.7864 39.6018 50.9307 41.1814 51.8034 43.4875C52.676 45.7935 52.1147 48.397 50.3694 50.1387Z" fill="#2B8CFF"/>
</g>
<defs>
<clipPath id="clip0">
<rect width="54" height="54" fill="white"/>
</clipPath>
</defs>
</svg>
