<svg width="3078" height="698" viewBox="0 0 3078 698" fill="none" xmlns="http://www.w3.org/2000/svg">
<g clip-path="url(#clip0_1201:12028)">
<path fill-rule="evenodd" clip-rule="evenodd" d="M1684 665.951C2337.9 665.951 2867.99 141.016 2867.99 -506.525C2867.99 -1154.06 2337.9 -1679 1684 -1679C1030.09 -1679 500 -1154.06 500 -506.525C500 141.016 1030.09 665.951 1684 665.951ZM1684.02 -43.9841C1913.98 -43.9841 2100.41 -241.291 2100.41 -484.681C2100.41 -728.071 1684.02 -1255.9 1684.02 -1255.9C1684.02 -1255.9 1267.63 -728.071 1267.63 -484.681C1267.63 -241.291 1454.05 -43.9841 1684.02 -43.9841Z" fill="white"/>
<path fill-rule="evenodd" clip-rule="evenodd" d="M1778.13 -47.9181C2136.08 -47.9181 2426.25 -355.03 2426.25 -733.872C2426.25 -966.74 2181.37 -1366.89 1992.65 -1640.68C2500.57 -1508.67 2875.24 -1050.93 2875.24 -506.54C2875.24 141 2345.14 665.935 1691.24 665.935C1037.34 665.935 507.242 141 507.242 -506.54C507.242 -1119.33 981.969 -1622.32 1587.1 -1674.54C1395.93 -1400.85 1130.01 -976.536 1130.01 -733.872C1130.01 -514.722 1227.11 -319.575 1378.26 -193.995C1454.57 -102.04 1566.49 -43.999 1691.22 -43.999C1711.52 -43.999 1731.48 -45.5366 1751.01 -48.5078C1760 -48.116 1769.04 -47.9181 1778.13 -47.9181Z" fill="white"/>
<path fill-rule="evenodd" clip-rule="evenodd" d="M1909.89 -1656.81C1838.71 -1670.03 1765.27 -1676.95 1690.21 -1676.95C1036.31 -1676.95 506.213 -1152.02 506.213 -504.475C506.213 143.065 1036.31 668 1690.21 668C2238.82 668 2700.29 298.501 2834.67 -202.899C2665.57 8.7218 2403.91 144.499 2110.24 144.499C1822.45 144.499 1546.96 22.2994 1399.96 -166.669C1322.17 -246.738 1273.84 -358.712 1273.84 -482.632C1273.84 -545.441 1301.57 -627.191 1342.71 -713.924C1347.28 -1142.06 1537.45 -1549.54 1909.89 -1656.81Z" fill="#29DCCB"/>
<path fill-rule="evenodd" clip-rule="evenodd" d="M1996.17 -1637.82C1896.72 -1664.67 1792.05 -1679 1684 -1679C1030.09 -1679 500 -1154.06 500 -506.525C500 141.016 1030.09 665.951 1684 665.951C1770.71 665.951 1855.25 656.72 1936.66 639.196C1532.82 518.834 1238.65 147.737 1238.65 -291.398C1238.65 -407.112 1259.08 -518.102 1296.55 -621.025C1330.83 -716.669 1391.31 -826.569 1454.44 -927.76C1520.6 -1034.86 1605.27 -1159.47 1684 -1255.91C1802.47 -1400.99 1909.84 -1532.31 1996.17 -1637.82Z" fill="#1EB6A9"/>
</g>
<defs>
<clipPath id="clip0_1201:12028">
<rect width="3078" height="698" fill="white"/>
</clipPath>
</defs>
</svg>
