<svg width="27" height="27" viewBox="0 0 27 27" fill="none" xmlns="http://www.w3.org/2000/svg">
<g filter="url(#filter0_d_1126:12866)">
<mask id="mask0_1126:12866" style="mask-type:alpha" maskUnits="userSpaceOnUse" x="1" y="1" width="25" height="25">
<circle cx="13.1437" cy="13.1437" r="11.6437" fill="#C4C4C4" stroke="black"/>
</mask>
<g mask="url(#mask0_1126:12866)">
<path fill-rule="evenodd" clip-rule="evenodd" d="M1 1H49.5799V17.1331H1V1Z" fill="#B20000"/>
<path fill-rule="evenodd" clip-rule="evenodd" d="M1 17.1338H49.5799V25.2881H1V17.1338Z" fill="#429F00"/>
<path fill-rule="evenodd" clip-rule="evenodd" d="M1 1H6.37985V25.2874H1V1Z" fill="white"/>
<path fill-rule="evenodd" clip-rule="evenodd" d="M1.25684 1.4127H1.51302V1.82539H1.25684V1.4127ZM2.02539 1.4127H2.79394V1.82539H2.02539V1.4127ZM2.28157 1H2.53775V1.4127H2.28157V1ZM3.56249 1H3.81867V1.4127H3.56249V1ZM4.58722 1.4127H5.35577V1.82539H4.58722V1.4127ZM4.8434 1H5.09959V1.4127H4.8434V1ZM1.7692 1.82539H2.28157V2.23334H1.7692V1.82539ZM2.53775 1.82539H3.05012V2.23334H2.53775V1.82539ZM4.33104 1.82539H4.8434V2.23334H4.33104V1.82539ZM5.09959 1.82539H5.61195V2.23334H5.09959V1.82539ZM1.51302 2.23334H2.02539V2.64604H1.51302V2.23334ZM2.79394 2.23334H3.3063V2.64604H2.79394V2.23334ZM4.07485 2.23334H4.58722V2.64604H4.07485V2.23334ZM5.35577 2.23334H5.86813V2.64604H5.35577V2.23334ZM5.86813 1.4127H6.12432V1.82539H5.86813V1.4127ZM1.25684 2.64604H1.7692V3.05874H1.25684V2.64604ZM3.05012 2.64604H3.56249V3.05874H3.05012V2.64604ZM5.61195 2.64604H6.12432V3.05874H5.61195V2.64604ZM1.51302 3.87938H2.02539V4.29208H1.51302V3.87938ZM1.7692 4.29208H2.28157V4.70477H1.7692V4.29208ZM2.79394 3.88413H3.3063V4.29208H2.79394V3.88413ZM2.53775 4.29208H3.05012V4.70477H2.53775V4.29208ZM2.02539 4.70477H2.79394V5.11747H2.02539V4.70477Z" fill="#B20000"/>
<path fill-rule="evenodd" clip-rule="evenodd" d="M2.2814 5.11713H2.53759V5.52983H2.2814V5.11713ZM4.07469 3.88379H4.58705V4.29174H4.07469V3.88379ZM4.33087 4.29174H4.84324V4.70444H4.33087V4.29174ZM5.3556 3.88379H5.86797V4.29174H5.3556V3.88379ZM5.09942 4.29174H5.61179V4.70444H5.09942V4.29174ZM4.58705 4.70444H5.3556V5.11713H4.58705V4.70444ZM4.84324 5.11713H5.09942V5.52983H4.84324V5.11713ZM3.56232 4.69969H3.8185V5.11239H3.56232V4.69969ZM1.00049 4.69969H1.25667V5.11239H1.00049V4.69969ZM6.12415 4.69969H6.38034V5.11239H6.12415V4.69969ZM2.2814 6.75843H2.53759V7.17112H2.2814V6.75843ZM2.02522 7.17587H2.79377V7.58382H2.02522V7.17587ZM1.76904 7.58382H3.04995V7.99652H1.76904V7.58382ZM4.84324 6.76317H5.09942V7.17587H4.84324V6.76317ZM4.58705 7.17587H5.3556V7.58382H4.58705V7.17587ZM4.33087 7.58382H5.61179V7.99652H4.33087V7.58382ZM4.58705 9.64256H5.86797V10.0553H4.58705V9.64256ZM4.07469 7.99652H5.86797V8.40921H4.07469V7.99652ZM1.51285 7.99652H3.30614V8.40921H1.51285V7.99652ZM1.76904 10.0553H2.53759V10.4679H1.76904V10.0553ZM1.51285 9.64256H2.79377V10.0553H1.51285V9.64256ZM5.09942 8.82665H6.38034V9.23935H5.09942V8.82665ZM4.84324 10.06H5.61179V10.4727H4.84324V10.06Z" fill="#B20000"/>
<path fill-rule="evenodd" clip-rule="evenodd" d="M2.02522 10.4687H2.2814V10.8814H2.02522V10.4687ZM5.09942 10.4687H5.3556V10.8814H5.09942V10.4687ZM1.00049 8.82269H2.2814V9.23539H1.00049V8.82269ZM3.30614 9.64334H4.07469V10.056H3.30614V9.64334ZM3.56232 10.0608H3.8185V10.4735H3.56232V10.0608ZM2.79377 8.82743H4.58705V9.24013H2.79377V8.82743ZM3.8185 2.64648H4.33087V3.05918H3.8185V2.64648ZM3.30614 3.05918H4.07469V3.47188H3.30614V3.05918ZM3.04995 3.47188H3.56232V3.87983H3.04995V3.47188ZM3.8185 3.47188H4.33087V3.87983H3.8185V3.47188ZM1.00049 3.05918H1.51285V3.47188H1.00049V3.05918ZM1.25667 3.47188H1.76904V3.87983H1.25667V3.47188ZM5.86797 3.05918H6.38034V3.46713H5.86797V3.05918ZM5.61179 3.46713H6.12415V3.87508H5.61179V3.46713ZM1.00049 7.16716H1.25667V7.57986H1.00049V7.16716ZM6.12415 7.16716H6.38034V7.57986H6.12415V7.16716ZM3.30614 10.464H4.07469V10.8767H3.30614V10.464ZM3.04995 10.8767H3.56232V11.2846H3.04995V10.8767ZM3.8185 10.8767H4.33087V11.2846H3.8185V10.8767ZM2.79377 11.2846H3.30614V11.6973H2.79377V11.2846ZM4.07469 11.2846H4.58705V11.6973H4.07469V11.2846ZM2.53759 11.6973H3.04995V12.11H2.53759V11.6973ZM4.33087 11.6973H4.84324V12.11H4.33087V11.6973ZM2.2814 12.1148H2.79377V12.5275H2.2814V12.1148ZM4.58705 12.1148H5.09942V12.5275H4.58705V12.1148ZM1.76904 12.5275H2.53759V12.9402H1.76904V12.5275ZM4.84324 12.5275H5.61179V12.9402H4.84324V12.5275ZM5.3556 12.1148H5.86797V12.5275H5.3556V12.1148ZM5.61179 11.7021H6.12415V12.1148H5.61179V11.7021ZM5.86797 11.2894H6.38034V11.7021H5.86797V11.2894ZM1.51285 12.1148H2.02522V12.5275H1.51285V12.1148ZM1.25667 11.7021H1.76904V12.1148H1.25667V11.7021ZM1.00049 11.2941H1.51285V11.7068H1.00049V11.2941ZM2.02522 12.9449H2.2814V13.3529H2.02522V12.9449ZM5.09942 12.9449H5.3556V13.3529H5.09942V12.9449ZM3.56232 11.7116H3.8185V12.1195H3.56232V11.7116ZM2.79377 12.9449H3.04995V13.3529H2.79377V12.9449ZM4.33087 12.9449H4.58705V13.3529H4.33087V12.9449ZM3.56232 12.9449H3.8185V13.3529H3.56232V12.9449ZM1.00049 12.9449H1.25667V13.3529H1.00049L1.00049 12.9449ZM6.12415 12.9449H6.38034V13.3529H6.12415V12.9449ZM3.56232 7.17665H3.8185V7.5846H3.56232V7.17665ZM2.2814 3.05918H2.53759V3.47188H2.2814V3.05918ZM4.84324 3.05918H5.09942V3.47188H4.84324V3.05918ZM3.30614 5.93856H4.07469V6.35126H3.30614V5.93856ZM2.79377 6.35126H3.56232V6.76396H2.79377V6.35126ZM3.04995 6.76396H3.30614V7.17665H3.04995V6.76396ZM2.53759 5.93856H3.04995V6.35126H2.53759V5.93856ZM2.79377 5.53061H3.56232V5.93856H2.79377V5.53061ZM3.04995 5.11792H3.30614V5.53061H3.04995V5.11792ZM3.8185 5.53061H4.58705V5.93856H3.8185V5.53061ZM4.07469 5.11792H4.33087V5.53061H4.07469V5.11792ZM4.33087 5.93856H4.84324V6.35126H4.33087V5.93856ZM3.8185 6.35126H4.58705V6.76396H3.8185V6.35126ZM4.07469 6.76396H4.33087V7.17665H4.07469V6.76396ZM5.09942 5.93856H5.61179V6.35126H5.09942V5.93856ZM5.3556 5.53061H6.12415V5.93856H5.3556V5.53061ZM5.86797 5.93856H6.38034V6.35126H5.86797V5.93856ZM5.3556 6.35126H6.12415V6.76396H5.3556V6.35126ZM5.61179 6.76396H5.86797V7.17665H5.61179V6.76396ZM5.61179 5.11792H5.86797V5.53061H5.61179V5.11792ZM1.00049 5.93382H1.51285V6.34652H1.00049V5.93382ZM1.25667 5.52587H2.02522V5.93382H1.25667V5.52587ZM1.76904 5.93382H2.2814V6.34652H1.76904V5.93382ZM1.25667 6.34652H2.02522V6.75921H1.25667V6.34652Z" fill="#B20000"/>
<path fill-rule="evenodd" clip-rule="evenodd" d="M1.51285 6.76323H1.76904V7.17592H1.51285V6.76323ZM1.51285 5.11719H1.76904V5.52988H1.51285V5.11719ZM1.25667 8.40927H2.2814V8.82196H1.25667V8.40927ZM2.53759 8.40927H3.56232V8.82196H2.53759V8.40927ZM3.8185 8.40927H4.84324V8.82196H3.8185V8.40927ZM5.09942 8.40927H6.12415V8.82196H5.09942V8.40927ZM3.04995 9.23466H4.33087V9.64261H3.04995V9.23466ZM1.25667 9.23466H2.53759V9.64261H1.25667V9.23466ZM4.84324 9.23466H6.12415V9.64261H4.84324V9.23466ZM6.12415 10.8807H6.38034V11.2886H6.12415V10.8807ZM1.00049 10.8807H1.25667V11.2886H1.00049V10.8807ZM1.25667 24.8744H1.51285V24.4665H1.25667V24.8744ZM2.02522 24.8744H2.79377V24.4665H2.02522V24.8744ZM2.2814 25.2871H2.53759V24.8744H2.2814V25.2871ZM3.56232 25.2871H3.8185V24.8744H3.56232V25.2871ZM4.58705 24.8744H5.3556V24.4617H4.58705V24.8744ZM4.84324 25.2871H5.09942V24.8744H4.84324V25.2871ZM1.76904 24.4617H2.2814V24.0538H1.76904V24.4617ZM2.53759 24.4617H3.04995V24.0538H2.53759V24.4617ZM4.33087 24.4617H4.84324V24.0538H4.33087V24.4617ZM5.09942 24.4617H5.61179V24.0538H5.09942V24.4617ZM2.79377 24.0538H3.30614V23.6411H2.79377V24.0538ZM4.07469 24.0538H4.58705V23.6411H4.07469V24.0538ZM5.3556 24.0538H5.86797V23.6411H5.3556V24.0538ZM5.86797 24.8744H6.12415V24.4617H5.86797V24.8744ZM1.25667 23.6411H1.76904V23.2284H1.25667V23.6411ZM3.04995 23.6411H3.56232V23.2284H3.04995V23.6411ZM5.61179 23.6411H6.12415V23.2284H5.61179V23.6411ZM1.51285 22.4077H2.02522V21.995H1.51285V22.4077ZM1.76904 21.995H2.2814V21.5823H1.76904V21.995ZM2.79377 22.4077H3.30614V21.995H2.79377V22.4077ZM2.53759 21.995H3.04995V21.5823H2.53759V21.995ZM2.02522 21.5823H2.79377V21.1696H2.02522V21.5823ZM2.2814 21.1696H2.53759V20.7617H2.2814V21.1696ZM4.07469 22.403H4.58705V21.995H4.07469V22.403ZM4.33087 21.995H4.84324V21.5823H4.33087V21.995ZM5.3556 22.4077H5.86797V21.995H5.3556V22.4077ZM5.09942 21.995H5.61179V21.5823H5.09942V21.995ZM4.58705 21.5823H5.3556V21.1696H4.58705V21.5823ZM4.84324 21.1696H5.09942V20.7617H4.84324V21.1696ZM3.56232 21.5871H3.8185V21.1744H3.56232V21.5871ZM1.00049 21.5871H1.25667V21.1744H1.00049V21.5871ZM6.12415 21.5871H6.38034V21.1744H6.12415V21.5871ZM2.2814 19.5283H2.53759V19.1156H2.2814V19.5283ZM2.02522 19.1109H2.79377V18.7029H2.02522V19.1109ZM1.76904 18.7029H3.04995V18.2902H1.76904V18.7029ZM4.84324 19.5236H5.09942V19.1109H4.84324V19.5236Z" fill="#B20000"/>
<path fill-rule="evenodd" clip-rule="evenodd" d="M4.58705 19.1118H5.3556V18.7038H4.58705V19.1118ZM4.33087 18.7038H5.61179V18.2911H4.33087V18.7038ZM4.58705 16.6451H5.86797V16.2276H4.58705V16.6451ZM4.07469 18.2911H5.86797V17.8784H4.07469V18.2911ZM1.51285 18.2911H3.30614V17.8784H1.51285V18.2911ZM1.76904 16.2324H2.53759V15.8197H1.76904V16.2324ZM1.51285 16.6451H2.79377V16.2276H1.51285V16.6451ZM5.09942 17.461H6.38034V17.0483H5.09942V17.461ZM4.84324 16.2276H5.61179V15.8149H4.84324V16.2276ZM1.00049 17.461H2.2814V17.0483H1.00049V17.461ZM3.30614 16.6403H4.07469V16.2276H3.30614V16.6403ZM3.56232 16.2276H3.8185V15.8149H3.56232V16.2276ZM2.79377 17.461H4.58705V17.0483H2.79377V17.461ZM3.8185 23.6372H4.33087V23.2245H3.8185V23.6372ZM3.30614 23.2245H4.07469V22.8213H3.30614V23.2245ZM3.04995 22.8118H3.56232V22.3991H3.04995V22.8118ZM3.8185 22.8118H4.33087V22.3991H3.8185V22.8118ZM1.00049 23.2292H1.51285V22.8213H1.00049V23.2292ZM1.25667 22.8165H1.76904V22.4086H1.25667V22.8165ZM5.86797 23.2292H6.38034V22.8213H5.86797V23.2292ZM5.61179 22.8165H6.12415V22.4086H5.61179V22.8165ZM1.00049 19.1212H1.25667V18.7085H1.00049V19.1212ZM6.12415 19.1212H6.38034V18.7085H6.12415V19.1212ZM3.04995 15.4117H3.56232V15.0038H3.04995V15.4117ZM3.8185 15.4117H4.33087V15.0038H3.8185V15.4117ZM2.79377 15.0038H3.30614V14.5911H2.79377V15.0038ZM4.07469 15.0038H4.58705V14.5911H4.07469V15.0038ZM2.53759 14.5911H3.04995V14.1784H2.53759V14.5911ZM4.33087 14.5911H4.84324V14.1784H4.33087V14.5911ZM2.2814 14.1736H2.79377V13.7609H2.2814V14.1736ZM4.58705 14.1736H5.09942V13.7609H4.58705V14.1736ZM1.76904 13.7609H2.53759V13.3482H1.76904V13.7609ZM4.84324 13.7609H5.61179V13.3482H4.84324V13.7609ZM5.3556 14.1736H5.86797V13.7609H5.3556V14.1736ZM5.61179 14.5863H6.12415V14.1736H5.61179V14.5863ZM5.86797 14.999H6.38034V14.5863H5.86797V14.999ZM1.51285 14.1736H2.02522V13.7609H1.51285V14.1736ZM1.25667 14.5863H1.76904V14.1736H1.25667V14.5863ZM1.00049 14.9943H1.51285V14.5816H1.00049V14.9943ZM2.02522 13.3435H2.2814V12.9355H2.02522V13.3435ZM3.56232 14.5768H3.8185V14.1689H3.56232V14.5768ZM3.56232 19.107H3.8185V18.6991H3.56232V19.107ZM2.2814 23.2245H2.53759V22.8213H2.2814V23.2245ZM4.84324 23.2245H5.09942V22.8213H4.84324V23.2245ZM3.30614 20.3546H4.07469V19.9419H3.30614V20.3546ZM2.79377 19.9419H3.56232V19.5292H2.79377V19.9419ZM3.04995 19.5292H3.30614V19.1165H3.04995V19.5292ZM2.53759 20.3546H3.04995V19.9419H2.53759V20.3546ZM2.79377 20.7578H3.56232V20.3546H2.79377V20.7578ZM3.04995 21.1705H3.30614V20.7625H3.04995V21.1705ZM3.8185 20.7578H4.58705V20.3546H3.8185V20.7578ZM4.07469 21.1705H4.33087V20.7625H4.07469V21.1705ZM4.33087 20.3498H4.84324V19.9371H4.33087V20.3498ZM3.8185 19.9371H4.58705V19.5244H3.8185V19.9371ZM4.07469 19.5244H4.33087V19.1118H4.07469V19.5244ZM5.09942 20.3546H5.61179V19.9419H5.09942V20.3546ZM5.3556 20.7578H6.12415V20.3546H5.3556V20.7578ZM5.86797 20.3498H6.38034V19.9371H5.86797V20.3498ZM5.3556 19.9371H6.12415V19.5244H5.3556V19.9371ZM5.61179 19.5244H5.86797V19.1118H5.61179V19.5244ZM5.61179 21.1705H5.86797V20.7625H5.61179V21.1705ZM1.00049 20.3546H1.51285V19.9419H1.00049V20.3546ZM1.25667 20.7578H2.02522V20.3546H1.25667V20.7578Z" fill="#B20000"/>
<path fill-rule="evenodd" clip-rule="evenodd" d="M1.76904 20.3496H2.2814V19.9369H1.76904V20.3496ZM1.25667 19.9369H2.02522V19.5242H1.25667V19.9369ZM1.51285 19.5242H1.76904V19.1115H1.51285V19.5242ZM1.51285 21.1702H1.76904V20.7623H1.51285V21.1702ZM1.25667 17.8782H2.2814V17.4655H1.25667V17.8782ZM2.53759 17.8782H3.56232V17.4655H2.53759V17.8782ZM3.8185 17.8782H4.84324V17.4655H3.8185V17.8782ZM5.09942 17.8782H6.12415V17.4655H5.09942V17.8782ZM3.04995 17.0528H4.33087V16.6448H3.04995V17.0528ZM1.25667 17.0528H2.53759V16.6448H1.25667V17.0528ZM4.84324 17.0528H6.12415V16.6448H4.84324V17.0528ZM6.12415 15.4115H6.38034V14.994H6.12415V15.4115ZM1.00049 15.4115H1.25667V14.994H1.00049V15.4115ZM3.30614 13.348H3.56232V13.7607H3.30614V13.348ZM3.8185 13.348H4.07469V13.7607H3.8185V13.348ZM3.8185 12.5273H4.07469V12.94H3.8185V12.5273ZM3.30614 12.5273H3.56232V12.94H3.30614V12.5273ZM1.51285 23.6417H2.02522V24.0544H1.51285V23.6417ZM5.09942 15.8194H5.3556V15.4067H5.09942V15.8194ZM2.02522 15.8194H2.2814V15.4067H2.02522V15.8194ZM3.30614 15.4067H4.07469V15.8194H3.30614V15.4067Z" fill="#B20000"/>
</g>
</g>
<defs>
<filter id="filter0_d_1126:12866" x="0" y="0" width="26.2876" height="26.2871" filterUnits="userSpaceOnUse" color-interpolation-filters="sRGB">
<feFlood flood-opacity="0" result="BackgroundImageFix"/>
<feColorMatrix in="SourceAlpha" type="matrix" values="0 0 0 0 0 0 0 0 0 0 0 0 0 0 0 0 0 0 127 0" result="hardAlpha"/>
<feOffset/>
<feGaussianBlur stdDeviation="0.5"/>
<feComposite in2="hardAlpha" operator="out"/>
<feColorMatrix type="matrix" values="0 0 0 0 0 0 0 0 0 0 0 0 0 0 0 0 0 0 0.25 0"/>
<feBlend mode="normal" in2="BackgroundImageFix" result="effect1_dropShadow_1126:12866"/>
<feBlend mode="normal" in="SourceGraphic" in2="effect1_dropShadow_1126:12866" result="shape"/>
</filter>
</defs>
</svg>
