<svg width="27" height="27" viewBox="0 0 27 27" fill="none" xmlns="http://www.w3.org/2000/svg">
<g filter="url(#filter0_d_1126:12900)">
<mask id="mask0_1126:12900" style="mask-type:alpha" maskUnits="userSpaceOnUse" x="1" y="1" width="25" height="25">
<circle cx="13.1437" cy="13.1437" r="11.6437" fill="#C4C4C4" stroke="black"/>
</mask>
<g mask="url(#mask0_1126:12900)">
<path d="M1 1H33.6145V25.4609H1V1Z" fill="#DE2910"/>
<path d="M4.91344 10.0507L7.11489 3.44629L9.31634 10.0507L3.4458 6.01468H10.784L4.91344 10.0507Z" fill="#FFDE00"/>
<path d="M14.4612 3.57284L12.1956 4.0749L13.7068 2.31389L13.5586 4.68398L12.3013 2.58574L14.4612 3.57284Z" fill="#FFDE00"/>
<path d="M16.7481 6.47073L14.4652 6.05481L16.5411 5.01776L15.4852 7.14485L15.1402 4.72323L16.7481 6.47073Z" fill="#FFDE00"/>
<path d="M16.4161 10.5354L14.5013 9.22449L16.8197 9.12428L14.9882 10.6358L15.6607 8.284L16.4161 10.5354Z" fill="#FFDE00"/>
<path d="M13.5346 13.1922L12.2746 11.2435L14.4518 12.0465L12.1786 12.7333L13.7073 10.8238L13.5346 13.1922Z" fill="#FFDE00"/>
</g>
</g>
<defs>
<filter id="filter0_d_1126:12900" x="0" y="0" width="26.2876" height="26.2871" filterUnits="userSpaceOnUse" color-interpolation-filters="sRGB">
<feFlood flood-opacity="0" result="BackgroundImageFix"/>
<feColorMatrix in="SourceAlpha" type="matrix" values="0 0 0 0 0 0 0 0 0 0 0 0 0 0 0 0 0 0 127 0" result="hardAlpha"/>
<feOffset/>
<feGaussianBlur stdDeviation="0.5"/>
<feComposite in2="hardAlpha" operator="out"/>
<feColorMatrix type="matrix" values="0 0 0 0 0 0 0 0 0 0 0 0 0 0 0 0 0 0 0.25 0"/>
<feBlend mode="normal" in2="BackgroundImageFix" result="effect1_dropShadow_1126:12900"/>
<feBlend mode="normal" in="SourceGraphic" in2="effect1_dropShadow_1126:12900" result="shape"/>
</filter>
</defs>
</svg>
