<svg width="27" height="27" viewBox="0 0 27 27" fill="none" xmlns="http://www.w3.org/2000/svg">
<g filter="url(#filter0_d_1126:12923)">
<mask id="mask0_1126:12923" style="mask-type:alpha" maskUnits="userSpaceOnUse" x="1" y="1" width="25" height="25">
<circle cx="13.1437" cy="13.1437" r="11.6437" fill="#C4C4C4" stroke="black"/>
</mask>
<g mask="url(#mask0_1126:12923)">
<path d="M-3.16406 17.3076H29.4504V25.4612H-3.16406V17.3076Z" fill="black"/>
<path d="M-3.16406 9.15332H29.4504V17.3069H-3.16406V9.15332Z" fill="white"/>
<path d="M-3.16357 1H29.4509V9.15362H-3.16357V1Z" fill="#CE1126"/>
<path d="M13.1742 13.3284L15.9669 15.9212L15.7671 11.2125C15.7386 10.499 15.1189 10.6621 14.6664 10.919C14.2138 11.2125 13.6879 11.2125 13.1416 11.0209C12.5913 11.2125 12.0694 11.2125 11.6169 10.919C11.1685 10.6621 10.5447 10.499 10.5162 11.2125L10.3164 15.9212L13.1742 13.3284Z" fill="white" stroke="#C09300" stroke-width="1.04" stroke-linejoin="round"/>
<path d="M10.8382 11.0488L10.6426 15.6271L10.3164 15.9206L10.5162 11.2119C10.6125 11.138 10.7217 11.0827 10.8382 11.0488ZM11.2296 11.375L11.0665 15.2072L10.7404 15.5415L10.9361 11.1181C11.0013 11.1834 11.1929 11.3424 11.2296 11.375ZM11.5843 11.6685L11.4579 14.8647L11.1929 15.1216L11.356 11.4769C11.4212 11.538 11.5517 11.6318 11.5843 11.6685ZM11.9716 11.8316L11.8452 14.5549L11.5884 14.7628L11.7148 11.7337C11.78 11.7623 11.9064 11.8316 11.9716 11.8316ZM12.3304 11.8316L12.2366 14.1024L11.9716 14.3592L12.0735 11.8601C12.1347 11.8601 12.3018 11.8601 12.3304 11.8316Z" fill="#C09300"/>
<path d="M13.2719 13.8418L13.6633 15.6274L13.5328 15.7579L13.3983 15.656L13.1782 14.066L13.2719 15.656L13.1415 15.819L13.0151 15.656L13.1088 14.066L12.8846 15.656L12.7501 15.7579L12.6196 15.6274L13.011 13.8459H13.2719V13.8418Z" fill="#C09300" stroke="#C09300" stroke-width="0.88"/>
<path d="M12.265 13.0596L11.4863 15.8196L12.5585 15.9826L13.0111 13.9075L12.265 13.0596Z" fill="white" stroke="#C09300" stroke-width="0.96" stroke-linejoin="round"/>
<path d="M12.0083 14.0053L12.1022 14.2298L12.6085 13.748" stroke="#C09300" stroke-width="1.04" stroke-linejoin="round"/>
<path d="M12.6568 15.6269L12.5427 15.0888L12.4448 14.5425L12.2043 14.8646L12.1024 14.4936L11.7681 14.836L11.9352 15.4557L12.1717 15.0725L12.2981 15.4638L12.5427 15.0888M12.3592 13.4336L12.4652 14.4243L12.7873 14.0003L12.3592 13.4336ZM12.6568 14.1633L12.8321 14.7749L12.6568 14.1633ZM12.9014 14.5506L12.5467 15.0888L12.9014 14.5506Z" stroke="#C09300" stroke-width="1.04" stroke-linejoin="round"/>
<path d="M11.7144 15.7593L11.9307 15.4531L12.0696 15.9226L12.2655 15.596L12.3921 15.988" stroke="#C09300" stroke-width="1.04" stroke-linejoin="round"/>
<path d="M13.1418 17.054C13.9571 17.054 14.7317 16.9888 15.1883 16.8624C15.3799 16.8257 15.3799 16.7278 15.3799 16.5974C15.5756 16.5322 15.4778 16.3039 15.6123 16.3039C15.4737 16.3446 15.4492 16.0796 15.2862 16.1122C15.2862 15.8839 15.0538 15.8554 14.8622 15.9206C14.4749 16.047 13.79 16.0796 13.1418 16.0796C12.4895 16.047 11.8127 16.047 11.4214 15.9166C11.2297 15.8554 11.0014 15.8839 11.0014 16.1122C10.8384 16.0796 10.8098 16.3405 10.6753 16.3039C10.8098 16.3039 10.7079 16.5362 10.9036 16.5974C10.9036 16.7278 10.9036 16.8257 11.0993 16.8624C11.5477 16.9888 12.3305 17.054 13.1418 17.054Z" fill="white" stroke="#C09300" stroke-width="1.92" stroke-linecap="round" stroke-linejoin="round"/>
<path d="M12.0359 15.8186C12.2968 15.8553 12.5904 15.8838 12.8187 15.8553C12.9491 15.8553 13.0429 16.0795 12.782 16.1121C12.5578 16.1406 12.199 16.1121 12.0074 16.0795C11.7552 16.0354 11.505 15.981 11.2573 15.9164C11.029 15.8186 11.192 15.631 11.3225 15.6555C11.5552 15.7301 11.7939 15.7846 12.0359 15.8186ZM14.2456 15.8186C13.9846 15.8553 13.6911 15.8838 13.471 15.8553C13.3323 15.8553 13.2386 16.0795 13.4995 16.1121C13.7278 16.1406 14.0825 16.1121 14.2741 16.0795C14.4372 16.0469 14.7959 15.9857 15.0242 15.9164C15.2525 15.8186 15.0895 15.631 14.959 15.6555C14.7263 15.7301 14.4876 15.7846 14.2456 15.8186Z" fill="white" stroke="#C09300" stroke-width="1.04" stroke-linecap="round" stroke-linejoin="round"/>
<path d="M11.2256 15.6924C11.0299 15.6557 10.9403 15.884 11.0014 16.0145C11.0299 15.9493 11.1645 15.9493 11.193 15.884C11.2297 15.7862 11.1645 15.7862 11.2297 15.6924H11.2256ZM12.0084 16.2917C12.0084 16.1613 12.1348 16.1776 12.1348 16.0471C12.1348 15.9859 12.1021 15.884 12.0369 15.884C12.003 15.886 11.9709 15.9003 11.9468 15.9244C11.9228 15.9485 11.9084 15.9805 11.9065 16.0145C11.8779 16.1409 12.0084 16.1613 12.0084 16.2917ZM12.9338 15.9207C13.1254 15.9207 13.105 16.1776 13.0154 16.308C13.0154 16.2142 12.8523 16.1776 12.8523 16.1123C12.8523 16.0145 12.999 16.0145 12.9338 15.9207ZM15.0538 15.6924C15.2535 15.6557 15.3473 15.884 15.2821 16.0145C15.2535 15.9493 15.119 15.9493 15.0905 15.884C15.0538 15.7862 15.119 15.7862 15.0538 15.6924ZM14.2832 16.2876C14.2832 16.1572 14.1528 16.1735 14.1528 16.043C14.1528 15.9819 14.1854 15.88 14.2506 15.88C14.2846 15.8819 14.3167 15.8963 14.3407 15.9203C14.3648 15.9444 14.3791 15.9764 14.3811 16.0104C14.4096 16.1368 14.2792 16.1572 14.2792 16.2876H14.2832ZM13.3456 15.9207C13.154 15.9207 13.1744 16.1776 13.264 16.308C13.264 16.2142 13.4271 16.1776 13.4271 16.1123C13.4271 16.0145 13.2803 16.0145 13.3456 15.9207Z" fill="white" stroke="#C09300" stroke-width="1.04" stroke-linecap="round" stroke-linejoin="round"/>
<path d="M11.2939 15.7568C11.3592 15.7568 11.457 15.7854 11.4856 15.8221L11.2939 15.7568ZM11.616 15.8547C11.6486 15.8547 11.7791 15.8832 11.8402 15.9199L11.616 15.8547ZM12.782 15.9851C12.7208 15.9851 12.5904 15.9851 12.5578 16.0137L12.782 15.9811V15.9851ZM12.4273 15.9851C12.3906 15.9484 12.2642 15.9484 12.199 15.9851H12.4273ZM14.9875 15.7568C14.9184 15.7577 14.8513 15.7806 14.7959 15.8221L14.9875 15.7568ZM14.6695 15.8547C14.6288 15.8547 14.5065 15.8832 14.4412 15.9199L14.6695 15.8547ZM13.4995 15.9851C13.5607 15.9851 13.6911 15.9851 13.7278 16.0137L13.4995 15.9811V15.9851ZM13.8542 15.9851C13.8909 15.9484 14.0173 15.9484 14.0825 15.9851H13.8542Z" fill="white" stroke="#C09300" stroke-width="0.72" stroke-linecap="round" stroke-linejoin="round"/>
<path d="M11.238 16.2712C11.2176 16.2671 11.2053 16.2467 11.2135 16.2304C11.2176 16.2019 11.238 16.1896 11.2543 16.1978C11.2706 16.1978 11.291 16.2223 11.291 16.2304L11.2746 16.2589L11.2665 16.263C11.2665 16.2712 11.2502 16.2712 11.238 16.2712ZM13.4802 16.4302C13.472 16.4302 13.4557 16.4098 13.4557 16.4016C13.4557 16.3853 13.4802 16.3609 13.4965 16.3609L13.5291 16.3772C13.5414 16.3894 13.5414 16.4139 13.525 16.4261C13.5169 16.4342 13.4924 16.4342 13.4802 16.4261V16.4302ZM13.4924 16.5321C13.4761 16.5239 13.472 16.5158 13.468 16.4995C13.468 16.4791 13.468 16.475 13.4884 16.4628L13.5047 16.4546L13.521 16.4628C13.5373 16.4709 13.5495 16.4791 13.5495 16.4954C13.5495 16.5076 13.5373 16.5199 13.521 16.528C13.5087 16.5362 13.5047 16.5362 13.4924 16.528V16.5321Z" fill="#C09300"/>
<path d="M11.4209 16.084C11.4046 16.084 11.3842 16.1003 11.372 16.1084C11.3475 16.1125 11.3149 16.1288 11.2905 16.1084C11.266 16.1044 11.2334 16.1084 11.2293 16.1411C11.2334 16.1696 11.2701 16.1818 11.2945 16.1655C11.3109 16.1451 11.3557 16.1288 11.3638 16.1655C11.3435 16.1981 11.3475 16.2348 11.3312 16.2634C11.3312 16.2837 11.319 16.3001 11.3109 16.3164C11.2905 16.3164 11.2701 16.3164 11.2538 16.3286C11.2411 16.3286 11.2286 16.3315 11.2173 16.3372C11.206 16.3429 11.1961 16.3511 11.1885 16.3612C11.1722 16.3857 11.1559 16.4101 11.1519 16.4427C11.1559 16.4672 11.1926 16.4754 11.2171 16.4794L11.2986 16.5039L11.4291 16.5406C11.4943 16.561 11.5595 16.5691 11.6248 16.5854L11.6451 16.5895C11.6737 16.5977 11.6859 16.5691 11.6859 16.5487L11.7267 16.402C11.7348 16.3816 11.7471 16.3408 11.7104 16.349C11.69 16.3612 11.6696 16.3816 11.6451 16.3816C11.6085 16.3816 11.6288 16.4224 11.6451 16.4346C11.6451 16.4591 11.637 16.4876 11.6248 16.508C11.6003 16.5202 11.5758 16.508 11.5514 16.4998C11.531 16.4998 11.4821 16.4876 11.5025 16.4591L11.5228 16.3857C11.5351 16.3612 11.5351 16.3327 11.5432 16.3041C11.5269 16.2756 11.5025 16.3164 11.4821 16.3204C11.4658 16.3286 11.4168 16.3327 11.4413 16.3612C11.4658 16.3775 11.4495 16.4061 11.4413 16.4305C11.4413 16.4591 11.4087 16.4713 11.3842 16.4591C11.3598 16.4591 11.3231 16.4387 11.3435 16.4142L11.3638 16.3408L11.3924 16.2593C11.3924 16.2308 11.4046 16.2104 11.4168 16.1859C11.4168 16.1574 11.4372 16.1329 11.4372 16.1044C11.4372 16.0921 11.4291 16.0881 11.4209 16.0881V16.084ZM11.2701 16.3816C11.2719 16.3805 11.2741 16.38 11.2762 16.38C11.2783 16.38 11.2805 16.3805 11.2823 16.3816C11.2905 16.3897 11.2905 16.3979 11.2823 16.4061L11.2701 16.4142C11.2497 16.4142 11.2456 16.4101 11.2456 16.402C11.2456 16.3979 11.2456 16.3938 11.2579 16.3897C11.2628 16.3862 11.2683 16.3834 11.2742 16.3816H11.2701ZM11.2293 16.5854C11.2089 16.5691 11.213 16.5569 11.2415 16.5324C11.2579 16.5243 11.2619 16.5243 11.2782 16.5365C11.3027 16.5569 11.3027 16.5691 11.2782 16.5895C11.2701 16.5977 11.266 16.5977 11.2579 16.5977C11.2456 16.5977 11.2415 16.5977 11.2293 16.5895V16.5854ZM11.3516 16.6262C11.3425 16.6234 11.3349 16.6171 11.3303 16.6087C11.3257 16.6004 11.3246 16.5905 11.3272 16.5814C11.3353 16.5651 11.3394 16.561 11.3638 16.561C11.3924 16.561 11.3965 16.5651 11.4005 16.5895C11.4005 16.6058 11.4005 16.6099 11.3883 16.6181C11.3838 16.6217 11.3785 16.6242 11.3729 16.6256C11.3673 16.6271 11.3614 16.6272 11.3557 16.6262H11.3516ZM14.9881 16.6262C14.98 16.6221 14.9759 16.6181 14.9759 16.6058C14.9759 16.5895 14.9841 16.5773 15.0085 16.5691C15.033 16.5569 15.0493 16.5569 15.0574 16.5773C15.0697 16.6017 15.0697 16.6099 15.0534 16.6262C15.0452 16.6384 15.0411 16.6384 15.0207 16.6384C15.0004 16.6384 14.9963 16.6384 14.9881 16.6303V16.6262ZM11.5228 16.6751C11.5065 16.6751 11.4984 16.6588 11.4984 16.6425C11.4984 16.6303 11.4984 16.6262 11.5065 16.6181L11.531 16.6099L11.5555 16.614C11.5758 16.6303 11.5799 16.6466 11.5677 16.6629C11.5555 16.6792 11.5432 16.6792 11.5188 16.6751H11.5228ZM12.4116 16.7159L12.4034 16.7037C12.4034 16.6792 12.4034 16.6588 12.4116 16.6344C12.4157 16.614 12.4116 16.5936 12.4197 16.5732L12.436 16.4591C12.436 16.4387 12.436 16.4183 12.4442 16.402C12.4483 16.3694 12.4442 16.3408 12.4524 16.3123C12.4524 16.3001 12.4646 16.2715 12.4768 16.2878C12.4931 16.3123 12.5135 16.3286 12.5339 16.349C12.5502 16.3612 12.5339 16.3775 12.5217 16.3816C12.5054 16.3857 12.5013 16.4061 12.5013 16.4224L12.4931 16.4713C12.4931 16.4998 12.4931 16.5243 12.485 16.5528L12.4809 16.6262L12.4727 16.6751C12.4727 16.6914 12.4727 16.7118 12.4564 16.72C12.4442 16.7281 12.4238 16.7281 12.4157 16.7159H12.4116ZM13.6224 16.3164L13.5694 16.3653C13.5449 16.3857 13.5898 16.3938 13.5939 16.4101C13.602 16.4346 13.602 16.4591 13.602 16.4835C13.6102 16.508 13.6142 16.5284 13.6102 16.5528C13.6102 16.5814 13.5776 16.5732 13.5612 16.5895C13.5409 16.5977 13.5327 16.6181 13.5205 16.6303C13.5108 16.6507 13.5052 16.6729 13.5042 16.6955C13.5042 16.7159 13.4919 16.7363 13.5042 16.7526L13.5082 16.7607H13.5286L13.5898 16.7567C13.6387 16.7485 13.6917 16.7485 13.7406 16.7444L13.8303 16.7363C13.8548 16.7404 13.867 16.7159 13.867 16.6955C13.8507 16.667 13.8629 16.6384 13.8507 16.614C13.8425 16.5814 13.8466 16.5528 13.8425 16.5243C13.8425 16.4998 13.814 16.4917 13.8018 16.508C13.7855 16.5243 13.761 16.5284 13.7529 16.5447C13.7406 16.5691 13.7773 16.5691 13.7855 16.5854L13.7895 16.6466C13.7936 16.671 13.7692 16.6711 13.7488 16.6751C13.7284 16.6833 13.6999 16.6874 13.6876 16.6629C13.6795 16.6425 13.6795 16.6221 13.6795 16.6017C13.6795 16.561 13.6672 16.5284 13.6672 16.4917C13.6672 16.4509 13.655 16.4061 13.655 16.3612C13.655 16.3408 13.6509 16.3123 13.6224 16.3164ZM13.5979 16.6507H13.6102V16.6833L13.5979 16.6874C13.5926 16.6891 13.5871 16.6904 13.5816 16.6914C13.5789 16.6915 13.5762 16.6915 13.5735 16.6914C13.5653 16.6833 13.5653 16.6711 13.5776 16.6588L13.5979 16.6507ZM12.3749 16.2756C12.3627 16.2756 12.3423 16.3041 12.326 16.3001C12.2893 16.3041 12.2934 16.3408 12.3219 16.3531V16.3857C12.326 16.4183 12.3056 16.4468 12.3097 16.4794C12.3097 16.5121 12.2974 16.5487 12.2974 16.5854C12.2852 16.6221 12.2852 16.6588 12.2811 16.6955C12.2771 16.7281 12.2526 16.7159 12.2322 16.7077V16.667C12.2363 16.6303 12.2118 16.6221 12.1833 16.6181C12.1547 16.6181 12.1425 16.5977 12.1507 16.5732C12.1629 16.5569 12.1914 16.561 12.2118 16.561C12.2526 16.5691 12.2485 16.5161 12.2281 16.4957C12.2118 16.4713 12.1792 16.455 12.1711 16.4305C12.1711 16.3979 12.1507 16.3612 12.1221 16.3449C12.0773 16.3408 12.0406 16.3775 12.0284 16.4183C12.008 16.4183 11.9876 16.4264 11.9713 16.4346C11.9428 16.4427 11.902 16.4917 11.9428 16.5121C11.9631 16.5161 12.0324 16.5324 11.9998 16.561C11.9835 16.5936 11.9509 16.5936 11.9224 16.5854C11.8938 16.5854 11.8612 16.5691 11.8612 16.5365C11.8571 16.5039 11.8571 16.4713 11.8449 16.4427C11.8368 16.4101 11.8001 16.4183 11.796 16.4509C11.7675 16.4713 11.7715 16.508 11.7919 16.5324C11.8041 16.561 11.7919 16.5977 11.7797 16.6221C11.7715 16.6629 11.7308 16.6629 11.7022 16.671C11.69 16.6792 11.637 16.6711 11.6574 16.6996C11.688 16.7137 11.7221 16.7179 11.7552 16.7118C11.7878 16.7118 11.8164 16.6833 11.8368 16.6547C11.8571 16.6344 11.8938 16.6466 11.9264 16.6466C11.955 16.6466 11.9876 16.667 12.0202 16.6507C12.0284 16.6303 12.0691 16.5895 12.0814 16.6303C12.0814 16.667 12.1099 16.6833 12.1425 16.6792C12.1792 16.6792 12.1629 16.7037 12.1629 16.7281C12.1629 16.7648 12.1914 16.7852 12.2241 16.8015H12.2567C12.2852 16.7893 12.3178 16.777 12.3301 16.7444C12.3423 16.7159 12.3423 16.6833 12.3504 16.6547C12.3586 16.6099 12.3667 16.561 12.3667 16.5161C12.379 16.4754 12.3749 16.4305 12.3831 16.3857L12.3953 16.2919C12.3953 16.2715 12.3871 16.2715 12.3749 16.2756ZM12.1018 16.4427C12.1058 16.4427 12.1099 16.4509 12.1099 16.4631C12.1099 16.4794 12.1181 16.4917 12.1303 16.4957V16.508L12.0977 16.5161C12.0773 16.5161 12.061 16.508 12.0488 16.4957L12.0406 16.4876L12.0528 16.4794L12.0732 16.4591C12.0854 16.4468 12.0936 16.4427 12.1018 16.4427ZM14.7924 16.1207C14.769 16.1224 14.7458 16.1265 14.7231 16.1329C14.6824 16.1329 14.662 16.1737 14.7028 16.1981C14.7272 16.2593 14.7639 16.1818 14.8047 16.19C14.8617 16.1981 14.8658 16.2634 14.8781 16.3123C14.8781 16.3571 14.8944 16.402 14.9066 16.4468C14.9474 16.4917 14.8781 16.5202 14.8495 16.4876C14.8251 16.4591 14.768 16.4264 14.7394 16.4631C14.7028 16.4794 14.6987 16.5284 14.6701 16.5447C14.6212 16.5569 14.6171 16.4957 14.5886 16.4713C14.5641 16.4346 14.5193 16.4305 14.4826 16.4224C14.4663 16.3857 14.4745 16.3245 14.4418 16.3001C14.4092 16.3123 14.3521 16.3694 14.4011 16.3979C14.4418 16.4387 14.3807 16.455 14.3603 16.4794C14.3277 16.5161 14.3195 16.561 14.3195 16.6017C14.2665 16.6303 14.2584 16.5691 14.2502 16.5324C14.2502 16.4876 14.2095 16.4998 14.1809 16.5161C14.1402 16.5324 14.1238 16.5691 14.0994 16.5977V16.6792C14.1075 16.7159 14.1483 16.6996 14.1728 16.6955C14.2135 16.6792 14.2298 16.724 14.1972 16.7485C14.1728 16.773 14.1075 16.7607 14.1157 16.8056H14.1809C14.2217 16.7934 14.2706 16.7607 14.2747 16.7118C14.2828 16.671 14.344 16.6751 14.3766 16.667C14.4174 16.6547 14.4704 16.6507 14.4826 16.7077C14.5111 16.7363 14.5723 16.7689 14.6049 16.7281C14.6204 16.7183 14.6329 16.7043 14.6408 16.6877C14.6487 16.6711 14.6518 16.6526 14.6498 16.6344C14.6457 16.6017 14.7028 16.6017 14.7191 16.6221C14.7394 16.6547 14.8047 16.6466 14.8373 16.6221C14.8699 16.6017 14.8781 16.5569 14.927 16.5569L15.1471 16.4957C15.2042 16.4835 15.139 16.4468 15.1227 16.4224C15.0819 16.402 15.0411 16.4917 14.9922 16.4468C14.9514 16.4183 14.9555 16.3653 14.9433 16.3204C14.9311 16.2634 14.9351 16.1981 14.8944 16.1574C14.8699 16.1288 14.8291 16.1207 14.7924 16.1207ZM14.5152 16.508C14.5193 16.508 14.5275 16.508 14.5356 16.5161C14.5519 16.5243 14.5641 16.5406 14.5641 16.5569C14.5641 16.5651 14.5641 16.5651 14.5519 16.5691L14.5315 16.5773C14.5234 16.5773 14.503 16.5651 14.503 16.5569V16.5406C14.4948 16.5243 14.4948 16.5243 14.503 16.5161L14.5152 16.508ZM14.7802 16.5243C14.7965 16.5243 14.8047 16.5243 14.8128 16.5365C14.8169 16.5528 14.8128 16.561 14.7965 16.5691L14.7761 16.5773L14.7598 16.5651C14.7517 16.561 14.7476 16.5569 14.7476 16.5487C14.7476 16.5365 14.7639 16.5243 14.7802 16.5202V16.5243ZM14.4133 16.5243C14.4215 16.5243 14.4255 16.5243 14.4296 16.5324C14.4378 16.5406 14.4418 16.5447 14.4418 16.5569V16.5814C14.4418 16.5936 14.4418 16.5895 14.4174 16.5895C14.3929 16.5895 14.3888 16.5895 14.3888 16.5651C14.3888 16.5487 14.3888 16.5447 14.4011 16.5365C14.4051 16.5284 14.4133 16.5284 14.4174 16.5284L14.4133 16.5243ZM14.1932 16.5854C14.197 16.5866 14.2005 16.5887 14.2033 16.5915C14.2062 16.5944 14.2083 16.5979 14.2095 16.6017C14.2095 16.614 14.2095 16.6221 14.2013 16.6262C14.1891 16.6303 14.1687 16.6344 14.1605 16.6262C14.1604 16.6248 14.1604 16.6235 14.1605 16.6221C14.1524 16.6181 14.1524 16.614 14.1605 16.6099V16.6058L14.1687 16.5936C14.1712 16.5896 14.175 16.5866 14.1795 16.5852C14.1839 16.5837 14.1888 16.5838 14.1932 16.5854ZM14.5682 16.6344L14.5886 16.6384V16.6629H14.5397L14.5356 16.6547C14.5356 16.6466 14.5356 16.6425 14.5438 16.6384L14.5682 16.6344ZM13.8711 16.83C13.867 16.83 13.8589 16.826 13.867 16.8219C13.8711 16.8097 13.8874 16.8056 13.8996 16.7974C13.9218 16.789 13.9415 16.7749 13.9567 16.7567C13.9567 16.7404 13.973 16.7322 13.973 16.7159L13.9689 16.6588C13.9634 16.6417 13.9518 16.6272 13.9363 16.6181C13.9241 16.614 13.9078 16.6099 13.9037 16.5936C13.9037 16.5814 13.9159 16.5691 13.92 16.5569L13.9445 16.508C13.9567 16.4957 13.973 16.508 13.9771 16.5161L13.9975 16.5569C14.0097 16.5691 14.0179 16.5814 14.0219 16.5977C14.0301 16.614 14.0382 16.6262 14.0382 16.6384L14.0464 16.6914C14.0464 16.7118 14.0464 16.7363 14.0382 16.7567L14.0138 16.7893C14.0015 16.8015 13.9893 16.8137 13.973 16.8178C13.9608 16.8219 13.9526 16.8341 13.9363 16.8341H13.8752L13.8711 16.83ZM13.5898 16.8464C13.5816 16.8382 13.5776 16.8341 13.5776 16.8219C13.5776 16.8097 13.5776 16.8097 13.5898 16.7974C13.6061 16.7811 13.6142 16.7811 13.6469 16.7974C13.6754 16.8137 13.6876 16.8137 13.6876 16.8015C13.6917 16.7934 13.708 16.7811 13.7284 16.7811C13.7359 16.7814 13.7431 16.7843 13.7488 16.7893C13.7569 16.7974 13.761 16.8015 13.761 16.8178C13.761 16.8382 13.761 16.8382 13.7488 16.8504C13.7366 16.8586 13.7366 16.8586 13.7202 16.8586C13.713 16.8582 13.706 16.8557 13.7002 16.8513C13.6944 16.8469 13.69 16.841 13.6876 16.8341C13.6876 16.826 13.6876 16.8219 13.6795 16.83L13.6713 16.8341C13.6632 16.8341 13.6469 16.8464 13.6387 16.8545L13.6183 16.8586C13.602 16.8586 13.602 16.8586 13.5898 16.8464ZM12.7826 16.4835C12.754 16.4835 12.7255 16.508 12.7214 16.5365C12.7296 16.5651 12.754 16.5977 12.7377 16.6262C12.75 16.667 12.7051 16.6833 12.6766 16.6629C12.6603 16.6221 12.6521 16.5814 12.6236 16.5406C12.591 16.5324 12.5787 16.5854 12.5543 16.6058C12.5665 16.6344 12.5991 16.6629 12.6032 16.6996C12.6114 16.7404 12.5869 16.7811 12.5584 16.7974C12.5298 16.826 12.489 16.8178 12.4564 16.8219C12.4157 16.8464 12.485 16.8545 12.5054 16.8545C12.5461 16.8586 12.591 16.8545 12.6277 16.8219C12.6562 16.8097 12.6521 16.7526 12.6888 16.7485L12.8845 16.7607C12.9171 16.7689 12.9701 16.7567 12.9946 16.7811C12.9946 16.8219 13.0353 16.8545 13.072 16.8708C13.0924 16.879 13.1128 16.8504 13.1332 16.8464C13.174 16.8341 13.1617 16.7852 13.1862 16.7648H13.39C13.3982 16.7648 13.4023 16.7444 13.4145 16.7363L13.4063 16.6588C13.3941 16.6262 13.4063 16.5854 13.3859 16.5569C13.3493 16.5487 13.3207 16.5773 13.2881 16.5814C13.2473 16.5977 13.2188 16.6344 13.2147 16.6751C13.1943 16.7118 13.1576 16.667 13.174 16.6344L13.1699 16.5936C13.1495 16.5732 13.1128 16.5814 13.0843 16.5773L12.962 16.5691C12.9212 16.5691 12.8845 16.5732 12.8519 16.5651C12.8111 16.5651 12.8111 16.5243 12.8111 16.4917C12.803 16.4855 12.7928 16.4826 12.7826 16.4835ZM12.8641 16.6344L12.9049 16.6384H12.9579C12.9986 16.6466 13.0394 16.6466 13.0802 16.6466C13.0883 16.6466 13.0965 16.6547 13.1046 16.6629V16.7444C13.1046 16.7567 13.1046 16.773 13.0965 16.777C13.0944 16.7803 13.0916 16.7831 13.0883 16.7852C13.0824 16.7841 13.0767 16.7818 13.0718 16.7782C13.0668 16.7747 13.0627 16.7701 13.0598 16.7648V16.7077C13.0517 16.7009 13.0418 16.6966 13.0313 16.6955L12.9253 16.6914L12.8437 16.6874C12.8315 16.6833 12.8152 16.6874 12.807 16.671C12.7989 16.6629 12.8111 16.6466 12.8233 16.6425C12.8362 16.6368 12.8501 16.634 12.8641 16.6344ZM13.3248 16.6466C13.3289 16.6466 13.3329 16.6466 13.3329 16.6588L13.3411 16.6792C13.3411 16.6833 13.3411 16.6874 13.3329 16.6874C13.3126 16.6955 13.2922 16.6955 13.284 16.6874C13.284 16.6833 13.284 16.667 13.2922 16.6629L13.3248 16.6466Z" fill="#C09300"/>
<path d="M13.1404 14.339C14.4695 13.3198 14.3553 11.8195 14.3553 11.8195L14.2534 11.8277C13.9721 11.8277 13.3076 11.6646 13.1527 11.4648C12.9896 11.6483 12.3047 11.8318 12.0275 11.8318L11.9255 11.8195C11.9255 11.8195 11.8073 13.3157 13.1404 14.339Z" fill="white" stroke="#C09300" stroke-width="0.88"/>
<path d="M14.25 11.9256H14.2174C13.9646 11.9256 13.3776 11.7992 13.1493 11.6035C12.9128 11.7829 12.3135 11.9297 12.0648 11.9297C12.0539 11.9292 12.043 11.9279 12.0322 11.9256C12.0345 12.1832 12.0701 12.4395 12.1382 12.6879C12.3017 13.2866 12.6533 13.8168 13.1411 14.2004C13.6292 13.8154 13.9808 13.2838 14.144 12.6839C14.2118 12.4367 14.2474 12.1819 14.25 11.9256Z" fill="white" stroke="#C09300" stroke-width="0.72"/>
<path d="M12.709 11.8039C12.49 11.8752 12.2623 11.9163 12.0322 11.9262L12.0363 12.0933C12.0502 12.2933 12.0844 12.4914 12.1382 12.6845C12.2478 13.0854 12.4425 13.4581 12.709 13.7771V11.8039ZM13.5488 11.8039V13.8097C13.8281 13.4833 14.0314 13.099 14.144 12.6845C14.1978 12.4914 14.232 12.2933 14.2459 12.0933L14.25 11.9303H14.2174C14.0625 11.9303 13.7934 11.8813 13.5488 11.7998V11.8039Z" fill="#C09300"/>
<path d="M13.6428 11.3144C13.6713 11.3185 13.6061 11.1717 13.6061 11.1717C13.6795 11.2451 13.9486 11.2655 13.9486 11.2655C13.7855 11.1921 13.6224 10.6499 13.6428 10.2137C13.6591 9.78152 13.5817 9.61029 13.5205 9.54506C13.439 9.46353 13.174 9.39015 13.0028 9.38199C12.9008 9.37791 12.9212 9.45537 12.9212 9.45537C12.7378 9.41053 12.5543 9.39014 12.4728 9.44722C12.3994 9.49614 12.3831 9.75298 12.4402 9.70814C12.5747 9.59806 12.6929 9.69998 12.7745 9.81821C12.8478 9.92013 12.8438 10.2137 12.7378 10.5602C12.6439 10.8222 12.506 11.0662 12.3301 11.2818C12.4932 11.2818 12.7215 11.1391 12.7215 11.1391L12.6685 11.3633C12.8397 11.2818 12.9742 11.1554 12.9742 11.1554L13.1373 11.3266C13.1903 11.2532 13.3004 11.1554 13.3004 11.1554C13.3004 11.1554 13.4349 11.2981 13.6428 11.3185V11.3144Z" fill="white" stroke="#C09300" stroke-width="0.96"/>
<path d="M13.4188 10.324C13.4188 10.324 13.4514 10.9478 13.6063 11.172M12.9826 10.2792C12.9826 10.2792 12.8929 10.9478 12.7217 11.1353L12.9826 10.2792ZM13.1294 10.2588C13.1294 10.2588 13.0886 10.9396 12.9744 11.1557L13.1294 10.2588ZM13.2557 10.2873C13.2557 10.2873 13.2557 11.0293 13.2965 11.1557L13.2557 10.2873Z" stroke="#C09300" stroke-width="1.04"/>
<path d="M12.8165 9.95365C12.8129 9.90631 12.7989 9.86033 12.7757 9.81892C12.694 9.69644 12.5756 9.59846 12.4409 9.70869C12.4409 9.70869 12.4858 9.56579 12.5879 9.56171C12.6614 9.55763 12.8369 9.61887 12.9921 9.88016C12.9921 9.88016 12.8778 9.85567 12.8492 9.88016C12.8002 9.92099 12.8206 9.95365 12.8206 9.95365H12.8165Z" fill="#C09300" stroke="#C09300" stroke-width="0.24"/>
<path d="M12.4248 9.53283C12.437 9.49207 12.4533 9.45945 12.4778 9.44722C12.5593 9.39014 12.7387 9.40645 12.9222 9.45537C12.9222 9.45537 12.9059 9.37791 13.0037 9.38199C13.1749 9.39015 13.4359 9.46353 13.5174 9.54506C13.5435 9.57373 13.5642 9.60688 13.5785 9.64291C13.5378 9.58583 13.4236 9.58991 13.3951 9.59399C13.3543 9.59806 13.3258 9.59399 13.2687 9.61029C13.2402 9.61845 13.1994 9.6266 13.1749 9.64291C13.1586 9.65922 13.1423 9.70814 13.1179 9.70814C13.0771 9.70814 13.0771 9.69998 13.0649 9.68775C13.0526 9.66737 13.0445 9.64291 13.0282 9.64699C12.9874 9.65106 12.914 9.61845 12.8243 9.54506C12.7306 9.47168 12.6939 9.45537 12.5797 9.46353C12.4574 9.47168 12.4248 9.54099 12.4248 9.54099V9.53283Z" fill="#C09300" stroke="#C09300" stroke-width="0.24"/>
<path d="M13.0942 9.64054C13.1214 9.64054 13.1435 9.61848 13.1435 9.59127C13.1435 9.56405 13.1214 9.54199 13.0942 9.54199C13.067 9.54199 13.0449 9.56405 13.0449 9.59127C13.0449 9.61848 13.067 9.64054 13.0942 9.64054Z" fill="white"/>
</g>
</g>
<defs>
<filter id="filter0_d_1126:12923" x="0" y="0" width="26.2876" height="26.2871" filterUnits="userSpaceOnUse" color-interpolation-filters="sRGB">
<feFlood flood-opacity="0" result="BackgroundImageFix"/>
<feColorMatrix in="SourceAlpha" type="matrix" values="0 0 0 0 0 0 0 0 0 0 0 0 0 0 0 0 0 0 127 0" result="hardAlpha"/>
<feOffset/>
<feGaussianBlur stdDeviation="0.5"/>
<feComposite in2="hardAlpha" operator="out"/>
<feColorMatrix type="matrix" values="0 0 0 0 0 0 0 0 0 0 0 0 0 0 0 0 0 0 0.25 0"/>
<feBlend mode="normal" in2="BackgroundImageFix" result="effect1_dropShadow_1126:12923"/>
<feBlend mode="normal" in="SourceGraphic" in2="effect1_dropShadow_1126:12923" result="shape"/>
</filter>
</defs>
</svg>
