<svg width="27" height="27" viewBox="0 0 27 27" fill="none" xmlns="http://www.w3.org/2000/svg">
<g filter="url(#filter0_d_1126:12912)">
<mask id="mask0_1126:12912" style="mask-type:alpha" maskUnits="userSpaceOnUse" x="1" y="1" width="25" height="25">
<circle cx="13.1437" cy="13.1437" r="11.6437" fill="#C4C4C4" stroke="black"/>
</mask>
<g mask="url(#mask0_1126:12912)">
<path fill-rule="evenodd" clip-rule="evenodd" d="M-4.55029 -1.08203H45.5511V0.947158H-4.55029V-1.08203ZM-4.55029 2.97635H45.5511V5.00554H-4.55029V2.97635ZM-4.55029 7.02958H45.5511V9.06391H-4.55029V7.02958ZM-4.55029 11.088H45.5511V13.1171H-4.55029V11.088ZM-4.55029 15.1463H45.5511V17.1755H-4.55029V15.1463ZM-4.55029 19.1996H45.5511V21.2287H-4.55029V19.1996ZM-4.55029 23.2579H45.5511V25.2871H-4.55029V23.2579Z" fill="#BD3D44"/>
<path fill-rule="evenodd" clip-rule="evenodd" d="M-4.55078 0.946289H45.5506V2.97548H-4.55078V0.946289ZM-4.55078 5.00467H45.5506V7.02871H-4.55078V5.00467ZM-4.55078 9.05789H45.5506V11.0871H-4.55078V9.05789ZM-4.55078 13.1163H45.5506V15.1455H-4.55078V13.1163ZM-4.55078 17.1747H45.5506V19.2038H-4.55078V17.1747ZM-4.55078 21.2279H45.5506V23.2571H-4.55078V21.2279Z" fill="white"/>
<path fill-rule="evenodd" clip-rule="evenodd" d="M-4.55029 -1.08203H15.4892V13.1171H-4.55029V-1.08203Z" fill="#192F5D"/>
<path fill-rule="evenodd" clip-rule="evenodd" d="M-2.88225 -0.474609L-2.69684 0.0867651H-2.10972L-2.58354 0.43183L-2.40328 0.998355L-2.88225 0.648139L-3.35607 0.993204L-3.17581 0.43183L-3.65479 0.0867651H-3.05736L-2.88225 -0.474609ZM0.460246 -0.474609L0.640504 0.0867651H1.23278L0.753808 0.43183L0.934067 0.998355L0.460246 0.648139L-0.0187254 0.993204L0.161533 0.43183L-0.312288 0.0867651H0.274837L0.460246 -0.474609ZM3.79759 -0.474609L3.983 0.0867651H4.56498L4.09116 0.43183L4.27141 0.998355L3.79244 0.648139L3.31862 0.993204L3.49888 0.43183L3.01991 0.0867651H3.61218L3.79759 -0.474609ZM7.14009 -0.474609L7.32035 0.0867651H7.91262L7.43365 0.43183L7.61906 0.998355L7.14009 0.648139L6.66112 0.993204L6.84653 0.43183L6.36756 0.0867651H6.95468L7.14009 -0.474609ZM10.4774 -0.474609L10.6628 0.0867651H11.25L10.7761 0.43183L10.9564 0.998355L10.4774 0.648139L10.0036 0.993204L10.1839 0.43183L9.71005 0.0867651H10.2972L10.4774 -0.474609ZM13.8199 -0.474609L14.0002 0.0867651H14.5925L14.1135 0.43183L14.2989 0.998355L13.8199 0.648139L13.341 0.993204L13.5264 0.43183L13.0474 0.0867651H13.6397L13.8199 -0.474609ZM-1.20843 0.946853L-1.02817 1.50823H-0.435894L-0.914865 1.85329L-0.739757 2.41467L-1.20328 2.0696L-1.68225 2.41467L-1.51229 1.85329L-1.97581 1.50823H-1.38869L-1.20843 0.946853ZM2.12892 0.946853L2.31433 1.50823H2.90145L2.42248 1.85329L2.60789 2.41467L2.12892 2.0696L1.64995 2.41467L1.83536 1.85329L1.35639 1.50823H1.94866L2.12892 0.946853ZM5.47142 0.946853L5.65168 1.50823H6.24395L5.76498 1.85329L5.94524 2.41467L5.47142 2.0696L4.99245 2.41467L5.1727 1.85329L4.69888 1.50823H5.28601L5.47142 0.946853ZM8.80876 0.946853L8.99417 1.50823H9.5813L9.10233 1.85329L9.28773 2.41467L8.80876 2.0696L8.33494 2.41467L8.5152 1.85329L8.03623 1.50823H8.63366L8.80876 0.946853ZM12.1513 0.946853L12.3315 1.50823H12.9238L12.4448 1.85329L12.6251 2.41467L12.1513 2.0696L11.6723 2.41467L11.8525 1.85329L11.3787 1.50823H11.9659L12.1513 0.946853ZM-2.88225 2.36316L-2.69684 2.93484H-2.10972L-2.58354 3.2799L-2.40328 3.84128L-2.88225 3.49106L-3.35607 3.84128L-3.17581 3.27475L-3.65479 2.92969H-3.05736L-2.88225 2.36316ZM0.460246 2.36316L0.640504 2.92969H1.23278L0.753808 3.27475L0.934067 3.83613L0.460246 3.48591L-0.0187254 3.83613L0.161533 3.2696L-0.312288 2.92454H0.274837L0.460246 2.36316ZM3.79759 2.36316L3.983 2.92969H4.56498L4.09116 3.27475L4.27141 3.83613L3.79244 3.48591L3.31862 3.83613L3.49888 3.2696L3.01991 2.92454H3.61218L3.79759 2.36316ZM7.14009 2.36316L7.32035 2.92969H7.91262L7.43365 3.27475L7.61906 3.83613L7.14009 3.48591L6.66112 3.83613L6.84653 3.2696L6.36756 2.92454H6.95468L7.14009 2.36316ZM10.4774 2.36316L10.6628 2.92969H11.25L10.7761 3.27475L10.9564 3.83613L10.4774 3.48591L10.0036 3.83613L10.1839 3.2696L9.71005 2.92454H10.2972L10.4774 2.36316ZM13.8199 2.36316L14.0002 2.92969H14.5925L14.1135 3.27475L14.2989 3.83613L13.8199 3.48591L13.341 3.83613L13.5264 3.2696L13.0474 2.92454H13.6397L13.8199 2.36316ZM-1.20843 3.78463L-1.02817 4.346H-0.435894L-0.914865 4.69106L-0.734607 5.25759L-1.20843 4.90737L-1.6874 5.25244L-1.50714 4.69106L-1.98096 4.346H-1.39384L-1.20843 3.78463ZM2.12892 3.78463L2.31433 4.346H2.90145L2.42248 4.69106L2.60789 5.25759L2.12892 4.90737L1.64995 5.25244L1.83536 4.69106L1.35639 4.346H1.94866L2.12892 3.78463ZM5.47142 3.78463L5.65168 4.346H6.24395L5.76498 4.69106L5.94524 5.25759L5.47142 4.90737L4.99245 5.25244L5.1727 4.69106L4.69888 4.346H5.28601L5.47142 3.78463ZM8.80876 3.78463L8.99417 4.346H9.5813L9.10748 4.69106L9.28773 5.25759L8.80876 4.90737L8.33494 5.25244L8.5152 4.69106L8.03623 4.346H8.63366L8.80876 3.78463ZM12.1513 3.78463L12.3315 4.346H12.9238L12.4448 4.69106L12.6251 5.25759L12.1513 4.90737L11.6723 5.25244L11.8525 4.69106L11.3787 4.346H11.9659L12.1513 3.78463ZM-2.88225 5.20609L-2.69684 5.76746H-2.10972L-2.58354 6.11253L-2.40328 6.67905L-2.88225 6.32884L-3.35607 6.6739L-3.17581 6.11253L-3.65479 5.76746H-3.05736L-2.88225 5.20609ZM0.460246 5.20609L0.640504 5.76746H1.23278L0.753808 6.11253L0.934067 6.6739L0.460246 6.32884L-0.0187254 6.6739L0.161533 6.11253L-0.312288 5.76746H0.274837L0.460246 5.20609ZM3.79759 5.20609L3.983 5.76746H4.56498L4.09116 6.11253L4.27141 6.67905L3.79244 6.32884L3.31862 6.6739L3.49888 6.11253L3.01991 5.76746H3.61218L3.79759 5.20609ZM7.14009 5.20609L7.32035 5.76746H7.91262L7.43365 6.11253L7.61906 6.67905L7.14009 6.32884L6.66112 6.6739L6.84653 6.11253L6.36756 5.76746H6.95468L7.14009 5.20609ZM10.4774 5.20609L10.6628 5.76746H11.25L10.7761 6.11253L10.9564 6.67905L10.4774 6.32884L10.0036 6.6739L10.1839 6.11253L9.71005 5.76746H10.2972L10.4774 5.20609ZM13.8199 5.20609L14.0002 5.76746H14.5925L14.1135 6.11253L14.2989 6.67905L13.8199 6.32884L13.341 6.6739L13.5264 6.11253L13.0474 5.76746H13.6397L13.8199 5.20609ZM-1.20843 6.62755L-1.02817 7.18892H-0.435894L-0.914865 7.53399L-0.734607 8.09536L-1.20843 7.74515L-1.6874 8.09536L-1.50714 7.52884L-1.98096 7.18377H-1.39384L-1.20843 6.62755ZM2.12892 6.62755L2.31433 7.18892H2.90145L2.42248 7.53399L2.60789 8.09536L2.12892 7.74515L1.64995 8.09536L1.83536 7.52884L1.35639 7.18377H1.94866L2.12892 6.62755ZM5.47142 6.62755L5.65168 7.18892H6.24395L5.76498 7.53399L5.94524 8.09536L5.47142 7.74515L4.99245 8.09536L5.1727 7.52884L4.69888 7.18377H5.28601L5.47142 6.62755ZM8.80876 6.62755L8.99417 7.18892H9.5813L9.10748 7.53399L9.28773 8.09536L8.80876 7.74515L8.33494 8.09536L8.5152 7.52884L8.03623 7.18377H8.63366L8.80876 6.62755ZM12.1513 6.62755L12.3315 7.18892H12.9238L12.4448 7.53399L12.6251 8.09536L12.1513 7.74515L11.6723 8.09536L11.8525 7.52884L11.3787 7.18377H11.9659L12.1513 6.62755ZM-2.88225 8.04386L-2.69684 8.61038H-2.10972L-2.58354 8.95545L-2.40328 9.51167L-2.88225 9.16661L-3.35607 9.51167L-3.17581 8.9503L-3.65479 8.60524H-3.05736L-2.88225 8.04386ZM0.460246 8.04386L0.640504 8.61038H1.23278L0.753808 8.95545L0.939217 9.51167L0.460246 9.16661L-0.0187254 9.51167L0.166683 8.9503L-0.312288 8.60524H0.274837L0.460246 8.04386ZM3.79759 8.04386L3.983 8.61038H4.56498L4.09116 8.95545L4.27141 9.51167L3.79244 9.16661L3.31862 9.51167L3.49888 8.9503L3.01991 8.60524H3.61218L3.79759 8.04386ZM7.14009 8.04386L7.32035 8.61038H7.91262L7.43365 8.95545L7.61906 9.51167L7.14009 9.16661L6.66112 9.51167L6.84653 8.9503L6.36756 8.60524H6.95468L7.14009 8.04386ZM10.4774 8.04386L10.6628 8.61038H11.25L10.7761 8.95545L10.9564 9.51167L10.4774 9.16661L10.0036 9.51167L10.1839 8.9503L9.71005 8.60524H10.2972L10.4774 8.04386ZM13.8199 8.04386L14.0002 8.61038H14.5925L14.1135 8.95545L14.2989 9.51167L13.8199 9.16661L13.341 9.51167L13.5264 8.9503L13.0474 8.60524H13.6397L13.8199 8.04386ZM-1.20843 9.46532L-1.02817 10.0267H-0.435894L-0.914865 10.3718L-0.734607 10.9383L-1.20843 10.5881L-1.6874 10.9331L-1.50714 10.3718L-1.98096 10.0267H-1.39384L-1.20843 9.46532ZM2.12892 9.46532L2.31433 10.0267H2.90145L2.42248 10.3718L2.60789 10.9383L2.12892 10.5881L1.64995 10.9331L1.83536 10.3718L1.35639 10.0267H1.94866L2.12892 9.46532ZM5.47142 9.46532L5.65168 10.0267H6.24395L5.76498 10.3718L5.94524 10.9383L5.47142 10.5881L4.99245 10.9331L5.1727 10.3718L4.69888 10.0267H5.28601L5.47142 9.46532ZM8.80876 9.46532L8.99417 10.0267H9.5813L9.10748 10.3718L9.28773 10.9383L8.80876 10.5881L8.33494 10.9331L8.5152 10.3718L8.03623 10.0267H8.63366L8.80876 9.46532ZM12.1513 9.46532L12.3315 10.0267H12.9238L12.4448 10.3718L12.6251 10.9383L12.1513 10.5881L11.6723 10.9331L11.8525 10.3718L11.3787 10.0267H11.9659L12.1513 9.46532ZM-2.88225 10.8868L-2.69684 11.4482H-2.10972L-2.58354 11.7932L-2.40328 12.3546L-2.88225 12.0095L-3.35607 12.3546L-3.17581 11.7881L-3.65479 11.443H-3.05736L-2.88225 10.8868ZM0.460246 10.8868L0.640504 11.4482H1.23278L0.753808 11.7932L0.939217 12.3546L0.460246 12.0095L-0.0187254 12.3546L0.166683 11.7881L-0.312288 11.443H0.274837L0.460246 10.8868ZM3.79759 10.8868L3.983 11.4482H4.56498L4.10146 11.7932L4.28171 12.3546L3.80274 12.0095L3.32892 12.3546L3.50918 11.7881L3.03021 11.443H3.62249L3.79759 10.8868ZM7.14009 10.8868L7.32035 11.4482H7.91262L7.43365 11.7932L7.61906 12.3546L7.14009 12.0095L6.66112 12.3546L6.84653 11.7881L6.36756 11.443H6.95468L7.14009 10.8868ZM10.4774 10.8868L10.6628 11.4482H11.25L10.7761 11.7932L10.9564 12.3546L10.4774 12.0095L10.0036 12.3546L10.1839 11.7881L9.71005 11.443H10.2972L10.4774 10.8868ZM13.8199 10.8868L14.0002 11.4482H14.5925L14.1135 11.7932L14.2989 12.3546L13.8199 12.0095L13.341 12.3546L13.5264 11.7881L13.0474 11.443H13.6397L13.8199 10.8868Z" fill="white"/>
</g>
</g>
<defs>
<filter id="filter0_d_1126:12912" x="0" y="0" width="26.2876" height="26.2871" filterUnits="userSpaceOnUse" color-interpolation-filters="sRGB">
<feFlood flood-opacity="0" result="BackgroundImageFix"/>
<feColorMatrix in="SourceAlpha" type="matrix" values="0 0 0 0 0 0 0 0 0 0 0 0 0 0 0 0 0 0 127 0" result="hardAlpha"/>
<feOffset/>
<feGaussianBlur stdDeviation="0.5"/>
<feComposite in2="hardAlpha" operator="out"/>
<feColorMatrix type="matrix" values="0 0 0 0 0 0 0 0 0 0 0 0 0 0 0 0 0 0 0.25 0"/>
<feBlend mode="normal" in2="BackgroundImageFix" result="effect1_dropShadow_1126:12912"/>
<feBlend mode="normal" in="SourceGraphic" in2="effect1_dropShadow_1126:12912" result="shape"/>
</filter>
</defs>
</svg>
