<svg width="500" height="369" viewBox="0 0 500 369" fill="none" xmlns="http://www.w3.org/2000/svg">
<g clip-path="url(#clip0)">
<path d="M449.901 343.5H416.801V343.8H449.901V343.5Z" fill="#EFEFF6"/>
<path d="M331.2 346.301H322.5V346.601H331.2V346.301Z" fill="#EFEFF6"/>
<path d="M415.8 334.301H396.6V334.601H415.8V334.301Z" fill="#EFEFF6"/>
<path d="M95.7 335.9H52.5V336.2H95.7V335.9Z" fill="#EFEFF6"/>
<path d="M110.9 335.9H104.6V336.2H110.9V335.9Z" fill="#EFEFF6"/>
<path d="M225.2 340.2H131.5V340.5H225.2V340.2Z" fill="#EFEFF6"/>
<path d="M500 327.4H0V327.7H500V327.4Z" fill="#EFEFF6"/>
<path d="M374.1 225.2V328.1H380.8H419.9H426.6V225.2H374.1Z" fill="#EFEFF6"/>
<path d="M384.199 212.5V235.3H388.299H412.399H416.499V212.5H384.199Z" fill="#EFEFF6"/>
<path d="M384.1 228.5H377.4V235.2H384.1V228.5Z" fill="#FAFAFD"/>
<path d="M397.2 228.5H390.5V235.2H397.2V228.5Z" fill="#FAFAFD"/>
<path d="M410.2 228.5H403.5V235.2H410.2V228.5Z" fill="#FAFAFD"/>
<path d="M423.2 228.5H416.5V235.2H423.2V228.5Z" fill="#EFEFF6"/>
<path d="M384.1 240.8H377.4V247.5H384.1V240.8Z" fill="#EFEFF6"/>
<path d="M397.2 240.8H390.5V247.5H397.2V240.8Z" fill="#EFEFF6"/>
<path d="M410.2 240.8H403.5V247.5H410.2V240.8Z" fill="#FAFAFD"/>
<path d="M423.2 240.8H416.5V247.5H423.2V240.8Z" fill="#FAFAFD"/>
<path d="M384.1 253H377.4V259.7H384.1V253Z" fill="#EFEFF6"/>
<path d="M397.2 253H390.5V259.7H397.2V253Z" fill="#FAFAFD"/>
<path d="M410.2 253H403.5V259.7H410.2V253Z" fill="#FAFAFD"/>
<path d="M397.2 218H390.5V224.7H397.2V218Z" fill="#FAFAFD"/>
<path d="M410.2 218H403.5V224.7H410.2V218Z" fill="#EFEFF6"/>
<path d="M423.2 253H416.5V259.7H423.2V253Z" fill="#EFEFF6"/>
<path d="M384.1 265.2H377.4V271.9H384.1V265.2Z" fill="#FAFAFD"/>
<path d="M397.2 265.2H390.5V271.9H397.2V265.2Z" fill="#EFEFF6"/>
<path d="M410.2 265.2H403.5V271.9H410.2V265.2Z" fill="#EFEFF6"/>
<path d="M423.2 265.2H416.5V271.9H423.2V265.2Z" fill="#FAFAFD"/>
<path d="M384.1 277.4H377.4V284.1H384.1V277.4Z" fill="#EFEFF6"/>
<path d="M397.2 277.4H390.5V284.1H397.2V277.4Z" fill="#FAFAFD"/>
<path d="M410.2 277.4H403.5V284.1H410.2V277.4Z" fill="#FAFAFD"/>
<path d="M423.2 277.4H416.5V284.1H423.2V277.4Z" fill="#EFEFF6"/>
<path d="M384.1 289.7H377.4V296.4H384.1V289.7Z" fill="#EFEFF6"/>
<path d="M397.2 289.7H390.5V296.4H397.2V289.7Z" fill="#FAFAFD"/>
<path d="M410.2 289.7H403.5V296.4H410.2V289.7Z" fill="#EFEFF6"/>
<path d="M423.2 289.7H416.5V296.4H423.2V289.7Z" fill="#FAFAFD"/>
<path d="M384.1 301.9H377.4V308.6H384.1V301.9Z" fill="#FAFAFD"/>
<path d="M397.2 301.9H390.5V308.6H397.2V301.9Z" fill="#FAFAFD"/>
<path d="M410.2 301.9H403.5V308.6H410.2V301.9Z" fill="#EFEFF6"/>
<path d="M423.2 301.9H416.5V308.6H423.2V301.9Z" fill="#EFEFF6"/>
<path d="M384.1 314.1H377.4V320.8H384.1V314.1Z" fill="#EFEFF6"/>
<path d="M423.2 314.1H416.5V320.8H423.2V314.1Z" fill="#FAFAFD"/>
<path d="M410.2 314.1H390.5V316.1H391.3V328.1H393.2V316.1H407.5V328.1H409.4V316.1H410.2V314.1Z" fill="#EFEFF6"/>
<path d="M400.399 316.1H393.199V328.1H400.399V316.1Z" fill="#E2E2F1"/>
<path d="M407.6 316.1H400.4V328.1H407.6V316.1Z" fill="#EFEFF6"/>
<path d="M66.9004 225.2V328.1H73.7004H112.8H119.5V225.2H66.9004Z" fill="#EFEFF6"/>
<path d="M70.3008 228.5V240.8V244.1V247.5H77.0008V244.1V240.8V228.5H70.3008Z" fill="#E2E2F1"/>
<path d="M83.3008 228.5V240.8V244.1V247.5H90.1008V244.1V240.8V228.5H83.3008Z" fill="#EFEFF6"/>
<path d="M96.4004 228.5V240.8V244.1V247.5H103.1V244.1V240.8V228.5H96.4004Z" fill="#E2E2F1"/>
<path d="M109.4 228.5V240.8V246V247.5H116.1V246V240.8V228.5H109.4Z" fill="#EFEFF6"/>
<path d="M70.3008 253V265.2V268.6V271.9H77.0008V268.6V265.2V253H70.3008Z" fill="#EFEFF6"/>
<path d="M83.3008 253V265.2V270V271.9H90.1008V270V265.2V253H83.3008Z" fill="#EFEFF6"/>
<path d="M96.4004 253V265.2V268.6V271.9H103.1V268.6V265.2V253H96.4004Z" fill="#E2E2F1"/>
<path d="M109.4 253V265.2V268.6V271.9H116.1V268.6V265.2V253H109.4Z" fill="#EFEFF6"/>
<path d="M70.3008 277.4V289.7V293V296.4H77.0008V293V289.7V277.4H70.3008Z" fill="#E2E2F1"/>
<path d="M83.3008 277.4V289.7V293V296.4H90.1008V293V289.7V277.4H83.3008Z" fill="#EFEFF6"/>
<path d="M96.4004 277.4V289.7V293V296.4H103.1V293V289.7V277.4H96.4004Z" fill="#EFEFF6"/>
<path d="M109.4 277.4V289.7V294.3V296.4H116.1V294.3V289.7V277.4H109.4Z" fill="#E2E2F1"/>
<path d="M112.801 301.9H109.401H103.101H96.4008H90.1008H83.3008H70.3008V308.6H83.3008H90.1008H96.4008H103.101H109.401H112.801H116.101V301.9H112.801Z" fill="#EFEFF6"/>
<path d="M103.101 314.101H83.3008V316.101H84.1008V328.101H86.1008V316.101H100.401V328.101H102.301V316.101H103.101V314.101Z" fill="#EFEFF6"/>
<path d="M93.2996 316.101H86.0996V328.101H93.2996V316.101Z" fill="#FAFAFD"/>
<path d="M100.401 316.101H93.2012V328.101H100.401V316.101Z" fill="#EFEFF6"/>
<path d="M119.5 271.9V328.1H126.2H165.3H172.1V271.9H119.5Z" fill="#E2E2F1"/>
<path d="M129.6 277.4H122.9V284.1H129.6V277.4Z" fill="#EFEFF6"/>
<path d="M142.6 277.4H135.9V284.1H142.6V277.4Z" fill="#EFEFF6"/>
<path d="M155.6 277.4H148.9V284.1H155.6V277.4Z" fill="#EFEFF6"/>
<path d="M168.7 277.4H162V284.1H168.7V277.4Z" fill="#EFEFF6"/>
<path d="M129.6 289.7H122.9V296.4H129.6V289.7Z" fill="#EFEFF6"/>
<path d="M142.6 289.7H135.9V296.4H142.6V289.7Z" fill="#EFEFF6"/>
<path d="M155.6 289.7H148.9V296.4H155.6V289.7Z" fill="#EFEFF6"/>
<path d="M168.7 289.7H162V296.4H168.7V289.7Z" fill="#EFEFF6"/>
<path d="M129.6 301.9H122.9V308.6H129.6V301.9Z" fill="#EFEFF6"/>
<path d="M142.6 301.9H135.9V308.6H142.6V301.9Z" fill="#EFEFF6"/>
<path d="M155.6 301.9H148.9V308.6H155.6V301.9Z" fill="#EFEFF6"/>
<path d="M168.7 301.9H162V308.6H168.7V301.9Z" fill="#EFEFF6"/>
<path d="M129.6 314.101H122.9V320.801H129.6V314.101Z" fill="#EFEFF6"/>
<path d="M168.7 314.101H162V320.801H168.7V314.101Z" fill="#EFEFF6"/>
<path d="M155.7 314.101H135.9V316.101H136.7V328.101H138.6V316.101H152.9V328.101H154.9V316.101H155.7V314.101Z" fill="#EFEFF6"/>
<path d="M145.8 316.101H138.6V328.101H145.8V316.101Z" fill="#E2E2F1"/>
<path d="M153.001 316.101H145.801V328.101H153.001V316.101Z" fill="#EFEFF6"/>
<path d="M312.201 225.2V328.1H319.001H358.101H364.801V225.2H312.201Z" fill="#FAFAFD"/>
<path d="M331.402 301.9H328.602H315.602V305.3V308.6V320.9H322.302V308.6H328.602H331.402H335.402V301.9H331.402Z" fill="#EFEFF6"/>
<path d="M356.801 301.9H354.701H341.701V308.6H354.701V320.9H361.401V308.6V303.8V301.9H356.801Z" fill="#EFEFF6"/>
<path d="M348.402 314.101H328.602V316.101H329.402V328.101H331.402V316.101H345.702V328.101H347.602V316.101H348.402V314.101Z" fill="#EFEFF6"/>
<path d="M338.6 316.101H331.4V328.101H338.6V316.101Z" fill="#EFEFF6"/>
<path d="M345.702 316.101H338.502V328.101H345.702V316.101Z" fill="#E2E2F1"/>
<path d="M335.402 228.5H315.602V247.5H335.402V228.5Z" fill="#EFEFF6"/>
<path d="M361.501 228.5H341.701V247.5H361.501V228.5Z" fill="#EFEFF6"/>
<path d="M335.402 253H315.602V272H335.402V253Z" fill="#EFEFF6"/>
<path d="M361.501 253H341.701V272H361.501V253Z" fill="#EFEFF6"/>
<path d="M335.402 277.4H315.602V296.4H335.402V277.4Z" fill="#EFEFF6"/>
<path d="M361.501 277.4H341.701V296.4H361.501V277.4Z" fill="#EFEFF6"/>
<path d="M125.8 200.7C124.1 202.2 125 205 127.2 205.3C143.5 207.1 176.5 209.5 185.4 201.6C196.9 191.5 164.2 201.1 161.7 198.8C159.2 196.5 168.1 191.4 161.1 191.5C156.2 191.6 148.5 200.3 140.6 199.2C134.2 198.3 142.7 193.6 136.8 193.6C131.6 193.6 129.2 197.7 125.8 200.7Z" fill="#EFEFF6"/>
<path d="M157.2 198.101C156 199.201 156.6 201.201 158.2 201.401C169.9 202.701 193.5 204.401 199.9 198.801C208.1 191.601 184.7 198.401 182.9 196.801C181.1 195.201 187.5 191.501 182.5 191.601C179 191.701 173.5 197.901 167.8 197.101C163.2 196.401 169.3 193.101 165.1 193.101C161.3 193.001 159.6 195.901 157.2 198.101Z" fill="#EFEFF6"/>
<path d="M274.301 118.7C297.497 118.7 316.301 99.8961 316.301 76.7002C316.301 53.5042 297.497 34.7002 274.301 34.7002C251.105 34.7002 232.301 53.5042 232.301 76.7002C232.301 99.8961 251.105 118.7 274.301 118.7Z" fill="#EFEFF6"/>
<path d="M267.2 89.4001C265.2 90.6001 265.9 93.6001 268.2 93.9001C293.7 96.9001 356.8 102.6 373.1 88.2001C392.8 70.9001 336.7 87.3001 332.4 83.3001C328.1 79.4001 343.4 70.6001 331.4 70.9001C322.9 71.1001 309.8 86.0001 296.2 84.1001C285.2 82.5001 299.9 74.5001 289.6 74.5001C279.1 74.4001 275.4 84.2001 267.2 89.4001Z" fill="#FAFAFD"/>
<path d="M331.901 26.0001C330.401 27.3001 331.101 29.8001 333.101 30.0001C348.801 31.7001 381.901 34.3001 390.801 26.5001C402.001 16.6001 370.001 26.0001 367.601 23.7001C365.101 21.5001 373.901 16.5001 367.001 16.6001C362.201 16.7001 354.601 25.2001 346.901 24.1001C340.601 23.2001 349.001 18.6001 343.201 18.6001C337.901 18.6001 335.601 23.0001 331.901 26.0001Z" fill="#EFEFF6"/>
<path d="M245.201 368.7C352.289 368.7 439.101 363.64 439.101 357.4C439.101 351.159 352.289 346.1 245.201 346.1C138.113 346.1 51.3008 351.159 51.3008 357.4C51.3008 363.64 138.113 368.7 245.201 368.7Z" fill="#EFEFF6"/>
<path d="M140.1 336.5H107.4V352.9H140.1V336.5Z" fill="#2B8CFF"/>
<path opacity="0.3" d="M140.1 336.5H107.4V352.9H140.1V336.5Z" fill="white"/>
<path opacity="0.2" d="M140.072 352.83V336.43H131.872V352.83H140.072Z" fill="#0B233A"/>
<path d="M205.501 303.7H172.801V352.8H205.501V303.7Z" fill="#2B8CFF"/>
<path opacity="0.4" d="M205.501 303.7H172.801V352.8H205.501V303.7Z" fill="white"/>
<path opacity="0.2" d="M205.561 352.817V303.717H197.361V352.817H205.561Z" fill="#0B233A"/>
<path d="M271.001 271H238.301V352.8H271.001V271Z" fill="#2B8CFF"/>
<path opacity="0.3" d="M271.001 271H238.301V352.8H271.001V271Z" fill="white"/>
<path opacity="0.2" d="M271.049 352.804V271.004H262.849V352.804H271.049Z" fill="#0B233A"/>
<path d="M336.399 221.9H303.699V352.8H336.399V221.9Z" fill="#2B8CFF"/>
<path opacity="0.2" d="M336.399 221.9H303.699V352.8H336.399V221.9Z" fill="white"/>
<path opacity="0.2" d="M336.453 352.811V221.911H328.253V352.811H336.453Z" fill="#0B233A"/>
<path d="M401.899 156.5H369.199V352.9H401.899V156.5Z" fill="#2B8CFF"/>
<path opacity="0.2" d="M401.877 352.836L401.877 156.436H393.677L393.677 352.836H401.877Z" fill="#0B233A"/>
<path d="M150.6 312.2H107.9L92.5 305.6H133.8V272.9H199.2V240.2H264.7V191.1H330.1V125.6H385.3V68.5996H402.1V132.2H346.9V197.6H281.5V246.7H216V279.4H150.6V312.2Z" fill="#2B8CFF"/>
<g opacity="0.4">
<path opacity="0.4" d="M150.6 312.2H107.9L92.5 305.6H133.8V272.9H199.2V240.2H264.7V191.1H330.1V125.6H385.3V68.5996H402.1V132.2H346.9V197.6H281.5V246.7H216V279.4H150.6V312.2Z" fill="white"/>
</g>
<path d="M385.301 125.6V68.5996H402.101V132.2L385.301 125.6Z" fill="#2B8CFF"/>
<path d="M330.102 191.1V125.6L346.902 132.2V197.6L330.102 191.1Z" fill="#2B8CFF"/>
<path d="M264.701 240.2V191.1L281.501 197.6V246.7L264.701 240.2Z" fill="#2B8CFF"/>
<path d="M199.201 272.899V240.199L216.001 246.699V279.399L199.201 272.899Z" fill="#2B8CFF"/>
<path d="M133.801 305.599V272.899L150.601 279.399V312.199L133.801 305.599Z" fill="#2B8CFF"/>
<path d="M374.1 73.2996L393.7 49.5996L413.4 87.5996L374.1 73.2996Z" fill="#2B8CFF"/>
<path d="M194.8 107.6C193.7 109.8 192.2 113.2 191.1 117.2C191.1 117.3 191.1 117.4 191 117.4C190.9 117.9 190.6 119 190.6 119.1C190.5 119.6 190.4 120.1 190.3 120.7C190.3 120.7 190.1 121.9 190 122.4C190 122.5 190 122.5 190 122.6C189.9 123.7 189.8 126.1 189.8 126.2C189.8 126.8 189.8 127.4 189.8 127.9C189.8 127.9 189.9 129.2 190 129.8V130C190 129.9 190 129.9 190 129.8C191.5 139.3 192.9 140.6 194.1 144.1C197.5 154.5 200.2 187.5 200.2 187.5C180.4 192.8 156.6 214.5 156.6 214.5L160.9 224.4C160.9 224.4 212.2 200.1 215.9 195.2C220.2 189.3 217.7 158.4 219.1 146.1C219.6 141.6 220.2 137.7 220.7 134.1L227.1 124.2L194.8 107.6Z" fill="#263238"/>
<path opacity="0.2" d="M204.299 133.7L200.499 129.6C200.499 129.6 193.399 135.5 218.499 157.3C218.499 153 218.599 149.1 218.999 146.2C218.999 145.8 219.099 145.5 219.099 145.1L204.299 133.7Z" fill="#0B233A"/>
<path d="M157.298 216.399L146.898 221.699L150.098 226.899L159.798 222.599L157.298 216.399Z" fill="#FFB3AD"/>
<path d="M150.5 228.199C150.5 228.099 150.5 228.099 150.5 227.999C150.6 227.899 150.6 227.899 150.7 227.999C150.8 228.099 153.4 229.299 153.8 230.399C153.9 230.599 153.9 230.899 153.8 231.099C153.7 231.399 153.5 231.499 153.2 231.499C152.7 231.499 152.1 230.799 151.6 230.099C151.2 229.499 150.8 228.899 150.5 228.199ZM151 228.499C151.6 229.699 152.6 231.099 153.2 231.199C153.3 231.199 153.4 231.199 153.5 230.999C153.6 230.899 153.6 230.699 153.5 230.599C153.5 230.499 153.4 230.399 153.4 230.299C152.7 229.599 151.9 228.999 151 228.499Z" fill="#2B8CFF"/>
<path d="M150.5 228.099C150.5 227.999 150.5 227.999 150.6 227.999C150.7 227.999 152.4 226.999 153.5 227.299C153.8 227.399 154.1 227.599 154.3 227.899C154.5 228.299 154.4 228.599 154.3 228.699C153.7 229.299 151.5 228.799 150.7 228.299C150.6 228.299 150.5 228.299 150.5 228.099C150.5 228.199 150.5 228.199 150.5 228.099ZM153.9 227.999C153.8 227.799 153.6 227.699 153.4 227.599C152.6 227.499 151.8 227.699 151.1 228.099C152 228.499 153.7 228.799 154 228.499C154 228.499 154.1 228.399 153.9 227.999Z" fill="#2B8CFF"/>
<path d="M150.899 227.099L146.499 220.699C146.299 220.499 145.999 220.399 145.799 220.499L139.799 222.899C139.299 223.099 138.999 223.699 139.199 224.199C139.199 224.299 139.299 224.299 139.299 224.399C140.899 226.699 142.499 228.599 144.399 231.499C146.699 234.899 145.699 234.299 148.399 238.299C149.999 240.699 152.999 239.299 152.499 238.199C149.899 233.199 150.899 231.699 151.399 228.799C151.499 228.199 151.299 227.599 150.899 227.099Z" fill="#263238"/>
<path opacity="0.2" d="M155.599 217.199L151.699 219.199L154.499 224.899L157.799 223.499L155.599 217.199Z" fill="#0B233A"/>
<path d="M156.5 211.3L152.1 213.9L157.6 226.5L162.7 225.1L156.5 211.3Z" fill="#2B8CFF"/>
<path d="M249.399 180.3C249.399 180.3 204.299 142.3 200.499 135.5C196.699 128.8 206.899 119.5 206.899 119.5L218.299 121.1C218.299 121.1 266.499 164.8 264.499 173.6L249.399 180.3Z" fill="#263238"/>
<path d="M264.5 173.6C263.2 182.5 244.2 225.2 244.2 225.2C244.2 225.2 240.3 225 233.1 220.5C233.1 220.5 240.6 186.8 248.3 173.7H264.5V173.6Z" fill="#263238"/>
<path d="M236.298 222.5L232.898 233.7L238.898 235L242.598 225L236.298 222.5Z" fill="#FFB3AD"/>
<path d="M240.2 235.601C240.1 235.601 240.1 235.501 240.1 235.401C240.1 235.301 240.1 235.301 240.2 235.201C240.3 235.201 243 234.201 244.1 234.701C244.3 234.801 244.5 235.001 244.6 235.201C244.7 235.401 244.7 235.701 244.5 235.901C244.2 236.201 243.2 236.201 242.4 236.101C241.6 236.001 240.9 235.801 240.2 235.601ZM240.8 235.401C242.1 235.801 243.8 236.001 244.2 235.601C244.3 235.601 244.3 235.501 244.2 235.201C244.2 235.101 244 235.001 243.9 234.901C243.8 234.901 243.7 234.801 243.6 234.801C242.7 234.901 241.7 235.101 240.8 235.401Z" fill="#2B8CFF"/>
<path d="M240.099 235.6C240.099 235.6 239.999 235.5 240.099 235.4C240.099 235.3 240.599 233.5 241.599 232.9C241.899 232.7 242.199 232.7 242.599 232.8C242.999 232.9 243.199 233.2 243.099 233.4C243.099 234.2 241.199 235.5 240.299 235.7C240.299 235.7 240.299 235.7 240.199 235.7C240.199 235.6 240.199 235.6 240.099 235.6ZM242.399 233C242.199 233 241.999 233 241.799 233.1C241.199 233.6 240.699 234.3 240.499 235.1C241.499 234.7 242.799 233.7 242.799 233.2C242.799 233.2 242.799 233.1 242.399 233Z" fill="#2B8CFF"/>
<path d="M239.699 234.5L231.999 233.3C231.699 233.3 231.399 233.4 231.299 233.7L228.899 239.7C228.699 240.2 228.899 240.8 229.499 241.1C229.599 241.1 229.599 241.1 229.699 241.2C232.499 241.6 234.899 241.8 238.399 242.4C242.499 243.1 241.299 243.4 246.099 244.2C248.999 244.7 249.999 241.5 248.799 241.2C243.299 239.6 242.999 237.8 241.199 235.5C240.799 234.9 240.299 234.6 239.699 234.5Z" fill="#263238"/>
<path opacity="0.2" d="M235.8 224.3L234.5 228.4L240.6 230.4L241.8 227.1L235.8 224.3Z" fill="#0B233A"/>
<path d="M232.2 219.5L231 224.5L243.9 229.3L246.5 224.6L232.2 219.5Z" fill="#2B8CFF"/>
<path d="M180.5 92.2996L181.3 85.0996L187.6 86.3996L185.5 93.6996C185.5 93.6996 187.6 97.0996 187.5 100.1C187.3 103.1 185.6 102.7 185.6 102.7C185.6 102.7 185.8 105.9 183.1 105C180.4 104.1 176.9 102.7 177.5 99.9996C177.9 97.3996 179.5 94.3996 180.5 92.2996Z" fill="#FFB3AD"/>
<path d="M226.5 61.7999C224.3 53.5999 199.4 61.3999 199.4 61.3999C199.4 61.3999 187.2 65.3 184 68.3C180.8 71.3 179 88.6999 179 88.6999L187.8 90.5999L193.2 75.5999C217.6 71.4999 228.6 69.7999 226.5 61.7999Z" fill="#2B8CFF"/>
<path d="M188 87.7999C187.7 88.0999 187.2 88.0999 186.9 87.8999C186.6 87.5999 186.6 87.0999 186.8 86.7999C187.1 86.4999 187.6 86.4999 187.9 86.6999C188.2 86.9999 188.2 87.4999 188 87.7999Z" fill="white"/>
<path opacity="0.1" d="M220.2 66.8001L220.3 59.1001C220.3 59.1001 215 58.2001 207.1 73.3001C210.7 72.6001 213.8 72.0001 216.4 71.3001L220.2 66.8001Z" fill="#0B233A"/>
<path d="M252.399 47L253.399 51.8C253.399 51.8 251.699 52.3 250.199 50.9L252.399 47Z" fill="#E79C97"/>
<path d="M253.499 45.0996C253.499 45.5996 253.199 45.9996 252.799 45.9996C252.499 45.9996 252.199 45.4996 252.299 44.9996C252.399 44.4996 252.599 44.0996 252.999 44.0996C253.299 44.0996 253.499 44.5996 253.499 45.0996Z" fill="#263238"/>
<path d="M230.199 60.5001C230.199 60.5001 234.499 60.8001 235.899 53.0001C235.899 53.0001 240.199 51.9001 242.299 54.7001C244.399 57.5001 238.599 62.0001 241.399 64.9001C244.099 67.6001 230.199 60.5001 230.199 60.5001Z" fill="#FFB3AD"/>
<path opacity="0.2" d="M239.299 57.3994C239.299 57.3994 239.899 59.0994 241.099 60.5994C241.499 59.5994 241.999 58.5994 242.399 57.6994L239.299 57.3994Z" fill="#0B233A"/>
<path d="M234.1 41.4001C233.2 48.1001 232.7 50.9001 235.4 55.0001C239.9 59.4001 247.9 60.7001 250.7 54.4001C253.3 48.7001 254.2 38.7001 248.3 34.8001C244 32.0001 238.3 33.2001 235.5 37.5001C234.7 38.6001 234.2 40.0001 234.1 41.4001Z" fill="#FFB3AD"/>
<path d="M251.299 42.3995C251.399 42.4995 251.499 42.4995 251.499 42.4995C252.099 42.2995 252.799 42.3995 253.399 42.8995C253.499 42.9995 253.699 42.9995 253.799 42.8995C253.899 42.7995 253.899 42.5995 253.799 42.4995C253.099 41.9995 252.299 41.7995 251.399 41.9995C251.299 41.9995 251.199 42.1995 251.199 42.2995C251.299 42.2995 251.299 42.2995 251.299 42.3995Z" fill="#263238"/>
<path d="M247.3 47.6997L249.7 47.5997C249.7 47.5997 248.5 44.8997 250.8 41.9997C253.1 38.9997 258.8 37.4997 254.2 32.2997C249.6 27.1997 243.9 27.9997 243.9 27.9997L247.7 30.6997C247.7 30.6997 239.8 24.8997 235.2 31.1997C235.2 31.1997 237.1 30.5997 238.7 31.2997C238.7 31.2997 217.8 38.3997 235.5 55.0997C235.5 55.0997 236.2 53.6997 239 55.9997C239 55.9997 242.2 53.8997 243.9 50.6997C245.5 47.2997 246.7 44.2997 247.3 47.6997Z" fill="#263238"/>
<path d="M247.2 45.4C248 46.5 248.4 47.9 248.2 49.2C248 51 246.1 51.2 244.8 50.1C243.6 49.1 242.3 47 243.2 45.4C244.1 43.9 246.1 44.1 247.2 45.4Z" fill="#FFB3AD"/>
<path d="M256.399 34.0996C256.399 34.0996 256.999 37.6996 251.299 39.8996C251.299 39.7996 259.199 40.6996 256.399 34.0996Z" fill="#263238"/>
<path d="M229.6 61.4996L231.9 58.5996C231.9 58.5996 242.8 59.5996 243.4 65.7996L229.6 61.4996Z" fill="#2B8CFF"/>
<path opacity="0.5" d="M229.6 61.4996L231.9 58.5996C231.9 58.5996 242.8 59.5996 243.4 65.7996L229.6 61.4996Z" fill="white"/>
<path d="M205.599 86.5997C208.599 79.0997 213.399 59.2997 221.099 58.3997C228.799 57.4997 250.899 66.2997 253.499 74.1997C256.099 82.0997 225.799 126.8 225.799 126.8L193.699 109.1C193.699 109.1 203.199 92.4997 205.599 86.5997Z" fill="#2B8CFF"/>
<path opacity="0.1" d="M243.398 71.5996C243.398 71.5996 237.598 82.6996 244.598 96.6996C247.498 91.5996 249.998 86.5996 251.698 82.5996L249.198 76.7996L243.398 71.5996Z" fill="#0B233A"/>
<path d="M211.2 87.2998C215.4 87.8998 220 86.6998 223.8 84.8998C228.1 82.7998 231.3 79.6998 234.4 76.1998C237.2 73.0998 241 69.4998 245.3 68.8998C255.2 67.5998 257.3 83.3998 256.3 90.2998C255.1 98.4998 250.5 106 245.4 112.4C242.4 116.2 239.1 119.9 235.4 123.1C234.2 124.1 236.1 125.7 237.2 124.7C246.7 116.4 255.9 104.6 258.4 92.0998C259.9 84.4998 258 73.6998 251.3 68.7998C245.2 64.3998 238.4 68.4998 234 72.9998C228 78.9998 221.2 86.3998 211.7 84.8998C210.1 84.6998 209.6 87.0998 211.2 87.2998Z" fill="#2B8CFF"/>
<g opacity="0.3">
<path opacity="0.3" d="M211.2 87.2998C215.4 87.8998 220 86.6998 223.8 84.8998C228.1 82.7998 231.3 79.6998 234.4 76.1998C237.2 73.0998 241 69.4998 245.3 68.8998C255.2 67.5998 257.3 83.3998 256.3 90.2998C255.1 98.4998 250.5 106 245.4 112.4C242.4 116.2 239.1 119.9 235.4 123.1C234.2 124.1 236.1 125.7 237.2 124.7C246.7 116.4 255.9 104.6 258.4 92.0998C259.9 84.4998 258 73.6998 251.3 68.7998C245.2 64.3998 238.4 68.4998 234 72.9998C228 78.9998 221.2 86.3998 211.7 84.8998C210.1 84.6998 209.6 87.0998 211.2 87.2998Z" fill="#0B233A"/>
</g>
<path d="M282.598 100.7L275.898 103L274.998 97.9002L281.898 95.7002C281.898 95.7002 283.298 92.1002 285.998 91.0002C288.698 89.9002 289.898 91.9002 289.898 91.9002C289.898 91.9002 292.698 90.4002 292.898 93.2002C293.198 96.0002 293.098 100.5 290.498 101C287.798 101.7 284.798 100.7 282.598 100.7Z" fill="#FFB3AD"/>
<path d="M278.999 95.1998L264.799 97.3998C255.399 75.4998 251.399 65.7998 244.299 69.5998C236.799 73.5998 250.099 94.7998 250.099 94.7998C250.099 94.7998 256.399 106.3 259.699 109.2C259.899 109.3 260.199 109.6 260.399 109.7C264.599 110.8 280.599 103.2 280.599 103.2L278.999 95.1998Z" fill="#2B8CFF"/>
<path d="M279 103C278.7 103.3 278.2 103.3 277.9 103.1C277.6 102.8 277.6 102.3 277.8 102C278.1 101.7 278.6 101.7 278.9 101.9C279.2 102.2 279.2 102.7 279 103Z" fill="white"/>
<path d="M210.9 136.6L189.5 105.7C187.7 103.2 188.4 99.6997 190.9 97.8997L208.7 85.4997C210.2 84.4997 212.2 84.7997 213.2 86.2997L237.3 121.1C238.3 122.6 238 124.6 236.5 125.6L218.7 138C216.2 139.8 212.7 139.2 210.9 136.6Z" fill="#2B8CFF"/>
<path opacity="0.3" d="M210.9 136.6L189.5 105.7C187.7 103.2 188.4 99.6997 190.9 97.8997L208.7 85.4997C210.2 84.4997 212.2 84.7997 213.2 86.2997L237.3 121.1C238.3 122.6 238 124.6 236.5 125.6L218.7 138C216.2 139.8 212.7 139.2 210.9 136.6Z" fill="white"/>
<path opacity="0.1" d="M235.5 123.299L210.5 87.1994C209.7 86.0994 208.2 85.7994 207.1 86.5994L206.4 87.0994C203.2 89.2994 202.5 93.5994 204.6 96.7994L224.5 125.499C226.7 128.699 231 129.399 234.2 127.299L234.9 126.799C236 125.999 236.3 124.499 235.5 123.299Z" fill="#0B233A"/>
<path d="M237.799 121.799L212.799 85.6994C211.999 84.5994 210.499 84.2994 209.399 85.0994L208.699 85.5994C205.499 87.7994 204.799 92.0994 206.899 95.2994L226.799 123.999C228.999 127.199 233.299 127.899 236.499 125.799L237.199 125.299C238.299 124.499 238.599 122.899 237.799 121.799Z" fill="#2B8CFF"/>
<path d="M237.799 121.799L212.799 85.6994C211.999 84.5994 210.499 84.2994 209.399 85.0994L208.699 85.5994C205.499 87.7994 204.799 92.0994 206.899 95.2994L226.799 123.999C228.999 127.199 233.299 127.899 236.499 125.799L237.199 125.299C238.299 124.499 238.599 122.899 237.799 121.799Z" fill="#2B8CFF"/>
<path opacity="0.5" d="M237.799 121.799L212.799 85.6994C211.999 84.5994 210.499 84.2994 209.399 85.0994L208.699 85.5994C205.499 87.7994 204.799 92.0994 206.899 95.2994L226.799 123.999C228.999 127.199 233.299 127.899 236.499 125.799L237.199 125.299C238.299 124.499 238.599 122.899 237.799 121.799Z" fill="white"/>
<path d="M205.7 103.499L205.3 102.899C204.7 101.999 204.9 100.799 205.8 100.199L210.7 96.799C211.6 96.199 212.8 96.399 213.4 97.299L213.8 97.899C214.4 98.799 214.2 99.999 213.3 100.599L208.4 103.999C207.5 104.599 206.3 104.399 205.7 103.499Z" fill="#2B8CFF"/>
<path d="M219.1 122.899L218.7 122.299C218.1 121.399 218.3 120.199 219.2 119.599L224.1 116.199C225 115.599 226.2 115.799 226.8 116.699L227.2 117.299C227.8 118.199 227.6 119.399 226.7 119.999L221.8 123.399C221 123.999 219.8 123.799 219.1 122.899Z" fill="#2B8CFF"/>
<path opacity="0.3" d="M205.7 103.499L205.3 102.899C204.7 101.999 204.9 100.799 205.8 100.199L210.7 96.799C211.6 96.199 212.8 96.399 213.4 97.299L213.8 97.899C214.4 98.799 214.2 99.999 213.3 100.599L208.4 103.999C207.5 104.599 206.3 104.399 205.7 103.499Z" fill="#0B233A"/>
<path opacity="0.3" d="M219.1 122.899L218.7 122.299C218.1 121.399 218.3 120.199 219.2 119.599L224.1 116.199C225 115.599 226.2 115.799 226.8 116.699L227.2 117.299C227.8 118.199 227.6 119.399 226.7 119.999L221.8 123.399C221 123.999 219.8 123.799 219.1 122.899Z" fill="#0B233A"/>
<path opacity="0.2" d="M190.699 107.399C190.699 107.399 198.999 121.099 206.199 117.099L200.299 121.199L190.699 107.399Z" fill="#0B233A"/>
<path d="M221.9 99.8992C223.8 99.5992 224.9 98.4992 226.6 97.7992C227.7 97.2992 226.4 96.7992 227.4 97.6992C227.8 97.9992 228 98.5992 228.3 98.9992C229 100.099 229.5 101.199 230.2 102.199C230.8 103.099 232.4 104.099 232.7 104.999C233.3 106.499 230.1 108.599 229.1 109.399C228 110.299 229.3 112.199 230.4 111.299C232 109.999 235.3 107.799 235.1 105.299C235 103.799 233.7 103.099 232.8 101.999C231.1 100.099 230.3 96.5992 228 95.1992C227.2 94.6992 226.5 94.6992 225.7 95.1992C224.8 95.6992 224.4 96.6992 223.3 97.0992C222.8 97.2992 222.2 97.4992 221.6 97.5992C220.3 97.7992 220.5 100.099 221.9 99.8992Z" fill="#2B8CFF"/>
<g opacity="0.3">
<path opacity="0.3" d="M221.9 99.8992C223.8 99.5992 224.9 98.4992 226.6 97.7992C227.7 97.2992 226.4 96.7992 227.4 97.6992C227.8 97.9992 228 98.5992 228.3 98.9992C229 100.099 229.5 101.199 230.2 102.199C230.8 103.099 232.4 104.099 232.7 104.999C233.3 106.499 230.1 108.599 229.1 109.399C228 110.299 229.3 112.199 230.4 111.299C232 109.999 235.3 107.799 235.1 105.299C235 103.799 233.7 103.099 232.8 101.999C231.1 100.099 230.3 96.5992 228 95.1992C227.2 94.6992 226.5 94.6992 225.7 95.1992C224.8 95.6992 224.4 96.6992 223.3 97.0992C222.8 97.2992 222.2 97.4992 221.6 97.5992C220.3 97.7992 220.5 100.099 221.9 99.8992Z" fill="#0B233A"/>
</g>
</g>
<defs>
<clipPath id="clip0">
<rect width="500" height="368.8" fill="white"/>
</clipPath>
</defs>
</svg>
