<svg width="663" height="267" viewBox="0 0 663 267" fill="none" xmlns="http://www.w3.org/2000/svg">
<path fill-rule="evenodd" clip-rule="evenodd" d="M332.973 10.5C332.973 11.8807 331.854 13 330.473 13C329.092 13 327.973 11.8807 327.973 10.5C327.973 9.11929 329.092 8 330.473 8C331.854 8 332.973 9.11929 332.973 10.5ZM331.973 10.5C331.973 11.3284 331.301 12 330.473 12C329.645 12 328.973 11.3284 328.973 10.5C328.973 9.67157 329.645 9 330.473 9C331.301 9 331.973 9.67157 331.973 10.5Z" fill="#E3E6E9"/>
<path fill-rule="evenodd" clip-rule="evenodd" d="M242.973 40.5C242.973 41.8807 241.854 43 240.473 43C239.092 43 237.973 41.8807 237.973 40.5C237.973 39.1193 239.092 38 240.473 38C241.854 38 242.973 39.1193 242.973 40.5ZM241.973 40.5C241.973 41.3284 241.301 42 240.473 42C239.645 42 238.973 41.3284 238.973 40.5C238.973 39.6716 239.645 39 240.473 39C241.301 39 241.973 39.6716 241.973 40.5Z" fill="#E3E6E9"/>
<path fill-rule="evenodd" clip-rule="evenodd" d="M384.473 120C385.854 120 386.973 118.881 386.973 117.5C386.973 116.119 385.854 115 384.473 115C383.092 115 381.973 116.119 381.973 117.5C381.973 118.881 383.092 120 384.473 120ZM384.473 119C385.301 119 385.973 118.328 385.973 117.5C385.973 116.672 385.301 116 384.473 116C383.645 116 382.973 116.672 382.973 117.5C382.973 118.328 383.645 119 384.473 119Z" fill="#E3E6E9"/>
<path fill-rule="evenodd" clip-rule="evenodd" d="M273.973 120.5C273.973 121.881 272.854 123 271.473 123C270.092 123 268.973 121.881 268.973 120.5C268.973 119.119 270.092 118 271.473 118C272.854 118 273.973 119.119 273.973 120.5ZM272.973 120.5C272.973 121.328 272.301 122 271.473 122C270.645 122 269.973 121.328 269.973 120.5C269.973 119.672 270.645 119 271.473 119C272.301 119 272.973 119.672 272.973 120.5Z" fill="#E3E6E9"/>
<path fill-rule="evenodd" clip-rule="evenodd" d="M470.473 230C471.854 230 472.973 228.881 472.973 227.5C472.973 226.119 471.854 225 470.473 225C469.092 225 467.973 226.119 467.973 227.5C467.973 228.881 469.092 230 470.473 230ZM470.473 229C471.301 229 471.973 228.328 471.973 227.5C471.973 226.672 471.301 226 470.473 226C469.645 226 468.973 226.672 468.973 227.5C468.973 228.328 469.645 229 470.473 229Z" fill="#E3E6E9"/>
<path fill-rule="evenodd" clip-rule="evenodd" d="M466.973 51.5C466.973 52.8807 465.854 54 464.473 54C463.092 54 461.973 52.8807 461.973 51.5C461.973 50.1193 463.092 49 464.473 49C465.854 49 466.973 50.1193 466.973 51.5ZM465.973 51.5C465.973 52.3284 465.301 53 464.473 53C463.645 53 462.973 52.3284 462.973 51.5C462.973 50.6716 463.645 50 464.473 50C465.301 50 465.973 50.6716 465.973 51.5Z" fill="#E3E6E9"/>
<path fill-rule="evenodd" clip-rule="evenodd" d="M206.473 165C207.854 165 208.973 163.881 208.973 162.5C208.973 161.119 207.854 160 206.473 160C205.092 160 203.973 161.119 203.973 162.5C203.973 163.881 205.092 165 206.473 165ZM206.473 164C207.301 164 207.973 163.328 207.973 162.5C207.973 161.672 207.301 161 206.473 161C205.645 161 204.973 161.672 204.973 162.5C204.973 163.328 205.645 164 206.473 164Z" fill="#E3E6E9"/>
<path d="M368.418 37.0061L369.611 32.8672C369.687 32.6018 369.964 32.4487 370.23 32.5252C370.495 32.6017 370.648 32.8788 370.572 33.1442L369.378 37.283C368.871 39.0421 367.344 40.3152 365.523 40.4977C364.108 40.6394 362.922 41.6282 362.528 42.9943L361.335 47.1332C361.259 47.3985 360.982 47.5516 360.716 47.4751C360.451 47.3986 360.298 47.1215 360.375 46.8562L361.568 42.7173C362.075 40.9583 363.602 39.6852 365.423 39.5027C366.838 39.3609 368.024 38.3722 368.418 37.0061Z" fill="#E3E6E9"/>
<path d="M249.913 159.051L248.721 162.699C248.202 164.29 248.758 166.034 250.103 167.03C251.793 168.282 252.493 170.475 251.84 172.475L250.648 176.123C250.562 176.386 250.28 176.529 250.018 176.443C249.755 176.358 249.612 176.075 249.698 175.813L250.889 172.165C251.409 170.574 250.852 168.83 249.508 167.834C247.817 166.582 247.117 164.388 247.771 162.389L248.962 158.741C249.048 158.478 249.33 158.335 249.593 158.421C249.855 158.506 249.999 158.789 249.913 159.051Z" fill="#E3E6E9"/>
<path d="M462.262 96.9662L465.087 94.3679C465.29 94.1809 465.303 93.8646 465.116 93.6614C464.929 93.4582 464.613 93.445 464.41 93.6319L461.585 96.2302C460.037 97.6545 459.574 99.9097 460.436 101.829C461.121 103.355 460.753 105.149 459.521 106.282L456.697 108.88C456.494 109.067 456.48 109.383 456.667 109.587C456.854 109.79 457.171 109.803 457.374 109.616L460.198 107.018C461.746 105.594 462.209 103.338 461.348 101.419C460.663 99.8928 461.031 98.099 462.262 96.9662Z" fill="#E3E6E9"/>
<path d="M172.198 180.567L175.722 182.086C177.259 182.748 179.047 182.353 180.161 181.105C181.562 179.535 183.81 179.038 185.742 179.871L189.266 181.389C189.52 181.499 189.637 181.793 189.528 182.046C189.418 182.3 189.124 182.417 188.87 182.308L185.346 180.789C183.809 180.127 182.021 180.522 180.907 181.77C179.507 183.34 177.259 183.837 175.327 183.005L171.802 181.486C171.549 181.377 171.432 181.082 171.541 180.829C171.65 180.575 171.944 180.458 172.198 180.567Z" fill="#E3E6E9"/>
<path d="M207.177 92.5532C205.827 92.7406 204.697 91.537 204.97 90.2018L205.27 88.7305C205.325 88.46 205.151 88.1958 204.88 88.1406C204.61 88.0854 204.346 88.26 204.29 88.5305L203.99 90.0018C203.58 92.013 205.281 93.826 207.314 93.5437L207.42 93.529C208.766 93.3422 209.869 94.5844 209.523 95.8982C208.997 97.9023 210.679 99.7969 212.731 99.512C214.077 99.3252 215.179 100.567 214.834 101.881C214.308 103.885 215.989 105.78 218.042 105.495C219.387 105.308 220.49 106.55 220.145 107.864C219.618 109.868 221.3 111.763 223.352 111.478C224.698 111.291 225.801 112.533 225.455 113.847C224.929 115.851 226.611 117.746 228.663 117.461L228.769 117.446C230.119 117.259 231.249 118.463 230.976 119.798L230.676 121.269C230.621 121.54 230.795 121.804 231.066 121.859C231.336 121.914 231.6 121.74 231.656 121.469L231.956 119.998C232.366 117.987 230.665 116.174 228.632 116.456L228.526 116.471C227.18 116.657 226.078 115.415 226.423 114.101C226.949 112.097 225.267 110.203 223.215 110.488C221.869 110.674 220.767 109.432 221.112 108.118C221.638 106.114 219.957 104.22 217.904 104.505C216.559 104.691 215.456 103.449 215.801 102.135C216.328 100.131 214.646 98.2366 212.594 98.5215C211.248 98.7083 210.146 97.4662 210.491 96.1523C211.017 94.1482 209.335 92.2536 207.283 92.5385L207.177 92.5532Z" fill="#E3E6E9"/>
<path d="M433.564 21.118C432.243 21.4534 431.65 22.9941 432.406 24.128L432.466 24.2171C433.615 25.9412 432.641 28.2797 430.607 28.6774C429.274 28.9382 428.635 30.4713 429.389 31.6017C430.538 33.3257 429.563 35.6642 427.53 36.0619C426.197 36.3227 425.558 37.8558 426.311 38.9862C427.461 40.7102 426.486 43.0487 424.453 43.4465C423.12 43.7072 422.481 45.2404 423.234 46.3707C424.384 48.0947 423.409 50.4332 421.376 50.831C420.042 51.0918 419.404 52.6249 420.157 53.7552L420.216 53.8444C421.355 55.5524 420.463 57.873 418.473 58.3782L417.018 58.7478C416.75 58.8158 416.478 58.6539 416.41 58.3862C416.342 58.1186 416.504 57.8465 416.772 57.7786L418.227 57.409C419.548 57.0736 420.14 55.5329 419.384 54.399L419.325 54.3099C418.176 52.5858 419.15 50.2473 421.184 49.8496C422.517 49.5888 423.156 48.0557 422.402 46.9253C421.253 45.2013 422.227 42.8628 424.261 42.4651C425.594 42.2043 426.233 40.6712 425.479 39.5408C424.33 37.8168 425.304 35.4783 427.338 35.0805C428.671 34.8198 429.31 33.2866 428.557 32.1563C427.407 30.4323 428.382 28.0938 430.415 27.696C431.748 27.4352 432.387 25.9021 431.634 24.7718L431.574 24.6826C430.436 22.9746 431.328 20.654 433.318 20.1488L434.773 19.7792C435.041 19.7112 435.313 19.8731 435.381 20.1408C435.449 20.4084 435.287 20.6805 435.019 20.7484L433.564 21.118Z" fill="#E3E6E9"/>
<path d="M495.349 130.768C495.465 129.41 496.889 128.575 498.131 129.136L499.499 129.755C499.751 129.869 500.047 129.757 500.161 129.506C500.274 129.254 500.163 128.958 499.911 128.844L498.543 128.225C496.673 127.379 494.528 128.637 494.353 130.682L494.343 130.789C494.227 132.142 492.772 132.942 491.567 132.315C489.73 131.358 487.509 132.578 487.332 134.642C487.217 135.996 485.761 136.796 484.556 136.168C482.719 135.211 480.498 136.431 480.322 138.495C480.206 139.849 478.75 140.649 477.545 140.021C475.708 139.064 473.488 140.284 473.311 142.349C473.195 143.702 471.739 144.502 470.534 143.874C468.697 142.917 466.477 144.137 466.3 146.202L466.291 146.309C466.174 147.666 464.75 148.501 463.509 147.94L462.141 147.321C461.889 147.207 461.593 147.319 461.479 147.57C461.365 147.822 461.477 148.118 461.728 148.232L463.097 148.851C464.967 149.697 467.112 148.439 467.287 146.394L467.296 146.287C467.412 144.934 468.868 144.134 470.072 144.761C471.91 145.719 474.13 144.498 474.307 142.434C474.423 141.08 475.879 140.281 477.083 140.908C478.921 141.865 481.141 140.645 481.318 138.581C481.434 137.227 482.889 136.427 484.094 137.055C485.932 138.012 488.152 136.792 488.329 134.728C488.445 133.374 489.9 132.574 491.105 133.202C492.943 134.159 495.163 132.939 495.34 130.874L495.349 130.768Z" fill="#E3E6E9"/>
<path d="M277.501 22.1754C276.849 23.3717 277.575 24.8539 278.92 25.0713L279.026 25.0884C281.072 25.4188 282.123 27.7238 281.031 29.4849C280.315 30.6394 281.004 32.1506 282.345 32.3673C284.391 32.6977 285.442 35.0027 284.35 36.7638C283.634 37.9184 284.323 39.4296 285.664 39.6462C287.71 39.9767 288.761 42.2817 287.669 44.0427C286.954 45.1973 287.643 46.7085 288.984 46.9251C291.029 47.2556 292.08 49.5606 290.989 51.3217C290.273 52.4762 290.962 53.9874 292.303 54.2041L292.409 54.2212C294.435 54.5485 295.529 56.7812 294.546 58.5832L293.827 59.9014C293.695 60.1438 293.391 60.2331 293.148 60.1008C292.906 59.9686 292.817 59.6648 292.949 59.4224L293.668 58.1042C294.321 56.9079 293.595 55.4257 292.249 55.2084L292.143 55.1913C290.098 54.8608 289.047 52.5558 290.139 50.7947C290.854 49.6402 290.165 48.129 288.824 47.9123C286.779 47.5819 285.728 45.2769 286.819 43.5158C287.535 42.3613 286.846 40.8501 285.505 40.6334C283.46 40.303 282.408 37.9979 283.5 36.2369C284.216 35.0823 283.527 33.5711 282.186 33.3545C280.14 33.024 279.089 30.719 280.181 28.958C280.897 27.8034 280.208 26.2922 278.867 26.0756L278.761 26.0585C276.734 25.7311 275.64 23.4984 276.624 21.6964L277.343 20.3782C277.475 20.1358 277.779 20.0465 278.021 20.1788C278.264 20.3111 278.353 20.6148 278.221 20.8572L277.501 22.1754Z" fill="#E3E6E9"/>
<path d="M448.973 187C451.182 187 452.973 185.209 452.973 183C452.973 180.791 451.182 179 448.973 179C446.764 179 444.973 180.791 444.973 183C444.973 185.209 446.764 187 448.973 187Z" fill="#E3E6E9"/>
<path d="M204.973 220C207.182 220 208.973 218.209 208.973 216C208.973 213.791 207.182 212 204.973 212C202.764 212 200.973 213.791 200.973 216C200.973 218.209 202.764 220 204.973 220Z" fill="#E3E6E9"/>
<path fill-rule="evenodd" clip-rule="evenodd" d="M333.874 89.479C333.939 88.9952 333.973 88.5015 333.973 88C333.973 81.9249 329.048 77 322.973 77C316.898 77 311.973 81.9249 311.973 88C311.973 94.0751 316.898 99 322.973 99C324.305 99 325.581 98.7634 326.762 98.3298C325.797 100.679 325.265 103.251 325.265 105.948C325.265 117.023 334.242 126 345.317 126C355.813 126 364.426 117.935 365.296 107.663C366.957 107.598 368.275 106.599 368.275 105.375C368.275 104.12 366.887 103.1 365.166 103.084C363.997 94.9116 357.901 88.3289 349.983 86.4418L349.981 86.4414C348.494 86.087 346.942 85.8983 345.346 85.896L345.317 85.896C344.785 85.896 344.258 85.9167 343.737 85.9573C340.088 86.2417 336.714 87.5026 333.874 89.479ZM340.565 113.155C338.395 115.521 335.913 117.596 333.185 119.316C336.39 122.226 340.646 124 345.317 124C354.765 124 362.52 116.74 363.304 107.495L363.453 105.734L365.218 105.665C365.673 105.647 366.003 105.505 366.18 105.375C365.992 105.237 365.634 105.088 365.147 105.084L363.429 105.067L363.186 103.367C362.161 96.1978 356.92 90.3872 350.056 88.5245C350.056 88.6031 350.056 88.6817 350.056 88.7604C350.056 94.7308 348.607 100.363 346.04 105.323C344.387 103.335 341.958 102.514 340.098 103.489C337.856 104.663 337.288 108.001 338.83 110.944C339.292 111.827 339.892 112.574 340.565 113.155ZM366.292 105.478C366.296 105.485 366.299 105.489 366.299 105.489C366.299 105.489 366.298 105.488 366.297 105.486L366.296 105.484C366.296 105.484 366.294 105.48 366.292 105.478ZM366.295 105.266L366.293 105.271C366.297 105.265 366.299 105.262 366.299 105.262C366.299 105.262 366.297 105.263 366.295 105.266Z" fill="#E3E6E9"/>
<path fill-rule="evenodd" clip-rule="evenodd" d="M267.512 220.625C250.973 212.55 235.789 212.382 228.386 221.826C220.703 231.627 223.398 249.233 233.785 267H451.766C457.434 257.894 459.272 249.222 455.796 244.007C452.645 239.277 445.772 238.364 437.441 240.747C436.727 240.952 436.002 241.18 435.268 241.432C435.422 240.682 435.562 239.933 435.687 239.188C438.388 223.067 434.213 208.453 424.288 203.281C414.854 198.366 402.843 203.344 393.584 214.683C393.063 215.321 392.55 215.98 392.048 216.658C391.841 215.823 391.611 215.025 391.357 214.265C389.807 209.634 387.372 206.451 384.139 205.374C380.479 204.156 376.34 205.816 372.295 209.634C375.719 202.154 377.774 193.465 377.986 184.164C378.052 181.279 377.937 178.445 377.657 175.68C387.452 176.995 400.385 172.132 408.473 160C415.341 149.698 417.296 130.386 417.461 120.816C417.475 120.014 416.993 119.296 416.254 118.983L414.473 118.227V113.893C414.695 113.61 414.881 113.276 415.031 112.975C415.283 112.472 415.523 111.875 415.73 111.278C415.938 110.678 416.12 110.057 416.251 109.501C416.377 108.965 416.473 108.42 416.473 108C416.473 105.561 414.826 103.433 413.196 101.999C412.358 101.262 411.468 100.656 410.673 100.229C410.276 100.015 409.89 99.8395 409.537 99.715C409.2 99.5964 408.826 99.5 408.473 99.5C408.45 99.5 408.425 99.5003 408.4 99.5012L407.952 97.6073C412.148 94.4989 414.973 88.6736 414.973 82C414.973 72.0589 408.705 64 400.973 64C393.241 64 386.973 72.0589 386.973 82C386.973 91.9411 393.241 100 400.973 100C402.115 100 403.225 99.8242 404.288 99.4925L405.489 104.57L405.266 104.793C404.422 105.637 403.087 107.967 404.615 110.514C405.244 111.562 405.824 112.325 406.306 112.858C406.54 113.117 406.765 113.337 406.973 113.513V115.045L403.789 113.695C402.461 113.131 400.989 114.115 400.958 115.557C400.661 129.783 397.084 148.137 384.973 150C374.043 151.682 363.311 142.206 358.95 138.355C358.576 138.025 358.249 137.737 357.973 137.5L358.106 137.801C352.654 133.782 346.376 131.431 339.656 131.278C318.556 130.798 300.823 152.168 299.083 179.538C292.927 185.426 288.68 195.539 287.265 207.597C287.164 208.461 287.077 209.335 287.005 210.218C286.389 209.555 285.777 208.926 285.172 208.334C279.619 202.902 274.607 200.546 271.473 202.563C268.258 204.632 267.651 210.898 269.278 219.268C269.438 220.092 269.62 220.937 269.823 221.8C269.05 221.391 268.279 220.999 267.512 220.625ZM412.473 117.379L408.973 115.894V112.382L408.42 112.105C408.407 112.097 408.184 111.952 407.79 111.517C407.406 111.092 406.902 110.438 406.33 109.486C405.866 108.711 405.857 107.969 406.024 107.371C406.049 107.401 406.074 107.432 406.1 107.461C406.462 107.886 407.097 108.5 407.973 108.5C408.657 108.5 409.087 108.055 409.307 107.715C409.527 107.373 409.66 106.965 409.745 106.608C409.92 105.88 409.973 105.045 409.973 104.5C409.973 103.484 409.634 102.502 409.374 101.812C409.486 101.865 409.603 101.924 409.726 101.99C410.385 102.344 411.15 102.863 411.875 103.501C413.37 104.817 414.473 106.439 414.473 108C414.473 108.18 414.423 108.539 414.304 109.043C414.191 109.526 414.029 110.08 413.841 110.622C413.652 111.166 413.444 111.678 413.243 112.081C413.142 112.283 413.049 112.443 412.969 112.562C412.899 112.666 412.857 112.71 412.848 112.719L412.473 113.019V117.379ZM450.642 265C453.059 260.933 454.616 257.062 455.243 253.68C455.921 250.025 455.481 247.141 454.132 245.116C452.831 243.163 450.633 241.936 447.511 241.582C444.358 241.225 440.392 241.786 435.918 243.324C435.239 243.557 434.487 243.409 433.947 242.935C433.408 242.46 433.164 241.733 433.309 241.03C435.004 232.785 434.839 224.929 433.056 218.552C431.27 212.165 427.92 207.429 423.364 205.055C419.024 202.794 413.965 202.869 408.753 205.092C403.518 207.324 398.213 211.702 393.654 217.849C393.193 218.471 392.414 218.771 391.654 218.619C390.895 218.466 390.292 217.889 390.106 217.137C388.689 211.404 386.261 208.189 383.507 207.272C381.76 206.69 379.705 206.956 377.343 208.298C374.964 209.65 372.419 212.023 369.907 215.339C369.406 216 368.55 216.284 367.754 216.052C366.958 215.821 366.387 215.122 366.319 214.296C365.937 209.647 365 205.771 363.626 202.915C362.248 200.05 360.534 198.405 358.678 197.787C356.735 197.14 354.392 197.544 351.685 199.322C348.972 201.103 346.105 204.145 343.356 208.287C342.923 208.939 342.149 209.278 341.376 209.156C340.602 209.033 339.972 208.47 339.762 207.716C336.911 197.452 332.265 188.986 326.827 183.393C321.384 177.794 315.343 175.241 309.539 176.198C304.252 177.07 299.525 180.786 295.871 186.824C292.222 192.855 289.759 201.038 288.999 210.381C288.935 211.171 288.41 211.848 287.66 212.108C286.911 212.368 286.08 212.16 285.54 211.579C282.484 208.29 279.656 206.004 277.287 204.805C274.87 203.58 273.405 203.698 272.555 204.245C271.602 204.858 270.708 206.436 270.468 209.576C270.235 212.616 270.662 216.636 271.77 221.342C271.949 222.105 271.666 222.903 271.046 223.383C270.425 223.862 269.581 223.935 268.888 223.568C260.362 219.06 252.255 216.725 245.454 216.652C238.681 216.579 233.35 218.736 229.96 223.059C226.563 227.393 225.322 233.637 226.293 241.17C227.225 248.401 230.179 256.624 234.94 265H450.642ZM400.973 96C405.619 96 410.973 90.7258 410.973 82C410.973 73.2742 405.619 68 400.973 68C396.327 68 390.973 73.2742 390.973 82C390.973 90.7258 396.327 96 400.973 96Z" fill="#E3E6E9"/>
<path d="M179.06 11H213.98C216.78 11 219.04 13.27 219.04 16.06V50C219.04 52.8 216.77 55.07 213.98 55.07H199.81L201.33 65.3L194.32 55.07H179.06C176.26 55.07 174 52.8 174 50V16.07C174 13.27 176.26 11 179.06 11Z" fill="#B8C1C8"/>
<path opacity="0.6" d="M179.06 11H213.98C216.78 11 219.04 13.27 219.04 16.06V50C219.04 52.8 216.77 55.07 213.98 55.07H199.81L201.33 65.3L194.32 55.07H179.06C176.26 55.07 174 52.8 174 50V16.07C174 13.27 176.26 11 179.06 11Z" fill="white"/>
<path d="M193.64 25.9801V28.6901L195.03 28.8201C195.22 29.7301 195.58 30.5701 196.07 31.3201L195.17 32.4001L197.08 34.3101L198.16 33.4101C198.91 33.9001 199.75 34.2601 200.66 34.4501L200.79 35.8401H203.5L203.63 34.4501C204.54 34.2601 205.38 33.9001 206.13 33.4101L207.21 34.3101L209.12 32.4001L208.22 31.3201C208.71 30.5701 209.07 29.7301 209.26 28.8201L210.65 28.6901V25.9801L209.26 25.8501C209.07 24.9401 208.71 24.1001 208.22 23.3501L209.12 22.2701L207.21 20.3601L206.13 21.2601C205.38 20.7701 204.54 20.4101 203.63 20.2201L203.5 18.8301H200.79L200.66 20.2201C199.75 20.4101 198.91 20.7701 198.16 21.2601L197.08 20.3601L195.17 22.2701L196.07 23.3501C195.58 24.1001 195.22 24.9401 195.03 25.8501L193.64 25.9801ZM202.16 23.6701C204.18 23.6701 205.83 25.3101 205.83 27.3301C205.83 29.3501 204.19 30.9901 202.16 30.9901C200.14 30.9901 198.5 29.3501 198.5 27.3301C198.5 25.3101 200.14 23.6701 202.16 23.6701Z" fill="#F5F5F5"/>
<path d="M195.39 45.73C196.1 45.58 196.76 45.3 197.35 44.92L198.2 45.62L199.7 44.12L199 43.27C199.39 42.68 199.67 42.02 199.81 41.31L200.9 41.21V39.09L199.81 38.99C199.66 38.28 199.38 37.62 199 37.03L199.7 36.18L198.2 34.68L197.35 35.38C196.76 34.99 196.1 34.71 195.39 34.57L195.29 33.48H193.17L193.07 34.57C192.36 34.72 191.7 35 191.11 35.38L190.26 34.68L188.76 36.18L189.46 37.03C189.07 37.62 188.79 38.28 188.65 38.99L187.56 39.09V41.21L188.65 41.31C188.8 42.02 189.08 42.68 189.46 43.27L188.76 44.12L190.26 45.62L191.11 44.92C191.7 45.31 192.36 45.59 193.07 45.73L193.17 46.82H195.29L195.39 45.73ZM191.35 40.15C191.35 38.56 192.64 37.28 194.22 37.28C195.81 37.28 197.09 38.57 197.09 40.15C197.09 41.74 195.8 43.02 194.22 43.02C192.64 43.02 191.35 41.73 191.35 40.15Z" fill="#F5F5F5"/>
<path d="M189.87 33.7702L190.46 34.4802L191.93 33.4802L191.48 32.6702C191.89 32.2502 192.23 31.7402 192.46 31.1802L193.38 31.2702L193.71 29.5202L192.82 29.2602C192.81 28.6502 192.68 28.0602 192.45 27.5202L193.16 26.9302L192.16 25.4602L191.35 25.9102C190.93 25.5002 190.42 25.1702 189.86 24.9302L189.95 24.0102L188.2 23.6802L187.95 24.5702C187.34 24.5802 186.75 24.7102 186.21 24.9402L185.62 24.2302L184.15 25.2302L184.6 26.0402C184.19 26.4602 183.85 26.9702 183.62 27.5302L182.7 27.4402L182.37 29.1902L183.26 29.4502C183.27 30.0602 183.4 30.6502 183.63 31.1902L182.92 31.7802L183.92 33.2502L184.73 32.8002C185.15 33.2102 185.66 33.5502 186.22 33.7802L186.13 34.7002L187.88 35.0302L188.14 34.1402C188.73 34.1202 189.32 33.9902 189.87 33.7702ZM185.66 28.9002C185.91 27.5902 187.17 26.7302 188.48 26.9802C189.79 27.2302 190.65 28.4902 190.4 29.8002C190.15 31.1102 188.89 31.9702 187.58 31.7202C186.28 31.4702 185.42 30.2002 185.66 28.9002Z" fill="#F5F5F5"/>
<path d="M662.77 44.3899V169.65L641.91 190.51H559.45C557.68 190.51 556.24 189.07 556.24 187.29V44.3899C556.24 42.6099 557.68 41.1699 559.45 41.1699H659.55C661.32 41.1699 662.77 42.6099 662.77 44.3899Z" fill="#E3E6E9"/>
<path opacity="0.6" d="M662.77 49.8599V169.65L641.91 190.51H559.45C557.68 190.51 556.24 189.07 556.24 187.29V49.8599H662.77Z" fill="white"/>
<path opacity="0.6" d="M659.99 45.1501C659.99 46.0101 659.29 46.7001 658.44 46.7001C657.58 46.7001 656.89 46.0001 656.89 45.1501C656.89 44.2901 657.59 43.6001 658.44 43.6001C659.29 43.6001 659.99 44.2901 659.99 45.1501Z" fill="white"/>
<path opacity="0.6" d="M654.05 45.1501C654.05 46.0101 653.35 46.7001 652.5 46.7001C651.65 46.7001 650.95 46.0001 650.95 45.1501C650.95 44.2901 651.65 43.6001 652.5 43.6001C653.35 43.6001 654.05 44.2901 654.05 45.1501Z" fill="white"/>
<path opacity="0.6" d="M648.12 45.1501C648.12 46.0101 647.42 46.7001 646.57 46.7001C645.71 46.7001 645.02 46.0001 645.02 45.1501C645.02 44.2901 645.72 43.6001 646.57 43.6001C647.42 43.6001 648.12 44.2901 648.12 45.1501Z" fill="white"/>
<path d="M620.99 59.5098H563.89C563.34 59.5098 562.89 59.0598 562.89 58.5098C562.89 57.9598 563.34 57.5098 563.89 57.5098H620.99C621.54 57.5098 621.99 57.9598 621.99 58.5098C621.99 59.0698 621.55 59.5098 620.99 59.5098Z" fill="#E3E6E9"/>
<path d="M604.85 64.98H563.89C563.34 64.98 562.89 64.53 562.89 63.98C562.89 63.43 563.34 62.98 563.89 62.98H604.85C605.4 62.98 605.85 63.43 605.85 63.98C605.85 64.53 605.41 64.98 604.85 64.98Z" fill="#E3E6E9"/>
<path d="M649.12 149.439H576.1C575.55 149.439 575.1 148.989 575.1 148.439C575.1 147.889 575.55 147.439 576.1 147.439H649.12C649.67 147.439 650.12 147.889 650.12 148.439C650.12 148.989 649.67 149.439 649.12 149.439Z" fill="#E3E6E9"/>
<path d="M636.91 171.289H563.89C563.34 171.289 562.89 170.839 562.89 170.289C562.89 169.739 563.34 169.289 563.89 169.289H636.91C637.46 169.289 637.91 169.739 637.91 170.289C637.91 170.839 637.46 171.289 636.91 171.289Z" fill="#E3E6E9"/>
<path d="M649.12 154.899H563.89C563.34 154.899 562.89 154.449 562.89 153.899C562.89 153.349 563.34 152.899 563.89 152.899H649.11C649.66 152.899 650.11 153.349 650.11 153.899C650.11 154.449 649.67 154.899 649.12 154.899Z" fill="#E3E6E9"/>
<path d="M649.12 160.369H563.89C563.34 160.369 562.89 159.919 562.89 159.369C562.89 158.819 563.34 158.369 563.89 158.369H649.11C649.66 158.369 650.11 158.819 650.11 159.369C650.11 159.919 649.67 160.369 649.12 160.369Z" fill="#E3E6E9"/>
<path d="M649.12 165.829H563.89C563.34 165.829 562.89 165.379 562.89 164.829C562.89 164.279 563.34 163.829 563.89 163.829H649.11C649.66 163.829 650.11 164.279 650.11 164.829C650.12 165.379 649.67 165.829 649.12 165.829Z" fill="#E3E6E9"/>
<path opacity="0.5" d="M662.77 169.65L641.91 190.51V169.65H662.77Z" fill="#E3E6E9"/>
<path opacity="0.4" d="M662.77 49.8599H656.88V169.65H662.77V49.8599Z" fill="#F5F5F5"/>
<path d="M659.83 112.45C658.63 112.45 657.66 111.48 657.66 110.28V98.0401C657.66 96.8401 658.63 95.8701 659.83 95.8701C661.03 95.8701 662 96.8401 662 98.0401V110.28C662 111.48 661.03 112.45 659.83 112.45Z" fill="#E3E6E9"/>
<path d="M649.12 119.439H576.1C575.55 119.439 575.1 118.989 575.1 118.439C575.1 117.889 575.55 117.439 576.1 117.439H649.12C649.67 117.439 650.12 117.889 650.12 118.439C650.12 118.989 649.67 119.439 649.12 119.439Z" fill="#E3E6E9"/>
<path d="M636.91 141.289H563.89C563.34 141.289 562.89 140.839 562.89 140.289C562.89 139.739 563.34 139.289 563.89 139.289H636.91C637.46 139.289 637.91 139.739 637.91 140.289C637.91 140.839 637.46 141.289 636.91 141.289Z" fill="#E3E6E9"/>
<path d="M649.12 124.899H563.89C563.34 124.899 562.89 124.449 562.89 123.899C562.89 123.349 563.34 122.899 563.89 122.899H649.11C649.66 122.899 650.11 123.349 650.11 123.899C650.11 124.449 649.67 124.899 649.12 124.899Z" fill="#E3E6E9"/>
<path d="M649.12 130.369H563.89C563.34 130.369 562.89 129.919 562.89 129.369C562.89 128.819 563.34 128.369 563.89 128.369H649.11C649.66 128.369 650.11 128.819 650.11 129.369C650.11 129.919 649.67 130.369 649.12 130.369Z" fill="#E3E6E9"/>
<path d="M649.12 135.829H563.89C563.34 135.829 562.89 135.379 562.89 134.829C562.89 134.279 563.34 133.829 563.89 133.829H649.11C649.66 133.829 650.11 134.279 650.11 134.829C650.12 135.379 649.67 135.829 649.12 135.829Z" fill="#E3E6E9"/>
<path d="M649.11 71.4897H563.63V103.39H649.11V71.4897Z" fill="#E3E6E9"/>
<path opacity="0.2" d="M563.63 98.2697H565.96V92.4697H568.64V81.0197H572.38V88.0697H577.52V97.4397H583.65V90.9097H588.72L592.07 87.5597V79.7797H594.12V90.9097H599.28V94.8697H604.62V74.6697L606.1 73.1897V78.7297H609.51V81.2197L612.78 84.4997V90.4097H617.48V85.7297H629.74V82.2397H632.51V76.1497H633.5V85.7297H635.06L638.59 82.1997H641.91V79.0097H643.59V82.2397H645.76V95.4597H648.12V88.8597L649.12 88.9197V71.4897H563.63V98.2697Z" fill="#F5F5F5"/>
<path d="M649.12 108.44H626.1C625.55 108.44 625.1 107.99 625.1 107.44C625.1 106.89 625.55 106.44 626.1 106.44H649.12C649.67 106.44 650.12 106.89 650.12 107.44C650.12 107.99 649.67 108.44 649.12 108.44Z" fill="#E3E6E9"/>
<path opacity="0.2" d="M597.49 41.1699V144.69L581.75 160.43H556.24V44.3899C556.24 42.6099 557.68 41.1699 559.45 41.1699H597.49Z" fill="#F5F5F5"/>
<path opacity="0.4" d="M659.83 112.45C658.63 112.45 657.66 111.48 657.66 110.28V98.0401C657.66 96.8401 658.63 95.8701 659.83 95.8701C661.03 95.8701 662 96.8401 662 98.0401V110.28C662 111.48 661.03 112.45 659.83 112.45Z" fill="white"/>
<path d="M536.53 59.9998V185.26L515.67 206.12H433.21C431.44 206.12 430 204.68 430 202.9V59.9998C430 58.2198 431.44 56.7798 433.21 56.7798H533.31C535.08 56.7798 536.53 58.2198 536.53 59.9998Z" fill="#E3E6E9"/>
<path opacity="0.6" d="M536.53 65.48V185.27L515.67 206.13H433.21C431.44 206.13 430 204.69 430 202.91V65.48H536.53Z" fill="white"/>
<path opacity="0.6" d="M533.75 60.7698C533.75 61.6298 533.05 62.3198 532.2 62.3198C531.34 62.3198 530.65 61.6198 530.65 60.7698C530.65 59.9098 531.35 59.2198 532.2 59.2198C533.05 59.2098 533.75 59.9098 533.75 60.7698Z" fill="white"/>
<path opacity="0.6" d="M527.81 60.7698C527.81 61.6298 527.11 62.3198 526.26 62.3198C525.4 62.3198 524.71 61.6198 524.71 60.7698C524.71 59.9098 525.41 59.2198 526.26 59.2198C527.12 59.2098 527.81 59.9098 527.81 60.7698Z" fill="white"/>
<path opacity="0.6" d="M521.88 60.7698C521.88 61.6298 521.18 62.3198 520.33 62.3198C519.47 62.3198 518.78 61.6198 518.78 60.7698C518.78 59.9098 519.48 59.2198 520.33 59.2198C521.18 59.2098 521.88 59.9098 521.88 60.7698Z" fill="white"/>
<path d="M455.39 75.6699H437.65C437.1 75.6699 436.65 75.2199 436.65 74.6699C436.65 74.1199 437.1 73.6699 437.65 73.6699H455.39C455.94 73.6699 456.39 74.1199 456.39 74.6699C456.39 75.2199 455.94 75.6699 455.39 75.6699Z" fill="#E3E6E9"/>
<path d="M463.75 81.1299H437.65C437.1 81.1299 436.65 80.6799 436.65 80.1299C436.65 79.5799 437.1 79.1299 437.65 79.1299H463.75C464.3 79.1299 464.75 79.5799 464.75 80.1299C464.75 80.6799 464.3 81.1299 463.75 81.1299Z" fill="#E3E6E9"/>
<path d="M455.68 86.5898H437.65C437.1 86.5898 436.65 86.1398 436.65 85.5898C436.65 85.0398 437.1 84.5898 437.65 84.5898H455.68C456.23 84.5898 456.68 85.0398 456.68 85.5898C456.68 86.1498 456.23 86.5898 455.68 86.5898Z" fill="#E3E6E9"/>
<path d="M522.87 176.06H449.85C449.3 176.06 448.85 175.61 448.85 175.06C448.85 174.51 449.3 174.06 449.85 174.06H522.87C523.42 174.06 523.87 174.51 523.87 175.06C523.87 175.61 523.43 176.06 522.87 176.06Z" fill="#E3E6E9"/>
<path d="M482.87 181.52H437.65C437.1 181.52 436.65 181.07 436.65 180.52C436.65 179.97 437.1 179.52 437.65 179.52H482.87C483.42 179.52 483.87 179.97 483.87 180.52C483.87 181.07 483.43 181.52 482.87 181.52Z" fill="#E3E6E9"/>
<path opacity="0.5" d="M536.53 185.27L515.67 206.13V185.27H536.53Z" fill="#E3E6E9"/>
<path opacity="0.4" d="M536.53 65.48H530.64V185.27H536.53V65.48Z" fill="#F5F5F5"/>
<path d="M533.58 177.07C532.38 177.07 531.41 176.1 531.41 174.9V162.66C531.41 161.46 532.38 160.49 533.58 160.49C534.78 160.49 535.75 161.46 535.75 162.66V174.9C535.75 176.1 534.78 177.07 533.58 177.07Z" fill="#E3E6E9"/>
<path d="M522.87 75.6699H509.13C508.58 75.6699 508.13 75.2199 508.13 74.6699C508.13 74.1199 508.58 73.6699 509.13 73.6699H522.87C523.42 73.6699 523.87 74.1199 523.87 74.6699C523.87 75.2199 523.43 75.6699 522.87 75.6699Z" fill="#E3E6E9"/>
<path d="M522.87 81.1299H515.77C515.22 81.1299 514.77 80.6799 514.77 80.1299C514.77 79.5799 515.22 79.1299 515.77 79.1299H522.87C523.42 79.1299 523.87 79.5799 523.87 80.1299C523.87 80.6799 523.43 81.1299 522.87 81.1299Z" fill="#E3E6E9"/>
<path d="M522.87 101.06H449.85C449.3 101.06 448.85 100.61 448.85 100.06C448.85 99.5096 449.3 99.0596 449.85 99.0596H522.87C523.42 99.0596 523.87 99.5096 523.87 100.06C523.87 100.61 523.43 101.06 522.87 101.06Z" fill="#E3E6E9"/>
<path d="M522.87 106.52H437.65C437.1 106.52 436.65 106.07 436.65 105.52C436.65 104.97 437.1 104.52 437.65 104.52H522.87C523.42 104.52 523.87 104.97 523.87 105.52C523.87 106.07 523.43 106.52 522.87 106.52Z" fill="#E3E6E9"/>
<path d="M472.87 111.979H437.65C437.1 111.979 436.65 111.529 436.65 110.979C436.65 110.429 437.1 109.979 437.65 109.979H472.87C473.42 109.979 473.87 110.429 473.87 110.979C473.87 111.539 473.43 111.979 472.87 111.979Z" fill="#E3E6E9"/>
<path opacity="0.7" d="M485.37 119.229H451.79V128.229H485.37V119.229Z" fill="#E3E6E9"/>
<path opacity="0.3" d="M467 130.229H451.79V163.46H467V130.229Z" fill="#E3E6E9"/>
<path opacity="0.3" d="M504.83 130.229H487.36V163.46H504.83V130.229Z" fill="#E3E6E9"/>
<path opacity="0.7" d="M522.87 119.229H487.36V128.229H522.87V119.229Z" fill="#E3E6E9"/>
<path opacity="0.3" d="M522.88 130.229H506.84V163.46H522.88V130.229Z" fill="#E3E6E9"/>
<path opacity="0.5" d="M449.79 130.229H437.65V163.46H449.79V130.229Z" fill="#E3E6E9"/>
<path d="M449.79 119.229H437.65V128.229H449.79V119.229Z" fill="#E3E6E9"/>
<path opacity="0.3" d="M485.36 130.229H469V163.46H485.36V130.229Z" fill="#E3E6E9"/>
<path opacity="0.4" d="M533.58 177.07C532.38 177.07 531.41 176.1 531.41 174.9V162.66C531.41 161.46 532.38 160.49 533.58 160.49C534.78 160.49 535.75 161.46 535.75 162.66V174.9C535.75 176.1 534.78 177.07 533.58 177.07Z" fill="white"/>
<path opacity="0.2" d="M536.53 59.9998V164.2H476.2C474.43 164.2 472.99 162.76 472.99 160.98V56.7798H533.31C535.08 56.7798 536.53 58.2198 536.53 59.9998Z" fill="#F5F5F5"/>
<path d="M589.5 3.22V128.48L568.64 149.34H486.18C484.41 149.34 482.97 147.9 482.97 146.12V3.22C482.97 1.44 484.41 0 486.18 0H586.28C588.05 0 589.5 1.44 589.5 3.22Z" fill="#E3E6E9"/>
<path opacity="0.6" d="M589.5 8.68994V128.48L568.64 149.34H486.18C484.41 149.34 482.97 147.9 482.97 146.12V8.68994H589.5Z" fill="white"/>
<path opacity="0.6" d="M585.16 5.53018C586.016 5.53018 586.71 4.83622 586.71 3.98018C586.71 3.12414 586.016 2.43018 585.16 2.43018C584.304 2.43018 583.61 3.12414 583.61 3.98018C583.61 4.83622 584.304 5.53018 585.16 5.53018Z" fill="white"/>
<path opacity="0.6" d="M579.22 5.53018C580.076 5.53018 580.77 4.83622 580.77 3.98018C580.77 3.12414 580.076 2.43018 579.22 2.43018C578.364 2.43018 577.67 3.12414 577.67 3.98018C577.67 4.83622 578.364 5.53018 579.22 5.53018Z" fill="white"/>
<path opacity="0.6" d="M574.84 3.98018C574.84 4.84018 574.14 5.53018 573.29 5.53018C572.43 5.53018 571.74 4.83018 571.74 3.98018C571.74 3.12018 572.44 2.43018 573.29 2.43018C574.15 2.43018 574.84 3.12018 574.84 3.98018Z" fill="white"/>
<path d="M543.41 18.8799H523.04C522.49 18.8799 522.04 18.4299 522.04 17.8799C522.04 17.3299 522.49 16.8799 523.04 16.8799H543.41C543.96 16.8799 544.41 17.3299 544.41 17.8799C544.41 18.4299 543.96 18.8799 543.41 18.8799Z" fill="#E3E6E9"/>
<path d="M551.78 24.3398H514.68C514.13 24.3398 513.68 23.8898 513.68 23.3398C513.68 22.7898 514.13 22.3398 514.68 22.3398H551.78C552.33 22.3398 552.78 22.7898 552.78 23.3398C552.78 23.8998 552.33 24.3398 551.78 24.3398Z" fill="#E3E6E9"/>
<path d="M543.71 29.8101H522.75C522.2 29.8101 521.75 29.3601 521.75 28.8101C521.75 28.2601 522.2 27.8101 522.75 27.8101H543.71C544.26 27.8101 544.71 28.2601 544.71 28.8101C544.71 29.3601 544.26 29.8101 543.71 29.8101Z" fill="#E3E6E9"/>
<path d="M575.84 44.27H502.82C502.27 44.27 501.82 43.82 501.82 43.27C501.82 42.72 502.27 42.27 502.82 42.27H575.84C576.39 42.27 576.84 42.72 576.84 43.27C576.84 43.82 576.39 44.27 575.84 44.27Z" fill="#E3E6E9"/>
<path d="M563.63 66.1201H490.61C490.06 66.1201 489.61 65.6701 489.61 65.1201C489.61 64.5701 490.06 64.1201 490.61 64.1201H563.63C564.18 64.1201 564.63 64.5701 564.63 65.1201C564.63 65.6701 564.19 66.1201 563.63 66.1201Z" fill="#E3E6E9"/>
<path d="M575.84 49.73H490.62C490.07 49.73 489.62 49.28 489.62 48.73C489.62 48.18 490.07 47.73 490.62 47.73H575.84C576.39 47.73 576.84 48.18 576.84 48.73C576.84 49.28 576.39 49.73 575.84 49.73Z" fill="#E3E6E9"/>
<path d="M575.84 55.2002H490.62C490.07 55.2002 489.62 54.7502 489.62 54.2002C489.62 53.6502 490.07 53.2002 490.62 53.2002H575.84C576.39 53.2002 576.84 53.6502 576.84 54.2002C576.84 54.7502 576.39 55.2002 575.84 55.2002Z" fill="#E3E6E9"/>
<path d="M575.84 60.6602H490.62C490.07 60.6602 489.62 60.2102 489.62 59.6602C489.62 59.1102 490.07 58.6602 490.62 58.6602H575.84C576.39 58.6602 576.84 59.1102 576.84 59.6602C576.84 60.2102 576.39 60.6602 575.84 60.6602Z" fill="#E3E6E9"/>
<path d="M575.84 99.27H502.82C502.27 99.27 501.82 98.82 501.82 98.27C501.82 97.72 502.27 97.27 502.82 97.27H575.84C576.39 97.27 576.84 97.72 576.84 98.27C576.84 98.82 576.39 99.27 575.84 99.27Z" fill="#E3E6E9"/>
<path d="M563.63 121.12H490.61C490.06 121.12 489.61 120.67 489.61 120.12C489.61 119.57 490.06 119.12 490.61 119.12H563.63C564.18 119.12 564.63 119.57 564.63 120.12C564.63 120.67 564.19 121.12 563.63 121.12Z" fill="#E3E6E9"/>
<path d="M575.84 104.73H490.62C490.07 104.73 489.62 104.28 489.62 103.73C489.62 103.18 490.07 102.73 490.62 102.73H575.84C576.39 102.73 576.84 103.18 576.84 103.73C576.84 104.28 576.39 104.73 575.84 104.73Z" fill="#E3E6E9"/>
<path d="M575.84 110.2H490.62C490.07 110.2 489.62 109.75 489.62 109.2C489.62 108.65 490.07 108.2 490.62 108.2H575.84C576.39 108.2 576.84 108.65 576.84 109.2C576.84 109.75 576.39 110.2 575.84 110.2Z" fill="#E3E6E9"/>
<path d="M575.84 115.66H490.62C490.07 115.66 489.62 115.21 489.62 114.66C489.62 114.11 490.07 113.66 490.62 113.66H575.84C576.39 113.66 576.84 114.11 576.84 114.66C576.84 115.21 576.39 115.66 575.84 115.66Z" fill="#E3E6E9"/>
<path d="M575.84 16.6802H565.61V30.3002H575.84V16.6802Z" fill="#E3E6E9"/>
<path d="M496.29 28.0202C499.421 28.0202 501.96 25.4816 501.96 22.3502C501.96 19.2187 499.421 16.6802 496.29 16.6802C493.158 16.6802 490.62 19.2187 490.62 22.3502C490.62 25.4816 493.158 28.0202 496.29 28.0202Z" fill="#E3E6E9"/>
<path d="M490.29 73.2698C490.29 73.9298 490.83 74.4598 491.49 74.4598C492.15 74.4598 492.69 73.9198 492.69 73.2698C492.69 72.6098 492.15 72.0698 491.49 72.0698C490.83 72.0698 490.29 72.6098 490.29 73.2698Z" fill="#E3E6E9"/>
<path d="M490.29 78.7298C490.29 79.3898 490.83 79.9298 491.49 79.9298C492.15 79.9298 492.69 79.3898 492.69 78.7298C492.69 78.0698 492.15 77.5298 491.49 77.5298C490.83 77.5298 490.29 78.0698 490.29 78.7298Z" fill="#E3E6E9"/>
<path d="M490.29 84.1998C490.29 84.8598 490.83 85.3998 491.49 85.3998C492.15 85.3998 492.69 84.8598 492.69 84.1998C492.69 83.5398 492.15 83.0098 491.49 83.0098C490.83 83.0098 490.29 83.5398 490.29 84.1998Z" fill="#E3E6E9"/>
<path d="M490.29 89.66C490.29 90.32 490.83 90.86 491.49 90.86C492.15 90.86 492.69 90.32 492.69 89.66C492.69 89 492.15 88.46 491.49 88.46C490.83 88.46 490.29 89 490.29 89.66Z" fill="#E3E6E9"/>
<path d="M508.63 74.27H495.61C495.06 74.27 494.61 73.82 494.61 73.27C494.61 72.72 495.06 72.27 495.61 72.27H508.63C509.18 72.27 509.63 72.72 509.63 73.27C509.63 73.82 509.19 74.27 508.63 74.27Z" fill="#E3E6E9"/>
<path d="M520.84 79.73H495.62C495.07 79.73 494.62 79.28 494.62 78.73C494.62 78.18 495.07 77.73 495.62 77.73H520.84C521.39 77.73 521.84 78.18 521.84 78.73C521.84 79.28 521.39 79.73 520.84 79.73Z" fill="#E3E6E9"/>
<path d="M505.84 85.1997H495.62C495.07 85.1997 494.62 84.7497 494.62 84.1997C494.62 83.6497 495.07 83.1997 495.62 83.1997H505.84C506.39 83.1997 506.84 83.6497 506.84 84.1997C506.84 84.7497 506.39 85.1997 505.84 85.1997Z" fill="#E3E6E9"/>
<path d="M516.84 90.6597H495.62C495.07 90.6597 494.62 90.2097 494.62 89.6597C494.62 89.1097 495.07 88.6597 495.62 88.6597H516.84C517.39 88.6597 517.84 89.1097 517.84 89.6597C517.84 90.2097 517.39 90.6597 516.84 90.6597Z" fill="#E3E6E9"/>
<path opacity="0.5" d="M589.5 128.48L568.64 149.34V128.48H589.5Z" fill="#E3E6E9"/>
<path opacity="0.2" d="M575.84 16.6802L565.61 30.3002H575.84V16.6802Z" fill="#F5F5F5"/>
<path opacity="0.2" d="M499.6 19.04H492.97V25.67H499.6V19.04Z" fill="#F5F5F5"/>
<path opacity="0.4" d="M589.49 8.68994H583.6V128.48H589.49V8.68994Z" fill="#F5F5F5"/>
<path d="M586.55 31.2802C585.35 31.2802 584.38 30.3102 584.38 29.1102V16.8702C584.38 15.6702 585.35 14.7002 586.55 14.7002C587.75 14.7002 588.72 15.6702 588.72 16.8702V29.1102C588.72 30.3102 587.75 31.2802 586.55 31.2802Z" fill="#E3E6E9"/>
<path opacity="0.4" d="M586.55 31.2802C585.35 31.2802 584.38 30.3102 584.38 29.1102V16.8702C584.38 15.6702 585.35 14.7002 586.55 14.7002C587.75 14.7002 588.72 15.6702 588.72 16.8702V29.1102C588.72 30.3102 587.75 31.2802 586.55 31.2802Z" fill="white"/>
<path d="M116.322 76.0361H115.695V87.2064H116.322V76.0361Z" fill="#E3E6E9"/>
<path d="M151.084 76.0356H150.457V87.2059H151.084V76.0356Z" fill="#E3E6E9"/>
<path d="M120.714 76.0356H120.087V87.2059H120.714V76.0356Z" fill="#E3E6E9"/>
<path d="M154.218 76.0356H153.592V87.2059H154.218V76.0356Z" fill="#E3E6E9"/>
<path d="M108.374 65.4138H108.377L108.356 65.3986C108.323 65.3744 108.286 65.3501 108.25 65.3259L77.0351 44L4.00106 65.9953L3.47708 87.9694H1.80213C0.811709 87.9694 0 88.7811 0 89.7715V91.5737C0 92.5641 0.811709 93.3758 1.80213 93.3758H7.60843C8.59886 93.3758 9.41057 92.5641 9.41057 91.5737V89.7715C9.41057 88.7811 8.59886 87.9694 7.60843 87.9694H4.78252L18.5546 73.1554H67.9607V266.521H79.97V73.1584H90.1801V77.3624C90.1801 78.3529 90.9918 79.1646 91.9822 79.1646H107.296C108.286 79.1646 109.098 78.3529 109.098 77.3624V66.8525C109.095 66.2649 108.81 65.7439 108.374 65.4138ZM4.52807 86.7003L5.03697 73.1584H17.1189L4.52807 86.7003ZM91.9822 65.0503C91.0948 65.0503 90.3528 65.7015 90.2074 66.5526H5.82442L76.8624 45.154L106.19 65.0533H91.9822V65.0503Z" fill="#E3E6E9"/>
<path d="M258.894 136.301H257.871L257.644 122.901L212.908 109.426L193.781 122.492L194.411 122.292C193.805 122.292 193.308 122.789 193.308 123.395V129.819C193.308 130.425 193.805 130.921 194.411 130.921H203.77C204.376 130.921 204.872 130.425 204.872 129.819V127.25H211.112V245.447H218.454V127.247H248.654L257.074 136.301H255.348C254.742 136.301 254.245 136.797 254.245 137.403V138.505C254.245 139.111 254.742 139.608 255.348 139.608H258.897C259.503 139.608 260 139.111 260 138.505V137.403C259.994 136.797 259.5 136.301 258.894 136.301ZM204.854 123.207C204.766 122.689 204.312 122.289 203.77 122.289H194.983L213.011 110.125L256.435 123.207H204.854ZM249.529 127.247H257.011L257.229 135.525L249.529 127.247Z" fill="#E3E6E9"/>
<path d="M198.109 139.738V138.954H196.392V133.78H194.971V138.954H191.373V133.78H189.952V138.954H186.042V133.78H184.622V138.954H181.023V133.78H179.603V138.954H177.722V139.738H179.603V142.258H177.722V143.042H179.603V145.562H177.722V146.347H179.603V148.867H177.722V149.651H179.603V152.171H177.722V152.956H179.603V155.476H177.722V156.26H179.603V158.299H177.722V159.083H179.603V161.603H177.722V162.387H179.603V164.907H177.722V165.692H179.603V168.212H177.722V168.996H179.603V171.516H177.722V172.301H179.603V174.821H177.722V175.605H179.603V178.01H177.722V178.795H179.603V181.315H177.722V182.099H179.603V184.619H177.722V185.403H179.603V187.923H177.722V188.708H179.603V191.228H177.722V192.012H179.603V194.532H177.722V195.317H179.603V197.355H177.722V198.14H179.603V200.66H177.722V201.444H179.603V203.964H177.722V204.749H179.603V207.269H177.722V208.053H179.603V210.573H177.722V211.357H179.603V213.877H177.722V214.662H179.603V216.909H177.722V217.694H179.603V220.214H177.722V220.998H179.603V223.518H177.722V224.303H179.603V226.823H177.722V227.607H179.603V230.127H177.722V230.912H179.603V233.431H177.722V234.216H179.603V236.254H177.722V237.039H179.603V239.559H177.722V240.343H179.603V242.863H177.722V243.648H198.106V242.863H196.389V240.343H198.106V239.559H196.389V237.039H198.106V236.254H196.389V234.216H198.106V233.431H196.389V230.912H198.106V230.127H196.389V227.607H198.106V226.823H196.389V224.303H198.106V223.518H196.389V220.998H198.106V220.214H196.389V217.694H198.106V216.909H196.389V214.662H198.106V213.877H196.389V211.357H198.106V210.573H196.389V208.053H198.106V207.269H196.389V204.749H198.106V203.964H196.389V201.444H198.106V200.66H196.389V198.14H198.106V197.355H196.389V195.317H198.106V194.532H196.389V192.012H198.106V191.228H196.389V188.708H198.106V187.923H196.389V185.403H198.106V184.619H196.389V182.099H198.106V181.315H196.389V178.795H198.106V178.01H196.389V175.605H198.106V174.821H196.389V172.301H198.106V171.516H196.389V168.996H198.106V168.212H196.389V165.692H198.106V164.907H196.389V162.387H198.106V161.603H196.389V159.083H198.106V158.299H196.389V156.26H198.106V155.476H196.389V152.956H198.106V152.171H196.389V149.651H198.106V148.867H196.389V146.347H198.106V145.562H196.389V143.042H198.106V142.258H196.389V139.738H198.109ZM189.958 139.738V142.258H186.048V139.738H189.958ZM186.045 239.525V237.006H189.955V239.525H186.045ZM189.958 240.31V242.83H186.048V240.31H189.958ZM186.045 236.221V234.183H189.955V236.221H186.045ZM186.045 233.398V230.878H189.955V233.398H186.045ZM186.045 230.097V227.577H189.955V230.097H186.045ZM186.045 226.792V224.272H189.955V226.792H186.045ZM186.045 223.491V220.971H189.955V223.491H186.045ZM186.045 220.186V217.666H189.955V220.186H186.045ZM186.045 216.882V214.635H189.955V216.882H186.045ZM186.045 213.853V211.333H189.955V213.853H186.045ZM186.045 210.549V208.029H189.955V210.549H186.045ZM186.045 207.244V204.724H189.955V207.244H186.045ZM186.045 203.943V201.423H189.955V203.943H186.045ZM186.045 200.638V198.118H189.955V200.638H186.045ZM186.045 197.337V195.299H189.955V197.337H186.045ZM186.045 194.514V191.994H189.955V194.514H186.045ZM186.045 191.21V188.69H189.955V191.21H186.045ZM186.045 187.908V185.388H189.955V187.908H186.045ZM186.045 184.604V182.084H189.955V184.604H186.045ZM186.045 181.302V178.782H189.955V181.302H186.045ZM186.045 177.998V175.593H189.955V177.998H186.045ZM186.045 174.809V172.289H189.955V174.809H186.045ZM186.045 171.507V168.987H189.955V171.507H186.045ZM186.045 168.203V165.683H189.955V168.203H186.045ZM186.045 164.901V162.381H189.955V164.901H186.045ZM186.045 161.597V159.077H189.955V161.597H186.045ZM186.045 158.293V156.254H189.955V158.293H186.045ZM186.045 155.473V152.953H189.955V155.473H186.045ZM186.045 152.168V149.648H189.955V152.168H186.045ZM186.045 148.864V146.344H189.955V148.864H186.045ZM186.045 145.562V143.042H189.955V145.562H186.045ZM181.029 139.738H184.628V142.258H181.029V139.738ZM181.029 143.042H184.628V145.562H181.029V143.042ZM181.029 146.347H184.628V148.867H181.029V146.347ZM181.029 149.648H184.628V152.168H181.029V149.648ZM181.029 152.953H184.628V155.473H181.029V152.953ZM181.029 156.254H184.628V158.293H181.029V156.254ZM181.029 159.077H184.628V161.597H181.029V159.077ZM181.029 162.381H184.628V164.901H181.029V162.381ZM181.029 165.683H184.628V168.203H181.029V165.683ZM181.029 168.987H184.628V171.507H181.029V168.987ZM181.029 172.292H184.628V174.812H181.029V172.292ZM181.029 175.593H184.628V177.998H181.029V175.593ZM181.029 178.782H184.628V181.302H181.029V178.782ZM181.029 182.084H184.628V184.604H181.029V182.084ZM181.029 185.388H184.628V187.908H181.029V185.388ZM181.029 188.693H184.628V191.213H181.029V188.693ZM181.029 191.994H184.628V194.514H181.029V191.994ZM181.029 195.299H184.628V197.337H181.029V195.299ZM181.029 198.122H184.628V200.641H181.029V198.122ZM181.029 201.423H184.628V203.943H181.029V201.423ZM181.029 204.727H184.628V207.247H181.029V204.727ZM181.029 208.029H184.628V210.549H181.029V208.029ZM181.029 211.333H184.628V213.853H181.029V211.333ZM181.029 214.635H184.628V216.882H181.029V214.635ZM181.029 217.666H184.628V220.186H181.029V217.666ZM181.029 220.971H184.628V223.491H181.029V220.971ZM181.029 224.272H184.628V226.792H181.029V224.272ZM181.029 227.577H184.628V230.097H181.029V227.577ZM181.029 230.881H184.628V233.401H181.029V230.881ZM181.029 234.183H184.628V236.221H181.029V234.183ZM181.029 237.006H184.628V239.525H181.029V237.006ZM181.029 240.31H184.628V242.83H181.029V240.31ZM194.974 242.827H191.376V240.307H194.974V242.827ZM194.974 239.525H191.376V237.006H194.974V239.525ZM194.974 236.221H191.376V234.183H194.974V236.221ZM194.974 233.398H191.376V230.878H194.974V233.398ZM194.974 230.097H191.376V227.577H194.974V230.097ZM194.974 226.792H191.376V224.272H194.974V226.792ZM194.974 223.491H191.376V220.971H194.974V223.491ZM194.974 220.186H191.376V217.666H194.974V220.186ZM194.974 216.882H191.376V214.635H194.974V216.882ZM194.974 213.853H191.376V211.333H194.974V213.853ZM194.974 210.549H191.376V208.029H194.974V210.549ZM194.974 207.244H191.376V204.724H194.974V207.244ZM194.974 203.943H191.376V201.423H194.974V203.943ZM194.974 200.638H191.376V198.118H194.974V200.638ZM194.974 197.337H191.376V195.299H194.974V197.337ZM194.974 194.514H191.376V191.994H194.974V194.514ZM194.974 191.21H191.376V188.69H194.974V191.21ZM194.974 187.908H191.376V185.388H194.974V187.908ZM194.974 184.604H191.376V182.084H194.974V184.604ZM194.974 181.302H191.376V178.782H194.974V181.302ZM194.974 177.998H191.376V175.593H194.974V177.998ZM194.974 174.809H191.376V172.289H194.974V174.809ZM194.974 171.507H191.376V168.987H194.974V171.507ZM194.974 168.203H191.376V165.683H194.974V168.203ZM194.974 164.901H191.376V162.381H194.974V164.901ZM194.974 161.597H191.376V159.077H194.974V161.597ZM194.974 158.293H191.376V156.254H194.974V158.293ZM194.974 155.473H191.376V152.953H194.974V155.473ZM194.974 152.168H191.376V149.648H194.974V152.168ZM194.974 148.864H191.376V146.344H194.974V148.864ZM194.974 145.562H191.376V143.042H194.974V145.562ZM194.974 142.258H191.376V139.738H194.974V142.258Z" fill="#E3E6E9"/>
<path d="M170.931 85.1743H112.654V266.525H170.931V85.1743Z" fill="#E3E6E9"/>
<path opacity="0.5" d="M154.86 110.092H112.678V136.661H154.86V110.092Z" fill="#F4F5F6"/>
<path opacity="0.5" d="M154.86 158.744H112.678V185.313H154.86V158.744Z" fill="#F4F5F6"/>
<path opacity="0.5" d="M154.86 206.766H112.678V233.334H154.86V206.766Z" fill="#F4F5F6"/>
<path d="M235.742 233.162V208.596H170.956V85.0713H154.861V266.525H170.956H236.06L244.147 233.162H235.742Z" fill="#E3E6E9"/>
<path d="M227.198 266.509L228.619 266.512V264.24H232.217V266.518L233.637 266.521V264.24H236.615L236.805 263.456H233.637V260.936H237.417L239.144 253.818H238.971V251.298H239.756L239.946 250.514H238.971V247.994H240.558L240.749 247.209H238.974V244.689H241.361L241.552 243.905H238.974V241.385H242.16L242.351 240.601H238.974V238.562H242.572V239.695L243.993 233.837V231.956H244.45L244.641 231.172H243.996V228.652H245.253L245.444 227.867H243.996V225.347H245.713V224.563H243.996V222.043H245.713V221.258H243.996V218.854H245.713V218.069H243.996V215.549H245.713V214.765H243.996V212.245H245.713V211.46H243.996V208.94H245.713V208.156H243.996V205.636H245.713V204.851H243.996V202.331H245.713V201.547H243.996V199.509H245.713V198.724H243.996V196.204H245.713V195.42H243.996V192.9H245.713V192.115H243.996V189.595H245.713V188.811H243.996V186.291H245.713V185.506H243.996V182.986H245.713V182.223H243.996V177.05H242.575V182.223H238.977V177.05H237.557V182.223H233.646V177.05H232.226V182.223H228.628V177.05H227.207V182.223H225.326V183.008H227.207V185.527H225.326V186.312H227.207V188.832H225.326V189.616H227.207V192.136H225.326V192.921H227.207V195.441H225.326V196.225H227.207V198.745H225.326V199.53H227.207V201.568H225.326V202.353H227.207V204.873H225.326V205.657H227.207V208.177H225.326V208.961H227.207V211.481H225.326V212.266H227.207V214.786H225.326V215.57H227.207V218.09H225.326V218.875H227.207V221.28H225.326V222.064H227.207V224.584H225.326V225.369H227.207V227.889H225.326V228.673H227.207V231.193H225.326V231.977H227.207V234.497H225.326V235.282H227.207V237.802H225.326V238.586H227.207V240.625H225.326V241.409H227.207V243.929H225.326V244.714H227.207V247.234H225.326V248.018H227.207V250.538H225.326V251.323H227.207V253.843H225.326V254.627H227.207V257.147H225.326V257.931H227.207V260.179H225.326V260.963H227.207V263.483H225.326V264.268H227.207V266.509H227.198ZM238.965 183.008H242.563V185.527H238.965V183.008ZM238.965 186.312H242.563V188.832H238.965V186.312ZM238.965 189.613H242.563V192.133H238.965V189.613ZM238.965 192.918H242.563V195.438H238.965V192.918ZM238.965 196.222H242.563V198.742H238.965V196.222ZM238.965 199.524H242.563V201.562H238.965V199.524ZM238.965 202.347H242.563V204.867H238.965V202.347ZM238.965 205.651H242.563V208.171H238.965V205.651ZM238.965 208.952H242.563V211.472H238.965V208.952ZM238.965 212.257H242.563V214.777H238.965V212.257ZM238.965 215.558H242.563V218.078H238.965V215.558ZM238.965 218.863H242.563V221.268H238.965V218.863ZM238.965 222.052H242.563V224.572H238.965V222.052ZM238.965 225.353H242.563V227.873H238.965V225.353ZM238.965 228.658H242.563V231.178H238.965V228.658ZM238.965 231.959H242.563V234.479H238.965V231.959ZM238.965 235.264H242.563V237.784H238.965V235.264ZM233.634 183.008H237.544V185.527H233.634V183.008ZM233.634 186.312H237.544V188.832H233.634V186.312ZM233.634 189.613H237.544V192.133H233.634V189.613ZM233.634 192.918H237.544V195.438H233.634V192.918ZM233.634 196.222H237.544V198.742H233.634V196.222ZM233.634 199.524H237.544V201.562H233.634V199.524ZM233.634 202.347H237.544V204.867H233.634V202.347ZM233.634 205.651H237.544V208.171H233.634V205.651ZM233.634 208.952H237.544V211.472H233.634V208.952ZM233.634 212.257H237.544V214.777H233.634V212.257ZM233.634 215.558H237.544V218.078H233.634V215.558ZM233.634 218.863H237.544V221.268H233.634V218.863ZM233.634 222.052H237.544V224.572H233.634V222.052ZM233.634 225.353H237.544V227.873H233.634V225.353ZM233.634 228.658H237.544V231.178H233.634V228.658ZM233.634 231.959H237.544V234.479H233.634V231.959ZM233.634 235.264H237.544V237.784H233.634V235.264ZM233.634 238.568H237.544V240.607H233.634V238.568ZM233.634 241.388H237.544V243.908H233.634V241.388ZM233.634 244.692H237.544V247.212H233.634V244.692ZM233.634 247.997H237.544V250.517H233.634V247.997ZM233.634 251.298H237.544V253.818H233.634V251.298ZM233.634 254.603H237.544V257.123H233.634V254.603ZM233.634 257.904H237.544V260.152H233.634V257.904ZM228.619 183.008H232.217V185.527H228.619V183.008ZM228.619 186.312H232.217V188.832H228.619V186.312ZM228.619 189.613H232.217V192.133H228.619V189.613ZM228.619 192.918H232.217V195.438H228.619V192.918ZM228.619 196.222H232.217V198.742H228.619V196.222ZM228.619 199.524H232.217V201.562H228.619V199.524ZM228.619 202.347H232.217V204.867H228.619V202.347ZM228.619 205.651H232.217V208.171H228.619V205.651ZM228.619 208.952H232.217V211.472H228.619V208.952ZM228.619 212.257H232.217V214.777H228.619V212.257ZM228.619 215.558H232.217V218.078H228.619V215.558ZM228.619 218.863H232.217V221.268H228.619V218.863ZM228.619 222.052H232.217V224.572H228.619V222.052ZM228.619 225.353H232.217V227.873H228.619V225.353ZM228.619 228.658H232.217V231.178H228.619V228.658ZM228.619 231.959H232.217V234.479H228.619V231.959ZM228.619 235.264H232.217V237.784H228.619V235.264ZM228.619 238.568H232.217V240.607H228.619V238.568ZM228.619 241.388H232.217V243.908H228.619V241.388ZM228.619 244.692H232.217V247.212H228.619V244.692ZM228.619 247.997H232.217V250.517H228.619V247.997ZM228.619 251.298H232.217V253.818H228.619V251.298ZM228.619 254.603H232.217V257.123H228.619V254.603ZM228.619 257.904H232.217V260.152H228.619V257.904ZM228.619 260.936H232.217V263.456H228.619V260.936Z" fill="#E3E6E9"/>
<path d="M112.654 165.304H54.5249V266.524H112.654V165.304Z" fill="#E3E6E9"/>
<path d="M62.9842 170.071H58.3652V188.187H62.9842V170.071Z" fill="white"/>
<path d="M72.2222 170.071H67.6033V188.187H72.2222V170.071Z" fill="white"/>
<path d="M81.43 170.071H76.811V188.187H81.43V170.071Z" fill="white"/>
<path d="M90.671 170.071H86.052V188.187H90.671V170.071Z" fill="white"/>
<path d="M99.9087 170.071H95.2898V188.187H99.9087V170.071Z" fill="white"/>
<path d="M109.15 170.071H104.531V188.187H109.15V170.071Z" fill="white"/>
<path d="M62.9842 194.096H58.3652V212.211H62.9842V194.096Z" fill="#F5F5F5"/>
<path d="M72.2222 194.096H67.6033V212.211H72.2222V194.096Z" fill="#F5F5F5"/>
<path d="M81.43 194.096H76.811V212.211H81.43V194.096Z" fill="#F5F5F5"/>
<path d="M90.671 194.096H86.052V212.211H90.671V194.096Z" fill="#F5F5F5"/>
<path d="M99.9087 194.096H95.2898V212.211H99.9087V194.096Z" fill="#F5F5F5"/>
<path d="M109.15 194.096H104.531V212.211H109.15V194.096Z" fill="#F5F5F5"/>
<path d="M62.9842 218.117H58.3652V236.233H62.9842V218.117Z" fill="#F5F5F5"/>
<path d="M72.2222 218.117H67.6033V236.233H72.2222V218.117Z" fill="#F5F5F5"/>
<path d="M81.43 218.117H76.811V236.233H81.43V218.117Z" fill="#F5F5F5"/>
<path d="M90.671 218.117H86.052V236.233H90.671V218.117Z" fill="#F5F5F5"/>
<path d="M99.9087 218.117H95.2898V236.233H99.9087V218.117Z" fill="#F5F5F5"/>
<path d="M109.15 218.117H104.531V236.233H109.15V218.117Z" fill="#F5F5F5"/>
<path d="M62.9842 242.324H58.3652V260.44H62.9842V242.324Z" fill="#F5F5F5"/>
<path d="M72.2222 242.324H67.6033V260.44H72.2222V242.324Z" fill="#F5F5F5"/>
<path d="M81.43 242.324H76.811V260.44H81.43V242.324Z" fill="#F5F5F5"/>
<path d="M90.671 242.324H86.052V260.44H90.671V242.324Z" fill="#F5F5F5"/>
<path d="M99.9087 242.324H95.2898V260.44H99.9087V242.324Z" fill="#F5F5F5"/>
<path d="M109.15 242.324H104.531V260.44H109.15V242.324Z" fill="#F5F5F5"/>
<path d="M107.456 138.781H84.6646V165.986H107.456V138.781Z" fill="#E3E6E9"/>
</svg>
