<svg width="1346" height="1345" viewBox="0 0 1346 1345" fill="none" xmlns="http://www.w3.org/2000/svg">
<path fill-rule="evenodd" clip-rule="evenodd" d="M670.948 1342.89C1041.5 1342.89 1341.9 1042.27 1341.9 671.445C1341.9 300.616 1041.5 0 670.948 0C300.394 0 0 300.616 0 671.445C0 1042.27 300.394 1342.89 670.948 1342.89ZM670.96 936.33C801.277 936.33 906.92 823.338 906.92 683.955C906.92 544.572 670.96 242.298 670.96 242.298C670.96 242.298 434.999 544.572 434.999 683.955C434.999 823.338 540.643 936.33 670.96 936.33Z" fill="#99C8FF"/>
<path fill-rule="evenodd" clip-rule="evenodd" d="M724.291 934.077C927.132 934.077 1091.57 758.202 1091.57 541.249C1091.57 407.892 952.798 178.737 845.857 21.9424C1133.68 97.5423 1346 359.676 1346 671.436C1346 1042.27 1045.61 1342.88 675.052 1342.88C304.497 1342.88 4.10376 1042.27 4.10376 671.436C4.10376 320.507 273.122 32.4572 616.038 2.55249C507.704 159.289 357.013 402.282 357.013 541.249C357.013 666.75 412.038 778.505 497.692 850.422C540.938 903.082 604.36 936.321 675.041 936.321C686.545 936.321 697.857 935.441 708.92 933.739C714.018 933.964 719.142 934.077 724.291 934.077Z" fill="#99C8FF"/>
<path fill-rule="evenodd" clip-rule="evenodd" d="M798.959 12.7093C758.619 5.135 717.006 1.17358 674.469 1.17358C303.914 1.17358 3.52051 301.79 3.52051 672.619C3.52051 1043.45 303.914 1344.06 674.469 1344.06C985.358 1344.06 1246.86 1132.46 1323.01 845.324C1227.18 966.514 1078.91 1044.27 912.49 1044.27C749.407 1044.27 593.295 974.289 509.99 866.073C465.906 820.219 438.52 756.094 438.52 685.128C438.52 649.159 454.233 602.343 477.55 552.673C480.14 307.492 587.904 74.1412 798.959 12.7093Z" fill="#2B8CFF"/>
<path fill-rule="evenodd" clip-rule="evenodd" d="M847.853 23.5846C791.493 8.20802 732.178 0 670.948 0C300.394 0 0 300.616 0 671.445C0 1042.27 300.394 1342.89 670.948 1342.89C720.087 1342.89 767.992 1337.6 814.126 1327.57C585.278 1258.64 418.58 1046.12 418.58 794.643C418.58 728.382 430.152 664.827 451.385 605.89C470.815 551.1 505.103 488.139 540.89 430.172C578.38 368.847 626.344 297.506 670.953 242.295C738.085 159.207 798.932 84.0042 847.853 23.5846Z" fill="#0E2D4A"/>
</svg>
