<svg width="30" height="40" viewBox="0 0 30 40" fill="none" xmlns="http://www.w3.org/2000/svg">
<path d="M28 0H2C0.89543 0 0 0.89543 0 2V38C0 39.1046 0.89543 40 2 40H28C29.1046 40 30 39.1046 30 38V2C30 0.89543 29.1046 0 28 0Z" fill="#A2ABB4"/>
<path opacity="0.6" fill-rule="evenodd" clip-rule="evenodd" d="M8 17H7V18V33H8H22H23V18V17H16V18H22V32H8V18V17ZM10 17H12H13V18H15V19H13V20H15V21H13V22H15V23H13V24H15V25H13V26H14V30H11V26H12V24H10V23H12V22H10V21H12V20H10V19H12V18H10V17ZM13 27H12V29H13V27Z" fill="white"/>
<path d="M15.6001 5V6H14.6001V5H15.6001Z" fill="white"/>
<path d="M13.6001 8V7H15.6001V11H16.6001V12H13.6001V11H14.6001V8H13.6001Z" fill="white"/>
<path d="M12.6001 12H8.6001V11L11.1001 8H8.6001V7H12.6001V8L10.2801 11H12.6001V12Z" fill="white"/>
<path fill-rule="evenodd" clip-rule="evenodd" d="M18.4001 7V7.24C18.6068 7.08 18.8734 7 19.2001 7H19.9001C20.4868 7 20.9168 7.12667 21.1901 7.38C21.4634 7.62667 21.6001 8.03333 21.6001 8.6V10.4C21.6001 10.96 21.4601 11.3667 21.1801 11.62C20.9068 11.8733 20.4801 12 19.9001 12H18.6101V14H17.6001V7H18.4001ZM19.2501 8C19.0301 8 18.8668 8.06 18.7601 8.18C18.6534 8.29333 18.6001 8.41667 18.6001 8.55L18.6101 11H19.8501C20.0968 11 20.2834 10.9433 20.4101 10.83C20.5368 10.7167 20.6001 10.5567 20.6001 10.35V8.65C20.6001 8.44333 20.5368 8.28333 20.4101 8.17C20.2834 8.05667 20.0968 8 19.8501 8H19.2501Z" fill="white"/>
</svg>
