<svg width="54" height="54" viewBox="0 0 54 54" fill="none" xmlns="http://www.w3.org/2000/svg">
<g clip-path="url(#clip0)">
<path d="M31.5 22.3108V24.6957C31.4997 25.5933 31.1436 26.4541 30.51 27.0897C30.0306 27.5723 29.705 28.1862 29.574 28.8537C29.1472 30.7097 28.3278 32.4527 27.171 33.9655C27.0613 34.1176 27.0015 34.3 27.0001 34.4875V37.2865C26.9971 37.4444 27.0376 37.6 27.117 37.7365L27.0001 38.6995L20.7002 41.3995L14.4003 38.6995L14.2834 37.7365C14.3629 37.6 14.4033 37.4444 14.4003 37.2865V34.4876C14.3988 34.3001 14.3391 34.1177 14.2294 33.9656C13.0726 32.4527 12.2533 30.7097 11.8264 28.8538C11.6954 28.1863 11.3698 27.5724 10.8904 27.0898C10.2568 26.4542 9.90081 25.5934 9.90039 24.6958V21.5009C9.90092 20.9758 10.0242 20.458 10.2603 19.989L10.4404 19.611C10.6765 19.142 10.7998 18.6241 10.8003 18.099V13.5001C10.7998 11.5904 11.5582 9.75877 12.9085 8.40848C14.2588 7.05819 16.0905 6.29977 18.0001 6.3003H23.4001C25.4808 6.29735 27.4606 7.19698 28.827 8.76622L31.5 22.3108Z" fill="#E3F0FF"/>
<path d="M19.3496 40.8235L20.6996 41.3995L26.9995 38.6995L27.1164 37.7365C27.0369 37.6 26.9965 37.4444 26.9995 37.2865V34.4876C27.001 34.3001 27.0607 34.1177 27.1704 33.9656C28.3272 32.4527 29.1465 30.7097 29.5734 28.8538C29.7044 28.1863 30.03 27.5724 30.5094 27.0898C31.143 26.4542 31.499 25.5934 31.4994 24.6958V21.5009C31.4989 20.9758 31.3756 20.458 31.1395 19.9889L30.9594 19.611C30.7233 19.1419 30.6 18.6241 30.5995 18.099V13.5001C30.6 11.5904 29.8416 9.75876 28.4913 8.40847C27.1409 7.05807 25.3093 6.29977 23.3996 6.30029H20.6997C22.6094 6.29977 24.441 7.05818 25.7913 8.40847C27.1416 9.75876 27.9 11.5904 27.8995 13.5001V18.099C27.9 18.6241 28.0233 19.1419 28.2595 19.611L28.4395 19.9889C28.6756 20.458 28.7989 20.9758 28.7995 21.5009V24.6958C28.7991 25.5934 28.4431 26.4542 27.8094 27.0898C27.3301 27.5724 27.0044 28.1863 26.8734 28.8538C26.4466 30.7098 25.6272 32.4528 24.4705 33.9656C24.3608 34.1177 24.301 34.3001 24.2995 34.4876V37.2866C24.2965 37.4445 24.337 37.6001 24.4165 37.7366L24.2995 38.6996L19.3496 40.8235Z" fill="#99C8FF"/>
<path d="M40.4997 49.4639V53.0999H0.900391V49.4639C0.901234 47.2514 2.06274 45.2017 3.9603 44.064L9.9002 40.5001L10.1882 40.3291H31.2119L31.4999 40.5001L37.4398 44.064C39.3374 45.2016 40.4989 47.2514 40.4997 49.4639Z" fill="#99C8FF"/>
<path d="M37.7998 49.4639V53.0999H0.900391V49.4639C0.901234 47.2514 2.06274 45.2017 3.9603 44.064L9.9002 40.5001L10.1882 40.3291H28.5119L28.8 40.5001L34.7399 44.064C36.6374 45.2016 37.7989 47.2514 37.7998 49.4639Z" fill="#E3F0FF"/>
<path d="M20.6993 40.5003L17.0994 44.1002L10.1875 40.3293L13.9585 38.0613C14.0937 37.9845 14.2057 37.8725 14.2825 37.7373L14.3994 37.8003L20.6993 40.5003Z" fill="white"/>
<path d="M31.211 40.3292L24.2991 44.1001L20.6992 40.5002L26.9991 37.8003L27.116 37.7373C27.1928 37.8726 27.3048 37.9845 27.44 38.0613L31.211 40.3292Z" fill="white"/>
<path d="M24.2995 53.0992H17.0996L19.7996 45.8994H21.5996L24.2995 53.0992Z" fill="#E3F0FF"/>
<path d="M19.8001 45.9001L17.1002 53.0999L9.90039 40.5002L10.1883 40.3291L17.1002 44.1001L17.8742 43.326L19.8001 45.9001Z" fill="white"/>
<path d="M23.5269 43.3259L21.6009 45.8999H19.8009L17.875 43.3259L20.701 40.5L23.5269 43.3259Z" fill="#E3F0FF"/>
<path d="M31.4995 40.5002L24.2996 53.0999L21.5996 45.9001L23.5255 43.326L24.2996 44.1001L31.2115 40.3291L31.4995 40.5002Z" fill="white"/>
<path d="M53.0999 13.5002C53.0986 20.4583 47.4583 26.0986 40.5001 26.0999C40.0491 26.0989 39.5986 26.0748 39.1501 26.0279C32.751 25.3379 27.9004 19.9363 27.9004 13.5001C27.9004 7.06388 32.751 1.66228 39.1501 0.972425C39.5986 0.925492 40.0492 0.901445 40.5001 0.900391C47.4583 0.901656 53.0986 6.54203 53.0999 13.5002Z" fill="#99C8FF"/>
<path d="M39.1502 26.0277C45.3633 26.0277 50.4001 20.4189 50.4001 13.4999C50.4001 6.58105 45.3633 0.972168 39.1502 0.972168C32.9371 0.972168 27.9004 6.58105 27.9004 13.4999C27.9004 20.4189 32.9371 26.0277 39.1502 26.0277Z" fill="#E3F0FF"/>
<path d="M3.60034 49.4638C3.60119 47.2514 4.76269 45.2016 6.66025 44.0639L12.6002 40.5L12.8882 40.329L16.6591 38.0611C16.9356 37.9021 17.1043 37.606 17.1001 37.2871V34.4881C17.0985 34.3006 17.0388 34.1182 16.9291 33.9661C15.7724 32.4533 14.953 30.7101 14.5262 28.8542C14.3952 28.1867 14.0695 27.5729 13.5902 27.0903C12.9565 26.4547 12.6006 25.5938 12.6002 24.6963V21.5014C12.6007 20.9763 12.724 20.4584 12.9601 19.9894L13.1401 19.6114C13.3763 19.1424 13.4996 18.6246 13.5001 18.0995V13.5006C13.4996 11.5909 14.258 9.75925 15.6083 8.40896C16.9586 7.05867 18.7902 6.30025 20.6999 6.30078H17.9999C16.0903 6.30025 14.2586 7.05867 12.9083 8.40896C11.558 9.75925 10.7996 11.5909 10.8001 13.5006V18.0995C10.7996 18.6246 10.6763 19.1424 10.4402 19.6114L10.2602 19.9894C10.024 20.4584 9.90072 20.9763 9.9002 21.5014V24.6963C9.90051 25.5938 10.2566 26.4547 10.8902 27.0903C11.3696 27.5729 11.6952 28.1867 11.8262 28.8542C12.2531 30.7103 13.0724 32.4533 14.2292 33.9661C14.3389 34.1182 14.3987 34.3006 14.4002 34.4881V37.2871C14.4044 37.6059 14.2356 37.902 13.9592 38.0611L10.1882 40.329L9.9002 40.5L3.9603 44.0639C2.06274 45.2016 0.901129 47.2514 0.900391 49.4638V53.0998H3.60034V49.4638Z" fill="white"/>
<path d="M0.900391 52.1997H12.6003H40.4997V53.9997H12.6003H0.900391V52.1997Z" fill="white"/>
<path d="M8.73819 53.7388C8.8194 53.6529 8.88363 53.5521 8.92719 53.4421C8.97338 53.3338 8.99785 53.2175 8.99922 53.0998C8.99775 52.7359 8.77816 52.4083 8.44215 52.2688C8.10602 52.1293 7.71906 52.2049 7.46025 52.4608L7.35215 52.5957C7.31797 52.6459 7.29066 52.7004 7.27083 52.7579C7.24489 52.8089 7.22685 52.8635 7.21725 52.92C7.20713 52.9794 7.20112 53.0395 7.19922 53.0998C7.20249 53.338 7.29572 53.5663 7.46025 53.7388C7.81841 54.0785 8.37982 54.0785 8.73819 53.7388Z" fill="#2B8CFF"/>
<path d="M40.4993 0.000491127C35.4739 0.00618634 30.8671 2.80159 28.5417 7.25661C27.0948 6.06041 25.277 5.40419 23.3996 5.4004H17.9997C13.5285 5.40556 9.90503 9.02899 9.89986 13.5003V18.099C9.89891 18.4902 9.80557 18.8757 9.62744 19.224L9.45469 19.5871C9.15527 20.1807 8.99949 20.8364 8.99991 21.5013V24.6961C9.00266 25.8319 9.4531 26.9208 10.2537 27.7265C10.6065 28.0828 10.8462 28.5355 10.9427 29.0276C11.3941 31.0099 12.2662 32.8719 13.4999 34.4877L13.4954 37.2893L3.49581 43.2925C1.33437 44.5994 0.00980842 46.9378 0 49.4636V53.0996C0 53.5967 0.402989 53.9995 0.899949 53.9995H4.49985C4.99692 53.9995 5.3998 53.5966 5.3998 53.0996C5.3998 52.6025 4.99681 52.1996 4.49985 52.1996H1.7999V49.4637C1.79357 47.5655 2.79118 45.8053 4.42297 44.8355L9.57376 41.7431L15.5489 52.1996H11.6998C11.2027 52.1996 10.7998 52.6026 10.7998 53.0996C10.7998 53.5967 11.2028 53.9995 11.6998 53.9995H17.0972L17.0997 54L17.1026 53.9995H24.2967L24.2997 54L24.3021 53.9995H40.4993C40.9964 53.9995 41.3992 53.5966 41.3992 53.0996V49.4636C41.3893 46.9375 40.0643 44.599 37.9026 43.292L27.8995 37.2869V34.4939C29.1316 32.8768 30.0032 31.0145 30.4553 29.0325C30.5517 28.5386 30.7919 28.0842 31.1456 27.7265C31.9461 26.9207 32.3967 25.8319 32.3994 24.6961V24.2744C37.0934 27.8042 43.5317 27.8918 48.32 24.4911C53.1083 21.0903 55.1463 14.9825 53.3597 9.38778C51.5731 3.79308 46.3723 -0.00330568 40.4993 0.000491127ZM14.4108 38.8391C14.428 38.8291 14.4403 38.8139 14.4572 38.8033L19.1235 40.8032L16.9394 42.987L11.995 40.2895L14.4108 38.8391ZM26.9407 38.804C26.9541 38.8123 26.9639 38.8244 26.9776 38.8325L29.4044 40.2895L24.46 42.987L22.2759 40.8032L26.9407 38.804ZM21.1492 44.9996H20.2501L19.0612 43.4107L20.6996 41.7723L22.3379 43.4107L21.1492 44.9996ZM17.0992 44.9996C17.3381 44.9997 17.5672 44.9049 17.7359 44.736L17.7752 44.6967L18.7839 46.0446L16.9299 50.9887L11.9846 42.3345L16.6685 44.8898C16.8008 44.9618 16.9487 44.9996 17.0992 44.9996ZM20.4235 46.7996H20.9757L23.0006 52.1995H18.3985L20.4235 46.7996ZM22.6154 46.0446L23.6241 44.6967L23.6633 44.736C23.9456 45.0183 24.3802 45.081 24.7307 44.8897L29.4146 42.3344L24.4694 50.9886L22.6154 46.0446ZM39.5993 49.4636V52.1995H25.8504L31.8255 41.743L36.9754 44.8349C38.6076 45.8046 39.6056 47.565 39.5993 49.4636ZM29.8731 26.4537C29.2677 27.063 28.8562 27.8377 28.6901 28.6803C28.2879 30.4119 27.5192 32.0372 26.4357 33.4466C26.218 33.7501 26.1005 34.1141 26.0995 34.4876V37.2065L20.6996 39.5206L15.2997 37.2065V34.4876C15.2981 34.1107 15.1786 33.7438 14.9577 33.4382C13.876 32.0297 13.1087 30.4057 12.7078 28.6756C12.5417 27.8346 12.1305 27.0616 11.5262 26.4537C11.0623 25.9861 10.8013 25.3545 10.7998 24.6959V21.5011C10.8008 21.1099 10.8941 20.7244 11.0722 20.3761L11.245 20.013C11.5444 19.4194 11.7002 18.7637 11.6998 18.0988V13.5C11.7037 10.0224 14.5219 7.20409 17.9996 7.20019H23.3995C25.0404 7.20304 26.6156 7.84533 27.7905 8.99081C26.0908 13.7093 27.1753 18.9823 30.5994 22.647V24.6959C30.598 25.3546 30.3369 25.9862 29.8731 26.4537ZM40.4993 25.2C34.0377 25.2 28.7995 19.9618 28.7995 13.5003C28.7995 7.03872 34.0377 1.80039 40.4993 1.80039C46.9609 1.80039 52.1991 7.03861 52.1991 13.5001C52.192 19.9588 46.958 25.1928 40.4993 25.2Z" fill="#2B8CFF"/>
<path d="M41.498 5.84212C41.498 5.28983 41.0502 4.84219 40.4979 4.84229C39.9456 4.84238 39.498 5.29017 39.498 5.84246L41.498 5.84212ZM39.4998 16.4391C39.4999 16.9914 39.9477 17.439 40.5 17.4389C41.0523 17.4388 41.4999 16.991 41.4998 16.4387L39.4998 16.4391ZM39.498 5.84246L39.4998 16.4391L41.4998 16.4387L41.498 5.84212L39.498 5.84246Z" fill="#2B8CFF"/>
<circle cx="40.4977" cy="20.0445" r="1.11291" fill="#2B8CFF"/>
</g>
<defs>
<clipPath id="clip0">
<rect width="54" height="54" fill="white"/>
</clipPath>
</defs>
</svg>
