<svg width="77" height="20" viewBox="0 0 77 20" fill="none" xmlns="http://www.w3.org/2000/svg">
<g clip-path="url(#clip0)">
<path d="M28.6953 4.08984H24.4485C24.3079 4.08976 24.1719 4.13868 24.065 4.2278C23.9581 4.31691 23.8873 4.44036 23.8654 4.5759L22.1478 15.2044C22.1399 15.2537 22.1431 15.3041 22.157 15.3521C22.171 15.4002 22.1955 15.4446 22.2288 15.4825C22.2621 15.5204 22.3034 15.5509 22.3498 15.5717C22.3963 15.5925 22.4469 15.6033 22.498 15.6032H24.5255C24.6662 15.6032 24.8022 15.5542 24.9092 15.465C25.0161 15.3758 25.0868 15.2522 25.1086 15.1165L25.5718 12.2498C25.5936 12.1143 25.6642 11.9908 25.771 11.9016C25.8778 11.8123 26.0137 11.7633 26.1543 11.7632H27.4987C30.2961 11.7632 31.9107 10.442 32.3323 7.82378C32.5223 6.67833 32.3404 5.77833 31.7908 5.14803C31.1872 4.4559 30.1167 4.08984 28.6953 4.08984ZM29.1852 7.97166C28.953 9.45893 27.7887 9.45893 26.6629 9.45893H26.022L26.4716 6.68136C26.4848 6.6001 26.5272 6.52609 26.5913 6.47265C26.6554 6.41921 26.7369 6.38984 26.8212 6.38984H27.1149C27.8818 6.38984 28.6052 6.38984 28.9791 6.81651C29.202 7.07106 29.2703 7.44924 29.1852 7.97166ZM41.3897 7.92378H39.3561C39.2718 7.92378 39.1902 7.95315 39.1261 8.00659C39.0621 8.06003 39.0196 8.13404 39.0065 8.2153L38.9164 8.77045L38.7742 8.56924C38.3339 7.9456 37.3522 7.73712 36.3723 7.73712C34.125 7.73712 32.2056 9.39833 31.8318 11.7286C31.6374 12.8911 31.9138 14.0026 32.5894 14.7777C33.2091 15.4904 34.0958 15.7874 35.1509 15.7874C36.9616 15.7874 37.9657 14.6511 37.9657 14.6511L37.875 15.2026C37.867 15.2519 37.8699 15.3023 37.8838 15.3504C37.8976 15.3985 37.9219 15.4431 37.9551 15.4811C37.9882 15.5191 38.0295 15.5497 38.0759 15.5706C38.1223 15.5916 38.1729 15.6025 38.224 15.6026H40.0559C40.1966 15.6026 40.3326 15.5536 40.4396 15.4644C40.5465 15.3751 40.6172 15.2516 40.639 15.1159L41.7381 8.32257C41.7462 8.27337 41.7432 8.22304 41.7294 8.17507C41.7157 8.12709 41.6914 8.0826 41.6582 8.04468C41.6251 8.00677 41.584 7.97632 41.5376 7.95544C41.4912 7.93457 41.4408 7.92377 41.3897 7.92378ZM38.555 11.7868C38.3588 12.9208 37.4366 13.682 36.2605 13.682C35.67 13.682 35.1981 13.4971 34.895 13.1468C34.5945 12.7989 34.4802 12.3038 34.5758 11.7523C34.759 10.628 35.6967 9.84197 36.8548 9.84197C37.4323 9.84197 37.9018 10.0292 38.211 10.3826C38.5209 10.7395 38.6438 11.2377 38.555 11.7868ZM52.2206 7.92378H50.177C50.0807 7.92393 49.9858 7.94703 49.9006 7.99107C49.8155 8.03511 49.7426 8.09876 49.6883 8.17651L46.8698 12.2286L45.675 8.33469C45.6384 8.21593 45.5635 8.11184 45.4615 8.03784C45.3595 7.96383 45.2358 7.92384 45.1087 7.92378H43.1005C43.0441 7.92364 42.9885 7.93663 42.9383 7.96169C42.8882 7.98675 42.8448 8.02314 42.812 8.06785C42.7791 8.11255 42.7577 8.16427 42.7494 8.21869C42.7412 8.27312 42.7463 8.32868 42.7645 8.38075L45.0156 14.828L42.8993 17.7438C42.8617 17.7955 42.8394 17.8563 42.8348 17.9195C42.8303 17.9828 42.8436 18.046 42.8734 18.1024C42.9033 18.1587 42.9484 18.2059 43.0039 18.2389C43.0594 18.2718 43.1231 18.2893 43.1881 18.2892H45.2292C45.3245 18.2894 45.4184 18.2669 45.5028 18.2239C45.5873 18.1808 45.6598 18.1184 45.7141 18.042L52.5113 8.46621C52.5481 8.4144 52.5697 8.35374 52.5737 8.2908C52.5778 8.22786 52.5641 8.16504 52.5341 8.10916C52.5042 8.05328 52.4592 8.00646 52.4039 7.97378C52.3486 7.9411 52.2853 7.92381 52.2206 7.92378Z" fill="#253B80"/>
<path d="M58.9864 4.09045H54.739C54.5985 4.09051 54.4626 4.1395 54.3559 4.2286C54.2491 4.3177 54.1784 4.44107 54.1565 4.57651L52.4389 15.205C52.4309 15.2542 52.434 15.3046 52.4478 15.3525C52.4617 15.4005 52.4861 15.445 52.5192 15.4829C52.5524 15.5208 52.5936 15.5512 52.64 15.5721C52.6864 15.593 52.7368 15.6038 52.7879 15.6038H54.9675C55.0658 15.6036 55.1609 15.5693 55.2356 15.5068C55.3102 15.4444 55.3596 15.358 55.3749 15.2632L55.8623 12.2504C55.8841 12.1149 55.9547 11.9914 56.0615 11.9022C56.1683 11.8129 56.3042 11.7639 56.4448 11.7638H57.7886C60.5866 11.7638 62.2005 10.4426 62.6228 7.82439C62.8134 6.67893 62.6302 5.77893 62.0807 5.14863C61.4777 4.45651 60.4078 4.09045 58.9864 4.09045ZM59.4763 7.97227C59.2447 9.45954 58.0804 9.45954 56.954 9.45954H56.3138L56.764 6.68196C56.7769 6.6007 56.8192 6.52663 56.8832 6.47316C56.9472 6.41969 57.0287 6.39035 57.1129 6.39045H57.4067C58.1729 6.39045 58.897 6.39045 59.2708 6.81712C59.4937 7.07166 59.5614 7.44984 59.4763 7.97227ZM71.6802 7.92439H69.6478C69.5635 7.92416 69.4819 7.95346 69.4179 8.00695C69.3538 8.06045 69.3116 8.13459 69.2988 8.2159L69.2088 8.77106L69.066 8.56984C68.6257 7.94621 67.6446 7.73772 66.6647 7.73772C64.4174 7.73772 62.4986 9.39894 62.1248 11.7292C61.931 12.8917 62.2061 14.0032 62.8817 14.7783C63.5027 15.4911 64.3882 15.788 65.4432 15.788C67.254 15.788 68.2581 14.6517 68.2581 14.6517L68.1674 15.2032C68.1593 15.2526 68.1623 15.3031 68.1762 15.3513C68.1901 15.3995 68.2145 15.4441 68.2478 15.4821C68.2811 15.5202 68.3225 15.5507 68.3691 15.5716C68.4157 15.5925 68.4664 15.6033 68.5176 15.6032H70.3489C70.4894 15.6031 70.6254 15.554 70.7322 15.4648C70.839 15.3756 70.9096 15.2521 70.9313 15.1165L72.0311 8.32318C72.0389 8.27382 72.0356 8.22341 72.0216 8.17539C72.0075 8.12737 71.983 8.08289 71.9496 8.04501C71.9163 8.00712 71.875 7.97672 71.8285 7.9559C71.782 7.93508 71.7314 7.92433 71.6802 7.92439ZM68.8455 11.7874C68.6505 12.9214 67.7271 13.6826 66.551 13.6826C65.9617 13.6826 65.4886 13.4977 65.1855 13.1474C64.885 12.7995 64.772 12.3044 64.8663 11.7529C65.0508 10.6286 65.9872 9.84257 67.1453 9.84257C67.7228 9.84257 68.1923 10.0298 68.5015 10.3832C68.8126 10.7401 68.9356 11.2383 68.8455 11.7874ZM74.0778 4.38196L72.3347 15.205C72.3267 15.2542 72.3298 15.3046 72.3436 15.3525C72.3575 15.4005 72.3819 15.445 72.415 15.4829C72.4482 15.5208 72.4894 15.5512 72.5358 15.5721C72.5822 15.593 72.6326 15.6038 72.6837 15.6038H74.4361C74.7273 15.6038 74.9745 15.3977 75.0192 15.1171L76.738 4.48924C76.746 4.43997 76.7429 4.38961 76.7291 4.3416C76.7152 4.29359 76.6909 4.24909 76.6577 4.21114C76.6246 4.17319 76.5834 4.14269 76.537 4.12176C76.4906 4.10082 76.4401 4.08993 76.389 4.08984H74.4268C74.3425 4.09013 74.2611 4.11969 74.1972 4.17322C74.1332 4.22675 74.0909 4.30075 74.0778 4.38196Z" fill="#179BD7"/>
<path d="M4.51131 17.6696L4.83607 15.6562L4.11265 15.6399H0.658203L3.05886 0.783521C3.06601 0.738128 3.08963 0.696753 3.12543 0.666938C3.16122 0.637123 3.20679 0.620854 3.25385 0.621096H9.07853C11.0122 0.621096 12.3467 1.01382 13.0434 1.78898C13.37 2.15261 13.5781 2.53261 13.6787 2.95079C13.7842 3.38958 13.7861 3.91382 13.683 4.55322L13.6755 4.59988V5.00958L14.0022 5.19019C14.2515 5.31348 14.4757 5.48027 14.6635 5.68231C14.9429 5.99322 15.1236 6.38837 15.2 6.85685C15.2789 7.33867 15.2528 7.91201 15.1236 8.5611C14.9746 9.30776 14.7337 9.95807 14.4083 10.4902C14.1212 10.9669 13.7352 11.3798 13.275 11.7023C12.8428 12.0017 12.3293 12.229 11.7487 12.3744C11.1861 12.5175 10.5446 12.5896 9.84107 12.5896H9.38777C9.06362 12.5896 8.74879 12.7035 8.50165 12.9078C8.25485 13.1142 8.09113 13.3994 8.03965 13.7126L8.00549 13.8938L7.43172 17.4423L7.40564 17.5726C7.39881 17.6138 7.38701 17.6344 7.36962 17.6484C7.35278 17.6618 7.33177 17.6693 7.31001 17.6696H4.51131Z" fill="#253B80"/>
<path d="M14.3121 4.64648C14.2947 4.75497 14.2748 4.86588 14.2525 4.97982C13.4843 8.82891 10.8564 10.1586 7.50005 10.1586H5.79115C5.38069 10.1586 5.03481 10.4495 4.97085 10.8447L4.09591 16.2604L3.84814 17.7956C3.83827 17.8565 3.84204 17.9187 3.85919 17.9781C3.87634 18.0374 3.90645 18.0924 3.94747 18.1393C3.98849 18.1862 4.03943 18.2238 4.09678 18.2497C4.15414 18.2755 4.21655 18.2889 4.27972 18.2889H7.31066C7.66958 18.2889 7.97447 18.0344 8.03098 17.6889L8.06079 17.5386L8.63146 14.0041L8.66809 13.8101C8.72398 13.4635 9.0295 13.2089 9.38842 13.2089H9.84172C12.7783 13.2089 15.0771 12.0453 15.749 8.678C16.0297 7.27133 15.8844 6.09679 15.1417 5.27073C14.9063 5.01519 14.6252 4.80365 14.3121 4.64648Z" fill="#179BD7"/>
<path d="M13.5094 4.33376C13.2641 4.26451 13.0146 4.21047 12.7623 4.17194C12.2639 4.09718 11.7602 4.06131 11.2559 4.06467H6.69052C6.51678 4.06454 6.34872 4.12508 6.21672 4.23534C6.08472 4.34561 5.9975 4.49832 5.97082 4.66588L4.99962 10.6695L4.97168 10.8447C5.00194 10.6535 5.10128 10.4793 5.25174 10.3535C5.4022 10.2276 5.59383 10.1585 5.79198 10.1586H7.50088C10.8572 10.1586 13.4851 8.8283 14.2533 4.97982C14.2763 4.86588 14.2955 4.75497 14.3129 4.64649C14.1102 4.54275 13.899 4.45578 13.6814 4.38649C13.6243 4.36801 13.567 4.35044 13.5094 4.33376Z" fill="#222D65"/>
<path d="M5.96993 4.66606C5.99638 4.49845 6.08356 4.34567 6.21562 4.23546C6.34769 4.12525 6.51587 4.06493 6.68963 4.06545H11.255C11.7958 4.06545 12.3007 4.1 12.7615 4.17273C13.0732 4.22055 13.3807 4.29208 13.6811 4.38667C13.9078 4.46 14.1183 4.54667 14.3126 4.64667C14.5411 3.22424 14.3108 2.25576 13.5228 1.37879C12.654 0.413333 11.0861 0 9.07973 0H3.25506C2.84522 0 2.49561 0.290909 2.43227 0.686667L0.00615361 15.6958C-0.00514686 15.7654 -0.000847413 15.8367 0.0187562 15.9046C0.0383598 15.9725 0.0728023 16.0355 0.119715 16.0891C0.166627 16.1428 0.224895 16.1859 0.290512 16.2155C0.356129 16.2451 0.427536 16.2605 0.499823 16.2606H4.09585L4.99873 10.6697L5.96993 4.66606Z" fill="#253B80"/>
</g>
<defs>
<clipPath id="clip0">
<rect width="77" height="20" fill="white"/>
</clipPath>
</defs>
</svg>
