<svg width="40" height="20" viewBox="0 0 40 20" fill="none" xmlns="http://www.w3.org/2000/svg">
<path d="M19.6064 12.2543H20.2324V13.6446H20.6846L21.4962 12.2543H22.1805L21.2064 13.886V13.8975L22.2385 15.6782H21.5311L20.6962 14.1843H20.2443V15.6782H19.618V12.2539H19.6064V12.2543ZM23.6414 13.1621C24.3946 13.1621 25.0093 13.7021 25.0093 14.4489C25.0093 15.2075 24.4064 15.736 23.6529 15.736C22.8991 15.736 22.2962 15.2075 22.2962 14.4489C22.2846 13.6907 22.8875 13.1621 23.6414 13.1621ZM25.4962 13.2193H26.0875V15.15H26.8645V13.2196H27.4555V15.15H28.2324V13.2196H28.8237V15.6782H25.5192V13.2193H25.4962ZM30.5747 13.1621C31.2818 13.1621 31.676 13.6793 31.676 14.3228C31.6741 14.4036 31.6663 14.4842 31.6529 14.5639H29.9484C29.9834 14.9889 30.3196 15.2189 30.6908 15.2189C30.9455 15.2189 31.2007 15.1039 31.3978 14.9546L31.6414 15.3914C31.3863 15.6093 31.0036 15.7475 30.6443 15.7475C29.8209 15.7475 29.3109 15.1614 29.3109 14.4603C29.3109 13.6907 29.8324 13.1621 30.5747 13.1621ZM31.9657 15.1614C32.2673 15.1153 32.4875 14.8628 32.4875 13.9893V13.2196H34.2965V15.6782H33.6818V13.7132H33.0789V13.9889C33.0789 15.0575 32.7891 15.6782 31.9657 15.701V15.161V15.1614ZM36.0587 13.1621C36.7657 13.1621 37.16 13.6793 37.16 14.3228C37.158 14.4036 37.1503 14.4842 37.1369 14.5639H35.4324C35.4673 14.9889 35.8036 15.2189 36.1747 15.2189C36.4295 15.2189 36.6846 15.1039 36.8818 14.9546L37.1254 15.3914C36.8702 15.6093 36.4875 15.7475 36.1282 15.7475C35.3052 15.7475 34.7949 15.1614 34.7949 14.4603C34.7949 13.6907 35.3167 13.1621 36.0587 13.1621ZM37.6702 13.2193H38.2846V14.1618H38.5863L39.1891 13.2196H39.8731L39.0846 14.3914V14.4032L39.9657 15.6782H39.2472L38.5978 14.6789H38.2735V15.6782H37.6583V13.2193H37.6699H37.6702ZM23.6414 15.2075C24.0472 15.2075 24.3834 14.8971 24.3834 14.4375C24.3834 13.9893 24.0472 13.6675 23.641 13.6675C23.2356 13.6675 22.911 13.9782 22.911 14.4375C22.911 14.8971 23.2353 15.2075 23.6414 15.2075ZM31.05 14.1389C31.05 13.8171 30.8295 13.6218 30.5513 13.6218C30.2385 13.6218 30.0064 13.8285 29.9484 14.1389H31.05ZM36.534 14.1389C36.534 13.8171 36.3138 13.6218 36.0356 13.6218C35.7221 13.6218 35.4904 13.8285 35.4324 14.1389H36.534Z" fill="#2D3540"/>
<path d="M28.2671 4.79738V10.6002C28.2675 10.6215 28.2637 10.6426 28.2557 10.6623C28.2477 10.682 28.2358 10.6999 28.2207 10.715C28.2055 10.73 28.1874 10.7418 28.1675 10.7497C28.1476 10.7576 28.1263 10.7614 28.1049 10.7609H26.9107C26.8892 10.7614 26.8679 10.7576 26.848 10.7497C26.8281 10.7418 26.8101 10.73 26.7949 10.715C26.7797 10.6999 26.7678 10.682 26.7598 10.6623C26.7519 10.6426 26.748 10.6215 26.7485 10.6002V4.79738C26.748 4.77614 26.7519 4.75502 26.7598 4.7353C26.7678 4.71558 26.7797 4.69767 26.7949 4.68265C26.8101 4.66763 26.8281 4.65581 26.848 4.6479C26.8679 4.64 26.8892 4.63617 26.9107 4.63666H28.1049C28.1263 4.63617 28.1476 4.64 28.1675 4.6479C28.1874 4.65581 28.2055 4.66763 28.2207 4.68265C28.2358 4.69767 28.2477 4.71558 28.2557 4.7353C28.2637 4.75502 28.2675 4.77614 28.2671 4.79738ZM37.5889 4.63666C37.6353 4.63666 37.6934 4.65952 37.751 4.70559C37.786 4.73988 37.786 4.79738 37.7744 4.84345L35.8033 10.6577C35.7913 10.6878 35.7706 10.7137 35.7438 10.7322C35.717 10.7506 35.6853 10.7607 35.6526 10.7613H34.586C34.5164 10.7613 34.4584 10.7267 34.4353 10.6577L33.2869 7.26809L32.1391 10.6574C32.1272 10.6875 32.1065 10.7134 32.0797 10.7318C32.0528 10.7502 32.0211 10.7604 31.9885 10.7609H30.9218C30.8523 10.7609 30.7943 10.7267 30.7712 10.6574L28.8 4.84309C28.7885 4.79738 28.7885 4.75131 28.8231 4.70559C28.8465 4.65952 28.9045 4.63666 28.9507 4.63666H30.284C30.3535 4.63666 30.4116 4.68238 30.435 4.75131L31.4898 8.18702L32.6494 4.75131C32.6614 4.72122 32.6821 4.69532 32.7089 4.67689C32.7357 4.65845 32.7674 4.64831 32.8 4.64773H33.7391C33.8087 4.64773 33.8667 4.68238 33.8898 4.75131L35.0494 8.18702L36.1045 4.75131C36.114 4.71876 36.1337 4.69007 36.1608 4.66944C36.1879 4.64881 36.221 4.63732 36.2552 4.63666H37.5885H37.5889ZM39.6062 4.63666C39.6872 4.63666 39.7568 4.70559 39.7683 4.79738V10.6002C39.7688 10.6215 39.7649 10.6426 39.757 10.6623C39.749 10.682 39.7371 10.6999 39.7219 10.715C39.7068 10.73 39.6887 10.7418 39.6688 10.7497C39.6489 10.7576 39.6276 10.7614 39.6062 10.7609H38.4119C38.3905 10.7614 38.3692 10.7576 38.3493 10.7497C38.3294 10.7418 38.3113 10.73 38.2962 10.715C38.281 10.6999 38.2691 10.682 38.2611 10.6623C38.2531 10.6426 38.2493 10.6215 38.2498 10.6002V4.79738C38.2493 4.77614 38.2531 4.75502 38.2611 4.7353C38.2691 4.71558 38.281 4.69767 38.2962 4.68265C38.3113 4.66763 38.3294 4.65581 38.3493 4.6479C38.3692 4.64 38.3905 4.63617 38.4119 4.63666H39.6062ZM26.0526 10.5545C26.1222 10.6349 26.0642 10.7495 25.9597 10.7495H24.4988C24.47 10.7503 24.4414 10.7445 24.4153 10.7325C24.3892 10.7206 24.3662 10.7028 24.3481 10.6806L24.1049 10.382C23.5946 10.7034 22.9914 10.8992 22.3539 10.8992C20.5687 10.8992 19.1193 9.46273 19.1193 7.69309C19.1193 5.92345 20.5687 4.48702 22.3539 4.48702C24.1395 4.48702 25.5889 5.92345 25.5889 7.69309C25.5889 8.32523 25.4033 8.92273 25.0786 9.42809L26.0526 10.5542V10.5545ZM13.8436 13.3695C14.1453 13.4845 14.2613 13.9324 14.2844 14.1277C14.3308 14.4842 14.2267 14.622 14.1107 14.622C13.9946 14.622 13.8321 14.4842 13.6584 14.2084C13.4844 13.9324 13.4148 13.6224 13.5078 13.4613C13.5654 13.3577 13.693 13.312 13.844 13.3695H13.8436ZM12.0815 14.6681C12.2671 14.6681 12.4757 14.7484 12.6613 14.9092C13.0206 15.2081 13.1251 15.5527 12.9395 15.8056C12.835 15.932 12.6613 16.0124 12.4642 16.0124C12.2671 16.0124 12.0584 15.9434 11.9193 15.817C11.5946 15.5413 11.502 15.0813 11.7103 14.8288C11.7917 14.7252 11.9193 14.6681 12.0815 14.6681ZM8.02381 17.9888C3.61769 17.9888 0.046875 14.4495 0.046875 10.0831C0.046875 5.71666 3.61805 2.17773 8.02345 2.17773C12.4292 2.17773 16.0004 5.71702 16.0004 10.0831C16.0004 11.5652 15.5831 12.9559 14.8761 14.1395C14.8526 14.1738 14.7946 14.1624 14.7831 14.1163C14.5049 12.1745 13.3107 11.1056 11.5716 10.7842C11.4206 10.7609 11.3975 10.6692 11.5946 10.6463C12.128 10.6002 12.8815 10.6117 13.2757 10.6806C13.2988 10.4852 13.3107 10.2784 13.3107 10.0717C13.3107 7.18738 10.9453 4.84309 8.03498 4.84309C5.12507 4.84309 2.75967 7.18738 2.75967 10.0717C2.75967 12.9559 5.12507 15.3002 8.03534 15.3002H8.27859C8.19595 14.8337 8.16094 14.3601 8.17408 13.8867C8.18597 13.5649 8.25552 13.5188 8.39462 13.7717C9.12507 15.0242 10.1687 16.1502 12.209 16.5984C13.8786 16.9663 15.5481 17.3913 17.3453 19.6549C17.5074 19.8502 17.2642 20.057 17.0786 19.8963C15.2469 18.2874 13.5773 17.7588 12.0584 17.7588C10.3539 17.7706 9.19462 17.9888 8.02345 17.9888H8.02381ZM23.1539 9.26738L22.5161 8.49738C22.4469 8.41702 22.5049 8.29059 22.609 8.29059H23.9539C24.0235 8.10666 24.0584 7.89988 24.0584 7.69309C24.0584 6.73952 23.3395 5.91202 22.3539 5.91202C21.3687 5.91202 20.6494 6.73952 20.6494 7.69309C20.6494 8.64666 21.3687 9.46273 22.3539 9.46273C22.6321 9.47416 22.9107 9.39381 23.1539 9.26738Z" fill="#FF8C00"/>
</svg>
