<svg xmlns="http://www.w3.org/2000/svg" width="54" height="54" fill="none" viewBox="0 0 54 54"><path fill="#99C8FF" d="M47.7 9v40.5a3.6 3.6 0 01-3.6 3.6H9.9a3.6 3.6 0 01-3.6-3.6V9h41.4z"/><path fill="#E3F0FF" d="M45 9v40.5a3.6 3.6 0 01-3.6 3.6H9.9a3.6 3.6 0 01-3.6-3.6V9H45z"/><path fill="#99C8FF" d="M16.2 19.8h21.6c.5 0 .9.4.9.9v21.6c0 .5-.4.9-.9.9H16.2a.9.9 0 01-.9-.9V20.7c0-.5.4-.9.9-.9z"/><path fill="#E3F0FF" d="M16.2 19.8h18.9c.5 0 .9.4.9.9v21.6c0 .5-.4.9-.9.9H16.2a.9.9 0 01-.9-.9V20.7c0-.5.4-.9.9-.9z"/><path fill="#99C8FF" d="M47.7 7.2v4.5H6.3V7.2A2.7 2.7 0 019 4.5h36a2.7 2.7 0 012.7 2.7z"/><path fill="#E3F0FF" d="M45 7.2v4.5H6.3V7.2A2.7 2.7 0 019 4.5h33.3A2.7 2.7 0 0145 7.2z"/><path fill="#99C8FF" d="M13.5.9c1 0 1.8.8 1.8 1.8v3.6a1.8 1.8 0 01-3.6 0V2.7c0-1 .8-1.8 1.8-1.8zM40.5.9c1 0 1.8.8 1.8 1.8v3.6a1.8 1.8 0 01-3.6 0V2.7c0-1 .8-1.8 1.8-1.8z"/><path fill="#fff" d="M9.9 53.1h2.7A3.6 3.6 0 019 49.5V7.2a2.7 2.7 0 012.7-2.7H9a2.7 2.7 0 00-2.7 2.7v42.3a3.6 3.6 0 003.6 3.6z"/><path fill="#fff" d="M7.2 11.7v37.8H5.4V11.7h1.8z"/><path fill="#2B8CFF" d="M5.4 49.5A4.5 4.5 0 009.9 54h34.2a4.5 4.5 0 004.5-4.5V7.2A3.6 3.6 0 0045 3.6h-1.8v-.9a2.7 2.7 0 00-5.4 0v.9H16.2v-.9a2.7 2.7 0 10-5.4 0v.9H9a3.6 3.6 0 00-3.6 3.6v8.1a.9.9 0 101.8 0v-2.7h39.6v36.9c0 1.5-1.2 2.7-2.7 2.7H9.9a2.7 2.7 0 01-2.7-2.7v-27a.9.9 0 10-1.8 0v27zM39.6 2.7a.9.9 0 011.8 0v3.6a.9.9 0 11-1.8 0V2.7zm-27 0a.9.9 0 111.8 0v3.6a.9.9 0 11-1.8 0V2.7zm-5.4 8.1V7.2c0-1 .8-1.8 1.8-1.8h1.8v.9a2.7 2.7 0 005.4 0v-.9h21.6v.9a2.7 2.7 0 005.4 0v-.9H45c1 0 1.8.8 1.8 1.8v3.6H7.2z"/><path fill="#2B8CFF" d="M6.3 19.8a.9.9 0 00.64-1.54l-.14-.1a.69.69 0 00-.16-.09.58.58 0 00-.16-.05.95.95 0 00-.82.24.93.93 0 000 1.28c.09.08.19.14.3.19.1.04.22.07.34.07zM22.3 32.72a.9.9 0 00-1.4 1.16l4.5 5.4c.17.19.4.3.65.32h.05a.9.9 0 00.62-.25l16.2-15.3a.9.9 0 10-1.24-1.3l-15.5 14.64-3.89-4.67z"/><path fill="#2B8CFF" d="M38.7 18.9H16.2c-1 0-1.8.8-1.8 1.8v21.6c0 1 .8 1.8 1.8 1.8h21.6c1 0 1.8-.8 1.8-1.8V31.5a.9.9 0 10-1.8 0v10.8H16.2V20.7h21.6v.9a.9.9 0 101.8 0v-1.8c0-.5-.4-.9-.9-.9z"/></svg>