<svg width="54" height="54" viewBox="0 0 54 54" fill="none" xmlns="http://www.w3.org/2000/svg">
<g clip-path="url(#clip0)">
<path d="M38.695 8.00036V1.80004C38.695 1.30326 38.2922 0.900391 37.7954 0.900391H17.9982C17.5014 0.900391 17.0985 1.30326 17.0985 1.80004V8.00036L15.2988 8.99887L16.1985 9.89894H39.5951L40.4952 8.99887L38.695 8.00036Z" fill="#E3F0FF"/>
<path d="M25.1971 47.6921C25.1971 50.674 22.7799 53.0912 19.798 53.0912C19.3428 53.09 18.8897 53.0327 18.4481 52.9203C16.0647 52.3073 14.3984 50.1579 14.3984 47.6966C14.3984 45.2354 16.0647 43.0863 18.4481 42.473C18.8884 42.3535 19.342 42.293 19.798 42.293C22.7799 42.293 25.1971 44.7102 25.1971 47.6921Z" fill="#99C8FF"/>
<path d="M43.1946 47.6921C43.1946 50.674 40.7774 53.0912 37.7955 53.0912C37.3403 53.09 36.8867 53.0327 36.4456 52.9203C34.0618 52.3073 32.3955 50.1579 32.3955 47.6966C32.3955 45.2354 34.0618 43.0863 36.4456 42.473C36.8855 42.3535 37.3395 42.293 37.7955 42.293C40.7774 42.293 43.1946 44.7102 43.1946 47.6921Z" fill="#99C8FF"/>
<path d="M22.4977 47.6937C22.492 50.1542 20.8286 52.3011 18.4481 52.9219C16.0647 52.3089 14.3984 50.1595 14.3984 47.6983C14.3984 45.237 16.0647 43.088 18.4481 42.4746C20.829 43.0892 22.4936 45.2349 22.4977 47.6937Z" fill="#E3F0FF"/>
<path d="M40.4952 47.6937C40.489 50.1542 38.8261 52.3011 36.4456 52.9219C34.0617 52.3089 32.3955 50.1595 32.3955 47.6983C32.3955 45.237 34.0617 43.088 36.4456 42.4746C38.8265 43.0892 40.4911 45.2349 40.4952 47.6937Z" fill="#E3F0FF"/>
<path d="M51.2123 15.8106L45.795 33.8081C45.5631 34.5726 44.8575 35.0954 44.0583 35.095H8.86453L7.51465 13.498H49.4847C50.0531 13.4972 50.5886 13.765 50.9293 14.2206C51.2695 14.6762 51.3746 15.2656 51.2123 15.8106Z" fill="#99C8FF"/>
<path d="M48.5129 15.8106L43.0957 33.8081C42.8633 34.5726 42.1581 35.0954 41.359 35.095H8.86453L7.51465 13.498H46.7849C47.3538 13.4972 47.8893 13.765 48.2295 14.2206C48.5698 14.6762 48.6748 15.2656 48.5129 15.8106Z" fill="#E3F0FF"/>
<path d="M40.4952 8.99805V28.7953C40.4952 29.2925 40.0919 29.6953 39.5951 29.6953H16.1985C15.7017 29.6953 15.2988 29.2925 15.2988 28.7953V8.99805H40.4952Z" fill="#99C8FF"/>
<path d="M37.7956 8.99805V28.7953C37.819 29.2645 37.4611 29.6657 36.9919 29.6953H16.1022C15.6335 29.6657 15.2751 29.2645 15.299 28.7953V8.99805H37.7956Z" fill="#E3F0FF"/>
<path d="M23.3974 4.49951L17.0987 8.00006V1.79974C17.097 1.54105 17.2086 1.2943 17.4043 1.125L23.3974 4.49951Z" fill="#99C8FF"/>
<path d="M38.6948 1.79974L38.6952 8.00006L32.396 4.49951L38.3891 1.125C38.5848 1.2943 38.6968 1.54105 38.6948 1.79974Z" fill="#99C8FF"/>
<path d="M40.4949 8.99906H32.396V4.5L38.6948 8.00055L40.4949 8.99906Z" fill="#E3F0FF"/>
<path d="M23.3973 4.5V8.99906H15.2988L17.0985 8.00055L23.3973 4.5Z" fill="#E3F0FF"/>
<path d="M24.2972 14.3978C24.2972 15.3918 23.4914 16.1975 22.4975 16.1975C21.5035 16.1975 20.6978 15.3918 20.6978 14.3978C20.6978 13.4038 21.5035 12.5977 22.4975 12.5977C23.4914 12.5977 24.2972 13.4038 24.2972 14.3978Z" fill="#99C8FF"/>
<path d="M35.0955 14.3978C35.0955 15.3918 34.2898 16.1975 33.2958 16.1975C32.3018 16.1975 31.4961 15.3918 31.4961 14.3978C31.4961 13.4038 32.3018 12.5977 33.2958 12.5977C34.2898 12.5977 35.0955 13.4038 35.0955 14.3978Z" fill="#99C8FF"/>
<path d="M18.4481 42.473C16.0647 43.0863 14.3984 45.2354 14.3984 47.6966C14.3984 50.1579 16.0647 52.3073 18.4481 52.9203C18.8897 53.0327 19.3428 53.09 19.798 53.0912C20.2499 53.0896 20.6997 53.0311 21.1371 52.917C18.7574 52.2987 17.097 50.1492 17.0994 47.6909C17.1019 45.2321 18.7669 43.0863 21.1479 42.473H21.1532C20.7112 42.3556 20.2556 42.295 19.798 42.293C19.342 42.293 18.8884 42.3535 18.4481 42.473Z" fill="white"/>
<path d="M11.5643 35.095L10.2144 13.498H7.51465L8.86453 35.095H11.5643Z" fill="white"/>
<path d="M7.90812 34.2499L7.17819 22.5751L6.61426 13.5526L8.41026 13.4414L8.9746 22.4626L9.70412 34.1383L7.90812 34.2499Z" fill="white"/>
<path d="M8.06747 27.8586C8.1202 27.8812 8.17581 27.8957 8.23306 27.9018C8.29279 27.908 8.35293 27.9105 8.41308 27.9088C8.65076 27.8903 8.87237 27.7832 9.03467 27.6081C9.11047 27.5175 9.16814 27.4129 9.2048 27.3004C9.28842 27.0759 9.27606 26.8271 9.17061 26.6117C9.06516 26.3967 8.87567 26.2344 8.64705 26.1631C8.53583 26.1231 8.41802 26.1058 8.30021 26.1128C7.93606 26.1343 7.62094 26.374 7.50272 26.7192C7.38449 27.0644 7.48624 27.4471 7.76058 27.6876L7.9027 27.7873C7.95419 27.8182 8.00939 27.8421 8.06747 27.8586Z" fill="#2B8CFF"/>
<path d="M19.798 50.3933C21.2892 50.3933 22.4978 49.1847 22.4978 47.6935C22.4978 46.2027 21.2892 44.9941 19.798 44.9941C19.3012 44.9941 18.8983 45.397 18.8983 45.8938C18.8983 46.391 19.3012 46.7939 19.798 46.7939C20.2952 46.7939 20.698 47.1967 20.698 47.6935C20.698 48.1907 20.2952 48.5936 19.798 48.5936C19.3012 48.5936 18.8983 48.1907 18.8983 47.6935C18.8983 47.1967 18.4955 46.7939 17.9983 46.7939C17.5015 46.7939 17.0986 47.1967 17.0986 47.6935C17.0986 49.1847 18.3072 50.3933 19.798 50.3933Z" fill="#2B8CFF"/>
<path d="M37.7955 50.3933C39.2862 50.3933 40.4953 49.1847 40.4953 47.6935C40.4953 46.2027 39.2862 44.9941 37.7955 44.9941C37.2983 44.9941 36.8954 45.397 36.8954 45.8938C36.8954 46.391 37.2983 46.7939 37.7955 46.7939C38.2923 46.7939 38.6951 47.1967 38.6951 47.6935C38.6951 48.1907 38.2923 48.5936 37.7955 48.5936C37.2983 48.5936 36.8954 48.1907 36.8954 47.6935C36.8954 47.1967 36.4926 46.7939 35.9958 46.7939C35.4986 46.7939 35.0957 47.1967 35.0957 47.6935C35.0957 49.1847 36.3043 50.3933 37.7955 50.3933Z" fill="#2B8CFF"/>
<path d="M38.9698 0.449824C38.95 0.433759 38.9311 0.416458 38.9105 0.401217C38.5953 0.144586 38.2019 0.00288349 37.7954 0H17.9982C17.5928 0.00164771 17.2003 0.141703 16.8851 0.396686C16.8633 0.412751 16.8419 0.42964 16.8221 0.448177C16.4279 0.786781 16.2001 1.27986 16.1985 1.79971V7.46906L14.8622 8.21135C14.8304 8.23524 14.8004 8.2612 14.7724 8.2888C14.7217 8.32381 14.6751 8.36377 14.6327 8.40825C14.5956 8.45233 14.5635 8.50011 14.5363 8.55037C14.5063 8.59815 14.4807 8.64841 14.4601 8.70072C14.4412 8.75922 14.4288 8.81977 14.423 8.88073C14.4119 8.91946 14.4041 8.959 14.3987 8.99855V12.598H8.35784L7.73994 2.64375C7.71029 2.1688 7.31566 1.79889 6.83988 1.79971H2.70043C2.20365 1.79971 1.80078 2.20257 1.80078 2.69977C1.80078 3.19655 2.20365 3.59942 2.70043 3.59942H5.99214L6.61415 13.5536L7.2341 23.4732C7.26499 23.97 7.69299 24.3478 8.19018 24.3169C8.68696 24.2856 9.0647 23.8576 9.03381 23.3604L8.47029 14.3981H14.3987V28.7958H12.599C12.1023 28.7958 11.699 29.1986 11.699 29.6958C11.699 30.1926 12.1023 30.5955 12.599 30.5955H43.1945C43.6917 30.5955 44.0946 30.1926 44.0946 29.6958C44.0946 29.1986 43.6917 28.7958 43.1945 28.7958H41.3948V14.3981H49.4875C49.7754 14.396 50.0473 14.5328 50.2179 14.7651C50.3863 14.9904 50.4366 15.2829 50.353 15.5515L44.9378 33.549C44.8208 33.935 44.4645 34.199 44.0612 34.1986H9.70772V34.143L9.48281 30.5497C9.45191 30.0525 9.02351 29.6748 8.52673 29.7061C8.02953 29.737 7.65179 30.165 7.6831 30.6622L7.90801 34.2542L8.13745 37.8981C8.14487 40.8211 10.5139 43.1881 13.4369 43.1938H15.3977C13.5646 44.9833 12.9982 47.704 13.9642 50.0763C14.9301 52.449 17.2365 53.9999 19.7979 53.9999C22.3596 53.9999 24.666 52.449 25.632 50.0763C26.598 47.704 26.0312 44.9833 24.1985 43.1938H33.3952C31.5621 44.9833 30.9953 47.704 31.9613 50.0763C32.9276 52.449 35.234 53.9999 37.7954 53.9999C40.3567 53.9999 42.6631 52.449 43.6295 50.0763C44.5955 47.704 44.0287 44.9833 42.1956 43.1938H48.5936C49.0908 43.1938 49.4937 42.791 49.4937 42.2938C49.4937 41.797 49.0908 41.3941 48.5936 41.3941H13.4369C12.5002 41.3896 11.6038 41.0119 10.9468 40.3441C10.2898 39.6768 9.92563 38.7751 9.93552 37.8384L9.82018 35.9946H44.0612C45.2587 35.9987 46.3161 35.2144 46.66 34.0672L52.0761 16.0697C52.3203 15.2524 52.1634 14.3676 51.6534 13.6838C51.1435 13 50.3402 12.5976 49.4875 12.598H41.3948V8.99855C41.3899 8.96024 41.382 8.92193 41.3713 8.88444C41.3655 8.82306 41.3532 8.76292 41.3347 8.70443C41.3141 8.65211 41.2885 8.60186 41.258 8.55408C41.2308 8.50341 41.1987 8.45604 41.1616 8.41196C41.1196 8.36747 41.0727 8.3271 41.0224 8.29209C40.994 8.26449 40.9639 8.23895 40.9322 8.21506L39.5951 7.46906V1.79971C39.5922 1.28027 39.364 0.788016 38.9698 0.449824ZM42.2949 47.6929C42.2949 50.1781 40.2801 52.1924 37.7954 52.1924C35.3106 52.1924 33.2959 50.1781 33.2959 47.6929C33.2959 45.2082 35.3106 43.1938 37.7954 43.1938C40.2789 43.1967 42.2916 45.2094 42.2949 47.6929ZM24.2973 47.6929C24.2973 50.1781 22.283 52.1924 19.7979 52.1924C17.3131 52.1924 15.2988 50.1781 15.2988 47.6929C15.2988 45.2082 17.3131 43.1938 19.7979 43.1938C22.2818 43.1967 24.2945 45.2094 24.2973 47.6929ZM24.2973 8.0989V4.49948C24.2945 4.39444 24.2735 4.29104 24.2351 4.19342C24.2265 4.16829 24.2162 4.14357 24.2047 4.11968C24.1631 4.02865 24.107 3.94544 24.0382 3.87294V3.86676C23.9806 3.80909 23.9155 3.75925 23.8446 3.71929L20.4376 1.79971H35.3559L31.9543 3.71476C31.8834 3.75471 31.8183 3.80456 31.7606 3.86223V3.86841C31.6919 3.94091 31.6358 4.02411 31.5942 4.11515C31.5827 4.13904 31.5728 4.16376 31.5637 4.18889C31.523 4.28775 31.5003 4.39279 31.4962 4.49948V8.0989H24.2973ZM18.7713 8.0989L22.4976 6.02896V8.0989H18.7713ZM33.2959 6.02896L37.0222 8.0989H33.2959V6.02896ZM34.2392 4.49412L37.7954 2.49175V6.46931L34.2392 4.49412ZM17.9982 2.49175L21.5543 4.49412L17.9982 6.46931V2.49175ZM16.1985 28.7958V26.096H33.2959C33.7931 26.096 34.196 25.6931 34.196 25.1963C34.196 24.6991 33.7931 24.2963 33.2959 24.2963H16.1985V9.89861H39.5951V24.2963H36.8953C36.3985 24.2963 35.9957 24.6991 35.9957 25.1963C35.9957 25.6931 36.3985 26.096 36.8953 26.096H39.5951V28.7958H16.1985Z" fill="#2B8CFF"/>
<path d="M33.2957 11.6985C32.0167 11.7006 30.9148 12.5998 30.6565 13.8525C30.3978 15.1052 31.054 16.3673 32.2276 16.8756C31.7102 18.0208 29.9447 18.8974 27.8966 18.8974C25.8485 18.8974 24.0838 18.0208 23.5656 16.8756C24.7779 16.3648 25.4502 15.0586 25.1606 13.7755C24.871 12.4923 23.7028 11.6013 22.3887 11.661C21.0743 11.7212 19.9921 12.7147 19.8208 14.0189C19.649 15.3235 20.437 16.563 21.6913 16.9609C22.1861 19.107 24.7301 20.6971 27.8966 20.6971C31.0631 20.6971 33.6071 19.107 34.1056 16.9609C35.3797 16.5663 36.1722 15.2983 35.9695 13.9806C35.7665 12.6624 34.6291 11.6919 33.2957 11.6985ZM22.4975 13.4982C22.9943 13.4982 23.3971 13.9011 23.3971 14.3983C23.3971 14.8951 22.9943 15.2979 22.4975 15.2979C22.0003 15.2979 21.5974 14.8951 21.5974 14.3983C21.5974 13.9011 22.0003 13.4982 22.4975 13.4982ZM33.2957 15.2979C32.7989 15.2979 32.3961 14.8951 32.3961 14.3983C32.3961 13.9011 32.7989 13.4982 33.2957 13.4982C33.7929 13.4982 34.1958 13.9011 34.1958 14.3983C34.1958 14.8951 33.7929 15.2979 33.2957 15.2979Z" fill="#2B8CFF"/>
</g>
<defs>
<clipPath id="clip0">
<rect width="54" height="54" fill="white"/>
</clipPath>
</defs>
</svg>
