<svg width="58" height="58" viewBox="0 0 58 58" fill="none" xmlns="http://www.w3.org/2000/svg">
<g clip-path="url(#clip0)">
<path d="M12.5668 35.7663H11.6001C5.7275 35.7663 0.966797 31.0056 0.966797 25.133C0.966797 19.2603 5.7275 14.4996 11.6001 14.4996C12.2029 14.4967 12.8047 14.5484 13.3981 14.6543C14.7777 11.7228 17.672 9.80069 20.9091 9.6663C22.8114 3.7805 28.7139 0.154242 34.824 1.1176C40.934 2.08095 45.4345 7.34741 45.4335 13.533C45.4527 13.871 45.4527 14.2099 45.4335 14.548C45.7621 14.548 46.1101 14.4996 46.4001 14.4996C52.2728 14.4996 57.0335 19.2603 57.0335 25.133C57.0335 31.0056 52.2728 35.7663 46.4001 35.7663H12.5668Z" fill="#E3F0FF"/>
<path d="M10.5565 14.5483L10.1602 14.6063L10.4985 14.6547L10.5565 14.5483Z" fill="#99C8FF"/>
<path d="M46.3994 14.5001C46.0611 14.5001 45.7131 14.5001 45.4328 14.5485C45.452 14.2104 45.452 13.8715 45.4328 13.5335C45.4328 10.2006 44.1088 7.0042 41.7521 4.64749C39.3954 2.29078 36.199 0.966797 32.8661 0.966797C32.3848 0.971117 31.9041 1.00016 31.4258 1.0538C37.7576 1.79427 42.5318 7.1585 42.5328 13.5335C42.552 13.8715 42.552 14.2104 42.5328 14.5485C42.8614 14.5485 43.2094 14.5001 43.4994 14.5001C48.9827 14.5178 53.5534 18.702 54.0542 24.1624C54.5549 29.6228 50.8214 34.5686 45.4328 35.5831V35.7668H46.3994C52.2721 35.7668 57.0328 31.0061 57.0328 25.1335C57.0328 19.2608 52.2721 14.5001 46.3994 14.5001Z" fill="#99C8FF"/>
<path d="M39.4694 8.84454C39.1868 8.84456 38.9184 8.72094 38.7347 8.50621C37.2676 6.79091 35.1242 5.80222 32.8671 5.79954C32.3332 5.79954 31.9004 5.36675 31.9004 4.83288C31.9004 4.299 32.3332 3.86621 32.8671 3.86621C35.6878 3.86643 38.3677 5.09871 40.204 7.23988C40.3707 7.43472 40.4531 7.68778 40.4332 7.9434C40.4132 8.19901 40.2926 8.43624 40.0977 8.60287C39.924 8.75611 39.701 8.84187 39.4694 8.84454Z" fill="white"/>
<path d="M28.9995 57.0331C39.1431 57.0331 47.3661 48.8101 47.3661 38.6665C47.3661 28.5228 39.1431 20.2998 28.9995 20.2998C18.8558 20.2998 10.6328 28.5228 10.6328 38.6665C10.6328 48.8101 18.8558 57.0331 28.9995 57.0331Z" fill="#E3F0FF"/>
<path d="M29.0008 20.2998C28.5078 20.2998 28.0341 20.2998 27.5508 20.3771C37.0021 21.2472 44.2338 29.1752 44.2338 38.6665C44.2338 48.1578 37.0021 56.0857 27.5508 56.9558C28.0341 56.9558 28.5174 57.0331 29.0008 57.0331C39.1444 57.0331 47.3674 48.8101 47.3674 38.6665C47.3674 28.5228 39.1444 20.2998 29.0008 20.2998Z" fill="#99C8FF"/>
<path d="M10.5553 35.0027C6.08808 33.2173 3.37607 28.655 3.94211 23.8777C4.50815 19.1003 8.21121 15.2981 12.9719 14.6061C7.35212 14.0294 2.26242 17.948 1.38292 23.5284C0.503416 29.1089 4.14118 34.4029 9.66595 35.5827C9.98377 35.6652 10.3067 35.7265 10.6326 35.7664" fill="white"/>
<path d="M2.90008 17.3994L4.35008 18.6851C2.78745 20.469 1.92832 22.7612 1.93341 25.1328H7.6958e-05C-0.0102612 22.2873 1.0213 19.5365 2.90008 17.3994Z" fill="white"/>
<path d="M38.7328 8.50621C38.9164 8.72094 39.1849 8.84456 39.4674 8.84454C39.6991 8.84187 39.922 8.75611 40.0958 8.60287C40.2906 8.43624 40.4113 8.19901 40.4312 7.9434C40.4512 7.68778 40.3687 7.43472 40.2021 7.23988C38.3658 5.09871 35.6858 3.86643 32.8651 3.86621C32.3312 3.86621 31.8984 4.299 31.8984 4.83288C31.8984 5.36675 32.3312 5.79954 32.8651 5.79954C35.1223 5.80222 37.2656 6.79091 38.7328 8.50621Z" fill="#2B8CFF"/>
<path d="M1.67174 22.3005C2.20562 22.3005 2.63841 21.8677 2.63841 21.3339C2.63841 20.8 2.20562 20.3672 1.67174 20.3672C1.13787 20.3672 0.705078 20.8 0.705078 21.3339C0.705078 21.8677 1.13787 22.3005 1.67174 22.3005Z" fill="#2B8CFF"/>
<path d="M46.4 13.5332C46.3867 6.99995 41.708 1.40895 35.2794 0.244218C28.8508 -0.920512 22.5079 2.67358 20.2033 8.78682C17.1241 9.12142 14.3956 10.9212 12.876 13.6202C12.4527 13.5671 12.0266 13.538 11.6 13.5332C8.28031 13.5178 5.11311 14.9254 2.9 17.3998C2.72524 17.5974 2.63879 17.8578 2.66069 18.1206C2.6826 18.3834 2.81095 18.6259 3.016 18.7918C3.42561 19.0917 3.99307 19.0465 4.35 18.6855C6.19485 16.6247 8.8341 15.4528 11.6 15.4665C13.5073 15.4604 15.3727 16.026 16.9553 17.0905C17.1154 17.198 17.3039 17.2553 17.4967 17.2548C17.8182 17.2553 18.1189 17.0959 18.299 16.8295C18.4491 16.6154 18.5061 16.3496 18.4569 16.0928C18.4077 15.8359 18.2566 15.61 18.038 15.4665C17.0691 14.8157 16.0064 14.3169 14.8867 13.9875C16.2733 11.9658 18.5364 10.7212 20.9863 10.6332H21.2667C22.9411 10.6261 24.5714 11.1695 25.9067 12.1798C26.3338 12.5001 26.9397 12.4136 27.26 11.9865C27.5803 11.5594 27.4938 10.9535 27.0667 10.6332C25.6777 9.58713 24.0303 8.93885 22.301 8.75782C24.5548 3.78445 29.9719 1.0562 35.3097 2.20616C40.6475 3.35612 44.4606 8.07292 44.4667 13.5332V13.6975C42.8559 13.9585 41.3199 14.5617 39.962 15.4665C39.5189 15.7655 39.402 16.367 39.701 16.8102C40 17.2533 40.6016 17.3701 41.0447 17.0712C42.6295 16.0135 44.4947 15.4547 46.4 15.4665C51.4298 15.485 55.6049 19.3575 56.0011 24.3717C56.3973 29.3858 52.8821 33.866 47.9177 34.6742C46.0324 25.7299 38.1407 19.3283 29 19.3283C19.8593 19.3283 11.9676 25.7299 10.0823 34.6742C5.39057 33.9283 1.93618 29.8838 1.93333 25.1332C1.93333 24.5993 1.50054 24.1665 0.966667 24.1665C0.432791 24.1665 0 24.5993 0 25.1332C0.000864403 30.8374 4.14885 35.6945 9.78267 36.5882C9.70474 37.2782 9.66601 37.9721 9.66667 38.6665C9.66667 49.344 18.3225 57.9998 29 57.9998C39.6775 57.9998 48.3333 49.344 48.3333 38.6665C48.334 37.9721 48.2953 37.2782 48.2173 36.5882C54.1905 35.6348 58.4284 30.2516 57.9531 24.2216C57.4778 18.1915 52.4488 13.5389 46.4 13.5332ZM29 56.0665C19.3902 56.0665 11.6 48.2762 11.6 38.6665C11.6 29.0567 19.3902 21.2665 29 21.2665C38.6098 21.2665 46.4 29.0567 46.4 38.6665C46.4 48.2762 38.6098 56.0665 29 56.0665Z" fill="#2B8CFF"/>
<path d="M34.8002 44.4667H23.2002C21.5986 44.4667 20.3002 43.1683 20.3002 41.5667V38.0964L21.5472 39.353C21.7287 39.536 21.9758 39.639 22.2335 39.639C22.4913 39.639 22.7383 39.536 22.9198 39.353C23.1028 39.1715 23.2058 38.9245 23.2058 38.6667C23.2058 38.409 23.1028 38.1619 22.9198 37.9804L20.0198 35.0804C19.8383 34.8974 19.5913 34.7944 19.3335 34.7944C19.0758 34.7944 18.8287 34.8974 18.6472 35.0804L15.7472 37.9804C15.3681 38.3594 15.3681 38.974 15.7472 39.353C16.1262 39.7321 16.7408 39.7321 17.1198 39.353L18.3668 38.0964V41.5667C18.3668 42.8486 18.8761 44.078 19.7825 44.9844C20.6889 45.8908 21.9183 46.4 23.2002 46.4H34.8002C35.3341 46.4 35.7668 45.9672 35.7668 45.4334C35.7668 44.8995 35.3341 44.4667 34.8002 44.4667Z" fill="#2B8CFF"/>
<path d="M39.6324 39.2365V35.7662C39.6324 34.4843 39.1232 33.2549 38.2168 32.3485C37.3103 31.4421 36.081 30.9329 34.7991 30.9329H23.1991C22.6652 30.9329 22.2324 31.3657 22.2324 31.8995C22.2324 32.4334 22.6652 32.8662 23.1991 32.8662H34.7991C36.4007 32.8662 37.6991 34.1646 37.6991 35.7662V39.2365L36.4521 37.9799C36.2069 37.7347 35.8495 37.6389 35.5145 37.7286C35.1796 37.8184 34.918 38.08 34.8282 38.415C34.7385 38.7499 34.8342 39.1073 35.0794 39.3525L37.9794 42.2525C38.1609 42.4355 38.408 42.5385 38.6658 42.5385C38.9235 42.5385 39.1706 42.4355 39.3521 42.2525L42.2521 39.3525C42.6311 38.9735 42.6311 38.3589 42.2521 37.9799C41.873 37.6008 41.2585 37.6008 40.8794 37.9799L39.6324 39.2365Z" fill="#2B8CFF"/>
</g>
<defs>
<clipPath id="clip0">
<rect width="58" height="58" fill="white"/>
</clipPath>
</defs>
</svg>
