<svg width="409" height="279" viewBox="0 0 409 279" fill="none" xmlns="http://www.w3.org/2000/svg">
<path d="M71.6813 95.9414C82.6135 91.413 87.8049 78.8798 83.2765 67.9475C78.7482 57.0153 66.215 51.824 55.2828 56.3524C44.3506 60.8808 39.1592 73.4141 43.6876 84.3463C48.2159 95.2785 60.7491 100.47 71.6813 95.9414Z" fill="#E3F0FF"/>
<path d="M63.4871 94.2759C73.4966 94.2759 81.6109 86.1616 81.6109 76.1521C81.6109 66.1426 73.4966 58.0283 63.4871 58.0283C53.4776 58.0283 45.3633 66.1426 45.3633 76.1521C45.3633 86.1616 53.4776 94.2759 63.4871 94.2759Z" stroke="#E3F0FF" stroke-miterlimit="10"/>
<path d="M64.133 60.7472C64.133 61.1355 63.8094 61.4592 63.421 61.4592C63.0326 61.4592 62.709 61.1355 62.709 60.7472C62.709 60.3588 63.0326 60.0352 63.421 60.0352C63.8741 60.0999 64.133 60.3588 64.133 60.7472Z" fill="#E3F0FF"/>
<path d="M64.133 91.5577C64.133 91.9461 63.8094 92.2697 63.421 92.2697C63.0326 92.2697 62.709 91.9461 62.709 91.5577C62.709 91.1693 63.0326 90.8457 63.421 90.8457C63.8741 90.9104 64.133 91.1693 64.133 91.5577Z" fill="#E3F0FF"/>
<path d="M78.8917 76.8644C78.5033 76.8644 78.1797 76.5408 78.1797 76.1524C78.1797 75.7641 78.5033 75.4404 78.8917 75.4404C79.2801 75.4404 79.6037 75.7641 79.6037 76.1524C79.539 76.5408 79.2801 76.8644 78.8917 76.8644Z" fill="#E3F0FF"/>
<path d="M48.0812 76.8644C47.6928 76.8644 47.3691 76.5408 47.3691 76.1524C47.3691 75.7641 47.6928 75.4404 48.0812 75.4404C48.4695 75.4404 48.7932 75.7641 48.7932 76.1524C48.7284 76.5408 48.4695 76.8644 48.0812 76.8644Z" fill="#E3F0FF"/>
<path d="M56.1069 63.8546C55.9774 63.8546 55.848 63.7899 55.7833 63.6604L55.0713 62.4953C54.9418 62.3011 55.0065 62.0422 55.2007 61.9775C55.3949 61.8481 55.6538 61.9128 55.7185 62.107L56.4305 63.2721C56.56 63.4662 56.4953 63.7252 56.3011 63.7899C56.2364 63.7899 56.1716 63.8546 56.1069 63.8546Z" fill="#E3F0FF"/>
<path d="M71.5132 90.5226C71.3837 90.5226 71.2542 90.4579 71.1895 90.3284L70.4775 89.1633C70.348 88.9691 70.4128 88.7102 70.607 88.6455C70.8012 88.516 71.0601 88.5807 71.1248 88.7749L71.8368 89.94C71.9663 90.1342 71.9015 90.3931 71.7073 90.4578C71.6426 90.5226 71.5779 90.5226 71.5132 90.5226Z" fill="#E3F0FF"/>
<path d="M50.7358 69.2267C50.6711 69.2267 50.6063 69.2267 50.5416 69.162L49.3765 68.45C49.1823 68.3205 49.1176 68.1263 49.247 67.9322C49.3765 67.738 49.5707 67.6732 49.7649 67.8027L50.93 68.5147C51.1241 68.6442 51.1889 68.8384 51.0594 69.0325C50.9947 69.162 50.8652 69.2267 50.7358 69.2267Z" fill="#E3F0FF"/>
<path d="M77.4038 84.632C77.339 84.632 77.2743 84.632 77.2096 84.5673L76.0445 83.8553C75.8503 83.7258 75.7856 83.5316 75.915 83.3374C76.0445 83.1432 76.2386 83.0785 76.4328 83.208L77.5979 83.92C77.7921 84.0494 77.8568 84.2436 77.7274 84.4378C77.6627 84.5673 77.5332 84.632 77.4038 84.632Z" fill="#E3F0FF"/>
<path d="M76.2367 69.2267C76.1072 69.2267 75.9778 69.162 75.9131 69.0325C75.7836 68.8384 75.8483 68.5794 76.0425 68.5147L77.2076 67.8027C77.4018 67.6732 77.6607 67.738 77.7254 67.9322C77.8549 68.1263 77.7902 68.3853 77.596 68.45L76.4309 69.162C76.3662 69.162 76.3014 69.2267 76.2367 69.2267Z" fill="#E3F0FF"/>
<path d="M49.5043 84.632C49.3748 84.632 49.2454 84.5673 49.1806 84.4378C49.0512 84.2436 49.1159 83.9847 49.3101 83.92L50.4752 83.208C50.6694 83.0785 50.9283 83.1432 50.993 83.3374C51.1225 83.5316 51.0577 83.7905 50.8636 83.8553L49.6985 84.5673C49.6337 84.632 49.569 84.632 49.5043 84.632Z" fill="#E3F0FF"/>
<path d="M70.8011 63.8546C70.7364 63.8546 70.6717 63.8546 70.607 63.7899C70.4128 63.6604 70.348 63.4662 70.4775 63.2721L71.1895 62.107C71.319 61.9128 71.5132 61.8481 71.7073 61.9775C71.9015 62.107 71.9663 62.3011 71.8368 62.4953L71.1248 63.6604C71.1248 63.7252 70.9953 63.8546 70.8011 63.8546Z" fill="#E3F0FF"/>
<path d="M55.3949 90.5226C55.3302 90.5226 55.2654 90.5226 55.2007 90.4578C55.0065 90.3284 54.9418 90.1342 55.0713 89.94L55.7833 88.7749C55.9127 88.5807 56.1069 88.516 56.3011 88.6455C56.4953 88.7749 56.56 88.9691 56.4305 89.1633L55.7185 90.3284C55.7185 90.4579 55.5891 90.5226 55.3949 90.5226Z" fill="#E3F0FF"/>
<path d="M62.7732 75.181L72.1587 69.3555L64.0677 76.9286C63.6146 77.3817 62.9026 77.317 62.5143 76.8639C62.0612 76.4108 62.1259 75.6988 62.579 75.3104C62.6437 75.2457 62.7084 75.181 62.7732 75.181Z" fill="#E3F0FF"/>
<path d="M62.5799 76.6053L55.7188 62.624L64.5217 75.5049C64.8454 76.0227 64.7159 76.67 64.2628 77.0583C63.745 77.382 63.0977 77.2525 62.7094 76.7994C62.6446 76.67 62.6446 76.67 62.5799 76.6053Z" fill="#E3F0FF"/>
<path d="M161.161 38.6102L152.682 38.0924C152.552 35.2443 151.97 32.5258 151.128 29.8719L158.831 26.3119C156.695 20.4217 153.2 15.114 148.669 10.8419L142.325 16.4733C140.254 14.5961 137.924 13.0427 135.399 11.7481L138.312 3.78658C135.529 2.49202 132.616 1.45638 129.444 0.809098C126.337 0.161819 123.231 -0.0970918 120.188 0.032364L119.67 8.51172C116.822 8.64118 114.104 9.22373 111.45 10.0652L107.89 2.36257C102 4.49859 96.6921 7.9939 92.42 12.5248L98.0514 18.8682C96.1743 20.9395 94.6208 23.2697 93.3262 25.7941L85.3647 22.8813C84.0701 25.6646 83.0345 28.5774 82.3872 31.749C81.7399 34.856 81.481 37.9629 81.6105 41.0051L90.0898 41.523C90.2193 44.371 90.8019 47.0896 91.6433 49.7434L83.9407 53.3034C86.0767 59.1937 89.572 64.5014 94.103 68.7734L100.446 63.1421C102.518 65.0192 104.848 66.5727 107.372 67.8672L104.459 75.8287C107.243 77.1233 110.155 78.1589 113.327 78.8062C116.434 79.4535 119.541 79.7124 122.583 79.583L123.101 71.1036C125.949 70.9742 128.668 70.3916 131.322 69.5501L134.946 77.2528C140.837 75.1167 146.144 71.6214 150.416 67.0905L144.785 60.7471C146.662 58.6758 148.216 56.3456 149.51 53.8213L157.472 56.734C158.766 53.9507 159.802 51.038 160.449 47.8663C161.032 44.7593 161.291 41.6524 161.161 38.6102ZM140.189 43.7237C138.053 54.0802 127.891 60.7471 117.534 58.6111C107.178 56.4751 100.511 46.3128 102.647 35.9563C104.783 25.5999 114.945 18.9329 125.302 21.0689C135.658 23.205 142.325 33.3672 140.189 43.7237Z" fill="#E3F0FF"/>
<path d="M396.706 82.8842C396.706 82.1075 396.642 81.3308 396.512 80.554C396.318 79.7773 396.059 79.0006 395.735 78.3533L393.729 79.13C393.405 78.4827 393.017 77.9002 392.499 77.3824L393.923 75.7642C392.823 74.5991 391.463 73.7576 389.975 73.2398L389.068 75.1816C388.421 74.9874 387.709 74.858 386.997 74.7932L386.868 72.6572C386.091 72.6572 385.314 72.722 384.537 72.8514C383.761 73.0456 382.984 73.3045 382.337 73.6281L383.113 75.6347C382.466 75.9584 381.884 76.3467 381.366 76.8645L379.748 75.4405C378.582 76.5409 377.741 77.9002 377.223 79.3889L379.165 80.2951C378.971 80.9424 378.841 81.6544 378.777 82.3664L376.641 82.4959C376.641 83.2726 376.705 84.0493 376.835 84.8261C377.029 85.6028 377.288 86.3796 377.612 87.0268L379.618 86.2501C379.942 86.8974 380.33 87.4799 380.848 87.9978L379.424 89.6159C380.524 90.781 381.884 91.6225 383.372 92.1403L384.279 90.1985C384.926 90.3927 385.638 90.5221 386.35 90.5869L386.479 92.7229C387.256 92.7229 388.033 92.6582 388.809 92.5287C389.586 92.3345 390.363 92.0756 391.01 91.752L390.233 89.7454C390.881 89.4218 391.463 89.0334 391.981 88.5156L393.599 89.9396C394.764 88.8392 395.606 87.4799 396.124 85.9912L394.182 85.085C394.376 84.4377 394.505 83.7257 394.57 83.0137L396.706 82.8842ZM387.709 87.3505C385.12 87.933 382.531 86.2501 381.948 83.661C381.366 81.0719 383.049 78.4827 385.638 77.9002C388.227 77.3176 390.816 79.0006 391.399 81.5897C391.981 84.2435 390.298 86.8326 387.709 87.3505Z" fill="#E3F0FF"/>
<path d="M329.064 46.8312C329.064 45.5367 328.999 44.3068 328.676 43.0123C328.417 41.7177 327.964 40.4879 327.446 39.3228L324.145 40.5526C323.627 39.517 322.915 38.546 322.138 37.7046L324.468 35.0507C322.656 33.1736 320.455 31.7496 317.995 30.9081L316.507 34.0798C315.406 33.7562 314.241 33.4973 313.076 33.4325L312.947 30.002C311.652 30.002 310.422 30.0667 309.128 30.3903C307.833 30.6492 306.603 31.1023 305.438 31.6202L306.668 34.9213C305.632 35.4391 304.662 36.1511 303.82 36.9278L301.166 34.5976C299.289 36.41 297.865 38.6108 297.024 41.0704L300.195 42.5592C299.872 43.6595 299.613 44.8246 299.548 45.9897L296.053 46.2487C296.053 47.5432 296.117 48.773 296.441 50.0676C296.7 51.3622 297.153 52.592 297.671 53.7571L300.972 52.5273C301.49 53.5629 302.202 54.5338 302.979 55.3753L300.648 58.0291C302.461 59.9063 304.662 61.3303 307.121 62.1717L308.61 59.0001C309.71 59.3237 310.875 59.5826 312.041 59.6473L312.299 63.1426C313.594 63.1426 314.824 63.0779 316.118 62.7543C317.413 62.4954 318.643 62.0423 319.808 61.5244L318.578 58.2233C319.614 57.7055 320.585 56.9935 321.426 56.2168L324.08 58.547C325.957 56.7346 327.381 54.5338 328.222 52.0742L325.051 50.5854C325.374 49.4851 325.633 48.32 325.698 47.1549L329.064 46.8312ZM314.241 54.2749C309.969 55.1811 305.697 52.4625 304.791 48.1905C303.885 43.9185 306.603 39.6464 310.875 38.7402C315.147 37.834 319.42 40.5526 320.326 44.8246C321.297 49.0967 318.578 53.304 314.241 54.2749ZM313.529 50.9091C311.07 51.4269 308.675 49.8734 308.157 47.4138C307.639 44.9541 309.193 42.5592 311.652 42.0413C314.112 41.5235 316.507 43.077 317.025 45.5367C317.542 47.9963 315.989 50.3912 313.529 50.9091Z" fill="#E3F0FF"/>
<path d="M342.982 109.875C357.603 109.875 369.455 98.0225 369.455 83.4014C369.455 68.7804 357.603 56.9277 342.982 56.9277C328.361 56.9277 316.508 68.7804 316.508 83.4014C316.508 98.0225 328.361 109.875 342.982 109.875Z" fill="#E3F0FF"/>
<path d="M348.592 105.074C360.567 101.98 367.767 89.7629 364.672 77.7873C361.577 65.8118 349.36 58.6124 337.385 61.7071C325.409 64.8018 318.21 77.0187 321.305 88.9942C324.399 100.97 336.616 108.169 348.592 105.074Z" stroke="#E3F0FF" stroke-miterlimit="10"/>
<path d="M343.822 64.3073C343.822 64.7604 343.433 65.1487 342.98 65.1487C342.527 65.1487 342.139 64.7604 342.139 64.3073C342.139 63.8542 342.527 63.4658 342.98 63.4658C343.433 63.4658 343.822 63.8542 343.822 64.3073Z" fill="#E3F0FF"/>
<path d="M343.822 102.431C343.822 102.884 343.433 103.273 342.98 103.273C342.527 103.273 342.139 102.884 342.139 102.431C342.139 101.978 342.527 101.59 342.98 101.59C343.433 101.59 343.822 101.978 343.822 102.431Z" fill="#E3F0FF"/>
<path d="M362.011 84.2435C361.558 84.2435 361.17 83.8551 361.17 83.402C361.17 82.9489 361.558 82.5605 362.011 82.5605C362.464 82.5605 362.853 82.9489 362.853 83.402C362.853 83.8551 362.529 84.2435 362.011 84.2435Z" fill="#E3F0FF"/>
<path d="M323.951 84.2435C323.498 84.2435 323.109 83.8551 323.109 83.402C323.109 82.9489 323.498 82.5605 323.951 82.5605C324.404 82.5605 324.792 82.9489 324.792 83.402C324.792 83.8551 324.404 84.2435 323.951 84.2435Z" fill="#E3F0FF"/>
<path d="M333.853 68.1257C333.659 68.1257 333.53 68.0609 333.4 67.8668L332.559 66.378C332.429 66.1191 332.494 65.8602 332.753 65.7307C333.012 65.6013 333.271 65.666 333.4 65.9249L334.242 67.4137C334.371 67.6726 334.307 67.9315 334.048 68.061C334.048 68.1257 333.983 68.1257 333.853 68.1257Z" fill="#E3F0FF"/>
<path d="M352.949 101.137C352.755 101.137 352.625 101.073 352.496 100.878L351.655 99.3897C351.525 99.1308 351.59 98.8719 351.849 98.7425C352.108 98.613 352.367 98.6777 352.496 98.9366L353.338 100.425C353.467 100.684 353.402 100.943 353.143 101.073C353.079 101.073 353.014 101.137 352.949 101.137Z" fill="#E3F0FF"/>
<path d="M327.186 74.7929C327.122 74.7929 326.992 74.7929 326.927 74.7282L325.439 73.8867C325.18 73.7573 325.115 73.4336 325.244 73.2395C325.374 73.0453 325.698 72.9158 325.892 73.0453L327.38 73.8867C327.639 74.0162 327.704 74.3398 327.575 74.534C327.575 74.6635 327.38 74.7929 327.186 74.7929Z" fill="#E3F0FF"/>
<path d="M360.198 93.8231C360.133 93.8231 360.004 93.8231 359.939 93.7584L358.45 92.9169C358.191 92.7875 358.127 92.4638 358.256 92.2697C358.386 92.0107 358.709 91.946 358.903 92.0755L360.392 92.9169C360.651 93.0464 360.716 93.37 360.586 93.5642C360.522 93.7584 360.392 93.8231 360.198 93.8231Z" fill="#E3F0FF"/>
<path d="M358.711 74.7928C358.517 74.7928 358.388 74.7281 358.258 74.5339C358.129 74.275 358.193 74.0161 358.452 73.8867L359.941 73.0452C360.2 72.9157 360.459 72.9805 360.588 73.2394C360.718 73.4983 360.653 73.7572 360.394 73.8867L358.905 74.7281C358.905 74.7281 358.841 74.7928 358.711 74.7928Z" fill="#E3F0FF"/>
<path d="M325.764 93.8231C325.57 93.8231 325.44 93.7584 325.311 93.5642C325.181 93.3053 325.246 93.0464 325.505 92.9169L326.994 92.0755C327.253 91.946 327.512 92.0107 327.641 92.2697C327.77 92.5286 327.706 92.7875 327.447 92.9169L325.958 93.7584C325.893 93.8231 325.829 93.8231 325.764 93.8231Z" fill="#E3F0FF"/>
<path d="M352.106 68.1257C352.041 68.1257 351.912 68.1257 351.847 68.061C351.588 67.9315 351.523 67.6079 351.653 67.4137L352.494 65.9249C352.624 65.666 352.947 65.6013 353.141 65.7307C353.4 65.8602 353.465 66.1838 353.336 66.378L352.494 67.8668C352.429 67.9962 352.235 68.1257 352.106 68.1257Z" fill="#E3F0FF"/>
<path d="M333.012 101.137C332.947 101.137 332.818 101.137 332.753 101.073C332.494 100.943 332.429 100.62 332.559 100.425L333.4 98.9366C333.53 98.6777 333.853 98.613 334.048 98.7425C334.307 98.8719 334.371 99.1956 334.242 99.3897L333.4 100.878C333.336 101.008 333.206 101.137 333.012 101.137Z" fill="#E3F0FF"/>
<path d="M342.205 84.2433L331.137 76.1523L343.564 81.8484C344.276 82.172 344.535 83.0135 344.212 83.6608C343.888 84.3728 343.047 84.6317 342.399 84.3081C342.399 84.3728 342.335 84.3081 342.205 84.2433Z" fill="#E3F0FF"/>
<path d="M344.082 84.114L331.266 98.4836L341.946 82.431C342.334 81.7838 343.24 81.6543 343.823 82.0427C344.47 82.431 344.6 83.3372 344.211 83.9198C344.146 83.9845 344.146 84.0492 344.082 84.114Z" fill="#E3F0FF"/>
<path d="M63.3569 108.257C63.3569 109.163 62.6449 109.81 61.8035 109.81C60.8973 109.81 60.25 109.098 60.25 108.257C60.25 107.351 60.962 106.703 61.8035 106.703C62.6449 106.639 63.3569 107.351 63.3569 108.257Z" stroke="#E3F0FF" stroke-width="1.3" stroke-miterlimit="10" stroke-linecap="round" stroke-linejoin="round"/>
<path d="M179.738 59.5818C179.738 60.488 179.026 61.1353 178.184 61.1353C177.343 61.1353 176.631 60.4232 176.631 59.5818C176.631 58.7403 177.343 58.0283 178.184 58.0283C179.026 58.0283 179.738 58.6756 179.738 59.5818Z" stroke="#E3F0FF" stroke-width="1.3" stroke-miterlimit="10" stroke-linecap="round" stroke-linejoin="round"/>
<path d="M279.16 47.7371C279.16 48.6433 278.448 49.2905 277.606 49.2905C276.7 49.2905 276.053 48.5785 276.053 47.7371C276.053 46.8309 276.765 46.1836 277.606 46.1836C278.448 46.1836 279.16 46.8956 279.16 47.7371Z" stroke="#E3F0FF" stroke-width="1.3" stroke-miterlimit="10" stroke-linecap="round" stroke-linejoin="round"/>
<path d="M360.781 41.2634C360.781 42.1696 360.069 42.8169 359.227 42.8169C358.386 42.8169 357.674 42.1049 357.674 41.2634C357.674 40.3572 358.386 39.71 359.227 39.71C360.069 39.71 360.781 40.3572 360.781 41.2634Z" stroke="#E3F0FF" stroke-width="1.3" stroke-miterlimit="10" stroke-linecap="round" stroke-linejoin="round"/>
<path d="M379.164 109.098C379.164 110.005 378.452 110.652 377.61 110.652C376.769 110.652 376.057 109.94 376.057 109.098C376.057 108.192 376.769 107.545 377.61 107.545C378.452 107.545 379.164 108.192 379.164 109.098Z" stroke="#E3F0FF" stroke-width="1.3" stroke-miterlimit="10" stroke-linecap="round" stroke-linejoin="round"/>
<path d="M192.617 74.21V77.5111" stroke="#E3F0FF" stroke-width="1.3" stroke-miterlimit="10" stroke-linecap="round" stroke-linejoin="round"/>
<path d="M194.236 75.8281H191" stroke="#E3F0FF" stroke-width="1.3" stroke-miterlimit="10" stroke-linecap="round" stroke-linejoin="round"/>
<path d="M295.406 77.5117V80.7481" stroke="#E3F0FF" stroke-width="1.3" stroke-miterlimit="10" stroke-linecap="round" stroke-linejoin="round"/>
<path d="M297.024 79.1299H293.723" stroke="#E3F0FF" stroke-width="1.3" stroke-miterlimit="10" stroke-linecap="round" stroke-linejoin="round"/>
<path d="M372.691 50.1309V53.432" stroke="#E3F0FF" stroke-width="1.3" stroke-miterlimit="10" stroke-linecap="round" stroke-linejoin="round"/>
<path d="M374.309 51.8135H371.072" stroke="#E3F0FF" stroke-width="1.3" stroke-miterlimit="10" stroke-linecap="round" stroke-linejoin="round"/>
<path d="M326.477 116.672V119.908" stroke="#E3F0FF" stroke-width="1.3" stroke-miterlimit="10" stroke-linecap="round" stroke-linejoin="round"/>
<path d="M328.094 118.29H324.857" stroke="#E3F0FF" stroke-width="1.3" stroke-miterlimit="10" stroke-linecap="round" stroke-linejoin="round"/>
<path d="M121.027 36.6035V39.8399" stroke="#E3F0FF" stroke-width="1.3" stroke-miterlimit="10" stroke-linecap="round" stroke-linejoin="round"/>
<path d="M122.647 38.2217H119.41" stroke="#E3F0FF" stroke-width="1.3" stroke-miterlimit="10" stroke-linecap="round" stroke-linejoin="round"/>
<path d="M31.123 132.207V135.508" stroke="#E3F0FF" stroke-width="1.3" stroke-miterlimit="10" stroke-linecap="round" stroke-linejoin="round"/>
<path d="M32.805 133.89H29.5039" stroke="#E3F0FF" stroke-width="1.3" stroke-miterlimit="10" stroke-linecap="round" stroke-linejoin="round"/>
<path d="M68.2113 196.222C67.4346 182.435 58.5669 163.47 49.6991 153.567C41.6082 144.57 36.8183 136.284 37.6597 128.647C38.5012 120.62 46.5275 114.471 54.3596 118.484C67.1757 125.022 70.8004 136.867 73.8427 148.518C76.8849 160.169 76.1729 182.5 77.6616 196.417" stroke="#8F8FAE" stroke-miterlimit="10"/>
<path d="M41.5432 120.49C41.1548 130.07 68.1464 153.113 70.0235 193.762" stroke="#8F8FAE" stroke-miterlimit="10"/>
<path d="M39.6659 122.756C38.8245 140.038 65.5571 160.751 68.9877 197.452" stroke="#8F8FAE" stroke-miterlimit="10"/>
<path d="M43.1621 119.002C60.8976 129.358 70.9951 169.231 71.5129 194.475" stroke="#8F8FAE" stroke-miterlimit="10"/>
<path d="M45.3633 118.031C54.0368 119.973 77.5978 133.695 74.6203 195.446" stroke="#8F8FAE" stroke-miterlimit="10"/>
<path d="M83.1634 202.243C80.7684 192.34 81.6746 169.685 79.2797 159.782C75.9786 146.059 71.5771 133.243 70.8651 119.133C70.6709 114.99 70.7356 110.589 72.6127 106.899C74.4898 103.145 78.6971 100.297 82.775 101.268C85.4288 101.915 87.5649 103.986 89.1831 106.187C95.0733 114.343 96.0442 124.958 96.109 135.056C96.1737 152.014 94.2966 177.841 92.3547 194.605" stroke="#8F8FAE" stroke-miterlimit="10"/>
<path d="M78.8263 101.461C75.7194 105.345 69.5055 109.099 78.4379 150.46C84.7166 179.588 84.2635 198.488 84.2635 198.488" stroke="#8F8FAE" stroke-miterlimit="10"/>
<path d="M81.0269 101.072C78.8261 104.05 77.8552 112.788 82.7745 137.902C86.723 157.903 83.8102 182.112 85.2342 199.265" stroke="#8F8FAE" stroke-miterlimit="10"/>
<path d="M83.4219 101.396C83.4219 101.396 89.3768 125.928 86.9819 198.424" stroke="#8F8FAE" stroke-miterlimit="10"/>
<path d="M89.7008 195.64C89.7008 195.64 98.8274 132.142 87.9531 104.633" stroke="#8F8FAE" stroke-miterlimit="10"/>
<path d="M278.707 231.692C287.057 222.307 291.458 211.044 296.119 196.416C301.491 179.457 303.368 165.67 313.984 151.883C317.155 147.805 323.887 143.339 329.26 141.785C336.574 139.649 343.888 140.944 348.29 146.316C351.202 149.876 352.108 154.148 352.303 157.967C353.079 172.013 347.383 184.7 339.292 194.021C325.635 209.75 309.776 223.407 291.523 234.735" stroke="#8F8FAE" stroke-miterlimit="10"/>
<path d="M341.882 141.785C331.461 143.144 318.904 149.164 305.44 188.066C293.207 223.407 283.174 229.427 283.174 229.427" stroke="#8F8FAE" stroke-miterlimit="10"/>
<path d="M344.794 143.274C339.616 143.598 332.366 151.754 318.45 178.098C308.287 197.387 295.989 213.893 283.82 231.304" stroke="#8F8FAE" stroke-miterlimit="10"/>
<path d="M346.218 144.245C347.319 148.97 339.422 172.79 286.539 232.469" stroke="#8F8FAE" stroke-miterlimit="10"/>
<path d="M288.74 233.893C288.74 233.893 350.814 192.079 350.102 149.164" stroke="#8F8FAE" stroke-miterlimit="10"/>
<path d="M94.4911 195.122C94.4911 184.053 94.3617 170.396 95.8504 159.392C97.145 149.942 99.4104 139.067 106.595 132.077C109.249 129.552 112.809 128.517 116.304 129.682C120.059 130.912 120.835 134.795 120.965 137.902C121.547 153.696 113.909 180.299 103.488 193.05" stroke="#8F8FAE" stroke-miterlimit="10"/>
<path d="M96.0449 195.769C97.7278 177.645 99.7991 142.627 111.839 129.423" stroke="#8F8FAE" stroke-miterlimit="10"/>
<path d="M98.2461 196.74C98.2461 196.74 104.589 140.233 117.147 130.006" stroke="#8F8FAE" stroke-miterlimit="10"/>
<path d="M100.898 195.122C100.898 195.122 117.987 154.473 119.022 131.494" stroke="#8F8FAE" stroke-miterlimit="10"/>
<path d="M297.283 240.69C297.283 240.69 309.646 234.929 329.194 214.475C335.473 207.937 342.01 201.141 350.166 196.934C356.445 193.697 370.361 190.072 374.698 198.228C377.481 203.471 374.309 211.368 369.584 216.093C353.855 231.822 329.906 242.631 306.021 246.774" stroke="#8F8FAE" stroke-miterlimit="10"/>
<path d="M303.174 239.654C316.831 231.887 325.57 222.178 333.725 215.058C347.318 203.148 359.811 191.95 372.692 195.639" stroke="#8F8FAE" stroke-miterlimit="10"/>
<path d="M303.045 243.473C314.113 240.625 328.03 233.57 341.105 224.314C357.028 212.986 366.737 200.105 375.217 199.199" stroke="#8F8FAE" stroke-miterlimit="10"/>
<path d="M301.879 241.725C312.947 238.877 326.411 228.909 339.162 219.2C352.172 209.297 361.429 194.992 373.792 196.804" stroke="#8F8FAE" stroke-miterlimit="10"/>
<path d="M304.662 245.35C304.662 245.35 362.917 227.032 375.798 201.918" stroke="#8F8FAE" stroke-miterlimit="10"/>
<path d="M60.4434 190.979V200.947C60.4434 240.495 74.3599 251.758 74.3599 251.758H105.041C105.041 251.758 118.957 240.495 118.957 200.947V190.979H60.4434Z" fill="#8F8FAE"/>
<path d="M130.155 251.565H327.575L310.033 102.367H112.613L130.155 251.565Z" fill="#42526E"/>
<path d="M292.492 251.759H95.0723L112.614 102.367H310.034L292.492 251.759Z" fill="#E3F0FF"/>
<path d="M308.028 119.585H110.607L112.614 102.367H310.034L308.028 119.585Z" fill="#E3F0FF"/>
<path d="M127.495 131.601L129.357 138.107L132.744 131.601H134.117L133.182 139.574H132.123L132.487 136.47L132.98 133.118L129.587 139.574H128.776L126.902 133.135L126.615 136.47L126.251 139.574H125.193L126.128 131.601H127.495ZM123.602 149.469C123.67 148.888 123.845 148.366 124.128 147.902C124.413 147.439 124.775 147.081 125.213 146.829C125.654 146.577 126.137 146.451 126.663 146.451C127.475 146.451 128.099 146.731 128.533 147.289C128.971 147.848 129.136 148.591 129.027 149.518L129.019 149.589C128.951 150.166 128.778 150.684 128.5 151.144C128.226 151.601 127.866 151.957 127.421 152.212C126.979 152.468 126.49 152.595 125.953 152.595C125.145 152.595 124.521 152.316 124.083 151.758C123.649 151.199 123.486 150.46 123.594 149.54L123.602 149.469ZM124.613 149.589C124.536 150.246 124.627 150.774 124.885 151.172C125.147 151.57 125.536 151.769 126.05 151.769C126.569 151.769 127.004 151.568 127.356 151.166C127.709 150.761 127.928 150.195 128.013 149.469C128.089 148.819 127.995 148.293 127.729 147.892C127.468 147.486 127.08 147.284 126.565 147.284C126.062 147.284 125.632 147.483 125.277 147.881C124.921 148.279 124.7 148.848 124.613 149.589ZM131.618 146.561L131.564 147.306C132.086 146.736 132.715 146.451 133.45 146.451C134.711 146.451 135.264 147.158 135.109 148.571L134.65 152.486H133.63L134.09 148.565C134.137 148.138 134.074 147.822 133.903 147.618C133.736 147.413 133.449 147.311 133.041 147.311C132.71 147.311 132.409 147.399 132.139 147.574C131.868 147.749 131.646 147.979 131.473 148.264L130.978 152.486H129.958L130.653 146.561H131.618Z" fill="#99C8FF"/>
<path d="M153.702 132.215L153.534 133.649H154.647L154.555 134.432H153.442L153.011 138.107C152.983 138.344 153.011 138.523 153.097 138.644C153.182 138.76 153.344 138.819 153.583 138.819C153.701 138.819 153.865 138.797 154.076 138.753L153.98 139.574C153.703 139.648 153.438 139.684 153.184 139.684C152.728 139.684 152.401 139.547 152.201 139.273C152.002 138.999 151.932 138.611 151.991 138.107L152.422 134.432H151.335L151.427 133.649H152.513L152.682 132.215H153.702ZM158.901 138.989C158.449 139.452 157.839 139.684 157.071 139.684C156.435 139.684 155.971 139.501 155.68 139.136C155.392 138.768 155.289 138.224 155.369 137.505L155.822 133.649H156.842L156.393 137.477C156.287 138.375 156.602 138.824 157.337 138.824C158.117 138.824 158.669 138.536 158.994 137.959L159.499 133.649H160.519L159.824 139.574H158.854L158.901 138.989ZM152.403 152.595C151.594 152.595 150.967 152.333 150.522 151.807C150.076 151.278 149.906 150.571 150.009 149.688L150.031 149.502C150.1 148.914 150.274 148.39 150.552 147.93C150.834 147.466 151.193 147.105 151.627 146.846C152.066 146.583 152.523 146.451 152.997 146.451C153.772 146.451 154.345 146.705 154.716 147.213C155.086 147.72 155.216 148.446 155.105 149.392L155.056 149.814H151.014C150.961 150.398 151.076 150.871 151.361 151.232C151.65 151.59 152.048 151.769 152.555 151.769C152.915 151.769 153.229 151.696 153.496 151.55C153.763 151.404 154.004 151.21 154.22 150.969L154.787 151.451C154.197 152.214 153.403 152.595 152.403 152.595ZM152.899 147.284C152.487 147.284 152.124 147.433 151.81 147.733C151.496 148.028 151.274 148.445 151.145 148.981H154.134L154.143 148.905C154.174 148.39 154.081 147.992 153.864 147.711C153.647 147.426 153.326 147.284 152.899 147.284Z" fill="#99C8FF"/>
<path d="M180.178 138.178L181.856 133.649H182.876L180.444 139.574H179.617L178.694 135.084L176.755 139.574H175.928L174.892 133.649H175.907L176.561 138.085L178.47 133.649H179.292L180.178 138.178ZM175.68 152.595C174.872 152.595 174.244 152.333 173.799 151.807C173.354 151.278 173.183 150.571 173.287 149.688L173.308 149.502C173.377 148.914 173.551 148.39 173.829 147.93C174.111 147.466 174.47 147.105 174.905 146.846C175.343 146.583 175.8 146.451 176.274 146.451C177.05 146.451 177.623 146.705 177.993 147.213C178.364 147.72 178.494 148.446 178.383 149.392L178.333 149.814H174.292C174.238 150.398 174.353 150.871 174.638 151.232C174.927 151.59 175.325 151.769 175.832 151.769C176.193 151.769 176.506 151.696 176.773 151.55C177.04 151.404 177.282 151.21 177.498 150.969L178.064 151.451C177.475 152.214 176.68 152.595 175.68 152.595ZM176.176 147.284C175.765 147.284 175.402 147.433 175.087 147.733C174.773 148.028 174.552 148.445 174.423 148.981H177.411L177.42 148.905C177.451 148.39 177.358 147.992 177.141 147.711C176.924 147.426 176.603 147.284 176.176 147.284ZM179.31 149.474C179.417 148.565 179.72 147.835 180.218 147.284C180.717 146.729 181.317 146.451 182.019 146.451C182.718 146.451 183.243 146.689 183.595 147.163L183.958 144.075H184.978L183.991 152.486H183.054L183.079 151.851C182.612 152.347 182.015 152.595 181.288 152.595C180.597 152.595 180.065 152.314 179.694 151.752C179.326 151.19 179.195 150.456 179.301 149.551L179.31 149.474ZM180.317 149.589C180.238 150.261 180.316 150.787 180.551 151.166C180.786 151.546 181.15 151.736 181.642 151.736C182.289 151.736 182.795 151.447 183.161 150.871L183.48 148.149C183.24 147.59 182.804 147.311 182.172 147.311C181.672 147.311 181.26 147.503 180.936 147.886C180.611 148.269 180.405 148.837 180.317 149.589Z" fill="#99C8FF"/>
<path d="M202.305 132.215L202.137 133.649H203.251L203.159 134.432H202.045L201.614 138.107C201.586 138.344 201.615 138.523 201.7 138.644C201.786 138.76 201.948 138.819 202.187 138.819C202.304 138.819 202.469 138.797 202.68 138.753L202.583 139.574C202.306 139.648 202.041 139.684 201.788 139.684C201.332 139.684 201.004 139.547 200.805 139.273C200.605 138.999 200.535 138.611 200.594 138.107L201.025 134.432H199.939L200.031 133.649H201.117L201.285 132.215H202.305ZM205.383 134.367C205.9 133.815 206.52 133.54 207.244 133.54C208.505 133.54 209.058 134.246 208.904 135.659L208.444 139.574H207.424L207.884 135.654C207.931 135.226 207.868 134.911 207.698 134.706C207.53 134.502 207.243 134.4 206.835 134.4C206.504 134.4 206.203 134.487 205.933 134.662C205.662 134.838 205.441 135.068 205.267 135.352L204.772 139.574H203.752L204.739 131.163H205.759L205.383 134.367ZM202.295 151.9C201.844 152.364 201.234 152.595 200.466 152.595C199.83 152.595 199.366 152.413 199.075 152.048C198.787 151.679 198.684 151.135 198.764 150.416L199.217 146.561H200.237L199.788 150.389C199.682 151.287 199.997 151.736 200.732 151.736C201.512 151.736 202.064 151.447 202.389 150.871L202.894 146.561H203.914L203.219 152.486H202.249L202.295 151.9Z" fill="#99C8FF"/>
<path d="M227.042 139.574L227.645 134.432H226.703L226.794 133.649H227.737L227.809 133.042C227.883 132.406 228.112 131.915 228.494 131.568C228.877 131.222 229.38 131.048 230.005 131.048C230.24 131.048 230.47 131.079 230.695 131.141L230.543 131.963C230.374 131.93 230.192 131.913 229.997 131.913C229.667 131.913 229.4 132.01 229.197 132.204C228.995 132.394 228.872 132.667 228.83 133.025L228.757 133.649H230.031L229.939 134.432H228.665L228.062 139.574H227.042ZM228.498 147.47C228.347 147.444 228.181 147.432 228.001 147.432C227.332 147.432 226.845 147.714 226.539 148.28L226.046 152.486H225.026L225.721 146.561H226.713L226.65 147.245C227.046 146.716 227.552 146.451 228.165 146.451C228.364 146.451 228.512 146.477 228.608 146.528L228.498 147.47ZM229.961 152.486H228.941L229.636 146.561H230.656L229.961 152.486ZM229.737 144.989C229.757 144.825 229.822 144.686 229.935 144.573C230.051 144.46 230.209 144.403 230.407 144.403C230.606 144.403 230.75 144.46 230.839 144.573C230.929 144.686 230.964 144.825 230.945 144.989C230.926 145.153 230.858 145.29 230.742 145.4C230.626 145.509 230.469 145.564 230.271 145.564C230.072 145.564 229.928 145.509 229.838 145.4C229.752 145.29 229.718 145.153 229.737 144.989Z" fill="#99C8FF"/>
<path d="M253.581 138.003C253.613 137.729 253.533 137.517 253.341 137.368C253.154 137.214 252.807 137.083 252.302 136.973C251.8 136.864 251.405 136.732 251.118 136.579C250.835 136.426 250.632 136.243 250.51 136.031C250.391 135.82 250.349 135.568 250.383 135.276C250.44 134.79 250.694 134.38 251.145 134.044C251.6 133.708 252.149 133.54 252.793 133.54C253.469 133.54 253.996 133.713 254.375 134.06C254.757 134.407 254.916 134.85 254.853 135.391H253.827C253.86 135.113 253.768 134.874 253.553 134.673C253.341 134.473 253.055 134.372 252.695 134.372C252.324 134.372 252.024 134.453 251.795 134.613C251.567 134.774 251.438 134.984 251.407 135.243C251.379 135.488 251.454 135.672 251.635 135.796C251.815 135.92 252.152 136.039 252.646 136.152C253.144 136.265 253.541 136.4 253.839 136.557C254.137 136.714 254.348 136.904 254.472 137.127C254.601 137.346 254.647 137.614 254.61 137.932C254.548 138.461 254.284 138.886 253.82 139.208C253.357 139.525 252.785 139.684 252.105 139.684C251.627 139.684 251.214 139.6 250.866 139.432C250.518 139.264 250.257 139.031 250.083 138.731C249.913 138.428 249.848 138.101 249.889 137.751H250.909C250.888 138.09 250.992 138.361 251.222 138.561C251.456 138.759 251.783 138.857 252.202 138.857C252.588 138.857 252.906 138.78 253.155 138.627C253.409 138.47 253.551 138.262 253.581 138.003ZM252.092 152.486C252.047 152.369 252.023 152.161 252.022 151.862C251.49 152.351 250.895 152.595 250.238 152.595C249.649 152.595 249.185 152.431 248.845 152.103C248.509 151.77 248.371 151.351 248.431 150.843C248.503 150.226 248.794 149.748 249.305 149.408C249.819 149.065 250.504 148.894 251.361 148.894H252.353L252.408 148.428C252.45 148.074 252.376 147.793 252.187 147.585C251.999 147.373 251.697 147.267 251.282 147.267C250.918 147.267 250.602 147.359 250.334 147.541C250.066 147.724 249.917 147.944 249.887 148.204H248.861C248.896 147.908 249.034 147.623 249.276 147.349C249.522 147.072 249.834 146.853 250.213 146.692C250.596 146.532 251.004 146.451 251.438 146.451C252.125 146.451 252.644 146.623 252.993 146.966C253.343 147.306 253.49 147.775 253.434 148.373L253.115 151.101C253.051 151.644 253.07 152.077 253.172 152.398L253.162 152.486H252.092ZM250.49 151.714C250.81 151.714 251.122 151.632 251.428 151.467C251.734 151.303 251.967 151.09 252.127 150.827L252.269 149.611H251.47C250.22 149.611 249.553 149.974 249.467 150.701C249.43 151.018 249.508 151.267 249.7 151.446C249.892 151.624 250.155 151.714 250.49 151.714ZM256.798 145.126L256.63 146.561H257.744L257.652 147.344H256.538L256.107 151.018C256.079 151.256 256.108 151.435 256.193 151.555C256.279 151.672 256.441 151.73 256.68 151.73C256.797 151.73 256.962 151.708 257.173 151.665L257.076 152.486C256.799 152.559 256.534 152.595 256.28 152.595C255.825 152.595 255.497 152.459 255.298 152.185C255.098 151.911 255.028 151.522 255.087 151.018L255.518 147.344H254.432L254.524 146.561H255.61L255.778 145.126H256.798Z" fill="#99C8FF"/>
<path d="M277.472 138.003C277.504 137.729 277.424 137.517 277.232 137.368C277.044 137.214 276.698 137.083 276.192 136.973C275.69 136.864 275.296 136.732 275.009 136.579C274.725 136.426 274.523 136.243 274.4 136.031C274.282 135.82 274.24 135.568 274.274 135.276C274.331 134.79 274.585 134.38 275.036 134.044C275.491 133.708 276.04 133.54 276.683 133.54C277.359 133.54 277.887 133.713 278.265 134.06C278.647 134.407 278.807 134.85 278.743 135.391H277.718C277.75 135.113 277.659 134.874 277.443 134.673C277.232 134.473 276.946 134.372 276.586 134.372C276.214 134.372 275.914 134.453 275.686 134.613C275.458 134.774 275.328 134.984 275.298 135.243C275.269 135.488 275.345 135.672 275.525 135.796C275.706 135.92 276.043 136.039 276.537 136.152C277.034 136.265 277.432 136.4 277.73 136.557C278.027 136.714 278.239 136.904 278.363 137.127C278.492 137.346 278.538 137.614 278.5 137.932C278.438 138.461 278.175 138.886 277.711 139.208C277.247 139.525 276.676 139.684 275.996 139.684C275.518 139.684 275.105 139.6 274.757 139.432C274.409 139.264 274.148 139.031 273.974 138.731C273.803 138.428 273.739 138.101 273.78 137.751H274.8C274.778 138.09 274.883 138.361 275.113 138.561C275.347 138.759 275.673 138.857 276.093 138.857C276.478 138.857 276.796 138.78 277.046 138.627C277.299 138.47 277.441 138.262 277.472 138.003ZM276.051 151.9C275.6 152.364 274.99 152.595 274.222 152.595C273.586 152.595 273.122 152.413 272.831 152.048C272.543 151.679 272.44 151.135 272.52 150.416L272.972 146.561H273.992L273.543 150.389C273.438 151.287 273.753 151.736 274.488 151.736C275.267 151.736 275.82 151.447 276.144 150.871L276.65 146.561H277.67L276.975 152.486H276.005L276.051 151.9ZM272.445 159.472L272.391 160.217C272.913 159.648 273.542 159.363 274.277 159.363C275.538 159.363 276.091 160.069 275.936 161.482L275.477 165.397H274.457L274.917 161.477C274.963 161.049 274.901 160.734 274.73 160.529C274.563 160.325 274.276 160.223 273.868 160.223C273.537 160.223 273.236 160.31 272.966 160.485C272.695 160.661 272.473 160.891 272.3 161.175L271.805 165.397H270.785L271.48 159.472H272.445Z" fill="#99C8FF"/>
<path d="M138.635 159.393H123.101C122.324 159.393 121.806 158.746 121.871 157.969L123.813 141.657C123.877 140.881 124.589 140.233 125.366 140.233H140.901C141.677 140.233 142.195 140.881 142.131 141.657L140.189 157.969C140.124 158.746 139.412 159.393 138.635 159.393Z" fill="#E3F0FF" stroke="white" stroke-miterlimit="10"/>
<path d="M135.657 185.155H120.122C119.345 185.155 118.827 184.507 118.892 183.731L120.834 167.419C120.899 166.642 121.611 165.995 122.387 165.995H137.922C138.699 165.995 139.217 166.642 139.152 167.419L137.21 183.731C137.081 184.507 136.369 185.155 135.657 185.155Z" fill="#E3F0FF" stroke="white" stroke-miterlimit="10"/>
<path d="M132.616 210.852H117.081C116.304 210.852 115.786 210.205 115.851 209.428L117.793 193.116C117.858 192.34 118.57 191.692 119.346 191.692H134.881C135.658 191.692 136.176 192.34 136.111 193.116L134.169 209.428C134.104 210.205 133.392 210.852 132.616 210.852Z" stroke="white" stroke-miterlimit="10"/>
<path d="M129.573 236.614H114.038C113.261 236.614 112.743 235.966 112.808 235.19L114.75 218.878C114.815 218.101 115.527 217.454 116.303 217.454H131.838C132.615 217.454 133.133 218.101 133.068 218.878L131.126 235.19C131.061 235.966 130.349 236.614 129.573 236.614Z" fill="#E3F0FF" stroke="white" stroke-miterlimit="10"/>
<path d="M163.231 159.393H147.696C146.919 159.393 146.402 158.746 146.466 157.969L148.408 141.657C148.473 140.881 149.185 140.233 149.962 140.233H165.496C166.273 140.233 166.791 140.881 166.726 141.657L164.784 157.969C164.72 158.746 164.008 159.393 163.231 159.393Z" stroke="white" stroke-miterlimit="10"/>
<path d="M160.188 185.155H144.653C143.877 185.155 143.359 184.507 143.423 183.731L145.365 167.419C145.43 166.642 146.142 165.995 146.919 165.995H162.453C163.23 165.995 163.748 166.642 163.683 167.419L161.741 183.731C161.677 184.507 160.965 185.155 160.188 185.155Z" stroke="white" stroke-miterlimit="10"/>
<path d="M157.211 210.852H141.677C140.9 210.852 140.382 210.205 140.447 209.428L142.389 193.116C142.453 192.34 143.165 191.692 143.942 191.692H159.477C160.254 191.692 160.771 192.34 160.707 193.116L158.765 209.428C158.635 210.205 157.988 210.852 157.211 210.852Z" fill="#99C8FF" stroke="white" stroke-miterlimit="10"/>
<path d="M154.168 236.614H138.634C137.857 236.614 137.339 235.966 137.404 235.19L139.346 218.878C139.41 218.101 140.122 217.454 140.899 217.454H156.434C157.211 217.454 157.728 218.101 157.664 218.878L155.722 235.19C155.657 235.966 154.945 236.614 154.168 236.614Z" fill="#E3F0FF" stroke="white" stroke-miterlimit="10"/>
<path d="M187.829 159.393H172.294C171.517 159.393 170.999 158.746 171.064 157.969L173.006 141.657C173.071 140.881 173.783 140.233 174.559 140.233H190.094C190.871 140.233 191.389 140.881 191.324 141.657L189.382 157.969C189.317 158.746 188.605 159.393 187.829 159.393Z" stroke="white" stroke-miterlimit="10"/>
<path d="M184.786 185.155H169.251C168.474 185.155 167.956 184.507 168.021 183.731L169.963 167.419C170.028 166.642 170.74 165.995 171.516 165.995H187.051C187.828 165.995 188.346 166.642 188.281 167.419L186.339 183.731C186.274 184.507 185.562 185.155 184.786 185.155Z" stroke="white" stroke-miterlimit="10"/>
<path d="M181.809 210.852H166.274C165.498 210.852 164.98 210.205 165.045 209.428L166.986 193.116C167.051 192.34 167.763 191.692 168.54 191.692H184.075C184.851 191.692 185.369 192.34 185.304 193.116L183.363 209.428C183.233 210.205 182.521 210.852 181.809 210.852Z" stroke="white" stroke-miterlimit="10"/>
<path d="M178.766 236.614H163.231C162.455 236.614 161.937 235.966 162.002 235.19L163.943 218.878C164.008 218.101 164.72 217.454 165.497 217.454H181.032C181.808 217.454 182.326 218.101 182.261 218.878L180.32 235.19C180.255 235.966 179.543 236.614 178.766 236.614Z" stroke="white" stroke-miterlimit="10"/>
<path d="M212.424 159.393H196.89C196.113 159.393 195.595 158.746 195.66 157.969L197.602 141.657C197.666 140.881 198.378 140.233 199.155 140.233H214.69C215.467 140.233 215.984 140.881 215.92 141.657L213.978 157.969C213.848 158.746 213.201 159.393 212.424 159.393Z" stroke="white" stroke-miterlimit="10"/>
<path d="M209.381 185.155H193.847C193.07 185.155 192.552 184.507 192.617 183.731L194.559 167.419C194.623 166.642 195.335 165.995 196.112 165.995H211.647C212.424 165.995 212.941 166.642 212.877 167.419L210.935 183.731C210.87 184.507 210.158 185.155 209.381 185.155Z" fill="#E3F0FF" stroke="white" stroke-miterlimit="10"/>
<path d="M206.34 210.852H190.806C190.029 210.852 189.511 210.205 189.576 209.428L191.518 193.116C191.582 192.34 192.294 191.692 193.071 191.692H208.606C209.382 191.692 209.9 192.34 209.836 193.116L207.894 209.428C207.829 210.205 207.117 210.852 206.34 210.852Z" stroke="white" stroke-miterlimit="10"/>
<path d="M203.362 236.614H187.827C187.05 236.614 186.533 235.966 186.597 235.19L188.539 218.878C188.604 218.101 189.316 217.454 190.093 217.454H205.627C206.404 217.454 206.922 218.101 206.857 218.878L204.915 235.19C204.851 235.966 204.139 236.614 203.362 236.614Z" fill="#E3F0FF" stroke="white" stroke-miterlimit="10"/>
<path d="M237.022 159.393H221.487C220.711 159.393 220.193 158.746 220.257 157.969L222.199 141.657C222.264 140.881 222.976 140.233 223.753 140.233H239.287C240.064 140.233 240.582 140.881 240.517 141.657L238.575 157.969C238.446 158.746 237.734 159.393 237.022 159.393Z" stroke="white" stroke-miterlimit="10"/>
<path d="M233.979 185.155H218.444C217.668 185.155 217.15 184.507 217.214 183.731L219.156 167.419C219.221 166.642 219.933 165.995 220.71 165.995H236.244C237.021 165.995 237.539 166.642 237.474 167.419L235.532 183.731C235.468 184.507 234.756 185.155 233.979 185.155Z" stroke="white" stroke-miterlimit="10"/>
<path d="M230.938 210.852H215.403C214.627 210.852 214.109 210.205 214.173 209.428L216.115 193.116C216.18 192.34 216.892 191.692 217.669 191.692H233.203C233.98 191.692 234.498 192.34 234.433 193.116L232.491 209.428C232.427 210.205 231.715 210.852 230.938 210.852Z" fill="#99C8FF" stroke="white" stroke-miterlimit="10"/>
<path d="M227.959 236.614H212.425C211.648 236.614 211.13 235.966 211.195 235.19L213.137 218.878C213.201 218.101 213.913 217.454 214.69 217.454H230.225C231.002 217.454 231.519 218.101 231.455 218.878L229.513 235.19C229.383 235.966 228.736 236.614 227.959 236.614Z" fill="#E3F0FF" stroke="white" stroke-miterlimit="10"/>
<path d="M261.553 159.393H246.018C245.242 159.393 244.724 158.746 244.789 157.969L246.73 141.657C246.795 140.881 247.507 140.233 248.284 140.233H263.819C264.595 140.233 265.113 140.881 265.048 141.657L263.107 157.969C263.042 158.746 262.33 159.393 261.553 159.393Z" stroke="white" stroke-miterlimit="10"/>
<path d="M258.575 185.155H243.04C242.263 185.155 241.745 184.507 241.81 183.731L243.752 167.419C243.817 166.642 244.529 165.995 245.305 165.995H260.84C261.617 165.995 262.135 166.642 262.07 167.419L260.128 183.731C259.999 184.507 259.351 185.155 258.575 185.155Z" stroke="white" stroke-miterlimit="10"/>
<path d="M255.532 210.852H239.997C239.22 210.852 238.702 210.205 238.767 209.428L240.709 193.116C240.774 192.34 241.486 191.692 242.262 191.692H257.797C258.574 191.692 259.092 192.34 259.027 193.116L257.085 209.428C257.02 210.205 256.308 210.852 255.532 210.852Z" fill="#E3F0FF" stroke="white" stroke-miterlimit="10"/>
<path d="M252.555 236.614H237.02C236.244 236.614 235.726 235.966 235.791 235.19L237.732 218.878C237.797 218.101 238.509 217.454 239.286 217.454H254.821C255.597 217.454 256.115 218.101 256.05 218.878L254.109 235.19C253.979 235.966 253.267 236.614 252.555 236.614Z" fill="#99C8FF" stroke="white" stroke-miterlimit="10"/>
<path d="M286.149 159.393H270.614C269.837 159.393 269.32 158.746 269.384 157.969L271.326 141.657C271.391 140.881 272.103 140.233 272.88 140.233H288.414C289.191 140.233 289.709 140.881 289.644 141.657L287.702 157.969C287.638 158.746 286.926 159.393 286.149 159.393Z" fill="#E3F0FF" stroke="white" stroke-miterlimit="10"/>
<path d="M283.17 185.155H267.636C266.859 185.155 266.341 184.507 266.406 183.731L268.348 167.419C268.412 166.642 269.124 165.995 269.901 165.995H285.436C286.213 165.995 286.73 166.642 286.666 167.419L284.724 183.731C284.594 184.507 283.947 185.155 283.17 185.155Z" stroke="white" stroke-miterlimit="10"/>
<path d="M280.129 210.852H264.595C263.818 210.852 263.3 210.205 263.365 209.428L265.307 193.116C265.371 192.34 266.083 191.692 266.86 191.692H282.395C283.172 191.692 283.689 192.34 283.625 193.116L281.683 209.428C281.618 210.205 280.906 210.852 280.129 210.852Z" stroke="white" stroke-miterlimit="10"/>
<path d="M277.086 236.614H261.552C260.775 236.614 260.257 235.966 260.322 235.19L262.264 218.878C262.328 218.101 263.04 217.454 263.817 217.454H279.352C280.129 217.454 280.646 218.101 280.582 218.878L278.64 235.19C278.575 235.966 277.863 236.614 277.086 236.614Z" stroke="white" stroke-miterlimit="10"/>
<path d="M133.974 110.523C133.845 111.882 132.874 112.983 131.773 112.983C130.673 112.983 129.896 111.882 130.026 110.523C130.155 109.164 131.126 108.063 132.227 108.063C133.327 108.063 134.104 109.164 133.974 110.523Z" fill="#2B8CFF"/>
<path d="M133.973 110.523C133.973 110.264 133.973 110.005 133.973 109.811C133.585 109.811 133.197 109.552 132.873 109.164C131.967 107.999 131.578 105.798 131.902 103.403C132.42 99.5193 134.556 96.6065 136.109 96.6065C136.562 96.6065 136.951 96.8007 137.274 97.2538C138.116 98.2895 138.44 100.231 138.31 102.367H140.899C141.093 99.5193 140.511 96.9949 139.216 95.4414C138.375 94.4058 137.274 93.8232 136.109 93.8232C133.002 93.8232 130.025 97.9011 129.313 103.015C128.86 106.251 129.442 109.228 130.866 111.041C131.449 111.818 132.161 112.271 132.938 112.53C133.52 112.012 133.909 111.3 133.973 110.523Z" fill="#42526E"/>
<path d="M159.154 110.523C159.024 111.882 158.054 112.983 156.953 112.983C155.853 112.983 155.076 111.882 155.205 110.523C155.335 109.164 156.306 108.063 157.406 108.063C158.571 108.063 159.283 109.164 159.154 110.523Z" fill="#2B8CFF"/>
<path d="M159.153 110.523C159.153 110.264 159.153 110.005 159.153 109.811C158.765 109.811 158.376 109.552 158.053 109.164C157.146 107.999 156.758 105.798 157.082 103.403C157.6 99.5193 159.736 96.6065 161.289 96.6065C161.742 96.6065 162.13 96.8007 162.454 97.2538C163.296 98.2895 163.619 100.231 163.49 102.367H166.079C166.273 99.5193 165.69 96.9949 164.396 95.4414C163.554 94.4058 162.454 93.8232 161.289 93.8232C158.182 93.8232 155.205 97.9011 154.493 103.015C154.039 106.251 154.622 109.228 156.046 111.041C156.629 111.818 157.341 112.271 158.117 112.53C158.7 112.012 159.088 111.3 159.153 110.523Z" fill="#42526E"/>
<path d="M184.398 110.523C184.269 111.882 183.298 112.983 182.197 112.983C181.097 112.983 180.32 111.882 180.45 110.523C180.579 109.164 181.55 108.063 182.65 108.063C183.751 108.063 184.527 109.164 184.398 110.523Z" fill="#2B8CFF"/>
<path d="M184.397 110.523C184.397 110.264 184.397 110.005 184.397 109.811C184.009 109.811 183.62 109.552 183.297 109.164C182.391 107.999 182.002 105.798 182.326 103.403C182.844 99.5193 184.98 96.6065 186.533 96.6065C186.986 96.6065 187.375 96.8007 187.698 97.2538C188.54 98.2895 188.863 100.231 188.734 102.367H191.323C191.517 99.5193 190.935 96.9949 189.64 95.4414C188.799 94.4058 187.698 93.8232 186.533 93.8232C183.426 93.8232 180.449 97.9011 179.737 103.015C179.284 106.251 179.866 109.228 181.29 111.041C181.873 111.818 182.585 112.271 183.361 112.53C183.944 112.012 184.332 111.3 184.397 110.523Z" fill="#42526E"/>
<path d="M209.576 110.523C209.446 111.882 208.475 112.983 207.375 112.983C206.275 112.983 205.498 111.882 205.627 110.523C205.757 109.164 206.728 108.063 207.828 108.063C208.928 108.063 209.705 109.164 209.576 110.523Z" fill="#2B8CFF"/>
<path d="M209.575 110.523C209.575 110.264 209.575 110.005 209.575 109.811C209.186 109.811 208.798 109.552 208.474 109.164C207.568 107.999 207.18 105.798 207.504 103.403C208.021 99.5193 210.157 96.6065 211.711 96.6065C212.164 96.6065 212.552 96.8007 212.876 97.2538C213.717 98.2895 214.041 100.231 213.912 102.367H216.501C216.695 99.5193 216.112 96.9949 214.818 95.4414C213.976 94.4058 212.876 93.8232 211.711 93.8232C208.604 93.8232 205.626 97.9011 204.914 103.015C204.461 106.251 205.044 109.228 206.468 111.041C207.05 111.818 207.762 112.271 208.539 112.53C209.122 112.012 209.51 111.3 209.575 110.523Z" fill="#42526E"/>
<path d="M234.82 110.523C234.69 111.882 233.72 112.983 232.619 112.983C231.519 112.983 230.742 111.882 230.872 110.523C231.001 109.164 231.972 108.063 233.072 108.063C234.173 108.063 234.949 109.164 234.82 110.523Z" fill="#2B8CFF"/>
<path d="M234.819 110.523C234.819 110.264 234.819 110.005 234.819 109.811C234.431 109.811 234.042 109.552 233.719 109.164C232.812 107.999 232.424 105.798 232.748 103.403C233.266 99.5193 235.402 96.6065 236.955 96.6065C237.408 96.6065 237.796 96.8007 238.12 97.2538C238.962 98.2895 239.285 100.231 239.156 102.367H241.745C241.939 99.5193 241.357 96.9949 240.062 95.4414C239.22 94.4058 238.12 93.8232 236.955 93.8232C233.848 93.8232 230.871 97.9011 230.159 103.015C229.705 106.251 230.288 109.228 231.712 111.041C232.295 111.818 233.007 112.271 233.783 112.53C234.301 112.012 234.69 111.3 234.819 110.523Z" fill="#42526E"/>
<path d="M260 110.523C259.87 111.882 258.899 112.983 257.799 112.983C256.698 112.983 255.922 111.882 256.051 110.523C256.181 109.164 257.152 108.063 258.252 108.063C259.352 108.063 260.129 109.164 260 110.523Z" fill="#2B8CFF"/>
<path d="M259.999 110.523C259.999 110.264 259.999 110.005 259.999 109.811C259.61 109.811 259.222 109.552 258.898 109.164C257.992 107.999 257.604 105.798 257.927 103.403C258.445 99.5193 260.581 96.6065 262.135 96.6065C262.588 96.6065 262.976 96.8007 263.3 97.2538C264.141 98.2895 264.465 100.231 264.335 102.367H266.925C267.119 99.5193 266.536 96.9949 265.242 95.4414C264.4 94.4058 263.3 93.8232 262.135 93.8232C259.028 93.8232 256.05 97.9011 255.338 103.015C254.885 106.251 255.468 109.228 256.892 111.041C257.474 111.818 258.186 112.271 258.963 112.53C259.546 112.012 259.934 111.3 259.999 110.523Z" fill="#42526E"/>
<path d="M285.179 110.523C285.05 111.882 284.079 112.983 282.979 112.983C281.878 112.983 281.101 111.882 281.231 110.523C281.36 109.164 282.331 108.063 283.432 108.063C284.532 108.063 285.309 109.164 285.179 110.523Z" fill="#2B8CFF"/>
<path d="M285.178 110.523C285.178 110.264 285.178 110.005 285.178 109.811C284.79 109.811 284.402 109.552 284.078 109.164C283.172 107.999 282.783 105.798 283.107 103.403C283.625 99.5193 285.761 96.6065 287.314 96.6065C287.767 96.6065 288.156 96.8007 288.48 97.2538C289.321 98.2895 289.645 100.231 289.515 102.367H292.104C292.298 99.5193 291.716 96.9949 290.421 95.4414C289.58 94.4058 288.479 93.8232 287.314 93.8232C284.207 93.8232 281.23 97.9011 280.518 103.015C280.065 106.251 280.647 109.228 282.071 111.041C282.654 111.818 283.366 112.271 284.143 112.53C284.725 112.012 285.114 111.3 285.178 110.523Z" fill="#42526E"/>
<path d="M197.213 175.639C198.183 177.193 199.09 179.005 200.255 180.429C201.032 181.335 202.002 181.465 202.909 180.688C204.397 179.329 205.562 177.452 206.792 175.898C207.957 174.41 209.446 172.921 210.158 171.173C210.417 170.526 209.576 169.943 208.993 170.267C206.792 171.82 205.174 174.539 203.556 176.61C203.168 177.128 202.779 177.581 202.391 178.099C201.744 178.941 201.744 178.876 201.096 178.164C200.19 177.193 199.543 175.898 198.766 174.798C198.119 173.827 196.63 174.668 197.213 175.639Z" fill="#99C8FF"/>
<path d="M119.474 200.172C120.445 201.725 121.351 203.537 122.517 204.962C123.293 205.868 124.264 205.997 125.17 205.22C126.659 203.861 127.824 201.984 129.054 200.431C130.219 198.942 131.708 197.453 132.42 195.705C132.679 195.058 131.837 194.476 131.255 194.799C129.054 196.353 127.436 199.071 125.818 201.143C125.429 201.66 125.041 202.113 124.653 202.631C124.005 203.473 124.005 203.408 123.358 202.696C122.452 201.725 121.804 200.431 121.028 199.33C120.38 198.424 118.892 199.201 119.474 200.172Z" fill="#99C8FF"/>
<path d="M254.951 195.705C250.614 193.828 243.688 199.071 244.076 203.731C244.27 206.32 247.248 207.42 249.578 207.032C252.815 206.45 254.692 202.889 253.138 199.912C251.779 197.258 247.507 194.669 244.4 195.057C243.817 195.122 243.882 195.899 244.27 196.158C246.536 197.647 249.513 197.97 251.132 200.43C252.103 201.919 251.714 203.925 250.096 204.702C249.06 205.22 247.248 205.22 246.407 204.249C245.177 202.825 247.313 200.365 248.284 199.459C250.096 197.711 252.361 196.87 254.886 196.481C255.274 196.481 255.339 195.834 254.951 195.705Z" fill="#99C8FF"/>
<path d="M161.871 146.836C157.534 144.958 150.608 150.201 150.996 154.862C151.19 157.451 154.168 158.551 156.498 158.163C159.734 157.58 161.612 154.02 160.058 151.043C158.699 148.389 154.427 145.8 151.32 146.188C150.737 146.253 150.802 147.03 151.19 147.289C153.456 148.777 156.433 149.101 158.052 151.561C159.022 153.049 158.634 155.056 157.016 155.833C155.98 156.351 154.168 156.351 153.326 155.38C152.097 153.956 154.233 151.496 155.204 150.59C157.016 148.842 159.281 148.001 161.806 147.612C162.129 147.612 162.259 146.965 161.871 146.836Z" fill="#99C8FF"/>
<path d="M170.544 207.421C172.098 205.932 173.587 204.508 175.075 202.955C176.111 201.854 177.211 200.819 178.247 199.718C178.83 199.071 179.93 198.294 180.189 197.453C180.383 196.741 179.671 195.964 178.959 196.223C178.118 196.546 177.47 197.517 176.823 198.165C175.787 199.33 174.687 200.43 173.651 201.595C172.227 203.149 170.803 204.702 169.444 206.32C168.861 207.097 169.832 208.133 170.544 207.421Z" fill="#99C8FF"/>
<path d="M170.868 197.388C173.004 200.689 175.14 204.12 177.535 207.227C178.312 208.262 180.124 207.291 179.348 206.191C177.147 202.825 174.558 199.653 172.033 196.482C171.58 195.77 170.415 196.676 170.868 197.388Z" fill="#99C8FF"/>
<path d="M172.488 174.021C174.883 174.151 177.213 174.215 179.608 174.28C181.161 174.28 183.621 174.992 184.592 173.568C184.722 173.439 184.722 173.18 184.592 173.05C183.556 171.626 181.161 172.274 179.608 172.338C177.213 172.403 174.883 172.468 172.488 172.597C171.517 172.597 171.517 173.956 172.488 174.021Z" fill="#99C8FF"/>
<path d="M172.035 179.329C173.2 179.653 174.3 179.653 175.465 179.717C176.566 179.782 177.666 179.911 178.637 179.329C179.025 179.07 179.025 178.487 178.637 178.293C177.666 177.711 176.566 177.84 175.465 177.905C174.3 177.97 173.135 177.97 172.035 178.293C171.452 178.358 171.452 179.199 172.035 179.329Z" fill="#99C8FF"/>
<path d="M192.035 223.862C194.43 223.991 196.76 224.056 199.155 224.121C200.708 224.121 203.168 224.833 204.139 223.409C204.268 223.279 204.268 223.021 204.139 222.891C203.103 221.467 200.708 222.114 199.155 222.179C196.76 222.244 194.43 222.309 192.035 222.438C191.064 222.373 191.064 223.797 192.035 223.862Z" fill="#99C8FF"/>
<path d="M191.581 229.104C192.747 229.428 193.847 229.428 195.012 229.493C196.112 229.557 197.213 229.687 198.184 229.104C198.572 228.845 198.572 228.263 198.184 228.069C197.213 227.486 196.112 227.616 195.012 227.68C193.847 227.745 192.682 227.745 191.581 228.069C190.999 228.198 190.999 228.975 191.581 229.104Z" fill="#99C8FF"/>
<path d="M224.658 149.683C227.053 149.813 229.383 149.878 231.778 149.942C233.331 149.942 235.791 150.654 236.762 149.23C236.891 149.101 236.891 148.842 236.762 148.712C235.726 147.288 233.331 147.936 231.778 148C229.383 148.065 227.053 148.13 224.658 148.259C223.687 148.259 223.687 149.619 224.658 149.683Z" fill="#99C8FF"/>
<path d="M224.204 154.991C225.37 155.315 226.47 155.315 227.635 155.379C228.735 155.444 229.836 155.574 230.807 154.991C231.195 154.732 231.195 154.15 230.807 153.955C229.836 153.373 228.735 153.502 227.635 153.567C226.47 153.632 225.305 153.632 224.204 153.955C223.622 154.02 223.622 154.797 224.204 154.991Z" fill="#99C8FF"/>
<path d="M249.838 149.683C252.232 149.813 254.563 149.878 256.958 149.942C258.511 149.942 260.971 150.654 261.942 149.23C262.071 149.101 262.071 148.842 261.942 148.712C260.906 147.288 258.511 147.936 256.958 148C254.563 148.065 252.232 148.13 249.838 148.259C248.867 148.259 248.867 149.619 249.838 149.683Z" fill="#99C8FF"/>
<path d="M249.384 154.991C250.55 155.315 251.65 155.315 252.815 155.379C253.915 155.444 255.016 155.574 255.987 154.991C256.375 154.732 256.375 154.15 255.987 153.955C255.016 153.373 253.915 153.502 252.815 153.567C251.65 153.632 250.485 153.632 249.384 153.955C248.867 154.02 248.867 154.797 249.384 154.991Z" fill="#99C8FF"/>
<path d="M145.496 198.877C147.891 199.006 150.221 199.071 152.616 199.136C154.169 199.136 156.629 199.848 157.6 198.424C157.729 198.294 157.729 198.035 157.6 197.906C156.564 196.482 154.169 197.129 152.616 197.194C150.221 197.258 147.891 197.323 145.496 197.453C144.525 197.388 144.525 198.812 145.496 198.877Z" fill="#99C8FF"/>
<path d="M145.043 204.184C146.208 204.508 147.308 204.508 148.473 204.573C149.574 204.638 150.674 204.767 151.645 204.184C152.033 203.925 152.033 203.343 151.645 203.149C150.674 202.566 149.574 202.696 148.473 202.76C147.308 202.825 146.143 202.825 145.043 203.149C144.525 203.213 144.525 203.99 145.043 204.184Z" fill="#99C8FF"/>
<path d="M60.5723 251.76H362.075" stroke="#42526E" stroke-width="2" stroke-miterlimit="10"/>
<path d="M118.893 156.673L122.194 154.149C122.194 154.149 122.453 150.912 123.812 150.33C125.171 149.747 125.43 150.33 125.43 150.33C125.43 150.33 126.466 149.359 126.984 149.877C127.501 150.394 127.372 150.912 127.372 150.912C127.372 150.912 127.76 150.977 128.019 151.236C128.278 151.495 128.149 152.013 128.149 152.013C128.149 152.013 128.537 151.818 128.731 152.272C128.925 152.725 128.731 153.178 128.731 153.178C128.731 153.178 129.12 153.178 129.184 153.696C129.249 154.602 126.272 157.515 124.589 156.803L119.346 161.981" fill="#FFB3AD"/>
<path d="M125.56 150.719C125.754 150.978 125.884 151.237 126.078 151.495C126.207 151.69 126.337 151.884 126.337 152.143C126.337 152.207 126.337 152.272 126.337 152.337C126.272 152.466 126.142 152.466 126.013 152.466C125.366 152.466 124.718 152.143 124.33 151.69" stroke="#FFB3AD" stroke-width="0.4" stroke-miterlimit="10"/>
<path d="M126.143 151.819C126.466 151.624 126.79 151.43 127.178 151.301" stroke="#FFB3AD" stroke-width="0.4" stroke-miterlimit="10"/>
<path d="M125.3 152.336C125.3 152.336 125.171 152.53 125.106 152.595C125.041 152.789 124.977 152.983 125.106 153.113C125.171 153.307 125.43 153.372 125.624 153.372C125.818 153.372 126.012 153.307 126.206 153.242C126.789 153.048 127.307 152.724 127.825 152.336" stroke="#FFB3AD" stroke-width="0.4" stroke-miterlimit="10"/>
<path d="M125.948 153.437C125.818 153.76 125.818 154.149 126.012 154.407C126.271 154.796 126.789 154.602 127.177 154.472C127.631 154.213 128.019 153.954 128.407 153.566" stroke="#FFB3AD" stroke-width="0.4" stroke-miterlimit="10"/>
<path d="M126.789 154.537C126.66 154.796 126.724 155.184 127.113 155.314C127.307 155.379 127.76 155.379 128.148 155.12" stroke="#FFB3AD" stroke-width="0.4" stroke-miterlimit="10"/>
<path d="M124.395 151.883C124.654 152.401 124.848 153.242 124.719 153.825C124.589 154.407 124.266 154.925 123.812 155.313" stroke="#FFB3AD" stroke-width="0.4" stroke-miterlimit="10"/>
<path d="M50.6048 199.265C50.6048 199.265 41.284 198.618 42.9669 197C44.5851 195.381 51.8994 195.64 52.223 195.64C52.5467 195.64 50.6048 199.265 50.6048 199.265Z" fill="#0B233A"/>
<path d="M123.36 166.188L127.114 163.729L121.159 154.02L114.557 158.615" fill="white"/>
<path d="M81.0273 140.815C81.0273 140.815 87.2412 142.11 92.7431 148.906C96.4326 153.437 103.1 164.571 104.135 164.571C105.171 164.571 118.893 154.991 118.893 154.991L125.819 166.642C125.819 166.642 107.242 178.875 102.97 178.875C95.138 178.875 81.0273 162.176 81.0273 162.176" fill="#2B8CFF"/>
<path d="M82.7742 142.175C82.7742 142.175 93.9721 149.683 92.9365 164.441C90.1531 176.998 84.1982 205.349 84.1982 205.349L55.459 193.569L82.7742 142.175Z" fill="#2B8CFF"/>
<path d="M82.3208 142.175C82.3208 142.175 88.7289 148.518 88.7289 163.341C88.7289 178.164 84.2626 205.349 84.2626 205.349L55.5234 193.569L82.3208 142.175Z" fill="#0B233A"/>
<path d="M90.8008 173.245C90.8008 173.245 92.5484 164.765 92.9368 164.377" stroke="#0B233A" stroke-width="0.75" stroke-miterlimit="10" stroke-linejoin="round"/>
<path d="M86.5922 184.248C86.7864 184.054 91.5762 161.723 91.5762 161.205C91.5762 160.687 90.217 160.558 90.217 160.04C90.217 159.522 92.2883 158.551 92.2883 157.581C92.2883 156.61 88.8577 147.353 84.1973 142.758" stroke="#0B233A" stroke-width="0.75" stroke-miterlimit="10" stroke-linejoin="round"/>
<path d="M16.169 233.376L3.9354 238.231C0.375363 244.509 6.33033 242.632 6.33033 242.632L21.3472 238.878" fill="#FFB3AD"/>
<path d="M1.41118 238.684L3.93556 238.23C3.5472 242.244 6.3305 242.632 6.3305 242.632L7.4956 249.558C7.75451 251.629 5.94213 252.794 5.29485 251.564L0.181346 241.078C-0.336477 240.043 0.310803 238.878 1.41118 238.684Z" fill="#0B233A"/>
<path d="M74.1013 193.568C74.1013 193.568 60.5085 226.45 52.8058 233.311C40.1192 244.639 16.5582 249.105 16.5582 249.105L10.668 235.447C10.668 235.447 37.4006 223.02 38.3715 222.049C39.0188 221.401 43.0966 212.663 45.3621 207.873C46.2036 206.061 46.592 204.119 46.5272 202.113C46.4625 198.423 47.5629 191.562 56.1717 186.189" fill="#E2E2F1"/>
<path d="M94.8125 253.636L95.0714 266.841C99.6671 272.407 100.055 266.129 100.055 266.129L101.803 250.724" fill="#FFB3AD"/>
<path d="M94.6182 269.365L95.0713 266.841C98.6961 268.589 100.055 266.129 100.055 266.129L106.917 267.488C108.923 268.006 109.376 270.077 108.017 270.207L96.3659 271.307C95.3302 271.437 94.424 270.466 94.6182 269.365Z" fill="#0B233A"/>
<path d="M77.4658 184.248C77.4658 184.248 98.6966 209.362 101.545 221.661C105.364 238.231 102.516 261.274 102.516 261.274L89.6347 261.015C89.6347 261.015 85.9452 230.205 85.2979 229.105C83.8092 226.515 73.9058 214.217 72.0287 212.664C66.009 207.485 64.1319 204.055 62.5137 196.741" fill="#E2E2F1"/>
<path d="M11.25 236.807C11.25 236.807 37.9826 226.839 39.6008 225.22C41.219 223.602 49.7631 205.284 49.7631 203.666C49.7631 202.048 47.5624 196.611 55.4592 190.785" stroke="#42526E" stroke-width="0.75" stroke-miterlimit="10"/>
<path d="M67.6934 208.133C67.6934 208.133 72.4832 199.524 74.1662 191.562" stroke="#42526E" stroke-width="0.75" stroke-miterlimit="10"/>
<path d="M70.9297 201.077C70.9297 201.077 72.3537 201.725 73.1952 200.819C74.5545 199.459 76.4316 191.562 76.4316 191.562" stroke="#42526E" stroke-width="0.75" stroke-miterlimit="10"/>
<path d="M69.0527 205.414C69.5706 206.644 71.7066 208.262 74.4252 211.24C79.7976 217.195 87.2413 225.803 88.018 228.392C89.1831 232.341 91.0602 260.886 91.0602 260.886" stroke="#42526E" stroke-width="0.75" stroke-miterlimit="10"/>
<path d="M83.875 143.793C83.875 143.793 88.8591 148.842 88.2765 161.658C87.8234 172.144 84.8459 186.449 84.8459 188.585C84.8459 190.721 87.3703 193.116 79.4735 193.569C69.9585 194.087 57.2718 192.598 49.8281 186.19C49.8281 183.73 65.557 149.748 65.557 149.748L77.208 142.175L83.875 143.793Z" fill="#E3F0FF"/>
<path d="M89.4415 126.575C89.4415 126.575 94.1667 138.291 90.0241 139.133C84.6517 140.233 82.0626 137.708 81.6095 136.932C80.7033 135.249 78.0494 130.847 79.5382 128.841C81.6742 125.928 86.723 124.116 89.4415 126.575Z" fill="#FFB3AD"/>
<path d="M85.7525 137.837L84.1343 144.181C84.1343 144.181 79.668 146.705 76.4316 140.232L81.5451 133.371" fill="#FFB3AD"/>
<path d="M79.4736 136.026C80.3151 136.155 81.6097 135.702 82.4511 135.443C82.7748 135.314 83.1631 134.99 82.9042 134.731C82.7748 134.602 82.5806 134.602 82.4511 134.537C81.9333 134.407 81.6744 133.825 81.4802 133.307C81.2213 132.725 81.0271 132.142 81.0918 131.495C81.1566 130.847 81.6097 130.265 82.2569 130.2C82.8395 130.135 83.3573 130.653 83.6162 131.171C83.6809 131.3 83.7457 131.495 83.8751 131.559C84.134 131.689 84.4577 131.495 84.5224 131.236C84.5871 130.977 84.5224 130.718 84.5224 130.394C84.4577 129.682 84.6519 128.906 85.0402 128.258C85.2344 127.935 85.5581 127.546 85.2991 127.223C85.1697 127.028 84.846 126.964 84.5871 126.964C83.6162 126.899 82.6453 126.964 81.7391 127.158C79.9915 127.482 77.6613 130.135 77.4023 131.883C77.726 132.919 78.1791 135.249 79.4736 136.026Z" fill="#42526E"/>
<path d="M77.4025 131.948C78.1145 130.653 79.9916 128.97 81.4156 128.647C83.3575 128.194 85.2993 127.87 87.3059 127.611C88.2121 127.482 89.183 127.352 89.8303 126.705C90.2186 126.317 90.4128 125.863 90.607 125.41C90.9306 124.634 91.1895 123.792 91.1248 122.951C91.1248 122.109 90.8012 121.203 90.0892 120.75C89.1182 120.038 87.759 120.232 86.5939 120.685C83.8106 121.721 81.3509 123.21 79.9269 125.799C79.2149 125.281 78.1145 125.605 77.4672 126.122C76.7552 126.64 74.9428 130.394 77.4025 131.948Z" fill="#0B233A"/>
<path d="M90.543 129.812C90.543 129.812 93.5205 132.854 93.2615 133.566C93.0026 134.278 91.1255 134.537 91.1255 134.537" fill="#FFB3AD"/>
<path d="M88.2115 129.941C88.341 129.876 88.5351 129.812 88.5999 129.876C88.9235 130.071 88.9235 130.783 88.7293 131.042C88.5999 131.236 88.341 131.365 88.1468 131.171C88.082 131.106 88.0173 130.977 88.0173 130.912C87.9526 130.653 87.8879 130.394 87.9526 130.135C88.0173 130.071 88.0821 130.006 88.2115 129.941Z" fill="#0B233A"/>
<path d="M89.1822 128.193C88.1465 128.064 86.5283 128.517 86.14 129.553C86.0753 129.682 86.2694 129.747 86.3342 129.747C86.7873 129.488 87.1109 129.1 87.564 128.841C88.0818 128.582 88.5996 128.452 89.1822 128.388C89.3116 128.323 89.3116 128.193 89.1822 128.193Z" fill="#0B233A"/>
<path d="M91.7724 136.478C90.9309 136.543 89.4422 136.414 88.3418 135.572" stroke="#FFB3AD" stroke-width="0.75" stroke-miterlimit="10"/>
<path d="M63.8095 139.392C59.7316 141.722 58.437 148.583 55.3301 160.299C49.5046 182.501 42.9023 196.935 42.9023 196.935C42.9023 196.935 43.6791 196.288 49.8282 196.935C58.5018 197.906 62.7738 200.236 65.7513 201.466C66.2044 201.66 66.7869 201.466 66.9811 200.948C68.1462 198.23 72.4183 189.038 74.7485 178.682C82.3216 144.57 77.1434 139.198 77.1434 139.198C77.1434 139.198 69.3761 137.903 63.8095 139.392Z" fill="#2B8CFF"/>
<path d="M73 182.112C76.3659 167.807 73 158.745 73.712 158.098C74.424 157.451 77.7251 157.645 77.7251 157.127C77.7251 156.544 73 156.027 73 154.861C73 151.949 73.712 145.282 74.424 140.104" stroke="#0B233A" stroke-width="0.75" stroke-miterlimit="10" stroke-linejoin="round"/>
<path d="M65.6857 188.196L55.5234 188.973V190.268H64.6501L65.6857 188.196Z" fill="#0B233A"/>
<path d="M31.1857 187.937L29.8264 187.548L30.7974 184.118C30.9268 183.665 30.8621 183.147 30.6679 182.694C30.409 182.241 30.0206 181.917 29.5675 181.788L21.4765 179.522C20.5056 179.263 19.47 179.781 19.2111 180.817L18.2401 184.247L16.8809 183.859L17.8518 180.428C18.3696 178.681 20.182 177.645 21.9296 178.163L29.9559 180.493C30.7974 180.752 31.5094 181.27 31.9625 182.047C32.4156 182.823 32.4803 183.73 32.2214 184.571L31.1857 187.937Z" fill="#8F8FAE"/>
<path d="M33.1935 209.233L3.807 200.818C3.61282 200.753 3.48336 200.494 3.54809 200.3L9.24414 180.299C9.30887 180.105 9.56778 179.976 9.76197 180.04L39.1484 188.455C39.3426 188.52 39.4721 188.779 39.4073 188.973L33.7113 208.974C33.6466 209.168 33.4524 209.297 33.1935 209.233Z" fill="#FADE7D"/>
<path d="M3.48242 200.235L12.9327 195.446L17.6578 193.051L20.0528 191.886L21.2179 191.303L21.8004 191.044L22.1241 190.915C22.1888 190.915 22.2535 190.85 22.383 190.85C22.5124 190.85 22.5772 190.785 22.6419 190.785H22.7066L22.7713 190.915L33.6456 208.974L22.3182 191.238L22.5124 191.368V191.432C22.5124 191.432 22.5124 191.432 22.4477 191.497L22.1241 191.627L21.5415 191.886L20.3117 192.403L17.9167 193.504L13.1269 195.769L3.48242 200.235Z" fill="#8F8FAE"/>
<path d="M20.8946 197.063L9.37305 179.91L39.5363 188.519L20.8946 197.063Z" fill="#FFEAA1"/>
<path d="M28.079 169.166L25.6841 174.733C25.6841 174.733 24.3248 175.768 23.548 176.869C22.9655 177.71 22.1888 180.17 22.9655 180.688C23.4186 181.011 23.807 180.688 23.807 180.688C23.807 180.688 23.6775 181.464 24.3248 181.658C24.9073 181.853 25.0368 181.205 25.0368 181.205C25.0368 181.205 25.0368 181.917 25.6841 182.047C26.0724 182.112 26.3313 181.594 26.3313 181.594C26.3313 181.594 26.3961 182.176 26.9139 182.241C27.6906 182.371 28.3379 181.982 28.5321 181.594L27.9495 181.4C27.6906 181.335 27.5612 181.011 27.6906 180.817C27.8201 180.558 27.9495 180.364 28.0143 180.299C28.2732 180.105 28.6615 180.105 28.6615 180.105L29.4383 180.299C29.4383 180.299 30.0856 177.84 28.9205 176.157L32.2216 170.59" fill="#FFB3AD"/>
<path d="M27.6912 166.771L24.5195 172.596L37.0767 175.832L40.5721 168.712" fill="#E3F0FF"/>
<path d="M66.7211 143.534C66.7211 143.534 70.6695 138.096 64.2614 139.197C55.0053 140.815 45.9434 143.404 39.6648 148.129C31.7033 154.149 25.2305 170.46 25.2305 170.46L39.0822 174.02L49.8918 158.162L71.1226 155.12" fill="#2B8CFF"/>
<path d="M56.2363 157.32C56.2363 157.32 68.7288 154.861 70.0234 156.09" stroke="#0B233A" stroke-width="0.75" stroke-miterlimit="10" stroke-linejoin="round"/>
<path d="M315.406 161.334H292.945V174.992H315.406V161.334Z" fill="#0B233A"/>
<path d="M317.219 167.094H291.134C289.71 167.094 288.545 165.929 288.545 164.505V153.178C288.545 151.754 289.71 150.589 291.134 150.589H317.219C318.643 150.589 319.808 151.754 319.808 153.178V164.505C319.873 165.929 318.643 167.094 317.219 167.094Z" fill="#FFEAA1"/>
<g opacity="0.55">
<path opacity="0.55" d="M292.557 150.525V167.096" stroke="white" stroke-width="3" stroke-miterlimit="10"/>
<path opacity="0.55" d="M297.217 150.524V167.095" stroke="white" stroke-width="3" stroke-miterlimit="10"/>
<path opacity="0.55" d="M301.877 150.524V167.095" stroke="white" stroke-width="3" stroke-miterlimit="10"/>
<path opacity="0.55" d="M306.473 150.524V167.095" stroke="white" stroke-width="3" stroke-miterlimit="10"/>
<path opacity="0.55" d="M311.133 150.524V167.095" stroke="white" stroke-width="3" stroke-miterlimit="10"/>
<path opacity="0.55" d="M315.795 150.524V167.095" stroke="white" stroke-width="3" stroke-miterlimit="10"/>
</g>
<path d="M347.835 186.383L335.796 174.344C335.408 173.956 334.76 173.956 334.372 174.344L327.77 180.946C327.381 181.335 327.381 181.982 327.77 182.37L339.809 194.41C340.198 194.798 340.845 194.798 341.233 194.41L347.835 187.807C348.224 187.419 348.224 186.772 347.835 186.383Z" fill="#8F8FAE"/>
<path d="M260.518 186.383L272.557 174.344C272.946 173.956 273.593 173.956 273.981 174.344L280.583 180.946C280.972 181.335 280.972 181.982 280.583 182.37L268.544 194.41C268.156 194.798 267.508 194.798 267.12 194.41L260.518 187.807C260.129 187.419 260.129 186.772 260.518 186.383Z" fill="#8F8FAE"/>
<path d="M312.566 270.663C339.851 266.059 358.237 240.208 353.633 212.923C349.029 185.639 323.178 167.253 295.893 171.857C268.609 176.461 250.223 202.312 254.827 229.596C259.431 256.881 285.282 275.267 312.566 270.663Z" fill="#FFEAA1"/>
<path d="M304.208 265.223C328.481 265.223 348.158 245.546 348.158 221.273C348.158 196.999 328.481 177.322 304.208 177.322C279.935 177.322 260.258 196.999 260.258 221.273C260.258 245.546 279.935 265.223 304.208 265.223Z" stroke="white" stroke-miterlimit="10"/>
<path d="M304.209 263.151C327.338 263.151 346.088 244.402 346.088 221.273C346.088 198.143 327.338 179.394 304.209 179.394C281.08 179.394 262.33 198.143 262.33 221.273C262.33 244.402 281.08 263.151 304.209 263.151Z" fill="white"/>
<path d="M305.891 183.665C305.891 184.572 305.114 185.348 304.208 185.348C303.302 185.348 302.525 184.572 302.525 183.665C302.525 182.759 303.302 181.982 304.208 181.982C305.114 181.982 305.891 182.694 305.891 183.665Z" fill="#42526E"/>
<path d="M305.891 258.879C305.891 259.785 305.114 260.562 304.208 260.562C303.302 260.562 302.525 259.785 302.525 258.879C302.525 257.973 303.302 257.196 304.208 257.196C305.114 257.196 305.891 257.973 305.891 258.879Z" fill="#42526E"/>
<path d="M341.816 222.956C340.91 222.956 340.133 222.179 340.133 221.273C340.133 220.367 340.91 219.59 341.816 219.59C342.722 219.59 343.499 220.367 343.499 221.273C343.499 222.179 342.722 222.956 341.816 222.956Z" fill="#42526E"/>
<path d="M266.536 222.956C265.63 222.956 264.854 222.179 264.854 221.273C264.854 220.367 265.63 219.59 266.536 219.59C267.443 219.59 268.219 220.367 268.219 221.273C268.219 222.179 267.507 222.956 266.536 222.956Z" fill="#42526E"/>
<path d="M286.214 190.655C286.02 190.655 285.891 190.591 285.761 190.397L284.078 187.484C283.949 187.225 284.014 186.966 284.273 186.772C284.532 186.642 284.79 186.707 284.985 186.966L286.668 189.879C286.797 190.138 286.732 190.397 286.473 190.591C286.409 190.655 286.279 190.655 286.214 190.655Z" fill="#42526E"/>
<path d="M323.822 255.837C323.628 255.837 323.498 255.772 323.369 255.578L321.686 252.665C321.556 252.406 321.621 252.148 321.88 251.953C322.139 251.824 322.398 251.889 322.592 252.148L324.275 255.06C324.404 255.319 324.34 255.578 324.081 255.772C324.016 255.772 323.887 255.837 323.822 255.837Z" fill="#42526E"/>
<path d="M273.073 203.796C273.008 203.796 272.879 203.796 272.814 203.731L269.901 202.048C269.643 201.919 269.578 201.595 269.707 201.336C269.837 201.077 270.16 201.012 270.419 201.142L273.332 202.825C273.591 202.954 273.656 203.278 273.526 203.537C273.397 203.731 273.203 203.796 273.073 203.796Z" fill="#42526E"/>
<path d="M338.19 241.402C338.126 241.402 337.996 241.402 337.931 241.337L335.019 239.655C334.76 239.525 334.695 239.201 334.824 238.942C334.954 238.684 335.278 238.619 335.537 238.748L338.449 240.431C338.708 240.561 338.773 240.884 338.643 241.143C338.579 241.337 338.385 241.402 338.19 241.402Z" fill="#42526E"/>
<path d="M335.278 203.796C335.083 203.796 334.954 203.731 334.824 203.537C334.695 203.278 334.76 203.019 335.019 202.825L337.931 201.142C338.19 201.012 338.449 201.077 338.643 201.336C338.773 201.595 338.708 201.854 338.449 202.048L335.537 203.731C335.472 203.796 335.407 203.796 335.278 203.796Z" fill="#42526E"/>
<path d="M270.16 241.402C269.966 241.402 269.837 241.337 269.707 241.143C269.578 240.884 269.643 240.625 269.901 240.431L272.814 238.748C273.073 238.619 273.332 238.684 273.526 238.942C273.656 239.201 273.591 239.46 273.332 239.655L270.419 241.337C270.29 241.402 270.225 241.402 270.16 241.402Z" fill="#42526E"/>
<path d="M322.139 190.655C322.074 190.655 321.945 190.655 321.88 190.591C321.621 190.461 321.556 190.138 321.686 189.879L323.369 186.966C323.498 186.707 323.822 186.642 324.081 186.772C324.34 186.901 324.404 187.225 324.275 187.484L322.592 190.397C322.463 190.591 322.333 190.655 322.139 190.655Z" fill="#42526E"/>
<path d="M284.531 255.837C284.467 255.837 284.337 255.837 284.273 255.772C284.014 255.643 283.949 255.319 284.078 255.06L285.761 252.148C285.891 251.889 286.214 251.824 286.473 251.953C286.732 252.083 286.797 252.406 286.668 252.665L284.985 255.578C284.855 255.708 284.726 255.837 284.531 255.837Z" fill="#42526E"/>
<path d="M308.805 221.272C308.805 223.797 306.733 225.868 304.209 225.868C301.685 225.868 299.613 223.797 299.613 221.272C299.613 218.748 301.685 216.677 304.209 216.677C306.733 216.677 308.805 218.748 308.805 221.272Z" fill="#FCCBC7"/>
<path d="M301.683 222.567L291.133 200.301L306.279 219.719C307.185 220.884 306.991 222.567 305.826 223.473C304.661 224.38 302.978 224.185 302.072 223.02C301.878 222.891 301.748 222.761 301.683 222.567Z" fill="#FFEAA1"/>
<path d="M304.467 218.748L340.197 221.596L304.273 224.056C302.784 224.121 301.489 223.02 301.425 221.532C301.36 220.043 302.46 218.748 303.949 218.684C304.143 218.684 304.337 218.684 304.467 218.748Z" fill="#FFEAA1"/>
<path d="M371.914 258.879C371.914 258.879 373.144 259.979 373.338 261.986C373.468 263.41 373.273 264.381 373.273 264.381L372.626 264.446L372.367 263.28C372.367 263.28 370.749 263.604 369.066 264.769C368.289 265.352 364.147 265.352 363.5 265.028C362.788 264.64 362.982 263.992 363.176 263.734C363.435 263.475 367.772 261.403 367.772 261.403" fill="#0E2D4A"/>
<path d="M375.539 211.886C382.789 228.91 371.915 258.879 371.915 258.879L369.39 260.108C369.39 260.108 364.795 229.945 363.5 215.511C364.018 198.552 362.917 182.435 374.957 175.444" fill="#FFB3AD"/>
<path d="M369.584 259.073C369.584 259.073 368.16 260.95 365.895 262.309C365.183 262.763 366.218 263.28 366.995 263.28C369.519 263.28 372.497 259.526 372.497 259.526L371.526 257.973" fill="#FFB3AD"/>
<path d="M405.377 257.196C405.377 257.196 406.866 257.908 407.578 259.785C408.096 261.145 408.161 262.116 408.161 262.116L407.578 262.31L406.996 261.274C406.996 261.274 405.507 262.051 404.212 263.604C403.565 264.381 399.681 265.546 398.969 265.417C398.193 265.287 398.193 264.575 398.322 264.252C398.451 263.928 402.141 260.756 402.141 260.756" fill="#0E2D4A"/>
<path d="M395.928 211.045C407.579 225.415 405.378 257.196 405.378 257.196L403.242 259.073C403.242 259.073 390.49 231.37 385.312 217.841C380.911 206.385 384.212 177.904 384.212 177.904" fill="#FFB3AD"/>
<path d="M403.177 258.037C403.177 258.037 402.335 260.238 400.523 262.18C399.941 262.827 401.041 263.021 401.818 262.762C404.213 262.05 406.09 257.649 406.09 257.649L404.73 256.419" fill="#FFB3AD"/>
<path d="M368.806 175.509C368.806 175.509 363.887 179.458 363.046 192.662C362.398 203.019 363.24 218.812 363.24 218.812C363.24 218.812 366.411 221.401 378.71 221.401C395.539 221.401 402.465 216.029 402.465 216.029C402.465 216.029 402.788 197.646 398.905 185.024C394.956 172.143 383.888 168.972 383.888 168.972" fill="#2B8CFF"/>
<path d="M397.805 217.518C397.805 217.518 398.323 176.61 383.436 170.784" stroke="#E3F0FF" stroke-width="0.5" stroke-miterlimit="10"/>
<path d="M325.698 153.178C325.698 153.178 320.455 149.747 319.613 149.424C318.772 149.1 316.247 148.647 315.6 148.777C314.241 148.971 311.004 150.913 311.716 151.236C312.428 151.625 316.053 150.459 316.571 150.913C317.089 151.43 314.305 151.754 314.953 152.142C315.471 152.466 316.247 152.272 317.607 152.142C318.772 152.078 319.613 151.819 319.613 151.819L323.756 155.444" fill="#FFB3AD"/>
<path d="M354.89 139.326C354.89 139.326 350.554 139.909 345.634 146.187C341.556 151.366 339.097 159.457 339.097 159.457L322.915 151.624L320.908 152.79C320.908 152.79 333.142 170.396 341.233 168.972C348.935 167.612 357.674 151.236 357.674 151.236" fill="#EFEFF6"/>
<path d="M349.064 152.92C349.064 152.92 350.035 154.538 349.971 155.832C349.906 158.292 349.776 161.982 351.524 164.635C353.142 167.095 355.537 168.26 357.35 168.972C359.033 170.655 365.7 178.099 365.7 178.099C365.7 178.099 367.124 179.911 374.114 177.322C380.781 174.862 385.895 169.814 385.895 169.814C385.895 169.814 383.047 148.259 375.473 141.657C368.548 135.637 357.932 138.097 357.932 138.097L353.531 139.845L349.064 152.92Z" fill="#EFEFF6"/>
<path d="M350.424 161.981C349.841 160.622 349.582 158.098 349.971 155.444C350.23 153.761 349.064 151.689 349.064 151.689" stroke="#E2E2F1" stroke-width="0.75" stroke-miterlimit="10"/>
<path d="M360.717 181.982L353.791 185.931C353.791 185.931 351.525 188.584 349.13 189.75C347.965 190.332 344.211 189.361 344.211 188.908C344.211 188.067 346.347 188.326 347.188 187.937C347.771 187.678 348.095 187.225 348.03 186.966C347.836 186.254 345.7 187.096 345.829 186.384C345.894 186.125 347.642 185.283 348.354 184.96C350.101 184.118 352.431 183.924 352.431 183.924L357.804 178.811" fill="#FFB3AD"/>
<path d="M356.445 138.291C356.445 138.291 368.484 133.631 376.446 142.563C385.249 152.467 377.676 170.267 371.85 175.51C366.025 180.753 353.338 186.643 353.338 186.643L352.432 183.73C352.432 183.73 361.623 173.633 364.212 171.044C366.801 168.455 367.319 146.9 367.319 146.9" fill="#EFEFF6"/>
<path d="M361.688 173.569C362.594 172.598 363.629 171.497 364.147 170.979C366.736 168.39 367.254 146.836 367.254 146.836" stroke="#E2E2F1" stroke-width="0.75" stroke-miterlimit="10"/>
<path d="M380.264 156.868C379.423 164.636 375.345 172.338 371.85 175.445C370.361 176.804 368.354 178.228 366.283 179.523" stroke="#E2E2F1" stroke-width="0.75" stroke-miterlimit="10"/>
<path d="M350.424 137.967L352.689 141.915C352.689 141.915 353.66 143.21 355.149 142.692C358.515 141.527 357.544 139.261 357.544 139.261L352.754 135.184" fill="#FFB3AD"/>
<path d="M353.207 135.054C353.207 135.054 350.812 140.297 347.122 139.909C344.986 139.715 342.785 131.43 343.303 129.552C343.821 127.675 346.993 126.446 348.676 127.416C350.358 128.323 354.825 130.782 353.207 135.054Z" fill="#FFB3AD"/>
<path d="M344.405 134.407C344.534 134.601 344.793 134.601 344.987 134.472C345.181 134.342 345.181 134.084 345.052 133.889C344.922 133.695 344.664 133.695 344.469 133.825C344.275 133.954 344.275 134.213 344.405 134.407Z" fill="#0B233A"/>
<path d="M348.741 132.724C348.871 132.919 348.871 133.113 348.677 133.307C348.483 133.436 348.288 133.436 348.094 133.242C347.965 133.048 347.965 132.854 348.159 132.66C348.353 132.595 348.547 132.595 348.741 132.724Z" fill="#0B233A"/>
<path d="M347.123 132.207C347.706 131.43 348.483 131.365 349.324 131.624C349.389 131.624 349.453 131.559 349.389 131.495C348.612 130.783 347.382 131.236 346.929 132.142C346.864 132.271 347.058 132.336 347.123 132.207Z" fill="#0B233A"/>
<path d="M343.497 133.5C343.691 133.112 343.95 132.788 344.338 132.724C344.727 132.659 345.05 132.788 345.374 132.918C345.439 132.918 345.503 132.853 345.439 132.788C344.921 131.818 343.367 132.53 343.303 133.436C343.367 133.5 343.497 133.565 343.497 133.5Z" fill="#0B233A"/>
<path d="M346.087 133.565C346.087 133.565 346.023 135.766 346.346 135.96C346.929 136.219 347.641 135.637 347.641 135.637" stroke="#FFB3AD" stroke-width="0.75" stroke-miterlimit="10"/>
<path d="M348.481 136.802L346.539 137.578C346.539 137.578 347.057 138.679 347.704 138.485C348.934 137.967 348.481 136.802 348.481 136.802Z" fill="white"/>
<path d="M350.748 138.42C350.748 138.42 352.69 137.319 353.272 134.989" stroke="#FFB3AD" stroke-width="0.75" stroke-miterlimit="10"/>
<path d="M356.055 137.967C356.055 137.967 356.378 141.333 355.148 142.692C356.249 142.951 358.45 144.245 358.45 144.245C359.55 141.397 358.32 138.42 358.32 138.42L356.055 137.967Z" fill="white"/>
<path d="M352.171 140.88C352.171 140.88 353.789 142.692 355.213 142.628C354.825 143.598 354.242 145.734 354.242 145.734C354.242 145.734 353.013 145.346 352.301 143.081C351.977 142.498 352.171 140.88 352.171 140.88Z" fill="white"/>
<path d="M382.27 133.954C382.27 133.307 382.14 132.595 381.881 131.948C379.681 126.316 373.014 122.756 367.124 123.468C364.729 123.727 362.334 125.216 359.939 124.892C358.644 124.698 357.414 124.18 356.184 123.857C353.531 123.08 350.618 122.95 347.899 123.533C346.152 123.921 344.339 124.633 343.045 125.863C341.232 127.676 340.844 130.912 342.462 132.918C343.886 131.753 345.051 130.265 345.828 128.646C345.828 128.711 347.252 130.524 350.553 131.559C351.006 132.012 351.459 132.595 351.783 133.307C352.819 135.637 353.725 138.615 356.638 139.262C358.45 139.65 360.457 138.744 362.139 139.521C363.693 140.233 365.052 141.204 366.67 141.721C368.612 142.369 370.684 142.563 372.69 142.239C376.703 141.657 382.27 138.356 382.27 133.954Z" fill="#0E2D4A"/>
<path d="M351.201 133.501C351.395 131.948 352.431 131.948 352.884 132.206C353.337 132.465 353.531 132.983 353.596 133.501C353.661 134.148 353.596 134.796 353.143 135.249C352.69 135.702 351.848 135.767 351.46 135.249" fill="#FFB3AD"/>
<path d="M245.888 61.0059C245.888 61.0059 250.354 74.534 244.788 98.4186H219.22L217.343 83.4018C217.343 83.4018 213.589 81.2657 211.971 77.1231C209.834 71.5565 214.43 64.6954 214.43 64.6954L216.825 56.1513C216.825 56.1513 220.515 53.6269 220.709 53.8858C220.968 54.2095 245.888 61.0059 245.888 61.0059Z" fill="#2B8CFF"/>
<path d="M228.8 30.1308C236.05 29.2246 238.445 38.1571 238.704 39.3869C239.027 40.7462 239.739 41.976 240.128 43.3353C240.451 44.3062 240.516 45.5361 239.804 46.3128C239.545 46.5717 239.222 46.7659 238.898 46.8954C237.668 47.4779 236.374 47.8016 235.014 47.931C233.914 48.0605 232.749 47.9957 231.648 47.931C228.412 47.7368 225.176 47.6074 221.875 47.8016C219.868 47.931 217.667 48.0605 216.049 46.8306C215.855 46.7012 215.661 46.507 215.596 46.2481C215.466 45.9892 215.531 45.6655 215.661 45.3419C216.502 41.8466 217.408 37.8335 219.739 34.9854C221.551 32.7199 224.334 31.1665 227.182 31.3607" fill="#0E2D4A"/>
<path d="M219.221 53.9512C219.221 53.9512 212.23 56.0872 208.282 61.9127C203.492 68.9033 200.838 78.9361 201.744 86.574C203.492 102.173 219.091 114.472 219.091 114.472L221.163 111.559L213.719 83.4671L219.091 64.4371" fill="#2B8CFF"/>
<path d="M238.445 53.2383C238.445 53.2383 247.766 53.4325 256.375 61.9766C263.948 69.5497 267.443 77.0581 264.401 85.2786C261.747 92.3987 251.52 101.849 251.52 101.849L247.572 98.9362C247.572 98.9362 252.944 87.091 253.139 83.7899C253.397 79.1294 239.351 70.3912 239.351 70.3912" fill="#2B8CFF"/>
<path d="M220.903 156.544L207.375 150.848L248.607 53.8213L262.135 59.5173L220.903 156.544Z" fill="#0B233A"/>
<path opacity="0.55" d="M216.826 154.861L211.389 152.531L252.62 55.5039L258.057 57.8341L216.826 154.861Z" fill="#42526E"/>
<path d="M263.133 57.0232L249.654 51.3369L248.623 53.7822L262.101 59.4685L263.133 57.0232Z" fill="#E3F0FF"/>
<path d="M262.976 48.9666L255.597 45.8597C253.914 45.1477 251.973 45.9244 251.261 47.6073L249.707 51.3616L263.17 57.0576L264.724 53.3034C265.436 51.6205 264.659 49.6786 262.976 48.9666Z" fill="#2B8CFF"/>
<path d="M207.375 150.849L208.67 163.988C208.734 164.895 209.835 165.348 210.482 164.765L220.838 156.545L207.375 150.849Z" fill="#FFB3AD"/>
<path opacity="0.55" d="M211.388 152.531L209.252 164.182C209.122 164.959 209.511 165.153 209.964 164.506L216.825 154.797L211.388 152.531Z" fill="#FFB3AD"/>
<path d="M210.418 162.499C209.771 162.24 209.124 162.176 208.541 162.305L208.735 163.988C208.8 164.894 209.9 165.347 210.548 164.765L211.907 163.664C211.518 163.211 211.065 162.758 210.418 162.499Z" fill="#2B8CFF"/>
<path d="M220.257 34.8557C219.675 38.6747 220.71 47.4777 223.299 48.2544C224.4 48.5781 225.824 48.3191 227.183 47.4777C230.225 45.6006 231.844 42.6878 232.102 40.3576C232.297 37.3154 223.882 27.9299 220.257 34.8557Z" fill="#FFB3AD"/>
<path d="M234.95 34.0797C236.31 38.2871 235.792 42.5591 231.714 43.5947C231.649 43.9184 232.297 40.3583 230.678 40.4878C230.16 40.5525 229.513 41.7176 228.995 41.394C228.607 41.1351 228.866 37.122 228.866 37.122C225.888 37.3161 223.299 35.3743 222.846 34.4681C221.616 35.3743 220.646 36.5394 219.869 37.834C217.862 35.439 219.933 32.4615 221.099 31.2964C223.688 28.7721 228.219 28.5779 231.326 30.2608C232.491 30.8433 234.174 31.6201 234.95 34.0797Z" fill="#0E2D4A"/>
<path d="M226.601 46.3126L225.825 51.8145L219.287 53.8858C219.287 53.8858 217.151 62.3651 228.673 62.3651C240.194 62.3651 241.877 54.1447 241.295 53.6268C239.741 53.0443 234.045 51.9439 234.045 51.9439L232.168 43.5293" fill="#FFB3AD"/>
<path d="M222.652 40.3574C222.652 40.3574 221.552 42.9465 221.94 43.4644C222.329 43.9822 223.559 43.5291 223.559 43.5291" stroke="#E79C97" stroke-width="0.5" stroke-miterlimit="10" stroke-linejoin="round"/>
<path d="M225.953 39.9694L226.018 40.0342C226.212 40.2931 226.212 40.552 226.212 40.8109C226.277 41.264 225.565 41.3287 225.5 40.8756C225.5 40.6167 225.5 40.2931 225.565 40.0342C225.629 39.7105 225.824 39.84 225.953 39.9694Z" fill="#0B233A"/>
<path d="M221.94 39.9051C221.94 39.9699 222.005 39.9699 222.005 40.0346C222.134 40.2935 222.069 40.5524 222.069 40.8113C222.069 41.2644 221.293 41.1997 221.357 40.7466C221.422 40.4877 221.422 40.164 221.552 39.9051C221.681 39.5815 221.81 39.711 221.94 39.9051Z" fill="#0B233A"/>
<path d="M228.154 39.3226C228.154 39.3226 228.154 39.1284 227.96 38.8047C227.83 38.5458 227.507 38.2222 227.053 38.028C226.665 37.8338 226.212 37.8338 225.888 37.9633C225.694 38.028 225.629 38.0927 225.565 38.1575C225.5 38.2222 225.5 38.2869 225.5 38.2869C225.5 38.2869 225.565 38.2869 225.629 38.2869C225.694 38.2869 225.824 38.2869 225.953 38.2869C226.212 38.3516 226.536 38.4164 226.859 38.6105C227.183 38.74 227.507 38.9342 227.701 39.0636C227.83 39.1284 227.96 39.1931 228.024 39.2578C228.089 39.3226 228.154 39.3226 228.154 39.3226Z" fill="#0B233A"/>
<path d="M222.716 38.5455C222.716 38.5455 222.716 38.4807 222.651 38.4807C222.586 38.416 222.522 38.3513 222.392 38.2865C222.133 38.1571 221.81 38.1571 221.486 38.2865C221.162 38.416 220.903 38.6749 220.839 38.8691C220.709 39.128 220.774 39.2575 220.774 39.2575C220.774 39.2575 220.839 39.2575 220.903 39.1927C220.968 39.128 221.033 39.128 221.162 39.0633C221.357 38.9986 221.551 38.8691 221.81 38.8044C222.004 38.7396 222.263 38.6102 222.457 38.6102C222.522 38.5455 222.716 38.5455 222.716 38.5455Z" fill="#0B233A"/>
<path d="M225.758 44.3066C225.888 46.9605 223.493 47.8667 222.457 45.0186L225.758 44.3066Z" fill="white"/>
<path d="M229.901 45.2773C229.901 45.2773 228.542 47.1545 226.471 47.8017" stroke="#FCCBC7" stroke-width="0.75" stroke-miterlimit="10"/>
<path d="M230.032 41.3935C230.161 39.9047 231.65 39.9695 232.103 40.2284C232.426 40.4226 232.556 40.7462 232.685 41.0698C232.88 41.9113 232.75 42.8822 232.232 43.5942C232.038 43.8531 231.844 44.112 231.52 44.2415C230.679 44.6299 230.032 44.0473 229.967 43.2706" fill="#FFB3AD"/>
<path d="M229.708 30.325C231.197 30.0661 232.815 28.8362 232.038 27.0886C231.261 25.3409 229.449 25.2762 228.219 26.4413C227.701 26.9591 227.378 27.7359 227.507 28.4479C227.637 29.1599 228.154 29.8719 228.802 30.1308" fill="#0E2D4A"/>
<path d="M227.572 29.0957C228.802 29.0957 230.161 29.3546 231.262 30.0019" stroke="#E79C97" stroke-miterlimit="10"/>
<path d="M217.343 83.4665C217.343 83.4665 213.589 81.3305 211.971 77.1879C209.834 71.686 214.43 63.9834 214.43 63.9834" stroke="#0B233A" stroke-width="0.75" stroke-miterlimit="10" stroke-linejoin="round"/>
<path d="M228.282 62.3652C228.282 62.3652 227.182 70.3915 227.311 74.9872" stroke="#0B233A" stroke-width="0.75" stroke-miterlimit="10" stroke-linejoin="round"/>
<path d="M229.9 64.0485C229.9 64.2427 229.706 64.4369 229.511 64.4369C229.317 64.4369 229.123 64.2427 229.123 64.0485C229.123 63.8543 229.317 63.6602 229.511 63.6602C229.77 63.6602 229.9 63.8543 229.9 64.0485Z" fill="#0B233A"/>
<path d="M229.511 68.32C229.511 68.5142 229.317 68.7084 229.123 68.7084C228.929 68.7084 228.734 68.5142 228.734 68.32C228.734 68.1258 228.929 67.9316 229.123 67.9316C229.317 67.9316 229.511 68.0611 229.511 68.32Z" fill="#0B233A"/>
<path d="M229.124 72.527C229.124 72.7212 228.93 72.9154 228.736 72.9154C228.542 72.9154 228.348 72.7212 228.348 72.527C228.348 72.3328 228.542 72.1387 228.736 72.1387C228.93 72.1387 229.124 72.3328 229.124 72.527Z" fill="#0B233A"/>
<path d="M247.831 99.1309L246.536 101.396C246.536 101.396 244.918 101.591 243.753 102.561C242.782 103.403 240.711 104.956 241.552 105.215C242.329 105.474 242.976 104.697 243.106 105.151C243.3 105.604 242.653 107.287 241.746 107.804C241.293 108.063 239.222 108.905 239.352 109.358C239.675 110.199 243.041 109.94 244.853 109.034C246.666 108.128 248.478 103.144 248.478 103.144L250.873 101.396" fill="#FFB3AD"/>
<path d="M221.033 111.688L222.587 114.989C222.587 114.989 224.787 116.93 225.24 118.096C225.693 119.261 226.082 121.72 225.305 121.332C224.528 120.944 224.399 119.584 223.946 119.843C223.493 120.037 222.845 121.073 222.716 122.691C222.651 123.209 222.91 125.41 222.522 125.604C221.745 125.992 220.58 123.209 220.256 121.267C219.997 120.037 220.451 116.089 220.451 116.089L219.221 114.341" fill="#FFB3AD"/>
<path d="M139.424 111.855C144.912 98.7671 138.752 83.7083 125.664 78.2202C112.576 72.7322 97.5169 78.893 92.0288 91.981C86.5408 105.069 92.7017 120.128 105.79 125.616C118.877 131.104 133.936 124.943 139.424 111.855Z" fill="#FFEAA1"/>
<path d="M133.775 106.263C136.175 96.288 130.034 86.2567 120.059 83.857C110.085 81.4573 100.054 87.5978 97.6538 97.5724C95.254 107.547 101.395 117.578 111.369 119.978C121.344 122.378 131.375 116.237 133.775 106.263Z" fill="#EFEFF6"/>
<path d="M128.473 101.914C128.473 108.97 122.777 114.666 115.722 114.666C108.667 114.666 102.971 108.97 102.971 101.914C102.971 94.8592 108.667 89.1631 115.722 89.1631C122.777 89.1631 128.473 94.8592 128.473 101.914Z" fill="#FFEAA1"/>
<path d="M122.389 101.914C122.389 105.604 119.411 108.581 115.722 108.581C112.032 108.581 109.055 105.604 109.055 101.914C109.055 98.2246 112.032 95.2471 115.722 95.2471C119.411 95.2471 122.389 98.2246 122.389 101.914Z" fill="#EFEFF6"/>
<path d="M116.756 102.95H112.549L116.756 98.7432V102.95Z" fill="#0E2D4A"/>
<path d="M89.5714 75.7H84.7168V74.5349H88.3416V70.9102H89.5714V75.7Z" fill="#0E2D4A"/>
<path d="M87.3702 73.4988H82.5156V72.3337H86.1404V68.709H87.3702V73.4988Z" fill="#0E2D4A"/>
<path d="M86.9673 72.2866L86.0977 73.1562L115.161 102.22L116.031 101.35L86.9673 72.2866Z" fill="#0E2D4A"/>
</svg>
