<svg width="127" height="37" viewBox="0 0 127 37" fill="none" xmlns="http://www.w3.org/2000/svg">
<path d="M56.3205 33.4342H50.8535V3.05054H56.3205V33.4342Z" fill="#0B233A"/>
<path d="M88.2432 33.4344H82.6786L68.6207 11.8435V33.4344H63.0562V3.05078H68.6207L82.7762 24.7394V3.05078H88.2432V33.4344Z" fill="#0B233A"/>
<path d="M117.043 7.34943H107.182V33.5321H101.716V7.34943H91.8555V3.05078H117.043V7.34943V7.34943Z" fill="#0B233A"/>
<path d="M127 33.4344H121.533V3.05078H127V33.4344Z" fill="#0B233A"/>
<path fill-rule="evenodd" clip-rule="evenodd" d="M18.3092 36.6456C28.4211 36.6456 36.6184 28.4422 36.6184 18.3228C36.6184 8.20339 28.4211 0 18.3092 0C8.19731 0 0 8.20339 0 18.3228C0 28.4422 8.19731 36.6456 18.3092 36.6456ZM18.3094 25.5507C21.8656 25.5507 24.7485 22.4673 24.7485 18.6637C24.7485 14.8601 18.3094 6.61153 18.3094 6.61153C18.3094 6.61153 11.8704 14.8601 11.8704 18.6637C11.8704 22.4673 14.7533 25.5507 18.3094 25.5507Z" fill="#99C8FF"/>
<path fill-rule="evenodd" clip-rule="evenodd" d="M19.7653 25.4879C25.3005 25.4879 29.7877 20.6886 29.7877 14.7682C29.7877 11.1294 26.0015 4.87682 23.0833 0.598139C30.9373 2.66143 36.7307 9.81449 36.7307 18.3217C36.7307 28.4411 28.5334 36.6445 18.4215 36.6445C8.30962 36.6445 0.112305 28.4411 0.112305 18.3217C0.112305 8.74551 7.45317 0.88515 16.8106 0.0688477C13.8544 4.346 9.74279 10.9763 9.74279 14.7682C9.74279 18.1923 11.2438 21.2415 13.5804 23.204C14.7605 24.642 16.4918 25.5497 18.4214 25.5497C18.7363 25.5497 19.0459 25.5256 19.3487 25.4788C19.4868 25.4849 19.6257 25.4879 19.7653 25.4879Z" fill="#99C8FF"/>
<path fill-rule="evenodd" clip-rule="evenodd" d="M21.7074 0.314978C20.6062 0.108166 19.4703 0 18.3092 0C8.19731 0 0 8.20339 0 18.3228C0 28.4422 8.19731 36.6456 18.3092 36.6456C26.7926 36.6456 33.9285 30.8717 36.0069 23.0365C33.3918 26.3434 29.3458 28.465 24.8046 28.465C20.3526 28.465 16.091 26.5539 13.8184 23.599C12.6167 22.3479 11.8704 20.599 11.8704 18.6637C11.8704 17.6821 12.2993 16.4043 12.9357 15.0487C13.0068 8.35825 15.9478 1.99086 21.7074 0.314978Z" fill="#2B8CFF"/>
<path fill-rule="evenodd" clip-rule="evenodd" d="M23.137 0.643666C21.5989 0.224014 19.9802 0 18.3092 0C8.19731 0 0 8.20339 0 18.3228C0 28.4422 8.19731 36.6456 18.3092 36.6456C19.65 36.6456 20.9572 36.5013 22.216 36.2275C15.9713 34.3465 11.4225 28.5473 11.4225 21.6848C11.4225 19.8982 11.7308 18.1835 12.2972 16.5914C12.8348 15.0507 13.8113 13.2663 14.8233 11.6362C15.8327 9.99266 17.107 8.10283 18.2955 6.62946C18.3047 6.61759 18.3094 6.61153 18.3094 6.61153C18.3094 6.61153 18.3095 6.61164 18.3097 6.61187C20.1416 4.34452 21.802 2.29239 23.137 0.643666Z" fill="#0E2D4A"/>
</svg>
