<svg width="562" height="381" viewBox="0 0 562 381" fill="none" xmlns="http://www.w3.org/2000/svg">
<path d="M114.115 119.726H6.4811C4.18387 119.726 2.32178 117.863 2.32178 115.566C2.32178 113.269 4.18387 111.407 6.4811 111.407H114.115C116.412 111.407 118.274 113.269 118.274 115.566C118.274 117.863 116.412 119.726 114.115 119.726Z" fill="#99C8FF"/>
<path d="M312.451 8.51562H242.328C239.976 8.51562 238.071 6.60892 238.071 4.25826C238.071 1.90665 239.976 -2.86102e-05 242.328 -2.86102e-05H312.451C314.802 -2.86102e-05 316.708 1.90665 316.708 4.25826C316.708 6.60892 314.802 8.51562 312.451 8.51562Z" fill="#99C8FF"/>
<path d="M54.4113 174.615H42.0371C38.7853 174.615 36.1497 171.98 36.1497 168.728V157.113C36.1497 153.861 38.7853 151.225 42.0371 151.225H54.4113C57.6621 151.225 60.2978 153.861 60.2978 157.113V168.728C60.2978 171.98 57.6621 174.615 54.4113 174.615Z" fill="#2B8CFF"/>
<path d="M414.335 380.863H407.585C405.811 380.863 404.372 379.425 404.372 377.651V371.314C404.372 369.54 405.811 368.101 407.585 368.101H414.335C416.109 368.101 417.548 369.54 417.548 371.314V377.651C417.548 379.425 416.109 380.863 414.335 380.863Z" fill="#99C8FF"/>
<path d="M535.412 110.245H528.661C526.887 110.245 525.449 108.808 525.449 107.034V100.697C525.449 98.9226 526.887 97.4844 528.661 97.4844H535.412C537.186 97.4844 538.623 98.9226 538.623 100.697V107.034C538.623 108.808 537.186 110.245 535.412 110.245Z" fill="#2B8CFF"/>
<path d="M63.372 306.05L29.2841 323.71L39.1044 328.466L26.9089 343.045L36.4254 350.837L48.2051 335.18L56.1017 343.646L63.372 306.05Z" fill="#EFEFF6"/>
<path d="M182.068 379.519H142.238C139.289 379.519 136.898 377.128 136.898 374.179C136.898 371.229 139.289 368.838 142.238 368.838H182.068C185.017 368.838 187.408 371.229 187.408 374.179C187.408 377.128 185.017 379.519 182.068 379.519Z" fill="#99C8FF"/>
<path d="M437.681 341.682H116.915C113.2 341.682 110.189 338.67 110.189 334.955V67.7894C110.189 64.0748 113.2 61.0629 116.915 61.0629H437.681C441.395 61.0629 444.407 64.0748 444.407 67.7894V334.955C444.407 338.67 441.395 341.682 437.681 341.682Z" fill="#EFEFF6"/>
<path d="M110.189 94.8301H444.407" stroke="#FAFAFD" stroke-width="2.58815" stroke-miterlimit="10"/>
<path d="M437.681 341.682H116.915C113.2 341.682 110.189 338.67 110.189 334.955V67.7894C110.189 64.0748 113.2 61.0629 116.915 61.0629H437.681C441.395 61.0629 444.407 64.0748 444.407 67.7894V334.955C444.407 338.67 441.395 341.682 437.681 341.682V341.682Z" stroke="#FAFAFD" stroke-width="2.58815" stroke-miterlimit="10"/>
<path d="M143.154 78.2932C143.154 80.895 141.044 83.0049 138.442 83.0049C135.841 83.0049 133.731 80.895 133.731 78.2932C133.731 75.6904 135.841 73.5815 138.442 73.5815C141.044 73.5815 143.154 75.6904 143.154 78.2932Z" stroke="#FAFAFD" stroke-width="2.58815" stroke-miterlimit="10"/>
<path d="M161.466 78.2932C161.466 80.895 159.357 83.0049 156.754 83.0049C154.152 83.0049 152.042 80.895 152.042 78.2932C152.042 75.6904 154.152 73.5815 156.754 73.5815C159.357 73.5815 161.466 75.6904 161.466 78.2932Z" stroke="#FAFAFD" stroke-width="2.58815" stroke-miterlimit="10"/>
<path d="M179.778 78.2932C179.778 80.895 177.668 83.0049 175.065 83.0049C172.464 83.0049 170.355 80.895 170.355 78.2932C170.355 75.6904 172.464 73.5815 175.065 73.5815C177.668 73.5815 179.778 75.6904 179.778 78.2932Z" stroke="#FAFAFD" stroke-width="2.58815" stroke-miterlimit="10"/>
<path d="M179.574 291.11H9.73893C4.36006 291.11 0 286.75 0 281.37V218.411C0 213.032 4.36006 208.672 9.73893 208.672H179.574C184.954 208.672 189.313 213.032 189.313 218.411V281.37C189.313 286.75 184.954 291.11 179.574 291.11Z" fill="#99C8FF"/>
<path d="M22.9591 223.978C22.9591 225.958 21.3544 227.562 19.3743 227.562C17.3943 227.562 15.7896 225.958 15.7896 223.978C15.7896 221.998 17.3943 220.393 19.3743 220.393C21.3544 220.393 22.9591 221.998 22.9591 223.978Z" stroke="#FAFAFD" stroke-width="1.96904" stroke-miterlimit="10"/>
<path d="M36.8901 223.978C36.8901 225.958 35.2853 227.562 33.3053 227.562C31.3262 227.562 29.7214 225.958 29.7214 223.978C29.7214 221.998 31.3262 220.393 33.3053 220.393C35.2853 220.393 36.8901 221.998 36.8901 223.978Z" stroke="#FAFAFD" stroke-width="1.96904" stroke-miterlimit="10"/>
<path d="M50.8219 223.978C50.8219 225.958 49.2172 227.562 47.2371 227.562C45.2571 227.562 43.6523 225.958 43.6523 223.978C43.6523 221.998 45.2571 220.393 47.2371 220.393C49.2172 220.393 50.8219 221.998 50.8219 223.978Z" stroke="#FAFAFD" stroke-width="1.96904" stroke-miterlimit="10"/>
<path d="M0 237.546H189.313" stroke="#FAFAFD" stroke-width="1.96904" stroke-miterlimit="10"/>
<path d="M484.799 104.031H408.609C402.25 104.031 397.096 98.8765 397.096 92.5178V31.06C397.096 24.7003 402.25 19.5457 408.609 19.5457H484.799C491.158 19.5457 496.313 24.7003 496.313 31.06V92.5178C496.313 98.8765 491.158 104.031 484.799 104.031Z" fill="#99C8FF"/>
<path d="M440.442 40.9922C433.131 40.9922 427.183 46.9408 427.183 54.2524C427.183 61.564 433.131 67.5126 440.442 67.5126C447.755 67.5126 453.702 61.564 453.702 54.2524C453.702 46.9408 447.755 40.9922 440.442 40.9922ZM440.442 71.3975C430.989 71.3975 423.298 63.7068 423.298 54.2524C423.298 44.7989 430.989 37.1073 440.442 37.1073C449.896 37.1073 457.587 44.7989 457.587 54.2524C457.587 63.7068 449.896 71.3975 440.442 71.3975Z" fill="#FAFAFD"/>
<path d="M454.861 71.4551L449.8 66.3935L452.547 63.6468L457.608 68.7075L454.861 71.4551Z" fill="#FAFAFD"/>
<path d="M460.212 67.9841L470.229 78.001C471.291 79.0639 471.291 80.7862 470.229 81.8482L468 84.0766C466.938 85.1385 465.216 85.1385 464.153 84.0766L454.136 74.0587C453.074 72.9967 453.074 71.2744 454.136 70.2125L456.364 67.9841C457.427 66.9221 459.15 66.9221 460.212 67.9841Z" fill="#FAFAFD"/>
<path d="M81.1068 77.5449H37.318C29.9773 77.5449 24.0249 71.5925 24.0249 64.2508V27.1171C24.0249 19.7764 29.9773 13.824 37.318 13.824H81.1068C88.4485 13.824 94.3999 19.7764 94.3999 27.1171V64.2508C94.3999 71.5925 88.4485 77.5449 81.1068 77.5449Z" fill="#2B8CFF"/>
<path d="M59.2124 34.073C53.4623 34.073 48.7845 38.7508 48.7845 44.501C48.7845 50.2511 53.4623 54.9289 59.2124 54.9289C64.9626 54.9289 69.6404 50.2511 69.6404 44.501C69.6404 38.7508 64.9626 34.073 59.2124 34.073ZM59.2124 59.4092C50.9922 59.4092 44.3042 52.7212 44.3042 44.501C44.3042 36.2807 50.9922 29.5928 59.2124 29.5928C67.4336 29.5928 74.1207 36.2807 74.1207 44.501C74.1207 52.7212 67.4336 59.4092 59.2124 59.4092Z" fill="#FAFAFD"/>
<path d="M68.0007 34.0757L50.9045 54.9316" stroke="#FAFAFD" stroke-width="6.02939" stroke-miterlimit="10"/>
<path d="M549.413 301.715H390.78C384.003 301.715 378.509 296.221 378.509 289.442V171.072C378.509 164.295 384.003 158.8 390.78 158.8H549.413C556.19 158.8 561.684 164.295 561.684 171.072V289.442C561.684 296.221 556.19 301.715 549.413 301.715Z" fill="#2B8CFF"/>
<path d="M400.937 172.295C400.937 174.213 399.383 175.767 397.465 175.767C395.548 175.767 393.993 174.213 393.993 172.295C393.993 170.377 395.548 168.823 397.465 168.823C399.383 168.823 400.937 170.377 400.937 172.295Z" stroke="#FAFAFD" stroke-width="1.90724" stroke-miterlimit="10"/>
<path d="M414.432 172.295C414.432 174.213 412.878 175.767 410.96 175.767C409.043 175.767 407.488 174.213 407.488 172.295C407.488 170.377 409.043 168.823 410.96 168.823C412.878 168.823 414.432 170.377 414.432 172.295Z" stroke="#FAFAFD" stroke-width="1.90724" stroke-miterlimit="10"/>
<path d="M427.926 172.295C427.926 174.213 426.371 175.767 424.453 175.767C422.536 175.767 420.982 174.213 420.982 172.295C420.982 170.377 422.536 168.823 424.453 168.823C426.371 168.823 427.926 170.377 427.926 172.295Z" stroke="#FAFAFD" stroke-width="1.90724" stroke-miterlimit="10"/>
<path d="M378.509 186.776H561.684" stroke="#FAFAFD" stroke-width="1.90724" stroke-miterlimit="10"/>
<path d="M294.762 241.9L294.063 232.463L235.231 235.355V244.463C235.231 244.463 221.998 257.052 216.776 340.809H322.679C322.679 340.809 334.297 266.682 294.762 241.9Z" fill="#2B8CFF"/>
<path d="M235.231 244.463L294.762 241.9" stroke="#0B233A" stroke-width="2.06876" stroke-miterlimit="10"/>
<path d="M247.395 283.08L259.59 288.046L266.118 340.809" stroke="#0B233A" stroke-width="2.06876" stroke-miterlimit="10"/>
<path d="M170.912 223.657L187.165 170.002L222.916 183.404L205.763 234.788C202.249 245.401 190.12 250.408 180.143 245.365C172.189 241.343 168.29 232.174 170.912 223.657Z" fill="#FFB3AD"/>
<path d="M195.985 141.348C199.204 130.888 210.434 125.163 220.789 128.699C230.859 132.138 236.278 143.048 232.933 153.149L222.916 183.403L187.165 170.002L195.985 141.348Z" fill="#FAFAFD"/>
<path d="M198.515 219.632L157.682 142.21C157.682 142.21 158.615 128.221 135.376 127.385L135.382 127.406C135.066 127.391 134.751 127.362 134.434 127.362H126.667C125.223 127.362 123.911 128.378 123.712 129.808C123.483 131.461 124.641 132.885 126.197 133.08L134.032 134.187L123.373 137.031L121.384 137.766L106.87 128.176C105.714 127.352 104.096 127.732 103.428 128.985C102.903 129.968 103.138 131.183 103.994 131.897C104.89 132.644 106.332 133.881 107.903 135.239L104.699 133.32C103.481 132.591 101.899 133.098 101.332 134.4C100.888 135.423 101.22 136.616 102.13 137.259C102.913 137.812 103.92 138.521 104.991 139.275L103.877 138.839C102.657 138.363 101.21 138.708 100.466 139.785C99.4539 141.252 100.061 143.242 101.67 143.916L117.529 150.555C120.267 151.701 122.884 152.415 126.105 151.653L140.243 148.32L171.878 236.868L198.515 219.632Z" fill="#FFB3AD"/>
<path d="M181.757 187.857L189.313 202.184" stroke="#E79C97" stroke-width="2" stroke-miterlimit="10"/>
<path d="M227.772 127.846L212.593 128.981C212.593 128.981 190.615 158.793 235.231 235.355L294.064 232.463L298.498 149.973L291.234 126.554H264.873L227.772 127.846Z" fill="#FAFAFD"/>
<path d="M210.543 178.766C210.543 178.766 206.165 169.558 208.977 149.159" stroke="#EFEFF6" stroke-width="2.06876" stroke-miterlimit="10"/>
<path d="M347.113 212.886L322.678 162.428L289.46 181.249L314.427 229.324C319.556 239.259 332.317 242.31 341.385 235.77C348.613 230.555 351.032 220.89 347.113 212.886Z" fill="#FFB3AD"/>
<path d="M309.492 135.503C304.678 125.675 292.693 121.773 283.017 126.884C273.608 131.852 269.96 143.475 274.841 152.929L289.46 181.248L322.678 162.427L309.492 135.503Z" fill="#FAFAFD"/>
<path d="M289.46 181.248L277.389 157.867" stroke="#EFEFF6" stroke-width="2.06876" stroke-miterlimit="10"/>
<path d="M398.113 126.561C397.369 125.483 395.923 125.14 394.702 125.616L387.605 128.386L394.272 122.746C395.376 121.811 395.686 120.161 394.852 118.98C393.894 117.627 392.061 117.42 390.841 118.403L384.638 123.397L389.925 116.484C390.804 115.335 390.754 113.657 389.685 112.682C388.462 111.565 386.625 111.756 385.645 112.977L375.206 123.808L364.547 120.964L372.383 119.855C373.938 119.662 375.098 118.238 374.867 116.584C374.67 115.154 373.356 114.139 371.914 114.139H364.146C359.558 114.139 355.079 115.741 351.684 118.789C351.626 118.832 351.575 118.862 351.516 118.908C346.749 122.667 348.484 130.371 348.484 130.371L319.219 213.221L348.222 226.085L364.941 137.113L375.62 137.133C376.281 137.195 376.947 137.192 377.61 137.137L377.69 137.138L377.685 137.133C378.832 137.03 379.967 136.759 381.05 136.306L396.91 130.693C398.52 130.019 399.126 128.028 398.113 126.561Z" fill="#FFB3AD"/>
<path d="M330.59 178.766L324.27 200.828" stroke="#E79C97" stroke-width="2" stroke-miterlimit="10"/>
<path d="M226.591 59.5029C224.762 60.7577 212.496 63.9455 212.254 66.1711C212.254 66.1711 216.289 81.9457 212.156 84.8889C200.982 92.8477 197.405 108.451 197.405 108.451C197.405 108.451 226.882 130.524 305.241 107.348C305.241 107.348 306.179 97.961 291.928 91.147C287.859 89.2018 284.244 86.2698 281.958 82.289C280.188 79.2056 279.919 77.8971 279.449 75.1307C278.137 67.3939 256.789 38.7862 226.591 59.5029Z" fill="#0B233A"/>
<path d="M227.749 83.146C228.108 88.3233 224.204 92.812 219.027 93.1723C213.85 93.5325 209.361 89.627 209.001 84.4506C208.641 79.2733 212.545 74.7846 217.723 74.4244C222.899 74.0641 227.388 77.9696 227.749 83.146Z" fill="#E79C97"/>
<path d="M231.995 106.164L233.294 126.601C233.735 133.779 236.67 138.668 243.731 138.177C249.759 137.758 256.931 132.928 257.262 126.895L253.668 94.8313L231.995 106.164Z" fill="#FFB3AD"/>
<path d="M227.772 127.847L264.873 126.556C264.873 126.556 263.971 144.797 241.92 143.089C226.591 141.902 227.772 127.847 227.772 127.847Z" fill="#FFB3AD"/>
<path d="M233.065 122.999L256.779 99.8141L231.819 104.071L233.065 122.999Z" fill="#E79C97"/>
<path d="M238.214 109.466C226.139 109.501 216.169 99.9935 215.807 90.1346L215.096 66.8669C214.645 54.5106 224.076 44.0225 236.411 43.1637C249.039 42.2851 262.203 51.6567 263.081 64.2839L263.449 83.0036C263.734 97.481 252.659 108.46 238.214 109.466Z" fill="#FFB3AD"/>
<path d="M228.471 81.9455L227.771 87.7229L230.757 87.833" stroke="#0B233A" stroke-width="1.65133" stroke-miterlimit="10" stroke-linecap="round" stroke-linejoin="round"/>
<path d="M240.398 67.8427C240.398 67.8427 233.728 67.2952 233.661 70.0108C233.661 70.0108 233.667 71.8489 239.486 72.2138C245.305 72.5779 246.819 72.1518 247.35 70.4247C247.882 68.6977 243.527 67.8596 240.398 67.8427Z" fill="#0B233A"/>
<path d="M221.059 71.8066C221.059 71.8066 226.111 71.4003 226.587 73.8412C226.587 73.8412 226.87 75.493 222.445 75.747C218.019 76 216.649 75.4507 216.566 74.0538C216.467 72.3889 218.652 71.7822 221.059 71.8066Z" fill="#0B233A"/>
<path d="M223.992 79.7383C224.031 80.9169 223.107 81.9036 221.928 81.9422C220.75 81.9808 219.763 81.0561 219.725 79.8775C219.686 78.6989 220.61 77.7121 221.788 77.6736C222.968 77.6359 223.954 78.5597 223.992 79.7383Z" fill="#0B233A"/>
<path d="M241.918 79.1514C241.956 80.33 241.033 81.3167 239.854 81.3553C238.675 81.3938 237.689 80.4701 237.649 79.2915C237.611 78.1129 238.535 77.1261 239.714 77.0876C240.892 77.049 241.879 77.9737 241.918 79.1514Z" fill="#0B233A"/>
<path d="M235.675 91.845C235.675 91.845 232.519 90.4059 228.708 93.6943" stroke="#0B233A" stroke-width="1.65133" stroke-miterlimit="10" stroke-linecap="round" stroke-linejoin="round"/>
<path d="M243.884 39.1653C240.874 39.0054 237.838 39.3356 234.925 40.1116C227.694 42.0371 214.707 47.3931 212.481 61.2827C211.74 64.9436 212.254 66.1712 212.254 66.1712C212.254 66.1712 236.508 67.1221 250.846 60.3523C252.911 69.09 254.818 74.4958 263.449 83.0049L271.111 71.4877L279.737 79.2244C279.793 79.517 279.783 41.073 243.884 39.1653Z" fill="#0B233A"/>
<path d="M276.032 83.2376C276.392 88.4149 272.488 92.9036 267.311 93.263C262.133 93.6242 257.645 89.7186 257.284 84.5413C256.924 79.365 260.83 74.8762 266.006 74.516C271.183 74.1557 275.672 78.0603 276.032 83.2376Z" fill="#FFB3AD"/>
<path d="M263.071 86.5762C263.071 86.5762 262.598 79.78 269.171 80.398" stroke="#0B233A" stroke-width="1.65133" stroke-miterlimit="10" stroke-linecap="round" stroke-linejoin="round"/>
<path d="M415.141 236.539H419.875V240.078H415.141V248H410.781V240.078H395.242V237.523L410.523 213.875H415.141V236.539ZM400.164 236.539H410.781V219.805L410.266 220.742L400.164 236.539ZM445.188 233.445C445.188 238.523 444.32 242.297 442.586 244.766C440.852 247.234 438.141 248.469 434.453 248.469C430.812 248.469 428.117 247.266 426.367 244.859C424.617 242.438 423.711 238.828 423.648 234.031V228.242C423.648 223.227 424.516 219.5 426.25 217.062C427.984 214.625 430.703 213.406 434.406 213.406C438.078 213.406 440.781 214.586 442.516 216.945C444.25 219.289 445.141 222.914 445.188 227.82V233.445ZM440.852 227.516C440.852 223.844 440.336 221.172 439.305 219.5C438.273 217.812 436.641 216.969 434.406 216.969C432.188 216.969 430.57 217.805 429.555 219.477C428.539 221.148 428.016 223.719 427.984 227.188V234.125C427.984 237.812 428.516 240.539 429.578 242.305C430.656 244.055 432.281 244.93 434.453 244.93C436.594 244.93 438.18 244.102 439.211 242.445C440.258 240.789 440.805 238.18 440.852 234.617V227.516ZM469.047 236.539H473.781V240.078H469.047V248H464.688V240.078H449.148V237.523L464.43 213.875H469.047V236.539ZM454.07 236.539H464.688V219.805L464.172 220.742L454.07 236.539Z" fill="white"/>
</svg>
