<svg width="81" height="37" viewBox="0 0 81 37" fill="none" xmlns="http://www.w3.org/2000/svg">
<g clip-path="url(#clip0)">
<path d="M28.5034 19.0775H25.2834V1.19531H28.5034V19.0775Z" fill="#0E2D4A"/>
<path d="M47.3057 19.0775H44.0282L35.7484 6.37022V19.0775H32.4709V1.19531H35.7484L44.0857 13.9601V1.19531H47.3057V19.0775Z" fill="#0E2D4A"/>
<path d="M64.2678 3.72526H58.4604V19.135H55.2405V3.72526H49.4331V1.19531H64.2678V3.72526Z" fill="#0E2D4A"/>
<path d="M70.1328 19.0775H66.9128V1.19531H70.1328V19.0775Z" fill="#0E2D4A"/>
<path d="M11.5414 0.275394H11.3114C9.35643 -0.0696003 7.34396 0.217896 5.5615 1.02288C3.77903 1.88537 2.28405 3.26535 1.30657 4.99032C0.32909 6.71528 -0.130901 8.72775 0.0990952 10.6827C0.271592 12.6377 1.07658 14.5351 2.39905 16.0301C3.31904 17.1226 4.41152 17.9276 5.67649 18.5601C6.94147 19.1351 8.32145 19.4226 9.70142 19.4226H10.0464C12.0589 19.3651 14.0138 18.6176 15.6238 17.2951C17.0038 16.2026 18.0388 14.7651 18.6713 13.1552C19.1888 11.8327 19.4187 10.4527 19.3037 9.01524C19.1888 7.63527 18.7863 6.25529 18.1538 4.99032C17.4638 3.78284 16.5438 2.69035 15.3938 1.88537C14.2438 1.13788 12.9214 0.562888 11.5414 0.275394ZM6.02149 9.53273C6.13649 8.49775 6.48148 7.52027 7.05647 6.65778C7.17147 6.48529 7.28646 6.31279 7.34396 6.19779C7.63146 5.7953 7.91895 5.33531 8.20645 4.93281C8.32145 4.81782 8.37895 4.64532 8.49394 4.53032L8.60894 4.30032C8.60894 4.24282 8.72394 4.12783 8.78144 4.07033C9.06893 3.72534 9.29893 3.32284 9.52893 3.03535L9.64392 2.86285C10.7364 4.53032 13.2664 7.46277 13.2664 9.53273C13.2664 10.1652 13.0939 10.8552 12.7489 11.3727C12.4039 11.8902 11.9439 12.4077 11.3689 12.6952C10.7939 12.9827 10.1614 13.1552 9.47143 13.1552C8.83894 13.1552 8.20645 12.9252 7.63146 12.5802C7.57396 12.5227 7.51646 12.5227 7.45896 12.4652C7.28647 12.3502 7.17147 12.2352 7.05647 12.1202L6.99897 12.0627C6.36648 11.3727 6.02149 10.4527 6.02149 9.53273Z" fill="#99C8FF"/>
<path fill-rule="evenodd" clip-rule="evenodd" d="M19.3037 9.7051C19.3037 10.8551 19.0737 12.0626 18.6712 13.155C18.0387 14.765 17.0037 16.2025 15.6237 17.295L7.34389 14.42L7.0564 12.0051L7.11389 12.0626C7.22889 12.1776 7.34389 12.2926 7.51639 12.4076C7.57389 12.4651 7.63139 12.5225 7.68888 12.5225C8.26387 12.9825 8.95386 13.385 9.70135 13.5575C10.4488 13.7875 11.1963 13.845 12.0013 13.73C13.4963 13.4425 14.7613 12.6375 15.6237 11.3726C16.4862 10.1651 16.8312 8.61262 16.5437 7.17514C16.3137 5.62267 15.6812 4.1277 14.7613 2.86272C14.0138 1.65524 12.8638 0.677765 11.4838 0.217773C13.6688 0.677765 15.6237 1.82775 17.0612 3.55272C18.5562 5.33518 19.3037 7.52014 19.3037 9.7051Z" fill="#99C8FF"/>
<path fill-rule="evenodd" clip-rule="evenodd" d="M18.6711 13.2121C17.9811 14.9946 16.8312 16.4895 15.2787 17.582C13.7262 18.6745 11.9438 19.307 10.0463 19.3645H9.70129C8.32132 19.3645 6.94134 19.077 5.67636 18.502C4.41139 17.927 3.26141 17.0645 2.39893 15.9721L4.29639 7.9797L7.11384 6.65723C6.53885 7.51971 6.13636 8.4972 6.07886 9.58968C6.07886 10.5097 6.42385 11.4296 7.05634 12.0621C7.63133 12.9246 8.37882 13.7296 9.2413 14.2471C10.1038 14.8221 11.1388 15.1671 12.1737 15.3396C14.4162 15.5696 17.9236 14.7071 18.6711 13.2121Z" fill="#2B8CFF"/>
<path d="M10.0463 19.365H9.7013C8.37882 19.365 7.05635 19.0775 5.79137 18.56C4.5839 18.0425 3.43392 17.2375 2.51393 16.26C1.59395 15.2825 0.903961 14.1325 0.501469 12.8101C0.041477 11.5451 -0.0735204 10.1651 0.0414775 8.84264C0.156475 7.52017 0.558968 6.19769 1.19146 5.04771C1.82395 3.89773 2.74393 2.86274 3.77891 2.00026C4.81389 1.13777 6.07887 0.620284 7.40134 0.27529C8.72382 -0.0697039 10.0463 -0.0697022 11.3688 0.160294H11.5988L9.7013 2.69025L9.5863 2.86274C9.41381 3.03524 9.18381 3.43773 8.83882 3.89773C8.83882 3.95523 8.72382 4.01273 8.66632 4.12773L8.55132 4.30022C8.43632 4.41522 8.37882 4.58772 8.26383 4.70272C7.97633 5.10521 7.68884 5.5652 7.40134 5.96769C7.28634 6.14019 7.17135 6.25519 7.11385 6.42769C4.64139 10.3376 5.38888 16.145 9.35631 18.8475C9.5288 19.135 9.7588 19.25 10.0463 19.365Z" fill="#0E2D4A"/>
<path d="M3.26129 24.3096H3.83628V28.6795H3.26129V25.3445L1.13383 28.6795H0.558838V24.3096H1.13383V27.6445L3.26129 24.3096Z" fill="#2B8CFF"/>
<path d="M7.45867 28.6223H6.88368V27.2423H5.38871V28.6223H4.81372V25.4023H5.38871V26.7823H6.88368V25.4023H7.45867V28.6223Z" fill="#2B8CFF"/>
<path d="M9.64377 28.278C9.81627 28.278 9.98877 28.2205 10.1613 28.1055C10.3338 27.9905 10.3913 27.818 10.3913 27.6455H10.9088C10.9088 27.818 10.8513 27.9905 10.7363 28.163C10.6213 28.3355 10.4488 28.4505 10.2763 28.5655C10.1038 28.6805 9.87377 28.738 9.64377 28.738C9.18378 28.738 8.83879 28.5655 8.60879 28.278C8.3213 27.9905 8.2063 27.588 8.2063 27.0706V26.9556C8.2063 26.6681 8.2638 26.3806 8.3788 26.0931C8.4938 25.8631 8.66629 25.6331 8.89629 25.5181C9.12628 25.4031 9.35628 25.2881 9.64377 25.2881C9.98877 25.2881 10.3338 25.4031 10.5638 25.6331C10.7938 25.8631 10.9088 26.1506 10.9663 26.4956H10.4488C10.4488 26.2656 10.3338 26.0931 10.2188 25.9781C10.1038 25.8631 9.87377 25.7481 9.70127 25.7481C9.41378 25.7481 9.18378 25.8631 9.06878 26.0356C8.89629 26.2656 8.83879 26.5531 8.83879 26.8981V27.0131C8.83879 27.358 8.89629 27.6455 9.06878 27.8755C9.12628 28.163 9.35628 28.278 9.64377 28.278Z" fill="#2B8CFF"/>
<path d="M13.9562 25.8623H12.8638V28.6223H12.2888V25.8623H11.1963V25.4023H13.8987V25.8623H13.9562Z" fill="#2B8CFF"/>
<path d="M16.601 25.4023H17.176V28.6223H16.601V26.2648L15.106 28.6223H14.531V25.4023H15.106V27.7598L16.601 25.4023Z" fill="#2B8CFF"/>
<path d="M20.3959 25.8623H19.3035V28.6223H18.7285V25.8623H17.636V25.4023H20.3384V25.8623H20.3959Z" fill="#2B8CFF"/>
<path d="M22.0635 27.8172L22.8109 25.4022H23.3859L22.0635 29.1397C21.8335 29.6572 21.546 29.9446 21.086 29.9446H20.971L20.741 29.8871V29.4272H20.9135C21.086 29.4272 21.2585 29.3697 21.3735 29.3122C21.4885 29.2547 21.546 29.0822 21.661 28.9097L21.776 28.5647L20.626 25.3447H21.2585L22.0635 27.8172Z" fill="#2B8CFF"/>
<path d="M26.3183 25.8623H25.2258V28.6223H24.6508V25.8623H23.5583V25.4023H26.2608V25.8623H26.3183Z" fill="#2B8CFF"/>
<path d="M30.9758 28.6223H30.4008V27.2423H28.9058V28.6223H28.3308V25.4023H28.9058V26.7823H30.4008V25.4023H30.9758V28.6223Z" fill="#2B8CFF"/>
<path d="M33.2184 28.6805C32.7584 28.6805 32.4134 28.508 32.1259 28.2205C31.8384 27.933 31.7234 27.5305 31.7234 27.0706V26.9556C31.7234 26.6106 31.7809 26.3231 31.8959 26.0931C32.0109 25.8631 32.1834 25.6331 32.4134 25.5181C32.6434 25.4031 32.8734 25.2881 33.1034 25.2881C33.5059 25.2881 33.8508 25.4031 34.0808 25.6906C34.3108 25.9781 34.4258 26.3806 34.4258 26.8981V27.1281H32.2984C32.2984 27.4731 32.4134 27.703 32.5859 27.8755C32.7584 28.048 32.9884 28.163 33.2759 28.163C33.4484 28.163 33.6209 28.1055 33.7934 28.048C33.9083 27.9905 34.0233 27.8755 34.1383 27.703L34.4833 27.9905C34.1958 28.508 33.7934 28.6805 33.2184 28.6805ZM33.1609 25.8056C32.9309 25.8056 32.7584 25.8631 32.5859 26.0356C32.4134 26.2081 32.3559 26.4381 32.2984 26.7256H33.9084V26.6681C33.9084 26.3806 33.7934 26.1506 33.6784 26.0356C33.5634 25.8631 33.3909 25.8056 33.1609 25.8056Z" fill="#2B8CFF"/>
<path d="M35.0007 27.07C35.0007 26.5525 35.1157 26.0925 35.2882 25.805C35.5182 25.5176 35.8057 25.3451 36.1507 25.3451C36.3232 25.3451 36.4957 25.4026 36.6107 25.4601V24.0801H37.1857V25.4601C37.3007 25.4026 37.4732 25.3451 37.7032 25.3451C38.0482 25.3451 38.3357 25.5176 38.5657 25.805C38.7957 26.0925 38.8532 26.5525 38.8532 27.1275C38.8532 27.5875 38.7382 27.99 38.5657 28.2775C38.3357 28.565 38.0482 28.68 37.7032 28.68C37.5307 28.68 37.3582 28.6225 37.1857 28.565V29.83H36.6107V28.565C36.4957 28.6225 36.3232 28.68 36.1507 28.68C35.8057 28.68 35.5182 28.565 35.2882 28.2775C35.1157 27.99 35.0007 27.645 35.0007 27.07ZM35.5757 27.1275C35.5757 27.4725 35.6332 27.76 35.7482 27.9325C35.8632 28.105 36.0357 28.22 36.3232 28.22C36.4382 28.22 36.5532 28.22 36.6107 28.1625V25.805C36.5532 25.7475 36.4382 25.7476 36.3232 25.7476C36.0932 25.7476 35.9207 25.8625 35.7482 26.0925C35.6332 26.3225 35.5757 26.6675 35.5757 27.1275ZM38.2782 27.07C38.2782 26.6675 38.2207 26.3225 38.0482 26.15C37.9332 25.92 37.7032 25.805 37.4732 25.805C37.3582 25.805 37.2432 25.8051 37.1282 25.8625V28.22C37.2432 28.2775 37.3007 28.2775 37.4732 28.2775C37.7032 28.2775 37.9332 28.1625 38.0482 27.99C38.2207 27.76 38.2782 27.4725 38.2782 27.07Z" fill="#2B8CFF"/>
<path d="M41.7282 25.8623H40.6357V28.6223H40.0607V25.8623H38.9683V25.4023H41.6707V25.8623H41.7282Z" fill="#2B8CFF"/>
<path d="M43.3956 28.6805C42.9356 28.6805 42.5906 28.508 42.3031 28.2205C42.0156 27.933 41.9006 27.5305 41.9006 27.0706V26.9556C41.9006 26.6106 41.9581 26.3231 42.0731 26.0931C42.1881 25.8631 42.3606 25.6331 42.5906 25.5181C42.8206 25.4031 43.0506 25.2881 43.2806 25.2881C43.6831 25.2881 44.0281 25.4031 44.2581 25.6906C44.4881 25.9781 44.6031 26.3806 44.6031 26.8981V27.1281H42.4181C42.4181 27.4731 42.5331 27.703 42.7056 27.8755C42.8781 28.048 43.1081 28.163 43.3956 28.163C43.5681 28.163 43.7406 28.1055 43.9131 28.048C44.0281 27.9905 44.1431 27.8755 44.2581 27.703L44.6031 27.9905C44.3156 28.508 43.9131 28.6805 43.3956 28.6805ZM43.3381 25.8056C43.1081 25.8056 42.9356 25.8631 42.7631 26.0356C42.5906 26.2081 42.5331 26.4381 42.4756 26.7256H44.0856V26.6681C44.0856 26.3806 43.9706 26.1506 43.8556 26.0356C43.7406 25.8631 43.5681 25.8056 43.3381 25.8056Z" fill="#2B8CFF"/>
<path d="M47.3629 25.8623H45.868V28.6223H45.293V25.4023H47.3629V25.8623Z" fill="#2B8CFF"/>
<path d="M49.8356 28.6222C49.7781 28.5647 49.7781 28.4497 49.7781 28.2772C49.5481 28.5647 49.2031 28.6797 48.8581 28.6797C48.5131 28.6797 48.2831 28.5647 48.0531 28.3922C47.8231 28.2197 47.7656 27.9897 47.7656 27.7022C47.7656 27.3572 47.8806 27.1272 48.1681 26.8972C48.3981 26.7247 48.8006 26.6097 49.2606 26.6097H49.7781V26.3797C49.7781 26.2072 49.7206 26.0347 49.6056 25.9197C49.4906 25.8047 49.3181 25.7472 49.0881 25.7472C48.9156 25.7472 48.7431 25.8047 48.5706 25.9197C48.4556 26.0347 48.3981 26.1497 48.3981 26.2647H47.8231C47.8231 26.0922 47.8806 25.9197 47.9956 25.8047C48.1106 25.6322 48.2831 25.5172 48.4556 25.4597C48.6281 25.3447 48.8581 25.3447 49.0881 25.3447C49.4331 25.3447 49.7781 25.4597 49.9506 25.6322C50.1806 25.8047 50.2956 26.0922 50.2956 26.3797V27.8747C50.2956 28.1622 50.3531 28.3922 50.4106 28.5647V28.6222H49.8356ZM48.9156 28.2197C49.0881 28.2197 49.2606 28.1622 49.4331 28.1047C49.6056 27.9897 49.7206 27.8747 49.7781 27.7597V27.0697H49.3181C48.6281 27.0697 48.2831 27.2422 48.2831 27.6447C48.2831 27.8172 48.3406 27.9322 48.4556 28.0472C48.6281 28.1622 48.7431 28.2197 48.9156 28.2197Z" fill="#2B8CFF"/>
<path d="M52.9403 26.2647C52.9403 26.0922 52.8828 25.9772 52.7678 25.9197C52.6528 25.8047 52.4803 25.8047 52.3078 25.8047C52.1353 25.8047 51.9628 25.8622 51.7903 25.9772C51.6753 26.0922 51.6178 26.2072 51.6178 26.3222H51.0429C51.0429 26.0347 51.1578 25.8047 51.3878 25.6322C51.6178 25.4597 51.9053 25.3447 52.2503 25.3447C52.6528 25.3447 52.9403 25.4022 53.1128 25.5747C53.3428 25.7472 53.4578 25.9772 53.4578 26.2647C53.4578 26.4372 53.4003 26.5522 53.3428 26.6672C53.2278 26.7822 53.1128 26.8972 52.9403 26.9547C53.3428 27.0697 53.5153 27.3572 53.5153 27.7022C53.5153 27.9897 53.4003 28.2197 53.1703 28.3922C52.9403 28.5647 52.6528 28.6797 52.2503 28.6797C51.9053 28.6797 51.5603 28.5647 51.3303 28.3922C51.1004 28.2197 50.9854 27.9897 50.9854 27.6447H51.5603C51.5603 27.8172 51.6178 27.9322 51.7903 28.0472C51.9053 28.1622 52.0778 28.2197 52.3078 28.2197C52.5378 28.2197 52.7103 28.1622 52.8253 28.0472C52.9403 27.9322 52.9978 27.8172 52.9978 27.6447C52.9978 27.4722 52.9403 27.3572 52.8253 27.2422C52.7103 27.1847 52.5378 27.1272 52.3078 27.1272H51.7328V26.6672H52.3078C52.7678 26.7247 52.9403 26.6097 52.9403 26.2647Z" fill="#2B8CFF"/>
<path d="M54.1479 27.0122C54.1479 26.6672 54.2054 26.4372 54.3204 26.1497C54.4354 25.8622 54.6079 25.6897 54.8379 25.5747C55.0679 25.4597 55.2979 25.3447 55.5854 25.3447C56.0454 25.3447 56.3904 25.5172 56.6779 25.8047C56.9654 26.0922 57.0804 26.4947 57.0804 27.0122V27.0697C57.0804 27.3572 57.0229 27.6447 56.9079 27.9322C56.7929 28.1622 56.6204 28.3922 56.3904 28.5072C56.1604 28.6222 55.9304 28.7372 55.6429 28.7372C55.1829 28.7372 54.8379 28.5647 54.5504 28.2772C54.2629 27.9322 54.1479 27.5297 54.1479 27.0122ZM54.7229 27.0697C54.7229 27.4147 54.7804 27.7022 54.9529 27.9322C55.1254 28.1622 55.3554 28.2772 55.6429 28.2772C55.9304 28.2772 56.1604 28.1622 56.3329 27.9322C56.5054 27.7022 56.5629 27.4147 56.5629 27.0122C56.5629 26.6672 56.5054 26.3797 56.3329 26.1497C56.1604 25.9197 55.9304 25.8047 55.6429 25.8047C55.3554 25.8047 55.1254 25.9197 54.9529 26.1497C54.7804 26.3222 54.7229 26.6672 54.7229 27.0697Z" fill="#2B8CFF"/>
<path d="M57.8279 28.6223V25.4023H59.0929C59.4954 25.4023 59.8403 25.4598 60.0703 25.6323C60.3003 25.8048 60.4153 25.9773 60.4153 26.3223C60.4153 26.4948 60.3578 26.6098 60.3003 26.7248C60.1853 26.8398 60.0703 26.9548 59.8978 27.0123C60.0703 27.0698 60.2428 27.1273 60.3578 27.2998C60.4728 27.4148 60.5303 27.5873 60.5303 27.7598C60.5303 28.0473 60.4153 28.2773 60.1853 28.4498C59.9553 28.6223 59.6678 28.6798 59.2654 28.6798H57.8279V28.6223ZM58.4029 26.7823H59.0929C59.6104 26.7823 59.8978 26.6098 59.8978 26.3223C59.8978 26.0348 59.6678 25.8623 59.1504 25.8623H58.4029V26.7823ZM58.4029 27.2423V28.2198H59.3229C59.5529 28.2198 59.7253 28.1623 59.8403 28.1048C59.9553 28.0473 60.0128 27.8748 60.0128 27.7598C60.0128 27.4148 59.7828 27.2998 59.3229 27.2998H58.4029V27.2423Z" fill="#2B8CFF"/>
<path d="M61.9103 26.4948H62.7728C63.1178 26.4948 63.4053 26.6098 63.6353 26.7823C63.8653 26.9548 63.9803 27.2423 63.9803 27.5298C63.9803 27.8748 63.8653 28.1048 63.6353 28.3348C63.4053 28.5073 63.1178 28.6223 62.7728 28.6223H61.3928V25.4023H61.9678V26.4948H61.9103ZM61.9103 26.9548V28.1623H62.7153C62.9453 28.1623 63.0603 28.1048 63.1753 27.9898C63.2903 27.8748 63.3478 27.7598 63.3478 27.5298C63.3478 27.3573 63.2903 27.1848 63.1753 27.0698C63.0603 26.9548 62.8878 26.8973 62.7153 26.8973H61.9103V26.9548ZM65.0728 28.6223H64.4978V25.4023H65.0728V28.6223Z" fill="#2B8CFF"/>
<path d="M67.1427 26.6098L67.8327 25.4023H68.4651L67.4302 27.0123L68.5226 28.6223H67.8902L67.1427 27.4148L66.3952 28.6223H65.7627L66.8552 27.0123L65.8202 25.4023H66.4527L67.1427 26.6098Z" fill="#2B8CFF"/>
<path d="M2.85883 33.2227H1.76635V35.9826H1.19136V33.2227H0.098877V32.7627H2.80133V33.2227H2.85883Z" fill="#2B8CFF"/>
<path d="M4.46885 36.0399C4.00886 36.0399 3.66386 35.8674 3.37637 35.5799C3.08888 35.2924 2.97388 34.8899 2.97388 34.4299V34.3149C2.97388 33.9699 3.03138 33.6824 3.14637 33.4524C3.26137 33.2224 3.43387 32.9925 3.66386 32.8775C3.89386 32.7625 4.12386 32.6475 4.35385 32.6475C4.75635 32.6475 5.10134 32.7624 5.33133 33.0499C5.56133 33.3374 5.67633 33.7399 5.67633 34.2574V34.4874H3.54887C3.54887 34.8324 3.66386 35.0624 3.83636 35.2349C4.00886 35.4074 4.23885 35.5224 4.52635 35.5224C4.69885 35.5224 4.87134 35.4649 5.04384 35.4074C5.15884 35.3499 5.27383 35.2349 5.38883 35.0624L5.73383 35.3499C5.44633 35.8674 5.04384 36.0399 4.46885 36.0399ZM4.41135 33.1649C4.18136 33.1649 4.00886 33.2224 3.83636 33.3949C3.66386 33.5674 3.60637 33.7974 3.54887 34.0849H5.15884V34.0274C5.15884 33.7399 5.04384 33.5099 4.92884 33.3949C4.81384 33.2224 4.64135 33.1649 4.41135 33.1649Z" fill="#2B8CFF"/>
<path d="M7.45883 33.9126L8.14882 32.7051H8.78131L7.74633 34.3151L8.8388 35.925H8.20632L7.45883 34.7175L6.71135 35.925H6.07886L7.17134 34.3151L6.13636 32.7051H6.76884L7.45883 33.9126Z" fill="#2B8CFF"/>
<path d="M12.0588 35.9826H11.4838V34.6027H9.98881V35.9826H9.41382V32.7627H9.98881V34.1427H11.4838V32.7627H12.0588V35.9826Z" fill="#2B8CFF"/>
<path d="M12.8062 34.3726C12.8062 34.0276 12.8637 33.7976 12.9787 33.5101C13.0936 33.2801 13.2661 33.0501 13.4961 32.9351C13.7261 32.8201 13.9561 32.7051 14.2436 32.7051C14.7036 32.7051 15.0486 32.8776 15.3361 33.1651C15.6236 33.4526 15.7386 33.8551 15.7386 34.3726V34.43C15.7386 34.7175 15.6811 35.005 15.5661 35.2925C15.4511 35.5225 15.2786 35.7525 15.0486 35.8675C14.8186 35.9825 14.5886 36.0975 14.3011 36.0975C13.8411 36.0975 13.4961 35.925 13.2086 35.6375C12.9212 35.2925 12.8062 34.8901 12.8062 34.3726ZM13.3811 34.43C13.3811 34.775 13.4386 35.0625 13.6111 35.2925C13.7836 35.5225 14.0136 35.6375 14.3011 35.6375C14.5886 35.6375 14.8186 35.5225 14.9911 35.2925C15.1636 35.0625 15.2211 34.7751 15.2211 34.3726C15.2211 34.0276 15.1636 33.7401 14.9911 33.5101C14.8186 33.2801 14.5886 33.1651 14.3011 33.1651C14.0136 33.1651 13.7836 33.2801 13.6111 33.5101C13.4386 33.6826 13.3811 34.0276 13.3811 34.43Z" fill="#2B8CFF"/>
<path d="M19.0736 32.7627V35.9826H18.4986V33.2227H17.4061L17.3486 34.4302C17.2911 35.0052 17.2336 35.4076 17.0611 35.6376C16.8886 35.8676 16.6586 35.9826 16.3711 36.0401H16.1411V35.5801H16.3136C16.4861 35.5801 16.6011 35.4651 16.7161 35.2926C16.7736 35.1201 16.8311 34.7752 16.8886 34.2577L16.9461 32.8777H19.0736V32.7627Z" fill="#2B8CFF"/>
<path d="M19.7634 34.3726C19.7634 34.0276 19.8209 33.7976 19.9359 33.5101C20.0509 33.2801 20.2234 33.0501 20.4534 32.9351C20.6834 32.8201 20.9134 32.7051 21.2009 32.7051C21.6609 32.7051 22.0059 32.8776 22.2934 33.1651C22.5809 33.4526 22.6959 33.8551 22.6959 34.3726V34.43C22.6959 34.7175 22.6384 35.005 22.5234 35.2925C22.4084 35.5225 22.2359 35.7525 22.0059 35.8675C21.7759 35.9825 21.5459 36.0975 21.2584 36.0975C20.7984 36.0975 20.4534 35.925 20.1659 35.6375C19.9359 35.2925 19.7634 34.8901 19.7634 34.3726ZM20.3384 34.43C20.3384 34.775 20.3959 35.0625 20.5684 35.2925C20.7409 35.5225 20.9709 35.6375 21.2584 35.6375C21.5459 35.6375 21.7759 35.5225 21.9484 35.2925C22.1209 35.0625 22.1784 34.7751 22.1784 34.3726C22.1784 34.0276 22.1209 33.7401 21.9484 33.5101C21.7759 33.2801 21.5459 33.1651 21.2584 33.1651C20.9709 33.1651 20.7409 33.2801 20.5684 33.5101C20.4534 33.6826 20.3384 34.0276 20.3384 34.43Z" fill="#2B8CFF"/>
<path d="M25.5133 33.2227H24.0183V35.9826H23.4434V32.7627H25.5133V33.2227Z" fill="#2B8CFF"/>
<path d="M28.1007 32.7627H28.6757V35.9826H28.1007V33.6252L26.6058 35.9826H26.0308V32.7627H26.6058V35.1202L28.1007 32.7627Z" fill="#2B8CFF"/>
<path d="M31.9532 35.9828H31.3782V34.8328C31.1482 34.8903 30.8607 34.9478 30.6307 34.9478C30.2282 34.9478 29.9407 34.8328 29.7107 34.6603C29.4807 34.4303 29.3657 34.1428 29.3657 33.7978V32.8203H29.9407V33.7978C29.9407 34.2578 30.1707 34.5453 30.6307 34.5453C30.8607 34.5453 31.1482 34.4878 31.3782 34.4303V32.8203H31.9532V35.9828Z" fill="#2B8CFF"/>
<path d="M34.1957 36.0399C33.7357 36.0399 33.3907 35.8674 33.1032 35.5799C32.8157 35.2924 32.7007 34.8899 32.7007 34.4299V34.3149C32.7007 33.9699 32.7582 33.6824 32.8732 33.4524C32.9882 33.2224 33.1607 32.9925 33.3907 32.8775C33.6207 32.7625 33.8507 32.6475 34.0807 32.6475C34.4832 32.6475 34.8281 32.7624 35.0581 33.0499C35.2881 33.3374 35.4031 33.7399 35.4031 34.2574V34.4874H33.2182C33.2182 34.8324 33.3332 35.0624 33.5057 35.2349C33.6782 35.4074 33.9082 35.5224 34.1957 35.5224C34.3682 35.5224 34.5407 35.4649 34.7131 35.4074C34.8281 35.3499 34.9431 35.2349 35.0581 35.0624L35.4031 35.3499C35.1731 35.8674 34.7706 36.0399 34.1957 36.0399ZM34.1382 33.1649C33.9082 33.1649 33.7357 33.2224 33.5632 33.3949C33.3907 33.5674 33.3332 33.7974 33.2757 34.0849H34.8856V34.0274C34.8856 33.7399 34.7706 33.5099 34.6556 33.3949C34.5407 33.2224 34.3682 33.1649 34.1382 33.1649Z" fill="#2B8CFF"/>
<path d="M37.4157 35.5798C37.5882 35.5798 37.7607 35.5223 37.9332 35.4073C38.1057 35.2923 38.1632 35.1198 38.1632 34.9473H38.6807C38.6807 35.1198 38.6232 35.2923 38.5082 35.4648C38.3932 35.6373 38.2207 35.7523 38.0482 35.8673C37.8757 35.9823 37.6457 36.0398 37.4157 36.0398C36.9558 36.0398 36.6108 35.8673 36.3808 35.5798C36.0933 35.2923 35.9783 34.8898 35.9783 34.3723V34.2573C35.9783 33.9698 36.0358 33.6823 36.1508 33.3948C36.2658 33.1648 36.4383 32.9348 36.6683 32.8198C36.8983 32.7048 37.1283 32.5898 37.4157 32.5898C37.7607 32.5898 38.1057 32.7048 38.3357 32.9348C38.5657 33.1648 38.6807 33.4523 38.7382 33.7973H38.2207C38.2207 33.5673 38.1057 33.3948 37.9907 33.2798C37.8757 33.1648 37.6457 33.0498 37.4732 33.0498C37.1857 33.0498 36.9558 33.1648 36.8408 33.3373C36.6683 33.5673 36.6108 33.8548 36.6108 34.1998V34.3148C36.6108 34.6598 36.6683 34.9473 36.8408 35.1773C36.8983 35.5223 37.1283 35.5798 37.4157 35.5798Z" fill="#2B8CFF"/>
<path d="M40.3481 34.6027H39.9456V35.9826H39.3706V32.7627H39.9456V34.1427H40.2906L41.3831 32.7627H42.0731L40.8081 34.3152L42.1881 35.9826H41.4981L40.3481 34.6027Z" fill="#2B8CFF"/>
<path d="M44.7182 32.7627H45.2931V35.9826H44.7182V33.6252L43.2232 35.9826H42.6482V32.7627H43.2232V35.1202L44.7182 32.7627Z" fill="#2B8CFF"/>
<path d="M47.2479 33.9126L47.9379 32.7051H48.5704L47.5354 34.3151L48.6279 35.925H47.9954L47.2479 34.7175L46.5004 35.925H45.8679L46.9604 34.3151L45.9254 32.7051H46.5579L47.2479 33.9126Z" fill="#2B8CFF"/>
<path d="M52.8253 32.7627H53.4003V35.9826H52.8253V33.6252L51.3304 35.9826H50.7554V32.7627H51.3304V35.1202L52.8253 32.7627Z" fill="#2B8CFF"/>
<path d="M56.9079 35.9826H56.3329V34.6027H54.8379V35.9826H54.2629V32.7627H54.8379V34.1427H56.3329V32.7627H56.9079V35.9826Z" fill="#2B8CFF"/>
<path d="M59.8978 32.7627H60.4728V35.9826H59.8978V33.6252L58.4029 35.9826H57.8279V32.7627H58.4029V35.1202L59.8978 32.7627Z" fill="#2B8CFF"/>
<path d="M61.3352 32.7627H61.9102V35.5227H63.4052V32.7627H63.9802V35.5227H64.3827L64.3251 36.9601H63.8077V35.9826H61.3927V32.7627H61.3352Z" fill="#2B8CFF"/>
<path d="M67.0277 32.7627H67.6027V35.9826H67.0277V33.6252L65.5328 35.9826H64.9578V32.7627H65.5328V35.1202L67.0277 32.7627Z" fill="#2B8CFF"/>
<path d="M70.4777 35.9825C70.4202 35.925 70.4202 35.81 70.4202 35.6375C70.1902 35.925 69.8452 36.04 69.5002 36.04C69.1552 36.04 68.9252 35.925 68.6952 35.7525C68.4652 35.58 68.4077 35.35 68.4077 35.0625C68.4077 34.7175 68.5227 34.4876 68.8102 34.2576C69.0402 34.0851 69.4427 33.9701 69.9027 33.9701H70.4202V33.7401C70.4202 33.5676 70.3627 33.3951 70.2477 33.2801C70.1327 33.1651 69.9602 33.1076 69.7302 33.1076C69.5577 33.1076 69.3852 33.1651 69.2127 33.2801C69.0977 33.3951 69.0402 33.5101 69.0402 33.6251H68.4652C68.4652 33.4526 68.5227 33.2801 68.6377 33.1651C68.7527 32.9926 68.9252 32.8776 69.0977 32.8201C69.2702 32.7051 69.5002 32.7051 69.7302 32.7051C70.0752 32.7051 70.4202 32.8201 70.5927 32.9926C70.8227 33.1651 70.9377 33.4526 70.9377 33.7401V35.235C70.9377 35.5225 70.9952 35.7525 71.0527 35.925V35.9825H70.4777ZM69.5577 35.58C69.7302 35.58 69.9027 35.5225 70.0752 35.465C70.2477 35.4075 70.3627 35.235 70.4202 35.12V34.43H69.9602C69.2702 34.43 68.9252 34.6025 68.9252 35.005C68.9252 35.1775 68.9827 35.2925 69.0977 35.4075C69.2127 35.5225 69.3852 35.58 69.5577 35.58Z" fill="#2B8CFF"/>
<path d="M74.1574 33.2227H73.0649V35.9826H72.4899V33.2227H71.3975V32.7627H74.0999V33.2227H74.1574Z" fill="#2B8CFF"/>
<path d="M76.8024 32.7627H77.3774V35.9826H76.8024V33.6252L75.3074 35.9826H74.7324V32.7627H75.3074V35.1202L76.8024 32.7627Z" fill="#2B8CFF"/>
<path d="M78.2974 35.9826V32.7627H79.5623C79.9648 32.7627 80.3098 32.8202 80.5398 32.9927C80.7698 33.1652 80.8848 33.3377 80.8848 33.6827C80.8848 33.8552 80.8273 33.9702 80.7698 34.0852C80.6548 34.2002 80.5398 34.3152 80.3673 34.3727C80.5398 34.4302 80.7123 34.4877 80.8273 34.6602C80.9423 34.7752 80.9998 34.9477 80.9998 35.1202C80.9998 35.4077 80.8848 35.6377 80.6548 35.8102C80.4248 35.9826 80.1373 36.0401 79.7348 36.0401H78.2974V35.9826ZM78.8724 34.1427H79.5623C80.0798 34.1427 80.3673 33.9702 80.3673 33.6827C80.3673 33.3952 80.1373 33.2227 79.6198 33.2227H78.8724V34.1427ZM78.8724 34.5452V35.5227H79.7923C80.0223 35.5227 80.1948 35.4652 80.3098 35.4077C80.4248 35.3502 80.4823 35.1777 80.4823 35.0627C80.4823 34.7177 80.2523 34.6027 79.7923 34.6027H78.8724V34.5452Z" fill="#2B8CFF"/>
</g>
<defs>
<clipPath id="clip0">
<rect width="81" height="37" fill="white"/>
</clipPath>
</defs>
</svg>
