<svg xmlns="http://www.w3.org/2000/svg" viewBox="0 0 146 64"><defs><linearGradient id="grad" x1="1190.98" y1="593.84" x2="1166" y2="593.84" gradientTransform="translate(-1166 -578)" gradientUnits="userSpaceOnUse"><stop offset="0" stop-color="#7f7f7f"/><stop offset=".98" stop-color="#fff"/><stop offset="1" stop-color="#fff"/></linearGradient><linearGradient id="grad_2" x1="-715.44" y1="75.74" x2="-733.28" y2="75.74" gradientTransform="matrix(-1 0 0 1 -708.3 -61)" gradientUnits="userSpaceOnUse"><stop offset="0" stop-color="#fff"/><stop offset=".01" stop-color="#fefefe"/><stop offset=".02" stop-color="#fefefe"/><stop offset=".02" stop-color="#fefefe"/><stop offset=".03" stop-color="#fefefe"/><stop offset=".04" stop-color="#fefefe"/><stop offset=".05" stop-color="#fefefe"/><stop offset=".06" stop-color="#fefefe"/><stop offset=".06" stop-color="#fefefe"/><stop offset=".07" stop-color="#fefefe"/><stop offset=".08" stop-color="#fdfdfd"/><stop offset=".09" stop-color="#fdfdfd"/><stop offset=".09" stop-color="#fdfdfd"/><stop offset=".1" stop-color="#fdfdfd"/><stop offset=".11" stop-color="#fcfcfc"/><stop offset=".12" stop-color="#fcfcfc"/><stop offset=".13" stop-color="#fcfcfc"/><stop offset=".13" stop-color="#fcfcfc"/><stop offset=".14" stop-color="#fbfbfb"/><stop offset=".15" stop-color="#fbfbfb"/><stop offset=".16" stop-color="#fbfbfb"/><stop offset=".17" stop-color="#fafafa"/><stop offset=".17" stop-color="#fafafa"/><stop offset=".18" stop-color="#f9f9f9"/><stop offset=".19" stop-color="#f9f9f9"/><stop offset=".2" stop-color="#f8f8f8"/><stop offset=".2" stop-color="#f8f8f8"/><stop offset=".21" stop-color="#f7f7f7"/><stop offset=".22" stop-color="#f7f7f7"/><stop offset=".23" stop-color="#f6f6f6"/><stop offset=".24" stop-color="#f6f6f6"/><stop offset=".24" stop-color="#f5f5f5"/><stop offset=".25" stop-color="#f5f5f5"/><stop offset=".26" stop-color="#f4f4f4"/><stop offset=".27" stop-color="#f4f4f4"/><stop offset=".28" stop-color="#f3f3f3"/><stop offset=".28" stop-color="#f2f2f2"/><stop offset=".29" stop-color="#f2f2f2"/><stop offset=".3" stop-color="#f1f1f1"/><stop offset=".31" stop-color="#f1f1f1"/><stop offset=".32" stop-color="#f0f0f0"/><stop offset=".32" stop-color="#efefef"/><stop offset=".33" stop-color="#eee"/><stop offset=".34" stop-color="#eee"/><stop offset=".35" stop-color="#ededed"/><stop offset=".35" stop-color="#ececec"/><stop offset=".36" stop-color="#ebebeb"/><stop offset=".37" stop-color="#ebebeb"/><stop offset=".38" stop-color="#eaeaea"/><stop offset=".39" stop-color="#e9e9e9"/><stop offset=".39" stop-color="#e8e8e8"/><stop offset=".4" stop-color="#e7e7e7"/><stop offset=".41" stop-color="#e7e7e7"/><stop offset=".42" stop-color="#e6e6e6"/><stop offset=".43" stop-color="#e5e5e5"/><stop offset=".43" stop-color="#e4e4e4"/><stop offset=".44" stop-color="#e3e3e3"/><stop offset=".45" stop-color="#e2e2e2"/><stop offset=".46" stop-color="#e1e1e1"/><stop offset=".46" stop-color="#e0e0e0"/><stop offset=".47" stop-color="#dfdfdf"/><stop offset=".48" stop-color="#dedede"/><stop offset=".49" stop-color="#ddd"/><stop offset=".5" stop-color="#dcdcdc"/><stop offset=".5" stop-color="#dbdbdb"/><stop offset=".51" stop-color="#dadada"/><stop offset=".52" stop-color="#d9d9d9"/><stop offset=".53" stop-color="#d8d8d8"/><stop offset=".54" stop-color="#d7d7d7"/><stop offset=".54" stop-color="#d6d6d6"/><stop offset=".55" stop-color="#d5d5d5"/><stop offset=".56" stop-color="#d3d3d3"/><stop offset=".57" stop-color="#d2d2d2"/><stop offset=".57" stop-color="#d1d1d1"/><stop offset=".58" stop-color="#d0d0d0"/><stop offset=".59" stop-color="#cfcfcf"/><stop offset=".6" stop-color="#cecece"/><stop offset=".61" stop-color="#ccc"/><stop offset=".61" stop-color="#cbcbcb"/><stop offset=".62" stop-color="#cacaca"/><stop offset=".63" stop-color="#c9c9c9"/><stop offset=".64" stop-color="#c7c7c7"/><stop offset=".65" stop-color="#c6c6c6"/><stop offset=".65" stop-color="#c5c5c5"/><stop offset=".66" stop-color="#c4c4c4"/><stop offset=".67" stop-color="#c2c2c2"/><stop offset=".68" stop-color="#c1c1c1"/><stop offset=".69" stop-color="silver"/><stop offset=".69" stop-color="#bebebe"/><stop offset=".7" stop-color="#bdbdbd"/><stop offset=".71" stop-color="#bbb"/><stop offset=".72" stop-color="#bababa"/><stop offset=".72" stop-color="#b9b9b9"/><stop offset=".73" stop-color="#b7b7b7"/><stop offset=".74" stop-color="#b6b6b6"/><stop offset=".75" stop-color="#b4b4b4"/><stop offset=".76" stop-color="#b3b3b3"/><stop offset=".76" stop-color="#b1b1b1"/><stop offset=".77" stop-color="#b0b0b0"/><stop offset=".78" stop-color="#aeaeae"/><stop offset=".79" stop-color="#adadad"/><stop offset=".8" stop-color="#ababab"/><stop offset=".8" stop-color="#aaa"/><stop offset=".81" stop-color="#a8a8a8"/><stop offset=".82" stop-color="#a6a6a6"/><stop offset=".83" stop-color="#a5a5a5"/><stop offset=".83" stop-color="#a3a3a3"/><stop offset=".84" stop-color="#a2a2a2"/><stop offset=".85" stop-color="#a0a0a0"/><stop offset=".86" stop-color="#9e9e9e"/><stop offset=".87" stop-color="#9d9d9d"/><stop offset=".87" stop-color="#9b9b9b"/><stop offset=".88" stop-color="#999"/><stop offset=".89" stop-color="#989898"/><stop offset=".9" stop-color="#969696"/><stop offset=".91" stop-color="#949494"/><stop offset=".91" stop-color="#929292"/><stop offset=".92" stop-color="#919191"/><stop offset=".93" stop-color="#8f8f8f"/><stop offset=".94" stop-color="#8d8d8d"/><stop offset=".94" stop-color="#8b8b8b"/><stop offset=".95" stop-color="#8a8a8a"/><stop offset=".96" stop-color="#888"/><stop offset=".97" stop-color="#868686"/><stop offset=".98" stop-color="#848484"/><stop offset=".98" stop-color="#828282"/><stop offset=".99" stop-color="gray"/><stop offset="1" stop-color="#7f7f7f"/></linearGradient><style>.cls-3{isolation:isolate}.cls-4{fill:#fff}.cls-5{fill:#bfbfbf}</style></defs><g id="Слой_2" data-name="Слой 2"><g id="Layer_1" data-name="Layer 1"><path d="M12.49 11l-3.75 4.3A5.41 5.41 0 007.18 19a5.26 5.26 0 1010.53 0 5.15 5.15 0 00-1.56-3.75zm0-11l8.83 10.22a12.49 12.49 0 11-17.66 0z" fill="url(#grad)"/><path d="M12.67.45v10.7l3.66 4.19A5.2 5.2 0 117.4 19a5 5 0 01.4-2l-.22.62a8.34 8.34 0 00-.4 2.63 8.86 8.86 0 0016.02 5.09l.49-.85.31-.67a12.15 12.15 0 00-2.63-13.43z" fill="url(#grad_2)"/><g class="cls-3"><path class="cls-4" d="M32.61 31.23V.58h4.82V21L47.6.58h5.09v30.65h-4.83v-20l-10.17 20zM57.86 31.23V.58h5v12h10v-12h5v30.65h-5V17.84h-10v13.39zM88.86 31.23V5.75h-7.45V.58h20v5.17h-7.47v25.48zM104.69 31.23V.58h4.82V21L119.68.58h5.09v30.65h-4.82v-20l-10.17 20z"/></g><g class="cls-3"><path class="cls-5" d="M.49 40.5h.76v6.07l3.34-6.07h.85v7.67h-.76v-6.06l-3.34 6.07H.49zM6.78 48.18V40.5h.85v3.17h3.26V40.5h.85v7.67h-.85v-3.61H7.63v3.61zM17.58 45.5l.85.27a3.28 3.28 0 01-1 1.92 2.56 2.56 0 01-1.7.62 2.31 2.31 0 01-1.47-.45 3.12 3.12 0 01-1-1.38 5.69 5.69 0 01-.4-2.23 5.1 5.1 0 01.4-2.14 3.25 3.25 0 011.07-1.34 2.53 2.53 0 011.52-.45 2.19 2.19 0 011.56.58 3.17 3.17 0 01.94 1.65l-.8.22c-.27-1.07-.85-1.61-1.7-1.61a1.69 1.69 0 00-1.07.31 2.09 2.09 0 00-.71 1 4.75 4.75 0 00-.27 1.74 4.21 4.21 0 00.54 2.36 1.68 1.68 0 001.47.8 1.62 1.62 0 001.19-.49 2.36 2.36 0 00.58-1.38zM21.05 48.18V41.4H19v-.9h5v.89h-2.1v6.78zM24.85 40.5h.76v6.07L29 40.5h.85v7.67H29v-6.06l-3.35 6.07h-.85V40.5zM32.74 48.18V41.4h-2.05v-.9h5v.89h-2.1v6.78zM35.86 40.5h.85l2.05 4.68 1.78-4.68h.85l-2.36 6a5.24 5.24 0 01-.76 1.5 1 1 0 01-.8.36 2 2 0 01-.8-.18v-.85a1 1 0 00.71.22.74.74 0 00.54-.22 3.46 3.46 0 00.49-1.07zM43.67 48.18V41.4h-2.05v-.9h5v.89h-2.1v6.78zM49.87 48.18V40.5h.85v3.17H54V40.5h.85v7.67H54v-3.61h-3.28v3.61zM56.21 48.18V40.5h4.55v.89h-3.7v2.36h3.48v.89h-3.49v2.59h3.84v.89h-4.68zM64.32 41.44v-.94h.76v.94a2.51 2.51 0 011.87.89 3.26 3.26 0 010 4 2.61 2.61 0 01-1.92.89v1h-.76v-1a2.63 2.63 0 01-1.87-.85 3.16 3.16 0 010-4.1 2.63 2.63 0 011.92-.83zm0 .85a1.74 1.74 0 00-1.25.58 2.13 2.13 0 00-.49 1.43 1.84 1.84 0 001.74 2zm.8 0v4a1.78 1.78 0 001.74-2 2 2 0 00-.45-1.43 1.85 1.85 0 00-1.28-.57zM70.35 48.18V41.4h-2.06v-.9h5v.89h-2.1v6.78zM74.09 48.18V40.5h4.55v.89h-3.7v2.36h3.48v.89h-3.48v2.59h3.84v.89h-4.69zM80 40.5h3.79v.89h-3v6.78h-.85V40.5zM84 48.18l2.41-7.67h.89l2.59 7.67h-.99l-.71-2.32h-2.63l-.67 2.32zM85.74 45h2.14l-.67-2.14a13.22 13.22 0 01-.45-1.61 8.84 8.84 0 01-.36 1.47zM90.15 46l.8-.27a2.45 2.45 0 00.49 1.12 1.3 1.3 0 001 .58A1.37 1.37 0 0093.9 46a1.34 1.34 0 00-.4-1 1.47 1.47 0 00-1.12-.36H92v-.89a4.23 4.23 0 00.89-.09.91.91 0 00.54-.4 1.17 1.17 0 00.22-.76 1.25 1.25 0 00-.31-.85 1.06 1.06 0 00-.89-.4 1.25 1.25 0 00-.8.27 1.7 1.7 0 00-.49.71A1.89 1.89 0 0091 43l-.8-.22c.18-1.61.94-2.45 2.23-2.45a1.88 1.88 0 011.47.62 2.14 2.14 0 01.54 1.47 1.87 1.87 0 01-.85 1.65 1.43 1.43 0 01.8.67 2.11 2.11 0 01.31 1.2 2.37 2.37 0 01-.62 1.65 2.15 2.15 0 01-1.65.67q-1.74.07-2.28-2.26zM95.55 44.43a4.72 4.72 0 01.85-3 2.64 2.64 0 013.66-.58 3.12 3.12 0 011.07 1.38 5.24 5.24 0 01.4 2.14 4.82 4.82 0 01-.76 2.77 2.7 2.7 0 01-4.46 0 4.48 4.48 0 01-.76-2.71zm.89 0a3.45 3.45 0 00.62 2.19 1.87 1.87 0 001.52.8 1.81 1.81 0 001.52-.8 3.78 3.78 0 00.62-2.32 4.54 4.54 0 00-.31-1.78 2 2 0 00-.76-.94 1.82 1.82 0 00-1.07-.36 1.89 1.89 0 00-1.56.8 3.91 3.91 0 00-.58 2.45zM102.6 48.18V40.5h2.4a2.46 2.46 0 011.12.22 1.5 1.5 0 01.67.71 2.09 2.09 0 010 2 1.61 1.61 0 01-.67.67 1.6 1.6 0 01.85.67 2 2 0 01.31 1.16 2.53 2.53 0 01-.27 1.2 1.56 1.56 0 01-.76.76 3.37 3.37 0 01-1.29.22h-2.36zm.85-4.46h1.38a2.65 2.65 0 00.76-.09.84.84 0 00.49-.36 1.13 1.13 0 00.18-.71 1.07 1.07 0 00-.18-.67.71.71 0 00-.45-.36 2.5 2.5 0 00-.94-.09h-1.25zm0 3.57H105a2.91 2.91 0 00.76-.09 1 1 0 00.54-.45 1.43 1.43 0 00.18-.8 1.22 1.22 0 00-.18-.71 1.19 1.19 0 00-.49-.45 2.61 2.61 0 00-.94-.13h-1.47v2.63zM108.53 40.5h.85v3.26h1.52a3.89 3.89 0 011.34.18 1.55 1.55 0 01.8.71 2.26 2.26 0 01.31 1.25 2.7 2.7 0 01-.49 1.56 2.16 2.16 0 01-1.87.67h-2.41V40.5zm.8 6.82h1.52A1.52 1.52 0 00112 47a1.43 1.43 0 00.36-1 1.54 1.54 0 00-.22-.8.8.8 0 00-.54-.4 6 6 0 00-1.16-.09h-1.12v2.63zm5.09.85V40.5h.85v7.67zM116.07 48.18l2.45-4-2.14-3.66h1l1.16 2a10.17 10.17 0 01.49.94c.13-.27.31-.58.49-.89l1.25-2.05h.89l-2.19 3.61 2.36 4.06h-1l-1.61-2.72a3 3 0 01-.27-.54 3.07 3.07 0 01-.31.58L117 48.13h-1z"/></g><g class="cls-3"><path class="cls-5" d="M2.1 61.11v-6.78H0v-.89h5v.89H2.9v6.78zM5.84 61.11v-7.67h4.55v.89h-3.7v2.37h3.48v.89H6.69v2.59h3.84v.89H5.84zM11.06 61.11l2.45-4-2.14-3.66h1l1.16 2a10.17 10.17 0 01.49.94c.13-.27.31-.58.49-.89l1.25-2.05h.89L14.45 57l2.36 4.06h-1l-1.61-2.72a3 3 0 01-.27-.54c-.13.27-.27.49-.31.58L12 61.07h-1zM17.53 61.11v-7.67h.85v3.17h3.26v-3.17h.85v7.67h-.85V57.5h-3.26v3.61zM23.64 57.37a4.72 4.72 0 01.85-3 2.64 2.64 0 013.66-.58 3.12 3.12 0 011.07 1.38 5.24 5.24 0 01.4 2.14 4.82 4.82 0 01-.76 2.69 2.7 2.7 0 01-4.46 0 4.48 4.48 0 01-.76-2.63zm.85 0a3.45 3.45 0 00.62 2.19 1.87 1.87 0 001.52.8 1.81 1.81 0 001.52-.8 3.78 3.78 0 00.62-2.32 4.54 4.54 0 00-.31-1.78 2 2 0 00-.76-.94 1.82 1.82 0 00-1.07-.36 1.89 1.89 0 00-1.56.8 3.91 3.91 0 00-.58 2.45zM31.18 53.44h3.93v7.67h-.85v-6.78H32v3.93a14.47 14.47 0 01-.11 1.74 1.5 1.5 0 01-.4.89 1 1 0 01-.76.31 2.2 2.2 0 01-.67-.13l.13-.89a.6.6 0 00.36.09A.43.43 0 0031 60a3.46 3.46 0 00.13-1.25v-5.31zM36.27 57.37a4.72 4.72 0 01.85-3 2.64 2.64 0 013.66-.58 3.12 3.12 0 011.07 1.38 5.24 5.24 0 01.4 2.14 4.82 4.82 0 01-.77 2.69A2.7 2.7 0 0137 60a4.18 4.18 0 01-.73-2.63zm.85 0a3.45 3.45 0 00.62 2.19 1.87 1.87 0 001.52.8 1.81 1.81 0 001.52-.8 3.78 3.78 0 00.62-2.32 4.54 4.54 0 00-.31-1.78 2 2 0 00-.76-.94 1.82 1.82 0 00-1.07-.36 1.89 1.89 0 00-1.56.8 3.91 3.91 0 00-.59 2.45zM43.31 53.44h3.79v.89h-2.94v6.78h-.85zM48 53.44h.76v6.07l3.35-6.07h.85v7.67h-.76V55l-3.35 6.07H48zM58.79 61.11h-.85V58a4.52 4.52 0 01-2 .49 2.09 2.09 0 01-1.16-.36 1.43 1.43 0 01-.67-.94 6.73 6.73 0 01-.11-1.48v-2.27h.85v2.14a2.9 2.9 0 00.31 1.61 1.1 1.1 0 001 .45 4.17 4.17 0 001.83-.49V53.4h.85zM60.18 61.11v-7.67h4.55v.89H61v2.37h3.5v.89H61v2.59h3.84v.89h-4.66zM70.48 58.44l.85.27a3.28 3.28 0 01-1 1.92 2.56 2.56 0 01-1.7.62 2.31 2.31 0 01-1.47-.45 3.12 3.12 0 01-1-1.38 5.69 5.69 0 01-.4-2.23 5.1 5.1 0 01.4-2.14 3.25 3.25 0 011.07-1.34 2.53 2.53 0 011.52-.45 2.19 2.19 0 011.56.58 3.17 3.17 0 01.94 1.65l-.8.22c-.27-1.07-.85-1.61-1.7-1.61a1.69 1.69 0 00-1.07.31 2.09 2.09 0 00-.71 1 4.75 4.75 0 00-.27 1.74 4.21 4.21 0 00.54 2.36 1.68 1.68 0 001.47.8 1.62 1.62 0 001.16-.49 2.36 2.36 0 00.61-1.38zM72.35 53.44h.85v3.35a1 1 0 00.8-.27 5.27 5.27 0 00.58-1.29c.18-.54.36-.89.45-1.12a1 1 0 01.49-.49 1.6 1.6 0 01.85-.18h.31v.89h-.36a.71.71 0 00-.54.18 3.07 3.07 0 00-.49 1 5.46 5.46 0 01-.54 1.2 1.22 1.22 0 01-.54.4c.4.13.8.58 1.2 1.38l1.29 2.54h-1l-1-2.1a3.69 3.69 0 00-.8-1.25.88.88 0 00-.62-.27h-.09V61h-.85v-7.56zM77.48 53.44h.76v6.07l3.35-6.07h.85v7.67h-.76V55l-3.35 6.07h-.85zM83.15 61.11l2.45-4-2.14-3.66h1l1.16 2a10.17 10.17 0 01.49.94c.13-.27.31-.58.49-.89l1.25-2.05h.89L86.54 57l2.36 4.06h-1l-1.61-2.72a3 3 0 01-.27-.54 3.07 3.07 0 01-.31.58l-1.56 2.68h-1zM92.07 53.44h.76v6.07l3.35-6.07H97v7.67h-.76V55l-3.35 6.07h-.85zM98.36 61.11v-7.67h.85v3.17h3.26v-3.17h.85v7.67h-.85V57.5h-3.26v3.61zM104.74 53.44h.76v6.07l3.35-6.07h.85v7.67h-.76V55l-3.35 6.07h-.85zM111 53.44h.85v6.78h3.26v-6.78h.89v6.78h.58v3h-.76v-2.11H111zM117.54 53.44h.76v6.07l3.35-6.07h.85v7.67h-.76V55l-3.35 6.07h-.85zM123.16 61.11l2.41-7.67h.89l2.54 7.67h-.94l-.71-2.32h-2.63l-.72 2.32zm1.78-3.17h2.14l-.67-2.14a13.22 13.22 0 01-.41-1.6 8.84 8.84 0 01-.36 1.47zM131.28 61.11v-6.78h-2.05v-.89h5v.89h-2.1v6.78zM135.07 53.44h.76v6.07l3.35-6.07h.82v7.67h-.76V55l-3.35 6.07h-.85zM141.32 61.11v-7.67h2.36a2.46 2.46 0 011.12.22 1.5 1.5 0 01.67.71 2.09 2.09 0 010 2 1.61 1.61 0 01-.67.67 1.6 1.6 0 01.85.67 2 2 0 01.31 1.16 2.53 2.53 0 01-.27 1.2 1.56 1.56 0 01-.76.76 3.37 3.37 0 01-1.29.22h-2.36zm.85-4.46h1.38a2.65 2.65 0 00.76-.09.84.84 0 00.49-.36 1.13 1.13 0 00.18-.71 1.07 1.07 0 00-.18-.67.71.71 0 00-.45-.36 2.5 2.5 0 00-.94-.09h-1.25zm0 3.57h1.56a2.91 2.91 0 00.76-.09 1 1 0 00.54-.45 1.43 1.43 0 00.18-.8 1.22 1.22 0 00-.18-.71 1.19 1.19 0 00-.49-.45 2.61 2.61 0 00-.94-.13h-1.47v2.63z"/></g></g></g></svg>