<svg width="86" height="35" viewBox="0 0 86 35" fill="none" xmlns="http://www.w3.org/2000/svg">
<path d="M35.0506 28.8026H31.1504V7.2207H35.0506V28.8026Z" fill="white"/>
<path d="M57.8253 28.8026H53.8554L43.8263 13.4663V28.8026H39.8564V7.2207H43.8263L53.9251 22.6265V7.2207H57.8253V28.8026Z" fill="white"/>
<path d="M78.3707 10.2741H71.3364V28.872H67.4362V10.2741H60.4019V7.2207H78.3707V10.2741V10.2741Z" fill="white"/>
<path d="M85.4749 28.8026H81.5747V7.2207H85.4749V28.8026Z" fill="white"/>
<path d="M14.5045 6.11076H14.226C11.858 5.69439 9.42034 6.04137 7.26129 7.0129C5.10225 8.05383 3.29143 9.71932 2.10744 11.8012C0.92345 13.883 0.366278 16.3119 0.644864 18.6713C0.853804 21.0308 1.82886 23.3208 3.43073 25.1251C4.54508 26.4436 5.86836 27.4151 7.40058 28.1785C8.93281 28.8724 10.6043 29.2194 12.2758 29.2194H12.6937C15.1314 29.15 17.4993 28.2479 19.4495 26.6518C21.121 25.3333 22.3746 23.5984 23.1407 21.6553C23.7675 20.0592 24.0461 18.3937 23.9068 16.6589C23.7675 14.9934 23.28 13.3279 22.5139 11.8012C21.6781 10.3439 20.5638 9.02536 19.1709 8.05383C17.7779 7.15169 16.1761 6.45774 14.5045 6.11076ZM7.81847 17.2834C7.95776 16.0343 8.37564 14.8546 9.0721 13.8136C9.2114 13.6055 9.35069 13.3973 9.42034 13.2585C9.76857 12.7727 10.1168 12.2176 10.465 11.7318C10.6043 11.593 10.674 11.3848 10.8133 11.246L10.9526 10.9684C10.9526 10.899 11.0919 10.7602 11.1615 10.6909C11.5097 10.2745 11.7883 9.78871 12.0669 9.44174L12.2062 9.23355C13.5295 11.246 16.5939 14.7852 16.5939 17.2834C16.5939 18.0468 16.385 18.8795 15.9671 19.5041C15.5492 20.1286 14.9921 20.7532 14.2956 21.1002C13.5991 21.4471 12.833 21.6553 11.9973 21.6553C11.2312 21.6553 10.465 21.3777 9.76857 20.9614C9.69892 20.892 9.62928 20.892 9.55963 20.8226C9.35069 20.6838 9.2114 20.545 9.0721 20.4062L9.00246 20.3368C8.23635 19.5041 7.81847 18.3937 7.81847 17.2834Z" fill="#E3F0FF"/>
<path fill-rule="evenodd" clip-rule="evenodd" d="M23.1412 21.7255C22.3054 23.8768 20.9125 25.681 19.032 26.9996C17.1515 28.3181 14.9925 29.0814 12.6942 29.1508H12.2763C10.6048 29.1508 8.93323 28.8038 7.40101 28.1099C5.86878 27.4159 4.47585 26.375 3.43115 25.0565L5.72949 15.4105L9.14217 13.8145C8.44571 14.8554 7.95818 16.0351 7.88854 17.3536C7.88854 18.4639 8.30642 19.5743 9.07253 20.3376C9.769 21.3785 10.6744 22.3501 11.7191 22.9746C12.7638 23.6686 14.0174 24.085 15.2711 24.2931C17.9873 24.5707 22.2357 23.5298 23.1412 21.7255Z" fill="#99C8FF"/>
<path d="M12.6941 29.1508H12.2763C10.6744 29.1508 9.07252 28.8038 7.54029 28.1793C6.07771 27.5547 4.68478 26.5832 3.57044 25.4034C2.45609 24.2237 1.62033 22.8358 1.1328 21.2397C0.57563 19.713 0.436338 18.0475 0.575631 16.4514C0.714924 14.8554 1.20245 13.2593 1.96856 11.8714C2.73468 10.4834 3.84902 9.23433 5.10266 8.1934C6.3563 7.15247 7.88852 6.52791 9.4904 6.11154C11.0923 5.69517 12.6941 5.69517 14.296 5.97275H14.5746L12.2763 9.02615L12.137 9.23433C11.928 9.44252 11.6494 9.92829 11.2316 10.4834C11.2316 10.5528 11.0923 10.6222 11.0226 10.761L10.8833 10.9692C10.744 11.108 10.6744 11.3162 10.5351 11.455C10.1869 11.9408 9.83863 12.4959 9.4904 12.9817C9.3511 13.1899 9.21181 13.3287 9.14216 13.5368C6.14736 18.2557 7.05276 25.2647 11.8584 28.5262C12.0673 28.8732 12.3459 29.012 12.6941 29.1508Z" fill="#2B8CFF"/>
</svg>
