<svg id="Layer_1" data-name="Layer 1" xmlns="http://www.w3.org/2000/svg" xmlns:xlink="http://www.w3.org/1999/xlink" viewBox="0 0 329 141"><defs><style>.cls-1{fill:url(#Безымянный_градиент);}.cls-2{fill:url(#Безымянный_градиент_2);}.cls-3{isolation:isolate;}.cls-4{fill:#262626;}.cls-5{fill:#3875d2;}</style><linearGradient id="Безымянный_градиент" x1="1223" y1="618" x2="1168" y2="618" gradientTransform="translate(-1166 -582)" gradientUnits="userSpaceOnUse"><stop offset="0" stop-color="#213b69"/><stop offset="0.34" stop-color="#213b69"/><stop offset="1" stop-color="#3875d2"/></linearGradient><linearGradient id="Безымянный_градиент_2" x1="-540" y1="301.5" x2="-580" y2="301.5" gradientTransform="matrix(-1, 0, 0, 1, -523, -268)" gradientUnits="userSpaceOnUse"><stop offset="0" stop-color="#00b0f0"/><stop offset="0.3" stop-color="#00b0f0"/><stop offset="1" stop-color="#2e75b6"/></linearGradient></defs><title>Монтажная область 1</title><path class="cls-1" d="M29.5,25.27,21.29,34.8a11.61,11.61,0,1,0,16.42,0ZM29.5,1,48.95,23.58A27.84,27.84,0,0,1,29.5,71,27.84,27.84,0,0,1,10.05,23.58Z"/><path class="cls-2" d="M29.39,1V25.38l8.2,9.5a11.69,11.69,0,1,1-19,3.74v0h-.14l-.53,1.47A20.13,20.13,0,0,0,17,46,19.79,19.79,0,0,0,53,57.58l1.13-1.89.71-1.49a28.11,28.11,0,0,0-5.93-30.59Z"/><g class="cls-3"><path class="cls-4" d="M74.12,71V2.28H84.95v45.8l22.83-45.8h11.39V71H108.34V26.19L85.54,71Z"/><path class="cls-4" d="M130.75,71V2.28h11.34v27h22.36v-27h11.34V71H164.45V41H142.09V71Z"/><path class="cls-4" d="M200.22,71V13.91H183.48V2.28h44.77V13.91H211.56V71Z"/><path class="cls-4" d="M235.65,71V2.28h10.83v45.8l22.83-45.8H280.7V71H269.87V26.19L247.07,71Z"/></g><g class="cls-3"><path class="cls-5" d="M1.6,88.82H3.29v13.63l7.5-13.63h1.88V106H11V92.4L3.46,106H1.6Z"/><path class="cls-5" d="M15.71,106V88.82h1.86v7.05H24.9V88.82h1.86V106H24.9V97.9H17.57V106Z"/><path class="cls-5" d="M39.92,100l1.88.57a8,8,0,0,1-2.17,4.32,5.39,5.39,0,0,1-3.78,1.42,5.75,5.75,0,0,1-3.35-1,6.75,6.75,0,0,1-2.27-3.07,12.85,12.85,0,0,1-.89-5,11.64,11.64,0,0,1,.89-4.8,6.78,6.78,0,0,1,2.4-3,6,6,0,0,1,3.38-1,5.18,5.18,0,0,1,3.51,1.27,6.87,6.87,0,0,1,2.05,3.72L39.73,94q-.94-3.57-3.77-3.57a4.15,4.15,0,0,0-2.44.72,4.85,4.85,0,0,0-1.65,2.25,10.38,10.38,0,0,0-.62,3.86,9.22,9.22,0,0,0,1.24,5.3,3.85,3.85,0,0,0,3.3,1.77,3.63,3.63,0,0,0,2.63-1.08A5.86,5.86,0,0,0,39.92,100Z"/><path class="cls-5" d="M47.74,106V90.85H43.1v-2H54.26v2H49.6V106Z"/><path class="cls-5" d="M56.17,88.82h1.69v13.63l7.5-13.63h1.88V106H65.55V92.4L58,106H56.17Z"/><path class="cls-5" d="M73.9,106V90.85H69.26v-2H80.43v2H75.77V106Z"/><path class="cls-5" d="M80.89,88.82h1.88l4.61,10.52,4-10.52h1.86L88,102.18a13.85,13.85,0,0,1-1.66,3.3,2.17,2.17,0,0,1-1.75.75,5.07,5.07,0,0,1-1.8-.41v-1.95a2.7,2.7,0,0,0,1.58.53,1.56,1.56,0,0,0,1.18-.53,7.26,7.26,0,0,0,1.09-2.44Z"/><path class="cls-5" d="M98.42,106V90.85H93.78v-2h11.17v2h-4.66V106Z"/><path class="cls-5" d="M112.29,106V88.82h1.86v7.05h7.32V88.82h1.86V106h-1.86V97.9h-7.32V106Z"/><path class="cls-5" d="M126.54,106V88.82h10.18v2h-8.32V96.1h7.79v2h-7.79V104h8.65v2Z"/><path class="cls-5" d="M144.72,90.88V88.82h1.75v2.06a5.89,5.89,0,0,1,4.25,2,6.57,6.57,0,0,1,1.56,4.48,6.63,6.63,0,0,1-1.55,4.48,5.86,5.86,0,0,1-4.27,2V106h-1.75v-2.21a5.92,5.92,0,0,1-4.17-1.86,7.2,7.2,0,0,1,0-9.19A5.93,5.93,0,0,1,144.72,90.88Zm0,1.95a4,4,0,0,0-2.82,1.26,5.39,5.39,0,0,0,0,6.47,3.92,3.92,0,0,0,2.82,1.26Zm1.75,0v9a4.23,4.23,0,0,0,2.81-1.23,4.49,4.49,0,0,0,1.08-3.27,4.69,4.69,0,0,0-1-3.21A4,4,0,0,0,146.47,92.82Z"/><path class="cls-5" d="M158.2,106V90.85h-4.64v-2h11.17v2h-4.66V106Z"/><path class="cls-5" d="M166.65,106V88.82h10.18v2h-8.32V96.1h7.79v2h-7.79V104h8.65v2Z"/><path class="cls-5" d="M179.76,88.82h8.54v2h-6.68V106h-1.86V88.82Z"/><path class="cls-5" d="M188.7,106l5.43-17.18h2L201.9,106h-2.13l-1.64-5.2H192.2l-1.53,5.2Zm4-7.05h4.8l-1.47-4.76q-.68-2.19-1-3.56a25.33,25.33,0,0,1-.77,3.28Z"/><path class="cls-5" d="M202.6,101.15l1.78-.56a6,6,0,0,0,1.07,2.5,2.72,2.72,0,0,0,2.34,1.27,3.06,3.06,0,0,0,3.19-3.17,2.93,2.93,0,0,0-.91-2.27,3.49,3.49,0,0,0-2.46-.83h-.89v-2a8.13,8.13,0,0,0,2-.18,2.27,2.27,0,0,0,1.21-.91,2.8,2.8,0,0,0,.54-1.72,3,3,0,0,0-.69-1.92,2.37,2.37,0,0,0-2-.87,2.7,2.7,0,0,0-1.75.59,3.35,3.35,0,0,0-1.07,1.63,5.92,5.92,0,0,0-.33,1.75L202.83,94q.66-5.47,5-5.47a4.08,4.08,0,0,1,3.28,1.41,4.88,4.88,0,0,1,1.2,3.27,4.37,4.37,0,0,1-1.85,3.73,3.45,3.45,0,0,1,1.8,1.48,4.84,4.84,0,0,1,.72,2.69,5.17,5.17,0,0,1-1.42,3.73,4.91,4.91,0,0,1-3.71,1.48Q203.8,106.29,202.6,101.15Z"/><path class="cls-5" d="M214.73,97.63q0-4.39,1.93-6.76a6,6,0,0,1,4.82-2.36,5.87,5.87,0,0,1,3.4,1.05,7.13,7.13,0,0,1,2.43,3.06,11.68,11.68,0,0,1,.9,4.79,10.38,10.38,0,0,1-1.73,6.22,6,6,0,0,1-10-.07A10.1,10.1,0,0,1,214.73,97.63Zm1.92,0a7.72,7.72,0,0,0,1.4,4.93,4.2,4.2,0,0,0,6.84,0,8.31,8.31,0,0,0,1.39-5.21,10.38,10.38,0,0,0-.72-4,4.88,4.88,0,0,0-1.66-2.14,4,4,0,0,0-2.42-.8A4.22,4.22,0,0,0,218,92.22Q216.65,94,216.65,97.66Z"/><path class="cls-5" d="M230.5,106V88.82h5.29a5.47,5.47,0,0,1,2.55.5,3.84,3.84,0,0,1,1.54,1.55,4.65,4.65,0,0,1,.6,2.33,4.39,4.39,0,0,1-.52,2.13,4,4,0,0,1-1.45,1.52,3.81,3.81,0,0,1,1.93,1.52,4.71,4.71,0,0,1,.71,2.64,5.65,5.65,0,0,1-.64,2.74,3.94,3.94,0,0,1-1.71,1.71,6.64,6.64,0,0,1-2.93.53Zm1.86-10h3.05a6.17,6.17,0,0,0,1.7-.16,2.13,2.13,0,0,0,1.12-.83,2.77,2.77,0,0,0,.39-1.58,3,3,0,0,0-.36-1.54,1.9,1.9,0,0,0-1-.85,6.57,6.57,0,0,0-2.13-.23h-2.83V96Zm0,7.93h3.51a5.14,5.14,0,0,0,1.71-.21,2.34,2.34,0,0,0,1.22-1,3.38,3.38,0,0,0,.42-1.75,3.19,3.19,0,0,0-.4-1.65,2.39,2.39,0,0,0-1.07-1,5.38,5.38,0,0,0-2.12-.31h-3.26V104Z"/><path class="cls-5" d="M243.76,88.82h1.86v7.34H249a8.24,8.24,0,0,1,3,.43,3.5,3.5,0,0,1,1.77,1.62,5.61,5.61,0,0,1,.67,2.8,5.73,5.73,0,0,1-1.11,3.49q-1.11,1.51-4.15,1.51h-5.35V88.82Zm1.86,15.25H249a3.77,3.77,0,0,0,2.54-.71,3,3,0,0,0,.8-2.35,3.08,3.08,0,0,0-.47-1.77,2.17,2.17,0,0,0-1.21-.91,10.67,10.67,0,0,0-2.57-.21h-2.5ZM257,106V88.82h1.86V106Z"/><path class="cls-5" d="M260.65,106l5.46-9-4.81-8.22h2.22l2.58,4.4a20.54,20.54,0,0,1,1.12,2.12,20.62,20.62,0,0,1,1.12-2l2.85-4.56h2l-4.94,8.08,5.32,9.1h-2.3l-3.56-6.13q-.3-.51-.6-1.15-.48.94-.69,1.29l-3.53,6Z"/></g><g class="cls-3"><path class="cls-5" d="M5.19,135V119.85H.54v-2H11.71v2H7V135Z"/><path class="cls-5" d="M13.64,135V117.82H23.82v2H15.5v5.25h7.79v2H15.5V133h8.65v2Z"/><path class="cls-5" d="M25.29,135l5.46-9-4.81-8.22h2.22l2.58,4.4a20.54,20.54,0,0,1,1.12,2.12,20.62,20.62,0,0,1,1.12-2l2.85-4.56h2l-4.94,8.08,5.32,9.1h-2.3l-3.56-6.13q-.3-.51-.6-1.15-.48.94-.69,1.29l-3.53,6Z"/><path class="cls-5" d="M39.84,135V117.82H41.7v7.05H49v-7.05h1.86V135H49v-8.1H41.7V135Z"/><path class="cls-5" d="M53.53,126.63q0-4.39,1.93-6.76a6,6,0,0,1,4.82-2.36,5.87,5.87,0,0,1,3.4,1.05,7.13,7.13,0,0,1,2.43,3.06,11.68,11.68,0,0,1,.9,4.79,10.38,10.38,0,0,1-1.73,6.22,6,6,0,0,1-10-.07A10.11,10.11,0,0,1,53.53,126.63Zm1.92,0a7.72,7.72,0,0,0,1.4,4.93,4.2,4.2,0,0,0,6.84,0,8.31,8.31,0,0,0,1.39-5.21,10.38,10.38,0,0,0-.72-4,4.88,4.88,0,0,0-1.66-2.14,4,4,0,0,0-2.42-.8,4.22,4.22,0,0,0-3.47,1.76Q55.44,123,55.45,126.66Z"/><path class="cls-5" d="M70.39,117.82h8.82V135H77.35V119.85h-5.1v8.85A26.87,26.87,0,0,1,72,132.6a3.64,3.64,0,0,1-.88,2,2.2,2.2,0,0,1-1.66.71A4.73,4.73,0,0,1,68,135l.32-2a1.79,1.79,0,0,0,.78.23,1,1,0,0,0,.95-.56,6.89,6.89,0,0,0,.33-2.75V117.82Z"/><path class="cls-5" d="M81.76,126.63q0-4.39,1.93-6.76a6,6,0,0,1,4.82-2.36,5.87,5.87,0,0,1,3.4,1.05,7.13,7.13,0,0,1,2.43,3.06,11.68,11.68,0,0,1,.9,4.79,10.38,10.38,0,0,1-1.73,6.22,6,6,0,0,1-10-.07A10.1,10.1,0,0,1,81.76,126.63Zm1.92,0a7.72,7.72,0,0,0,1.4,4.93,4.2,4.2,0,0,0,6.84,0,8.31,8.31,0,0,0,1.39-5.21,10.38,10.38,0,0,0-.72-4,4.88,4.88,0,0,0-1.66-2.14,4,4,0,0,0-2.42-.8A4.22,4.22,0,0,0,85,121.22Q83.68,123,83.68,126.66Z"/><path class="cls-5" d="M97.62,117.82h8.54v2H99.49V135H97.62V117.82Z"/><path class="cls-5" d="M108.14,117.82h1.69v13.63l7.5-13.63h1.88V135h-1.69V121.4L110,135h-1.86Z"/><path class="cls-5" d="M132.31,135h-1.86v-6.93a10.92,10.92,0,0,1-4.4,1.14,4.24,4.24,0,0,1-2.56-.81,4,4,0,0,1-1.52-2.1,11.91,11.91,0,0,1-.4-3.43v-5.05h1.86v4.84a6.42,6.42,0,0,0,.73,3.55,2.47,2.47,0,0,0,2.16,1,9.41,9.41,0,0,0,4.13-1.07v-8.36h1.86V135Z"/><path class="cls-5" d="M135.42,135V117.82H145.6v2h-8.32v5.25h7.79v2h-7.79V133h8.65v2Z"/><path class="cls-5" d="M158.5,129l1.88.57a8,8,0,0,1-2.17,4.32,5.39,5.39,0,0,1-3.78,1.42,5.75,5.75,0,0,1-3.35-1,6.75,6.75,0,0,1-2.27-3.07,12.85,12.85,0,0,1-.89-5,11.64,11.64,0,0,1,.89-4.8,6.78,6.78,0,0,1,2.4-3,6,6,0,0,1,3.38-1,5.18,5.18,0,0,1,3.51,1.27,6.87,6.87,0,0,1,2.05,3.72l-1.83.53q-.94-3.57-3.77-3.57a4.15,4.15,0,0,0-2.44.72,4.85,4.85,0,0,0-1.65,2.25,10.38,10.38,0,0,0-.62,3.86,9.22,9.22,0,0,0,1.24,5.3,3.85,3.85,0,0,0,3.3,1.77,3.63,3.63,0,0,0,2.63-1.08A5.86,5.86,0,0,0,158.5,129Z"/><path class="cls-5" d="M162.73,117.82h1.86v7.52a2.27,2.27,0,0,0,1.8-.6,11.07,11.07,0,0,0,1.33-2.91,16.54,16.54,0,0,1,1-2.52,3,3,0,0,1,1.11-1.13,3.75,3.75,0,0,1,1.88-.4c.23,0,.46,0,.69,0v2h-.8a1.64,1.64,0,0,0-1.21.44,7,7,0,0,0-1.08,2.34,9.81,9.81,0,0,1-1.18,2.71,3.56,3.56,0,0,1-1.2.94q1.37.46,2.7,3.07l2.9,5.72h-2.31l-2.35-4.67a10.45,10.45,0,0,0-1.78-2.8,2.06,2.06,0,0,0-1.35-.58h-.19v8h-1.86V117.82Z"/><path class="cls-5" d="M174.18,117.82h1.69v13.63l7.5-13.63h1.88V135h-1.69V121.4L176,135h-1.86Z"/><path class="cls-5" d="M186.87,135l5.46-9-4.81-8.22h2.22l2.58,4.4a20.54,20.54,0,0,1,1.12,2.12,20.62,20.62,0,0,1,1.12-2l2.85-4.56h2l-4.94,8.08,5.32,9.1h-2.3l-3.56-6.13q-.3-.51-.6-1.15-.48.94-.69,1.29l-3.53,6Z"/><path class="cls-5" d="M206.92,117.82h1.69v13.63l7.5-13.63H218V135H216.3V121.4L208.79,135h-1.86Z"/><path class="cls-5" d="M221,135V117.82h1.86v7.05h7.32v-7.05h1.86V135h-1.86v-8.1H222.9V135Z"/><path class="cls-5" d="M235.27,117.82H237v13.63l7.5-13.63h1.88V135h-1.69V121.4L237.14,135h-1.86V117.82Z"/><path class="cls-5" d="M249.4,117.82h1.86V133h7.35V117.82h1.86V133h1.29v6.8h-1.65V135H249.4Z"/><path class="cls-5" d="M264,117.82h1.69v13.63l7.5-13.63H275V135h-1.69V121.4L265.85,135H264V117.82Z"/><path class="cls-5" d="M276.56,135,282,117.82h2L289.75,135h-2.13L286,129.8h-5.93l-1.53,5.2Zm4-7.05h4.8l-1.47-4.76q-.68-2.19-1-3.56a25.33,25.33,0,0,1-.77,3.28Z"/><path class="cls-5" d="M294.84,135V119.85H290.2v-2h11.17v2H296.7V135Z"/><path class="cls-5" d="M303.28,117.82H305v13.63l7.5-13.63h1.88V135h-1.69V121.4L305.14,135h-1.86V117.82Z"/><path class="cls-5" d="M317.33,135V117.82h5.29a5.47,5.47,0,0,1,2.55.5,3.84,3.84,0,0,1,1.54,1.55,4.65,4.65,0,0,1,.6,2.33,4.39,4.39,0,0,1-.52,2.13,4,4,0,0,1-1.45,1.52,3.81,3.81,0,0,1,1.93,1.52A4.71,4.71,0,0,1,328,130a5.65,5.65,0,0,1-.64,2.74,3.94,3.94,0,0,1-1.71,1.71,6.64,6.64,0,0,1-2.93.53Zm1.86-10h3.05a6.17,6.17,0,0,0,1.7-.16,2.13,2.13,0,0,0,1.12-.83,2.77,2.77,0,0,0,.39-1.58,3,3,0,0,0-.36-1.54,1.9,1.9,0,0,0-1-.85,6.57,6.57,0,0,0-2.13-.23h-2.83V125Zm0,7.93h3.51a5.14,5.14,0,0,0,1.71-.21,2.34,2.34,0,0,0,1.22-1A3.38,3.38,0,0,0,326,130a3.19,3.19,0,0,0-.4-1.65,2.39,2.39,0,0,0-1.07-1,5.38,5.38,0,0,0-2.12-.31h-3.26V133Z"/></g></svg>