<svg width="100" height="30" viewBox="0 0 100 30" fill="none" xmlns="http://www.w3.org/2000/svg">
<path d="M45.718 26.2327H41.5967V3.32788H45.718V26.2327Z" fill="white"/>
<path d="M69.7828 26.2325H65.5879L54.9903 9.95605V26.2325H50.7954V3.32764H54.9903L65.6615 19.6777V3.32764H69.7828V26.2325Z" fill="white"/>
<path d="M91.4932 6.56819H84.0602V26.3061H79.9389V6.56819H72.5059V3.32764H91.4932V6.56819Z" fill="white"/>
<path d="M99.0002 26.2325H94.8789V3.32764H99.0002V26.2325Z" fill="white"/>
<path fill-rule="evenodd" clip-rule="evenodd" d="M14.9764 29.9749C23.2476 29.9749 29.9527 23.2648 29.9527 14.9875C29.9527 6.71011 23.2476 0 14.9764 0C6.70514 0 0 6.71011 0 14.9875C0 23.2648 6.70514 29.9749 14.9764 29.9749ZM14.9767 20.8999C17.8856 20.8999 20.2436 18.3778 20.2436 15.2666C20.2436 12.1554 14.9767 5.40827 14.9767 5.40827C14.9767 5.40827 9.7098 12.1554 9.7098 15.2666C9.7098 18.3778 12.0679 20.8999 14.9767 20.8999Z" fill="#E3F0FF"/>
<path fill-rule="evenodd" clip-rule="evenodd" d="M16.1672 20.8495C20.6949 20.8495 24.3653 16.9237 24.3653 12.0811C24.3653 9.10426 21.2675 3.98888 18.8804 0.489019C25.3057 2.17604 30.0455 8.02751 30.0455 14.9868C30.0455 23.2642 23.3403 29.9743 15.0691 29.9743C6.79792 29.9743 0.0927734 23.2642 0.0927734 14.9868C0.0927734 7.15399 6.09712 0.724568 13.751 0.0566406C11.3328 3.55519 7.96916 8.97917 7.96916 12.0811C7.96916 14.883 9.19791 17.378 11.1105 18.9832C12.0758 20.158 13.491 20.8994 15.0681 20.8994C15.3245 20.8994 15.5766 20.8798 15.8232 20.8419C15.9373 20.8469 16.052 20.8495 16.1672 20.8495Z" fill="#E3F0FF"/>
<path fill-rule="evenodd" clip-rule="evenodd" d="M17.7548 0.257427C16.8545 0.0884008 15.9257 0 14.9764 0C6.70514 0 0 6.71011 0 14.9875C0 23.2648 6.70514 29.9749 14.9764 29.9749C21.916 29.9749 27.7532 25.2514 29.4528 18.8419C27.3138 21.5472 24.004 23.283 20.2891 23.283C16.6481 23.283 13.1627 21.7203 11.3036 19.3039C10.3205 18.2805 9.7098 16.8498 9.7098 15.2666C9.7098 14.4639 10.0604 13.4191 10.5807 12.3107C10.6383 6.83776 13.0437 1.62878 17.7548 0.257427Z" fill="#99C8FF"/>
<path fill-rule="evenodd" clip-rule="evenodd" d="M18.9252 0.526463C17.6671 0.183224 16.3431 0 14.9764 0C6.70514 0 0 6.71011 0 14.9875C0 23.2648 6.70514 29.9749 14.9764 29.9749C16.0732 29.9749 17.1425 29.8569 18.1723 29.6329C13.064 28.0944 9.34299 23.3507 9.34299 17.7373C9.34299 16.2355 9.6093 14.796 10.0972 13.4635C10.5364 12.2494 11.2945 10.8621 12.0839 9.58479C12.9192 8.21978 13.9851 6.63548 14.9767 5.40821C16.4751 3.55363 17.8332 1.87508 18.9252 0.526463Z" fill="#2B8CFF"/>
</svg>
