<svg width="125" height="37" viewBox="0 0 125 37" fill="none" xmlns="http://www.w3.org/2000/svg">
<path d="M55.3752 32.8737H50V3H55.3752V32.8737Z" fill="#0B233A"/>
<path d="M86.7619 32.8737H81.2907L67.4687 11.6451V32.8737H61.9976V3H67.4687L81.3867 24.3246V3H86.7619V32.8737Z" fill="#0B233A"/>
<path d="M115.078 7.22649H105.383V32.9697H100.008V7.22649H90.3135V3H115.078V7.22649Z" fill="#0B233A"/>
<path d="M124.868 32.8737H119.493V3H124.868V32.8737Z" fill="#0B233A"/>
<path fill-rule="evenodd" clip-rule="evenodd" d="M18.0019 36.0305C27.9441 36.0305 36.0038 27.9648 36.0038 18.0152C36.0038 8.0657 27.9441 0 18.0019 0C8.05972 0 0 8.0657 0 18.0152C0 27.9648 8.05972 36.0305 18.0019 36.0305ZM18.0022 25.1222C21.4987 25.1222 24.3332 22.0905 24.3332 18.3508C24.3332 14.6111 18.0022 6.50092 18.0022 6.50092C18.0022 6.50092 11.6713 14.6111 11.6713 18.3508C11.6713 22.0905 14.5057 25.1222 18.0022 25.1222Z" fill="#99C8FF"/>
<path fill-rule="evenodd" clip-rule="evenodd" d="M19.4333 25.0615C24.8757 25.0615 29.2876 20.3427 29.2876 14.5217C29.2876 10.9437 25.5644 4.79551 22.6951 0.58862C30.4176 2.61704 36.1141 9.65021 36.1141 18.0149C36.1141 27.9644 28.0544 36.0301 18.1122 36.0301C8.17007 36.0301 0.110352 27.9644 0.110352 18.0149C0.110352 8.59929 7.32819 0.870787 16.5287 0.0683594C13.6221 4.2737 9.57908 10.7932 9.57908 14.5217C9.57908 17.8889 11.0554 20.8874 13.3535 22.8169C14.5138 24.2299 16.2155 25.1218 18.112 25.1218C18.4208 25.1218 18.7245 25.0981 19.0215 25.0524C19.1581 25.0584 19.2954 25.0615 19.4333 25.0615Z" fill="#99C8FF"/>
<path fill-rule="evenodd" clip-rule="evenodd" d="M21.3423 0.309552C20.2598 0.106302 19.1433 0 18.0019 0C8.05972 0 0 8.0657 0 18.0152C0 27.9648 8.05972 36.0305 18.0019 36.0305C26.3432 36.0305 33.3594 30.3531 35.4027 22.6491C32.8315 25.9007 28.8532 27.9869 24.3881 27.9869C20.0119 27.9869 15.8227 26.1088 13.5879 23.2046C12.4056 21.9744 11.6713 20.2543 11.6713 18.3508C11.6713 17.3858 12.0929 16.1297 12.7184 14.7971C12.7879 8.21867 15.6794 1.95768 21.3423 0.309552Z" fill="#2B8CFF"/>
<path fill-rule="evenodd" clip-rule="evenodd" d="M22.7484 0.632798C21.2362 0.220231 19.6447 0 18.0019 0C8.05972 0 0 8.0657 0 18.0152C0 27.9648 8.05972 36.0305 18.0019 36.0305C19.3203 36.0305 20.6055 35.8886 21.8433 35.6194C15.7032 33.77 11.2307 28.0681 11.2307 21.3207C11.2307 19.5433 11.5411 17.8384 12.1105 16.2573C12.6331 14.7834 13.5566 13.0889 14.5196 11.53C15.5244 9.88726 16.808 7.97874 18.0021 6.50091C19.8032 4.2716 21.4358 2.25389 22.7484 0.632798Z" fill="#0E2D4A"/>
</svg>
