<svg width="592" height="394" viewBox="0 0 592 394" fill="none" xmlns="http://www.w3.org/2000/svg">
<path fill-rule="evenodd" clip-rule="evenodd" d="M297.758 307.039C492.029 307.039 649.517 149.434 649.517 -44.9807C649.517 -239.396 492.029 -397 297.758 -397C103.488 -397 -54 -239.396 -54 -44.9807C-54 149.434 103.488 307.039 297.758 307.039ZM297.767 93.8898C366.089 93.8898 421.474 34.6512 421.474 -38.4232C421.474 -111.498 297.767 -269.971 297.767 -269.971C297.767 -269.971 174.06 -111.498 174.06 -38.4232C174.06 34.6512 229.446 93.8898 297.767 93.8898Z" fill="#E3E7F0"/>
<path fill-rule="evenodd" clip-rule="evenodd" d="M325.729 92.7091C432.073 92.7091 518.282 0.503021 518.282 -113.239C518.282 -183.154 445.528 -303.294 389.462 -385.497C540.361 -345.862 651.673 -208.433 651.673 -44.9858C651.673 149.429 494.186 307.034 299.915 307.034C105.644 307.034 -51.8438 149.429 -51.8438 -44.9858C-51.8438 -228.968 89.1947 -379.984 268.975 -395.662C212.179 -313.49 133.176 -186.095 133.176 -113.239C133.176 -47.4337 162.032 11.1631 206.948 48.8661C229.62 76.4661 262.865 93.8863 299.914 93.8863C305.946 93.8863 311.877 93.4246 317.678 92.5324C320.348 92.6498 323.032 92.7091 325.729 92.7091Z" fill="#EBEEF6"/>
<path fill-rule="evenodd" clip-rule="evenodd" d="M363.02 -390.953C341.872 -394.923 320.058 -397 297.758 -397C103.488 -397 -54 -239.396 -54 -44.9807C-54 149.434 103.488 307.039 297.758 307.039C460.752 307.039 597.853 196.097 637.774 45.5535C587.534 109.095 509.795 149.863 422.542 149.863C337.025 149.863 255.164 113.16 211.497 56.4059C188.404 32.3686 174.06 -1.23572 174.06 -38.4232C174.06 -57.2769 182.295 -81.8152 194.515 -107.85C195.868 -236.397 252.366 -358.744 363.02 -390.953Z" fill="#F3F6FE"/>
<path fill-rule="evenodd" clip-rule="evenodd" d="M390.509 -384.634C360.959 -392.696 329.861 -397 297.758 -397C103.488 -397 -54 -239.396 -54 -44.9807C-54 149.434 103.488 307.039 297.758 307.039C323.519 307.039 348.634 304.267 372.82 299.006C252.84 262.87 165.444 151.453 165.444 19.608C165.444 -15.7119 171.716 -49.5658 183.206 -80.8991C193.535 -109.403 211.331 -141.96 229.858 -171.932C249.472 -203.98 274.49 -241.164 297.766 -269.971C332.961 -313.532 364.861 -352.958 390.509 -384.634Z" fill="#DDE1EB"/>
</svg>
