<svg width="808" height="806" viewBox="0 0 808 806" fill="none" xmlns="http://www.w3.org/2000/svg">
<path fill-rule="evenodd" clip-rule="evenodd" d="M404.827 805.325C182.608 805.325 2.4632 625.047 2.4632 402.663C2.4632 180.278 182.608 0 404.827 0C627.047 0 807.191 180.278 807.191 402.663C807.191 625.047 627.047 805.325 404.827 805.325ZM404.995 560.924C326.844 560.924 263.491 493.164 263.491 409.576C263.491 325.989 404.995 144.717 404.995 144.717C404.995 144.717 546.499 325.989 546.499 409.576C546.499 493.164 483.146 560.924 404.995 560.924Z" fill="#E3E7F0" fill-opacity="0.27"/>
<path fill-rule="evenodd" clip-rule="evenodd" d="M373.012 559.574C251.368 559.574 152.757 454.103 152.757 323.997C152.757 244.211 235.587 107.245 299.657 13.2344C127.19 58.6663 0.000305176 215.799 0.000305176 402.66C0.000305176 625.044 180.145 805.323 402.364 805.323C624.584 805.323 804.729 625.044 804.729 402.66C804.729 192.421 643.724 19.8151 438.375 1.58826C503.31 95.603 593.266 240.85 593.266 323.997C593.266 399.266 560.262 466.29 508.889 509.418C482.955 540.99 444.925 560.918 402.544 560.918C395.65 560.918 388.87 560.391 382.239 559.371C379.179 559.506 376.103 559.574 373.012 559.574Z" fill="#EBEEF7" fill-opacity="0.27"/>
<path fill-rule="evenodd" clip-rule="evenodd" d="M328.142 7.59354C352.335 3.05081 377.291 0.674927 402.802 0.674927C625.021 0.674927 805.166 180.953 805.166 403.337C805.166 625.722 625.021 806 402.802 806C216.363 806 59.5411 679.103 13.8729 506.908C71.3414 579.586 160.261 626.216 260.064 626.216C358.883 626.216 453.435 583.37 502.989 517.315C528.62 489.923 544.475 452.069 544.475 410.253C544.475 388.588 534.968 360.36 520.883 330.426C519.053 183.75 454.432 44.3495 328.142 7.59354Z" fill="#F3F6FE" fill-opacity="0.27"/>
<path fill-rule="evenodd" clip-rule="evenodd" d="M298.738 14.1438C332.537 4.9224 368.108 0 404.827 0C627.047 0 807.191 180.278 807.191 402.663C807.191 625.047 627.047 805.325 404.827 805.325C375.358 805.325 346.629 802.155 318.962 796.136C456.202 754.801 556.171 627.355 556.171 476.542C556.171 443.488 551.369 411.555 542.424 381.406C526.965 321.17 471.019 236.028 435.452 185.977C434.692 184.905 433.93 183.837 433.168 182.771C416.602 159.586 404.995 144.717 404.995 144.717C404.995 144.717 404.888 144.854 404.679 145.124C364.477 95.3671 328.04 50.3335 298.738 14.1438Z" fill="#DDE1EB" fill-opacity="0.22"/>
</svg>
