<svg width="395" height="171" viewBox="0 0 395 171" fill="none" xmlns="http://www.w3.org/2000/svg">
<path fill-rule="evenodd" clip-rule="evenodd" d="M175.501 5C176.882 5 178.001 3.88071 178.001 2.5C178.001 1.11929 176.882 0 175.501 0C174.12 0 173.001 1.11929 173.001 2.5C173.001 3.88071 174.12 5 175.501 5ZM175.501 4C175.733 4 175.952 3.94752 176.148 3.85381L174.147 1.85329C174.054 2.04911 174.001 2.26843 174.001 2.5C174.001 3.32843 174.673 4 175.501 4ZM174.854 1.14619L176.855 3.14671C176.949 2.95089 177.001 2.73157 177.001 2.5C177.001 1.67157 176.33 1 175.501 1C175.27 1 175.05 1.05248 174.854 1.14619ZM292.94 17.6945C292.557 19.8701 290.482 21.3228 288.306 20.9392C286.131 20.5556 284.678 18.4809 285.062 16.3053C285.445 14.1298 287.52 12.6771 289.696 13.0607C291.871 13.4443 293.324 15.5189 292.94 17.6945ZM291.144 16.3624L290.797 18.332L286.858 17.6374L287.205 15.6678L291.144 16.3624ZM49.001 21H85.501L83.0627 26H85.501L47.9516 103H74.001V73H109.001V101H125.001V135H109.001V156H73.001V135H10.001V99L49.001 21ZM76.001 105V75H107.001V103H123.001V128H107.001V149H75.001V128H12.001V99.4721L50.237 23H82.3005L44.001 101.538V105H76.001ZM382.001 114C382.001 99.1643 373.128 89.2786 358.123 85.4294C368.811 80.6962 377.001 71.0991 377.001 57.5C377.001 56.6364 376.971 55.7879 376.91 54.9545C376.97 54.1515 377.001 53.3333 377.001 52.5C377.001 29.2847 354.907 17 326.001 17C296.531 17 276.086 32.4562 274.119 57.0418C274.067 57.702 274.027 58.3688 274.001 59.042L274.457 59.0414C274.22 60.6653 274.067 62.3328 274.001 64.042L308.001 64C308.724 55.5088 315.613 50 326.001 50C334.328 50 340.566 53.6115 341.784 60.4572C340.506 67.4749 333.639 72 323.001 72H310.001V102H323.001C334.967 102 341.608 105.813 342.804 113.376C341.614 120.376 335.122 125 326.001 125C314.529 125 307.814 119.407 307.001 112H271.001C271.034 112.673 271.08 113.34 271.14 114C271.232 115.015 271.355 116.015 271.51 117H271.001C272.266 143.106 294.114 160 326.001 160C360.869 160 382.001 143.932 382.001 119C382.001 118.189 381.975 117.394 381.922 116.613C381.975 115.753 382.001 114.882 382.001 114ZM273.148 114C274.237 125.521 279.619 134.988 288.247 141.712C297.426 148.866 310.396 153 326.001 153C343.157 153 356.694 149.044 365.887 142.242C375.019 135.485 380.001 125.832 380.001 114C380.001 105.835 377.166 99.4067 372.1 94.7474C366.991 90.0494 359.443 86.998 349.793 85.9892L348.001 85.8018V81.3624L349.607 81.0393C363.318 78.2798 375.001 68.1784 375.001 52.5C375.001 41.6361 369.878 33.3611 361.247 27.7183C352.537 22.0245 340.208 19 326.001 19C311.216 19 298.938 22.981 290.277 29.927C282.14 36.4524 277.075 45.6847 276.126 57.0394L306.256 57.0022C307.003 53.0251 309.044 49.6707 312.143 47.2417C315.68 44.4693 320.463 43 326.001 43C330.947 43 335.423 44.1951 338.712 46.7323C342.065 49.3189 344.001 53.1669 344.001 58C344.001 62.8345 341.909 66.926 338.138 69.7511C334.421 72.5346 329.207 74 323.001 74H312.001V95H323.001C329.816 95 335.3 96.1944 339.127 98.8722C343.082 101.639 345.001 105.799 345.001 111C345.001 115.753 343.013 119.819 339.567 122.66C336.152 125.475 331.422 127 326.001 127C314.743 127 307.094 121.794 305.312 114H273.148ZM181.314 116.385C177.821 109.506 176.001 99.2587 176.001 85.5C176.001 71.6973 177.821 61.4489 181.315 54.5794C184.878 47.5727 190.253 44 197.001 44C203.749 44 209.124 47.5727 212.687 54.5794C216.181 61.4489 218.001 71.6973 218.001 85.5C218.001 99.2587 216.181 109.506 212.688 116.385C209.127 123.399 203.754 127 197.001 127C190.248 127 184.875 123.399 181.314 116.385ZM197.001 51C208.38 51 215.546 62.3884 215.98 87.9961C215.546 113.527 208.38 125 197.001 125C185.622 125 178.456 113.527 178.022 87.9959C178.456 62.3884 185.622 51 197.001 51ZM254.976 87.9978C254.993 87.1715 255.001 86.339 255.001 85.5C255.001 42.1406 232.501 17 197.001 17C161.5 17 139.001 42.1406 139.001 85.5C139.001 86.3398 139.009 87.1733 139.026 88.0004C139.009 88.8267 139.001 89.6599 139.001 90.5C139.001 133.588 161.229 160 197.001 160C232.772 160 255.001 133.498 255.001 90.5C255.001 89.6591 254.993 88.825 254.976 87.9978ZM253.001 85.5C253.001 106.674 247.528 123.548 237.881 135.092C228.269 146.594 214.354 153 197.001 153C179.646 153 165.732 146.615 156.121 135.125C146.475 123.593 141.001 106.72 141.001 85.5C141.001 64.1477 146.54 47.5362 156.205 36.294C165.838 25.0883 179.753 19 197.001 19C214.249 19 228.164 25.0883 237.797 36.294C247.462 47.5362 253.001 64.1477 253.001 85.5ZM378.696 167.939C380.871 167.556 382.324 165.481 381.94 163.305C381.557 161.13 379.482 159.677 377.306 160.061C375.131 160.444 373.678 162.519 374.062 164.695C374.445 166.87 376.52 168.323 378.696 167.939ZM379.797 162.668L375.858 163.362L376.205 165.332L380.144 164.637L379.797 162.668ZM137.307 157.939C139.482 158.323 141.557 156.87 141.94 154.695C142.324 152.519 140.871 150.444 138.696 150.061C136.52 149.677 134.445 151.13 134.062 153.305C133.678 155.481 135.131 157.556 137.307 157.939ZM140.144 153.362L136.205 152.668L135.858 154.637L139.797 155.332L140.144 153.362ZM96.0011 55.5C96.0011 56.8807 94.8818 58 93.5011 58C92.1204 58 91.0011 56.8807 91.0011 55.5C91.0011 54.1193 92.1204 53 93.5011 53C94.8818 53 96.0011 54.1193 96.0011 55.5ZM94.1478 56.8538C93.952 56.9475 93.7327 57 93.5011 57C92.6727 57 92.0011 56.3284 92.0011 55.5C92.0011 55.2684 92.0536 55.0491 92.1473 54.8533L94.1478 56.8538ZM94.8549 56.1467L92.8544 54.1462C93.0502 54.0525 93.2695 54 93.5011 54C94.3295 54 95.0011 54.6716 95.0011 55.5C95.0011 55.7316 94.9486 55.9509 94.8549 56.1467ZM260.001 134.5C260.001 135.881 258.882 137 257.501 137C256.12 137 255.001 135.881 255.001 134.5C255.001 133.119 256.12 132 257.501 132C258.882 132 260.001 133.119 260.001 134.5ZM258.148 135.854C257.952 135.948 257.733 136 257.501 136C256.673 136 256.001 135.328 256.001 134.5C256.001 134.268 256.054 134.049 256.147 133.853L258.148 135.854ZM258.855 135.147L256.854 133.146C257.05 133.052 257.27 133 257.501 133C258.33 133 259.001 133.672 259.001 134.5C259.001 134.732 258.949 134.951 258.855 135.147ZM395.001 16.5C395.001 17.8807 393.882 19 392.501 19C391.12 19 390.001 17.8807 390.001 16.5C390.001 15.1193 391.12 14 392.501 14C393.882 14 395.001 15.1193 395.001 16.5ZM393.148 17.8538C392.952 17.9475 392.733 18 392.501 18C391.673 18 391.001 17.3284 391.001 16.5C391.001 16.2684 391.054 16.0491 391.147 15.8533L393.148 17.8538ZM393.855 17.1467L391.854 15.1462C392.05 15.0525 392.27 15 392.501 15C393.33 15 394.001 15.6716 394.001 16.5C394.001 16.7316 393.949 16.9509 393.855 17.1467ZM16.5011 171C17.8818 171 19.0011 169.881 19.0011 168.5C19.0011 167.119 17.8818 166 16.5011 166C15.1204 166 14.0011 167.119 14.0011 168.5C14.0011 169.881 15.1204 171 16.5011 171ZM16.5011 170C16.7327 170 16.952 169.948 17.1478 169.854L15.1473 167.853C15.0536 168.049 15.0011 168.268 15.0011 168.5C15.0011 169.328 15.6727 170 16.5011 170ZM15.8544 167.146L17.8549 169.147C17.9486 168.951 18.0011 168.732 18.0011 168.5C18.0011 167.672 17.3295 167 16.5011 167C16.2695 167 16.0502 167.052 15.8544 167.146ZM5.36916 29.7589C7.44508 29.0033 8.51543 26.7079 7.75985 24.632C7.00428 22.5561 4.70891 21.4858 2.633 22.2413C0.55709 22.9969 -0.513257 25.2923 0.242312 27.3682C0.997883 29.4441 3.29325 30.5145 5.36916 29.7589ZM5.53844 24.3764L1.77967 25.7445L2.46371 27.6238L6.22248 26.2558L5.53844 24.3764Z" fill="#0B233A" fill-opacity="0.4"/>
</svg>
