<svg width="392" height="171" viewBox="0 0 392 171" fill="none" xmlns="http://www.w3.org/2000/svg">
<path fill-rule="evenodd" clip-rule="evenodd" d="M175.5 5C176.881 5 178 3.88071 178 2.5C178 1.11929 176.881 0 175.5 0C174.119 0 173 1.11929 173 2.5C173 3.88071 174.119 5 175.5 5ZM175.5 4C176.328 4 177 3.32843 177 2.5C177 1.67157 176.328 1 175.5 1C174.672 1 174 1.67157 174 2.5C174 3.32843 174.672 4 175.5 4ZM289 21C291.209 21 293 19.2091 293 17C293 14.7909 291.209 13 289 13C286.791 13 285 14.7909 285 17C285 19.2091 286.791 21 289 21ZM49 21H85.5L83.0617 26H85.5L47.9506 103H74V73H109V101H125V135H109V156H73V135H10V99L49 21ZM76 105V75H107V103H123V128H107V149H75V128H12V99.4721L50.2361 23H82.2996L44 101.538V105H76ZM343 21H306.5L267.5 99V135H330.5V156H366.5V135H382.5V101H366.5V73H331.5V103H305.451L343 26H340.562L343 21ZM333.5 105H301.5V101.538L339.8 23H307.736L269.5 99.4721V128H332.5V149H364.5V128H380.5V103H364.5V75H333.5V105ZM181.313 116.385C177.82 109.506 176 99.2587 176 85.5C176 71.6973 177.82 61.4489 181.314 54.5794C184.877 47.5727 190.252 44 197 44C203.748 44 209.123 47.5727 212.686 54.5794C216.18 61.4489 218 71.6973 218 85.5C218 99.2587 216.18 109.506 212.687 116.385C209.126 123.399 203.753 127 197 127C190.247 127 184.874 123.399 181.313 116.385ZM197 125C185.621 125 178.455 113.527 178.021 87.9961C178.455 62.3884 185.621 51 197 51C208.379 51 215.545 62.3884 215.979 87.9959C215.545 113.527 208.379 125 197 125ZM139.025 88.0004C139.008 87.1733 139 86.3398 139 85.5C139 42.1406 161.5 17 197 17C232.5 17 255 42.1406 255 85.5C255 86.3398 254.992 87.1733 254.975 88.0005L254.975 87.9978C254.992 88.825 255 89.6591 255 90.5C255 133.498 232.771 160 197 160C161.229 160 139 133.588 139 90.5C139 89.6599 139.008 88.8267 139.025 88.0004ZM253 85.5C253 106.674 247.527 123.548 237.88 135.092C228.268 146.594 214.353 153 197 153C179.645 153 165.731 146.615 156.12 135.125C146.474 123.593 141 106.72 141 85.5C141 64.1477 146.539 47.5362 156.204 36.294C165.837 25.0883 179.752 19 197 19C214.248 19 228.163 25.0883 237.796 36.294C247.461 47.5362 253 64.1477 253 85.5ZM382 164C382 166.209 380.209 168 378 168C375.791 168 374 166.209 374 164C374 161.791 375.791 160 378 160C380.209 160 382 161.791 382 164ZM142 154C142 156.209 140.209 158 138 158C135.791 158 134 156.209 134 154C134 151.791 135.791 150 138 150C140.209 150 142 151.791 142 154ZM8 26C8 28.2091 6.20914 30 4 30C1.79086 30 0 28.2091 0 26C0 23.7909 1.79086 22 4 22C6.20914 22 8 23.7909 8 26ZM93.5 58C94.8807 58 96 56.8807 96 55.5C96 54.1193 94.8807 53 93.5 53C92.1193 53 91 54.1193 91 55.5C91 56.8807 92.1193 58 93.5 58ZM93.5 57C94.3284 57 95 56.3284 95 55.5C95 54.6716 94.3284 54 93.5 54C92.6716 54 92 54.6716 92 55.5C92 56.3284 92.6716 57 93.5 57ZM257.5 137C258.881 137 260 135.881 260 134.5C260 133.119 258.881 132 257.5 132C256.119 132 255 133.119 255 134.5C255 135.881 256.119 137 257.5 137ZM257.5 136C258.328 136 259 135.328 259 134.5C259 133.672 258.328 133 257.5 133C256.672 133 256 133.672 256 134.5C256 135.328 256.672 136 257.5 136ZM389.5 45C390.881 45 392 43.8807 392 42.5C392 41.1193 390.881 40 389.5 40C388.119 40 387 41.1193 387 42.5C387 43.8807 388.119 45 389.5 45ZM389.5 44C390.328 44 391 43.3284 391 42.5C391 41.6716 390.328 41 389.5 41C388.672 41 388 41.6716 388 42.5C388 43.3284 388.672 44 389.5 44ZM19 168.5C19 169.881 17.8807 171 16.5 171C15.1193 171 14 169.881 14 168.5C14 167.119 15.1193 166 16.5 166C17.8807 166 19 167.119 19 168.5ZM18 168.5C18 169.328 17.3284 170 16.5 170C15.6716 170 15 169.328 15 168.5C15 167.672 15.6716 167 16.5 167C17.3284 167 18 167.672 18 168.5Z" fill="#0B233A" fill-opacity="0.4"/>
</svg>
