<svg width="301" height="264" viewBox="0 0 301 264" fill="none" xmlns="http://www.w3.org/2000/svg">
<path d="M224.344 4.40441C223.57 3.28299 224.137 1.73288 225.452 1.37596L226.902 0.982657C227.168 0.910329 227.326 0.635655 227.253 0.369153C227.181 0.102652 226.906 -0.0547608 226.64 0.0175638L225.19 0.410866C223.209 0.948504 222.355 3.28341 223.521 4.9726L223.582 5.06079C224.354 6.17865 223.74 7.722 222.412 8.00452C220.385 8.43546 219.449 10.7895 220.626 12.4946C221.398 13.6124 220.784 15.1558 219.456 15.4383C217.429 15.8692 216.493 18.2233 217.67 19.9284C218.442 21.0462 217.828 22.5896 216.499 22.8721C214.473 23.303 213.537 25.6571 214.714 27.3621C215.486 28.48 214.872 30.0233 213.543 30.3059C211.516 30.7368 210.58 33.0908 211.758 34.7959L211.819 34.8841C212.593 36.0055 212.026 37.5556 210.711 37.9126L209.261 38.3059C208.995 38.3782 208.837 38.6529 208.91 38.9194C208.982 39.1859 209.257 39.3433 209.523 39.2709L210.972 38.8776C212.953 38.34 213.808 36.0051 212.641 34.3159L212.581 34.2277C211.809 33.1099 212.422 31.5665 213.751 31.284C215.778 30.8531 216.714 28.499 215.537 26.7939C214.765 25.6761 215.379 24.1327 216.707 23.8502C218.734 23.4193 219.67 21.0652 218.493 19.3602C217.721 18.2423 218.335 16.699 219.664 16.4164C221.69 15.9855 222.626 13.6315 221.449 11.9264C220.677 10.8085 221.291 9.26518 222.62 8.98265C224.646 8.55172 225.583 6.19767 224.405 4.49261L224.344 4.40441Z" fill="#0B233A" fill-opacity="0.4"/>
<path d="M96.9007 11.7164C95.5415 11.6179 94.688 10.2051 95.2333 8.95613L95.8341 7.57995C95.9446 7.32687 95.829 7.03214 95.5759 6.92166C95.3228 6.81117 95.0281 6.92676 94.9176 7.17983L94.3168 8.55602C93.4955 10.4373 94.781 12.5654 96.8284 12.7138L96.9353 12.7215C98.2901 12.8197 99.1091 14.2647 98.4974 15.4776C97.5643 17.3276 98.8135 19.5315 100.88 19.6813C102.235 19.7795 103.054 21.2244 102.442 22.4373C101.509 24.2873 102.758 26.4913 104.825 26.6411C106.18 26.7393 106.999 28.1842 106.387 29.3971C105.454 31.2471 106.703 33.4511 108.77 33.6008C110.125 33.699 110.944 35.144 110.332 36.3569C109.399 38.2069 110.648 40.4108 112.715 40.5606L112.821 40.5683C114.181 40.6668 115.034 42.0797 114.489 43.3286L113.888 44.7048C113.778 44.9579 113.893 45.2526 114.146 45.3631C114.399 45.4736 114.694 45.358 114.805 45.1049L115.405 43.7287C116.227 41.8475 114.941 39.7193 112.894 39.571L112.787 39.5632C111.432 39.465 110.613 38.0201 111.225 36.8072C112.158 34.9572 110.909 32.7532 108.842 32.6034C107.487 32.5052 106.668 31.0603 107.28 29.8474C108.213 27.9974 106.964 25.7935 104.897 25.6437C103.542 25.5455 102.723 24.1006 103.335 22.8877C104.268 21.0376 103.019 18.8337 100.952 18.6839C99.5975 18.5857 98.7785 17.1408 99.3902 15.9279C100.323 14.0779 99.0741 11.8739 97.0075 11.7242L96.9007 11.7164Z" fill="#0B233A" fill-opacity="0.4"/>
<path fill-rule="evenodd" clip-rule="evenodd" d="M175.616 13.8955C176.997 13.8955 178.116 12.7762 178.116 11.3955C178.116 10.0148 176.997 8.89551 175.616 8.89551C174.236 8.89551 173.116 10.0148 173.116 11.3955C173.116 12.7762 174.236 13.8955 175.616 13.8955ZM175.616 12.8955C176.445 12.8955 177.116 12.2239 177.116 11.3955C177.116 10.5671 176.445 9.89551 175.616 9.89551C174.788 9.89551 174.116 10.5671 174.116 11.3955C174.116 12.2239 174.788 12.8955 175.616 12.8955Z" fill="#0B233A" fill-opacity="0.4"/>
<path d="M295.116 35.8955C295.116 38.1046 293.326 39.8955 291.116 39.8955C288.907 39.8955 287.116 38.1046 287.116 35.8955C287.116 33.6864 288.907 31.8955 291.116 31.8955C293.326 31.8955 295.116 33.6864 295.116 35.8955Z" fill="#0B233A" fill-opacity="0.4"/>
<path d="M78.1164 50.8955C78.1164 53.1047 76.3255 54.8955 74.1164 54.8955C71.9072 54.8955 70.1164 53.1047 70.1164 50.8955C70.1164 48.6864 71.9072 46.8955 74.1164 46.8955C76.3255 46.8955 78.1164 48.6864 78.1164 50.8955Z" fill="#0B233A" fill-opacity="0.4"/>
<path fill-rule="evenodd" clip-rule="evenodd" d="M200.553 84.8391C189.055 90.8591 181.14 93.8633 174.887 95.3695C168.963 96.7965 164.493 96.8894 159.786 96.8951C155.437 96.3972 150.538 96.9946 146.351 98.6235C146.138 98.6723 145.903 98.7413 145.653 98.8248C145.15 98.9929 144.501 99.2483 143.694 99.6142C142.08 100.347 139.801 101.536 136.735 103.398C134.747 104.605 133.205 105.933 131.667 107.42C131.032 108.035 130.391 108.683 129.722 109.359C129.587 109.495 129.45 109.634 129.312 109.773C128.49 110.603 127.613 111.48 126.62 112.419C122.666 116.158 116.825 120.926 105.53 127.26C100.035 130.341 94.1872 131.892 89.3816 132.752C86.9814 133.182 84.8499 133.439 83.1549 133.629C82.936 133.654 82.7233 133.678 82.5176 133.701C81.9325 133.766 81.4046 133.824 80.9539 133.881C80.358 133.956 79.829 134.035 79.4478 134.139C78.1546 134.489 77.4079 135.297 77.0714 136.205C77.0416 136.285 77.0152 136.366 76.9919 136.446C76.3922 136.278 75.7885 136.15 75.1819 136.06C71.7154 135.546 68.2517 136.297 65.0317 137.718C58.7993 140.468 53.2774 145.812 49.9776 150.016L48.2762 148.483C45.8139 146.266 42.0201 146.464 39.8025 148.927L34.4488 154.871L35.4299 155.755L32.4959 159.012C31.7567 159.833 31.8229 161.098 32.6436 161.837C33.4644 162.576 34.729 162.51 35.4682 161.689L38.4021 158.432L42.1173 161.778L39.1833 165.035C38.4441 165.856 38.5102 167.121 39.331 167.86C40.1518 168.599 41.4164 168.533 42.1556 167.712L45.0896 164.454L45.9438 165.224L51.2975 159.279C53.3269 157.026 53.333 153.657 51.4324 151.402C54.5997 147.326 59.9384 142.151 65.8389 139.548C68.8248 138.231 71.9002 137.595 74.8888 138.038C74.9426 138.046 74.9963 138.054 75.05 138.063C74.5825 138.249 74.1189 138.46 73.689 138.695C73.0375 139.05 72.3886 139.501 71.935 140.063C71.4625 140.649 71.1538 141.43 71.3971 142.317C71.5862 143.007 71.8792 143.777 72.4761 144.543C73.0713 145.306 73.9262 146.011 75.1675 146.642C77.4006 147.778 80.9669 148.717 86.7792 149.324C87.2451 151.553 87.1553 153.917 86.6697 156.387C85.6968 161.336 83.1519 166.604 80.3855 171.859C79.8948 172.791 79.3965 173.724 78.8997 174.654L78.8986 174.656C76.6273 178.908 74.3866 183.102 73.0411 186.922C71.4061 191.564 70.9516 196.038 73.7561 199.522C83.5701 211.715 86.5348 218.525 86.5348 225.396C86.5348 228.548 86.139 232.184 85.5525 235.303C85.2595 236.861 84.9218 238.274 84.5682 239.422C84.2063 240.597 83.8536 241.406 83.5627 241.824C83.2468 242.277 83.3581 242.9 83.8111 243.216C84.2642 243.532 84.8875 243.421 85.2034 242.967C85.6809 242.282 86.1064 241.222 86.4796 240.011C86.861 238.772 87.2152 237.283 87.518 235.672C88.1231 232.455 88.5348 228.693 88.5348 225.396C88.5348 217.807 85.1891 210.537 75.3141 198.268C73.1963 195.637 73.346 192.076 74.9275 187.586C76.2173 183.925 78.3654 179.902 80.6334 175.655L80.6344 175.653C81.1382 174.709 81.6478 173.755 82.1553 172.791C84.9159 167.547 87.5961 162.043 88.6322 156.773C89.1173 154.305 89.2455 151.867 88.8503 149.517C101.635 150.554 118.822 147.868 131.367 142.382C131.455 144.422 131.616 146.351 131.848 148.114C131.959 148.949 132.35 149.724 133.077 150.15L133.121 150.176L133.157 150.197C131.271 167.199 128.659 195.009 130.503 218.428C131.528 231.447 133.896 245.83 135.225 253.901C135.414 255.05 135.582 256.072 135.722 256.943C135.098 257.575 134.418 258.504 133.868 259.412C133.516 259.994 133.193 260.606 132.955 261.18C132.728 261.728 132.535 262.343 132.535 262.895C132.535 263.163 132.642 263.419 132.832 263.607C133.022 263.794 133.279 263.898 133.546 263.895L160.81 263.581C161.337 263.575 161.769 263.162 161.797 262.636C162.113 256.814 162.558 248.678 163.003 240.692C163.379 242.049 163.753 243.348 164.122 244.58C165.077 247.766 166.005 250.516 166.856 252.658C167.492 254.261 168.114 255.599 168.704 256.523C168.474 256.797 168.199 257.153 167.924 257.577C167.253 258.611 166.529 260.124 166.52 261.89C166.518 262.157 166.623 262.412 166.811 262.601C166.998 262.789 167.254 262.895 167.52 262.895H194.035C194.587 262.895 195.035 262.448 195.035 261.895C195.035 258.545 194.274 253.876 193.466 248.947L193.437 248.772C192.63 243.847 191.774 238.619 191.498 233.933C191.437 232.898 191.367 231.462 191.28 229.685C190.575 215.185 188.764 177.971 181.669 150.288C182.567 149.508 182.992 148.305 182.8 147.093C182.149 142.989 180.33 133.919 175.894 124.158C180.801 123.21 188.646 120.928 196.387 116.434C206.433 110.601 216.981 100.104 224.1 89.8125C224.296 90.4011 224.492 90.9781 224.682 91.5409L224.684 91.5457C224.904 92.1955 225.118 92.8267 225.319 93.4354C226.625 97.3945 227.413 101.534 227.626 105.106C227.842 108.735 227.452 111.586 226.585 113.112C225.547 114.935 223.643 118.594 222.467 122.709C221.303 126.784 220.788 131.535 222.824 135.38C224.363 138.288 226.324 140.61 228.135 142.28C229.916 143.921 231.639 145.012 232.741 145.351C233.269 145.514 233.828 145.217 233.991 144.689C234.153 144.162 233.857 143.602 233.329 143.44C232.649 143.231 231.189 142.375 229.491 140.809C227.823 139.272 226.011 137.126 224.591 134.444C222.928 131.303 223.266 127.193 224.391 123.258C225.504 119.362 227.322 115.861 228.323 114.1C229.494 112.042 229.843 108.687 229.623 104.987C229.399 101.231 228.575 96.9212 227.218 92.8086C227.009 92.175 226.79 91.5279 226.567 90.8696L226.566 90.8667L226.564 90.8589L226.563 90.8579L226.563 90.8558C226.215 89.8284 225.858 88.7737 225.515 87.7003C226.6 86.0245 227.586 84.3631 228.456 82.7375C231.706 76.6621 233.074 72.7135 233.367 69.9806C233.516 68.5959 233.392 67.495 233.078 66.5796C232.783 65.7213 232.339 65.0831 231.894 64.5666C233.458 64.3491 235.121 64.501 236.77 64.9137C240.162 65.7622 243.251 67.6625 244.833 69.3235L244.119 70.0717C241.831 72.4689 241.92 76.267 244.317 78.5548L250.104 84.0781L261.151 72.5034L255.363 66.9802C252.966 64.6923 249.168 64.781 246.881 67.1782L246.215 67.8754C244.315 65.9169 240.911 63.8878 237.256 62.9734C233.309 61.9862 228.792 62.2417 225.545 65.6444C225.45 65.7439 225.357 65.8438 225.266 65.9444C225.088 66.0902 224.918 66.2353 224.757 66.3768C224.424 66.1631 224.028 65.9789 223.583 65.8782C222.638 65.6643 221.554 65.8491 220.554 66.7414C220.26 67.0044 219.905 67.4044 219.517 67.8627C219.223 68.2093 218.886 68.6194 218.512 69.074L218.104 69.5694C217.019 70.8854 215.641 72.5315 213.97 74.3078C210.626 77.8644 206.134 81.9171 200.553 84.8391ZM226.692 81.794C226.099 82.9035 225.449 84.0305 224.749 85.1679C224.216 83.2754 223.776 81.3477 223.544 79.4299C223.01 75.0209 223.604 70.8328 226.65 67.3973C227.215 66.9428 227.848 66.4954 228.463 66.1646C229.015 65.8677 229.478 65.7054 229.821 65.6705C230.135 65.6387 230.242 65.7157 230.306 65.7881C230.675 66.2041 230.985 66.6446 231.186 67.2297C231.388 67.8173 231.502 68.6157 231.379 69.7672C231.128 72.1067 229.911 75.7779 226.692 81.794ZM221.558 79.67C221.077 75.6886 221.43 71.6292 223.666 68.0533C223.512 67.9557 223.332 67.872 223.141 67.8288C222.817 67.7554 222.396 67.7786 221.886 68.2334C221.709 68.3913 221.437 68.6899 221.043 69.1552C220.761 69.4878 220.44 69.8785 220.072 70.3252L220.066 70.3327L220.065 70.334L219.647 70.8418C218.554 72.1679 217.143 73.8536 215.427 75.6779C212 79.3228 207.333 83.547 201.481 86.6109C195.905 89.53 191.143 91.7578 186.98 93.4573C187.647 95.2097 189.132 99.3278 190.616 104.896C192.064 110.325 191.416 114.919 190.947 117.041C192.414 116.342 193.901 115.565 195.383 114.704C205.568 108.791 216.371 97.8589 223.323 87.3966C222.556 84.9079 221.874 82.28 221.558 79.67ZM78.1572 139.193L78.4599 139.126C80.2227 139.962 81.9614 141.265 83.6345 143.155C84.7794 144.449 85.6066 145.815 86.1635 147.245C80.9486 146.649 77.8934 145.785 76.0743 144.859C75.042 144.334 74.4353 143.803 74.0533 143.313C73.6728 142.825 73.473 142.325 73.326 141.788C73.3004 141.695 73.2942 141.564 73.4919 141.318C73.7084 141.05 74.0973 140.75 74.6474 140.45C75.7371 139.855 77.1675 139.412 78.1572 139.193ZM85.1322 141.83C86.7027 143.604 87.7437 145.496 88.3611 147.468C88.4763 147.478 88.5923 147.488 88.7092 147.498C98.0552 148.306 109.923 147.035 120.462 144.096C116.386 138.363 115.362 128.807 116.712 122.783C113.883 124.681 110.534 126.747 106.508 129.004C100.746 132.235 94.6591 133.839 89.7342 134.721C87.2692 135.163 85.0865 135.425 83.3786 135.617L82.7248 135.69C82.1454 135.754 81.6388 135.811 81.2036 135.866C80.5987 135.942 80.1997 136.007 79.9708 136.069C79.3117 136.248 79.0623 136.588 78.9468 136.9C78.9199 136.972 78.8992 137.047 78.8839 137.122C81.0582 138.07 83.1606 139.602 85.1322 141.83ZM179.878 151.36C165.14 159.012 143.349 154.635 135.066 151.124C133.19 168.167 130.693 195.371 132.497 218.271C133.514 231.195 135.865 245.474 137.195 253.557L137.195 253.558L137.198 253.57L137.198 253.576L137.199 253.578L137.2 253.586C137.428 254.974 137.627 256.177 137.782 257.159C137.839 257.515 137.699 257.874 137.417 258.098C136.97 258.454 136.229 259.376 135.579 260.448C135.278 260.944 135.018 261.439 134.83 261.88L159.851 261.592C160.247 254.29 160.824 243.77 161.353 234.396C160.339 230.313 159.343 225.908 158.425 221.369C156.672 212.707 155.198 203.54 154.414 195.18C153.631 186.84 153.526 179.228 154.552 173.713C154.653 173.17 155.175 172.811 155.718 172.912C156.261 173.013 156.619 173.535 156.518 174.078C155.544 179.313 155.626 186.701 156.405 194.993C157.181 203.264 158.642 212.359 160.385 220.972C162.127 229.585 164.148 237.699 166.038 244.006C166.984 247.161 167.893 249.851 168.714 251.919C169.554 254.034 170.255 255.373 170.749 255.941C171.102 256.347 171.071 256.959 170.679 257.327L170.677 257.328L170.665 257.34C170.652 257.352 170.631 257.373 170.603 257.402C170.59 257.415 170.575 257.431 170.559 257.448L170.527 257.481L170.498 257.512L170.483 257.528L170.448 257.566C170.421 257.596 170.392 257.629 170.361 257.664C170.155 257.898 169.878 258.24 169.601 258.666C169.196 259.29 168.816 260.055 168.633 260.895H193.013C192.887 257.831 192.228 253.759 191.492 249.271L191.455 249.041C190.654 244.155 189.783 238.841 189.501 234.051C189.439 232.999 189.369 231.55 189.281 229.761L189.281 229.755C188.576 215.305 186.794 178.753 179.878 151.36ZM37.2733 154.723L41.2886 150.265C42.767 148.623 45.2962 148.491 46.9378 149.97L49.516 152.292C51.1575 153.77 51.2898 156.299 49.8114 157.941L45.7961 162.399L37.2733 154.723ZM258.323 72.5694L253.983 68.427C252.385 66.9018 249.853 66.9609 248.327 68.559L245.566 71.4526C244.041 73.0507 244.1 75.5827 245.698 77.108L250.038 81.2504L258.323 72.5694Z" fill="#0B233A" fill-opacity="0.4"/>
<path fill-rule="evenodd" clip-rule="evenodd" d="M156.367 90.8442C159.418 90.8442 162.186 89.6361 164.22 87.6721C166.35 85.6155 167.675 82.7303 167.675 79.5356C167.675 76.4129 166.409 73.5857 164.363 71.5393L164.328 71.5043C163.015 70.099 160.803 68.632 158.118 67.5102C153.247 65.4744 148.661 65.3462 147.877 67.2238C147.492 68.146 148.095 69.3805 149.386 70.6392C147.096 72.439 145.518 75.1039 145.144 78.1415C143.903 78.6025 143.035 79.6621 143.035 80.8955C143.035 82.3698 144.275 83.5957 145.911 83.8479C147.606 87.9543 151.649 90.8442 156.367 90.8442ZM146.216 81.8713L147.329 82.0432L147.759 83.0848C149.156 86.4688 152.487 88.8442 156.367 88.8442C158.695 88.8442 160.824 87.9893 162.456 86.5762C161.212 85.7123 160.068 84.7132 159.047 83.6C159.426 83.2721 159.765 82.851 160.025 82.3533C160.895 80.6936 160.574 78.8111 159.31 78.1486C158.261 77.599 156.892 78.0618 155.959 79.1832C155.089 77.5014 154.447 75.6829 154.072 73.7682C152.911 73.2087 151.864 72.5896 150.971 71.9504C148.897 73.4281 147.455 75.7345 147.129 78.3855L146.981 79.5928L145.841 80.0164C145.208 80.2514 145.035 80.6707 145.035 80.8955C145.035 81.1503 145.306 81.7311 146.216 81.8713Z" fill="#0B233A" fill-opacity="0.4"/>
<path d="M107.116 192.896C109.325 192.896 111.116 191.105 111.116 188.896C111.116 186.686 109.325 184.896 107.116 184.896C104.907 184.896 103.116 186.686 103.116 188.896C103.116 191.105 104.907 192.896 107.116 192.896Z" fill="#0B233A" fill-opacity="0.4"/>
<path fill-rule="evenodd" clip-rule="evenodd" d="M103.116 95.3955C103.116 96.7762 101.997 97.8955 100.616 97.8955C99.2356 97.8955 98.1164 96.7762 98.1164 95.3955C98.1164 94.0148 99.2356 92.8955 100.616 92.8955C101.997 92.8955 103.116 94.0148 103.116 95.3955ZM102.116 95.3955C102.116 96.2239 101.445 96.8955 100.616 96.8955C99.7879 96.8955 99.1164 96.2239 99.1164 95.3955C99.1164 94.5671 99.7879 93.8955 100.616 93.8955C101.445 93.8955 102.116 94.5671 102.116 95.3955Z" fill="#0B233A" fill-opacity="0.4"/>
<path fill-rule="evenodd" clip-rule="evenodd" d="M37.1164 208.396C37.1164 209.776 35.9971 210.896 34.6164 210.896C33.2356 210.896 32.1164 209.776 32.1164 208.396C32.1164 207.015 33.2356 205.896 34.6164 205.896C35.9971 205.896 37.1164 207.015 37.1164 208.396ZM36.1164 208.396C36.1164 209.224 35.4448 209.896 34.6164 209.896C33.7879 209.896 33.1164 209.224 33.1164 208.396C33.1164 207.567 33.7879 206.896 34.6164 206.896C35.4448 206.896 36.1164 207.567 36.1164 208.396Z" fill="#0B233A" fill-opacity="0.4"/>
<path fill-rule="evenodd" clip-rule="evenodd" d="M297.616 105.896C298.997 105.896 300.116 104.776 300.116 103.396C300.116 102.015 298.997 100.896 297.616 100.896C296.236 100.896 295.116 102.015 295.116 103.396C295.116 104.776 296.236 105.896 297.616 105.896ZM297.616 104.896C298.445 104.896 299.116 104.224 299.116 103.396C299.116 102.567 298.445 101.896 297.616 101.896C296.788 101.896 296.116 102.567 296.116 103.396C296.116 104.224 296.788 104.896 297.616 104.896Z" fill="#0B233A" fill-opacity="0.4"/>
<path fill-rule="evenodd" clip-rule="evenodd" d="M212.116 164.396C212.116 165.776 210.997 166.896 209.616 166.896C208.236 166.896 207.116 165.776 207.116 164.396C207.116 163.015 208.236 161.896 209.616 161.896C210.997 161.896 212.116 163.015 212.116 164.396ZM211.116 164.396C211.116 165.224 210.445 165.896 209.616 165.896C208.788 165.896 208.116 165.224 208.116 164.396C208.116 163.567 208.788 162.896 209.616 162.896C210.445 162.896 211.116 163.567 211.116 164.396Z" fill="#0B233A" fill-opacity="0.4"/>
<path d="M44.8973 183.48L45.0775 187.313C45.1561 188.985 46.2954 190.419 47.9058 190.873C49.9306 191.443 51.363 193.246 51.4617 195.347L51.6419 199.181C51.6549 199.456 51.4418 199.691 51.1659 199.704C50.8901 199.717 50.656 199.503 50.643 199.228L50.4628 195.394C50.3843 193.723 49.245 192.289 47.6345 191.835C45.6097 191.264 44.1774 189.462 44.0786 187.36L43.8984 183.527C43.8855 183.251 44.0986 183.017 44.3744 183.004C44.6503 182.991 44.8844 183.204 44.8973 183.48Z" fill="#0B233A" fill-opacity="0.4"/>
<path d="M138.583 21.5621L139.109 17.7606C139.147 17.4871 138.956 17.2346 138.682 17.1968C138.409 17.1589 138.156 17.35 138.118 17.6235L137.592 21.425C137.304 23.5089 138.381 25.5434 140.267 26.476C141.767 27.2177 142.624 28.836 142.394 30.4935L141.868 34.295C141.831 34.5685 142.022 34.8209 142.295 34.8588C142.569 34.8967 142.821 34.7056 142.859 34.4321L143.385 30.6306C143.673 28.5467 142.596 26.5122 140.71 25.5796C139.21 24.8379 138.353 23.2196 138.583 21.5621Z" fill="#0B233A" fill-opacity="0.4"/>
<path d="M278.621 82.4706L282.248 83.7227C283.83 84.2686 285.584 83.7412 286.602 82.4133C287.882 80.7438 290.086 80.0807 292.075 80.7671L295.703 82.0192C295.964 82.1093 296.102 82.394 296.012 82.655C295.922 82.9161 295.637 83.0546 295.376 82.9645L291.749 81.7124C290.167 81.1664 288.413 81.6939 287.395 83.0218C286.115 84.6912 283.911 85.3543 281.922 84.668L278.294 83.4158C278.033 83.3257 277.895 83.0411 277.985 82.7801C278.075 82.519 278.36 82.3805 278.621 82.4706Z" fill="#0B233A" fill-opacity="0.4"/>
<path d="M4.64465 162.358L1.22775 160.611C0.981888 160.485 0.680658 160.583 0.554934 160.829C0.429209 161.074 0.526601 161.376 0.772462 161.501L4.18936 163.249C6.06237 164.206 8.33813 163.858 9.83907 162.384C11.0329 161.212 12.843 160.935 14.3328 161.697L17.7497 163.444C17.9956 163.57 18.2968 163.472 18.4225 163.226C18.5482 162.981 18.4508 162.679 18.205 162.554L14.7881 160.806C12.9151 159.848 10.6393 160.197 9.13838 161.671C7.94455 162.843 6.13443 163.12 4.64465 162.358Z" fill="#0B233A" fill-opacity="0.4"/>
<path d="M241.207 114.568L244.095 112.041C245.354 110.939 245.767 109.155 245.12 107.612C244.307 105.672 244.826 103.429 246.409 102.044L249.298 99.5167C249.506 99.3349 249.821 99.356 250.003 99.5638C250.185 99.7716 250.164 100.087 249.956 100.269L247.068 102.796C245.809 103.898 245.396 105.682 246.043 107.225C246.856 109.165 246.337 111.408 244.754 112.793L241.865 115.32C241.657 115.502 241.342 115.481 241.16 115.273C240.978 115.066 240.999 114.75 241.207 114.568Z" fill="#0B233A" fill-opacity="0.4"/>
<path d="M26.3239 182.323L27.7029 178.742C27.8021 178.484 28.0915 178.356 28.3492 178.455C28.6069 178.554 28.7353 178.844 28.6361 179.101L27.2571 182.683C26.5012 184.646 24.5739 185.905 22.4724 185.809C20.8009 185.732 19.2679 186.734 18.6666 188.295L17.2876 191.877C17.1884 192.134 16.8991 192.263 16.6414 192.164C16.3837 192.064 16.2552 191.775 16.3544 191.517L17.7334 187.936C18.4893 185.973 20.4167 184.714 22.5182 184.81C24.1897 184.886 25.7227 183.885 26.3239 182.323Z" fill="#0B233A" fill-opacity="0.4"/>
<path d="M267.852 96.6884L270.669 99.2955C271.897 100.432 272.259 102.227 271.569 103.751C270.702 105.668 271.158 107.925 272.701 109.354L275.518 111.961C275.72 112.148 276.036 112.136 276.224 111.934C276.412 111.731 276.4 111.415 276.197 111.227L273.381 108.62C272.153 107.483 271.79 105.688 272.48 104.164C273.348 102.247 272.892 99.9908 271.348 98.5617L268.532 95.9545C268.329 95.7669 268.013 95.7791 267.825 95.9818C267.638 96.1844 267.65 96.5008 267.852 96.6884Z" fill="#0B233A" fill-opacity="0.4"/>
<path d="M257.72 183.974L254.033 182.909C253.768 182.832 253.615 182.555 253.692 182.29C253.768 182.025 254.046 181.872 254.311 181.948L257.998 183.014C260.019 183.598 261.439 185.41 261.524 187.512C261.592 189.183 262.722 190.624 264.329 191.089L268.016 192.154C268.282 192.231 268.435 192.508 268.358 192.774C268.281 193.039 268.004 193.192 267.739 193.115L264.052 192.05C262.031 191.466 260.61 189.654 260.525 187.552C260.458 185.88 259.328 184.439 257.72 183.974Z" fill="#0B233A" fill-opacity="0.4"/>
<path d="M233.575 191.609C232.943 192.816 233.694 194.286 235.043 194.48L235.149 194.496C237.2 194.791 238.29 197.078 237.229 198.858C236.533 200.024 237.247 201.523 238.592 201.717C240.643 202.013 241.733 204.3 240.671 206.079C239.975 207.246 240.69 208.745 242.034 208.939C244.085 209.234 245.175 211.521 244.114 213.3C243.418 214.467 244.132 215.966 245.477 216.16C247.528 216.456 248.618 218.742 247.556 220.522C246.86 221.688 247.575 223.188 248.92 223.381L249.026 223.397C251.057 223.69 252.189 225.903 251.237 227.722L250.54 229.052C250.412 229.297 250.11 229.391 249.865 229.263C249.621 229.135 249.526 228.833 249.654 228.588L250.351 227.258C250.983 226.051 250.232 224.581 248.883 224.387L248.777 224.371C246.726 224.076 245.636 221.789 246.698 220.009C247.394 218.843 246.679 217.344 245.334 217.15C243.283 216.854 242.193 214.567 243.255 212.788C243.951 211.621 243.236 210.122 241.892 209.928C239.841 209.633 238.751 207.346 239.812 205.567C240.508 204.4 239.794 202.901 238.449 202.707C236.398 202.411 235.308 200.125 236.37 198.345C237.066 197.179 236.351 195.679 235.007 195.486L234.901 195.47C232.869 195.177 231.737 192.964 232.689 191.145L233.386 189.815C233.514 189.57 233.816 189.476 234.061 189.604C234.306 189.732 234.4 190.034 234.272 190.279L233.575 191.609Z" fill="#0B233A" fill-opacity="0.4"/>
<path d="M22.2901 90.7324C22.7493 92.0154 24.3392 92.4589 25.3963 91.5989L25.4795 91.5312C27.0867 90.2235 29.507 90.9717 30.096 92.9583C30.4821 94.2607 32.0689 94.7512 33.1226 93.8939C34.7299 92.5862 37.1502 93.3343 37.7391 95.3209C38.1253 96.6233 39.7121 97.1138 40.7658 96.2565C42.373 94.9488 44.7934 95.697 45.3823 97.6835C45.7684 98.9859 47.3552 99.4764 48.409 98.6191C50.0162 97.3114 52.4366 98.0596 53.0255 100.046C53.4116 101.349 54.9984 101.839 56.0521 100.982L56.1353 100.914C57.7275 99.6186 60.1224 100.287 60.8141 102.219L61.3201 103.633C61.4132 103.893 61.2778 104.179 61.0178 104.272C60.7578 104.365 60.4716 104.23 60.3786 103.97L59.8726 102.556C59.4134 101.273 57.8235 100.83 56.7664 101.69L56.6833 101.757C55.076 103.065 52.6557 102.317 52.0667 100.33C51.6806 99.0279 50.0938 98.5374 49.0401 99.3948C47.4328 100.702 45.0125 99.9543 44.4236 97.9677C44.0374 96.6653 42.4506 96.1748 41.3969 97.0322C39.7897 98.3399 37.3693 97.5917 36.7804 95.6051C36.3943 94.3027 34.8075 93.8122 33.7537 94.6695C32.1465 95.9772 29.7261 95.2291 29.1372 93.2425C28.7511 91.9401 27.1643 91.4496 26.1106 92.3069L26.0274 92.3746C24.4352 93.6701 22.0403 93.002 21.3486 91.0693L20.8426 89.6555C20.7495 89.3955 20.8849 89.1093 21.1449 89.0163C21.4049 88.9232 21.6911 89.0586 21.7841 89.3186L22.2901 90.7324Z" fill="#0B233A" fill-opacity="0.4"/>
</svg>
