<svg width="397" height="163" viewBox="0 0 397 163" fill="none" xmlns="http://www.w3.org/2000/svg">
<path fill-rule="evenodd" clip-rule="evenodd" d="M397 2.5C397 3.88071 395.88 5 394.5 5C393.119 5 392 3.88071 392 2.5C392 1.11929 393.119 0 394.5 0C395.88 0 397 1.11929 397 2.5ZM396 2.5C396 3.32843 395.328 4 394.5 4C393.671 4 393 3.32843 393 2.5C393 1.67157 393.671 1 394.5 1C395.328 1 396 1.67157 396 2.5ZM19.0625 112C19.1187 113.011 19.2116 114.011 19.3406 115H18.9997C19.1803 139.209 40.2028 158 71.9997 158C104.158 158 125 138.364 125 110C125 109.146 124.982 108.304 124.946 107.474C124.982 106.657 125 105.832 125 105C125 78.0811 107.125 63 83.9997 63C70.0116 63 60.6245 68.4983 56.0129 76.9757L55.9997 77H54.5169L56.9997 53H118V19H26.9997L20.9997 97H21.3843L20.9997 102H53.9997C57.071 95.9478 63.8698 92 71.9997 92C81.3232 92 87.9 97.774 88.8744 107.446C87.8534 117.251 80.6914 124 70.9997 124C62.1471 124 54.445 118.762 52.9997 110H18.9997C19.0047 110.671 19.0257 111.338 19.0625 112ZM57.19 79H51.7821L55.1959 46H116V21H28.8517L23.1594 95H52.8197C56.5097 88.8144 63.7181 85 71.9997 85C77.5186 85 82.3178 86.8648 85.7342 90.4122C89.1452 93.9541 90.9997 98.987 90.9997 105C90.9997 117.116 82.6799 126 70.9997 126C61.9432 126 53.6728 120.899 51.3789 112H21.0663C22.353 133.85 41.8843 151 71.9997 151C87.6731 151 100.411 146.22 109.208 138.162C117.991 130.117 123 118.668 123 105C123 92.001 118.696 82.047 111.779 75.3413C104.85 68.6232 95.1276 65 83.9997 65C70.55 65 61.9359 70.2526 57.7576 77.9538L57.19 79ZM364.022 83.1654C379.598 87.1831 388 97.9456 388 113C388 113.824 387.972 114.639 387.917 115.445C387.972 116.282 388 117.134 388 118C388 141.667 364.971 158 332 158C299.57 158 277.174 140.738 276 114H276.481C276.332 113.015 276.215 112.015 276.128 111C276.072 110.339 276.029 109.673 276 109H313C313.18 117.853 319.799 123 331 123C340.578 123 347.579 118.402 348.807 111.287C348.8 111.328 348.793 111.369 348.785 111.41C347.535 104.152 340.897 100 331 100H314V70H331.5C340.346 70 345.808 65.2617 346.826 58.4034C346.821 58.4393 346.815 58.4752 346.81 58.511C345.798 52.1347 340.753 48 332 48C321.431 48 314.361 53.6958 314 63H280C280.011 61.2923 280.109 59.625 280.29 58H280C280.004 57.327 280.022 56.6603 280.053 56C281.237 30.8686 301.489 15 333 15C364.977 15 382 31.2173 382 51C382 51.8784 381.971 52.7387 381.914 53.5807C381.971 54.3805 382 55.1872 382 56C382 69.5153 375.153 78.7411 364.022 83.1654ZM293.511 139.451C284.685 132.554 279.188 122.837 278.136 111H311.141C311.654 115.085 313.523 118.474 316.639 120.898C320.18 123.653 325.123 125 331 125C336.618 125 341.578 123.513 345.184 120.734C348.829 117.925 351 113.852 351 109C351 103.988 348.994 99.8866 345.349 97.093C341.769 94.3491 336.791 93 331 93H316V72H331.5C336.82 72 341.222 70.4079 344.311 67.5065C347.409 64.5972 349 60.5437 349 56C349 51.657 347.545 47.8277 344.534 45.1036C341.546 42.4006 337.263 41 332 41C326.369 41 321.472 42.5182 317.899 45.4686C314.749 48.0685 312.756 51.6778 312.167 56H282.056C282.628 44.3446 287.476 34.8793 295.702 28.1946C304.438 21.0947 317.156 17 333 17C348.667 17 360.44 20.9728 368.251 27.1502C376.029 33.3025 380 41.7273 380 51C380 58.4906 377.79 64.4479 373.969 68.9072C370.135 73.3809 364.552 76.495 357.566 78.0476L356 78.3957V83.7483L357.732 83.982C367.114 85.2475 374.152 88.6248 378.836 93.5292C383.503 98.4155 386 104.991 386 113C386 124.107 380.624 133.531 371.203 140.247C361.742 146.99 348.178 151 332 151C316.125 151 302.883 146.775 293.511 139.451ZM181 83C181 96.6274 183.105 107.219 186.711 114.484C190.321 121.756 195.631 126 202 126C208.408 126 213.466 121.707 216.814 114.431C220.152 107.174 222 96.597 222 83C222 69.4551 220.155 59.3481 216.789 52.5517C213.378 45.6636 208.28 42 202 42C195.755 42 190.412 45.6217 186.738 52.4968C183.103 59.3012 181 69.4235 181 83ZM183.024 85.507C183.528 60.4163 191.676 49 202 49C212.323 49 219.534 60.4163 219.978 85.5068C219.534 110.792 212.323 124 202 124C191.676 124 183.528 110.793 183.024 85.507ZM144 83C144 83.8415 144.008 84.6768 144.026 85.5058C144.008 86.3302 144 87.1616 144 88C144 131.179 166.77 158 202 158C237.139 158 259 131.088 259 88C259 87.1602 258.991 86.3274 258.975 85.5016C258.991 84.6739 259 83.84 259 83C259 39.731 236.958 15 202 15C167.041 15 144 39.731 144 83ZM242.126 132.896C251.614 121.236 257 104.228 257 83C257 61.6845 251.57 45.1974 242.087 34.0715C232.637 22.9852 218.976 17 202 17C185.019 17 171.098 22.989 161.396 34.0902C151.668 45.2216 146 61.7056 146 83C146 104.255 151.604 121.259 161.324 132.911C171.013 144.525 184.933 151 202 151C219.013 151 232.675 144.509 242.126 132.896ZM391.996 154.263C391.794 153.718 391.112 153.598 390.736 154.041L385.932 159.708C385.536 160.174 385.772 160.907 386.351 161.009L393.733 162.311C394.312 162.413 394.784 161.805 394.572 161.232L391.996 154.263ZM390.592 155.664L391.576 155.838L391.055 158.792L390.071 158.619L390.592 155.664ZM390.882 159.777L389.897 159.603L389.723 160.588L390.708 160.762L390.882 159.777ZM123.5 68C124.881 68 126 66.8807 126 65.5C126 64.1193 124.881 63 123.5 63C122.119 63 121 64.1193 121 65.5C121 66.8807 122.119 68 123.5 68ZM123.5 67C124.328 67 125 66.3284 125 65.5C125 64.6716 124.328 64 123.5 64C122.671 64 122 64.6716 122 65.5C122 66.3284 122.671 67 123.5 67ZM277.5 162C278.88 162 280 160.881 280 159.5C280 158.119 278.88 157 277.5 157C276.119 157 275 158.119 275 159.5C275 160.881 276.119 162 277.5 162ZM277.5 161C278.328 161 279 160.328 279 159.5C279 158.672 278.328 158 277.5 158C276.671 158 276 158.672 276 159.5C276 160.328 276.671 161 277.5 161ZM297.5 87C298.88 87 300 85.8807 300 84.5C300 83.1193 298.88 82 297.5 82C296.119 82 295 83.1193 295 84.5C295 85.8807 296.119 87 297.5 87ZM297.5 86C298.328 86 299 85.3284 299 84.5C299 83.6716 298.328 83 297.5 83C296.671 83 296 83.6716 296 84.5C296 85.3284 296.671 86 297.5 86ZM188 6.5C188 7.88071 186.88 9 185.5 9C184.119 9 183 7.88071 183 6.5C183 5.11929 184.119 4 185.5 4C186.88 4 188 5.11929 188 6.5ZM187 6.5C187 7.32843 186.328 8 185.5 8C184.671 8 184 7.32843 184 6.5C184 5.67157 184.671 5 185.5 5C186.328 5 187 5.67157 187 6.5ZM11.9997 154.5C11.9997 155.881 10.8804 157 9.49968 157C8.11897 157 6.99968 155.881 6.99968 154.5C6.99968 153.119 8.11897 152 9.49968 152C10.8804 152 11.9997 153.119 11.9997 154.5ZM10.9997 154.5C10.9997 155.328 10.3281 156 9.49968 156C8.67125 156 7.99968 155.328 7.99968 154.5C7.99968 153.672 8.67125 153 9.49968 153C10.3281 153 10.9997 153.672 10.9997 154.5ZM4.5001 10.3206C4.12397 9.87703 3.44255 9.99719 3.24082 10.5427L0.66397 17.511C0.451869 18.0845 0.924535 18.6921 1.50345 18.59L8.88505 17.2884C9.46396 17.1863 9.70033 16.4538 9.30485 15.9873L4.5001 10.3206ZM3.65994 12.1172L4.64475 11.9435L5.16569 14.898L4.18089 15.0716L3.65994 12.1172ZM5.33935 15.8828L4.35454 16.0564L4.52819 17.0412L5.513 16.8676L5.33935 15.8828ZM145.385 137.7C145.183 137.155 144.502 137.035 144.125 137.478L139.321 143.145C138.925 143.611 139.162 144.344 139.74 144.446L147.122 145.748C147.701 145.85 148.174 145.242 147.962 144.669L145.385 137.7ZM143.981 139.101L144.966 139.275L144.445 142.229L143.46 142.056L143.981 139.101ZM144.271 143.214L143.286 143.04L143.113 144.025L144.097 144.199L144.271 143.214ZM288.737 10.0413C288.361 9.59773 287.68 9.71789 287.478 10.2634L284.901 17.2317C284.689 17.8052 285.162 18.4128 285.741 18.3107L293.122 17.0091C293.701 16.907 293.937 16.1745 293.542 15.7081L288.737 10.0413ZM287.897 11.8379L288.882 11.6642L289.403 14.6187L288.418 14.7923L287.897 11.8379ZM289.576 15.6035L288.592 15.7771L288.765 16.7619L289.75 16.5883L289.576 15.6035Z" fill="#0B233A" fill-opacity="0.4"/>
</svg>
