<svg width="2358" height="540" viewBox="0 0 2358 540" fill="none" xmlns="http://www.w3.org/2000/svg">
<mask id="mask0_938:11718" style="mask-type:alpha" maskUnits="userSpaceOnUse" x="0" y="0" width="2358" height="540">
<rect width="2358" height="540" fill="#C4C4C4"/>
</mask>
<g mask="url(#mask0_938:11718)">
<path fill-rule="evenodd" clip-rule="evenodd" d="M1587.95 1131.89C1958.5 1131.89 2258.9 831.275 2258.9 460.445C2258.9 89.6164 1958.5 -211 1587.95 -211C1217.39 -211 917 89.6164 917 460.445C917 831.275 1217.39 1131.89 1587.95 1131.89ZM1587.96 725.33C1718.28 725.33 1823.92 612.338 1823.92 472.955C1823.92 333.572 1587.96 31.2977 1587.96 31.2977C1587.96 31.2977 1352 333.572 1352 472.955C1352 612.338 1457.64 725.33 1587.96 725.33Z" fill="#372D8A"/>
<path fill-rule="evenodd" clip-rule="evenodd" d="M1641.29 723.077C1844.13 723.077 2008.57 547.202 2008.57 330.249C2008.57 196.892 1869.8 -32.2625 1762.86 -189.057C2050.68 -113.458 2263 148.676 2263 460.437C2263 831.266 1962.61 1131.88 1592.05 1131.88C1221.5 1131.88 921.104 831.266 921.104 460.437C921.104 109.507 1190.12 -178.543 1533.04 -208.447C1424.7 -51.7106 1274.01 191.283 1274.01 330.249C1274.01 455.75 1329.04 567.506 1414.69 639.422C1457.94 692.082 1521.36 725.321 1592.04 725.321C1603.54 725.321 1614.86 724.441 1625.92 722.739C1631.02 722.964 1636.14 723.077 1641.29 723.077Z" fill="#6055BA"/>
<path fill-rule="evenodd" clip-rule="evenodd" d="M1711.96 -198.291C1671.62 -205.865 1630.01 -209.826 1587.47 -209.826C1216.91 -209.826 916.52 90.7899 916.52 461.619C916.52 832.448 1216.91 1133.06 1587.47 1133.06C1898.36 1133.06 2159.86 921.462 2236.01 634.324C2140.18 755.514 1991.91 833.269 1825.49 833.269C1662.41 833.269 1506.29 763.289 1422.99 655.073C1378.91 609.219 1351.52 545.094 1351.52 474.128C1351.52 438.159 1367.23 391.343 1390.55 341.673C1393.14 96.4921 1500.9 -136.859 1711.96 -198.291Z" fill="#4C41A7"/>
<path fill-rule="evenodd" clip-rule="evenodd" d="M1764.85 -187.415C1708.49 -202.792 1649.18 -211 1587.95 -211C1217.39 -211 917 89.6164 917 460.445C917 831.275 1217.39 1131.89 1587.95 1131.89C1637.09 1131.89 1684.99 1126.6 1731.13 1116.57C1502.28 1047.64 1335.58 835.123 1335.58 583.643C1335.58 517.382 1347.15 453.827 1368.38 394.89C1387.81 340.1 1422.1 277.139 1457.89 219.172C1495.38 157.847 1543.34 86.5064 1587.95 31.2953C1655.08 -51.7935 1715.93 -126.996 1764.85 -187.415Z" fill="#594FB0"/>
</g>
</svg>
