<svg width="455" height="376" viewBox="0 0 455 376" fill="none" xmlns="http://www.w3.org/2000/svg">
<path d="M317.323 330C242.411 330 181.686 337.546 181.686 346.851C181.686 350.332 190.18 353.566 204.73 356.251C201.785 357.812 200.17 359.499 200.17 361.26C200.17 369.215 233.027 375.666 273.559 375.666C310.527 375.666 341.098 370.299 346.192 363.319C407.226 361.675 452.958 354.927 452.958 346.851C452.958 337.546 392.232 330 317.323 330Z" fill="#FAFAFD"/>
<path fill-rule="evenodd" clip-rule="evenodd" d="M165.85 272.4C156.782 272.725 150.332 281.195 152.435 290.024C153.99 296.555 160.072 301.18 166.78 300.936C175.843 300.605 182.284 292.141 180.187 283.319C178.635 276.79 172.558 272.161 165.85 272.4ZM169.805 254.219C172.72 254.585 175.536 255.339 178.191 256.433L184.354 251.268L194.941 259.327L191.605 266.643C193.368 268.91 194.846 271.423 195.976 274.137L203.984 274.843L205.771 288.028L198.241 290.842C197.877 293.758 197.122 296.574 196.026 299.228L201.191 305.392L193.135 315.978L185.816 312.643C183.551 314.406 181.037 315.883 178.322 317.012L177.618 325.02L164.432 326.81L161.619 319.279C158.702 318.915 155.887 318.159 153.232 317.064L147.067 322.23L136.481 314.171L139.817 306.853C138.055 304.588 136.578 302.074 135.447 299.361L127.441 298.655L125.651 285.47L133.182 282.656C133.546 279.741 134.301 276.923 135.397 274.269L130.231 268.105L138.287 257.518L145.606 260.854C147.872 259.092 150.385 257.615 153.1 256.485L153.805 248.479L166.989 246.689L169.805 254.219Z" fill="#E2E2F1"/>
<path fill-rule="evenodd" clip-rule="evenodd" d="M40.8528 167.841C33.6691 166.23 26.5368 170.748 24.9258 177.934C23.3141 185.118 27.8332 192.248 35.0167 193.86C42.2025 195.472 49.3325 190.954 50.9444 183.769C52.5555 176.583 48.0388 169.454 40.8528 167.841ZM51.5456 153.573C53.9786 154.84 56.1995 156.415 58.1685 158.238L65.2451 155.718L71.8964 166.217L66.5965 171.54C67.403 174.098 67.8799 176.78 67.9868 179.523L74.7702 182.745L72.0482 194.871L64.5396 194.888C63.2726 197.322 61.696 199.543 59.8727 201.511L62.392 208.589L51.8949 215.239L46.5708 209.94C44.0136 210.746 41.3323 211.222 38.5878 211.329L35.3674 218.113L23.2395 215.392L23.2234 207.883C20.7886 206.616 18.5684 205.039 16.5999 203.216L9.52194 205.737L2.87047 195.238L8.17225 189.914C7.36541 187.356 6.89002 184.676 6.78221 181.932L0 178.71L2.7198 166.583L10.2284 166.567C11.4954 164.133 13.0726 161.91 14.8951 159.943L12.3761 152.865L22.873 146.214L28.1974 151.516C30.7548 150.708 33.4356 150.232 36.1803 150.125L39.4008 143.343L51.5275 146.063L51.5456 153.573Z" fill="#2B8CFF"/>
<path d="M35.3674 218.113L23.2395 215.392L23.2234 207.883C20.7886 206.616 18.5684 205.039 16.5999 203.216L9.52194 205.737L2.87047 195.238L8.17225 189.914C7.36541 187.356 6.89002 184.676 6.78221 181.932L0 178.71L2.7198 166.583L10.2284 166.567C11.4954 164.133 13.0726 161.91 14.8951 159.943L12.3761 152.865L22.873 146.214L28.1974 151.516C30.7548 150.708 33.4356 150.232 36.1803 150.125L39.4008 143.343L51.5275 146.063L51.5456 153.573C53.9027 154.801 56.0606 156.317 57.9822 158.067V211.382L51.8949 215.239L46.5708 209.94C44.0136 210.746 41.3323 211.222 38.5878 211.329L35.3674 218.113ZM24.5997 180.864C24.5997 186.965 28.8153 192.469 35.0167 193.86C35.9991 194.081 36.9809 194.186 37.9471 194.186C44.049 194.186 49.5533 189.971 50.9444 183.769C51.1644 182.787 51.2704 181.806 51.2704 180.84C51.2704 174.737 47.0564 169.233 40.8528 167.841C39.8707 167.621 38.8894 167.515 37.9228 167.515C31.8218 167.515 26.3165 171.73 24.9258 177.934C24.7055 178.915 24.5997 179.897 24.5997 180.864Z" fill="#E3F0FF"/>
<path d="M57.9814 274.511H454.751V0.225037H57.9814V274.511Z" fill="white"/>
<path d="M454.752 274.51C454.751 273.027 454.681 167.089 454.572 0.224548L454.752 0.404816C344.724 0.416901 207.038 0.432434 58.0148 0.448822H57.9821L58.2072 0.224548C58.1994 98.1995 58.1934 191.264 58.1873 274.51L57.9821 274.306C292.145 274.426 452.926 274.509 454.752 274.51C452.928 274.512 292.145 274.595 57.9821 274.716H57.7776V274.51C57.7716 191.264 57.7647 98.1995 57.7578 0.224548V-0.000549316H57.9821H58.0148C207.038 0.0158386 344.724 0.0313416 454.752 0.0434265H454.933V0.224548C454.823 167.089 454.752 273.028 454.752 274.51Z" fill="#EFEFF6"/>
<path d="M454.752 16.1406H57.9814V0.224585H454.752V16.1406Z" fill="#E2E2F1"/>
<path d="M69.3027 7.88034C69.3027 9.23011 68.2091 10.3237 66.8593 10.3237C65.5095 10.3237 64.415 9.23011 64.415 7.88034C64.415 6.53058 65.5095 5.43609 66.8593 5.43609C68.2091 5.43609 69.3027 6.53058 69.3027 7.88034Z" fill="white"/>
<path d="M78.1171 7.88034C78.1171 9.23011 77.0226 10.3237 75.6729 10.3237C74.3231 10.3237 73.2295 9.23011 73.2295 7.88034C73.2295 6.53058 74.3231 5.43609 75.6729 5.43609C77.0226 5.43609 78.1171 6.53058 78.1171 7.88034Z" fill="white"/>
<path d="M86.9335 7.88034C86.9335 9.23011 85.839 10.3237 84.4893 10.3237C83.1395 10.3237 82.0459 9.23011 82.0459 7.88034C82.0459 6.53058 83.1395 5.43609 84.4893 5.43609C85.839 5.43609 86.9335 6.53058 86.9335 7.88034Z" fill="white"/>
<path d="M440.556 257.271C440.554 256.278 440.508 224.527 440.423 168.179L440.556 168.311C358.714 168.332 225.043 168.365 74.2691 168.403H74.2476L74.4718 168.179C74.4701 198.698 74.4692 228.515 74.4675 257.271L74.2476 257.05C283.127 257.176 438.377 257.27 440.556 257.271C438.378 257.272 283.127 257.365 74.2476 257.491H74.0268V257.271C74.0251 228.515 74.0242 198.698 74.0225 168.179V167.954H74.2476H74.2691C225.043 167.992 358.714 168.025 440.556 168.046H440.69V168.179C440.605 224.527 440.558 256.279 440.556 257.271Z" fill="#EFEFF6"/>
<path d="M252.17 160.7C252.17 160.7 252.157 159.923 252.151 158.431C252.145 156.936 252.139 154.726 252.131 151.837C252.12 146.056 252.103 137.569 252.084 126.712C252.062 105.016 252.029 73.858 251.989 35.9834L252.17 36.1645C202.866 36.1766 141.473 36.1913 75.0767 36.2076H75.062L75.2863 35.9834C75.2794 80.599 75.2725 122.95 75.2664 160.7L75.062 160.497C127.35 160.538 171.602 160.572 202.789 160.597C218.393 160.621 230.728 160.64 239.168 160.653C243.388 160.663 246.632 160.671 248.829 160.677C249.923 160.682 250.754 160.686 251.319 160.689C251.88 160.692 252.17 160.7 252.17 160.7C252.17 160.7 251.895 160.709 251.343 160.713C250.783 160.716 249.959 160.72 248.875 160.724C246.688 160.729 243.457 160.738 239.256 160.749C230.826 160.761 218.507 160.78 202.922 160.804C171.703 160.829 127.405 160.864 75.062 160.905H74.8576V160.7C74.8507 122.95 74.8447 80.599 74.8369 35.9834V35.7583H75.062H75.0767C141.473 35.7747 202.866 35.7894 252.17 35.8014H252.352V35.9834C252.313 73.9045 252.28 105.102 252.257 126.825C252.237 137.664 252.221 146.138 252.211 151.91C252.201 154.783 252.195 156.983 252.19 158.47C252.183 159.95 252.17 160.7 252.17 160.7Z" fill="#EFEFF6"/>
<path d="M94.2109 137.112L106.966 118.662C109.56 114.909 114.727 114.008 118.438 116.663L120.23 117.944C124.681 121.127 130.942 119.119 132.712 113.941L138.906 95.8224C141.424 88.4526 151.846 88.4526 154.366 95.8224L157.363 104.59C159.767 111.623 169.551 112.052 172.562 105.258L175.161 99.3922C177.753 93.5403 185.762 92.8072 189.374 98.0907C193.17 103.642 201.673 102.487 203.848 96.1225L206.746 87.6462C209.408 79.8581 220.613 80.4488 222.441 88.4733L233.525 137.112C233.525 137.112 94.5999 136.723 94.2109 137.112Z" fill="#2B8CFF"/>
<path d="M233.407 136.596L224.859 119.642C223.487 116.923 220.754 115.455 218.033 115.455C215.938 115.455 213.85 116.325 212.397 118.165C212.282 118.31 212.172 118.46 212.066 118.615L206.477 126.79C206.304 126.854 206.133 126.918 205.961 126.982C203.519 127.896 201.191 128.81 198.81 128.81C195.835 128.81 192.778 127.385 189.314 122.755L185.292 117.754C183.721 115.799 181.407 114.775 179.069 114.775C177.431 114.775 175.781 115.277 174.363 116.314L169.708 119.719C167.521 121.319 165.109 122.555 162.568 123.395C162.456 123.321 162.344 123.244 162.235 123.164L152.869 116.314C151.452 115.277 149.801 114.775 148.164 114.775C145.825 114.775 143.512 115.799 141.941 117.754L137.919 122.755C136.291 124.779 133.998 125.735 131.726 125.735C128.576 125.735 125.464 123.897 124.215 120.519L123.798 119.389C124.186 119.445 124.576 119.473 124.964 119.473C128.3 119.473 131.521 117.425 132.711 113.942L138.906 95.8231C140.165 92.1378 143.4 90.2956 146.635 90.2956C149.871 90.2956 153.106 92.1378 154.366 95.8231L157.363 104.591C158.612 108.246 161.856 110.119 165.106 110.119C168.109 110.119 171.116 108.521 172.562 105.259L175.161 99.3929C176.575 96.2009 179.601 94.532 182.646 94.532C185.182 94.532 187.732 95.6903 189.374 98.0914C191.025 100.506 193.567 101.653 196.091 101.653C199.37 101.653 202.619 99.7198 203.848 96.1233L206.746 87.6469C208.017 83.9271 211.238 82.1185 214.454 82.1185C217.972 82.1185 221.486 84.2815 222.441 88.474L233.407 136.596Z" fill="#2B8CFF"/>
<path d="M93.8525 137.591L104.217 107.27C106.645 100.165 116.649 100.042 119.252 107.085L124.216 120.518C126.365 126.333 134.034 127.585 137.92 122.754L141.941 117.753C144.614 114.429 149.428 113.795 152.87 116.313L162.235 123.164C163.602 124.163 165.252 124.702 166.946 124.702H178.865C180.558 124.702 182.209 125.241 183.575 126.241L192.444 132.728C196.082 135.388 201.2 134.51 203.743 130.79L212.066 118.614C212.172 118.46 212.283 118.31 212.397 118.164C215.739 113.934 222.432 114.829 224.859 119.641L233.764 137.305C233.764 137.305 93.8525 137.018 93.8525 137.591Z" fill="#99C8FF"/>
<path d="M233.717 137.304L222.888 128.488C215.971 123.401 210.748 125.191 205.962 126.983C200.47 129.037 195.553 131.092 189.314 122.755L185.293 117.754C182.62 114.43 177.806 113.796 174.363 116.314L169.709 119.719C165.281 122.958 159.937 124.703 154.451 124.703H148.368C146.675 124.703 145.025 125.242 143.658 126.242L134.789 132.729C131.152 135.389 128.614 135.747 122.793 130.86C122.793 130.86 116.473 125.723 116.324 125.542C113.226 121.768 106.753 121.771 103.962 125.542C103.292 126.446 102.592 127.253 101.835 128.087L93.4688 137.306C93.4688 137.306 233.717 136.731 233.717 137.304Z" fill="#2B8CFF"/>
<path d="M93.4688 137.306L101.835 128.087C102.592 127.253 103.292 126.446 103.962 125.542C105.359 123.655 107.674 122.713 110.029 122.713C112.383 122.713 114.776 123.655 116.324 125.542C116.473 125.723 122.793 130.86 122.793 130.86C126.001 133.553 128.212 134.654 130.159 134.654C131.744 134.654 133.156 133.923 134.789 132.729L143.658 126.242C145.025 125.242 146.675 124.703 148.368 124.703H154.451C159.937 124.703 165.281 122.958 169.709 119.719L174.363 116.314C175.781 115.277 177.432 114.775 179.07 114.775C181.408 114.775 183.721 115.799 185.293 117.754L189.314 122.755C192.779 127.386 195.835 128.81 198.81 128.81C201.191 128.81 203.52 127.896 205.962 126.983C208.404 126.069 210.96 125.155 213.797 125.155C216.519 125.155 219.501 125.997 222.888 128.488L233.707 137.295C233.249 137.112 217.874 137.049 197.451 137.049C158.029 137.049 99.8208 137.28 93.9509 137.303C93.6335 137.305 93.4688 137.306 93.4688 137.306Z" fill="#E3F0FF"/>
<path d="M233.715 137.303L233.705 137.295C233.712 137.298 233.715 137.301 233.715 137.303Z" fill="#99C8FF"/>
<path d="M107.766 69.1836H103.979V65.3956H107.766V69.1836Z" fill="#E2E2F1"/>
<path d="M149.524 69.1836H145.736V65.3956H149.524V69.1836Z" fill="#E2E2F1"/>
<path d="M191.283 69.1836H187.495V65.3956H191.283V69.1836Z" fill="#E2E2F1"/>
<path d="M216.386 242.039L225.502 229.04C226.563 227.526 228.668 227.195 230.144 228.309L234.939 231.928C236.505 233.111 238.755 232.655 239.735 230.955L253.569 206.996C254.723 204.997 257.532 204.793 258.962 206.606L267.598 217.558C268.992 219.324 271.712 219.186 272.919 217.288L279.231 207.367C280.547 205.299 283.589 205.363 284.815 207.488L290.025 216.513C291.251 218.636 294.29 218.703 295.608 216.638L313.426 188.71C314.694 186.723 317.585 186.692 318.895 188.651L348.334 232.688C349.514 234.454 352.039 234.641 353.467 233.069L371.352 213.381C372.608 211.999 374.765 211.949 376.083 213.271L390.31 227.55C391.827 229.074 394.377 228.74 395.453 226.878L420.903 182.794C422.574 179.901 426.999 181.087 426.999 184.428V242.039H216.386Z" fill="#2B8CFF"/>
<path d="M310.095 248.906C309.97 248.906 309.87 248.505 309.87 248.013C309.87 247.519 309.97 247.119 310.095 247.119C310.219 247.119 310.319 247.519 310.319 248.013C310.319 248.505 310.219 248.906 310.095 248.906Z" fill="#0B233A"/>
<path d="M333.369 248.906C333.245 248.906 333.144 248.505 333.144 248.013C333.144 247.519 333.245 247.119 333.369 247.119C333.493 247.119 333.594 247.519 333.594 248.013C333.594 248.505 333.493 248.906 333.369 248.906Z" fill="#0B233A"/>
<path d="M441.712 132.128C441.712 132.128 441.701 131.61 441.695 130.617C441.691 129.618 441.685 128.146 441.676 126.216C441.667 122.351 441.654 116.664 441.635 109.343C441.615 94.7147 441.585 73.5677 441.547 47.4607L441.712 47.6255C395.56 47.641 333.163 47.6626 264.615 47.6859H264.604L264.828 47.4607C264.824 77.2703 264.82 105.914 264.816 132.128L264.604 131.916C316.203 131.957 360.453 131.992 391.811 132.017C407.501 132.042 419.965 132.062 428.513 132.076C432.787 132.087 436.08 132.096 438.313 132.103C439.423 132.108 440.269 132.112 440.844 132.115C441.416 132.12 441.712 132.128 441.712 132.128C441.712 132.128 441.432 132.137 440.871 132.141C440.301 132.144 439.463 132.148 438.363 132.155C436.139 132.16 432.862 132.169 428.607 132.18C420.07 132.194 407.622 132.214 391.953 132.239C360.56 132.264 316.261 132.299 264.604 132.34L264.391 132.341V132.128C264.388 105.914 264.383 77.2703 264.379 47.4607V47.2356H264.604H264.615C333.163 47.2589 395.56 47.2805 441.712 47.296H441.877V47.4607C441.84 73.61 441.81 94.7914 441.788 109.444C441.771 116.748 441.756 122.423 441.747 126.28C441.74 128.196 441.734 129.659 441.73 130.65C441.724 131.634 441.712 132.128 441.712 132.128Z" fill="#EFEFF6"/>
<path d="M401.627 84.3789H279.625C278.502 84.3789 277.591 83.469 277.591 82.3461C277.591 81.2231 278.502 80.3132 279.625 80.3132H401.627C402.75 80.3132 403.66 81.2231 403.66 82.3461C403.66 83.469 402.75 84.3789 401.627 84.3789Z" fill="#E2E2F1"/>
<path d="M401.627 68.2769H279.625C278.502 68.2769 277.591 67.3661 277.591 66.244C277.591 65.1202 278.502 64.2103 279.625 64.2103H401.627C402.75 64.2103 403.66 65.1202 403.66 66.244C403.66 67.3661 402.75 68.2769 401.627 68.2769Z" fill="#E2E2F1"/>
<path d="M334.752 84.3789H279.625C278.502 84.3789 277.591 83.469 277.591 82.3461C277.591 81.2231 278.502 80.3132 279.625 80.3132H334.752C335.875 80.3132 336.785 81.2231 336.785 82.3461C336.785 83.469 335.875 84.3789 334.752 84.3789Z" fill="#42526E"/>
<path d="M401.627 99.291H279.625C278.502 99.291 277.591 98.3811 277.591 97.2582C277.591 96.1352 278.502 95.2253 279.625 95.2253H401.627C402.75 95.2253 403.66 96.1352 403.66 97.2582C403.66 98.3811 402.75 99.291 401.627 99.291Z" fill="#E2E2F1"/>
<path d="M352.713 99.291H279.75C278.233 99.291 277.591 98.3811 277.591 97.2582C277.591 96.1352 278.233 95.2253 279.027 95.2253H351.99C353.419 95.2253 354.327 96.1352 354.327 97.2582C354.327 98.9236 352.784 99.291 352.713 99.291Z" fill="#42526E"/>
<path d="M401.627 113.847H279.625C278.502 113.847 277.591 112.938 277.591 111.815C277.591 110.692 278.502 109.781 279.625 109.781H401.627C402.75 109.781 403.66 110.692 403.66 111.815C403.66 112.938 402.75 113.847 401.627 113.847Z" fill="#E2E2F1"/>
<path d="M324.94 113.847H279.625C278.502 113.847 277.591 112.938 277.591 111.815C277.591 110.692 278.502 109.781 279.625 109.781H324.94C326.063 109.781 326.973 110.692 326.973 111.815C326.973 112.938 326.063 113.847 324.94 113.847Z" fill="#42526E"/>
<path d="M360.395 68.2769H279.625C278.502 68.2769 277.591 67.3661 277.591 66.244C277.591 65.1202 278.502 64.2103 279.625 64.2103H360.395C361.518 64.2103 362.429 65.1202 362.429 66.244C362.429 67.3661 361.518 68.2769 360.395 68.2769Z" fill="#2B8CFF"/>
<path d="M398.781 140.802C398.781 140.927 368.92 141.028 332.091 141.028C295.251 141.028 265.396 140.927 265.396 140.802C265.396 140.678 295.251 140.578 332.091 140.578C368.92 140.578 398.781 140.678 398.781 140.802Z" fill="#EFEFF6"/>
<path d="M398.781 148.71C398.781 148.834 368.92 148.935 332.091 148.935C295.251 148.935 265.396 148.834 265.396 148.71C265.396 148.586 295.251 148.485 332.091 148.485C368.92 148.485 398.781 148.586 398.781 148.71Z" fill="#EFEFF6"/>
<path d="M398.781 155.865C398.781 155.988 368.92 156.089 332.091 156.089C295.251 156.089 265.396 155.988 265.396 155.865C265.396 155.74 295.251 155.64 332.091 155.64C368.92 155.64 398.781 155.74 398.781 155.865Z" fill="#EFEFF6"/>
<path d="M98.6283 236.875C97.3044 236.875 96.2314 235.802 96.2314 234.478V189.502C96.2314 188.178 97.3044 187.104 98.6283 187.104C99.9521 187.104 101.026 188.178 101.026 189.502V234.478C101.026 235.802 99.9521 236.875 98.6283 236.875Z" fill="#E2E2F1"/>
<path d="M98.6283 237.087C97.3044 237.087 96.2314 236.013 96.2314 234.689V205.694C96.2314 204.37 97.3044 203.298 98.6283 203.298C99.9521 203.298 101.026 204.37 101.026 205.694V234.689C101.026 236.013 99.9521 237.087 98.6283 237.087Z" fill="#2B8CFF"/>
<path d="M108.211 236.875C106.887 236.875 105.813 235.802 105.813 234.478V189.502C105.813 188.178 106.887 187.104 108.211 187.104C109.534 187.104 110.608 188.178 110.608 189.502V234.478C110.608 235.802 109.534 236.875 108.211 236.875Z" fill="#E2E2F1"/>
<path d="M108.211 237.087C106.887 237.087 105.813 236.013 105.813 234.689V196.562C105.813 195.239 106.887 194.165 108.211 194.165C109.534 194.165 110.608 195.239 110.608 196.562V234.689C110.608 236.013 109.534 237.087 108.211 237.087Z" fill="#2B8CFF"/>
<path d="M117.794 236.875C116.47 236.875 115.396 235.802 115.396 234.478V189.502C115.396 188.178 116.47 187.104 117.794 187.104C119.118 187.104 120.191 188.178 120.191 189.502V234.478C120.191 235.802 119.118 236.875 117.794 236.875Z" fill="#E2E2F1"/>
<path d="M117.794 237.087C116.47 237.087 115.396 236.013 115.396 234.689V212.544C115.396 211.219 116.47 210.146 117.794 210.146C119.118 210.146 120.191 211.219 120.191 212.544V234.689C120.191 236.013 119.118 237.087 117.794 237.087Z" fill="#2B8CFF"/>
<path d="M127.376 236.875C126.052 236.875 124.979 235.802 124.979 234.478V189.502C124.979 188.178 126.052 187.104 127.376 187.104C128.7 187.104 129.774 188.178 129.774 189.502V234.478C129.774 235.802 128.7 236.875 127.376 236.875Z" fill="#E2E2F1"/>
<path d="M127.376 237.087C126.052 237.087 124.979 236.013 124.979 234.689V196.562C124.979 195.239 126.052 194.165 127.376 194.165C128.7 194.165 129.774 195.239 129.774 196.562V234.689C129.774 236.013 128.7 237.087 127.376 237.087Z" fill="#2B8CFF"/>
<path d="M136.962 236.875C135.637 236.875 134.564 235.802 134.564 234.478V189.502C134.564 188.178 135.637 187.104 136.962 187.104C138.286 187.104 139.359 188.178 139.359 189.502V234.478C139.359 235.802 138.286 236.875 136.962 236.875Z" fill="#E2E2F1"/>
<path d="M136.962 237.087C135.637 237.087 134.564 236.013 134.564 234.689V203.868C134.564 202.545 135.637 201.471 136.962 201.471C138.286 201.471 139.359 202.545 139.359 203.868V234.689C139.359 236.013 138.286 237.087 136.962 237.087Z" fill="#2B8CFF"/>
<path d="M146.543 236.875C145.219 236.875 144.146 235.802 144.146 234.478V189.502C144.146 188.178 145.219 187.104 146.543 187.104C147.867 187.104 148.941 188.178 148.941 189.502V234.478C148.941 235.802 147.867 236.875 146.543 236.875Z" fill="#E2E2F1"/>
<path d="M146.543 236.875C145.219 236.875 144.146 235.802 144.146 234.689V212.544C144.146 211.008 145.219 209.934 146.543 209.934C147.867 209.934 148.941 211.008 148.941 212.332V234.478C148.941 235.802 147.867 236.875 146.543 236.875Z" fill="#2B8CFF"/>
<path d="M156.126 236.875C154.802 236.875 153.729 235.802 153.729 234.478V189.502C153.729 188.178 154.802 187.104 156.126 187.104C157.45 187.104 158.524 188.178 158.524 189.502V234.478C158.524 235.802 157.45 236.875 156.126 236.875Z" fill="#E2E2F1"/>
<path d="M156.126 237.087C154.802 237.087 153.729 236.013 153.729 234.689V194.28C153.729 192.956 154.802 191.882 156.126 191.882C157.45 191.882 158.524 192.956 158.524 194.28V234.689C158.524 236.013 157.45 237.087 156.126 237.087Z" fill="#2B8CFF"/>
<path d="M165.712 236.875C164.387 236.875 163.314 235.802 163.314 234.478V189.502C163.314 188.178 164.387 187.104 165.712 187.104C167.036 187.104 168.109 188.178 168.109 189.502V234.478C168.109 235.802 167.036 236.875 165.712 236.875Z" fill="#E2E2F1"/>
<path d="M165.712 237.087C164.387 237.087 163.314 236.013 163.314 234.689V217.109C163.314 215.785 164.387 214.712 165.712 214.712C167.036 214.712 168.109 215.785 168.109 217.109V234.689C168.109 236.013 167.036 237.087 165.712 237.087Z" fill="#2B8CFF"/>
<path d="M175.294 236.875C173.97 236.875 172.897 235.802 172.897 234.478V189.502C172.897 188.178 173.97 187.104 175.294 187.104C176.618 187.104 177.692 188.178 177.692 189.502V234.478C177.692 235.802 176.618 236.875 175.294 236.875Z" fill="#E2E2F1"/>
<path d="M175.294 236.875C173.97 236.875 172.897 235.802 172.897 234.689V228.526C172.897 226.99 173.97 225.916 175.294 225.916C176.618 225.916 177.692 226.99 177.692 228.314V234.478C177.692 235.802 176.618 236.875 175.294 236.875Z" fill="#2B8CFF"/>
<path d="M184.877 236.875C183.553 236.875 182.479 235.802 182.479 234.478V189.502C182.479 188.178 183.553 187.104 184.877 187.104C186.2 187.104 187.274 188.178 187.274 189.502V234.478C187.274 235.802 186.2 236.875 184.877 236.875Z" fill="#E2E2F1"/>
<path d="M184.877 236.875C183.553 236.875 182.479 235.802 182.479 234.689V212.544C182.479 211.008 183.553 209.934 184.877 209.934C186.2 209.934 187.274 211.008 187.274 212.332V234.478C187.274 235.802 186.2 236.875 184.877 236.875Z" fill="#2B8CFF"/>
<path d="M204.736 246.275C204.612 246.275 204.511 231.473 204.511 213.217C204.511 194.955 204.612 180.156 204.736 180.156C204.859 180.156 204.96 194.955 204.96 213.217C204.96 231.473 204.859 246.275 204.736 246.275Z" fill="#EFEFF6"/>
<path d="M260.505 184.468C260.505 184.591 251.378 184.692 240.123 184.692C228.863 184.692 219.739 184.591 219.739 184.468C219.739 184.344 228.863 184.243 240.123 184.243C251.378 184.243 260.505 184.344 260.505 184.468Z" fill="#0B233A"/>
<path d="M216.386 242.039H426.999V181.156H216.386V242.039Z" fill="#E3F0FF"/>
<path d="M362.243 314.021L362.68 329.698C362.68 329.698 378.763 334.519 379.126 337.409L348.758 339.348L347.074 314.948L362.243 314.021Z" fill="#2B8CFF"/>
<path d="M353.206 328.981C352.629 329.18 352.265 329.867 352.439 330.452C352.614 331.037 353.309 331.413 353.89 331.225C354.47 331.037 354.933 330.226 354.694 329.663C354.455 329.102 353.615 328.705 353.096 329.027" fill="#E2E2F1"/>
<path d="M365.458 338.281L379.128 337.408C379.076 336.991 378.695 336.534 378.083 336.056C378.479 336.253 379.195 336.709 379.128 337.408L365.458 338.281Z" fill="white"/>
<path d="M348.757 339.348L348.684 336.882L377.827 335.945C377.827 335.945 377.931 335.982 378.08 336.056C378.692 336.534 379.073 336.991 379.125 337.409L365.455 338.281L348.757 339.348Z" fill="#E3F0FF"/>
<path d="M363.164 329.513C363.168 329.661 362.431 329.775 361.732 330.3C361.019 330.805 360.684 331.471 360.543 331.421C360.405 331.401 360.569 330.5 361.427 329.882C362.28 329.255 363.187 329.374 363.164 329.513Z" fill="#0066DF"/>
<path d="M366.432 330.627C366.476 330.769 365.849 331.062 365.386 331.721C364.903 332.366 364.82 333.053 364.671 333.056C364.533 333.088 364.375 332.226 364.967 331.418C365.553 330.603 366.42 330.486 366.432 330.627Z" fill="#0066DF"/>
<path d="M368.485 334.323C368.353 334.362 368.099 333.634 368.428 332.798C368.752 331.96 369.43 331.595 369.5 331.714C369.592 331.83 369.169 332.295 368.91 332.986C368.634 333.67 368.632 334.298 368.485 334.323Z" fill="#0066DF"/>
<path d="M362.668 325.951C362.614 326.089 361.921 325.928 361.087 326.038C360.25 326.132 359.616 326.455 359.53 326.333C359.438 326.231 360.039 325.642 361.024 325.526C362.008 325.402 362.733 325.829 362.668 325.951Z" fill="#0066DF"/>
<path d="M362.521 322.789C362.527 322.849 361.947 322.978 360.999 322.878C360.528 322.827 359.969 322.709 359.377 322.49C359.082 322.38 358.777 322.246 358.475 322.083C358.329 322.002 358.156 321.922 357.992 321.754C357.818 321.61 357.699 321.222 357.873 320.97C358.014 320.726 358.283 320.608 358.502 320.589C358.726 320.568 358.909 320.601 359.077 320.632C359.421 320.692 359.745 320.783 360.043 320.895C360.64 321.122 361.134 321.427 361.504 321.726C362.251 322.334 362.527 322.873 362.478 322.904C362.414 322.958 362.042 322.515 361.29 322.023C360.916 321.778 360.441 321.53 359.885 321.345C359.606 321.254 359.308 321.179 358.995 321.132C358.667 321.068 358.394 321.083 358.32 321.231C358.294 321.287 358.292 321.31 358.365 321.399C358.44 321.481 358.576 321.558 358.719 321.639C358.999 321.797 359.278 321.932 359.552 322.046C360.098 322.276 360.616 322.423 361.059 322.516C361.943 322.703 362.519 322.708 362.521 322.789Z" fill="#0B233A"/>
<path d="M362.343 323.015C362.292 323.041 361.965 322.528 361.848 321.572C361.792 321.097 361.805 320.516 361.949 319.893C362.023 319.582 362.13 319.262 362.278 318.944C362.436 318.633 362.628 318.217 363.199 318.115C363.498 318.085 363.763 318.304 363.861 318.499C363.975 318.698 364.006 318.873 364.053 319.046C364.131 319.397 364.147 319.745 364.119 320.07C364.065 320.723 363.834 321.278 363.57 321.683C363.026 322.508 362.419 322.725 362.404 322.675C362.349 322.604 362.848 322.285 363.254 321.499C363.453 321.112 363.621 320.607 363.644 320.039C363.655 319.756 363.632 319.458 363.559 319.163C363.491 318.843 363.354 318.59 363.235 318.631C363.083 318.638 362.843 318.897 362.735 319.163C362.596 319.446 362.49 319.732 362.411 320.012C362.255 320.572 362.206 321.103 362.213 321.547C362.228 322.441 362.423 322.987 362.343 323.015Z" fill="#0B233A"/>
<path d="M297.978 313.336L296.148 333.478L290.107 348.993C289.671 350.111 290.274 351.365 291.419 351.723C292.061 351.924 292.754 351.805 293.288 351.398C296.691 348.807 309.157 339.21 309.209 337.728C309.268 336.013 312.548 316.609 312.548 316.609L297.978 313.336Z" fill="#2B8CFF"/>
<path d="M292.085 351.834C291.86 351.834 291.635 351.798 291.418 351.723C291.622 351.787 291.832 351.818 292.041 351.818C292.485 351.818 292.923 351.675 293.286 351.398C296.24 349.149 306.02 341.623 308.586 338.706C308.623 338.706 308.655 338.706 308.692 338.706C308.577 338.864 308.446 339.014 308.301 339.149C306.854 340.504 302.777 344.155 293.348 351.405C292.982 351.686 292.535 351.834 292.085 351.834ZM308.957 338.267C308.948 338.267 308.951 338.267 308.943 338.267C308.958 338.245 308.974 338.223 308.988 338.203C308.978 338.224 308.968 338.246 308.957 338.267Z" fill="white"/>
<path d="M308.586 338.707C308.727 338.546 308.846 338.399 308.942 338.268C308.951 338.268 308.947 338.268 308.957 338.268C308.881 338.422 308.792 338.569 308.691 338.707C308.655 338.707 308.623 338.707 308.586 338.707Z" fill="#E2E2F1"/>
<path d="M309.227 337.471C309.251 337.217 309.297 336.843 309.362 336.371L309.265 337.223C309.255 337.306 309.242 337.389 309.227 337.471Z" fill="white"/>
<path d="M292.041 351.819C291.832 351.819 291.622 351.788 291.418 351.724L309.362 336.373C309.297 336.844 309.25 337.219 309.226 337.472C309.176 337.726 309.096 337.971 308.988 338.203C308.974 338.224 308.958 338.245 308.943 338.267C308.847 338.398 308.728 338.544 308.586 338.706C306.02 341.623 296.24 349.149 293.286 351.398C292.923 351.675 292.485 351.819 292.041 351.819Z" fill="#E3F0FF"/>
<path d="M306.533 331.658C306.092 331.658 305.645 331.41 305.45 331.009C305.199 330.489 305.403 329.805 305.877 329.481C306.034 329.345 306.241 329.286 306.458 329.286C306.884 329.286 307.352 329.516 307.568 329.86C307.897 330.381 307.567 331.264 307.02 331.545C306.869 331.622 306.701 331.658 306.533 331.658Z" fill="#E3F0FF"/>
<path d="M297.012 343.464C296.891 343.507 296.558 342.403 295.428 341.701C294.318 340.965 293.176 341.122 293.164 340.995C293.152 340.943 293.425 340.817 293.902 340.804C294.376 340.788 295.049 340.932 295.667 341.327C296.285 341.726 296.695 342.276 296.878 342.714C297.065 343.154 297.063 343.455 297.012 343.464Z" fill="#0066DF"/>
<path d="M295.274 345.994C295.169 346.07 294.599 345.343 293.593 344.927C292.597 344.488 291.677 344.579 291.66 344.45C291.613 344.341 292.629 344.025 293.768 344.518C294.91 345 295.386 345.952 295.274 345.994Z" fill="#0066DF"/>
<path d="M300.07 340.321C299.965 340.406 299.093 339.284 297.586 338.5C296.091 337.691 294.673 337.6 294.684 337.464C294.663 337.354 296.189 337.244 297.794 338.107C299.408 338.952 300.173 340.276 300.07 340.321Z" fill="#0066DF"/>
<path d="M301.137 334.244C301.07 334.358 300.012 333.768 298.573 333.551C297.137 333.314 295.95 333.551 295.921 333.421C295.877 333.317 297.098 332.861 298.643 333.111C300.189 333.348 301.211 334.158 301.137 334.244Z" fill="#0066DF"/>
<path d="M301.824 328.344C301.748 328.452 300.709 327.656 299.175 327.551C297.643 327.413 296.491 328.037 296.434 327.917C296.406 327.871 296.654 327.644 297.148 327.43C297.638 327.214 298.385 327.045 299.21 327.109C300.035 327.176 300.746 327.46 301.195 327.75C301.65 328.04 301.859 328.303 301.824 328.344Z" fill="#0066DF"/>
<path d="M299.338 326.434C299.312 326.432 299.298 326.156 299.398 325.672C299.497 325.19 299.72 324.489 300.228 323.749C300.488 323.401 300.768 322.946 301.36 322.745C301.654 322.644 302.064 322.743 302.272 323.036C302.478 323.321 302.516 323.66 302.486 323.98C302.32 325.252 301.085 326.362 299.629 326.381C298.17 326.375 296.959 325.404 296.514 324.237C296.42 323.939 296.375 323.579 296.57 323.258C296.762 322.933 297.185 322.842 297.468 322.925C298.055 323.082 298.392 323.468 298.714 323.764C299.343 324.399 299.704 325.034 299.907 325.481C300.11 325.931 300.161 326.202 300.137 326.211C300.06 326.255 299.741 325.166 298.496 323.99C298.179 323.716 297.817 323.373 297.392 323.285C297.185 323.241 296.995 323.303 296.902 323.464C296.807 323.617 296.819 323.874 296.903 324.11C297.282 325.066 298.391 325.952 299.625 325.937C300.851 325.933 301.936 324.956 302.079 323.933C302.11 323.686 302.073 323.43 301.958 323.268C301.844 323.109 301.651 323.047 301.456 323.101C301.049 323.214 300.737 323.606 300.483 323.933C299.468 325.313 299.425 326.464 299.338 326.434Z" fill="#0B233A"/>
<path d="M293.391 169.411L292.191 326.499L314.282 327.91L318.933 196.69L345.409 327.169L365.488 325.055L344.132 169.386L293.391 169.411Z" fill="#42526E"/>
<path d="M320.249 41.8622C312.788 41.2808 306.294 46.9266 305.843 54.3973C305.469 60.6149 305.128 67.3404 305.171 70.7282C305.26 78.0005 312.533 79.1312 312.533 79.1312C312.533 79.1312 312.356 81.2866 312.155 83.9594C311.75 89.3429 315.872 94.0002 321.266 94.2478C326.554 94.491 331.035 90.3977 331.273 85.1107L332.589 55.8143C332.912 48.5963 327.453 42.4236 320.249 41.8622Z" fill="#FFB3AD"/>
<path d="M312.521 79.0274C312.521 79.0274 317.116 79.4018 322.002 76.3339C322.002 76.3339 319.761 81.5674 312.505 80.9119L312.521 79.0274Z" fill="#E79C97"/>
<path d="M331.917 58.3132C332.041 58.2589 336.914 56.8349 336.755 61.8071C336.595 66.7784 331.637 65.5933 331.633 65.4502C331.629 65.3079 331.917 58.3132 331.917 58.3132Z" fill="#FFB3AD"/>
<path d="M333.213 63.6164C333.235 63.6009 333.297 63.6794 333.441 63.751C333.582 63.8217 333.826 63.8743 334.089 63.7855C334.619 63.6095 335.088 62.7893 335.142 61.8941C335.169 61.4421 335.087 61.0083 334.939 60.6461C334.799 60.2778 334.572 60.0165 334.309 59.9604C334.047 59.8914 333.855 60.0441 333.789 60.1821C333.718 60.3192 333.747 60.4192 333.72 60.4261C333.707 60.4391 333.616 60.3399 333.663 60.1363C333.687 60.038 333.749 59.9225 333.869 59.831C333.991 59.7379 334.168 59.6939 334.352 59.7198C334.734 59.7586 335.069 60.1217 335.232 60.5193C335.416 60.9186 335.518 61.4068 335.488 61.9148C335.424 62.9152 334.881 63.8363 334.155 64.0209C333.803 64.1011 333.514 63.9864 333.368 63.864C333.218 63.7363 333.195 63.625 333.213 63.6164Z" fill="#E79C97"/>
<path d="M332.486 58.0847C332.549 58.8454 332.524 59.7251 332.361 60.4712C332.2 61.2172 331.776 61.9451 331.093 62.2867C329.843 62.9094 328.276 61.9538 327.716 60.6756C327.156 59.3974 327.312 57.9355 327.44 56.5452C327.614 54.6504 327.719 52.7245 327.355 50.8564C326.991 48.9882 326.114 47.1615 324.624 45.9774C323.134 44.7932 320.976 44.3654 319.268 45.2046C318.214 45.7229 317.421 46.6501 316.437 47.2918C315.553 47.8696 314.476 48.212 313.433 48.0481C312.388 47.8851 311.407 47.1495 311.13 46.1291C310.826 45.0166 311.409 43.8065 312.302 43.0786C313.196 42.3507 314.347 42.0221 315.479 41.8065C318.621 41.2088 321.944 41.3597 324.914 42.5413C327.885 43.7229 330.511 45.9687 331.761 48.9106C333.208 52.3139 333.02 54.3916 332.601 58.0847" fill="#42526E"/>
<path d="M231.203 96.1656L241.808 98.3019L256.392 107.592L251.42 117.06C251.42 117.06 246.291 115.629 244.794 114.306C243.297 112.983 241.639 112.835 241.639 112.835C241.639 112.835 241.74 115.178 239.964 114.773C238.189 114.368 235.226 113.864 235.729 111.366C235.729 111.366 234.409 111.007 234.483 109.258C234.483 109.258 233.019 109.149 233.415 106.721C233.811 104.294 235.564 101.163 240.401 102.044C240.652 102.095 240.985 101.616 240.546 101.451L233.068 99.6879C233.068 99.6879 228.385 97.8379 231.203 96.1656Z" fill="#FFB3AD"/>
<path d="M236.436 106.609C236.456 106.55 237.134 106.72 238.213 107.041C238.754 107.223 239.384 107.35 240.115 107.686C240.469 107.87 240.842 108.184 240.973 108.67C241.111 109.173 240.847 109.703 240.465 110.001C239.643 110.621 238.66 110.429 237.965 110.328C237.224 110.219 236.559 110.08 236.012 109.926C234.915 109.617 234.288 109.288 234.309 109.237C234.333 109.173 234.995 109.393 236.086 109.617C236.632 109.729 237.286 109.832 238.019 109.917C238.391 109.954 238.775 110.021 239.143 109.996C239.511 109.973 239.906 109.875 240.183 109.65C240.469 109.423 240.627 109.077 240.547 108.778C240.471 108.467 240.21 108.21 239.918 108.05C239.306 107.743 238.621 107.554 238.11 107.342C237.058 106.943 236.416 106.667 236.436 106.609Z" fill="#E79C97"/>
<path d="M239.025 105.238C239.012 105.365 238.378 105.382 237.758 105.785C237.127 106.169 236.839 106.734 236.718 106.691C236.595 106.677 236.742 105.888 237.519 105.404C238.291 104.913 239.066 105.12 239.025 105.238Z" fill="#E79C97"/>
<path d="M240.144 109.887C240.164 109.868 240.257 109.899 240.389 110.03C240.552 110.165 240.582 110.487 240.619 110.752C240.672 111.077 240.621 111.517 240.314 111.885C240.005 112.285 239.395 112.367 238.937 112.287C238.025 112.149 237.203 112.015 236.614 111.819C236.029 111.629 235.706 111.421 235.729 111.367C235.755 111.306 236.112 111.407 236.692 111.511C237.268 111.621 238.094 111.705 238.993 111.842C239.427 111.904 239.791 111.851 240.006 111.609C240.23 111.372 240.312 111.045 240.302 110.781C240.298 110.453 240.329 110.261 240.247 110.132C240.177 109.994 240.12 109.91 240.144 109.887Z" fill="#E79C97"/>
<path d="M240.064 111.836C240.055 111.782 240.257 111.689 240.58 111.781C240.901 111.87 241.263 112.156 241.531 112.539C241.848 113.014 241.739 113.512 241.644 113.787C241.538 114.077 241.412 114.222 241.357 114.201C241.296 114.179 241.315 113.994 241.333 113.721C241.351 113.452 241.358 113.072 241.164 112.799C240.927 112.462 240.669 112.206 240.454 112.073C240.241 111.935 240.067 111.904 240.064 111.836Z" fill="#E79C97"/>
<path d="M248.216 106.352L243.096 106.139L237.721 107.188C237.721 107.188 237.278 108.165 239.767 108.83C242.256 109.494 244.557 109.056 244.557 109.056C244.557 109.056 246.774 112.29 249.657 113.035" fill="#FFB3AD"/>
<path d="M249.657 113.033C249.652 113.053 249.488 113.024 249.183 112.948C248.882 112.862 248.446 112.7 247.935 112.414C246.906 111.85 245.594 110.776 244.394 109.167L244.594 109.25C242.858 109.517 240.767 109.519 238.704 108.697C238.404 108.561 238.108 108.405 237.854 108.16C237.615 107.918 237.363 107.563 237.519 107.094L237.553 106.992L237.678 106.968C239.657 106.598 241.483 106.255 243.061 105.96L243.084 105.956L243.104 105.957C244.66 106.042 245.939 106.121 246.828 106.19C247.718 106.257 248.218 106.313 248.217 106.35C248.215 106.387 247.712 106.402 246.819 106.396C245.927 106.39 244.646 106.363 243.088 106.319L243.131 106.316C241.558 106.635 239.737 107.004 237.764 107.404L237.923 107.278C237.876 107.404 237.972 107.668 238.166 107.839C238.355 108.023 238.616 108.166 238.887 108.286C240.799 109.055 242.876 109.087 244.52 108.861L244.649 108.843L244.72 108.943C245.843 110.512 247.094 111.614 248.054 112.213C249.016 112.831 249.676 112.972 249.657 113.033Z" fill="#E79C97"/>
<path d="M241.97 103.353C241.903 103.455 241.412 103.232 241.04 102.705C240.666 102.18 240.618 101.641 240.735 101.612C240.858 101.577 241.08 101.991 241.406 102.445C241.726 102.903 242.044 103.25 241.97 103.353Z" fill="#E79C97"/>
<path d="M298.157 170.622C306.962 174.424 317.264 175.556 328.891 174.323L337.407 87.5948L331.369 82.9591L317.456 93.3001L312.689 83.336L301.519 99.3822L298.157 170.622Z" fill="#EFEFF6"/>
<path d="M312.774 174.8C312.766 174.801 312.749 174.732 312.726 174.594C312.699 174.43 312.668 174.229 312.629 173.982C312.549 173.405 312.439 172.615 312.299 171.617C312.213 170.586 312.148 169.32 312.054 167.851C311.979 166.381 311.984 164.706 311.942 162.855C311.89 155.448 312.386 145.227 313.211 133.967C314.037 122.701 315.057 112.527 315.878 105.173C316.286 101.495 316.659 98.5237 316.942 96.4728C317.076 95.4473 317.208 94.6538 317.295 94.1156C317.339 93.8698 317.373 93.6689 317.402 93.505C317.429 93.3687 317.446 93.2989 317.454 93.2997C317.462 93.3014 317.459 93.373 317.447 93.5119C317.431 93.6775 317.41 93.8802 317.385 94.1294C317.32 94.7064 317.229 95.4964 317.115 96.4952C316.894 98.591 316.58 101.557 316.194 105.206C315.454 112.566 314.485 122.741 313.659 134C312.835 145.254 312.29 155.461 312.26 162.855C312.281 164.702 312.254 166.375 312.305 167.841C312.371 169.297 312.428 170.557 312.474 171.603C312.578 172.6 312.658 173.391 312.718 173.968C312.739 174.218 312.757 174.42 312.77 174.587C312.78 174.726 312.781 174.798 312.774 174.8Z" fill="#E2E2F1"/>
<path d="M324.486 187.578C324.486 187.578 318.002 119.781 322.025 112.209C325.139 106.345 329.957 94.0987 331.973 88.8678C332.575 87.3033 332.532 85.5646 331.849 84.0337L331.37 82.9608L337.407 87.5966L349.803 94.2592L342.321 151.696L350.794 180.836L324.486 187.578Z" fill="#2B8CFF"/>
<path d="M322.814 167.949L322.812 167.931C322.813 167.938 322.813 167.944 322.814 167.949Z" fill="#E2E2F1"/>
<path d="M329.58 169.262C328.201 169.262 327.603 168.873 327.048 168.485C326.494 168.096 325.985 167.708 324.784 167.708C324.272 167.708 323.634 167.779 322.815 167.949C322.814 167.944 322.814 167.938 322.813 167.932L322.178 159.068L344.224 158.246L345.405 162.307C345.346 162.306 345.287 162.305 345.227 162.305C342.351 162.305 338.856 163.69 336.534 165.344C334.164 167.031 334.019 168.714 331.139 169.134C330.526 169.223 330.015 169.262 329.58 169.262Z" fill="#0066DF"/>
<path d="M292.442 97.536L294.588 151.697L290.243 182.011L301.102 186.023L305.85 102.258C305.903 99.1445 306.601 96.075 307.898 93.2435L312.153 83.9607L297.746 88.8682L292.442 97.536Z" fill="#2B8CFF"/>
<path d="M349.803 94.259C349.803 94.259 356.604 100.145 358.134 108.049C359.25 113.817 362.532 134.057 363.445 144.449C364.012 150.906 359.48 156.735 353.067 157.68C352.97 157.695 352.872 157.707 352.773 157.721C342.912 159.068 326.358 157.206 326.358 157.206L329.245 144.613C329.245 144.613 343.886 142.498 346.517 140.729L343.026 117.367C343.026 117.367 345.893 94.9317 349.803 94.259Z" fill="#2B8CFF"/>
<path d="M257.347 105.775L281.32 120.963C281.32 120.963 289.955 95.5938 295.504 89.629L302.183 87.3555L296.092 136.036C295.634 138.788 294.036 141.219 291.69 142.73C288.095 145.045 283.42 144.789 280.098 142.096L250.765 118.306L257.347 105.775Z" fill="#2B8CFF"/>
<path d="M350.895 148.627C350.82 148.62 350.859 148.072 350.749 147.214C350.643 146.357 350.335 145.19 349.686 144.047C349.03 142.906 348.183 142.047 347.499 141.521C346.815 140.99 346.325 140.745 346.356 140.677C346.372 140.632 346.919 140.775 347.682 141.262C348.444 141.742 349.385 142.618 350.076 143.824C350.762 145.032 351.039 146.287 351.066 147.187C351.096 148.092 350.942 148.635 350.895 148.627Z" fill="#0066DF"/>
<path d="M348.322 150.292C348.179 150.269 348.832 147.981 348.259 145.201C347.728 142.411 346.251 140.546 346.374 140.472C346.415 140.438 346.838 140.852 347.347 141.659C347.857 142.461 348.412 143.68 348.7 145.113C348.982 146.548 348.933 147.886 348.769 148.822C348.605 149.762 348.372 150.306 348.322 150.292Z" fill="#0066DF"/>
<path d="M348.131 96.6306C348.194 96.7082 346.92 97.4292 345.515 99.2326C344.1 101.007 342.728 103.95 342.316 107.41C341.908 110.874 342.318 114.051 342.633 116.318C342.793 117.381 342.929 118.281 343.039 119.011C343.134 119.648 343.174 120.004 343.144 120.009C343.114 120.015 343.016 119.671 342.868 119.044C342.72 118.417 342.523 117.504 342.319 116.368C341.924 114.105 341.454 110.896 341.87 107.355C342.291 103.813 343.75 100.801 345.267 99.0334C346.017 98.1407 346.735 97.5181 347.267 97.1472C347.798 96.772 348.119 96.6099 348.131 96.6306Z" fill="#0066DF"/>
<path d="M348.108 151.695C347.901 151.695 347.704 151.617 347.592 151.442C347.417 151.17 347.516 150.813 347.616 150.504C348.043 149.178 348.367 147.803 348.442 146.414C348.656 148.617 348.202 150.272 348.323 150.291C348.324 150.291 348.325 150.291 348.326 150.291C348.38 150.291 348.609 149.748 348.77 148.821C348.934 147.886 348.983 146.547 348.701 145.113C348.543 144.323 348.303 143.598 348.035 142.973C347.855 142.415 347.617 141.878 347.315 141.381C347.375 141.425 347.436 141.471 347.499 141.52C348.183 142.046 349.031 142.905 349.686 144.046C350.336 145.189 350.644 146.356 350.75 147.213C350.859 148.071 350.82 148.619 350.895 148.626C350.895 148.626 350.895 148.626 350.896 148.626C350.934 148.626 351.033 148.304 351.062 147.744C351.076 148.7 350.86 149.643 350.344 150.446C350.176 150.708 349.94 150.972 349.629 150.993C349.621 150.993 349.614 150.994 349.607 150.994C349.393 150.994 349.19 150.803 349.16 150.611C349.062 150.937 348.934 151.257 348.683 151.48C348.53 151.617 348.313 151.695 348.108 151.695ZM347.676 141.257C347.41 141.088 347.171 140.961 346.972 140.868C346.886 140.752 346.795 140.638 346.701 140.528L347.442 141.008C347.52 141.091 347.598 141.174 347.676 141.257Z" fill="#0066DF"/>
<path d="M350.896 148.627C350.821 148.62 350.859 148.072 350.749 147.214C350.643 146.357 350.335 145.191 349.686 144.047C349.03 142.906 348.183 142.047 347.499 141.521C347.436 141.472 347.374 141.426 347.315 141.382C347.209 141.206 347.094 141.035 346.972 140.87C347.171 140.962 347.41 141.089 347.675 141.258C348.817 142.477 349.911 143.775 350.547 145.316C350.862 146.08 351.049 146.917 351.062 147.745C351.032 148.305 350.934 148.627 350.896 148.627Z" fill="#0066DF"/>
<path d="M348.326 150.292C348.325 150.292 348.324 150.292 348.323 150.292C348.202 150.273 348.655 148.618 348.442 146.415C348.461 146.065 348.465 145.714 348.451 145.363C348.417 144.556 348.282 143.744 348.034 142.974C348.302 143.599 348.542 144.324 348.701 145.114C348.983 146.548 348.934 147.887 348.77 148.822C348.609 149.749 348.379 150.292 348.326 150.292Z" fill="#0066DF"/>
<path d="M286.212 130.459C286.119 130.528 284.633 128.599 283.277 125.932C281.911 123.268 281.22 120.934 281.331 120.9C281.456 120.855 282.328 123.096 283.678 125.728C285.018 128.363 286.321 130.384 286.212 130.459Z" fill="#0066DF"/>
<path d="M282.849 132.286C282.791 132.302 282.551 131.686 282.248 130.664C281.944 129.642 281.587 128.211 281.292 126.611C280.998 125.009 280.823 123.544 280.745 122.482C280.665 121.418 280.67 120.758 280.729 120.753C280.86 120.742 281.145 123.351 281.734 126.529C282.314 129.708 282.974 132.248 282.849 132.286Z" fill="#0066DF"/>
<path d="M294.589 104.348C294.714 104.348 294.814 114.948 294.814 128.021C294.814 141.098 294.714 151.695 294.589 151.695C294.465 151.695 294.365 141.098 294.365 128.021C294.365 114.948 294.465 104.348 294.589 104.348Z" fill="#0066DF"/>
<path d="M309.19 84.9692C309.202 84.9796 309.103 85.1236 308.904 85.3893C308.68 85.6937 308.396 86.0818 308.045 86.5605C307.314 87.5894 306.269 89.0962 305.146 91.0652C304.042 93.0316 302.748 95.4595 302.072 98.3755C301.805 99.8227 301.632 101.436 301.39 103.072C300.674 104.796 302.372 105.919 303.755 106.854L304.103 107.088L303.717 107.252C303.26 107.446 302.777 107.798 302.314 108.149C301.696 108.629 301.102 109.142 300.563 109.633L300.634 109.452C300.905 112.88 301.495 116.117 301.882 119.049C302.294 121.968 302.664 124.59 302.975 126.804C303.264 128.962 303.498 130.718 303.67 131.995C303.737 132.57 303.793 133.036 303.836 133.402C303.869 133.724 303.88 133.894 303.865 133.895C303.851 133.897 303.812 133.732 303.75 133.414C303.686 133.05 303.605 132.589 303.505 132.02C303.301 130.747 303.02 128.998 302.674 126.849C302.334 124.639 301.932 122.022 301.484 119.108C301.072 116.172 300.469 112.963 300.189 109.487L300.18 109.379L300.259 109.306C300.808 108.801 301.405 108.286 302.04 107.793C302.522 107.431 302.996 107.073 303.555 106.834L303.515 107.232C302.766 106.746 302.041 106.225 301.449 105.546C301.167 105.201 300.889 104.811 300.826 104.311C300.801 104.195 300.821 104.049 300.827 103.938L300.871 103.629L300.959 103.013C301.209 101.376 301.384 99.8167 301.676 98.2892C302.018 96.7894 302.56 95.4388 303.123 94.2141C303.691 92.9894 304.291 91.888 304.879 90.9099C306.046 88.9478 307.135 87.4618 307.91 86.4596C308.301 85.9611 308.613 85.5816 308.836 85.3341C309.058 85.0857 309.179 84.9606 309.19 84.9692Z" fill="#0066DF"/>
<path d="M335.768 86.5587C335.783 86.5552 335.823 86.6794 335.886 86.9209C335.958 87.1607 336.027 87.5204 336.099 87.9895C336.24 88.9253 336.289 90.3087 336.087 91.9931C335.883 93.6758 335.416 95.6422 334.792 97.7803C334.204 99.9253 333.387 102.261 332.331 104.607C331.391 106.726 330.389 108.702 329.471 110.514L329.424 110.606L329.326 110.626C328.609 110.77 327.915 110.91 327.246 111.044L327.355 110.721C327.825 111.276 328.272 111.807 328.699 112.314L328.786 112.416L328.717 112.528C327.492 114.495 326.467 116.139 325.704 117.364C325.36 117.894 325.077 118.333 324.846 118.689C324.643 118.991 324.527 119.146 324.512 119.137C324.495 119.126 324.58 118.952 324.752 118.632C324.96 118.262 325.216 117.807 325.525 117.256C326.254 116.01 327.233 114.339 328.403 112.338L328.421 112.552C327.987 112.052 327.531 111.527 327.054 110.979L326.834 110.726L327.166 110.655C327.832 110.513 328.525 110.366 329.24 110.215L329.095 110.326C329.996 108.505 330.986 106.53 331.92 104.425C332.971 102.088 333.785 99.8011 334.396 97.663C335.039 95.5387 335.531 93.6042 335.772 91.9509C336.011 90.2975 336.011 88.9391 335.926 88.0085C335.845 87.0762 335.724 86.569 335.768 86.5587Z" fill="#0066DF"/>
<path d="M281.319 120.964L280.232 120.275L281.319 120.964Z" fill="#8F8FAE"/>
<path d="M284.686 131.744C284.65 131.744 284.613 131.74 284.576 131.732C284.357 131.682 284.198 131.498 284.057 131.324C283.36 130.458 282.719 129.547 282.137 128.599C282.006 127.958 281.868 127.261 281.736 126.53C281.148 123.359 280.863 120.753 280.732 120.753H280.731C280.671 120.758 280.666 121.419 280.746 122.482C280.825 123.545 281 125.009 281.293 126.611C281.442 127.42 281.608 128.186 281.773 128.877C281.673 129.098 281.457 129.275 281.232 129.275C281.185 129.275 281.139 129.268 281.093 129.251C280.85 129.167 280.728 128.899 280.642 128.657C279.686 125.964 279.346 122.991 280.233 120.275L281.32 120.964C281.321 120.965 281.321 120.965 281.321 120.966C281.353 121.366 282.037 123.513 283.278 125.932C283.632 126.628 283.995 127.275 284.34 127.849C284.638 128.587 284.92 129.326 285.178 130.064C285.298 130.407 285.418 130.771 285.347 131.128C285.281 131.447 284.999 131.744 284.686 131.744Z" fill="#0066DF"/>
<path d="M284.339 127.848C283.994 127.275 283.631 126.628 283.276 125.932C282.036 123.513 281.352 121.366 281.319 120.966C282.315 123.212 283.403 125.527 284.339 127.848Z" fill="#0066DF"/>
<path d="M281.772 128.876C281.606 128.185 281.441 127.419 281.292 126.61C280.998 125.008 280.823 123.544 280.745 122.481C280.665 121.418 280.67 120.757 280.729 120.752C280.86 120.752 281.147 123.358 281.734 126.529C281.867 127.26 282.005 127.957 282.136 128.598C281.964 128.317 281.798 128.033 281.637 127.746C281.76 128.061 281.886 128.397 281.82 128.729C281.81 128.779 281.794 128.829 281.772 128.876Z" fill="#0066DF"/>
<path d="M303.186 132.864C303.147 132.575 303.109 132.287 303.071 131.998C303.147 132.215 303.223 132.431 303.299 132.647L303.186 132.864ZM303.071 131.998C301.254 126.852 299.462 121.657 298.563 116.286L299.53 108.564C299.924 108.152 300.398 107.829 300.942 107.65C300.208 106.858 300.192 105.505 300.907 104.696C300.915 104.706 300.923 104.714 300.933 104.724C301.053 105.035 301.251 105.302 301.45 105.546C301.879 106.037 302.376 106.445 302.903 106.818C302.976 106.895 303.048 106.972 303.121 107.05C302.741 107.265 302.394 107.528 302.041 107.792C301.406 108.286 300.809 108.801 300.26 109.305L300.181 109.378L300.19 109.486C300.252 110.259 300.331 111.019 300.419 111.765C300.441 112.389 300.523 113.019 300.606 113.637C301.427 119.757 302.249 125.878 303.071 131.998ZM300.656 109.704C300.652 109.656 300.648 109.609 300.644 109.56C300.675 109.533 300.705 109.505 300.736 109.477C300.707 109.552 300.68 109.628 300.656 109.704Z" fill="#0066DF"/>
<path d="M298.563 116.287C298.477 115.772 298.399 115.255 298.33 114.737C298.149 113.379 298.033 111.978 298.386 110.654C298.59 109.883 298.982 109.138 299.529 108.565L298.563 116.287Z" fill="#0066DF"/>
<path d="M300.418 111.766C300.33 111.02 300.251 110.26 300.189 109.487L300.18 109.379L300.259 109.306C300.808 108.801 301.405 108.286 302.04 107.793C302.393 107.529 302.74 107.266 303.12 107.051C303.223 107.16 303.326 107.27 303.429 107.378C303.419 107.378 303.409 107.378 303.398 107.378C302.198 107.378 301.179 108.347 300.735 109.477C300.704 109.506 300.674 109.534 300.643 109.561C300.647 109.609 300.651 109.657 300.655 109.704C300.651 109.718 300.646 109.733 300.642 109.747C300.443 110.4 300.394 111.081 300.418 111.766ZM302.902 106.818C302.376 106.446 301.878 106.038 301.449 105.546C301.25 105.302 301.053 105.036 300.932 104.724C301.588 105.422 302.245 106.121 302.902 106.818Z" fill="#0066DF"/>
<path d="M327.537 119.392L324.515 119.137C324.539 119.131 324.653 118.977 324.846 118.69C325.077 118.334 325.361 117.895 325.704 117.364C326.467 116.139 327.492 114.496 328.717 112.528L328.786 112.417L328.699 112.314C328.678 112.289 328.657 112.264 328.636 112.239C328.66 112.199 328.685 112.16 328.709 112.12C328.573 112.028 328.438 111.936 328.303 111.843C328.065 111.562 327.822 111.274 327.573 110.979C328.141 110.865 328.725 110.747 329.326 110.627L329.425 110.607L329.471 110.514C329.821 109.822 330.185 109.106 330.552 108.368C330.765 107.991 330.951 107.596 331.126 107.197C331.532 106.36 331.937 105.496 332.331 104.607C332.99 103.145 333.556 101.685 334.03 100.274C334.214 99.8362 334.398 99.3981 334.581 98.9599C333.328 103.345 332.075 107.73 330.822 112.113C330.496 112.177 330.169 112.24 329.842 112.304C330.18 112.91 330.517 113.515 330.855 114.12C329.707 115.945 328.686 117.567 327.537 119.392ZM327.083 111.012C326.971 110.936 326.859 110.859 326.747 110.784C326.798 110.79 326.848 110.796 326.899 110.801L327.055 110.979C327.064 110.991 327.074 111.001 327.083 111.012ZM328.78 110.313C328.954 110.207 329.12 110.088 329.278 109.958C329.231 110.051 329.186 110.144 329.14 110.236C329.019 110.262 328.899 110.288 328.78 110.313Z" fill="#0066DF"/>
<path d="M324.514 119.137H324.512C325.895 116.911 327.253 114.471 328.635 112.238C328.657 112.263 328.677 112.289 328.699 112.314L328.786 112.417L328.717 112.528C327.492 114.495 326.467 116.139 325.704 117.364C325.36 117.894 325.077 118.333 324.846 118.69C324.652 118.977 324.538 119.131 324.514 119.137ZM328.302 111.843C327.896 111.566 327.489 111.289 327.083 111.012C327.073 111.001 327.064 110.99 327.054 110.979L326.899 110.801C326.973 110.807 327.047 110.81 327.122 110.81C327.702 110.81 328.272 110.62 328.779 110.312C328.899 110.287 329.019 110.262 329.14 110.236C329.185 110.143 329.231 110.051 329.278 109.958C329.453 109.812 329.618 109.653 329.767 109.485C330.071 109.143 330.327 108.765 330.552 108.368C330.184 109.106 329.821 109.822 329.471 110.514L329.424 110.607L329.326 110.626C328.725 110.747 328.141 110.864 327.573 110.979C327.822 111.274 328.065 111.562 328.302 111.843ZM331.126 107.196C331.227 106.966 331.324 106.734 331.421 106.503C332.29 104.427 333.161 102.35 334.03 100.274C333.556 101.685 332.99 103.144 332.331 104.607C331.937 105.496 331.531 106.36 331.126 107.196Z" fill="#0066DF"/>
<path d="M312.154 83.9608L312.315 81.8564L316.212 87.3572L317.454 93.3022L320.64 87.3572L331.633 80.9689V86.5594L329.532 91.9913L325.437 95.1531L320.745 97.2092L315.169 96.1665L311.797 94.2596L311.049 90.3164L312.154 83.9608Z" fill="#EFEFF6"/>
<path d="M315.939 87.2769C316.002 87.3036 315.71 88.0419 315.369 89.2813C315.038 90.5146 314.628 92.2792 314.719 94.2465L314.759 95.0969L314.309 94.3837C314.221 94.2448 314.129 94.0982 314.034 93.949C312.935 92.0722 312.422 90.1981 311.865 88.9372C311.339 87.659 310.882 86.9311 310.941 86.8922C310.983 86.8595 311.544 87.5382 312.155 88.8069C312.794 90.0566 313.362 91.9187 314.42 93.7178C314.51 93.861 314.599 94.0033 314.682 94.1353L314.272 94.2724C314.185 92.2094 314.663 90.4223 315.074 89.1907C315.499 87.9548 315.893 87.2553 315.939 87.2769Z" fill="#E2E2F1"/>
<path d="M331.634 84.6043C331.65 84.6043 331.66 84.6811 331.665 84.8303C331.678 84.9812 331.648 85.1986 331.597 85.4797C331.472 86.036 331.099 86.8002 330.43 87.5626C329.768 88.3302 328.835 89.0969 327.74 89.8387C326.622 90.5407 325.5 91.4023 324.315 92.3562C323.256 93.1963 322.236 94.0096 321.212 94.6409L320.81 94.8884L320.894 94.4218C321.073 93.4343 321.023 92.4554 320.989 91.6015C320.942 90.7425 320.87 89.9853 320.808 89.3574C320.679 88.1025 320.592 87.366 320.642 87.3573C320.687 87.3496 320.863 88.0723 321.065 89.3246C321.163 89.9508 321.269 90.7089 321.343 91.5774C321.403 92.4468 321.483 93.424 321.308 94.5029L320.991 94.2838C321.97 93.6585 322.976 92.8452 324.035 92.0043C325.209 91.0573 326.39 90.169 327.51 89.4937C328.601 88.7821 329.528 88.0611 330.196 87.3496C330.867 86.6423 331.259 85.9472 331.428 85.4323C331.591 84.9148 331.59 84.6035 331.634 84.6043Z" fill="#E2E2F1"/>
<path d="M344.927 158.205C344.927 158.216 344.807 158.232 344.575 158.251C344.304 158.269 343.967 158.289 343.553 158.315C342.66 158.361 341.354 158.407 339.705 158.436C338.056 158.464 336.064 158.477 333.799 158.451C332.667 158.439 331.466 158.417 330.206 158.376C329.576 158.35 328.931 158.321 328.272 158.294C327.941 158.27 327.608 158.247 327.27 158.224L326.758 158.171C326.67 158.157 326.587 158.15 326.493 158.129L326.348 158.095L326.263 158.066C326.248 158.077 326.1 157.956 326.093 157.873L326.089 157.823L326.096 157.793C326.849 154.388 327.675 150.656 328.541 146.743C328.705 146.007 328.867 145.278 329.027 144.562L329.061 144.412L329.214 144.39C335.956 143.401 342.103 142.39 346.451 140.575L346.353 140.753C345.933 137.735 345.589 135.272 345.344 133.506C345.24 132.685 345.156 132.027 345.094 131.529C345.042 131.076 345.023 130.837 345.038 130.834C345.055 130.832 345.107 131.066 345.189 131.515C345.275 132.01 345.388 132.663 345.528 133.48C345.809 135.239 346.202 137.694 346.683 140.704L346.703 140.829L346.584 140.881C342.191 142.783 336.029 143.833 329.278 144.833L329.465 144.66C329.305 145.376 329.143 146.104 328.979 146.84C328.102 150.75 327.264 154.482 326.501 157.884L326.317 157.836C331.71 158.08 336.424 158.179 339.703 158.182C341.311 158.182 342.605 158.182 343.55 158.181C343.964 158.182 344.302 158.182 344.572 158.182C344.805 158.185 344.926 158.193 344.927 158.205Z" fill="#0066DF"/>
<path d="M347.692 124.56L340.231 142.662L329.245 144.612L326.298 157.838L333.555 158.259L333.502 158.743L305.026 159.554L317.074 124.56H347.692Z" fill="#42526E"/>
<path d="M313.059 118.564L317.075 124.56L305.027 159.554L301.104 152.842L313.059 118.564Z" fill="#42526E"/>
<path d="M347.692 124.561L343.293 120.291L313.059 118.565L317.074 124.561H347.692Z" fill="#E2E2F1"/>
<path d="M317.073 124.56C317.19 124.6 314.588 132.467 311.262 142.128C307.934 151.794 305.143 159.594 305.025 159.554C304.908 159.513 307.51 151.648 310.837 141.983C314.164 132.32 316.956 124.519 317.073 124.56Z" fill="#0E2D4A"/>
<path d="M328.834 145.61L323.618 145.161C323.618 145.161 321.598 141.808 320.271 140.639C318.943 139.469 312.083 136.187 312.083 136.187C312.083 136.187 311.079 137.387 312.083 138.594C312.534 139.136 315.778 140.96 315.778 140.96C316.164 142.296 315.011 143.57 313.644 143.319C311.635 142.95 309.295 142.534 308.986 142.534C308.643 142.534 306.636 140.635 305.165 139.197C304.281 138.333 302.707 139.158 303.058 140.342C303.094 140.465 303.151 140.566 303.234 140.639C303.234 140.639 301.118 140.564 303.005 143.409C303.005 143.409 302.569 146.035 304.118 147.238C304.118 147.238 304.787 150.412 305.783 151.506C306.778 152.601 316.506 154.68 316.506 154.68L326.64 155.663L328.834 145.61Z" fill="#FFB3AD"/>
<path d="M312.775 146.331C312.771 146.389 312.11 146.427 311.035 146.373C309.973 146.303 308.424 146.157 306.945 145.298C305.473 144.412 304.634 143.085 304.095 142.172C303.562 141.235 303.303 140.625 303.353 140.596C303.41 140.563 303.77 141.122 304.363 142.003C304.964 142.865 305.817 144.1 307.172 144.912C308.539 145.708 310.024 145.91 311.064 146.057C312.118 146.19 312.779 146.264 312.775 146.331Z" fill="#E79C97"/>
<path d="M311.772 148.587C311.783 148.646 311.17 148.781 310.183 148.711C309.691 148.678 309.107 148.604 308.468 148.462C307.838 148.303 307.115 148.128 306.463 147.643C305.84 147.166 305.384 146.608 304.971 146.111C304.602 145.649 304.246 145.207 303.901 144.778C303.299 144.012 302.951 143.519 302.997 143.479C303.045 143.439 303.479 143.859 304.143 144.571C304.473 144.927 304.867 145.359 305.287 145.844C305.711 146.32 306.171 146.856 306.732 147.284C307.279 147.697 307.965 147.888 308.566 148.06C309.178 148.219 309.743 148.324 310.217 148.395C311.169 148.543 311.763 148.523 311.772 148.587Z" fill="#E79C97"/>
<path d="M310.405 151.094C310.375 151.273 308.636 150.906 306.581 150.332C306.24 150.257 306.028 150.04 305.828 149.877C305.631 149.7 305.457 149.519 305.299 149.338C304.984 148.98 304.734 148.63 304.547 148.322C304.171 147.705 304.065 147.258 304.12 147.239C304.181 147.215 304.383 147.597 304.809 148.142C305.021 148.416 305.288 148.731 305.604 149.058C305.761 149.222 305.934 149.388 306.117 149.545C306.305 149.696 306.494 149.866 306.691 149.896C307.74 150.179 308.661 150.473 309.333 150.691C310.004 150.915 310.405 151.044 310.405 151.094Z" fill="#E79C97"/>
</svg>
