<svg width="480" height="307" viewBox="0 0 480 307" fill="none" xmlns="http://www.w3.org/2000/svg">
<path d="M312.729 151.065C311.611 148.251 310.73 145.45 309.969 142.572C309.218 139.703 308.592 136.796 308.174 133.85C307.334 127.97 307.167 121.921 308.232 115.982C308.776 113.021 309.64 110.099 310.891 107.333C312.145 104.572 313.77 101.954 315.787 99.6694C317.799 97.3835 320.18 95.4321 322.692 93.7879C323.947 93.0025 325.189 92.194 326.491 91.4769C327.763 90.7157 329.089 90.0443 330.41 89.3632C333.079 88.0518 335.823 86.8829 338.651 85.9386C341.486 85.0161 344.396 84.3109 347.343 83.8592C350.289 83.4076 353.267 83.2023 356.233 83.212C359.201 83.2168 362.15 83.4173 365.077 83.6974C370.931 84.265 376.71 85.0837 382.516 85.3807C388.32 85.7116 394.145 85.4049 399.876 84.4026H399.878C400.132 84.3592 400.373 84.5282 400.419 84.7818C400.463 85.033 400.299 85.2696 400.05 85.3204C394.275 86.482 388.351 86.9433 382.463 86.7549C376.568 86.6004 370.733 85.8541 364.929 85.4073C359.133 84.9484 353.325 84.876 347.657 85.8275C344.826 86.2985 342.039 87.0085 339.322 87.9287C336.607 88.873 333.975 90.0346 331.405 91.3315C330.135 92.0107 328.86 92.6765 327.628 93.432C326.375 94.1425 325.172 94.9472 323.957 95.7263C321.59 97.3075 319.424 99.1007 317.574 101.224C313.877 105.473 311.638 110.841 310.655 116.42C309.643 122.014 309.773 127.819 310.575 133.509C310.981 136.356 311.531 139.19 312.237 141.987C312.937 144.774 313.787 147.574 314.799 150.21L314.816 150.25C315.038 150.827 314.748 151.475 314.171 151.697C313.599 151.918 312.956 151.634 312.729 151.065Z" fill="#E3F0FF"/>
<path d="M314.919 292.354C314.702 292.673 314.209 292.417 314.342 292.057C316.317 286.754 320.602 272.915 319.585 254.79C318.274 231.412 301.097 174.993 345.499 164.783C384.612 155.788 407.729 153.818 418.573 146.22C420.155 145.112 422.319 146.275 422.251 148.204C421.753 162.187 418.102 199.105 393.661 208.268C363.332 219.638 333.885 207.181 324.219 218.1C314.842 228.697 330.653 269.298 314.919 292.354Z" fill="#E3F0FF"/>
<path d="M317.481 226.61C317.29 224.055 317.259 221.567 317.326 219.046C317.397 216.534 317.549 214.025 317.807 211.518C318.346 206.514 319.266 201.52 320.785 196.663C321.529 194.231 322.466 191.849 323.521 189.514C324.608 187.191 325.912 184.957 327.371 182.817C328.878 180.706 330.585 178.723 332.508 176.943L334.017 175.685C334.273 175.481 334.515 175.257 334.783 175.07L335.594 174.51C336.14 174.148 336.657 173.738 337.232 173.419L338.947 172.45L339.376 172.21L339.826 172.008L340.722 171.604C341.325 171.347 341.907 171.036 342.535 170.849L344.395 170.215C345.013 169.988 345.639 169.871 346.262 169.695C348.759 169.071 351.317 168.667 353.882 168.486C359.023 168.087 364.1 168.764 368.993 169.375C373.886 170.023 378.721 170.498 383.481 169.761C388.239 169.056 392.782 167.107 396.986 164.558L396.989 164.557C397.189 164.436 397.447 164.5 397.566 164.698C397.679 164.883 397.629 165.123 397.46 165.251C395.462 166.76 393.332 168.119 391.052 169.235C388.775 170.341 386.357 171.218 383.85 171.757C381.346 172.288 378.779 172.527 376.236 172.54C373.693 172.544 371.178 172.351 368.698 172.146C366.218 171.93 363.776 171.689 361.349 171.583C358.922 171.475 356.516 171.491 354.135 171.704C351.756 171.916 349.404 172.333 347.105 172.953C346.537 173.124 345.941 173.252 345.397 173.458L343.738 174.036C343.175 174.203 342.663 174.489 342.127 174.72L341.33 175.083L340.932 175.264L340.55 175.481L339.033 176.352C338.524 176.634 338.07 177.009 337.584 177.33L336.867 177.832C336.628 177.996 336.415 178.202 336.188 178.385L334.846 179.513C333.145 181.126 331.578 182.885 330.199 184.812C327.484 188.698 325.448 193.088 323.932 197.672C323.195 199.974 322.536 202.309 322.012 204.683C321.48 207.055 321.072 209.46 320.712 211.875C320.017 216.698 319.698 221.637 319.72 226.477V226.521C319.722 227.139 319.222 227.644 318.604 227.646C318.012 227.649 317.527 227.19 317.481 226.61Z" fill="#E3F0FF"/>
<path d="M126.319 206.928C126.319 206.928 127.792 168.308 110.146 157.713C92.5001 147.118 58.7601 140.168 58.287 84.6759C58.01 52.1904 57.4101 37.9775 56.9601 31.7803C56.7846 29.3604 58.9589 27.4428 61.3349 27.9258C78.1418 31.3408 132.701 45.1938 143.643 82.7245C156.615 127.219 126.319 206.928 126.319 206.928Z" fill="#E3F0FF"/>
<path d="M74.1139 43.5791C75.4067 44.7697 76.6449 45.9797 77.8692 47.2163C78.4828 47.8321 79.0806 48.4624 79.6766 49.0952C80.2715 49.728 80.8801 50.3486 81.4597 50.9959C82.631 52.2783 83.8108 53.5559 84.9457 54.8697L86.6647 56.8308L88.341 58.8256L90.006 60.8326L91.6261 62.8758C92.7104 64.233 93.791 65.5952 94.8258 66.9935C96.9429 69.754 98.9325 72.6062 100.946 75.444C102.879 78.3348 104.849 81.2064 106.651 84.1866L108.031 86.4013L108.721 87.5098L109.379 88.6377L111.999 93.1575L112.648 94.2909L113.262 95.4439L114.489 97.7501L115.717 100.057L116.33 101.21L116.908 102.382C118.42 105.526 120.025 108.604 121.385 111.858C121.751 112.657 122.059 113.479 122.388 114.293C122.709 115.11 123.044 115.922 123.355 116.742L124.246 119.219L124.691 120.458L125.096 121.709L125.907 124.213L126.642 126.738C127.155 128.416 127.537 130.127 127.983 131.822C129.595 138.641 130.759 145.562 131.374 152.527C132.038 159.488 132.184 166.485 131.932 173.457C131.788 176.943 131.537 180.424 131.174 183.894C130.815 187.372 130.343 190.804 129.637 194.281C129.509 194.909 128.896 195.315 128.268 195.187C127.663 195.064 127.264 194.492 127.349 193.888L127.356 193.837C128.319 187.121 128.773 180.218 128.826 173.381C128.891 166.529 128.586 159.677 127.853 152.878C127.127 146.079 125.964 139.334 124.351 132.707C122.674 126.099 120.64 119.575 117.949 113.321C112.501 100.788 105.796 88.7174 98.3637 77.1732L95.5026 72.884C94.5665 71.4421 93.5357 70.0655 92.5614 68.6503C91.5901 67.2302 90.5731 65.8439 89.5513 64.4601L88.0247 62.3807L86.4527 60.3351C82.2975 54.8576 77.8837 49.5372 73.2027 44.5307L73.1863 44.5114C72.9378 44.2457 72.952 43.8303 73.2177 43.5815C73.4708 43.3448 73.8628 43.3473 74.1139 43.5791Z" fill="#FAFAFD"/>
<path d="M143.183 305.032C145.928 306.365 118.482 275.516 109.282 218.91C104.946 192.238 104.762 158.798 89.5094 145.97C76.8146 135.294 33.7826 142.23 19.7037 144.857C17.9446 145.186 17.3606 147.412 18.7353 148.557C25.5135 154.205 40.0176 167.534 43.8352 181.008C48.867 198.769 65.8131 210.011 80.957 213.013C96.1006 216.015 104.53 218.954 111.995 243.124C119.46 267.295 135.383 301.243 143.183 305.032Z" fill="#E3F0FF"/>
<path d="M39.5479 152.321C48.6396 152.684 57.6271 154.909 65.9046 158.811C70.0487 160.748 73.9551 163.232 77.4916 166.178C81.0039 169.148 84.1478 172.6 86.6429 176.488L87.5708 177.95C87.8767 178.44 88.1369 178.956 88.4216 179.458C88.6931 179.964 88.9867 180.473 89.2386 180.977L89.9967 182.492C91.0123 184.508 92.0179 186.53 93.003 188.562C94.9774 192.624 96.886 196.72 98.7288 200.842C102.42 209.087 105.843 217.451 108.74 226.027C108.82 226.266 108.693 226.522 108.456 226.602C108.228 226.679 107.983 226.566 107.892 226.346L107.887 226.334C106.183 222.18 104.406 218.038 102.548 213.942C100.711 209.834 98.8278 205.747 96.902 201.68C94.9808 197.613 93.0269 193.561 91.0234 189.533C90.0351 187.512 89.0259 185.501 88.0069 183.496L87.2462 181.99C86.9931 181.487 86.7187 181.021 86.4564 180.534C86.1876 180.055 85.9442 179.561 85.6553 179.093L84.7801 177.696C82.4358 173.969 79.435 170.691 76.1302 167.777C74.4444 166.356 72.7048 164.987 70.8409 163.791L70.1509 163.331L69.4432 162.896C68.9704 162.609 68.5047 162.308 68.0253 162.03C67.0591 161.487 66.0986 160.931 65.1021 160.44C61.1544 158.4 56.9552 156.844 52.6694 155.599C48.385 154.355 43.9588 153.473 39.5223 153.048L39.4986 153.045C39.2989 153.026 39.1523 152.849 39.1716 152.649C39.19 152.456 39.3569 152.313 39.5479 152.321Z" fill="#FAFAFD"/>
<path d="M123.055 0.00125122L303.278 1.98645C313.24 2.09756 321.053 10.6929 321.048 21.4908L320.889 288.645C320.884 296.119 314.832 302.316 307.533 302.35L114.317 303.203C107.499 303.232 101.907 297.53 101.907 290.531V22.7901C101.907 10.1036 111.374 -0.12677 123.055 0.00125122Z" fill="#EFEFF6"/>
<path d="M288.254 25.6152H136.766C130.413 25.6152 125.31 30.8487 125.31 37.0386V257.523C125.31 263.71 130.413 268.509 136.766 268.509H288.254C294.608 268.509 299.805 263.71 299.805 257.523V37.0386C299.805 30.8487 294.608 25.6152 288.254 25.6152Z" fill="white"/>
<path d="M203.251 213.493V203.789C193.136 203.383 183.13 200.995 176.023 197.884C173.487 196.773 172.192 193.926 172.922 191.252L175.388 182.215C176.291 178.899 179.897 177.184 183.068 178.512C190.117 181.468 198.821 183.806 208.206 183.806C217.949 183.806 225.216 180.502 225.216 173.731C225.216 167.622 219.601 163.989 206.059 160.356C186.738 155.072 172.866 146.649 172.866 129.64C172.866 114.281 184.096 102.556 203.581 99.4195V89.7139C203.581 86.5912 206.112 84.0602 209.235 84.0602H214.937C218.06 84.0602 220.591 86.5912 220.591 89.7139V98.4279C229.952 98.8025 236.765 100.403 242.172 102.303C244.942 103.277 246.457 106.261 245.689 109.095L243.421 117.454C242.547 120.678 239.103 122.443 235.978 121.262C231 119.38 223.96 117.419 214.812 117.419C203.251 117.419 199.949 122.208 199.949 126.502C199.949 131.786 206.885 135.419 221.912 140.043C243.38 146.484 252.299 155.401 252.299 171.42C252.299 186.118 241.399 199.328 220.26 202.632V213.493C220.26 216.613 217.729 219.146 214.606 219.146H208.904C205.784 219.146 203.251 216.613 203.251 213.493Z" fill="#99C8FF"/>
<path d="M393.982 132.159L393.97 132.311C393.924 132.818 394.298 133.265 394.805 133.31L429.921 136.426C430.426 136.471 430.875 136.097 430.918 135.59L430.981 134.877C431.027 134.365 430.645 133.915 430.131 133.877L394.967 131.323C394.465 131.286 394.028 131.659 393.982 132.159Z" fill="#99C8FF"/>
<path d="M276.85 26.2608L282.303 96.7796C282.54 99.8427 285.078 102.217 288.15 102.25L405.208 103.476C408.507 103.51 411.197 100.847 411.197 97.5491V21.6287C411.197 18.2765 408.42 15.5909 405.07 15.7045L282.559 19.8802C279.188 19.9961 276.591 22.8966 276.85 26.2608Z" fill="#E3F0FF"/>
<path d="M339.345 25.6121L405.354 23.6365C406.033 23.6172 406.591 24.1606 406.591 24.8368V25.8995C406.591 26.5564 406.064 27.0901 405.407 27.0998L339.395 28.0127C338.726 28.0224 338.181 27.4814 338.181 26.8124C338.181 26.1627 338.695 25.6314 339.345 25.6121Z" fill="#99C8FF"/>
<path d="M338.181 32.3448V32.7988C338.181 33.4606 338.717 33.9991 339.381 33.9991H405.391C406.055 33.9991 406.591 33.4606 406.591 32.7988V32.3448C406.591 31.6831 406.055 31.1445 405.391 31.1445H339.381C338.717 31.1445 338.181 31.6831 338.181 32.3448Z" fill="#99C8FF"/>
<path d="M322.017 75.5498C321.72 75.5498 321.478 75.3107 321.478 75.0136L321.474 73.3979C321.474 73.1009 321.715 72.8593 322.012 72.8569C322.309 72.8569 322.551 73.0985 322.551 73.3955L322.556 75.0112C322.556 75.3083 322.316 75.5498 322.019 75.5498H322.017ZM322.032 80.9354C321.734 80.9354 321.493 80.6964 321.493 80.3993L321.488 78.7836C321.488 78.4865 321.727 78.245 322.024 78.2426H322.027C322.324 78.2426 322.565 78.4841 322.565 78.7812L322.57 80.3969C322.57 80.6939 322.329 80.9354 322.032 80.9354ZM322.044 86.3211C321.749 86.3211 321.507 86.082 321.505 85.785L321.503 84.1693C321.5 83.8722 321.742 83.6307 322.039 83.6283H322.041C322.338 83.6283 322.577 83.8698 322.58 84.1669L322.582 85.7826C322.585 86.0796 322.343 86.3211 322.046 86.3211H322.044ZM322.058 91.7078C321.761 91.7078 321.52 91.4677 321.52 91.1707L321.515 89.555C321.515 89.2579 321.756 89.0164 322.053 89.014C322.35 89.014 322.592 89.2555 322.592 89.5525L322.597 91.1682C322.597 91.4653 322.358 91.707 322.06 91.7078H322.058Z" fill="#99C8FF"/>
<path d="M349.108 68.629C348.811 68.629 348.569 68.3875 348.569 68.0905V66.4748C348.569 66.1777 348.811 65.9362 349.108 65.9362C349.405 65.9362 349.646 66.1777 349.646 66.4748V68.0905C349.646 68.3875 349.405 68.629 349.108 68.629ZM349.108 74.0147C348.811 74.0147 348.569 73.7732 348.569 73.4762V71.8605C348.569 71.5634 348.811 71.3219 349.108 71.3219C349.405 71.3219 349.646 71.5634 349.646 71.8605V73.4762C349.646 73.7732 349.405 74.0147 349.108 74.0147ZM349.108 79.4004C348.811 79.4004 348.569 79.1589 348.569 78.8618V77.2461C348.569 76.9491 348.811 76.7076 349.108 76.7076C349.405 76.7076 349.646 76.9491 349.646 77.2461V78.8618C349.646 79.1589 349.405 79.4004 349.108 79.4004ZM349.108 84.7861C348.811 84.7861 348.569 84.5446 348.569 84.2475V82.6318C348.569 82.3348 348.811 82.0932 349.108 82.0932C349.405 82.0932 349.646 82.3348 349.646 82.6318V84.2475C349.646 84.5446 349.405 84.7861 349.108 84.7861ZM349.108 90.1718C348.811 90.1718 348.569 89.9302 348.569 89.6332V88.0175C348.569 87.7204 348.811 87.4789 349.108 87.4789C349.405 87.4789 349.646 87.7204 349.646 88.0175V89.6332C349.646 89.9302 349.405 90.1718 349.108 90.1718Z" fill="#99C8FF"/>
<path d="M368.754 62.9735C368.464 62.9735 368.225 62.7416 368.216 62.4494L368.167 60.8361C368.158 60.539 368.389 60.2903 368.689 60.2806C368.991 60.2661 369.235 60.5052 369.242 60.8023L369.293 62.418C369.302 62.7151 369.068 62.9638 368.771 62.9711L368.754 62.9735ZM368.921 68.3543C368.631 68.3543 368.392 68.1249 368.385 67.8327L368.334 66.2194C368.324 65.9223 368.559 65.6736 368.856 65.6639C369.16 65.6518 369.401 65.8885 369.411 66.1856L369.459 67.7988C369.469 68.0983 369.235 68.3471 368.938 68.3543H368.921ZM369.087 73.7376C368.798 73.7376 368.559 73.5081 368.551 73.2159L368.501 71.6026C368.491 71.3056 368.725 71.0568 369.022 71.0471C369.327 71.023 369.568 71.2718 369.578 71.5688L369.626 73.1821C369.636 73.4816 369.404 73.7279 369.107 73.7376H369.087ZM369.256 79.1208C368.967 79.1208 368.728 78.8914 368.718 78.5992L368.667 76.9835C368.658 76.6864 368.892 76.4401 369.189 76.4304C369.483 76.4087 369.735 76.655 369.744 76.9521L369.795 78.5654C369.802 78.8624 369.57 79.1112 369.273 79.1208H369.256ZM369.423 84.5041C369.133 84.5041 368.894 84.2747 368.885 83.9824L368.834 82.3691C368.824 82.0697 369.058 81.8233 369.355 81.8137C369.65 81.7943 369.901 82.0383 369.911 82.3353L369.962 83.951C369.971 84.2457 369.737 84.4944 369.44 84.5041H369.423ZM369.59 89.8874C369.3 89.8874 369.061 89.6579 369.051 89.3657L369 87.7524C368.993 87.4529 369.225 87.2042 369.522 87.1969C369.819 87.1824 370.068 87.4191 370.078 87.7186L370.128 89.3319C370.138 89.629 369.904 89.8777 369.607 89.8874H369.59ZM369.737 94.6202C369.447 94.6202 369.208 94.3901 369.199 94.0983L369.17 93.1345C369.16 92.8369 369.392 92.5884 369.689 92.5792C369.988 92.5536 370.237 92.8034 370.244 93.1007L370.276 94.0648C370.285 94.3621 370.051 94.6106 369.754 94.62L369.737 94.6202Z" fill="#99C8FF"/>
<path d="M389.348 48.5243C389.051 48.5243 388.81 48.2828 388.81 47.9833V46.3676C388.81 46.0706 389.051 45.8315 389.348 45.8315C389.645 45.8315 389.887 46.0706 389.887 46.3676V47.9833C389.887 48.2828 389.645 48.5243 389.348 48.5243ZM389.348 53.91C389.051 53.91 388.81 53.6685 388.81 53.369V51.7533C388.81 51.4562 389.051 51.2171 389.348 51.2171C389.645 51.2171 389.887 51.4562 389.887 51.7533V53.369C389.887 53.6685 389.645 53.91 389.348 53.91ZM389.348 59.2957C389.051 59.2957 388.81 59.0542 388.81 58.7547V57.139C388.81 56.8419 389.051 56.6028 389.348 56.6028C389.645 56.6028 389.887 56.8419 389.887 57.139V58.7547C389.887 59.0542 389.645 59.2957 389.348 59.2957ZM389.348 64.6813C389.051 64.6813 388.81 64.4398 388.81 64.1404V62.5247C388.81 62.2276 389.051 61.9885 389.348 61.9885C389.645 61.9885 389.887 62.2276 389.887 62.5247V64.1404C389.887 64.4398 389.645 64.6813 389.348 64.6813ZM389.348 70.067C389.051 70.067 388.81 69.8255 388.81 69.526V67.9103C388.81 67.6133 389.051 67.3742 389.348 67.3742C389.645 67.3742 389.887 67.6133 389.887 67.9103V69.526C389.887 69.8255 389.645 70.067 389.348 70.067ZM389.348 75.4527C389.051 75.4527 388.81 75.2112 388.81 74.9117V73.296C388.81 72.999 389.051 72.7599 389.348 72.7599C389.645 72.7599 389.887 72.999 389.887 73.296V74.9117C389.887 75.2112 389.645 75.4527 389.348 75.4527ZM389.348 80.8384C389.051 80.8384 388.81 80.5969 388.81 80.2974V78.6817C388.81 78.3846 389.051 78.1455 389.348 78.1455C389.645 78.1455 389.887 78.3846 389.887 78.6817V80.2974C389.887 80.5969 389.645 80.8384 389.348 80.8384ZM389.348 86.224C389.051 86.224 388.81 85.9825 388.81 85.6831V84.0674C388.81 83.7703 389.051 83.5312 389.348 83.5312C389.645 83.5312 389.887 83.7703 389.887 84.0674V85.6831C389.887 85.9825 389.645 86.224 389.348 86.224ZM389.348 91.6085C389.051 91.6085 388.81 91.3682 388.81 91.0688V89.453C388.81 89.156 389.051 88.9169 389.348 88.9169C389.645 88.9169 389.887 89.156 389.887 89.453V91.0688C389.887 91.3682 389.645 91.6085 389.348 91.6085Z" fill="#99C8FF"/>
<path d="M293.103 97.9667C292.687 97.9667 292.335 97.6486 292.298 97.2269L286.777 32.0248C286.739 31.5804 287.07 31.1891 287.514 31.1505C287.961 31.1167 288.35 31.4427 288.388 31.8871L293.909 97.0907C293.945 97.5353 293.617 97.9264 293.17 97.964C293.149 97.9657 293.124 97.9667 293.103 97.9667Z" fill="#99C8FF"/>
<path d="M285.123 35.3911L287.62 32.4302L290.581 34.9298L290.385 32.6113L287.424 30.1141L284.925 33.075L285.123 35.3911Z" fill="#99C8FF"/>
<path d="M402.521 94.8927H288.915C288.468 94.8927 288.105 94.5309 288.105 94.0849C288.105 93.6386 288.468 93.277 288.915 93.277H402.521C402.965 93.277 403.328 93.6386 403.328 94.0849C403.328 94.5309 402.965 94.8927 402.521 94.8927Z" fill="#99C8FF"/>
<path d="M399.301 96.824L402.042 94.085L399.301 91.3446H401.627L404.365 94.085L401.627 96.824H399.301Z" fill="#99C8FF"/>
<path d="M297.827 76.1588C297.429 76.1588 297.081 75.8642 297.028 75.4584C296.968 75.0141 297.279 74.6083 297.721 74.5504C298.318 74.4707 357.799 66.3245 390.362 42.316C390.722 42.0503 391.227 42.1276 391.492 42.4875C391.756 42.8449 391.681 43.3521 391.321 43.6153C358.422 67.8726 298.535 76.0719 297.934 76.1516C297.897 76.1564 297.864 76.1588 297.827 76.1588Z" fill="#99C8FF"/>
<path d="M391.095 47.2627L391.03 47.2603C390.586 47.2265 390.252 46.8376 390.288 46.3933L390.537 43.2198L386.064 42.9542C385.62 42.9276 385.28 42.5436 385.306 42.0992C385.333 41.6548 385.712 41.3046 386.161 41.3409L391.455 41.6548C391.672 41.6669 391.875 41.7659 392.018 41.9302C392.16 42.0944 392.23 42.3069 392.213 42.5243L391.899 46.5188C391.866 46.9415 391.513 47.2627 391.095 47.2627Z" fill="#99C8FF"/>
<path d="M14.4329 151.933C14.3167 151.994 14.1732 151.95 14.1114 151.834L13.0311 149.812C12.9691 149.696 13.0128 149.551 13.1292 149.489L13.1304 149.488C13.2471 149.428 13.3905 149.471 13.4523 149.587L14.5326 151.61C14.5949 151.726 14.5512 151.871 14.4346 151.932L14.4329 151.933Z" fill="white"/>
<path d="M50.5266 172.549L51.0389 175.215C51.0753 175.404 50.9509 175.587 50.7616 175.624C50.5727 175.66 50.3904 175.537 50.353 175.348L50.3486 175.326L49.8306 172.708L49.8262 172.686C49.7878 172.492 49.9137 172.304 50.1069 172.266C50.3003 172.228 50.488 172.354 50.5264 172.547L50.5266 172.549Z" fill="#99C8FF"/>
<path d="M51.3766 177.908L51.5433 180.618C51.5549 180.804 51.4146 180.961 51.23 180.973C51.0463 180.985 50.8881 180.845 50.8757 180.662L50.8743 180.64L50.6956 177.976L50.6941 177.952C50.6816 177.763 50.8241 177.602 51.0124 177.59C51.2008 177.578 51.3641 177.718 51.3766 177.908Z" fill="#99C8FF"/>
<path d="M51.5271 183.336L51.33 186.036C51.3172 186.212 51.1638 186.345 50.9878 186.33C50.8122 186.318 50.6803 186.166 50.6921 185.99L50.6931 185.975L50.873 183.307L50.8742 183.29C50.8863 183.109 51.0423 182.973 51.2227 182.985C51.4032 182.997 51.5394 183.152 51.5271 183.333V183.336Z" fill="#99C8FF"/>
<path d="M51.0035 188.724L50.5627 191.395C50.5354 191.559 50.3784 191.673 50.2125 191.646C50.0468 191.617 49.9345 191.463 49.9609 191.296L49.963 191.284L50.3847 188.637L50.3866 188.625C50.4139 188.453 50.574 188.337 50.7443 188.364C50.9146 188.393 51.0308 188.552 51.0037 188.721L51.0035 188.724Z" fill="#99C8FF"/>
<path d="M50.0041 194.042L49.3165 196.663C49.2759 196.817 49.1175 196.909 48.9625 196.87C48.8081 196.829 48.7156 196.672 48.7553 196.518L48.7591 196.501L49.4245 193.909L49.4283 193.895C49.4692 193.735 49.631 193.639 49.7904 193.68C49.9493 193.721 50.0454 193.883 50.0043 194.042H50.0041Z" fill="#99C8FF"/>
<path d="M48.4792 199.242L47.4595 201.759C47.4023 201.899 47.2422 201.966 47.1014 201.908C46.9611 201.853 46.8934 201.693 46.9492 201.553L46.9579 201.532L47.9471 199.051L47.9551 199.03C48.0128 198.885 48.1773 198.815 48.3222 198.873C48.4671 198.93 48.5376 199.095 48.4799 199.24L48.4792 199.242Z" fill="#99C8FF"/>
<path d="M46.2074 204.174C45.7446 204.957 45.2324 205.713 44.6544 206.42C44.5634 206.531 44.3994 206.548 44.2881 206.456C44.177 206.367 44.1603 206.203 44.2502 206.092C44.8044 205.406 45.2983 204.667 45.7456 203.901C45.82 203.773 45.984 203.732 46.1117 203.805C46.2395 203.879 46.2827 204.044 46.2083 204.172L46.2074 204.174Z" fill="#99C8FF"/>
<path d="M42.7097 208.355C41.9857 208.923 41.179 209.398 40.3096 209.72C40.1828 209.768 40.0413 209.703 39.994 209.577C39.9469 209.449 40.0111 209.309 40.1372 209.261C40.9518 208.952 41.7106 208.502 42.3965 207.959C42.5059 207.872 42.6651 207.889 42.752 208C42.8387 208.109 42.8204 208.268 42.7109 208.355H42.7097Z" fill="#99C8FF"/>
<path d="M199.378 217.262C199.378 217.262 196.021 208.42 192.097 209.23C188.172 210.039 183.881 213.053 183.881 213.053L177.577 221.578C177.577 221.578 195.273 228.548 201.494 224.553C201.494 224.553 219.569 227.676 242.391 223.933C239.087 216.955 237.119 209.973 235.962 204.551C224.404 211.096 211.951 215.982 199.378 217.262Z" fill="#E79C97"/>
<path d="M295.118 153.128C295.118 153.128 269.241 185.721 235.963 204.556C237.12 209.978 239.088 216.96 242.392 223.938C259.655 221.105 279.635 214.345 296.572 199.323L295.118 153.128Z" fill="#99C8FF"/>
<path d="M462.532 168.159L411.163 297.35C408.548 303.926 401.766 307.853 394.762 306.844L260.053 297.417L308.575 159.515C309.867 156.117 313.161 153.901 316.796 153.985C340.413 154.529 426.434 156.653 457.207 159.392C461.479 159.773 464.158 164.189 462.532 168.159Z" fill="#EFEFF6"/>
<path d="M399.302 300.978L450.625 170.626C451.661 167.994 449.761 165.136 446.935 165.072L320.077 160.257C316.809 160.133 313.819 162.09 312.626 165.135L266.162 292.206L399.302 300.978Z" fill="white"/>
<path d="M101.174 157.436L102.78 200.584C107.344 202.154 111.688 203.376 115.825 204.287C118.412 195.957 124.11 185.731 128.776 178.129C111.634 172.069 101.174 157.436 101.174 157.436Z" fill="#0066DF"/>
<path d="M186.757 156.705C163.241 182.092 144.209 183.587 128.774 178.131C124.109 185.734 118.411 195.96 115.823 204.289C178.618 218.135 193.406 160.405 193.406 160.405L186.757 156.705Z" fill="#FFB3AD"/>
<path d="M191.525 154.006C191.525 154.006 194.235 151.098 199.246 152.012C204.26 152.926 208.723 154.667 211.846 152.012C214.971 149.356 216.068 152.92 216.068 152.92L206.714 160.03L191.525 154.006Z" fill="#E79C97"/>
<path d="M185.935 158.978C185.935 158.978 187.789 151.218 193.383 152.282C198.976 153.345 211.675 160.25 214.947 158.978C218.22 157.707 222.403 154.661 224.55 155.738L220.77 160.439C220.77 160.439 230.491 154.831 232.164 158.277L215.988 167.379C215.988 167.379 192.323 165.01 185.935 158.978Z" fill="url(#paint0_linear)"/>
<path d="M19.9255 296.748C19.9226 296.684 19.726 296.801 19.6508 296.801C19.6412 296.794 19.6317 296.787 19.6221 296.779C19.6227 296.795 19.6336 296.801 19.6508 296.801C19.7501 296.876 19.8501 296.951 19.9505 297.026L19.9255 296.748Z" fill="#2B8CFF"/>
<path d="M60.8761 276.335C60.8761 284.663 56.9122 292.067 50.7689 296.762L72.8577 296.572C70.856 275.802 87.413 241.942 103.683 222.573C108.105 217.308 111.822 211.954 114.551 206.546C115.748 204.172 116.756 201.789 117.549 199.398C121.936 186.168 119.764 172.718 106.969 159.59C100.061 152.502 93.6174 149.059 88.1151 147.602C85.6326 146.945 83.3404 146.692 81.2857 146.692C79.4565 146.692 77.8152 146.892 76.391 147.185C72.5022 147.985 70.2397 149.479 70.2397 149.479C67.5802 151.098 65.0538 152.884 62.6621 154.812C60.0393 156.926 57.5739 159.216 55.2559 161.654C45.1127 172.326 37.8027 185.871 32.5424 200.294C38.8357 204.827 42.9324 212.217 42.9324 220.566C42.9324 232.98 34.2738 241.825 22.4062 243.757C21.9657 247.087 21.1953 251.815 20.8854 254.986C24.973 252.242 29.8913 250.641 35.1838 250.641C49.3732 250.641 60.8761 262.144 60.8761 276.335Z" fill="#2B8CFF"/>
<path d="M99.7142 118.273C99.6988 119.639 80.2217 147.303 80.2217 147.303C80.2217 147.303 83.7175 154.189 100.408 159.779L114.814 130.158L99.7142 118.273Z" fill="#FFB3AD"/>
<path d="M92.0605 213.259C92.0605 213.259 129.014 244.209 168.916 230.703C171.392 229.868 174.099 230.049 176.408 231.269L187.879 237.328C192.695 239.871 198.658 238.202 201.452 233.527C203.046 230.86 204.406 227.817 204.677 224.9L182.231 215.812L183.885 213.059C183.885 213.059 172.925 212.131 170.056 219.985C170.056 219.985 149.181 228.667 113.977 189.946C113.977 189.946 98.0017 203.531 92.0605 213.259Z" fill="#FFB3AD"/>
<path d="M90.0668 213.121C89.9094 213.121 89.7502 213.078 89.6097 212.981C74.0047 202.439 66.6638 185.42 66.5913 185.248C66.4153 184.833 66.6094 184.355 67.0246 184.179C67.4405 184.002 67.9206 184.195 68.0967 184.611C68.1677 184.777 75.3328 201.362 90.5252 211.626C90.8993 211.88 90.9979 212.387 90.745 212.761C90.5868 212.996 90.3294 213.121 90.0668 213.121Z" fill="#0066DF"/>
<path d="M113.246 189.604C112.978 189.604 112.715 189.474 112.558 189.23C112.512 189.157 107.755 181.753 98.6979 165.535C95.9396 160.596 92.3201 157.47 87.9382 156.243C80.6718 154.209 73.6625 158.109 73.5922 158.148C73.2 158.371 72.701 158.233 72.4779 157.841C72.255 157.448 72.3924 156.95 72.7841 156.727C73.0935 156.552 80.4337 152.453 88.364 154.664C93.1872 156.01 97.1443 159.399 100.125 164.738C109.153 180.902 113.886 188.271 113.933 188.346C114.178 188.725 114.068 189.23 113.688 189.474C113.552 189.563 113.398 189.604 113.246 189.604Z" fill="#0066DF"/>
<path d="M115.053 102.421C115.053 102.421 121.984 118.341 122.449 126.697C122.915 135.053 124.715 140.475 115.053 142.158C105.392 143.841 97.2525 139.028 92.8432 130.704C92.8432 130.704 85.9346 117.879 87.4844 112.626C89.0341 107.373 115.053 102.421 115.053 102.421Z" fill="#FFB3AD"/>
<path d="M96.1423 124.719L96.6922 124.477C97.3926 124.168 97.6921 123.334 97.3404 122.655C95.9778 120.022 93.322 113.99 96.7531 112.583C101.175 110.769 118.691 107.197 122.47 100.982C126.102 95.0089 122.884 87.2985 118.048 85.1055C117.724 84.9582 117.342 85.0742 117.176 85.3881L116.773 86.1513C116.497 86.6729 115.726 86.5957 115.562 86.0281C115.404 85.4823 114.68 85.3785 114.38 85.8591C113.218 87.7163 110.082 90.7327 101.695 92.2799C89.7756 94.4798 81.8951 99.3032 81.699 107.54C81.6865 108.063 81.13 108.354 80.683 108.082C79.8029 107.545 78.3944 107.293 76.5124 108.876C73.2389 111.629 74.5783 118.769 81.7543 124.642C82.0951 124.921 82.0924 125.453 81.7234 125.693C80.4224 126.54 78.4831 128.555 83.5082 131.241C88.7055 134.02 92.5868 133.792 94.0815 133.545C94.4532 133.484 94.6928 133.124 94.6119 132.756L93.0167 125.517C92.9264 125.107 93.2381 124.719 93.6576 124.719H96.1423Z" fill="#42526E"/>
<path d="M96.4428 126.247C96.4428 126.247 93.7988 116.078 89.2393 118.929C84.6801 121.78 91.6054 130.323 95.271 130.704L96.4428 126.247Z" fill="url(#paint1_linear)"/>
<path d="M176.407 231.269C176.407 231.269 185.8 240.454 187.611 239.118C188.256 238.642 189.883 236.913 191.461 234.988C192.574 233.631 192.69 231.714 191.736 230.24L189.521 226.823C187.41 223.565 182.892 222.882 179.965 225.429C178.487 226.714 177.146 228.576 176.407 231.269Z" fill="#E79C97"/>
<path d="M324.383 297.954C324.383 297.954 324.32 256.682 300.323 214.068C292.82 200.739 290.149 185.224 292.491 170.105L295.119 153.126C295.119 153.126 328.049 141.983 364.551 152.657C364.551 152.657 415.164 194.433 381.338 301.279L324.383 297.954Z" fill="#99C8FF"/>
<path d="M300.725 131.458L309.264 151.972C309.803 153.268 310.969 154.191 312.351 154.428C317.275 155.273 329.182 156.591 337.002 151.45C337.934 150.837 338.171 149.57 337.533 148.655L321.758 126.007L300.725 131.458Z" fill="#FFB3AD"/>
<path d="M321.784 227.863C320.608 228.172 320.023 229.493 320.586 230.573L345.29 277.94C345.706 278.74 346.631 279.136 347.498 278.884L428.302 255.555C429.307 255.262 429.889 254.212 429.597 253.207L415.678 205.021C415.393 204.031 414.369 203.451 413.372 203.712L321.784 227.863Z" fill="#99C8FF"/>
<path d="M326.996 222.3C325.84 222.576 325.185 223.8 325.596 224.916L345.368 278.633C345.728 279.608 346.781 280.142 347.783 279.852L428.344 256.592C429.346 256.303 429.952 255.286 429.733 254.267L418.567 202.569C418.333 201.482 417.251 200.799 416.169 201.057L326.996 222.3Z" fill="#E3F0FF"/>
<path d="M334.015 216.878C332.603 217.093 331.67 218.465 331.994 219.856L345.424 277.843C345.741 279.214 347.144 280.038 348.494 279.647L427.835 256.739C429.11 256.372 429.861 255.056 429.53 253.771L417.329 206.438C417.015 205.218 415.829 204.436 414.583 204.624L334.015 216.878Z" fill="#42526E"/>
<path d="M398.241 238.988C404.399 192.471 368.552 156.703 368.552 156.703L347.222 181.569C363.415 201.752 371.112 220.247 374.628 234.774C379.292 233.414 390.52 231.269 398.241 238.988Z" fill="#99C8FF"/>
<path d="M374.626 235.316C374.38 235.316 374.157 235.15 374.097 234.901C369.735 216.882 360.551 199.054 346.794 181.909C346.606 181.675 346.645 181.329 346.879 181.143C347.116 180.952 347.459 180.991 347.647 181.225C361.5 198.496 370.757 216.469 375.157 234.645C375.227 234.937 375.049 235.232 374.754 235.302C374.713 235.312 374.669 235.316 374.626 235.316Z" fill="#2B8CFF"/>
<path d="M374.626 234.77C377.896 248.27 377.551 258.344 377.053 263.155C376.867 264.966 375.409 266.381 373.59 266.509C371.525 266.654 368.714 266.845 366.202 266.99C363.439 267.147 360.375 265.403 358.327 263.945C357.279 263.198 355.926 264.36 356.511 265.502C358.039 268.495 361.923 271.158 364.599 272.726C365.572 273.296 365.388 274.752 364.304 275.059L352.861 278.302C371.663 296.017 384.079 276.196 384.079 276.196C392.38 263.372 396.671 250.831 398.239 238.984C390.518 231.266 379.29 233.41 374.626 234.77Z" fill="#FFB3AD"/>
<path d="M309.554 100.07C309.197 100.408 294.421 129.425 294.421 129.425L311.167 137.51L329.259 112.088C329.259 112.088 315.558 94.419 309.554 100.07Z" fill="#FFB3AD"/>
<path d="M321.649 115.139L313.295 129.063C313.167 129.274 313.017 129.465 312.836 129.633C311.843 130.559 308.441 133.25 305.81 129.586C303.569 126.462 301.466 123.622 299.212 122.451C297.896 121.767 296.276 122.313 295.609 123.637C294.232 126.365 291.566 131.925 289.893 137.197C289.472 138.519 290.153 139.937 291.438 140.458C294.829 141.832 301.533 144.316 307.479 145.137C308.457 145.272 309.423 144.86 310.005 144.063C312.563 140.558 319.777 130.762 322.238 128.31C324.525 126.032 328.744 126.891 330.647 127.437C331.37 127.645 332.137 127.545 332.78 127.157C334.71 125.995 338.079 123.101 334.997 118.201C334.231 116.983 334.623 115.36 335.825 114.569C337.977 113.152 340.315 110.492 338.088 106.184C335.835 101.824 331.809 101.432 329.065 101.767C327.853 101.916 326.621 101.279 326.155 100.149C325.948 99.6465 325.539 99.2179 324.776 99.0633C323.339 98.7718 322.397 97.4575 322.678 96.0183C323.163 93.5508 322.798 90.345 318.857 88.1787C311.631 84.2058 305.303 90.6807 303.692 96.1444C302.084 101.609 310.162 105.471 315.244 106.116C318.978 106.589 321.026 110.663 321.849 112.793C322.146 113.566 322.074 114.429 321.649 115.139Z" fill="#42526E"/>
<path d="M319.103 133.422C319.103 133.422 322.315 124.02 326.428 124.365C330.54 124.71 333.779 128.808 328.681 133.414C322.341 139.143 319.103 133.422 319.103 133.422Z" fill="#FFB3AD"/>
<path d="M193.427 307.001H16.261C16.1035 307.001 15.9475 306.996 15.7929 306.986C12.3517 306.745 10.0208 301.927 9.05069 300.374C8.10964 298.99 9.09121 297.117 10.7642 297.103L11.2067 297.099L19.632 297.027L19.9496 297.024C24.2118 300.166 29.4808 302.026 35.1828 302.026C41.0436 302.026 46.4452 300.065 50.768 296.761L72.8567 296.57L80.6636 296.505L151.63 295.896L190.804 295.561C194.004 295.604 196.682 297.763 197.518 300.698C197.694 301.316 197.788 301.968 197.788 302.642C197.788 305.05 195.837 307.001 193.427 307.001Z" fill="#EFEFF6"/>
<path d="M214.247 302.642C214.247 305.05 216.198 307.001 218.609 307.001H395.776C399.435 307.001 402.4 304.035 402.4 300.374L405.187 297.138L221.232 295.561C217.36 295.614 214.247 298.768 214.247 302.642Z" fill="#EFEFF6"/>
<path d="M24.3846 244.7C11.0534 244.7 0.246094 233.892 0.246094 220.561C0.246094 207.23 11.0534 196.422 24.3846 196.422C37.7157 196.422 48.5228 207.23 48.5228 220.561C48.5228 233.892 37.7157 244.7 24.3846 244.7ZM24.9103 200.658C13.627 200.658 4.48025 209.804 4.48025 221.087C4.48025 232.371 13.627 241.517 24.9103 241.517C36.1937 241.517 45.3404 232.371 45.3404 221.087C45.3404 209.804 36.1937 200.658 24.9103 200.658ZM24.3846 197.741C15.7187 197.741 7.90728 202.549 3.99964 210.292C3.8656 210.558 3.97211 210.881 4.23753 211.014C4.31554 211.055 4.39838 211.072 4.48001 211.072C4.67684 211.072 4.86642 210.966 4.9611 210.777C8.6847 203.399 16.1271 198.818 24.3846 198.818C25.7022 198.818 27.0221 198.936 28.3079 199.17C28.3398 199.175 28.3716 199.178 28.403 199.178C28.6598 199.178 28.8868 198.997 28.9344 198.738C28.9875 198.444 28.7933 198.163 28.5009 198.11C27.1518 197.864 25.7667 197.741 24.3846 197.741Z" fill="#99C8FF"/>
<path d="M4.48165 211.075C4.40002 211.075 4.31718 211.058 4.23917 211.017C3.97375 210.884 3.86724 210.561 4.00128 210.295C7.90892 202.552 15.7203 197.744 24.3862 197.744C25.7684 197.744 27.1534 197.867 28.5025 198.113C28.795 198.166 28.9891 198.446 28.936 198.741C28.8884 198.999 28.6614 199.181 28.4047 199.181C28.3733 199.181 28.3414 199.178 28.3095 199.173C27.0237 198.939 25.7039 198.821 24.3862 198.821C16.1287 198.821 8.68634 203.402 4.96273 210.78C4.86806 210.969 4.67848 211.075 4.48165 211.075Z" fill="#E3F0FF"/>
<path d="M24.9105 241.521C13.6272 241.521 4.48047 232.375 4.48047 221.091C4.48047 209.808 13.6272 200.662 24.9105 200.662C36.1939 200.662 45.3406 209.808 45.3406 221.091C45.3406 232.375 36.1939 241.521 24.9105 241.521Z" fill="#E3F0FF"/>
<path d="M22.9056 236.278V234.054C20.5886 233.962 18.2966 233.414 16.6688 232.701C16.0875 232.448 15.7914 231.796 15.9583 231.182L16.523 229.113C16.7302 228.354 17.5562 227.961 18.2821 228.265C19.8969 228.941 21.8905 229.477 24.0405 229.477C26.2723 229.477 27.9365 228.721 27.9365 227.171C27.9365 225.77 26.6505 224.939 23.5487 224.106C19.1231 222.896 15.9455 220.967 15.9455 217.071C15.9455 213.552 18.5178 210.867 22.9814 210.149V207.925C22.9814 207.21 23.5611 206.63 24.2764 206.63H25.5823C26.2976 206.63 26.8775 207.21 26.8775 207.925V209.92C29.0214 210.007 30.5822 210.374 31.8207 210.809C32.4554 211.031 32.8022 211.714 32.6262 212.364L32.1069 214.279C31.9067 215.018 31.1174 215.421 30.4018 215.151C29.2614 214.721 27.6491 214.272 25.5535 214.272C22.9056 214.272 22.1492 215.368 22.1492 216.351C22.1492 217.561 23.7379 218.394 27.1801 219.455C32.0975 220.928 34.1402 222.971 34.1402 226.64C34.1402 230.006 31.6437 233.032 26.8019 233.791V236.278C26.8019 236.993 26.222 237.573 25.5067 237.573H24.2006C23.4855 237.573 22.9056 236.993 22.9056 236.278Z" fill="#99C8FF"/>
<path d="M35.1833 302.025C29.4813 302.025 24.2122 300.166 19.9501 297.023C19.8399 296.941 19.7303 296.859 19.6216 296.777C13.4641 292.085 9.49121 284.673 9.49121 276.333C9.49121 267.436 14.0137 259.594 20.8849 254.984C24.9725 252.24 29.8909 250.639 35.1833 250.639C49.3728 250.639 60.8756 262.142 60.8756 276.333C60.8756 284.661 56.9117 292.065 50.7684 296.76C46.4456 300.064 41.044 302.025 35.1833 302.025ZM35.1833 251.494C21.4658 251.494 10.3454 262.616 10.3454 276.333C10.3454 290.051 21.4658 301.17 35.1833 301.17C48.9011 301.17 60.0212 290.051 60.0212 276.333C60.0212 262.616 48.9011 251.494 35.1833 251.494Z" fill="#99C8FF"/>
<path d="M35.1797 301.168C21.4621 301.168 10.3418 290.049 10.3418 276.332C10.3418 262.614 21.4621 251.492 35.1797 251.492C48.8974 251.492 60.0175 262.614 60.0175 276.332C60.0175 290.049 48.8974 301.168 35.1797 301.168ZM35.7209 255.849C24.1105 255.849 14.6986 265.261 14.6986 276.873C14.6986 288.482 24.1105 297.894 35.7209 297.894C47.3312 297.894 56.7431 288.482 56.7431 276.873C56.7431 265.261 47.3312 255.849 35.7209 255.849ZM35.1797 252.864C26.2682 252.864 18.2363 257.81 14.2178 265.77C14.0838 266.036 14.1903 266.36 14.4559 266.495C14.5337 266.533 14.6165 266.55 14.6979 266.55C14.895 266.55 15.0846 266.444 15.1792 266.256C19.0137 258.66 26.6771 253.941 35.1797 253.941C36.5372 253.941 37.8964 254.064 39.2196 254.303C39.252 254.311 39.2841 254.313 39.3158 254.313C39.5725 254.313 39.7988 254.132 39.8461 253.871C39.8993 253.579 39.7053 253.299 39.4126 253.246C38.0256 252.992 36.6017 252.864 35.1797 252.864Z" fill="#99C8FF"/>
<path d="M14.7021 266.551C14.6207 266.551 14.5379 266.534 14.4601 266.495C14.1944 266.36 14.0879 266.036 14.222 265.771C18.2405 257.811 26.2724 252.864 35.1839 252.864C36.6059 252.864 38.0298 252.992 39.4168 253.246C39.7095 253.299 39.9034 253.579 39.8503 253.871C39.803 254.132 39.5767 254.313 39.32 254.313C39.2883 254.313 39.2562 254.311 39.2238 254.304C37.9006 254.065 36.5414 253.942 35.1839 253.942C26.6813 253.942 19.0179 258.661 15.1834 266.256C15.0888 266.445 14.8992 266.551 14.7021 266.551Z" fill="#E3F0FF"/>
<path d="M35.7254 297.896C24.115 297.896 14.7031 288.484 14.7031 276.875C14.7031 265.263 24.115 255.851 35.7254 255.851C47.3357 255.851 56.7476 265.263 56.7476 276.875C56.7476 288.484 47.3357 297.896 35.7254 297.896Z" fill="#E3F0FF"/>
<path d="M33.66 292.504V290.217C31.2758 290.12 28.9174 289.557 27.2426 288.826C26.6443 288.562 26.3396 287.891 26.5115 287.261L27.0923 285.13C27.3056 284.35 28.1555 283.945 28.9025 284.259C30.5641 284.954 32.6154 285.507 34.8279 285.507C37.1242 285.507 38.8367 284.727 38.8367 283.131C38.8367 281.691 37.5135 280.836 34.3217 279.979C29.7678 278.733 26.4982 276.748 26.4982 272.739C26.4982 269.121 29.1452 266.355 33.738 265.616V263.329C33.738 262.593 34.3345 261.996 35.0704 261.996H36.4144C37.1503 261.996 37.7471 262.593 37.7471 263.329V265.382C39.9532 265.472 41.5591 265.848 42.8337 266.298C43.4865 266.527 43.8435 267.23 43.6624 267.896L43.1279 269.867C42.9219 270.628 42.1099 271.043 41.3736 270.765C40.2001 270.321 38.5411 269.86 36.3847 269.86C33.66 269.86 32.8816 270.988 32.8816 272C32.8816 273.246 34.5166 274.101 38.0584 275.192C43.1185 276.709 45.2201 278.813 45.2201 282.587C45.2201 286.051 42.6514 289.166 37.6693 289.944V292.504C37.6693 293.24 37.0728 293.837 36.3366 293.837H34.9926C34.2568 293.837 33.66 293.24 33.66 292.504Z" fill="#99C8FF"/>
<path d="M68.1407 260.156C57.7444 260.156 49.3164 251.727 49.3164 241.33C49.3164 230.935 57.7444 222.507 68.1407 222.507C78.5375 222.507 86.9654 230.935 86.9654 241.33C86.9654 251.727 78.5375 260.156 68.1407 260.156ZM68.1407 223.132C58.09 223.132 49.9424 231.281 49.9424 241.33C49.9424 251.381 58.09 259.53 68.1407 259.53C78.1916 259.53 86.3394 251.381 86.3394 241.33C86.3394 231.281 78.1916 223.132 68.1407 223.132Z" fill="#99C8FF"/>
<path d="M68.1436 259.531C58.0929 259.531 49.9453 251.382 49.9453 241.33C49.9453 231.281 58.0929 223.133 68.1436 223.133C78.1945 223.133 86.3423 231.281 86.3423 241.33C86.3423 251.382 78.1945 259.531 68.1436 259.531ZM68.5404 226.325C60.0337 226.325 53.1376 233.22 53.1376 241.726C53.1376 250.235 60.0337 257.13 68.5404 257.13C77.0471 257.13 83.9432 250.235 83.9432 241.726C83.9432 233.22 77.0471 226.325 68.5404 226.325ZM68.1438 223.992C61.56 223.992 55.6256 227.646 52.657 233.53C52.5229 233.795 52.6292 234.119 52.8949 234.252C52.9726 234.29 53.0555 234.31 53.1371 234.31C53.3339 234.31 53.5235 234.201 53.6184 234.015C56.4028 228.496 61.9686 225.069 68.1438 225.069C69.1304 225.069 70.1177 225.159 71.0777 225.335C71.1108 225.34 71.1436 225.342 71.176 225.342C71.4322 225.342 71.6568 225.161 71.7044 224.9C71.7578 224.608 71.5639 224.328 71.2714 224.275C70.2474 224.089 69.1951 223.992 68.1438 223.992Z" fill="#99C8FF"/>
<path d="M53.1377 234.31C53.0561 234.31 52.9732 234.291 52.8955 234.252C52.6298 234.119 52.5235 233.796 52.6576 233.53C55.6262 227.647 61.5606 223.993 68.1444 223.993C69.1957 223.993 70.248 224.089 71.272 224.275C71.5644 224.328 71.7584 224.609 71.705 224.901C71.6574 225.162 71.4328 225.343 71.1766 225.343C71.1442 225.343 71.1114 225.34 71.0783 225.336C70.1183 225.159 69.131 225.07 68.1444 225.07C61.9692 225.07 56.4034 228.497 53.619 234.015C53.5241 234.201 53.3345 234.31 53.1377 234.31Z" fill="#E3F0FF"/>
<path d="M68.5395 257.132C60.0328 257.132 53.1367 250.237 53.1367 241.729C53.1367 233.223 60.0328 226.327 68.5395 226.327C77.0462 226.327 83.9423 233.223 83.9423 241.729C83.9423 250.237 77.0462 257.132 68.5395 257.132Z" fill="#E3F0FF"/>
<path d="M67.0276 253.182V251.506C65.2807 251.436 63.5527 251.023 62.3256 250.487C61.8873 250.293 61.6639 249.803 61.7897 249.342L62.2155 247.779C62.3718 247.207 62.9946 246.912 63.5419 247.142C64.7593 247.651 66.2625 248.055 67.8833 248.055C69.5659 248.055 70.8205 247.485 70.8205 246.316C70.8205 245.26 69.8511 244.632 67.5125 244.004C64.1758 243.091 61.7803 241.638 61.7803 238.701C61.7803 236.049 63.7196 234.023 67.0848 233.482V231.806C67.0848 231.267 67.522 230.83 68.0612 230.83H69.0456C69.5849 230.83 70.0221 231.267 70.0221 231.806V233.31C71.6387 233.376 72.8151 233.651 73.7491 233.979C74.2275 234.148 74.4888 234.663 74.3562 235.153L73.9647 236.597C73.8138 237.153 73.2189 237.457 72.6794 237.254C71.8194 236.928 70.6039 236.59 69.0239 236.59C67.0276 236.59 66.4574 237.418 66.4574 238.16C66.4574 239.07 67.655 239.698 70.2503 240.498C73.9577 241.609 75.4976 243.149 75.4976 245.917C75.4976 248.453 73.6155 250.735 69.9651 251.305V253.182C69.9651 253.72 69.5279 254.157 68.9886 254.157H68.004C67.4647 254.157 67.0276 253.72 67.0276 253.182Z" fill="#99C8FF"/>
<path d="M363.712 173.01C362.469 172.583 362.647 170.768 363.952 170.598C369.888 169.829 378.589 167.504 381.437 160.539C385.91 149.61 376.648 107.472 419.192 99.9324C458.438 92.9776 480.297 105.397 479.799 141.661C479.319 176.814 422.827 193.295 363.712 173.01Z" fill="#E3F0FF"/>
<path d="M397.801 163.867H393.995V134.08H397.801V163.867Z" fill="#99C8FF"/>
<path d="M404.162 163.867H400.355V144.318H404.162V163.867Z" fill="#99C8FF"/>
<path d="M410.524 163.867H406.716V119.017H410.524V163.867Z" fill="#99C8FF"/>
<path d="M416.882 163.867H413.076V153.093H416.882V163.867Z" fill="#99C8FF"/>
<path d="M423.245 163.867H419.438V125.013H423.245V163.867Z" fill="#99C8FF"/>
<path d="M429.604 163.867H425.798V131.74H429.604V163.867Z" fill="#99C8FF"/>
<path d="M435.962 163.867H432.156V139.053H435.962V163.867Z" fill="#99C8FF"/>
<path d="M442.325 163.867H438.519V109.949H442.325V163.867Z" fill="#99C8FF"/>
<path d="M448.685 163.867H444.879V115.653H448.685V163.867Z" fill="#99C8FF"/>
<path d="M455.046 163.867H451.237V124.282H455.046V163.867Z" fill="#99C8FF"/>
<path d="M461.407 163.867H457.601V154.093H461.407V163.867Z" fill="#99C8FF"/>
<defs>
<linearGradient id="paint0_linear" x1="209.05" y1="50.0199" x2="209.05" y2="146.308" gradientUnits="userSpaceOnUse">
<stop stop-color="#FF928E"/>
<stop offset="1" stop-color="#FEB3B1"/>
</linearGradient>
<linearGradient id="paint1_linear" x1="131.164" y1="82.9348" x2="83.2418" y2="134.407" gradientUnits="userSpaceOnUse">
<stop stop-color="#FF928E"/>
<stop offset="1" stop-color="#FEB3B1"/>
</linearGradient>
</defs>
</svg>
