<svg width="169" height="167" viewBox="0 0 169 167" fill="none" xmlns="http://www.w3.org/2000/svg">
<path d="M86.1641 167C76.1353 167 68.4737 165.597 65.4183 164.977C55.8198 163.027 38.4648 159.503 23.9275 146.76H143.963C141.795 148.661 139.782 150.106 138.075 151.331C120.384 164.025 100.766 167 86.1641 167ZM9.37743 128.191C-4.74823 101.139 0.10461 65.3234 15.8207 40.5438C19.1451 35.302 36.7052 6.2099 72.3964 1.54466C75.9383 1.08148 79.5811 0.847504 83.2693 0.847504C90.1865 0.847504 97.2787 1.66942 104.24 3.34486C96.0921 8.01428 92.2464 15.9224 92.2464 15.9224C92.2464 15.9224 87.4713 14.229 81.6147 14.229C73.7693 14.229 63.981 17.2648 61.1124 31.4748C50.2288 33.8904 44.6981 43.4339 45.3368 52.4015L14.7652 51.6106C14.7058 51.6088 14.6464 51.6082 14.5873 51.6082C12.7739 51.6082 11.0316 52.3263 9.74445 53.609C8.41531 54.934 7.68807 56.7456 7.73242 58.6204L9.37743 128.191ZM162.691 114.796L163.382 67.0514C163.688 66.8944 163.982 66.7147 164.259 66.516C167.666 82.8831 166.885 99.982 162.691 114.796ZM147.218 29.6519C146.251 29.5749 145.241 29.5241 144.19 29.5009C143.767 29.4919 143.427 29.1762 143.419 28.7846C143.404 28.0289 143.344 26.7068 143.129 25.0326C144.563 26.5224 145.926 28.0648 147.218 29.6519Z" fill="#FAFAFD"/>
<path d="M159.547 146.76H12.4719C10.9761 146.76 9.75224 145.537 9.75224 144.043L9.37739 128.191L7.73238 58.6205C7.68804 56.7456 8.41528 54.9341 9.74442 53.609C11.0315 52.3263 12.7738 51.6083 14.5872 51.6083C14.6464 51.6083 14.7058 51.6089 14.7652 51.6107L45.3367 52.4015C45.4149 53.4992 45.585 54.5861 45.8494 55.6522L15.3304 54.8332C15.2874 54.832 15.2443 54.8314 15.2014 54.8314C13.9289 54.8314 12.7064 55.3364 11.803 56.2371C10.8691 57.1688 10.3554 58.4438 10.3886 59.7623L12.4373 141.436C12.4373 142.851 13.5952 144.009 15.0104 144.009H156C157.415 144.009 158.573 142.851 158.573 141.436L159.681 67.831L160.046 67.8339C160.067 67.8345 160.087 67.8345 160.108 67.8345C161.282 67.8345 162.402 67.5534 163.382 67.0514L162.69 114.796L162.267 144.043C162.267 145.537 161.043 146.76 159.547 146.76Z" fill="#99C8FF"/>
<path d="M15.0106 144.008C13.5954 144.008 12.4375 142.85 12.4375 141.435L10.3887 59.7614C10.3556 58.4429 10.8692 57.1679 11.8031 56.2362C12.7066 55.3355 13.929 54.8305 15.2015 54.8305C15.2445 54.8305 15.2875 54.8311 15.3305 54.8323L45.8496 55.6512C46.3444 57.6478 47.1693 59.5656 48.3332 61.3103C33.6004 60.9528 22.7017 60.68 21.8825 60.6131C21.5089 60.5833 21.15 60.5648 20.8067 60.5648C15.947 60.5648 14.1378 64.152 15.614 86.9942C16.5047 100.777 16.7451 123.542 17.0696 134C17.1663 137.114 19.7116 139.585 22.8272 139.594C46.3737 139.658 136.619 139.917 142.626 140.096C143.436 140.12 144.191 140.133 144.892 140.133C150.175 140.133 152.413 139.399 152.362 137.178C152.214 130.837 152.269 74.6799 152.633 69.8296C152.692 69.0441 152.544 68.3619 152.203 67.768L157.387 67.8109L157.071 89.3548C157.069 89.467 157.159 89.559 157.271 89.5608H157.274C157.384 89.5608 157.475 89.4718 157.476 89.3608L157.793 67.8145L159.681 67.83L158.573 141.435C158.573 142.85 157.415 144.008 156 144.008H15.0106ZM157.144 98.1815C157.039 98.1833 156.94 98.2693 156.938 98.3809L156.847 104.603C156.845 104.716 156.935 104.808 157.046 104.809H157.049C157.16 104.809 157.251 104.72 157.252 104.609L157.344 98.3869C157.346 98.2752 157.256 98.1827 157.144 98.1815Z" fill="#FAFAFD"/>
<path d="M157.049 104.811H157.046C156.934 104.809 156.845 104.717 156.847 104.605L156.938 98.3821C156.939 98.2705 157.038 98.1846 157.143 98.1828C157.256 98.184 157.345 98.2765 157.343 98.3881L157.252 104.611C157.25 104.722 157.16 104.811 157.049 104.811Z" fill="#99C8FF"/>
<path d="M157.274 89.5625H157.271C157.159 89.5607 157.069 89.4688 157.071 89.3566L157.387 67.8127L157.792 67.8163L157.476 89.3625C157.475 89.4736 157.384 89.5625 157.274 89.5625Z" fill="#99C8FF"/>
<path d="M144.892 140.133C144.191 140.133 143.436 140.12 142.626 140.096C136.619 139.917 46.3736 139.658 22.8271 139.594C19.7115 139.585 17.1662 137.114 17.0696 134C16.745 123.542 16.5046 100.777 15.6139 86.9941C14.1377 64.152 15.9469 60.5647 20.8066 60.5647C21.1499 60.5647 21.5088 60.5832 21.8825 60.6131C22.7016 60.6799 33.6003 60.9527 48.3331 61.3102C49.1127 62.4789 50.0438 63.5695 51.1301 64.5555C52.8229 66.0913 55.0922 66.9592 57.4637 66.9789L152.203 67.7679C152.544 68.3618 152.692 69.0441 152.633 69.8296C152.269 74.6798 152.214 130.837 152.362 137.178C152.413 139.399 150.175 140.133 144.892 140.133ZM21.8102 125.969C21.4312 125.969 21.1238 126.276 21.1238 126.655V134.864C21.1238 135.243 21.4312 135.551 21.8102 135.551H144.998C145.377 135.551 145.685 135.243 145.685 134.864V126.655C145.685 126.276 145.377 125.969 144.998 125.969H21.8102ZM78.422 112.171V123.861H145.685V112.171H78.422ZM21.1238 94.1579V123.861H74.2056V94.1579H21.1238ZM21.661 67.9046C21.3643 67.9046 21.1238 68.1446 21.1238 68.4412V76.9486C21.1238 77.2452 21.3643 77.4858 21.661 77.4858H135.374C135.671 77.4858 135.911 77.2452 135.911 76.9486V68.4412C135.911 68.1446 135.671 67.9046 135.374 67.9046H21.661Z" fill="#E3F0FF"/>
<path d="M0.447962 151.074H168.091C168.337 151.074 168.539 150.873 168.539 150.627V144.096C168.539 143.85 168.337 143.648 168.091 143.648H0.447962C0.201569 143.648 0 143.85 0 144.096V150.627C0 150.873 0.201569 151.074 0.447962 151.074Z" fill="#99C8FF"/>
<path d="M135.374 77.4863H21.6607C21.364 77.4863 21.1235 77.2458 21.1235 76.9491V68.4418C21.1235 68.1451 21.364 67.9052 21.6607 67.9052H135.374C135.671 67.9052 135.911 68.1451 135.911 68.4418V76.9491C135.911 77.2458 135.671 77.4863 135.374 77.4863Z" fill="#FAFAFD"/>
<path d="M144.998 135.551H21.81C21.4309 135.551 21.1235 135.243 21.1235 134.864V126.655C21.1235 126.276 21.4309 125.969 21.81 125.969H144.998C145.377 125.969 145.684 126.276 145.684 126.655V134.864C145.684 135.243 145.377 135.551 144.998 135.551Z" fill="#FAFAFD"/>
<path d="M78.4219 123.861H145.685V112.172H78.4219V123.861Z" fill="#FAFAFD"/>
<path d="M74.2053 84.002H21.1235V81.5106H74.2053V84.002Z" fill="#FAFAFD"/>
<path d="M74.2053 88.2188H21.1235V85.728H74.2053V88.2188Z" fill="#FAFAFD"/>
<path d="M74.2053 92.4336H21.1235V89.9422H74.2053V92.4336Z" fill="#FAFAFD"/>
<path d="M21.1235 123.861H74.2053V94.1587H21.1235V123.861Z" fill="#FAFAFD"/>
<path d="M144.19 29.5007C143.767 29.4918 143.427 29.176 143.419 28.7844C143.34 24.7746 141.987 4.86198 123.022 0.700508C101.908 -3.9319 92.2463 15.9222 92.2463 15.9222C92.2463 15.9222 66.1225 6.65681 61.1123 31.4746C44.732 35.1102 40.4763 54.8903 51.13 64.5562C52.8228 66.092 55.0921 66.9599 57.4635 66.9796L160.046 67.8337C163.057 67.8588 165.727 66.0371 166.582 63.3672C169.786 53.3671 173.986 30.1459 144.19 29.5007Z" fill="#99C8FF"/>
<path d="M141.846 29.9266C141.423 29.917 141.083 29.6025 141.075 29.2121C140.991 25.3658 139.651 6.90121 121.789 3.03102C101.825 -1.29518 92.6888 17.2452 92.6888 17.2452C92.6888 17.2452 67.9868 8.59337 63.2494 31.7691C47.9095 35.1314 43.8149 53.2826 53.5244 62.3994C55.2267 63.9978 57.545 64.9063 59.9707 64.926L156.539 65.7204C159.556 65.7455 162.23 63.9149 163.079 61.2373C166.091 51.7402 169.665 30.5426 141.846 29.9266Z" fill="#FAFAFD"/>
<path d="M164.517 28.0117C164.349 28.0117 164.189 27.9401 164.076 27.8177C164.02 27.7568 163.976 27.6834 163.949 27.5993C163.749 26.9881 163.519 26.3775 163.266 25.7848C163.136 25.4809 163.277 25.1288 163.582 24.9998C163.658 24.967 163.737 24.9515 163.816 24.9515C164.048 24.9515 164.27 25.0876 164.367 25.315C164.633 25.9399 164.876 26.5828 165.086 27.2262C165.19 27.5402 165.018 27.8786 164.704 27.9813C164.642 28.0022 164.58 28.0117 164.517 28.0117ZM162.344 23.2707C162.179 23.2707 162.018 23.2032 161.903 23.0779C161.876 23.0486 161.852 23.017 161.831 22.9818C161.498 22.4303 161.138 21.8865 160.759 21.3648C160.565 21.0968 160.625 20.7226 160.892 20.5286C160.999 20.4516 161.122 20.414 161.244 20.414C161.43 20.414 161.612 20.5 161.728 20.6617C162.126 21.2108 162.506 21.7833 162.856 22.3628C163.026 22.6463 162.936 23.014 162.653 23.1847C162.556 23.2432 162.449 23.2707 162.344 23.2707Z" fill="#99C8FF"/>
<path d="M124.864 19.8828C124.724 19.8828 124.582 19.8333 124.469 19.733C124.453 19.7187 124.438 19.7037 124.423 19.6888C124.219 19.4662 124.211 19.12 124.416 18.8878C124.863 18.3811 125.339 17.8856 125.831 17.4165C125.947 17.3055 126.095 17.2506 126.244 17.2506C126.402 17.2506 126.56 17.3126 126.677 17.4356L126.685 17.4445C126.905 17.6839 126.894 18.0564 126.657 18.282C126.191 18.7278 125.738 19.1982 125.313 19.6799C125.195 19.8142 125.03 19.8828 124.864 19.8828Z" fill="#99C8FF"/>
<path d="M159.171 19.1309C159.014 19.1309 158.857 19.0694 158.739 18.9464C158.293 18.4814 157.822 18.0308 157.339 17.6058C157.323 17.5915 157.307 17.5766 157.293 17.5611C157.088 17.3384 157.08 16.9934 157.284 16.7612C157.403 16.6263 157.568 16.5577 157.734 16.5577C157.874 16.5577 158.016 16.6066 158.129 16.7069C158.638 17.1534 159.134 17.6285 159.603 18.1179L159.612 18.1275C159.831 18.3662 159.821 18.7387 159.585 18.9643C159.469 19.0759 159.32 19.1309 159.171 19.1309Z" fill="#99C8FF"/>
<path d="M128.73 16.3789C128.566 16.3789 128.405 16.3126 128.289 16.1861C128.273 16.1688 128.258 16.1503 128.244 16.1312C128.05 15.8632 128.11 15.489 128.378 15.295C128.929 14.8974 129.501 14.5196 130.081 14.1716C130.178 14.1137 130.284 14.0857 130.388 14.0857C130.591 14.0857 130.79 14.1895 130.902 14.3764C131.072 14.6599 130.981 15.0276 130.698 15.1977C130.147 15.5283 129.602 15.8877 129.079 16.2655C128.974 16.3425 128.851 16.3789 128.73 16.3789Z" fill="#99C8FF"/>
<path d="M155.163 15.7969C155.05 15.7969 154.936 15.7652 154.835 15.6984C154.297 15.345 153.737 15.0108 153.171 14.7052C153.111 14.6723 153.059 14.6312 153.015 14.584C152.847 14.4014 152.805 14.125 152.929 13.894C153.038 13.6935 153.244 13.58 153.457 13.58C153.553 13.58 153.65 13.6033 153.74 13.6517C154.337 13.974 154.926 14.3256 155.492 14.698C155.768 14.8807 155.846 15.2501 155.664 15.5265C155.549 15.702 155.358 15.7969 155.163 15.7969Z" fill="#99C8FF"/>
<path d="M133.269 13.8164C133.102 13.8164 132.942 13.7466 132.828 13.623C132.783 13.5741 132.745 13.5162 132.718 13.4517C132.589 13.1473 132.731 12.7957 133.035 12.6668C133.659 12.4018 134.302 12.1613 134.947 11.9506C135.008 11.9309 135.071 11.9213 135.132 11.9213C135.384 11.9213 135.619 12.0819 135.701 12.3344C135.804 12.6483 135.632 12.9867 135.318 13.0888C134.706 13.2888 134.095 13.5174 133.503 13.7687C133.427 13.8009 133.347 13.8164 133.269 13.8164Z" fill="#99C8FF"/>
<path d="M150.514 13.4434C150.445 13.4434 150.374 13.4314 150.306 13.4058C149.702 13.1813 149.081 12.9802 148.461 12.8083C148.35 12.7772 148.254 12.7163 148.181 12.637C148.046 12.4895 147.987 12.2782 148.045 12.0711C148.119 11.8061 148.359 11.6324 148.621 11.6324C148.674 11.6324 148.728 11.6396 148.782 11.6545C149.434 11.8359 150.088 12.0472 150.723 12.2836C151.033 12.3994 151.191 12.7438 151.075 13.0536C150.985 13.2947 150.757 13.4434 150.514 13.4434ZM138.979 12.2263C138.764 11.8556 138.539 11.488 138.302 11.1227C138.926 11.0158 139.559 10.9329 140.188 10.8762C140.206 10.8744 140.224 10.8738 140.242 10.8738C140.548 10.8738 140.809 11.1072 140.838 11.4181C140.868 11.7476 140.625 12.0383 140.295 12.0681C139.858 12.1081 139.417 12.1607 138.979 12.2263Z" fill="#99C8FF"/>
<path d="M138.268 12.334C138.098 12.334 137.939 12.2606 137.828 12.14C137.753 12.0588 137.7 11.9562 137.68 11.8398C137.622 11.5145 137.839 11.2035 138.164 11.1456C138.21 11.1372 138.256 11.1295 138.302 11.1217C138.539 11.487 138.764 11.8547 138.979 12.2254C138.776 12.2558 138.574 12.2886 138.373 12.3244C138.338 12.331 138.303 12.334 138.268 12.334Z" fill="#99C8FF"/>
<path d="M145.456 12.1816C145.43 12.1816 145.403 12.1798 145.376 12.1763C144.737 12.0909 144.087 12.0324 143.445 12.0014C143.281 11.9936 143.136 11.9202 143.033 11.8086C142.928 11.6946 142.867 11.5412 142.876 11.3747C142.891 11.0541 143.156 10.8046 143.473 10.8046C143.483 10.8046 143.492 10.8052 143.502 10.8052C144.178 10.8381 144.862 10.9001 145.534 10.9897C145.863 11.0332 146.093 11.3341 146.049 11.6618C146.009 11.9626 145.752 12.1816 145.456 12.1816Z" fill="#99C8FF"/>
<path d="M165.46 32.1074C165.289 32.1074 165.13 32.034 165.02 31.9134C164.94 31.8269 164.885 31.7159 164.868 31.5899C164.826 31.2843 164.777 30.9745 164.723 30.6683C164.665 30.343 164.882 30.0321 165.207 29.9742C165.243 29.9682 165.278 29.9646 165.313 29.9646C165.597 29.9646 165.85 30.1687 165.901 30.4588C165.959 30.7799 166.01 31.1058 166.054 31.4282C166.099 31.7553 165.869 32.0573 165.542 32.102C165.515 32.1056 165.487 32.1074 165.46 32.1074Z" fill="#99C8FF"/>
<path d="M160.675 49.7188C160.545 49.7188 160.414 49.677 160.304 49.5898C160.279 49.5701 160.255 49.548 160.234 49.5248C160.039 49.3123 160.021 48.9834 160.205 48.7494C160.397 48.5071 160.586 48.257 160.768 48.0057C160.886 47.8439 161.068 47.758 161.253 47.758C161.375 47.758 161.498 47.795 161.604 47.872C161.873 48.0672 161.931 48.4408 161.737 48.7082C161.546 48.9726 161.346 49.2365 161.145 49.4913C161.027 49.6406 160.852 49.7188 160.675 49.7188Z" fill="#99C8FF"/>
<path d="M142.852 58.5898C142.678 58.5898 142.521 58.5152 142.412 58.3965C142.317 58.2926 142.258 58.1553 142.254 58.0031C142.248 57.673 142.51 57.3996 142.84 57.3925C143.475 57.38 144.116 57.34 144.745 57.2743C144.766 57.2719 144.787 57.2707 144.808 57.2707C145.111 57.2707 145.37 57.4993 145.403 57.8073C145.437 58.1362 145.198 58.4305 144.869 58.4651C144.207 58.5343 143.533 58.5761 142.865 58.5898C142.861 58.5898 142.856 58.5898 142.852 58.5898ZM139.676 58.4382C139.653 58.4382 139.63 58.437 139.606 58.434C138.945 58.3571 138.278 58.2514 137.623 58.1195C137.495 58.0938 137.384 58.0282 137.302 57.938C137.176 57.802 137.116 57.6098 137.155 57.4146C137.212 57.1305 137.462 56.9341 137.741 56.9341C137.78 56.9341 137.82 56.9383 137.86 56.946C138.482 57.0714 139.116 57.1716 139.745 57.2451C140.073 57.2827 140.308 57.5799 140.27 57.9088C140.235 58.2138 139.976 58.4382 139.676 58.4382ZM147.941 57.9225C147.772 57.9225 147.612 57.8503 147.5 57.7285C147.434 57.6569 147.385 57.568 147.36 57.4665C147.281 57.1454 147.477 56.8213 147.799 56.7425C148.415 56.5915 149.031 56.4124 149.63 56.2101C149.694 56.1886 149.758 56.1784 149.821 56.1784C150.071 56.1784 150.305 56.336 150.389 56.5855C150.495 56.8989 150.326 57.2385 150.013 57.3441C149.381 57.5572 148.732 57.7458 148.084 57.9052C148.036 57.9171 147.988 57.9225 147.941 57.9225ZM134.675 57.2922C134.61 57.2922 134.544 57.2815 134.478 57.2588C133.848 57.0391 133.22 56.7902 132.612 56.5193C132.535 56.4852 132.469 56.4363 132.415 56.3778C132.259 56.2077 132.209 55.954 132.309 55.729C132.409 55.5057 132.627 55.3738 132.856 55.3738C132.938 55.3738 133.02 55.3905 133.1 55.4258C133.677 55.683 134.273 55.9194 134.872 56.1283C135.185 56.2369 135.35 56.5783 135.241 56.8905C135.155 57.1376 134.923 57.2922 134.675 57.2922ZM152.76 56.1528C152.594 56.1528 152.433 56.0841 152.319 55.96C152.282 55.9194 152.25 55.8734 152.224 55.8215C152.077 55.526 152.197 55.1667 152.492 55.0187C153.059 54.7364 153.62 54.426 154.161 54.0959C154.259 54.0362 154.366 54.0082 154.472 54.0082C154.674 54.0082 154.872 54.1108 154.984 54.2953C155.156 54.5776 155.067 54.9459 154.784 55.1178C154.214 55.4652 153.624 55.7922 153.028 56.0901C152.942 56.1325 152.851 56.1528 152.76 56.1528ZM130.048 55.082C129.94 55.082 129.831 55.0527 129.733 54.9912C129.166 54.6385 128.608 54.2577 128.074 53.8589C128.043 53.8363 128.016 53.8112 127.991 53.7843C127.8 53.5766 127.777 53.2555 127.952 53.0215C128.07 52.8639 128.25 52.781 128.433 52.781C128.557 52.781 128.683 52.8198 128.79 52.8998C129.297 53.2782 129.827 53.6399 130.365 53.9747C130.646 54.1502 130.732 54.5185 130.558 54.7996C130.444 54.9817 130.248 55.082 130.048 55.082ZM157.07 53.3701C156.908 53.3701 156.746 53.3044 156.629 53.1773C156.621 53.1684 156.613 53.1588 156.606 53.1493C156.397 52.8926 156.436 52.516 156.692 52.307C157.054 52.0128 157.412 51.7042 157.755 51.3885C157.879 51.2744 158.001 51.1592 158.122 51.0429C158.238 50.9318 158.388 50.8763 158.537 50.8763C158.694 50.8763 158.851 50.9378 158.969 51.0602C159.205 51.2971 159.19 51.6773 158.952 51.9065C158.824 52.0289 158.695 52.1501 158.565 52.27C158.204 52.6013 157.828 52.9266 157.447 53.2364C157.336 53.3265 157.203 53.3701 157.07 53.3701ZM126.02 51.9059C125.868 51.9059 125.716 51.8486 125.6 51.7334C125.322 51.4601 125.047 51.1748 124.781 50.8859C124.595 50.6829 124.411 50.4764 124.23 50.2657C124.015 50.015 124.043 49.6372 124.294 49.4217C124.407 49.3244 124.546 49.2773 124.684 49.2773C124.853 49.2773 125.021 49.3477 125.138 49.485C125.556 49.9714 125.992 50.4388 126.44 50.8811C126.675 51.1139 126.678 51.4917 126.446 51.7275C126.329 51.8463 126.175 51.9059 126.02 51.9059ZM122.78 47.9265C122.616 47.9265 122.455 47.8591 122.339 47.7337C122.316 47.7087 122.296 47.6818 122.277 47.6526C121.914 47.0921 121.571 46.5095 121.258 45.9216C121.102 45.6303 121.212 45.2674 121.503 45.1122C121.594 45.0645 121.69 45.0412 121.785 45.0412C121.999 45.0412 122.207 45.1564 122.313 45.3581C122.611 45.9168 122.937 46.4695 123.282 47.0026C123.462 47.2801 123.382 47.6508 123.105 47.8304C123.004 47.8955 122.891 47.9265 122.78 47.9265ZM120.484 43.3365C120.316 43.3365 120.156 43.2655 120.043 43.1431C119.992 43.087 119.95 43.0201 119.922 42.9443C119.692 42.3182 119.485 41.6748 119.309 41.0319C119.221 40.7132 119.408 40.3837 119.727 40.296C119.78 40.2817 119.834 40.2745 119.887 40.2745C120.149 40.2745 120.39 40.4488 120.463 40.7144C120.631 41.325 120.827 41.9362 121.046 42.5307C121.16 42.8411 121.001 43.1855 120.691 43.2995C120.622 43.3246 120.553 43.3365 120.484 43.3365Z" fill="#99C8FF"/>
<path d="M119.253 38.3398C119.081 38.3398 118.923 38.2664 118.813 38.1459C118.732 38.0587 118.677 37.9465 118.66 37.8194C118.617 37.4982 118.581 37.17 118.552 36.8441C118.522 36.5146 118.765 36.2239 119.094 36.194C119.113 36.1923 119.131 36.1917 119.149 36.1917C119.455 36.1917 119.716 36.425 119.744 36.7366C119.772 37.0464 119.806 37.358 119.846 37.6636C119.89 37.9907 119.659 38.2915 119.331 38.3351C119.305 38.338 119.279 38.3398 119.253 38.3398Z" fill="#99C8FF"/>
<path d="M124.47 34.0412C124.453 34.1588 124.513 34.2752 124.619 34.3295L127.647 35.8868C127.786 37.4709 128.178 39.0443 128.834 40.5436L126.923 43.3591C126.856 43.4582 126.859 43.5883 126.93 43.6838L129.378 46.9536C129.449 47.0491 129.573 47.0891 129.687 47.0527L132.927 46.0129C134.181 47.0652 135.58 47.8847 137.061 48.4643L137.701 51.8086C137.724 51.9256 137.818 52.0157 137.936 52.0324L141.979 52.6144C142.097 52.6311 142.213 52.5714 142.267 52.4652L143.825 49.4372C145.409 49.2987 146.982 48.9066 148.481 48.2506L151.297 50.1612C151.396 50.2287 151.526 50.2257 151.622 50.1541L154.892 47.7062C154.988 47.6352 155.027 47.5105 154.99 47.3971L153.951 44.1566C155.003 42.9031 155.823 41.504 156.402 40.0232L159.746 39.3833C159.863 39.3606 159.954 39.2663 159.971 39.1481L160.552 35.1054C160.57 34.9873 160.509 34.8715 160.403 34.8166L157.375 33.2599C157.237 31.6758 156.844 30.1024 156.188 28.603L158.1 25.7869C158.167 25.6884 158.164 25.5583 158.092 25.4622L155.645 22.1925C155.573 22.097 155.449 22.0576 155.335 22.094L152.095 23.1332C150.842 22.0815 149.442 21.2619 147.962 20.6824L147.321 17.338C147.298 17.221 147.204 17.1309 147.086 17.1136L143.043 16.5322C142.925 16.5149 142.809 16.5752 142.755 16.6809L141.198 19.7094C139.614 19.8479 138.04 20.2401 136.541 20.896L133.725 18.9848C133.626 18.918 133.496 18.921 133.401 18.9926L130.13 21.4398C130.035 21.5114 129.995 21.6356 130.032 21.7496L131.072 24.9895C130.019 26.2429 129.2 27.642 128.62 29.1229L125.276 29.7633C125.159 29.7854 125.069 29.8803 125.051 29.9985L124.47 34.0412Z" fill="#99C8FF"/>
<path d="M144.833 32.4484C144.728 32.3344 144.616 32.2276 144.493 32.1285C143.144 31.0356 141.158 31.2439 140.065 32.5923C138.973 33.9406 139.18 35.927 140.529 37.0199C141.878 38.1122 143.864 37.9045 144.957 36.5562C145.486 35.9026 145.729 35.0824 145.642 34.2462C145.571 33.5664 145.288 32.942 144.833 32.4484ZM139.487 37.3512C138.132 35.8781 138.025 33.5896 139.321 31.9894C140.747 30.2304 143.337 29.9594 145.096 31.3842C145.948 32.0748 146.48 33.0554 146.594 34.1459C146.709 35.237 146.391 36.3067 145.701 37.1584C144.276 38.9174 141.685 39.189 139.926 37.7636C139.768 37.6353 139.621 37.4968 139.487 37.3512Z" fill="#FAFAFD"/>
<path d="M135.179 41.426C134.946 41.1729 134.725 40.9073 134.516 40.628C134.451 40.5402 134.386 40.4513 134.323 40.3618C134.013 39.9183 133.739 39.4515 133.504 38.9675C133.501 38.9609 133.498 38.9543 133.495 38.9478C133.486 38.9287 133.477 38.9102 133.468 38.8911C133.451 38.8547 133.434 38.8182 133.417 38.7812C133.373 38.6845 133.398 38.5735 133.472 38.5055C133.49 38.4888 133.511 38.4744 133.535 38.4637C133.655 38.4088 133.797 38.4619 133.852 38.5813C134.136 39.2002 134.488 39.7917 134.899 40.3409C136.941 43.0692 140.164 44.4027 143.333 44.1645C145.097 44.032 146.842 43.413 148.36 42.2778C148.626 42.0784 148.88 41.8671 149.121 41.6457C150.745 40.1517 151.797 38.1617 152.116 35.9484C152.482 33.4063 151.835 30.8737 150.296 28.8175C147.118 24.5706 141.081 23.704 136.836 26.8806C136.574 27.077 136.324 27.2853 136.084 27.5049C135.049 28.4575 134.233 29.6268 133.7 30.9304C133.685 30.9639 133.665 30.9931 133.64 31.0158C133.574 31.0767 133.476 31.0976 133.387 31.0617C133.265 31.011 133.206 30.8719 133.256 30.749C133.816 29.3803 134.673 28.1531 135.76 27.1528C136.011 26.9218 136.274 26.7033 136.549 26.4974C141.005 23.162 147.345 24.0752 150.68 28.5304C152.296 30.6887 152.974 33.3478 152.59 36.0165C152.256 38.3401 151.151 40.4292 149.446 41.9972C149.193 42.23 148.926 42.4521 148.647 42.661C146.488 44.2767 143.829 44.9548 141.16 44.571C138.836 44.2367 136.747 43.1319 135.179 41.426Z" fill="#FAFAFD"/>
<path d="M99.258 15.4473C99.1929 15.4473 99.1273 15.43 99.0676 15.3941C99.0366 15.3756 99.0097 15.3529 98.9864 15.3273C98.8778 15.2097 98.8551 15.0306 98.9417 14.8868C99.1034 14.6176 99.2759 14.3502 99.4538 14.0911C99.5254 13.9867 99.6406 13.9306 99.7588 13.9306C99.8304 13.9306 99.9038 13.9515 99.9677 13.9956C100.137 14.1108 100.178 14.3412 100.063 14.5096C99.8937 14.7567 99.7295 15.0115 99.575 15.2682C99.5057 15.3834 99.3833 15.4473 99.258 15.4473Z" fill="#99C8FF"/>
<path d="M125.782 15.1133C125.68 15.1133 125.581 15.0715 125.51 14.9945C125.495 14.9784 125.481 14.9611 125.47 14.9426C125.18 14.4883 124.86 14.0413 124.519 13.6151C124.468 13.5506 124.417 13.4874 124.365 13.4253C124.235 13.2677 124.257 13.0343 124.414 12.9042C124.483 12.8469 124.569 12.8183 124.653 12.8183C124.76 12.8183 124.865 12.8636 124.934 12.9532C124.99 13.02 125.044 13.0869 125.098 13.1549C125.454 13.6002 125.789 14.0681 126.093 14.545C126.202 14.7175 126.152 14.9456 125.98 15.0554C125.918 15.0948 125.85 15.1133 125.782 15.1133ZM100.942 13.1549C100.855 13.1549 100.768 13.1245 100.697 13.0618C100.688 13.0534 100.679 13.0445 100.67 13.0355C100.543 12.8977 100.539 12.6834 100.666 12.5401C101.025 12.136 101.408 11.7457 101.806 11.3798C101.89 11.3028 101.974 11.2264 102.06 11.1506C102.128 11.0909 102.213 11.0628 102.297 11.0628C102.403 11.0628 102.508 11.1064 102.582 11.1834C102.718 11.3368 102.703 11.5702 102.549 11.7057C102.467 11.7779 102.386 11.8507 102.306 11.9241C101.927 12.2727 101.561 12.6452 101.219 13.0308C101.146 13.1131 101.044 13.1549 100.942 13.1549ZM123.337 12.1533C123.246 12.1533 123.155 12.1193 123.083 12.0519C122.629 11.6215 122.144 11.2168 121.643 10.8486C121.623 10.8342 121.606 10.8181 121.59 10.8008C121.472 10.6731 121.458 10.4767 121.564 10.3317C121.637 10.2332 121.749 10.1812 121.863 10.1812C121.938 10.1812 122.015 10.2045 122.081 10.2529C122.607 10.639 123.115 11.064 123.592 11.5147C123.738 11.6579 123.746 11.8895 123.606 12.0375C123.533 12.1145 123.435 12.1533 123.337 12.1533ZM103.822 10.6164C103.721 10.6164 103.622 10.5752 103.55 10.4976C103.538 10.4844 103.527 10.4707 103.517 10.4558C103.402 10.2875 103.445 10.0571 103.613 9.94188C104.154 9.57122 104.722 9.23159 105.302 8.93136C105.356 8.9033 105.414 8.89018 105.471 8.89018C105.605 8.89018 105.734 8.96359 105.8 9.08953C105.894 9.27158 105.823 9.49422 105.642 9.58793C105.088 9.87443 104.546 10.1991 104.031 10.5519C103.967 10.5955 103.895 10.6164 103.822 10.6164ZM120.245 9.87981C120.184 9.87981 120.122 9.86488 120.065 9.83265C119.522 9.52824 118.953 9.25487 118.375 9.0203C118.322 8.99881 118.278 8.96717 118.242 8.92778C118.148 8.82631 118.116 8.6753 118.171 8.53862C118.23 8.39477 118.368 8.30761 118.514 8.30761C118.561 8.30761 118.608 8.31658 118.653 8.33508C119.26 8.58159 119.856 8.86809 120.426 9.18742C120.604 9.2877 120.668 9.51273 120.568 9.6906C120.5 9.81177 120.375 9.87981 120.245 9.87981ZM107.232 8.85376C107.129 8.85376 107.03 8.8096 106.96 8.73379C106.928 8.69917 106.902 8.65799 106.885 8.61143C106.815 8.41983 106.913 8.20734 107.105 8.13691C107.718 7.91069 108.353 7.72029 108.991 7.57226C109.019 7.56569 109.047 7.56212 109.076 7.56212C109.243 7.56212 109.395 7.67731 109.435 7.84801C109.481 8.04678 109.357 8.24554 109.158 8.2921C108.55 8.43416 107.945 8.61502 107.36 8.83049C107.318 8.84601 107.275 8.85376 107.232 8.85376ZM116.692 8.43476C116.661 8.43476 116.628 8.43058 116.596 8.42222C115.994 8.26047 115.376 8.13393 114.757 8.04619C114.67 8.03365 114.593 7.99127 114.537 7.93039C114.465 7.8516 114.427 7.74237 114.443 7.62837C114.469 7.44393 114.628 7.31023 114.809 7.31023C114.826 7.31023 114.843 7.31142 114.861 7.3138C115.509 7.40572 116.158 7.53824 116.788 7.70835C116.986 7.76088 117.102 7.96381 117.049 8.16138C117.005 8.32612 116.855 8.43476 116.692 8.43476ZM110.971 7.98231C110.864 7.98231 110.767 7.93636 110.699 7.86234C110.647 7.80624 110.612 7.73342 110.604 7.65165C110.582 7.44811 110.729 7.26606 110.932 7.24457C111.489 7.18607 112.054 7.15624 112.614 7.15624C112.709 7.15624 112.804 7.15682 112.899 7.15862C113.103 7.16279 113.265 7.33172 113.261 7.53526C113.258 7.737 113.093 7.89816 112.892 7.89816C112.89 7.89816 112.888 7.89816 112.885 7.89816C112.794 7.89636 112.703 7.89577 112.611 7.89577C112.078 7.89577 111.541 7.92383 111.01 7.97994C110.997 7.98173 110.984 7.98231 110.971 7.98231Z" fill="#99C8FF"/>
<path d="M112.636 39.0938C112.177 39.0938 111.715 39.0747 111.258 39.0353C111.162 39.0269 111.078 38.9827 111.017 38.9171C110.95 38.8437 110.912 38.7428 110.921 38.6354C110.938 38.4426 111.099 38.2969 111.289 38.2969C111.3 38.2969 111.31 38.2975 111.321 38.2981C111.758 38.3357 112.2 38.3548 112.639 38.3548C112.816 38.3548 112.992 38.3518 113.167 38.3453C113.172 38.3453 113.176 38.3453 113.181 38.3453C113.379 38.3453 113.543 38.5028 113.55 38.7022C113.557 38.9063 113.397 39.077 113.194 39.0842C113.008 39.0908 112.822 39.0938 112.636 39.0938ZM115.064 38.9039C114.958 38.9039 114.86 38.8586 114.791 38.784C114.744 38.7326 114.71 38.6664 114.699 38.5918C114.667 38.39 114.805 38.2008 115.006 38.1686C115.614 38.0737 116.221 37.94 116.81 37.7717C116.844 37.7621 116.878 37.7573 116.911 37.7573C117.072 37.7573 117.221 37.863 117.267 38.0259C117.323 38.2223 117.209 38.4264 117.013 38.4826C116.395 38.6586 115.758 38.7995 115.122 38.8998C115.102 38.9027 115.083 38.9039 115.064 38.9039ZM109.419 38.7607C109.394 38.7607 109.369 38.7583 109.343 38.7529C108.713 38.621 108.085 38.4491 107.476 38.2426C107.415 38.2217 107.363 38.1865 107.323 38.1429C107.234 38.0462 107.2 37.906 107.245 37.7734C107.297 37.6195 107.441 37.5222 107.595 37.5222C107.634 37.5222 107.674 37.5287 107.714 37.5419C108.295 37.7394 108.894 37.9036 109.495 38.0289C109.695 38.0707 109.822 38.2665 109.781 38.4664C109.744 38.6407 109.59 38.7607 109.419 38.7607ZM105.845 37.5472C105.791 37.5472 105.737 37.5353 105.685 37.5108C105.106 37.2321 104.538 36.9139 103.995 36.566C103.968 36.548 103.943 36.5278 103.922 36.5045C103.811 36.3839 103.791 36.1995 103.883 36.055C103.954 35.9452 104.073 35.8849 104.195 35.8849C104.263 35.8849 104.332 35.904 104.394 35.9434C104.912 36.2753 105.454 36.5785 106.006 36.8447C106.19 36.9342 106.267 37.1539 106.178 37.3377C106.115 37.4702 105.983 37.5472 105.845 37.5472ZM102.669 35.5071C102.585 35.5071 102.502 35.479 102.432 35.4217C101.939 35.0111 101.464 34.5652 101.021 34.0967L101.018 34.0931C100.882 33.9444 100.889 33.7129 101.037 33.5738C101.108 33.5063 101.199 33.4735 101.291 33.4735C101.388 33.4735 101.486 33.5123 101.559 33.5893C101.981 34.0364 102.434 34.4613 102.905 34.8529C103.06 34.9836 103.084 35.2164 102.953 35.3734C102.88 35.4617 102.774 35.5071 102.669 35.5071ZM100.077 32.7608C99.9763 32.7608 99.8766 32.7202 99.8049 32.6421C99.796 32.6319 99.7876 32.6218 99.7793 32.611C99.3967 32.0935 99.0421 31.5474 98.724 30.9881C98.6237 30.8102 98.6858 30.5846 98.8631 30.4843C98.9204 30.4515 98.983 30.436 99.0451 30.436C99.174 30.436 99.2994 30.5034 99.3674 30.6228C99.67 31.1564 100.009 31.6775 100.374 32.1717C100.496 32.3358 100.461 32.5674 100.297 32.6886C100.231 32.7375 100.154 32.7608 100.077 32.7608ZM98.2149 29.4756C98.1116 29.4756 98.0125 29.4326 97.9421 29.3562C97.914 29.3252 97.8901 29.2888 97.8728 29.2476C97.6257 28.6531 97.4132 28.0371 97.2407 27.4169C97.1858 27.22 97.301 27.0164 97.498 26.9615C97.5308 26.9526 97.5637 26.9478 97.5965 26.9478C97.7582 26.9478 97.9069 27.0552 97.9528 27.2182C98.1176 27.8097 98.3205 28.397 98.5557 28.9641C98.6339 29.1527 98.5449 29.3693 98.3563 29.4475C98.3098 29.4666 98.262 29.4756 98.2149 29.4756Z" fill="#99C8FF"/>
<path d="M97.1988 25.8184C97.0931 25.8184 96.9953 25.773 96.9266 25.699C96.8783 25.6465 96.8448 25.579 96.8335 25.5032C96.7863 25.1904 96.7487 24.8747 96.7207 24.5649C96.7028 24.3614 96.8526 24.1817 97.0561 24.1638C97.0669 24.1626 97.0776 24.162 97.0884 24.162C97.2782 24.162 97.4399 24.3065 97.4572 24.4987C97.4835 24.7941 97.5199 25.0955 97.5647 25.394C97.5951 25.5963 97.4555 25.7843 97.2537 25.8142C97.2352 25.8172 97.2167 25.8184 97.1988 25.8184Z" fill="#99C8FF"/>
<path d="M100.65 22.6928C100.639 22.7716 100.679 22.8492 100.75 22.8856L102.776 23.9278C102.869 24.9879 103.131 26.0408 103.57 27.0441L102.292 28.9279C102.246 28.9941 102.249 29.0813 102.297 29.1451L103.934 31.3333C103.982 31.3972 104.065 31.424 104.142 31.3996L106.309 30.7036C107.148 31.4079 108.085 31.9565 109.075 32.3438L109.504 34.5821C109.519 34.6603 109.582 34.7206 109.661 34.732L112.366 35.1211C112.445 35.1325 112.523 35.0925 112.559 35.0215L113.602 32.995C114.662 32.9025 115.714 32.6399 116.717 32.2012L118.602 33.4797C118.668 33.5245 118.755 33.5227 118.819 33.4749L121.007 31.8371C121.071 31.7893 121.097 31.7058 121.073 31.63L120.377 29.4621C121.081 28.6229 121.63 27.687 122.018 26.6961L124.255 26.2676C124.334 26.2526 124.394 26.1894 124.406 26.11L124.795 23.4049C124.806 23.3261 124.766 23.2485 124.695 23.2121L122.669 22.17C122.576 21.1099 122.314 20.057 121.875 19.0536L123.153 17.1699C123.198 17.1036 123.196 17.0165 123.148 16.9526L121.511 14.7645C121.463 14.7006 121.379 14.6737 121.304 14.6982L119.135 15.3936C118.297 14.6898 117.36 14.1413 116.369 13.7539L115.941 11.5156C115.926 11.4374 115.863 11.3771 115.784 11.3658L113.079 10.9766C112.999 10.9653 112.922 11.0053 112.885 11.0763L111.844 13.1027C110.784 13.1952 109.731 13.4579 108.727 13.8966L106.843 12.6181C106.777 12.5733 106.69 12.5751 106.626 12.6228L104.438 14.2607C104.374 14.3084 104.347 14.3914 104.372 14.4678L105.067 16.6357C104.364 17.4749 103.815 18.4108 103.427 19.4016L101.189 19.8302C101.111 19.8451 101.051 19.9084 101.04 19.9878L100.65 22.6928Z" fill="#99C8FF"/>
<path d="M114.238 21.6572C114.17 21.5838 114.097 21.5152 114.017 21.4501C113.136 20.7362 111.838 20.8723 111.124 21.7539C110.778 22.1807 110.619 22.7167 110.677 23.2628C110.734 23.8096 111.001 24.3008 111.427 24.647C111.854 24.9932 112.39 25.152 112.937 25.0947C113.483 25.0374 113.975 24.7706 114.321 24.3438C114.97 23.5422 114.916 22.3956 114.238 21.6572ZM110.659 24.9377C110.256 24.4984 110.004 23.9439 109.941 23.3398C109.863 22.5973 110.079 21.8685 110.55 21.2883C111.52 20.0904 113.285 19.9054 114.483 20.8759C115.681 21.85 115.866 23.6114 114.895 24.8094C114.425 25.3901 113.757 25.7524 113.014 25.83C112.271 25.9082 111.542 25.6921 110.961 25.2212C110.853 25.1335 110.753 25.0386 110.659 24.9377Z" fill="#FAFAFD"/>
<path d="M107.657 27.7721C107.499 27.5996 107.348 27.4182 107.205 27.2272C106.921 26.8475 106.675 26.4387 106.474 26.0107C106.465 25.9916 106.456 25.9725 106.447 25.9528C106.378 25.8036 106.418 25.6323 106.532 25.5266C106.56 25.501 106.593 25.4795 106.629 25.4628C106.815 25.3774 107.033 25.4598 107.119 25.6448C107.303 26.0459 107.531 26.4291 107.797 26.7837C107.811 26.8034 107.826 26.8225 107.841 26.8422C108.477 27.6754 109.298 28.3189 110.23 28.7355C110.737 28.9617 111.276 29.1211 111.839 29.207L111.852 29.2094C111.867 29.2112 111.88 29.2136 111.894 29.2154C113.54 29.4523 115.179 29.0339 116.511 28.0377C116.683 27.9088 116.848 27.7721 117.004 27.6283C118.055 26.6613 118.736 25.3732 118.942 23.9401C119.179 22.2945 118.761 20.6549 117.764 19.3238C116.768 17.994 115.313 17.1291 113.667 16.8921C112.021 16.6558 110.382 17.0742 109.05 18.0704C108.881 18.1969 108.719 18.3318 108.564 18.4739C107.893 19.091 107.365 19.8479 107.02 20.6919C106.999 20.7438 106.967 20.788 106.928 20.8238C106.826 20.9175 106.675 20.9497 106.538 20.8942C106.349 20.816 106.258 20.6012 106.336 20.4114C106.722 19.4671 107.313 18.6207 108.063 17.9301C108.236 17.7707 108.418 17.6203 108.607 17.4783C110.097 16.3633 111.931 15.8953 113.772 16.1604C115.614 16.4254 117.242 17.3899 118.356 18.881C119.471 20.3702 119.939 22.2044 119.674 24.0458C119.443 25.649 118.681 27.0899 117.505 28.172C117.33 28.3326 117.147 28.4854 116.954 28.6298C114.07 30.7876 110.044 30.368 107.657 27.7721Z" fill="#FAFAFD"/>
<path d="M27.0029 68.8317C27.248 65.0433 29.5357 61.6877 32.9648 60.0588L77.3922 38.9583C80.2375 37.607 83.5395 37.607 86.3848 38.9583L130.813 60.0588C134.242 61.6877 136.53 65.0433 136.774 68.8317C140.942 133.248 99.6386 156.719 86.0995 162.647C83.4141 163.823 80.3635 163.823 77.6781 162.647C64.1384 156.719 22.8356 133.248 27.0029 68.8317Z" fill="#99C8FF"/>
<path d="M95.3274 47.7246C95.2546 47.7246 95.1806 47.7091 95.1107 47.6757L84.6134 42.6899C84.3603 42.5699 84.2528 42.2679 84.3728 42.0148C84.4928 41.7623 84.7954 41.6543 85.0479 41.7743L95.5453 46.76C95.7977 46.88 95.9058 47.1826 95.7852 47.4351C95.6987 47.6178 95.5172 47.7246 95.3274 47.7246Z" fill="#FAFAFD"/>
<path d="M133.377 82.4922C133.371 82.4922 133.365 82.4922 133.359 82.4922C133.08 82.4826 132.861 82.2487 132.87 81.9687C133.01 77.8168 132.936 73.4864 132.653 69.0975C132.505 66.8115 131.121 64.7773 129.04 63.7895L99.1539 49.595C98.9008 49.475 98.7934 49.173 98.9133 48.9199C99.0333 48.6668 99.3353 48.5594 99.5884 48.6794L129.475 62.8738C131.887 64.0193 133.492 66.3793 133.664 69.0325C133.95 73.4536 134.023 77.818 133.883 82.0027C133.874 82.2767 133.649 82.4922 133.377 82.4922Z" fill="#FAFAFD"/>
<path d="M37.7466 71.3462C37.7956 70.3858 38.3674 69.5287 39.2359 69.1156L80.7682 49.3904C81.4773 49.0538 82.3004 49.0538 83.0095 49.3904L124.541 69.1156C125.41 69.5287 125.982 70.3858 126.031 71.3462C127.259 95.3755 121.709 115.425 109.522 130.964C100.231 142.812 89.3627 149.161 82.994 152.122C82.2926 152.449 81.485 152.449 80.7831 152.122C74.4144 149.161 63.5457 142.812 54.2546 130.964C42.0687 115.425 36.5183 95.3749 37.7466 71.3462Z" fill="#FAFAFD"/>
<path d="M94.1688 97.1621H98.3076V80.6667C98.3076 74.1875 93.4579 68.7129 87.0265 67.931L78.5627 66.9025C74.9205 66.4596 71.2556 67.6015 68.5082 70.0344C65.7613 72.4679 64.1855 75.9686 64.1855 79.6382V94.0386H68.3249V79.6382C68.3249 77.1522 69.3922 74.7814 71.2532 73.1334C73.1137 71.4848 75.5962 70.7112 78.0637 71.0115L86.5269 72.0399C90.8835 72.5693 94.1688 76.2784 94.1688 80.6667V97.1621Z" fill="#E2E2F1"/>
<path d="M99.5317 93.4598L63.2466 91.4495C61.7729 91.3684 60.5332 92.5412 60.5332 94.0173V122.763C60.5332 124.183 61.684 125.334 63.1046 125.334H98.5176C99.9048 125.334 101.042 124.233 101.087 122.846L101.959 96.1112C102.005 94.7145 100.927 93.5374 99.5317 93.4598Z" fill="#E2E2F1"/>
<path d="M75.332 117.099L77.5279 110.785C77.7917 110.026 77.6121 109.177 77.0474 108.605C75.9223 107.465 75.2514 105.874 75.3308 104.128C75.471 101.048 77.9869 98.5511 81.068 98.4324C84.4774 98.3016 87.2822 101.027 87.2822 104.407C87.2822 106.283 86.4185 107.955 85.0677 109.051C84.367 109.62 84.0787 110.554 84.3753 111.406L86.3552 117.099C86.8369 118.483 85.8091 119.93 84.3431 119.93H77.3441C75.8781 119.93 74.8503 118.483 75.332 117.099Z" fill="#99C8FF"/>
</svg>
