<svg width="54" height="54" viewBox="0 0 54 54" fill="none" xmlns="http://www.w3.org/2000/svg">
<g clip-path="url(#clip0)">
<path d="M25.2062 29.6947V42.2922H18.0078V29.6947C18.009 29.1984 18.4111 28.7963 18.9074 28.7951H24.3066C24.8029 28.7963 25.2049 29.1984 25.2062 29.6947Z" fill="#FB7B76"/>
<path d="M36.0044 25.1971V42.2934H28.8057V25.1971C28.8073 24.7007 29.2093 24.2987 29.7057 24.2971H35.1044C35.6008 24.2987 36.0028 24.7007 36.0044 25.1971Z" fill="#E3F0FF"/>
<path d="M46.8019 20.6955V42.291H39.6035V20.6955C39.6048 20.1991 40.0068 19.7971 40.5031 19.7959H45.9019C46.3982 19.7971 46.8006 20.1991 46.8019 20.6955Z" fill="#F3D55B"/>
<path d="M53.101 47.6911C53.0965 50.6707 50.6819 53.0853 47.7023 53.0898H6.31088C3.32996 53.0874 0.914581 50.672 0.912109 47.6911C0.91664 44.7114 3.3312 42.2968 6.31088 42.2923H47.7023C50.6828 42.2948 53.0986 44.7106 53.101 47.6911Z" fill="#E3F0FF"/>
<path d="M50.4014 47.6911C50.3969 50.6707 47.9824 53.0853 45.0027 53.0898H6.31088C3.32996 53.0874 0.914581 50.672 0.912109 47.6911C0.91664 44.7114 3.3312 42.2968 6.31088 42.2923H45.0027C47.9832 42.2948 50.399 44.7106 50.4014 47.6911Z" fill="#EFEFF6"/>
<path d="M8.1109 47.6916C8.1109 48.6855 7.30522 49.4911 6.31131 49.4911C5.31739 49.4911 4.51172 48.6855 4.51172 47.6916C4.51172 46.6976 5.31739 45.892 6.31131 45.892C7.30522 45.892 8.1109 46.6976 8.1109 47.6916Z" fill="#EFEFF6"/>
<path d="M18.0084 47.6916C18.0084 48.6855 17.2027 49.4911 16.2088 49.4911C15.2149 49.4911 14.4092 48.6855 14.4092 47.6916C14.4092 46.6976 15.2149 45.892 16.2088 45.892C17.2027 45.892 18.0084 46.6976 18.0084 47.6916Z" fill="#EFEFF6"/>
<path d="M38.7037 47.6916C38.7037 48.6855 37.898 49.4911 36.9041 49.4911C35.9102 49.4911 35.1045 48.6855 35.1045 47.6916C35.1045 46.6976 35.9102 45.892 36.9041 45.892C37.898 45.892 38.7037 46.6976 38.7037 47.6916Z" fill="#EFEFF6"/>
<path d="M49.5019 47.6916C49.5019 48.6855 48.6958 49.4911 47.7023 49.4911C46.7084 49.4911 45.9023 48.6855 45.9023 47.6916C45.9023 46.6976 46.7084 45.892 47.7023 45.892C48.6958 45.892 49.5019 46.6976 49.5019 47.6916Z" fill="#EFEFF6"/>
<path d="M28.8052 47.6916C28.8052 48.6855 27.9996 49.4911 27.0056 49.4911C26.0117 49.4911 25.2061 48.6855 25.2061 47.6916C25.2061 46.6976 26.0117 45.892 27.0056 45.892C27.9996 45.892 28.8052 46.6976 28.8052 47.6916Z" fill="#EFEFF6"/>
<path d="M14.4093 38.6943V42.2935H7.21094V38.6943C7.21217 38.198 7.61419 37.796 8.11053 37.7943H13.5093C14.0056 37.796 14.4076 38.198 14.4093 38.6943Z" fill="#E3F0FF"/>
<path d="M11.7097 38.6943V42.2935H7.21094V38.6943C7.21217 38.198 7.61419 37.796 8.11053 37.7943H10.8101C11.3065 37.796 11.7085 38.198 11.7097 38.6943Z" fill="#EFEFF6"/>
<path d="M18.0078 37.7943H25.2062V42.2935H18.0078V37.7943Z" fill="#E3F0FF"/>
<path d="M18.0078 33.2932H25.2062V37.7919H18.0078V33.2932Z" fill="#E3F0FF"/>
<path d="M25.2062 29.6947V33.2943H18.0078V29.6947C18.009 29.1984 18.4111 28.7963 18.9074 28.7951H24.3066C24.8029 28.7963 25.2049 29.1984 25.2062 29.6947Z" fill="#E3F0FF"/>
<path d="M18.0078 37.7943H22.507V42.2935H18.0078V37.7943Z" fill="#EFEFF6"/>
<path d="M18.0078 33.2932H22.507V37.7919H18.0078V33.2932Z" fill="#EFEFF6"/>
<path d="M22.507 29.6947V33.2943H18.0078V29.6947C18.009 29.1984 18.4111 28.7963 18.9074 28.7951H21.607C22.1033 28.7963 22.5053 29.1984 22.507 29.6947Z" fill="#EFEFF6"/>
<path d="M39.6035 37.7943H46.8019V42.2935H39.6035V37.7943Z" fill="#E3F0FF"/>
<path d="M39.6035 33.2932H46.8019V37.7919H39.6035V33.2932Z" fill="#E3F0FF"/>
<path d="M39.6035 28.7951H46.8019V33.2943H39.6035V28.7951Z" fill="#E3F0FF"/>
<path d="M39.6035 24.2971H46.8019V28.7963H39.6035V24.2971Z" fill="#E3F0FF"/>
<path d="M46.8019 20.6955V24.2947H39.6035V20.6955C39.6048 20.1991 40.0068 19.7971 40.5031 19.7959H45.9019C46.3982 19.7971 46.8006 20.1991 46.8019 20.6955Z" fill="#E3F0FF"/>
<path d="M39.6035 37.7943H44.1023V42.2935H39.6035V37.7943Z" fill="#EFEFF6"/>
<path d="M39.6035 33.2932H44.1023V37.7919H39.6035V33.2932Z" fill="#EFEFF6"/>
<path d="M39.6035 28.7951H44.1023V33.2943H39.6035V28.7951Z" fill="#EFEFF6"/>
<path d="M39.6035 24.2971H44.1023V28.7963H39.6035V24.2971Z" fill="#EFEFF6"/>
<path d="M44.1023 20.6955V24.2947H39.6035V20.6955C39.6048 20.1991 40.0068 19.7971 40.5031 19.7959H43.2027C43.699 19.7971 44.1011 20.1991 44.1023 20.6955Z" fill="#EFEFF6"/>
<path d="M28.8057 37.7943H36.0044V42.2935H28.8057V37.7943Z" fill="#E3F0FF"/>
<path d="M28.8057 33.2932H36.0044V37.7919H28.8057V33.2932Z" fill="#E3F0FF"/>
<path d="M28.8057 28.7951H36.0044V33.2943H28.8057V28.7951Z" fill="#E3F0FF"/>
<path d="M36.0044 25.1971V28.7963H28.8057V25.1971C28.8073 24.7007 29.2093 24.2987 29.7057 24.2971H35.1044C35.6008 24.2987 36.0028 24.7007 36.0044 25.1971Z" fill="#E3F0FF"/>
<path d="M28.8057 37.7943H33.3049V42.2935H28.8057V37.7943Z" fill="#EFEFF6"/>
<path d="M28.8057 33.2932H33.3049V37.7919H28.8057V33.2932Z" fill="#EFEFF6"/>
<path d="M28.8057 28.7951H33.3049V33.2943H28.8057V28.7951Z" fill="#EFEFF6"/>
<path d="M33.3049 25.1971V28.7963H28.8057V25.1971C28.8073 24.7007 29.2093 24.2987 29.7057 24.2971H32.4049C32.9012 24.2987 33.3036 24.7007 33.3049 25.1971Z" fill="#EFEFF6"/>
<path d="M53.0674 4.80488C53.0959 4.65165 53.1041 4.49595 53.0922 4.34108V4.33325C53.0909 4.32419 53.0864 4.31595 53.0856 4.30648C53.0687 4.1619 53.0341 4.02021 52.983 3.88428C52.9702 3.84927 52.9579 3.81508 52.9431 3.78089C52.8837 3.64126 52.8071 3.50986 52.7149 3.38959C52.7058 3.37764 52.6939 3.36817 52.684 3.35664C52.5946 3.24995 52.4933 3.15398 52.3816 3.07119C52.3512 3.04771 52.3211 3.02547 52.2885 3.00405C52.1588 2.91549 52.0179 2.84423 51.8692 2.79233L46.4705 0.992745C45.8604 0.789266 45.1882 0.926841 44.7075 1.35357C44.2264 1.7803 44.0094 2.4311 44.1383 3.06089C44.2672 3.69069 44.7224 4.20391 45.3324 4.40739L46.8502 4.91321L28.8053 16.7384V12.598C28.8053 11.9262 28.4313 11.3104 27.8349 11.0011C27.2389 10.6913 26.5197 10.7395 25.9702 11.1263L1.67555 26.423C0.862463 26.9951 0.667223 28.1176 1.23894 28.9307C1.81107 29.7433 2.93391 29.9386 3.74658 29.3669L25.2061 16.0654V19.7968C25.2061 20.4344 25.5435 21.0242 26.093 21.3476C26.6428 21.6709 27.3225 21.6796 27.8798 21.3698L48.1304 8.32003L47.7935 9.33C47.5904 9.94003 47.728 10.6118 48.1547 11.0929C48.5815 11.574 49.2323 11.7907 49.862 11.6618C50.4918 11.5328 51.0051 11.0777 51.2085 10.4677L53.0081 5.0689C53.0242 5.02071 53.0287 4.97211 53.0407 4.9235C53.0506 4.88355 53.0604 4.84524 53.0674 4.80488Z" fill="#99C8FF"/>
<path d="M1.24013 28.9309C1.51445 29.3209 1.93294 29.5862 2.40333 29.6682C2.87372 29.7501 3.35688 29.6418 3.74736 29.3671L4.12343 29.1339C4.0567 29.0709 3.99533 29.0029 3.93931 28.9309C3.66457 28.5404 3.55624 28.0568 3.63821 27.5864C3.72018 27.1164 3.98544 26.6979 4.37551 26.4232L28.2986 11.3604C28.1652 11.2159 28.0087 11.0944 27.8357 11.0013C27.2396 10.6911 26.5205 10.7397 25.971 11.1265L1.67633 26.4232C1.28585 26.6975 1.02059 27.116 0.938618 27.5864C0.857062 28.0568 0.965391 28.5404 1.24013 28.9309Z" fill="white"/>
<path d="M6.31088 53.091H9.01047C6.02955 53.0886 3.61376 50.6732 3.61129 47.6923C3.61582 44.7126 6.03037 42.298 9.01047 42.2935H9.91006V38.6943C9.91171 38.198 10.3137 37.796 10.8101 37.7943H8.11047C7.61413 37.796 7.21211 38.198 7.21088 38.6943V42.2935H6.31088C3.3312 42.298 0.91664 44.7126 0.912109 47.6923C0.914581 50.6732 3.32996 53.0886 6.31088 53.091Z" fill="white"/>
<path d="M6.31055 52.1899H47.7019V53.9895H6.31055V52.1899Z" fill="white"/>
<path d="M10.8097 53.0894C10.8081 52.5931 10.4061 52.1911 9.90973 52.1898H6.31055V53.9894H9.90973C10.4061 53.9878 10.8081 53.5857 10.8097 53.0894Z" fill="#2B8CFF"/>
<path d="M47.7024 53.9894V52.1898H17.1086C16.6118 52.1898 16.209 52.5927 16.209 53.0894C16.209 53.5866 16.6118 53.9894 17.1086 53.9894H47.7024Z" fill="#2B8CFF"/>
<path d="M13.509 52.1894C13.2709 52.1927 13.0427 52.2862 12.8701 52.4502L12.7622 52.5853C12.728 52.6355 12.7008 52.6899 12.681 52.7472C12.6551 52.7982 12.637 52.8526 12.6271 52.909C12.6172 52.9688 12.611 53.0289 12.6094 53.089C12.6127 53.3275 12.7058 53.5557 12.8701 53.7279C13.0806 53.9462 13.3879 54.0422 13.6848 53.982C13.9822 53.9219 14.2281 53.7139 14.3369 53.4309C14.383 53.323 14.4073 53.2068 14.409 53.089C14.4114 52.8497 14.3171 52.6195 14.1478 52.4502C13.9785 52.2809 13.7483 52.187 13.509 52.1894Z" fill="#2B8CFF"/>
<path d="M47.7019 53.9915C47.2047 53.9915 46.8019 53.5886 46.8019 53.0915C46.8019 52.5947 47.2047 52.1919 47.7019 52.1919C50.1865 52.1919 52.2006 50.1773 52.2006 47.6927C52.2006 45.2081 50.1865 43.1935 47.7019 43.1935H6.31049C3.82591 43.1935 1.81131 45.2081 1.81131 47.6927C1.81131 50.1773 3.82591 52.1919 6.31049 52.1919C6.80724 52.1919 7.21049 52.5947 7.21049 53.0915C7.21049 53.5886 6.80724 53.9915 6.31049 53.9915C2.832 53.9915 0.0117188 51.1712 0.0117188 47.6927C0.0117188 44.2142 2.832 41.3939 6.31049 41.3939H47.7019C51.1804 41.3939 54.0002 44.2142 54.0002 47.6927C54.0002 51.1712 51.1804 53.9915 47.7019 53.9915Z" fill="#2B8CFF"/>
<path d="M6.31092 50.3928C4.82025 50.3928 3.61133 49.1843 3.61133 47.6932C3.61133 46.2025 4.82025 44.9936 6.31092 44.9936C7.80158 44.9936 9.01051 46.2025 9.01051 47.6932C9.00886 49.1834 7.80117 50.3911 6.31092 50.3928ZM6.31092 46.7936C5.81376 46.7936 5.41092 47.1964 5.41092 47.6932C5.41092 48.1903 5.81376 48.5932 6.31092 48.5932C6.80767 48.5932 7.21092 48.1903 7.21092 47.6932C7.2101 47.1964 6.80767 46.794 6.31092 46.7936Z" fill="#2B8CFF"/>
<path d="M16.2084 50.3928C14.7173 50.3928 13.5088 49.1843 13.5088 47.6932C13.5088 46.2025 14.7173 44.9936 16.2084 44.9936C17.699 44.9936 18.9076 46.2025 18.9076 47.6932C18.9059 49.1834 17.6986 50.3911 16.2084 50.3928ZM16.2084 46.7936C15.7112 46.7936 15.3084 47.1964 15.3084 47.6932C15.3084 48.1903 15.7112 48.5932 16.2084 48.5932C16.7051 48.5932 17.108 48.1903 17.108 47.6932C17.1076 47.1964 16.7051 46.794 16.2084 46.7936Z" fill="#2B8CFF"/>
<path d="M36.9043 50.3928C35.4136 50.3928 34.2051 49.1843 34.2051 47.6932C34.2051 46.2025 35.4136 44.9936 36.9043 44.9936C38.3953 44.9936 39.6038 46.2025 39.6038 47.6932C39.6022 49.1834 38.3945 50.3911 36.9043 50.3928ZM36.9043 46.7936C36.4075 46.7936 36.0047 47.1964 36.0047 47.6932C36.0047 48.1903 36.4075 48.5932 36.9043 48.5932C37.4014 48.5932 37.8043 48.1903 37.8043 47.6932C37.8034 47.1964 37.401 46.794 36.9043 46.7936Z" fill="#2B8CFF"/>
<path d="M47.7025 50.3928C46.2114 50.3928 45.0029 49.1843 45.0029 47.6932C45.0029 46.2025 46.2114 44.9936 47.7025 44.9936C49.1932 44.9936 50.4017 46.2025 50.4017 47.6932C50.4001 49.1834 49.1924 50.3911 47.7025 50.3928ZM47.7025 46.7936C47.2054 46.7936 46.8025 47.1964 46.8025 47.6932C46.8025 48.1903 47.2054 48.5932 47.7025 48.5932C48.1993 48.5932 48.6021 48.1903 48.6021 47.6932C48.6013 47.1964 48.1989 46.794 47.7025 46.7936Z" fill="#2B8CFF"/>
<path d="M27.0058 50.3928C25.5152 50.3928 24.3066 49.1843 24.3066 47.6932C24.3066 46.2025 25.5152 44.9936 27.0058 44.9936C28.4969 44.9936 29.7054 46.2025 29.7054 47.6932C29.7038 49.1834 28.4961 50.3911 27.0058 50.3928ZM27.0058 46.7936C26.5091 46.7936 26.1062 47.1964 26.1062 47.6932C26.1062 48.1903 26.5091 48.5932 27.0058 48.5932C27.503 48.5932 27.9058 48.1903 27.9058 47.6932C27.905 47.1964 27.5026 46.794 27.0058 46.7936Z" fill="#2B8CFF"/>
<path d="M11.7095 46.791C11.5921 46.7893 11.4759 46.765 11.3676 46.7189C11.2588 46.6732 11.1583 46.6093 11.0706 46.5299C10.7226 46.1752 10.7226 45.6068 11.0706 45.2521C11.1583 45.1726 11.2584 45.1088 11.3676 45.0631C11.5867 44.9737 11.8322 44.9737 12.0513 45.0631C12.1605 45.1088 12.261 45.1726 12.3483 45.2521C12.5127 45.4247 12.6058 45.6529 12.6095 45.891C12.6078 45.9511 12.6016 46.0117 12.5913 46.071C12.5815 46.1274 12.5633 46.1818 12.5374 46.2329C12.5176 46.2901 12.4904 46.3449 12.4562 46.3947C12.4204 46.4401 12.3846 46.485 12.3483 46.5299C12.2606 46.6089 12.1605 46.6732 12.0513 46.7189C11.9434 46.765 11.8273 46.7893 11.7095 46.791Z" fill="#2B8CFF"/>
<path d="M22.5073 50.3907C22.3895 50.389 22.2734 50.3647 22.165 50.3186C22.0563 50.2729 21.9558 50.209 21.8685 50.1295C21.5204 49.7749 21.5204 49.2069 21.8685 48.8518C21.9558 48.7723 22.0563 48.7085 22.165 48.6627C22.3846 48.5734 22.6301 48.5734 22.8492 48.6627C22.9579 48.7085 23.0584 48.7723 23.1462 48.8518C23.3101 49.0244 23.4032 49.2526 23.4069 49.4907C23.4053 49.5512 23.3991 49.6113 23.3888 49.6707C23.3789 49.7271 23.3608 49.7815 23.3348 49.8325C23.3151 49.8898 23.2879 49.9446 23.2541 49.9944C23.2178 50.0397 23.182 50.0846 23.1462 50.1295C23.0584 50.209 22.9579 50.2729 22.8492 50.3186C22.7409 50.3647 22.6247 50.389 22.5073 50.3907Z" fill="#2B8CFF"/>
<path d="M42.3029 46.791C42.4207 46.7893 42.5369 46.765 42.6448 46.7189C42.7539 46.6732 42.8544 46.6093 42.9418 46.5299C43.2898 46.1752 43.2898 45.6068 42.9418 45.2521C42.8544 45.1726 42.7539 45.1088 42.6448 45.0631C42.4257 44.9737 42.1802 44.9737 41.961 45.0631C41.8523 45.1088 41.7518 45.1726 41.6641 45.2521C41.5001 45.4247 41.4066 45.6529 41.4033 45.891C41.405 45.9511 41.4107 46.0117 41.421 46.071C41.4313 46.1274 41.4495 46.1818 41.4754 46.2329C41.4948 46.2901 41.5224 46.3449 41.5561 46.3947C41.5924 46.4401 41.6282 46.485 41.6641 46.5299C41.7518 46.6089 41.8523 46.6732 41.961 46.7189C42.0694 46.765 42.1855 46.7893 42.3029 46.791Z" fill="#2B8CFF"/>
<path d="M11.7095 50.3907C11.5921 50.389 11.4759 50.3647 11.3676 50.3186C11.2588 50.2729 11.1583 50.209 11.0706 50.1295C10.7226 49.7749 10.7226 49.2069 11.0706 48.8518C11.1583 48.7723 11.2584 48.7085 11.3676 48.6627C11.5867 48.5734 11.8322 48.5734 12.0513 48.6627C12.1605 48.7085 12.261 48.7723 12.3483 48.8518C12.5127 49.0244 12.6058 49.2526 12.6095 49.4907C12.6078 49.5512 12.6016 49.6113 12.5913 49.6707C12.5815 49.7271 12.5633 49.7815 12.5374 49.8325C12.5176 49.8898 12.4904 49.9446 12.4562 49.9944C12.4204 50.0397 12.3846 50.0846 12.3483 50.1295C12.2606 50.209 12.1605 50.2729 12.0513 50.3186C11.9434 50.3647 11.8273 50.389 11.7095 50.3907Z" fill="#2B8CFF"/>
<path d="M42.3029 50.3907C42.4207 50.389 42.5369 50.3647 42.6448 50.3186C42.7539 50.2729 42.8544 50.209 42.9418 50.1295C43.2898 49.7749 43.2898 49.2069 42.9418 48.8518C42.8544 48.7723 42.7539 48.7085 42.6448 48.6627C42.4257 48.5734 42.1802 48.5734 41.961 48.6627C41.8523 48.7085 41.7518 48.7723 41.6641 48.8518C41.5001 49.0244 41.4066 49.2526 41.4033 49.4907C41.405 49.5512 41.4107 49.6113 41.421 49.6707C41.4313 49.7271 41.4495 49.7815 41.4754 49.8325C41.4948 49.8898 41.5224 49.9446 41.5561 49.9944C41.5924 50.0397 41.6282 50.0846 41.6641 50.1295C41.7518 50.209 41.8523 50.2729 41.961 50.3186C42.0694 50.3647 42.1855 50.389 42.3029 50.3907Z" fill="#2B8CFF"/>
<path d="M31.5055 50.3907C31.6229 50.389 31.739 50.3647 31.8473 50.3186C31.9565 50.2729 32.0566 50.209 32.1443 50.1295C32.4924 49.7749 32.4924 49.2069 32.1443 48.8518C32.0566 48.7723 31.9565 48.7085 31.8473 48.6627C31.6282 48.5734 31.3827 48.5734 31.1636 48.6627C31.0544 48.7085 30.9539 48.7723 30.8666 48.8518C30.7023 49.0244 30.6092 49.2526 30.6055 49.4907C30.6071 49.5512 30.6133 49.6113 30.6236 49.6707C30.6335 49.7271 30.652 49.7815 30.6776 49.8325C30.6973 49.8898 30.7245 49.9446 30.7587 49.9944C30.7945 50.0397 30.8308 50.0846 30.8666 50.1295C30.9543 50.209 31.0544 50.2729 31.1636 50.3186C31.2715 50.3647 31.3877 50.389 31.5055 50.3907Z" fill="#2B8CFF"/>
<path d="M22.5073 46.7865C22.3895 46.7848 22.2734 46.7605 22.165 46.7144C22.0563 46.6687 21.9558 46.6048 21.8685 46.5253C21.5204 46.1707 21.5204 45.6027 21.8685 45.2476C21.9558 45.1681 22.0563 45.1038 22.165 45.0581C22.3846 44.9687 22.6301 44.9687 22.8492 45.0581C22.9579 45.1043 23.0584 45.1681 23.1462 45.2476C23.3101 45.4202 23.4036 45.6484 23.4069 45.8865C23.4053 45.947 23.3991 46.0071 23.3888 46.0665C23.3789 46.1229 23.3608 46.1773 23.3348 46.2283C23.3155 46.286 23.2879 46.3404 23.2541 46.3906C23.2178 46.4355 23.182 46.4804 23.1462 46.5253C23.0584 46.6048 22.9579 46.6687 22.8492 46.7144C22.7409 46.7605 22.6247 46.7848 22.5073 46.7865Z" fill="#2B8CFF"/>
<path d="M31.5055 46.7865C31.6229 46.7848 31.739 46.7605 31.8473 46.7144C31.9565 46.6687 32.0566 46.6048 32.1443 46.5253C32.4924 46.1707 32.4924 45.6027 32.1443 45.2476C32.057 45.1681 31.9565 45.1038 31.8473 45.0581C31.6282 44.9687 31.3827 44.9687 31.1636 45.0581C31.0544 45.1043 30.9539 45.1681 30.8666 45.2476C30.7023 45.4202 30.6092 45.6484 30.6055 45.8865C30.6071 45.947 30.6133 46.0071 30.6236 46.0665C30.6335 46.1229 30.652 46.1773 30.6776 46.2283C30.6973 46.286 30.7245 46.3404 30.7587 46.3906C30.7945 46.4355 30.8308 46.4804 30.8666 46.5253C30.9543 46.6048 31.0544 46.6687 31.1636 46.7144C31.2715 46.7605 31.3877 46.7848 31.5055 46.7865Z" fill="#2B8CFF"/>
<path d="M14.4089 43.1911H7.21055C6.71338 43.1911 6.31055 42.7883 6.31055 42.2915V38.6923C6.31137 37.6988 7.11663 36.8936 8.11014 36.8928H13.5089C14.5024 36.8936 15.3077 37.6988 15.3085 38.6923V42.2915C15.3085 42.7883 14.9057 43.1911 14.4089 43.1911ZM8.11014 41.3915H13.5089V38.6923H8.11014V41.3915Z" fill="#2B8CFF"/>
<path d="M25.2068 43.1934H18.0084C17.5112 43.1934 17.1084 42.7906 17.1084 42.2938V29.6963C17.1096 28.7028 17.9145 27.8979 18.908 27.8967H24.3072C25.3007 27.8979 26.1055 28.7028 26.1068 29.6963V42.2938C26.1068 42.7906 25.7039 43.1934 25.2068 43.1934ZM18.908 41.3938H24.3072V29.6963H18.908V41.3938Z" fill="#2B8CFF"/>
<path d="M46.8025 43.1922H39.6041C39.1069 43.1922 38.7041 42.7893 38.7041 42.2926V20.6971C38.7053 19.7036 39.5102 18.8983 40.5037 18.8975H45.9025C46.896 18.8983 47.7012 19.7036 47.7025 20.6971V42.2926C47.7025 42.7893 47.2992 43.1922 46.8025 43.1922ZM40.5037 41.3926H45.9025V20.6971H40.5037V41.3926Z" fill="#2B8CFF"/>
<path d="M36.0046 43.1911H28.8058C28.3091 43.1911 27.9062 42.7882 27.9062 42.2915V25.1952C27.9071 24.2017 28.7123 23.3964 29.7058 23.3956H35.1046C36.0981 23.3964 36.9034 24.2017 36.9042 25.1952V42.2915C36.9042 42.7882 36.5014 43.1911 36.0046 43.1911ZM29.7058 41.3915H35.1046V25.1952H29.7058V41.3915Z" fill="#2B8CFF"/>
<path d="M25.2068 38.6924H18.0084C17.5112 38.6924 17.1084 38.2895 17.1084 37.7924C17.1084 37.2956 17.5112 36.8928 18.0084 36.8928H25.2068C25.7039 36.8928 26.1068 37.2956 26.1068 37.7924C26.1068 38.2895 25.7039 38.6924 25.2068 38.6924Z" fill="#2B8CFF"/>
<path d="M25.2068 34.1944H18.0084C17.5112 34.1944 17.1084 33.7915 17.1084 33.2948C17.1084 32.7976 17.5112 32.3948 18.0084 32.3948H25.2068C25.7039 32.3948 26.1068 32.7976 26.1068 33.2948C26.1068 33.7915 25.7039 34.1944 25.2068 34.1944Z" fill="#2B8CFF"/>
<path d="M36.0046 38.6924H28.8058C28.3091 38.6924 27.9062 38.2895 27.9062 37.7924C27.9062 37.2956 28.3091 36.8928 28.8058 36.8928H36.0046C36.5014 36.8928 36.9042 37.2956 36.9042 37.7924C36.9042 38.2895 36.5014 38.6924 36.0046 38.6924Z" fill="#2B8CFF"/>
<path d="M36.0046 34.1944H28.8058C28.3091 34.1944 27.9062 33.7915 27.9062 33.2948C27.9062 32.7976 28.3091 32.3948 28.8058 32.3948H36.0046C36.5014 32.3948 36.9042 32.7976 36.9042 33.2948C36.9042 33.7915 36.5014 34.1944 36.0046 34.1944Z" fill="#2B8CFF"/>
<path d="M36.0046 29.6963H28.8058C28.3091 29.6963 27.9062 29.2934 27.9062 28.7967C27.9062 28.2995 28.3091 27.8967 28.8058 27.8967H36.0046C36.5014 27.8967 36.9042 28.2995 36.9042 28.7967C36.9042 29.2934 36.5014 29.6963 36.0046 29.6963Z" fill="#2B8CFF"/>
<path d="M46.8025 38.6924H39.6041C39.1069 38.6924 38.7041 38.2895 38.7041 37.7924C38.7041 37.2956 39.1069 36.8928 39.6041 36.8928H46.8025C47.2992 36.8928 47.7025 37.2956 47.7025 37.7924C47.7025 38.2895 47.2992 38.6924 46.8025 38.6924Z" fill="#2B8CFF"/>
<path d="M46.8025 34.1944H39.6041C39.1069 34.1944 38.7041 33.7915 38.7041 33.2948C38.7041 32.7976 39.1069 32.3948 39.6041 32.3948H46.8025C47.2992 32.3948 47.7025 32.7976 47.7025 33.2948C47.7025 33.7915 47.2992 34.1944 46.8025 34.1944Z" fill="#2B8CFF"/>
<path d="M46.8025 29.6963H39.6041C39.1069 29.6963 38.7041 29.2934 38.7041 28.7967C38.7041 28.2995 39.1069 27.8967 39.6041 27.8967H46.8025C47.2992 27.8967 47.7025 28.2995 47.7025 28.7967C47.7025 29.2934 47.2992 29.6963 46.8025 29.6963Z" fill="#2B8CFF"/>
<path d="M46.8025 25.1952H39.6041C39.1069 25.1952 38.7041 24.7923 38.7041 24.2952C38.7041 23.7984 39.1069 23.3956 39.6041 23.3956H46.8025C47.2992 23.3956 47.7025 23.7984 47.7025 24.2952C47.7025 24.7923 47.2992 25.1952 46.8025 25.1952Z" fill="#2B8CFF"/>
<path d="M2.71335 30.5952C1.53614 30.596 0.493626 29.8336 0.138156 28.7116C-0.217725 27.5891 0.194999 26.3654 1.15802 25.6878L25.4914 10.3656C26.3185 9.80455 27.3878 9.74606 28.2709 10.214C29.154 10.6819 29.706 11.5996 29.706 12.5989V15.0736L44.8157 5.17191C43.4951 4.59155 42.8645 3.07576 43.3835 1.72967C43.9021 0.383991 45.3874 -0.315826 46.7557 0.140147L52.1549 1.93974C52.3782 2.01635 52.5899 2.12221 52.7855 2.25443C52.8378 2.28944 52.8815 2.32198 52.926 2.35534C53.295 2.6309 53.5854 2.99832 53.7683 3.42093C53.7897 3.46953 53.8091 3.52143 53.8284 3.57374C53.8981 3.76074 53.9467 3.95434 53.9739 4.15164C53.9804 4.185 53.9858 4.21795 53.9887 4.24843C53.9907 4.26615 53.9916 4.28427 53.9924 4.30363C54.0068 4.52317 53.994 4.74354 53.9541 4.95978C53.945 5.01457 53.9327 5.0677 53.9195 5.12084C53.9055 5.19869 53.8869 5.27571 53.863 5.35109L52.0626 10.7527C51.6639 11.9485 50.4904 12.7093 49.2358 12.5849C47.9811 12.4605 46.9798 11.4843 46.8233 10.2333L28.3677 22.1273C27.5332 22.6155 26.501 22.6196 25.6623 22.1385C24.8241 21.6574 24.3068 20.7644 24.3072 19.7976V17.6825L4.22132 30.1326C3.7777 30.4374 3.25171 30.5989 2.71335 30.5952ZM27.0064 11.6985C26.8214 11.6985 26.6406 11.7561 26.4894 11.8632L2.15523 27.1851C1.77505 27.4792 1.69555 28.0216 1.97523 28.4129C2.2685 28.808 2.81962 28.9039 3.22905 28.6312L24.7323 15.3005C25.0099 15.1284 25.3592 15.1201 25.6446 15.2791C25.9301 15.4381 26.1068 15.7392 26.1068 16.0658V19.7976C26.1068 20.1165 26.2752 20.4118 26.5504 20.5733C26.8251 20.7351 27.1654 20.7388 27.4442 20.584L47.6438 7.56423C47.9646 7.35786 48.3811 7.37599 48.6826 7.61036C48.9841 7.84432 49.1052 8.24345 48.9845 8.60551L48.648 9.61549C48.4915 10.0867 48.7464 10.5958 49.2172 10.7532C49.688 10.9014 50.1914 10.6498 50.3553 10.1843L52.1549 4.78555L52.1718 4.68999L53.0677 4.80615L52.1817 4.65127C52.1936 4.58537 52.1994 4.51823 52.1977 4.45109L52.1957 4.43544C52.187 4.35306 52.1677 4.27232 52.1388 4.19489C52.1092 4.11621 52.0713 4.04125 52.0256 3.97081L51.998 3.93951C51.951 3.88349 51.8975 3.83283 51.8386 3.78958C51.7611 3.73026 51.6754 3.68207 51.584 3.64706L46.1869 1.84747C45.7177 1.69795 45.2156 1.95333 45.0599 2.42042C44.9046 2.88752 45.153 3.39292 45.6181 3.55479L47.1351 4.06061C47.4625 4.16935 47.699 4.45603 47.7435 4.79791C47.7879 5.1402 47.6331 5.47754 47.3443 5.6666L29.2994 17.4918C29.023 17.6731 28.6692 17.6879 28.3784 17.531C28.0876 17.3736 27.9064 17.0696 27.9064 16.7393V12.5989C27.9051 12.1025 27.5031 11.6997 27.0064 11.6985Z" fill="#2B8CFF"/>
</g>
<defs>
<clipPath id="clip0">
<rect width="54" height="54" fill="white"/>
</clipPath>
</defs>
</svg>
