<svg width="54" height="54" viewBox="0 0 54 54" fill="none" xmlns="http://www.w3.org/2000/svg">
<g clip-path="url(#clip0)">
<path d="M48.6656 32.4018V42.3004H27.0684V32.4018C27.07 31.9055 27.4721 31.5035 27.9684 31.5018H32.4679V21.6031C32.4691 21.1068 32.8712 20.7048 33.3675 20.7031H42.3661C42.8628 20.7048 43.2649 21.1068 43.2661 21.6031V31.5018H47.7657C48.2619 31.5035 48.664 31.9055 48.6656 32.4018Z" fill="#E3F0FF"/>
<path d="M45.9657 32.4018V42.3004H27.0684V32.4018C27.07 31.9055 27.4721 31.5035 27.9684 31.5018H32.4679V21.6031C32.4692 21.1068 32.8712 20.7048 33.3675 20.7031H39.6666C40.1633 20.7048 40.5653 21.1068 40.5666 21.6031V31.5018H45.0661C45.5624 31.5035 45.9644 31.9055 45.9657 32.4018Z" fill="#EFEFF6"/>
<path d="M37.867 31.5031V42.3018H27.0684V32.4031C27.07 31.9068 27.4721 31.5048 27.9684 31.5031H37.867Z" fill="#E3F0FF"/>
<path d="M35.1675 31.5031V42.3018H27.0684V32.4031C27.07 31.9068 27.4721 31.5048 27.9684 31.5031H35.1675Z" fill="#EFEFF6"/>
<path d="M43.266 21.6031V31.5018H32.4678V21.6031C32.469 21.1068 32.8711 20.7048 33.3673 20.7031H42.366C42.8627 20.7048 43.2648 21.1068 43.266 21.6031Z" fill="#E3F0FF"/>
<path d="M40.5664 21.6031V31.5018H32.4678V21.6031C32.469 21.1068 32.8711 20.7048 33.3673 20.7031H39.6664C40.1631 20.7048 40.5652 21.1068 40.5664 21.6031Z" fill="#EFEFF6"/>
<path d="M53.1645 47.7022C53.1599 50.6824 50.7456 53.0971 47.7654 53.1013H6.37121C3.39023 53.0992 0.974192 50.6832 0.97168 47.7022C0.976286 44.7221 3.39106 42.3073 6.37121 42.3031H47.7654C50.7464 42.3052 53.1624 44.7212 53.1645 47.7022Z" fill="#E3F0FF"/>
<path d="M50.465 47.7022C50.4604 50.6824 48.0456 53.0971 45.0659 53.1013H6.37121C3.39023 53.0992 0.974192 50.6832 0.97168 47.7022C0.976286 44.7221 3.39106 42.3073 6.37121 42.3031H45.0659C48.0468 42.3052 50.4625 44.7212 50.465 47.7022Z" fill="#EFEFF6"/>
<path d="M26.4895 5.76135L29.1924 10.4393C29.3117 10.6466 29.3436 10.8929 29.2803 11.1236C29.2175 11.3548 29.0646 11.5508 28.8565 11.6689L25.9873 13.3269C26.2327 14.631 26.2319 15.9699 25.9844 17.2736L28.8599 18.9337C29.2891 19.1833 29.4361 19.7324 29.189 20.1633L26.4895 24.8392C26.2403 25.268 25.6908 25.4154 25.2603 25.1684L22.3849 23.5082C21.3793 24.3747 20.2205 25.0448 18.9683 25.4841L18.9666 28.7981C18.9687 29.0372 18.8753 29.2675 18.707 29.4376C18.5386 29.6076 18.3091 29.7035 18.07 29.7039L12.6675 29.7022C12.4301 29.7014 12.2023 29.6059 12.0347 29.4371C11.8672 29.2684 11.7734 29.0401 11.7742 28.8022L11.7759 25.4883C10.522 25.0415 9.3603 24.371 8.34682 23.5087L5.47723 25.1663C5.2716 25.286 5.02702 25.3191 4.79711 25.2584C4.56719 25.1977 4.37077 25.0477 4.251 24.8421L1.54809 20.165C1.42915 19.9577 1.39732 19.711 1.46056 19.4803C1.52338 19.2495 1.67582 19.0535 1.88438 18.9354L4.75355 17.2774C4.50772 15.9733 4.50856 14.6344 4.75648 13.3307L1.88103 11.6701C1.45218 11.421 1.30477 10.8715 1.55186 10.441L4.25141 5.76512C4.50102 5.33586 5.05006 5.18886 5.48058 5.43553L8.35645 7.09606C9.36156 6.22957 10.5204 5.55949 11.7726 5.12018L11.7738 1.80625C11.7722 1.56669 11.8655 1.33678 12.0339 1.16674C12.2023 0.996714 12.4313 0.90081 12.6709 0.900391L18.0729 0.902066C18.3108 0.902903 18.5386 0.998389 18.7062 1.16716C18.8737 1.33594 18.9671 1.56418 18.9662 1.80206L18.965 5.11599C20.2184 5.56243 21.3806 6.23334 22.3941 7.09564L25.2632 5.43763C25.4689 5.31785 25.7134 5.28476 25.9438 5.34549C26.1737 5.40622 26.3701 5.55573 26.4895 5.76135Z" fill="#99C8FF"/>
<path d="M46.8662 47.7003C46.8662 48.6941 46.0604 49.5003 45.0666 49.5003C44.0724 49.5003 43.2666 48.6941 43.2666 47.7003C43.2666 46.7065 44.0724 45.9008 45.0666 45.9008C46.0604 45.9008 46.8662 46.7065 46.8662 47.7003Z" fill="#99C8FF"/>
<path d="M39.6669 47.7003C39.6669 48.6941 38.8612 49.5003 37.8674 49.5003C36.8731 49.5003 36.0674 48.6941 36.0674 47.7003C36.0674 46.7065 36.8731 45.9008 37.8674 45.9008C38.8612 45.9008 39.6669 46.7065 39.6669 47.7003Z" fill="#99C8FF"/>
<path d="M32.4687 47.7003C32.4687 48.6941 31.6625 49.5003 30.6687 49.5003C29.6749 49.5003 28.8691 48.6941 28.8691 47.7003C28.8691 46.7065 29.6749 45.9008 30.6687 45.9008C31.6625 45.9008 32.4687 46.7065 32.4687 47.7003Z" fill="#99C8FF"/>
<path d="M25.2695 47.7003C25.2695 48.6941 24.4637 49.5003 23.4695 49.5003C22.4757 49.5003 21.6699 48.6941 21.6699 47.7003C21.6699 46.7065 22.4757 45.9008 23.4695 45.9008C24.4637 45.9008 25.2695 46.7065 25.2695 47.7003Z" fill="#99C8FF"/>
<path d="M18.0693 47.7003C18.0693 48.6941 17.2635 49.5003 16.2697 49.5003C15.2755 49.5003 14.4697 48.6941 14.4697 47.7003C14.4697 46.7065 15.2755 45.9008 16.2697 45.9008C17.2635 45.9008 18.0693 46.7065 18.0693 47.7003Z" fill="#99C8FF"/>
<path d="M10.871 47.7003C10.871 48.6941 10.0653 49.5003 9.07147 49.5003C8.07725 49.5003 7.27148 48.6941 7.27148 47.7003C7.27148 46.7065 8.07725 45.9008 9.07147 45.9008C10.0653 45.9008 10.871 46.7065 10.871 47.7003Z" fill="#99C8FF"/>
<path d="M22.5701 15.3054C22.5676 19.2806 19.3458 22.5024 15.371 22.5045C14.9183 22.504 14.4664 22.4617 14.0212 22.3784C10.6269 21.7297 8.17188 18.7613 8.17188 15.3054C8.17188 11.8499 10.6269 8.88103 14.0212 8.23232C14.4664 8.14898 14.9183 8.1071 15.371 8.10626C17.2803 8.10584 19.1117 8.86428 20.4619 10.2145C21.8121 11.5647 22.5705 13.3961 22.5701 15.3054Z" fill="#E3F0FF"/>
<path d="M19.8701 15.3039C19.8701 11.3978 17.2514 8.2309 14.0212 8.2309C10.7906 8.2309 8.17188 11.3978 8.17188 15.3039C8.17188 19.2105 10.7906 22.377 14.0212 22.377C17.2514 22.377 19.8701 19.2105 19.8701 15.3039Z" fill="#EFEFF6"/>
<path d="M18.9706 15.3062C18.9677 17.293 17.3578 18.9033 15.371 18.9058C14.9074 18.9096 14.4476 18.8174 14.0213 18.6357C12.6618 18.0891 11.7715 16.7712 11.7715 15.3062C11.7715 13.8413 12.6618 12.5233 14.0213 11.9768C14.4476 11.7951 14.9074 11.7033 15.371 11.7067C16.3259 11.7067 17.2414 12.0857 17.9165 12.7608C18.5916 13.4359 18.9706 14.3514 18.9706 15.3062Z" fill="#99C8FF"/>
<path d="M16.271 15.304C16.271 13.465 15.2638 11.9745 14.0213 11.9745C12.7787 11.9745 11.7715 13.465 11.7715 15.304C11.7715 17.1429 12.7787 18.6334 14.0213 18.6334C15.2638 18.6334 16.271 17.1429 16.271 15.304Z" fill="#99C8FF"/>
<path d="M6.37121 53.1013H9.07077C6.08978 53.0992 3.67375 50.6832 3.67124 47.7022C3.67584 44.7221 6.09062 42.3073 9.07077 42.3031H6.37121C3.39106 42.3073 0.976286 44.7221 0.97168 47.7022C0.974192 50.6832 3.39023 53.0992 6.37121 53.1013Z" fill="white"/>
<path d="M1.54809 20.1635L4.251 24.841C4.37035 25.0471 4.56677 25.1966 4.79711 25.2573C5.02703 25.3181 5.2716 25.285 5.47723 25.1652L6.72189 24.4461L4.24807 20.1635C4.12871 19.9562 4.09688 19.7095 4.16012 19.4788C4.22294 19.248 4.3758 19.052 4.58394 18.9339L7.45311 17.2759C7.20728 15.9718 7.20854 14.6329 7.45604 13.3292L4.58101 11.6687C4.15174 11.4195 4.00475 10.87 4.25142 10.4395L6.72608 6.15354L5.48058 5.43447C5.05006 5.18738 4.50102 5.33437 4.25142 5.76364L1.55186 10.4395C1.30519 10.87 1.45218 11.4195 1.88103 11.6687L4.7569 13.3292C4.50898 14.6329 4.50814 15.9718 4.75397 17.2759L1.88438 18.9339C1.67624 19.052 1.52338 19.248 1.46056 19.4788C1.39732 19.7095 1.42915 19.9562 1.54809 20.1635Z" fill="white"/>
<path d="M19.8709 38.6996C19.4738 38.7 19.1237 38.4403 19.0086 38.0609C18.8934 37.6811 19.0404 37.2711 19.3708 37.0508L22.0704 35.2512C22.4837 34.9811 23.0374 35.0946 23.3113 35.5054C23.5852 35.9163 23.4767 36.4707 23.0684 36.7484L20.3688 38.5484C20.2214 38.6468 20.048 38.6996 19.8709 38.6996Z" fill="#2B8CFF"/>
<path d="M22.5688 36.8997H3.67106C3.17437 36.8997 2.77148 36.4968 2.77148 36.0001C2.77148 35.503 3.17437 35.1001 3.67106 35.1001H19.5966L19.37 34.9489C18.9617 34.6713 18.8532 34.1164 19.1271 33.7055C19.401 33.2947 19.9547 33.1812 20.368 33.4517L23.0676 35.2513C23.3976 35.4712 23.5446 35.8812 23.4298 36.2606C23.3151 36.6404 22.965 36.8997 22.5688 36.8997Z" fill="#2B8CFF"/>
<path d="M37.8668 29.7004C37.3697 29.7004 36.9668 29.2975 36.9668 28.8004V25.2008C36.9668 24.7037 37.3697 24.3008 37.8668 24.3008C38.3639 24.3008 38.7668 24.7037 38.7668 25.2008V28.8004C38.7668 29.2975 38.3639 29.7004 37.8668 29.7004Z" fill="#2B8CFF"/>
<path d="M39.6659 27.0034C39.4272 27.0038 39.1985 26.9092 39.0297 26.74L37.8663 25.5766L36.7029 26.74C36.3495 27.0809 35.7883 27.0763 35.4411 26.7291C35.0943 26.3819 35.0893 25.8207 35.4302 25.4677L37.2302 23.6677C37.3985 23.4989 37.6276 23.4043 37.8663 23.4043C38.105 23.4043 38.3337 23.4989 38.5025 23.6677L40.302 25.4677C40.5596 25.7248 40.6367 26.1118 40.4972 26.4481C40.3582 26.7844 40.0298 27.0034 39.6659 27.0034Z" fill="#2B8CFF"/>
<path d="M48.6654 43.2009H37.8668C37.3697 43.2009 36.9668 42.7981 36.9668 42.3014V31.5027C36.9668 31.0056 37.3697 30.6027 37.8668 30.6027H47.7655C48.7588 30.604 49.5642 31.4093 49.565 32.4027V42.3014C49.565 42.7981 49.1621 43.2009 48.6654 43.2009ZM38.7668 41.4014H47.7655V32.4027H38.7668V41.4014Z" fill="#2B8CFF"/>
<path d="M37.8666 43.2009H27.068C26.5708 43.2009 26.168 42.7981 26.168 42.3014V32.4027C26.1692 31.4093 26.9746 30.604 27.968 30.6027H37.8666C38.3637 30.6027 38.7666 31.0056 38.7666 31.5027V42.3014C38.7666 42.7981 38.3637 43.2009 37.8666 43.2009ZM27.968 41.4014H36.9666V32.4027H27.968V41.4014Z" fill="#2B8CFF"/>
<path d="M43.2656 32.4014H32.4674C31.9703 32.4014 31.5674 31.9985 31.5674 31.5014V21.6027C31.5686 20.6093 32.3736 19.804 33.3669 19.8032H42.3656C43.3594 19.804 44.1644 20.6093 44.1656 21.6027V31.5014C44.1656 31.9985 43.7627 32.4014 43.2656 32.4014ZM33.3669 30.6014H42.3656V21.6027H33.3669V30.6014Z" fill="#2B8CFF"/>
<path d="M45.0662 50.3995C43.5753 50.3995 42.3662 49.1908 42.3662 47.6999C42.3662 46.209 43.5753 45.0004 45.0662 45.0004C46.5571 45.0004 47.7658 46.209 47.7658 47.6999C47.7641 49.1904 46.5563 50.3978 45.0662 50.3995ZM45.0662 46.7999C44.5691 46.7999 44.1662 47.2028 44.1662 47.6999C44.1662 48.197 44.5691 48.5999 45.0662 48.5999C45.5629 48.5999 45.9658 48.197 45.9658 47.6999C45.9653 47.2032 45.5629 46.8003 45.0662 46.7999Z" fill="#2B8CFF"/>
<path d="M37.8666 50.3995C36.3756 50.3995 35.167 49.1908 35.167 47.6999C35.167 46.209 36.3756 45.0004 37.8666 45.0004C39.3575 45.0004 40.5661 46.209 40.5661 47.6999C40.5644 49.1904 39.3566 50.3978 37.8666 50.3995ZM37.8666 46.7999C37.3694 46.7999 36.9666 47.2028 36.9666 47.6999C36.9666 48.197 37.3694 48.5999 37.8666 48.5999C38.3637 48.5999 38.7666 48.197 38.7666 47.6999C38.7661 47.2032 38.3633 46.8003 37.8666 46.7999Z" fill="#2B8CFF"/>
<path d="M30.6673 50.3995C29.1764 50.3995 27.9678 49.1908 27.9678 47.6999C27.9678 46.209 29.1764 45.0004 30.6673 45.0004C32.1583 45.0004 33.3669 46.209 33.3669 47.6999C33.3652 49.1904 32.1578 50.3978 30.6673 50.3995ZM30.6673 46.7999C30.1702 46.7999 29.7673 47.2028 29.7673 47.6999C29.7673 48.197 30.1702 48.5999 30.6673 48.5999C31.1645 48.5999 31.5673 48.197 31.5673 47.6999C31.5669 47.2032 31.164 46.8003 30.6673 46.7999Z" fill="#2B8CFF"/>
<path d="M23.4681 50.3995C21.9772 50.3995 20.7686 49.1908 20.7686 47.6999C20.7686 46.209 21.9772 45.0004 23.4681 45.0004C24.959 45.0004 26.1677 46.209 26.1677 47.6999C26.1664 49.1904 24.9586 50.3978 23.4681 50.3995ZM23.4681 46.7999C22.9714 46.7999 22.5685 47.2028 22.5685 47.6999C22.5685 48.197 22.9714 48.5999 23.4681 48.5999C23.9652 48.5999 24.3681 48.197 24.3681 47.6999C24.3677 47.2032 23.9652 46.8003 23.4681 46.7999Z" fill="#2B8CFF"/>
<path d="M16.2693 50.3995C14.778 50.3995 13.5693 49.1908 13.5693 47.6999C13.5693 46.209 14.778 45.0004 16.2693 45.0004C17.7602 45.0004 18.9689 46.209 18.9689 47.6999C18.9672 49.1904 17.7594 50.3978 16.2693 50.3995ZM16.2693 46.7999C15.7722 46.7999 15.3693 47.2028 15.3693 47.6999C15.3693 48.197 15.7722 48.5999 16.2693 48.5999C16.766 48.5999 17.1689 48.197 17.1689 47.6999C17.1685 47.2032 16.766 46.8003 16.2693 46.7999Z" fill="#2B8CFF"/>
<path d="M9.07065 50.3995C7.57974 50.3995 6.37109 49.1908 6.37109 47.6999C6.37109 46.209 7.57974 45.0004 9.07065 45.0004C10.5616 45.0004 11.7702 46.209 11.7702 47.6999C11.7685 49.1904 10.5607 50.3978 9.07065 50.3995ZM9.07065 46.7999C8.57354 46.7999 8.17066 47.2028 8.17066 47.6999C8.17066 48.197 8.57354 48.5999 9.07065 48.5999C9.56734 48.5999 9.97022 48.197 9.97022 47.6999C9.96981 47.2032 9.56734 46.8003 9.07065 46.7999Z" fill="#2B8CFF"/>
<path d="M6.37109 41.4027H47.7653V43.2023H6.37109V41.4027Z" fill="white"/>
<path d="M10.8702 42.3027C10.869 41.806 10.4669 41.4044 9.97023 41.4027H6.37109V43.2023H9.97023C10.4669 43.201 10.869 42.799 10.8702 42.3027Z" fill="#2B8CFF"/>
<path d="M47.766 43.2023V41.4027H17.1701C16.6734 41.4027 16.2705 41.8056 16.2705 42.3027C16.2705 42.7994 16.6734 43.2023 17.1701 43.2023H47.766Z" fill="#2B8CFF"/>
<path d="M13.5705 41.4023C13.3326 41.406 13.1044 41.499 12.9318 41.6632L12.8238 41.798C12.7898 41.8483 12.7626 41.9027 12.7429 41.9601C12.7165 42.0112 12.6985 42.0656 12.6889 42.1222C12.6784 42.1816 12.6726 42.242 12.6709 42.3023C12.6742 42.5406 12.7672 42.7688 12.9318 42.9409C13.142 43.1595 13.4494 43.2554 13.7468 43.1951C14.0437 43.1348 14.2895 42.9271 14.3984 42.644C14.4445 42.5359 14.4692 42.4199 14.4705 42.3023C14.473 42.0627 14.3787 41.8324 14.2096 41.6632C14.0404 41.494 13.81 41.3998 13.5705 41.4023Z" fill="#2B8CFF"/>
<path d="M47.7665 54.0009H6.37235C2.89341 54.0009 0.0732422 51.1808 0.0732422 47.7018C0.0732422 44.2229 2.89341 41.4027 6.37235 41.4027C6.86904 41.4027 7.27192 41.8056 7.27192 42.3027C7.27192 42.7994 6.86904 43.2023 6.37235 43.2023C3.88721 43.2023 1.87281 45.2171 1.87281 47.7018C1.87281 50.187 3.88721 52.2014 6.37235 52.2014H47.7665C50.2512 52.2014 52.2656 50.187 52.2656 47.7018C52.2656 45.2171 50.2512 43.2023 47.7665 43.2023C47.2694 43.2023 46.8665 42.7994 46.8665 42.3027C46.8665 41.8056 47.2694 41.4027 47.7665 41.4027C51.2455 41.4027 54.0656 44.2229 54.0656 47.7018C54.0656 51.1808 51.2455 54.0009 47.7665 54.0009Z" fill="#2B8CFF"/>
<path d="M15.3706 23.4003C10.8974 23.4003 7.27148 19.7744 7.27148 15.3017C7.27148 10.8285 10.8974 7.20258 15.3706 7.20258C19.8433 7.20258 23.4693 10.8285 23.4693 15.3017C23.4642 19.7723 19.8412 23.3953 15.3706 23.4003ZM15.3706 9.00256C11.8916 9.00256 9.07147 11.8227 9.07147 15.3017C9.07147 18.7806 11.8916 21.6008 15.3706 21.6008C18.8495 21.6008 21.6697 18.7806 21.6697 15.3017C21.6655 11.8244 18.8478 9.00633 15.3706 9.00256Z" fill="#2B8CFF"/>
<path d="M15.3706 19.8024C12.8855 19.8024 10.8711 17.788 10.8711 15.3033C10.8711 12.8181 12.8855 10.8037 15.3706 10.8037C17.8554 10.8037 19.8698 12.8181 19.8698 15.3033C19.8668 17.7867 17.8541 19.7994 15.3706 19.8024ZM15.3706 12.6037C13.8797 12.6037 12.6711 13.8123 12.6711 15.3033C12.6711 16.7942 13.8797 18.0028 15.3706 18.0028C16.8615 18.0028 18.0702 16.7942 18.0702 15.3033C18.0685 13.8128 16.8607 12.605 15.3706 12.6037Z" fill="#2B8CFF"/>
<path d="M18.073 30.6031L12.6667 30.6014C11.6721 30.5968 10.8697 29.7864 10.8743 28.7918L10.8751 26.104C9.94374 25.7145 9.06553 25.2077 8.26227 24.5959L5.92665 25.9457C5.51665 26.1877 5.02582 26.2539 4.56598 26.1291C4.10782 26.0076 3.71625 25.7099 3.47669 25.3011L0.767924 20.6148C0.274582 19.75 0.574021 18.6486 1.43758 18.1531L3.7686 16.8067C3.63626 15.8083 3.63667 14.7969 3.76943 13.7989L1.43088 12.4491C1.01753 12.2104 0.715993 11.8172 0.592448 11.3561C0.468903 10.895 0.533817 10.4033 0.77253 9.98996L3.47125 5.31452C3.9692 4.45431 5.06938 4.15948 5.93042 4.65575L8.26856 6.00595C9.06636 5.392 9.94206 4.88609 10.8726 4.50122L10.873 1.80543C10.8722 0.812464 11.6738 0.00544434 12.6667 0L18.073 0.00167518C19.068 0.00670073 19.8705 0.816652 19.8659 1.81171L19.865 4.49996C20.7964 4.88902 21.6746 5.39618 22.4775 6.00846L24.8135 4.65868C25.2231 4.41536 25.7143 4.34919 26.1738 4.47525C26.6319 4.5967 27.0235 4.89405 27.2635 5.30279L27.2689 5.31117L29.971 9.9887C30.2101 10.4033 30.2738 10.8962 30.1481 11.3582C30.0229 11.8201 29.7184 12.2129 29.3022 12.45L26.9716 13.7964C27.1035 14.7948 27.1031 15.8058 26.9707 16.8042L29.3093 18.154C30.1686 18.6523 30.4635 19.7517 29.968 20.6131L27.2685 25.2886C26.7701 26.1475 25.6708 26.4419 24.8097 25.9473L22.4712 24.5976C21.6734 25.2115 20.7977 25.717 19.8675 26.1019L19.8667 28.7981C19.8679 29.791 19.066 30.5981 18.073 30.6031ZM8.34561 22.6079C8.55878 22.6079 8.76483 22.6837 8.92732 22.8214C9.3926 23.2164 9.89223 23.5686 10.4207 23.8739C10.9484 24.1788 11.5029 24.4351 12.0771 24.6399C12.4356 24.7676 12.6751 25.1072 12.6747 25.4879L12.6739 28.8018L18.0696 28.8035L18.068 25.4833C18.068 25.1022 18.3083 24.7626 18.6681 24.6352C19.8148 24.2336 20.876 23.6201 21.7965 22.8269C22.0863 22.5764 22.5026 22.5371 22.8343 22.7281L25.7097 24.3886L28.4093 19.7127L25.5338 18.053C25.2021 17.8612 25.0279 17.4805 25.0995 17.104C25.3265 15.9105 25.3274 14.6851 25.1016 13.4911C25.0317 13.1163 25.2063 12.7381 25.5363 12.5471L28.4055 10.8895L25.7143 6.21786L25.7097 6.21409L22.8439 7.87462C22.5143 8.06559 22.1005 8.0279 21.8107 7.78123C20.8802 6.9897 19.8135 6.37365 18.6626 5.96365C18.3042 5.8355 18.065 5.49586 18.065 5.11559L18.0663 1.80166L12.6705 1.79957L12.6722 5.1202C12.6722 5.50172 12.4318 5.84136 12.0721 5.96826C10.925 6.36988 9.86375 6.98342 8.94366 7.77704C8.65385 8.02748 8.23715 8.06684 7.90546 7.87546L5.03043 6.21451L2.33087 10.8908L5.2059 12.5509C5.53801 12.7423 5.71223 13.123 5.64019 13.4995C5.41321 14.693 5.41279 15.9184 5.6381 17.112C5.70804 17.4872 5.53382 17.8654 5.20339 18.056L2.33422 19.7144L5.03043 24.3919L7.89583 22.7293C8.03236 22.6497 8.18773 22.6079 8.34603 22.6079H8.34561Z" fill="#2B8CFF"/>
</g>
<defs>
<clipPath id="clip0">
<rect width="54" height="54" fill="white"/>
</clipPath>
</defs>
</svg>
