<svg width="1817" height="1815" viewBox="0 0 1817 1815" fill="none" xmlns="http://www.w3.org/2000/svg">
<path fill-rule="evenodd" clip-rule="evenodd" d="M905.729 1812.8C1405.95 1812.8 1811.46 1406.99 1811.46 906.4C1811.46 405.809 1405.95 0 905.729 0C405.509 0 0 405.809 0 906.4C0 1406.99 405.509 1812.8 905.729 1812.8ZM905.745 1263.97C1081.66 1263.97 1224.27 1111.44 1224.27 923.287C1224.27 735.13 905.745 327.083 905.745 327.083C905.745 327.083 587.217 735.13 587.217 923.287C587.217 1111.44 729.827 1263.97 905.745 1263.97Z" fill="#E3E7F0"/>
<path fill-rule="evenodd" clip-rule="evenodd" d="M977.739 1260.93C1251.56 1260.93 1473.54 1023.52 1473.54 730.645C1473.54 550.625 1286.21 241.289 1141.85 29.6275C1530.39 131.683 1817 485.543 1817 906.394C1817 1406.98 1411.49 1812.79 911.271 1812.79C411.051 1812.79 5.54211 1406.98 5.54211 906.394C5.54211 432.668 368.694 43.8234 831.602 3.4519C685.359 215.035 481.942 543.052 481.942 730.645C481.942 900.067 556.227 1050.93 671.859 1148.01C730.237 1219.1 815.849 1263.96 911.258 1263.96C926.787 1263.96 942.056 1262.77 956.991 1260.48C963.871 1260.78 970.788 1260.93 977.739 1260.93Z" fill="#EBEEF7"/>
<path fill-rule="evenodd" clip-rule="evenodd" d="M1078.35 17.0926C1023.89 6.86635 967.709 1.51794 910.283 1.51794C410.062 1.51794 4.55383 407.327 4.55383 907.918C4.55383 1408.51 410.062 1814.32 910.283 1814.32C1329.96 1814.32 1682.97 1528.67 1785.77 1141.06C1656.4 1304.66 1456.25 1409.62 1231.59 1409.62C1011.42 1409.62 800.656 1315.14 688.21 1169.02C628.723 1107.13 591.771 1020.58 591.771 924.805C591.771 876.251 612.981 813.055 644.456 746.007C647.951 415.026 793.429 100.015 1078.35 17.0926Z" fill="#F3F6FE"/>
<path fill-rule="evenodd" clip-rule="evenodd" d="M1144.54 31.8379C1068.46 11.0804 988.386 0 905.729 0C405.509 0 0 405.809 0 906.4C0 1406.99 405.509 1812.8 905.729 1812.8C972.062 1812.8 1036.73 1805.66 1099.01 1792.12C790.079 1699.07 565.049 1412.19 565.049 1072.71C565.049 983.109 580.724 897.175 609.48 817.501C635.767 743.542 682.054 658.597 730.341 580.408C780.923 497.689 845.591 401.524 905.738 327.08C996.361 214.917 1078.5 113.4 1144.54 31.8379Z" fill="#DDE1EB"/>
</svg>
